<svg width="44" height="45" viewBox="0 0 44 45" fill="none" xmlns="http://www.w3.org/2000/svg">
<rect y="44.5" width="44" height="44" rx="22" transform="rotate(-90 0 44.5)" fill="white"/>
<path d="M24.2727 13.3725L24.2727 32.2823C24.2727 32.4019 24.375 32.4997 24.5 32.4997L26.2045 32.4997C26.3295 32.4997 26.4318 32.4019 26.4318 32.2823L26.4318 15.8371L31.6307 19.7582C31.7784 19.8696 32 19.7691 32 19.587L32 17.6169C32 17.4838 31.9375 17.3588 31.8267 17.2746L25.7443 12.6877C25.1477 12.2394 24.2727 12.6442 24.2727 13.3725ZM17.5682 12.7176L17.5682 29.1628L12.3693 25.2417C12.2216 25.1303 12 25.2309 12 25.4129L12 27.383C12 27.5161 12.0625 27.6411 12.1733 27.7254L18.2557 32.3122C18.8523 32.7606 19.7273 32.3557 19.7273 31.6302L19.7273 12.7176C19.7273 12.5981 19.625 12.5002 19.5 12.5002L17.7955 12.5002C17.6705 12.5002 17.5682 12.5981 17.5682 12.7176Z" fill="black"/>
</svg>
