<svg xmlns="http://www.w3.org/2000/svg" width="224" height="112" viewBox="0 0 224 112" fill="none">
  <path d="M223 79.225C212.642 80.2338 211.827 81.0517 210.822 91.45C209.817 81.0517 209.003 80.2341 198.645 79.225C209.003 78.2162 209.817 77.3982 210.822 67C211.827 77.3982 212.642 78.2162 223 79.225Z" stroke="#92E54C" stroke-miterlimit="10"/>
  <path d="M30.5187 106.406C30.3487 108.069 25.6876 108.548 20.1081 107.475C14.5286 106.402 10.1433 104.185 10.3134 102.522C10.4834 100.859 15.1444 100.381 20.724 101.453C26.3037 102.526 30.6889 104.743 30.5187 106.406Z" stroke="#92E54C" stroke-miterlimit="10"/>
  <path d="M30.8742 102.965C30.7041 104.628 26.0431 105.106 20.4636 104.034C14.884 102.961 10.4988 100.744 10.6688 99.0807C10.8389 97.4177 15.4999 96.9393 21.0794 98.012C26.659 99.0846 31.0442 101.302 30.8742 102.965Z" stroke="#92E54C" stroke-miterlimit="10"/>
  <path d="M31.2257 99.5255C31.0555 101.188 26.3947 101.667 20.8151 100.594C15.2356 99.5216 10.8504 97.3041 11.0204 95.6412C11.1904 93.9783 15.8515 93.4998 21.431 94.5726C27.0105 95.6451 31.3958 97.8626 31.2257 99.5255Z" stroke="#92E54C" stroke-miterlimit="10"/>
  <path d="M114.356 16.725C101.032 18.0226 99.9844 19.0747 98.6915 32.45C97.3989 19.0747 96.3508 18.023 83.0273 16.725C96.3508 15.4274 97.3985 14.3752 98.6915 1C99.9844 14.3752 101.033 15.4274 114.356 16.725Z" stroke="#92E54C" stroke-miterlimit="10"/>
  <path d="M20.5144 44.8709C20.601 45.0275 20.6991 45.2074 20.8034 45.4029C21.1137 45.9848 21.472 46.6936 21.7442 47.3364C15.247 54.1126 9.96222 55.6182 6.35593 55.493C4.52293 55.4293 3.0939 54.944 2.12682 54.4783C1.72787 54.2862 1.40785 54.0976 1.17109 53.9436C1.32169 53.8193 1.50604 53.6657 1.72478 53.4812C2.39619 52.9149 3.39166 52.0566 4.72973 50.8558C8.83283 52.7202 12.8994 51.0606 15.8714 49.0209C17.4051 47.9682 18.6818 46.7926 19.5736 45.8825C19.9627 45.4855 20.2798 45.1377 20.5144 44.8709Z" stroke="#92E54C"/>
  <path d="M101.002 108.774V108.774C101.003 110.031 99.9888 111.047 98.7407 111.047C97.495 111.047 96.4805 110.031 96.4805 108.774C96.4805 107.517 97.4952 106.5 98.7407 106.5C99.9874 106.5 101.002 107.517 101.002 108.774Z" fill="#121511" stroke="#92E54C"/>
  <path d="M163.752 31.774V31.7743C163.753 33.0308 162.739 34.047 161.491 34.047C160.245 34.047 159.23 33.031 159.23 31.774C159.23 30.5167 160.245 29.5 161.491 29.5C162.737 29.5 163.752 30.5168 163.752 31.774Z" fill="#121511" stroke="#92E54C"/>
  <path d="M62.1504 31.774V31.7743C62.1513 33.0308 61.1372 34.047 59.8892 34.047C58.6434 34.047 57.6289 33.031 57.6289 31.774C57.6289 30.5167 58.6437 29.5 59.8892 29.5C61.1358 29.5 62.1504 30.5168 62.1504 31.774Z" fill="#121511" stroke="#92E54C"/>
</svg>