<svg width="375" height="99" viewBox="0 0 375 99" fill="none" xmlns="http://www.w3.org/2000/svg">
<g clip-path="url(#clip0_10501_234057)">
<path d="M0 16C0 7.16344 7.16344 0 16 0H359C367.837 0 375 7.16344 375 16V99H0V16Z" fill="#1B1C1A"/>
<g opacity="0.6">
<path d="M150.277 24.1859C148.836 23.8703 147.71 22.8199 147.372 21.4747L146.5 18L145.628 21.4747C145.29 22.8199 144.164 23.8703 142.723 24.1859L139 25L142.723 25.8141C144.164 26.1297 145.29 27.1801 145.628 28.5253L146.5 32L147.372 28.5253C147.71 27.1801 148.836 26.1297 150.277 25.8141L154 25L150.277 24.1859Z" fill="black"/>
<path d="M146.5 22.0515C146.966 23.4401 148.085 24.515 149.485 25C148.085 25.485 146.966 26.5599 146.5 27.9485C146.034 26.5599 144.915 25.485 143.515 25C144.915 24.515 146.034 23.4401 146.5 22.0515Z" stroke="white" stroke-opacity="0.5" stroke-width="2"/>
</g>
<g opacity="0.6">
<path d="M227.781 56.0696C226.147 55.709 224.872 54.5084 224.489 52.9711L223.5 49L222.511 52.9711C222.128 54.5084 220.853 55.709 219.219 56.0696L215 57L219.219 57.9304C220.853 58.291 222.128 59.4916 222.511 61.0289L223.5 65L224.489 61.0289C224.872 59.4916 226.147 58.291 227.781 57.9304L232 57L227.781 56.0696Z" fill="black"/>
<path d="M223.518 53.2129C223.984 55.0807 225.485 56.5132 227.373 57C225.485 57.4868 223.984 58.9193 223.518 60.7871L223.518 60.7874L223.5 60.8605L223.482 60.7874L223.482 60.7871C223.016 58.9193 221.515 57.4868 219.627 57C221.515 56.5132 223.016 55.0807 223.482 53.2129L223.482 53.2126L223.5 53.1395L223.518 53.2126L223.518 53.2129Z" stroke="white" stroke-opacity="0.5" stroke-width="2"/>
</g>
<g opacity="0.6">
<path d="M376.788 79.837C374.77 79.3862 373.194 77.8856 372.721 75.9638L371.5 71L370.279 75.9638C369.806 77.8856 368.23 79.3862 366.212 79.837L361 81L366.212 82.163C368.23 82.6138 369.806 84.1144 370.279 86.0362L371.5 91L372.721 86.0362C373.194 84.1144 374.77 82.6138 376.788 82.163L382 81L376.788 79.837Z" fill="black"/>
<path d="M376.57 80.8129L376.57 80.8129L377.408 81L376.57 81.1871L376.57 81.1871C374.203 81.7159 372.319 83.4863 371.75 85.797L371.75 85.7973L371.5 86.8141L371.25 85.7973L371.25 85.797C370.681 83.4863 368.797 81.7159 366.43 81.1871L366.43 81.1871L365.592 81L366.43 80.8129L366.43 80.8129C368.797 80.2841 370.681 78.5137 371.25 76.203L371.25 76.2027L371.5 75.1859L371.75 76.2027L371.75 76.203C372.319 78.5137 374.203 80.2841 376.57 80.8129Z" stroke="white" stroke-opacity="0.5" stroke-width="2"/>
</g>
<g opacity="0.4">
<path d="M259.069 37.9785C248.06 44.3189 242 52.7768 242 61.8083C242 70.7516 247.953 79.1339 258.759 85.4553L256.219 86.9175L264.624 88.115L262.551 83.2746L259.972 84.762L259.701 84.554C249.103 78.4532 243.264 70.3734 243.264 61.8083C243.264 53.2432 249.103 45.1697 259.701 39.0626C274.64 30.4597 296.492 27.3588 316.714 30.9702L316.936 29.7349C296.429 26.0731 274.254 29.2307 259.069 37.9722V37.9785Z" fill="white"/>
<path d="M259.069 36.7432C248.06 43.0835 242 51.5415 242 60.573C242 69.5162 247.953 77.8985 258.759 84.2199L256.219 85.6821L264.624 86.8796L262.551 82.0393L259.972 83.5267L259.701 83.3187C249.103 77.2179 243.264 69.1381 243.264 60.573C243.264 52.0079 249.103 43.9343 259.701 37.8272C274.64 29.2243 296.492 26.1235 316.714 29.7348L316.936 28.4995C296.429 24.8378 274.254 27.9953 259.069 36.7369V36.7432Z" fill="#6B726E"/>
<path d="M340.888 38.1792L343.428 36.717L335.023 35.5195L337.096 40.3599L339.611 38.9103L339.946 39.0804C350.544 45.1813 356.383 53.2611 356.383 61.8262C356.383 70.3913 350.544 78.4648 339.946 84.5719C324.659 93.3765 301.562 96.4143 281.106 92.3177L280.859 93.5467C287.147 94.8072 293.593 95.4185 299.969 95.4185C314.946 95.4185 329.513 92.0278 340.578 85.6559C351.586 79.3156 357.647 70.8577 357.647 61.8262C357.647 52.8829 351.694 44.5006 340.888 38.1855V38.1792Z" fill="white"/>
<path d="M340.888 36.9253L343.428 35.4631L335.023 34.2656L337.096 39.106L339.611 37.6564L339.946 37.8265C350.544 43.9274 356.383 52.0072 356.383 60.5723C356.383 69.1374 350.544 77.2109 339.946 83.318C324.659 92.1226 301.562 95.1604 281.106 91.0638L280.859 92.2928C287.147 93.5533 293.593 94.1646 299.969 94.1646C314.946 94.1646 329.513 90.7739 340.578 84.402C351.586 78.0617 357.647 69.6038 357.647 60.5723C357.647 51.629 351.694 43.2467 340.888 36.9316V36.9253Z" fill="#6B726E"/>
</g>
<path d="M298.888 30.7528C298.489 27.1446 301.05 22.4546 305.653 19.067C310.256 15.6723 315.501 14.6047 318.847 16.0495L319.475 15.5869L321.11 17.7931C323.786 21.4084 321.202 27.8349 315.344 32.1548C309.485 36.4747 302.563 37.0441 299.887 33.4358L298.253 31.2296L298.881 30.767L298.888 30.7528Z" fill="#4D4D4D"/>
<path d="M315.472 32.311C321.417 27.9341 324.021 21.3582 321.281 17.6574L319.526 15.2875L318.819 15.8071C315.322 14.3695 309.999 15.6007 305.532 18.8958C301.065 22.1908 298.318 26.8951 298.667 30.6527L297.961 31.1723L299.716 33.5493C302.456 37.25 309.521 36.6949 315.465 32.3181L315.472 32.311ZM319.433 15.8711L320.938 17.9065C323.543 21.4222 320.974 27.7277 315.215 31.9694C309.457 36.211 302.656 36.8017 300.052 33.2931L298.546 31.2577L299.103 30.8449L299.088 30.7239C298.682 27.0872 301.372 22.4684 305.775 19.2302C310.177 15.985 315.394 14.7822 318.755 16.2341L318.869 16.2839L319.426 15.8711H319.433Z" fill="#4D4D4D"/>
<path d="M298.253 31.214C300.929 34.8293 307.85 34.2529 313.709 29.9329C319.568 25.613 322.151 19.1865 319.475 15.5712C316.799 11.9558 309.877 12.5323 304.018 16.8522C298.16 21.1721 295.577 27.5986 298.253 31.214Z" fill="#0B0B0B"/>
<path d="M298.637 31.7335C301.313 35.3488 308.235 34.7724 314.094 30.4525C319.952 26.1326 322.536 19.7061 319.86 16.0907C317.184 12.4754 310.262 13.0518 304.403 17.3718C298.545 21.6917 295.961 28.1182 298.637 31.7335Z" fill="#8D8D8D"/>
<path d="M313.838 30.104C319.782 25.7271 322.386 19.1512 319.646 15.4505C316.906 11.7497 309.841 12.3048 303.897 16.6817C297.953 21.0585 295.348 27.6345 298.089 31.3352C300.829 35.036 307.893 34.4808 313.838 30.104ZM304.147 17.0233C309.906 12.7816 316.706 12.1909 319.311 15.6995C321.915 19.2153 319.346 25.5208 313.588 29.7624C307.829 34.004 301.029 34.5947 298.424 31.0861C295.819 27.5704 298.388 21.2649 304.147 17.0233Z" fill="#4D4D4D"/>
<path d="M300.171 29.344C302.183 32.0626 307.606 31.4719 312.288 28.0203C316.969 24.5686 319.131 19.5726 317.119 16.854C315.106 14.1353 309.683 14.726 305.002 18.1777C300.321 21.6293 298.158 26.6254 300.171 29.344Z" fill="#0B0B0B"/>
<path d="M312.417 28.1903C317.184 24.6817 319.367 19.5362 317.291 16.7322C315.214 13.9281 309.641 14.4975 304.874 18.0132C300.108 21.5218 297.924 26.6672 300 29.4713C302.077 32.2753 307.65 31.706 312.417 28.1903ZM305.124 18.3477C309.705 14.9743 315.007 14.3623 316.948 16.9813C318.889 19.6002 316.741 24.4753 312.167 27.8486C307.586 31.222 302.284 31.8341 300.343 29.2151C298.402 26.5961 300.55 21.7211 305.131 18.3477H305.124Z" fill="#4D4D4D"/>
<path d="M305.004 18.1845C309.685 14.7329 315.108 14.1422 317.121 16.8608C317.299 17.1028 317.435 17.3732 317.549 17.6508C315.187 15.715 310.32 16.4765 306.06 19.615C301.8 22.7535 299.638 27.1731 300.801 29.9913C300.565 29.7992 300.351 29.5928 300.173 29.3508C298.161 26.6322 300.323 21.6362 305.004 18.1845Z" fill="#4D4D4D"/>
<path d="M301.164 30.2681L301 29.9122C299.866 27.158 302.092 22.8025 306.188 19.785C310.284 16.7675 315.108 15.9206 317.42 17.8136L317.791 18.1197L317.748 17.5717C317.613 17.2372 317.463 16.9667 317.291 16.739C315.215 13.935 309.642 14.5043 304.875 18.02C300.108 21.5286 297.925 26.6741 300.001 29.4781C300.172 29.7059 300.386 29.9265 300.665 30.1613L301.164 30.2752V30.2681ZM305.125 18.3545C309.706 14.9811 315.008 14.3691 316.949 16.9881C316.956 16.9952 316.963 17.0094 316.97 17.0166C314.33 15.6074 309.87 16.5468 305.938 19.4505C302.006 22.3471 299.794 26.3182 300.365 29.2575C300.358 29.2504 300.351 29.2361 300.344 29.229C298.403 26.61 300.551 21.735 305.125 18.3616V18.3545Z" fill="#4D4D4D"/>
<path d="M306.495 17.2586L307.523 18.6464L310.22 17.3512L313.282 16.6324L316.043 16.8601L317.549 17.6501L316.742 16.3477L314.944 15.4083L312.782 15.1592L309.913 15.6574L306.895 16.9597L306.495 17.2586Z" fill="#4D4D4D"/>
<path d="M305.967 28.908C305.411 28.8226 304.997 28.6233 304.733 28.3173L304.719 28.3386L304.019 27.3992L304.469 26.659C304.526 26.4598 304.597 26.2534 304.697 26.0328C305.047 25.2641 305.561 24.6094 306.231 24.0756C306.902 23.5419 307.937 23.0579 309.321 22.6238L310.584 19.8411C309.992 20.0902 309.507 20.503 309.136 21.0723L307.273 21.0296L306.631 20.1614L308.529 19.5636V19.5778C308.679 19.4568 308.822 19.3429 308.979 19.2291C309.657 18.7594 310.434 18.432 311.298 18.2612L311.462 17.8982H311.298L310.998 17.4855L312.104 16.5674L313.118 17.9338L312.532 17.9196L312.433 18.1402C312.704 18.1402 312.939 18.1687 313.153 18.2185C313.303 18.005 313.417 17.8413 313.417 17.8413L314.159 18.8448C314.452 19.3216 314.423 19.9479 314.074 20.7236C313.724 21.4922 313.189 22.1683 312.468 22.7519C311.748 23.3355 310.82 23.8123 309.685 24.1753L308.329 27.1572C308.665 27.0078 309.007 26.78 309.364 26.4811C309.585 26.289 309.785 26.0755 309.971 25.8548L309.778 25.7054L311.576 24.5809L312.218 25.4492C311.64 26.4028 310.955 27.1572 310.156 27.7266C309.364 28.2959 308.494 28.6731 307.552 28.8581L306.966 30.1534L305.839 30.2673L305.197 29.399L305.967 28.8866V28.908ZM311.605 21.5705C311.869 21.3357 312.054 21.0937 312.176 20.8446C312.304 20.567 312.326 20.3251 312.247 20.1187C312.169 19.9123 311.997 19.77 311.733 19.7059L310.613 22.1683C311.013 22.0046 311.341 21.8054 311.605 21.5705ZM307.166 27.3921L308.429 24.6165C307.908 24.7873 307.487 24.9937 307.181 25.2428C306.874 25.4919 306.645 25.7766 306.503 26.0968C306.338 26.4526 306.324 26.7516 306.446 26.9864C306.567 27.2284 306.809 27.3565 307.166 27.385V27.3921Z" fill="#4D4D4D"/>
<path d="M307.109 30.3812L307.701 29.0717C308.629 28.8724 309.493 28.4881 310.277 27.9259C311.084 27.3494 311.805 26.5595 312.397 25.5845L312.468 25.4635L311.626 24.3248L309.407 25.7126L309.664 25.9118C309.514 26.0827 309.371 26.225 309.229 26.346C309.079 26.467 308.936 26.5808 308.786 26.6805L309.835 24.3675C310.955 23.9974 311.883 23.5135 312.597 22.9299C313.339 22.325 313.895 21.6204 314.259 20.8233C314.645 19.9835 314.666 19.279 314.331 18.7452L313.56 17.699L313.225 17.7417L312.133 16.2686L310.699 17.4499L311.141 18.0691C310.292 18.2541 309.521 18.5815 308.85 19.0441C308.715 19.1366 308.579 19.2434 308.451 19.3501L306.274 20.0334L307.159 21.2219L309.243 21.2646L309.307 21.1649C309.535 20.8162 309.814 20.5315 310.128 20.3038L309.164 22.4246C307.808 22.8516 306.774 23.3427 306.096 23.8836C305.397 24.4387 304.861 25.1219 304.497 25.919C304.397 26.1325 304.319 26.346 304.262 26.5452L303.755 27.3779L304.54 28.4312L304.769 28.6234C304.954 28.7728 305.175 28.8867 305.432 28.9721L304.883 29.3422L305.732 30.488L307.102 30.3527L307.109 30.3812ZM307.409 28.7016L306.824 29.9827L305.939 30.0681L305.496 29.4703L306.531 28.7799L305.996 28.7016C305.496 28.6234 305.125 28.4526 304.89 28.1821L304.697 27.9615L304.269 27.385L304.669 26.7089C304.719 26.5168 304.797 26.3175 304.89 26.1111C305.225 25.3781 305.718 24.7447 306.367 24.2323C307.016 23.7199 308.03 23.243 309.386 22.816L309.478 22.7876L311.005 19.4284L310.513 19.6348C309.921 19.8839 309.421 20.2896 309.036 20.8447L307.395 20.8091L306.988 20.2611L308.379 19.8198L308.401 19.9408L308.679 19.7273C308.822 19.6135 308.964 19.4925 309.114 19.3928C309.771 18.9374 310.52 18.6242 311.355 18.4605L311.462 18.4392L311.805 17.6919H311.426L311.305 17.5211L312.126 17.0728L312.711 17.7133H312.411L312.119 18.3538H312.447C312.675 18.3538 312.889 18.3751 313.125 18.425L313.26 18.4534L313.439 18.2043L314.002 18.9729C314.245 19.3715 314.217 19.9337 313.895 20.6454C313.56 21.3784 313.039 22.0403 312.354 22.6025C311.662 23.1648 310.748 23.6345 309.642 23.9903L309.557 24.0188L307.93 27.5914L308.436 27.3637C308.786 27.2071 309.157 26.9651 309.521 26.6591C309.735 26.4812 309.935 26.2748 310.156 26.0044L310.292 25.8336L310.163 25.7339L311.541 24.8799L311.983 25.4777C311.434 26.346 310.784 27.0648 310.056 27.5701C309.293 28.1181 308.444 28.4881 307.537 28.6661L307.43 28.6874L307.409 28.7016ZM307.288 27.6128L308.807 24.2679L308.351 24.4173C307.808 24.5952 307.366 24.8159 307.038 25.0863C306.702 25.3567 306.453 25.6699 306.296 26.0186C306.11 26.4314 306.089 26.7943 306.246 27.0932C306.403 27.3993 306.71 27.5772 307.138 27.6057L307.288 27.6199V27.6128ZM308.015 24.9938L307.031 27.1644C306.831 27.1217 306.695 27.0363 306.624 26.894C306.531 26.7161 306.553 26.4741 306.688 26.1823C306.817 25.8976 307.024 25.6343 307.309 25.4066C307.502 25.25 307.737 25.1148 308.023 24.9867L308.015 24.9938ZM311.533 21.898C311.605 21.8481 311.676 21.7912 311.74 21.7343C312.026 21.4852 312.233 21.2147 312.361 20.9372C312.511 20.6098 312.532 20.3109 312.44 20.0476C312.368 19.8554 312.197 19.6063 311.783 19.5067L311.612 19.464L310.199 22.5741L310.691 22.3677C311.012 22.2325 311.298 22.0759 311.533 21.898ZM311.462 21.4211C311.341 21.5279 311.198 21.6275 311.048 21.72L311.84 19.9764C311.969 20.0405 312.019 20.133 312.04 20.197C312.097 20.3536 312.076 20.5458 311.976 20.7664C311.876 20.987 311.705 21.2076 311.462 21.4211Z" fill="#4D4D4D"/>
<path d="M307.687 26.3095L309.043 23.3275C310.178 22.9646 311.105 22.4877 311.826 21.9042C312.547 21.3206 313.082 20.6445 313.432 19.8759C313.789 19.1001 313.817 18.4667 313.517 17.997C313.225 17.5202 312.647 17.2853 311.791 17.2925L312.112 16.5879L310.984 16.7018L310.663 17.4063C309.8 17.5771 309.022 17.8974 308.344 18.3742C307.666 18.8439 307.095 19.4489 306.638 20.1677L308.501 20.2104C308.872 19.641 309.357 19.2282 309.949 18.9791L308.686 21.7618C307.302 22.1959 306.274 22.6728 305.597 23.2137C304.926 23.7474 304.412 24.4022 304.062 25.1708C303.67 26.0319 303.627 26.7222 303.927 27.256C304.226 27.7898 304.854 28.0744 305.803 28.1029L305.197 29.4338L306.324 29.3199L306.91 28.0246C307.851 27.8396 308.722 27.4553 309.514 26.8931C310.306 26.3237 310.991 25.5693 311.576 24.6157H309.635C309.379 25.0071 309.079 25.3487 308.722 25.6476C308.365 25.9465 308.023 26.1671 307.687 26.3237V26.3095ZM311.084 18.8368C311.348 18.9009 311.519 19.0361 311.598 19.2496C311.676 19.4631 311.655 19.7051 311.527 19.9755C311.412 20.2246 311.22 20.4666 310.956 20.7014C310.692 20.9363 310.363 21.1355 309.964 21.2992L311.084 18.8368ZM306.517 26.523C306.16 26.4945 305.918 26.3593 305.796 26.1244C305.675 25.8825 305.689 25.5907 305.853 25.2348C305.996 24.9146 306.225 24.6299 306.531 24.3808C306.838 24.1317 307.259 23.9182 307.78 23.7545L306.517 26.5301V26.523Z" fill="#0B0B0B"/>
<path d="M308.037 26.679L309.392 23.6971C310.527 23.3341 311.455 22.8573 312.175 22.2737C312.896 21.6901 313.431 21.014 313.781 20.2454C314.138 19.4697 314.045 18.9644 313.745 18.4875C313.446 18.0107 312.996 17.6549 312.14 17.662L312.111 17.0926L311.333 17.0713L311.012 17.7759C310.149 17.9467 309.371 18.2669 308.693 18.7437C308.015 19.2135 307.644 19.797 307.187 20.5229L308.85 20.5799C309.221 20.0105 309.706 19.5978 310.299 19.3487L309.036 22.1314C307.651 22.5655 306.624 23.0423 305.946 23.5832C305.275 24.1169 304.761 24.7717 304.412 25.5403C304.019 26.4014 303.976 27.0918 304.276 27.6255C304.576 28.1593 305.204 28.444 306.153 28.4724L305.71 29.7748L306.674 29.6965L307.259 28.4013C308.201 28.2162 309.071 27.8319 309.863 27.2697C310.655 26.7004 311.148 26.1381 311.726 25.1916L309.985 24.9994C309.728 25.3837 309.428 25.7325 309.071 26.0243C308.722 26.3232 308.372 26.5438 308.037 26.7004V26.679ZM311.433 19.2063C311.697 19.2704 311.869 19.4056 311.947 19.6191C312.026 19.8326 312.004 20.0746 311.876 20.345C311.762 20.5941 311.569 20.8361 311.305 21.0709C311.041 21.3058 310.713 21.5051 310.313 21.6688L311.433 19.2063ZM306.866 26.8925C306.51 26.864 306.267 26.7288 306.146 26.494C306.024 26.252 306.039 25.9602 306.203 25.6044C306.345 25.2841 306.574 24.9994 306.881 24.7503C307.187 24.5013 307.608 24.2878 308.129 24.1241L306.866 26.8996V26.8925Z" fill="#8D8D8D"/>
<path d="M306.466 29.5117L307.058 28.2022C307.986 28.0029 308.849 27.6186 309.634 27.0564C310.441 26.4728 311.161 25.69 311.754 24.7149L311.825 24.594L311.625 24.3235L310.94 24.3947H309.513L309.449 24.4872C309.206 24.8573 308.914 25.1847 308.578 25.4693C308.428 25.5903 308.286 25.7042 308.136 25.8038L309.185 23.4909C310.305 23.1208 311.233 22.6368 311.946 22.0533C312.688 21.4483 313.245 20.7438 313.609 19.9467C313.994 19.1069 314.016 18.4023 313.68 17.8686C313.388 17.3917 312.853 17.1284 312.096 17.0715L312.439 16.3242L310.826 16.4808L310.498 17.1996C309.649 17.3846 308.878 17.712 308.207 18.1746C307.508 18.6585 306.744 19.2848 306.273 20.0321L306.509 20.3523L308.592 20.395L308.657 20.2954C308.885 19.9467 309.156 19.6549 309.477 19.4343L308.514 21.5551C307.158 21.9821 306.123 22.4731 305.445 23.014C304.746 23.5691 304.211 24.2524 303.847 25.0494C303.426 25.9675 303.39 26.7361 303.719 27.3268C304.018 27.8606 304.603 28.1737 305.46 28.2591L304.875 29.348L305.074 29.6184L306.444 29.4832L306.466 29.5117ZM306.766 27.8321L306.18 29.1131L305.438 29.1914L306.116 27.8962L305.802 27.8819C304.932 27.8535 304.361 27.6044 304.104 27.1418C303.84 26.6721 303.89 26.0316 304.247 25.2416C304.582 24.5086 305.074 23.8752 305.724 23.3628C306.373 22.8503 307.386 22.3735 308.742 21.9465L308.835 21.918L310.362 18.5589L309.87 18.7653C309.277 19.0144 308.778 19.42 308.393 19.9751L306.915 19.9467C307.315 19.3844 307.914 18.9076 308.471 18.5233C309.128 18.0678 309.877 17.7547 310.712 17.591L310.819 17.5697L311.133 16.8793L311.775 16.8153L311.468 17.4914H311.796C312.567 17.4843 313.088 17.6835 313.345 18.0963C313.602 18.5091 313.566 19.0713 313.245 19.783C312.91 20.516 312.389 21.1779 311.704 21.7401C311.004 22.3095 310.098 22.7721 308.992 23.1279L308.906 23.1564L307.287 26.729L307.793 26.5013C308.143 26.3447 308.514 26.1027 308.878 25.7967C309.213 25.512 309.513 25.1847 309.77 24.8217H311.211C310.69 25.5974 310.084 26.2451 309.413 26.7148C308.649 27.2628 307.8 27.6328 306.894 27.8108L306.787 27.8321H306.766ZM306.644 26.7432L308.164 23.3983L307.708 23.5478C307.165 23.7257 306.723 23.9463 306.395 24.2168C306.059 24.4872 305.809 24.8004 305.652 25.1491C305.467 25.5619 305.445 25.9248 305.602 26.2237C305.759 26.5297 306.066 26.7077 306.494 26.7361L306.644 26.7504V26.7432ZM307.372 24.1243L306.387 26.2949C306.188 26.2522 306.052 26.1668 305.981 26.0244C305.888 25.8465 305.909 25.6046 306.045 25.3128C306.173 25.0281 306.38 24.7648 306.666 24.537C306.858 24.3876 307.094 24.2452 307.379 24.1171L307.372 24.1243ZM310.89 21.0284C310.962 20.9786 311.033 20.9217 311.097 20.8647C311.383 20.6157 311.589 20.3452 311.718 20.0677C311.868 19.7403 311.889 19.4414 311.796 19.1781C311.725 18.9859 311.554 18.7368 311.14 18.6372L310.969 18.5945L309.556 21.7045L310.048 21.4981C310.369 21.3629 310.655 21.2064 310.89 21.0284ZM311.197 19.1069C311.325 19.1709 311.375 19.2635 311.397 19.3275C311.454 19.4841 311.432 19.6762 311.333 19.8969C311.233 20.1175 311.061 20.3381 310.819 20.5516C310.697 20.6584 310.555 20.758 310.405 20.8505L311.197 19.1069Z" fill="#4D4D4D"/>
<path d="M312.49 30.7725L314.152 33.0214L311.327 34.459L308.379 35.5336L304.69 35.7969L301.722 35.007L300.337 34.0248L299.074 32.2456L301.914 33.605L305.475 33.4697L309.971 32.1318L312.49 30.7725Z" fill="#4D4D4D"/>
<path d="M314.102 29.677L315.737 31.8832L316.707 31.0434L314.994 28.7305L314.102 29.677Z" fill="#4D4D4D"/>
<path d="M325.607 70.4877C325.056 65.5104 328.59 59.0409 334.939 54.368C341.288 49.6852 348.523 48.2127 353.139 50.2055L354.005 49.5674L356.259 52.6107C359.951 57.5978 356.387 66.4627 348.306 72.4216C340.225 78.3806 330.676 79.166 326.985 74.1887L324.731 71.1454L325.597 70.5073L325.607 70.4877Z" fill="#4D4D4D"/>
<path d="M348.484 72.6368C356.683 66.5993 360.276 57.5283 356.496 52.4234L354.075 49.1543L353.1 49.871C348.277 47.8879 340.934 49.5863 334.772 54.1316C328.61 58.6769 324.82 65.166 325.302 70.3495L324.328 71.0661L326.749 74.345C330.529 79.4499 340.274 78.6842 348.474 72.6467L348.484 72.6368ZM353.947 49.9593L356.024 52.767C359.617 57.6167 356.073 66.3146 348.129 72.1656C340.186 78.0166 330.805 78.8314 327.212 73.9916L325.135 71.1839L325.903 70.6145L325.883 70.4476C325.322 65.4311 329.033 59.0598 335.106 54.593C341.18 50.1164 348.375 48.4573 353.012 50.46L353.169 50.5287L353.937 49.9593H353.947Z" fill="#4D4D4D"/>
<path d="M324.729 71.1249C328.421 76.1119 337.969 75.3168 346.05 69.3578C354.132 63.3988 357.695 54.534 354.004 49.5469C350.312 44.5598 340.764 45.355 332.683 51.314C324.601 57.2729 321.038 66.1378 324.729 71.1249Z" fill="#0B0B0B"/>
<path d="M325.26 71.8417C328.952 76.8287 338.5 76.0336 346.581 70.0746C354.663 64.1156 358.226 55.2508 354.535 50.2637C350.844 45.2766 341.295 46.0718 333.214 52.0307C325.133 57.9897 321.569 66.8546 325.26 71.8417Z" fill="#8D8D8D"/>
<path d="M346.228 69.5936C354.427 63.5561 358.02 54.4851 354.24 49.3802C350.461 44.2753 340.716 45.0411 332.516 51.0786C324.316 57.1161 320.723 66.1871 324.503 71.292C328.283 76.3969 338.028 75.6311 346.228 69.5936ZM332.86 51.5498C340.804 45.6988 350.185 44.884 353.778 49.7238C357.371 54.5735 353.827 63.2714 345.883 69.1224C337.94 74.9734 328.559 75.7882 324.966 70.9484C321.373 66.0987 324.917 57.4008 332.86 51.5498Z" fill="#4D4D4D"/>
<path d="M327.377 68.5453C330.153 72.2954 337.634 71.4806 344.091 66.7193C350.548 61.958 353.531 55.0664 350.755 51.3163C347.979 47.5661 340.498 48.3809 334.041 53.1422C327.583 57.9035 324.601 64.7951 327.377 68.5453Z" fill="#0B0B0B"/>
<path d="M344.27 66.9533C350.845 62.1135 353.857 55.0157 350.993 51.1478C348.128 47.2798 340.441 48.0652 333.865 52.9148C327.29 57.7547 324.278 64.8524 327.142 68.7204C330.007 72.5883 337.694 71.803 344.27 66.9533ZM334.21 53.3763C340.529 48.7229 347.843 47.8787 350.52 51.4914C353.198 55.1041 350.235 61.8288 343.925 66.4821C337.606 71.1354 330.292 71.9797 327.615 68.367C324.937 64.7543 327.9 58.0296 334.22 53.3763H334.21Z" fill="#4D4D4D"/>
<path d="M334.045 53.152C340.502 48.3907 347.983 47.5759 350.759 51.326C351.005 51.6598 351.192 52.0329 351.35 52.4157C348.091 49.7455 341.378 50.7959 335.502 55.1252C329.625 59.4546 326.643 65.551 328.247 69.4386C327.922 69.1735 327.627 68.8888 327.381 68.555C324.605 64.8049 327.588 57.9133 334.045 53.152Z" fill="#4D4D4D"/>
<path d="M328.748 69.8198L328.522 69.329C326.957 65.5298 330.028 59.5217 335.678 55.3593C341.328 51.1968 347.982 50.0286 351.172 52.6399L351.684 53.0621L351.625 52.3061C351.438 51.8447 351.231 51.4717 350.995 51.1575C348.13 47.2896 340.442 48.075 333.867 52.9246C327.292 57.7644 324.279 64.8622 327.144 68.7301C327.38 69.0443 327.675 69.3486 328.059 69.6726L328.748 69.8297V69.8198ZM334.211 53.386C340.531 48.7327 347.845 47.8884 350.522 51.5011C350.532 51.511 350.542 51.5306 350.552 51.5404C346.91 49.5966 340.757 50.8925 335.334 54.8979C329.91 58.8934 326.858 64.3714 327.646 68.4258C327.636 68.416 327.626 68.3964 327.616 68.3865C324.939 64.7739 327.902 58.0491 334.211 53.3958V53.386Z" fill="#4D4D4D"/>
<path d="M336.1 51.8736L337.518 53.7879L341.238 52.0012L345.461 51.0097L349.271 51.3238L351.348 52.4135L350.235 50.617L347.755 49.3211L344.772 48.9775L340.815 49.6647L336.651 51.4613L336.1 51.8736Z" fill="#4D4D4D"/>
<path d="M335.375 67.9428C334.607 67.825 334.036 67.5501 333.672 67.128L333.653 67.1574L332.688 65.8615L333.308 64.8406C333.387 64.5657 333.485 64.281 333.623 63.9767C334.105 62.9164 334.814 62.0132 335.739 61.277C336.665 60.5407 338.092 59.8731 340.002 59.2743L341.744 55.4358C340.927 55.7794 340.257 56.3488 339.746 57.1341L337.176 57.0752L336.291 55.8776L338.909 55.0529V55.0726C339.116 54.9057 339.312 54.7486 339.529 54.5915C340.464 53.9436 341.537 53.492 342.728 53.2564L342.955 52.7557H342.728L342.315 52.1863L343.84 50.9199L345.238 52.8048L344.431 52.7852L344.293 53.0895C344.667 53.0895 344.992 53.1288 345.287 53.1975C345.494 52.903 345.652 52.6772 345.652 52.6772L346.675 54.0614C347.079 54.7191 347.04 55.583 346.557 56.6531C346.075 57.7134 345.337 58.646 344.342 59.451C343.348 60.256 342.069 60.9137 340.504 61.4144L338.633 65.5278C339.096 65.3216 339.568 65.0075 340.061 64.5951C340.366 64.3301 340.641 64.0356 340.897 63.7312L340.631 63.5251L343.112 61.974L343.998 63.1717C343.201 64.4872 342.256 65.5278 341.153 66.3131C340.061 67.0985 338.86 67.6188 337.56 67.874L336.753 69.6608L335.198 69.8178L334.312 68.6201L335.375 67.9133V67.9428ZM343.151 57.8213C343.516 57.4974 343.772 57.1636 343.939 56.82C344.116 56.4371 344.146 56.1033 344.037 55.8187C343.929 55.534 343.693 55.3376 343.329 55.2493L341.783 58.646C342.334 58.4202 342.787 58.1453 343.151 57.8213ZM337.029 65.8517L338.771 62.0231C338.053 62.2587 337.472 62.5434 337.049 62.887C336.625 63.2306 336.31 63.6232 336.113 64.065C335.887 64.5559 335.867 64.9682 336.035 65.2922C336.202 65.6259 336.537 65.8026 337.029 65.8419V65.8517Z" fill="#4D4D4D"/>
<path d="M336.948 69.9751L337.765 68.1688C339.044 67.8939 340.235 67.3638 341.318 66.5882C342.43 65.793 343.425 64.7033 344.242 63.3584L344.34 63.1915L343.179 61.6208L340.117 63.5351L340.472 63.81C340.265 64.0456 340.068 64.2419 339.871 64.4088C339.664 64.5757 339.468 64.7328 339.261 64.8702L340.708 61.6797C342.253 61.1692 343.533 60.5016 344.517 59.6966C345.541 58.8622 346.309 57.8903 346.811 56.7908C347.342 55.6323 347.372 54.6604 346.909 53.9242L345.846 52.4811L345.384 52.54L343.877 50.5078L341.899 52.1374L342.509 52.9915C341.338 53.2468 340.275 53.6984 339.349 54.3365C339.162 54.4641 338.975 54.6114 338.798 54.7586L335.796 55.7011L337.017 57.3405L339.891 57.3994L339.979 57.262C340.294 56.7809 340.678 56.3883 341.111 56.0741L339.783 58.9996C337.912 59.5886 336.485 60.266 335.55 61.0121C334.585 61.7778 333.847 62.7203 333.345 63.8198C333.207 64.1143 333.099 64.4088 333.02 64.6837L332.321 65.8323L333.404 67.2852L333.719 67.5503C333.975 67.7565 334.28 67.9135 334.634 68.0313L333.877 68.5418L335.048 70.1224L336.938 69.9359L336.948 69.9751ZM337.361 67.6583L336.554 69.4254L335.333 69.5432L334.723 68.7185L336.15 67.7663L335.412 67.6583C334.723 67.5503 334.211 67.3147 333.886 66.9416L333.621 66.6373L333.03 65.8421L333.581 64.9095C333.65 64.6444 333.758 64.3696 333.886 64.0849C334.349 63.0737 335.028 62.2 335.924 61.4931C336.82 60.7863 338.217 60.1286 340.088 59.5395L340.216 59.5003L342.322 54.8666L341.643 55.1513C340.826 55.4949 340.137 56.0545 339.605 56.8202L337.341 56.7711L336.78 56.0152L338.7 55.4065L338.729 55.5734L339.113 55.2789C339.31 55.1218 339.507 54.955 339.714 54.8175C340.619 54.1892 341.653 53.7573 342.805 53.5315L342.952 53.502L343.425 52.4712H342.903L342.736 52.2356L343.868 51.6171L344.675 52.5007H344.261L343.858 53.3842H344.311C344.626 53.3842 344.921 53.4137 345.246 53.4824L345.433 53.5217L345.679 53.1781L346.456 54.2383C346.791 54.7881 346.752 55.5636 346.309 56.5453C345.846 57.5565 345.128 58.4695 344.183 59.245C343.228 60.0206 341.968 60.6685 340.442 61.1594L340.324 61.1986L338.08 66.1268L338.779 65.8127C339.261 65.5967 339.773 65.2629 340.275 64.8408C340.57 64.5953 340.846 64.3107 341.151 63.9376L341.338 63.702L341.161 63.5645L343.06 62.3865L343.671 63.2111C342.913 64.4088 342.017 65.4003 341.013 66.0974C339.96 66.8533 338.788 67.3638 337.538 67.6092L337.391 67.6386L337.361 67.6583ZM337.194 66.1563L339.29 61.5422L338.66 61.7484C337.912 61.9938 337.302 62.2981 336.849 62.6712C336.387 63.0442 336.042 63.4762 335.826 63.9572C335.57 64.5266 335.54 65.0273 335.757 65.4396C335.973 65.8618 336.396 66.1072 336.987 66.1465L337.194 66.1661V66.1563ZM338.198 62.5436L336.839 65.5378C336.564 65.4789 336.377 65.3611 336.278 65.1647C336.15 64.9193 336.18 64.5855 336.367 64.183C336.544 63.7903 336.83 63.4271 337.223 63.113C337.489 62.897 337.814 62.7105 338.208 62.5338L338.198 62.5436ZM343.051 58.2731C343.149 58.2044 343.247 58.1259 343.336 58.0473C343.73 57.7037 344.015 57.3307 344.192 56.9478C344.399 56.4962 344.429 56.0839 344.301 55.7207C344.202 55.4556 343.966 55.112 343.395 54.9746L343.159 54.9157L341.21 59.2058L341.889 58.9211C342.332 58.7345 342.726 58.5186 343.051 58.2731ZM342.952 57.6154C342.785 57.7626 342.588 57.9001 342.381 58.0277L343.474 55.6225C343.651 55.7109 343.72 55.8385 343.749 55.9268C343.828 56.1428 343.799 56.4079 343.661 56.7122C343.523 57.0165 343.287 57.3209 342.952 57.6154Z" fill="#4D4D4D"/>
<path d="M337.743 64.3584L339.613 60.245C341.179 59.7444 342.458 59.0866 343.452 58.2816C344.447 57.4766 345.185 56.544 345.667 55.4837C346.159 54.4137 346.199 53.54 345.785 52.892C345.382 52.2343 344.584 51.9103 343.403 51.9201L343.846 50.9482L342.291 51.1053L341.848 52.0772C340.657 52.3128 339.584 52.7546 338.649 53.4123C337.714 54.0603 336.926 54.8947 336.296 55.8862L338.865 55.9451C339.377 55.1598 340.047 54.5904 340.864 54.2468L339.121 58.0853C337.212 58.6841 335.794 59.3419 334.859 60.088C333.934 60.8242 333.225 61.7274 332.743 62.7877C332.201 63.9755 332.142 64.9278 332.556 65.6641C332.969 66.4004 333.835 66.793 335.144 66.8323L334.308 68.6681L335.863 68.511L336.67 66.7243C337.97 66.4691 339.17 65.939 340.263 65.1634C341.356 64.378 342.301 63.3374 343.108 62.0219H340.43C340.076 62.5619 339.663 63.0331 339.17 63.4454C338.678 63.8577 338.206 64.1621 337.743 64.378V64.3584ZM342.429 54.0504C342.793 54.1388 343.029 54.3253 343.137 54.6198C343.246 54.9143 343.216 55.2481 343.039 55.6212C342.881 55.9648 342.616 56.2986 342.251 56.6225C341.887 56.9465 341.434 57.2214 340.883 57.4472L342.429 54.0504ZM336.129 64.6529C335.637 64.6136 335.302 64.4271 335.135 64.1032C334.967 63.7694 334.987 63.3669 335.213 62.876C335.41 62.4342 335.725 62.0416 336.149 61.698C336.572 61.3544 337.153 61.0599 337.871 60.8341L336.129 64.6627V64.6529Z" fill="#0B0B0B"/>
<path d="M338.227 64.8683L340.097 60.755C341.662 60.2543 342.942 59.5965 343.936 58.7915C344.93 57.9865 345.668 57.0539 346.151 55.9937C346.643 54.9236 346.515 54.2266 346.101 53.5688C345.688 52.9111 345.068 52.4202 343.887 52.4301L343.847 51.6447L342.774 51.6152L342.331 52.5871C341.14 52.8227 340.067 53.2645 339.132 53.9223C338.197 54.5702 337.685 55.3752 337.055 56.3765L339.349 56.4551C339.861 55.6697 340.53 55.1003 341.347 54.7567L339.605 58.5952C337.695 59.194 336.278 59.8518 335.342 60.5979C334.417 61.3342 333.708 62.2373 333.226 63.2976C332.685 64.4855 332.626 65.4377 333.039 66.174C333.453 66.9103 334.319 67.303 335.628 67.3422L335.018 69.1388L336.346 69.0308L337.154 67.2441C338.453 66.9888 339.654 66.4587 340.746 65.6831C341.839 64.8978 342.518 64.1222 343.316 62.8165L340.914 62.5515C340.559 63.0816 340.146 63.5626 339.654 63.9651C339.172 64.3775 338.689 64.6818 338.227 64.8978V64.8683ZM342.912 54.5604C343.276 54.6487 343.513 54.8352 343.621 55.1298C343.729 55.4243 343.7 55.758 343.522 56.1311C343.365 56.4747 343.099 56.8085 342.735 57.1324C342.371 57.4564 341.918 57.7313 341.367 57.9571L342.912 54.5604ZM336.612 65.1628C336.12 65.1236 335.785 64.937 335.618 64.6131C335.451 64.2793 335.47 63.8768 335.697 63.3859C335.894 62.9442 336.209 62.5515 336.632 62.2079C337.055 61.8643 337.636 61.5698 338.355 61.344L336.612 65.1726V65.1628Z" fill="#8D8D8D"/>
<path d="M336.059 68.776L336.876 66.9697C338.156 66.6948 339.347 66.1647 340.43 65.3891C341.542 64.5841 342.536 63.5043 343.353 62.1593L343.451 61.9924L343.176 61.6194L342.231 61.7175H340.262L340.174 61.8452C339.839 62.3557 339.435 62.8072 338.973 63.1999C338.766 63.3668 338.569 63.5239 338.362 63.6613L339.809 60.4708C341.355 59.9603 342.634 59.2927 343.619 58.4877C344.643 57.6533 345.41 56.6814 345.912 55.5819C346.444 54.4234 346.473 53.4516 346.011 52.7153C345.607 52.0575 344.869 51.6943 343.826 51.6158L344.298 50.585L342.073 50.8009L341.621 51.7925C340.449 52.0477 339.386 52.4993 338.461 53.1374C337.496 53.805 336.443 54.6689 335.793 55.6997L336.118 56.1414L338.992 56.2003L339.081 56.0629C339.396 55.5819 339.77 55.1794 340.213 54.875L338.884 57.8005C337.014 58.3896 335.587 59.0669 334.651 59.813C333.687 60.5788 332.949 61.5212 332.447 62.6207C331.866 63.8871 331.817 64.9474 332.269 65.7622C332.683 66.4985 333.49 66.9304 334.671 67.0482L333.864 68.5502L334.14 68.9233L336.03 68.7368L336.059 68.776ZM336.472 66.4592L335.665 68.2263L334.642 68.3343L335.577 66.5476L335.144 66.5279C333.943 66.4887 333.155 66.1451 332.801 65.5069C332.437 64.859 332.506 63.9755 332.998 62.8858C333.46 61.8746 334.14 61.0009 335.035 60.2941C335.931 59.5872 337.329 58.9295 339.199 58.3405L339.327 58.3012L341.434 53.6675L340.754 53.9522C339.937 54.2958 339.248 54.8554 338.717 55.6211L336.679 55.5819C337.23 54.8063 338.057 54.1486 338.825 53.6184C339.731 52.9901 340.764 52.5582 341.916 52.3324L342.064 52.303L342.497 51.3507L343.383 51.2623L342.959 52.195H343.412C344.475 52.1851 345.194 52.46 345.548 53.0294C345.903 53.5988 345.853 54.3744 345.41 55.3561C344.948 56.3672 344.229 57.2802 343.284 58.0558C342.32 58.8411 341.069 59.4792 339.544 59.9701L339.426 60.0094L337.191 64.9376L337.89 64.6234C338.372 64.4074 338.884 64.0737 339.386 63.6515C339.849 63.2588 340.262 62.8072 340.617 62.3066H342.605C341.886 63.3766 341.05 64.27 340.124 64.9179C339.071 65.6738 337.9 66.1843 336.65 66.4298L336.502 66.4592H336.472ZM336.305 64.9572L338.402 60.3432L337.772 60.5493C337.024 60.7947 336.413 61.0991 335.961 61.4721C335.498 61.8452 335.153 62.2771 334.937 62.7582C334.681 63.3275 334.651 63.8282 334.868 64.2405C335.085 64.6627 335.508 64.9081 336.098 64.9474L336.305 64.967V64.9572ZM337.309 61.3445L335.951 64.3387C335.675 64.2798 335.488 64.162 335.39 63.9657C335.262 63.7202 335.291 63.3865 335.478 62.984C335.656 62.5913 335.941 62.228 336.335 61.9139C336.6 61.7077 336.925 61.5114 337.319 61.3347L337.309 61.3445ZM342.162 57.0741C342.26 57.0053 342.359 56.9268 342.447 56.8483C342.841 56.5047 343.127 56.1316 343.304 55.7487C343.511 55.2972 343.54 54.8848 343.412 54.5216C343.314 54.2566 343.077 53.913 342.507 53.7755L342.27 53.7166L340.321 58.0067L341 57.722C341.443 57.5355 341.837 57.3195 342.162 57.0741ZM342.585 54.4234C342.762 54.5118 342.831 54.6394 342.861 54.7278C342.94 54.9437 342.91 55.2088 342.772 55.5131C342.634 55.8175 342.398 56.1218 342.064 56.4163C341.896 56.5636 341.699 56.701 341.493 56.8286L342.585 54.4234Z" fill="#4D4D4D"/>
<path d="M344.367 70.5146L346.66 73.6169L342.762 75.5999L338.697 77.0823L333.608 77.4455L329.513 76.3558L327.603 75.0011L325.861 72.5468L329.779 74.4219L334.691 74.2353L340.892 72.3897L344.367 70.5146Z" fill="#4D4D4D"/>
<path d="M346.595 69.0039L348.849 72.0472L350.188 70.8888L347.825 67.6982L346.595 69.0039Z" fill="#4D4D4D"/>
<path d="M281.947 63.3469C282.338 59.8211 279.834 55.2383 275.337 51.9281C270.839 48.6109 265.714 47.5677 262.444 48.9795L261.83 48.5274L260.234 50.6832C257.619 54.216 260.143 60.4957 265.868 64.7169C271.592 68.9381 278.356 69.4945 280.971 65.9687L282.568 63.8129L281.954 63.3608L281.947 63.3469Z" fill="#4D4D4D"/>
<path d="M265.741 64.8696C259.933 60.5928 257.388 54.167 260.065 50.5508L261.781 48.2351L262.471 48.7427C265.888 47.338 271.089 48.541 275.454 51.7609C279.819 54.9807 282.504 59.5774 282.162 63.2493L282.853 63.7569L281.137 66.0797C278.46 69.6959 271.557 69.1534 265.748 64.8766L265.741 64.8696ZM261.871 48.8053L260.4 50.7942C257.855 54.2296 260.365 60.3911 265.992 64.5358C271.619 68.6806 278.265 69.2578 280.81 65.8293L282.281 63.8404L281.737 63.437L281.751 63.3188C282.148 59.7652 279.52 55.2519 275.217 52.0877C270.915 48.9166 265.818 47.7413 262.534 49.16L262.422 49.2087L261.878 48.8053H261.871Z" fill="#4D4D4D"/>
<path d="M282.569 63.7975C279.954 67.3302 273.19 66.7669 267.465 62.5457C261.741 58.3245 259.216 52.0448 261.831 48.512C264.446 44.9793 271.21 45.5426 276.934 49.7638C282.659 53.985 285.183 60.2647 282.569 63.7975Z" fill="#0B0B0B"/>
<path d="M282.192 64.3053C279.577 67.838 272.813 67.2748 267.088 63.0535C261.364 58.8323 258.839 52.5526 261.454 49.0199C264.069 45.4871 270.833 46.0504 276.558 50.2716C282.282 54.4928 284.806 60.7725 282.192 64.3053Z" fill="#8D8D8D"/>
<path d="M267.339 62.7133C261.53 58.4364 258.985 52.0107 261.663 48.3945C264.34 44.7783 271.244 45.3207 277.052 49.5976C282.861 53.8744 285.406 60.3002 282.728 63.9164C280.05 67.5326 273.147 66.9901 267.339 62.7133ZM276.808 49.9314C271.181 45.7866 264.536 45.2094 261.991 48.6379C259.445 52.0733 261.956 58.2347 267.583 62.3795C273.21 66.5242 279.855 67.1014 282.4 63.673C284.945 60.2376 282.435 54.0761 276.808 49.9314Z" fill="#4D4D4D"/>
<path d="M280.693 61.9698C278.726 64.6264 273.427 64.0492 268.853 60.6764C264.278 57.3036 262.165 52.4217 264.132 49.7651C266.098 47.1086 271.398 47.6858 275.972 51.0586C280.546 54.4314 282.659 59.3133 280.693 61.9698Z" fill="#0B0B0B"/>
<path d="M268.727 60.8429C264.069 57.4145 261.936 52.3866 263.965 49.6466C265.994 46.9066 271.44 47.4629 276.098 50.8983C280.755 54.3268 282.889 59.3547 280.86 62.0947C278.831 64.8347 273.385 64.2783 268.727 60.8429ZM275.853 51.2252C271.377 47.9289 266.196 47.3308 264.299 49.89C262.403 52.4491 264.502 57.2128 268.971 60.5091C273.448 63.8054 278.629 64.4035 280.525 61.8443C282.422 59.2852 280.323 54.5215 275.847 51.2252H275.853Z" fill="#4D4D4D"/>
<path d="M275.967 51.0664C271.393 47.6936 266.094 47.1164 264.127 49.773C263.953 50.0094 263.821 50.2737 263.709 50.5449C266.017 48.6533 270.773 49.3974 274.935 52.4643C279.098 55.5311 281.211 59.8497 280.074 62.6035C280.305 62.4158 280.514 62.2141 280.688 61.9777C282.654 59.3211 280.542 54.4393 275.967 51.0664Z" fill="#4D4D4D"/>
<path d="M279.72 62.8744L279.88 62.5267C280.989 59.8354 278.813 55.5794 274.811 52.6308C270.808 49.6822 266.094 48.8547 263.835 50.7045L263.473 51.0035L263.514 50.468C263.647 50.1412 263.793 49.8769 263.961 49.6544C265.99 46.9144 271.436 47.4708 276.094 50.9062C280.752 54.3346 282.885 59.3625 280.856 62.1025C280.689 62.325 280.48 62.5406 280.208 62.7701L279.72 62.8814V62.8744ZM275.85 51.233C271.373 47.9367 266.192 47.3386 264.295 49.8978C264.288 49.9047 264.282 49.9187 264.275 49.9256C266.855 48.5487 271.213 49.4666 275.055 52.304C278.897 55.1343 281.058 59.0148 280.501 61.8869C280.507 61.88 280.514 61.8661 280.521 61.8591C282.418 59.2999 280.319 54.5363 275.85 51.24V51.233Z" fill="#4D4D4D"/>
<path d="M274.512 50.1609L273.508 51.517L270.872 50.2513L267.881 49.5489L265.182 49.7714L263.711 50.5434L264.499 49.2707L266.256 48.3528L268.369 48.1094L271.172 48.5962L274.122 49.8688L274.512 50.1609Z" fill="#4D4D4D"/>
<path d="M275.026 61.545C275.57 61.4615 275.975 61.2668 276.233 60.9678L276.247 60.9887L276.93 60.0707L276.491 59.3475C276.435 59.1527 276.365 58.9511 276.268 58.7355C275.926 57.9844 275.424 57.3446 274.768 56.8231C274.113 56.3015 273.102 55.8286 271.749 55.4044L270.515 52.6853C271.094 52.9287 271.568 53.332 271.93 53.8884L273.75 53.8466L274.378 52.9982L272.523 52.4141V52.428C272.377 52.3098 272.237 52.1985 272.084 52.0872C271.421 51.6282 270.661 51.3083 269.818 51.1414L269.657 50.7868H269.818L270.111 50.3834L269.03 49.4863L268.04 50.8215L268.611 50.8076L268.709 51.0232C268.444 51.0232 268.214 51.051 268.005 51.0997C267.858 50.8911 267.747 50.7311 267.747 50.7311L267.022 51.7117C266.736 52.1776 266.764 52.7896 267.105 53.5476C267.447 54.2987 267.97 54.9593 268.674 55.5296C269.378 56.0998 270.285 56.5658 271.394 56.9204L272.718 59.8342C272.391 59.6882 272.056 59.4657 271.707 59.1736C271.491 58.9858 271.296 58.7772 271.115 58.5616L271.303 58.4156L269.546 57.3168L268.918 58.1652C269.483 59.0971 270.152 59.8342 270.933 60.3906C271.707 60.9469 272.558 61.3155 273.478 61.4963L274.05 62.762L275.152 62.8733L275.78 62.0248L275.026 61.5241V61.545ZM269.518 54.3752C269.26 54.1457 269.079 53.9092 268.96 53.6658C268.834 53.3946 268.814 53.1582 268.89 52.9565C268.967 52.7548 269.134 52.6157 269.392 52.5532L270.487 54.9593C270.097 54.7994 269.776 54.6047 269.518 54.3752ZM273.855 60.0637L272.621 57.3516C273.13 57.5185 273.541 57.7202 273.841 57.9636C274.141 58.207 274.364 58.4851 274.503 58.7981C274.664 59.1458 274.678 59.4379 274.559 59.6673C274.441 59.9038 274.204 60.029 273.855 60.0568V60.0637Z" fill="#4D4D4D"/>
<path d="M273.912 62.9846L273.333 61.705C272.427 61.5103 271.583 61.1348 270.816 60.5854C270.028 60.0221 269.324 59.2502 268.745 58.2974L268.675 58.1792L269.498 57.0665L271.667 58.4226L271.416 58.6173C271.562 58.7842 271.701 58.9233 271.841 59.0415C271.987 59.1598 272.127 59.271 272.273 59.3684L271.248 57.1083C270.154 56.7466 269.247 56.2738 268.55 55.7035C267.825 55.1124 267.281 54.4239 266.925 53.6451C266.549 52.8245 266.528 52.136 266.855 51.6144L267.608 50.5921L267.936 50.6339L269.003 49.1943L270.405 50.3487L269.972 50.9538C270.802 51.1346 271.555 51.4545 272.211 51.9065C272.343 51.9969 272.475 52.1012 272.601 52.2055L274.728 52.8731L273.863 54.0345L271.827 54.0762L271.764 53.9789C271.541 53.6381 271.269 53.3599 270.962 53.1374L271.904 55.2098C273.229 55.627 274.24 56.1069 274.902 56.6354C275.585 57.1778 276.108 57.8454 276.464 58.6243C276.562 58.8329 276.638 59.0415 276.694 59.2363L277.189 60.0499L276.422 61.0791L276.199 61.2669C276.018 61.413 275.802 61.5242 275.551 61.6077L276.087 61.9693L275.258 63.0889L273.919 62.9568L273.912 62.9846ZM273.619 61.3434L274.191 62.5952L275.055 62.6786L275.488 62.0945L274.477 61.4199L275 61.3434C275.488 61.2669 275.85 61.1 276.08 60.8357L276.269 60.6202L276.687 60.0569L276.297 59.3962C276.248 59.2085 276.171 59.0137 276.08 58.8121C275.753 58.0958 275.272 57.4768 274.637 56.9761C274.003 56.4754 273.012 56.0095 271.688 55.5922L271.597 55.5644L270.105 52.282L270.586 52.4837C271.165 52.7271 271.653 53.1235 272.029 53.6659L273.633 53.6311L274.03 53.0957L272.671 52.6645L272.65 52.7827L272.378 52.5741C272.238 52.4628 272.099 52.3446 271.953 52.2473C271.311 51.8022 270.579 51.4962 269.763 51.3362L269.658 51.3154L269.324 50.5852H269.693L269.812 50.4183L269.01 49.9802L268.438 50.606H268.731L269.017 51.2319H268.696C268.473 51.2319 268.264 51.2528 268.034 51.3015L267.901 51.3293L267.727 51.0859L267.176 51.8369C266.939 52.2264 266.967 52.7758 267.281 53.4712C267.608 54.1875 268.117 54.8342 268.787 55.3836C269.463 55.933 270.356 56.392 271.437 56.7397L271.52 56.7675L273.11 60.2585L272.615 60.036C272.273 59.883 271.911 59.6466 271.555 59.3475C271.346 59.1737 271.151 58.972 270.934 58.7077L270.802 58.5408L270.928 58.4435L269.582 57.609L269.149 58.1931C269.686 59.0415 270.321 59.7439 271.032 60.2377C271.778 60.7732 272.608 61.1348 273.494 61.3086L273.598 61.3295L273.619 61.3434ZM273.738 60.2794L272.252 57.0109L272.699 57.1569C273.229 57.3308 273.661 57.5464 273.982 57.8106C274.309 58.0749 274.553 58.3809 274.707 58.7217C274.888 59.125 274.909 59.4797 274.756 59.7717C274.602 60.0708 274.302 60.2446 273.884 60.2725L273.738 60.2864V60.2794ZM273.026 57.7202L273.989 59.8413C274.184 59.7996 274.316 59.7161 274.386 59.577C274.477 59.4032 274.456 59.1667 274.323 58.8816C274.198 58.6034 273.996 58.3461 273.717 58.1236C273.528 57.9706 273.298 57.8385 273.019 57.7133L273.026 57.7202ZM269.589 54.6951C269.519 54.6465 269.449 54.5908 269.386 54.5352C269.108 54.2918 268.905 54.0275 268.78 53.7563C268.633 53.4364 268.612 53.1443 268.703 52.887C268.773 52.6993 268.94 52.4559 269.345 52.3585L269.512 52.3168L270.893 55.3558L270.412 55.1541C270.098 55.022 269.819 54.869 269.589 54.6951ZM269.658 54.2292C269.777 54.3335 269.916 54.4309 270.063 54.5213L269.289 52.8175C269.163 52.8801 269.115 52.9705 269.094 53.0331C269.038 53.1861 269.059 53.3738 269.156 53.5894C269.254 53.805 269.421 54.0206 269.658 54.2292Z" fill="#4D4D4D"/>
<path d="M273.349 59.0054L272.024 56.0915C270.915 55.7369 270.009 55.2709 269.304 54.7007C268.6 54.1304 268.077 53.4698 267.735 52.7187C267.387 51.9607 267.359 51.3418 267.652 50.8828C267.938 50.4169 268.502 50.1874 269.339 50.1943L269.025 49.5059L270.127 49.6171L270.441 50.3056C271.285 50.4725 272.045 50.7854 272.707 51.2514C273.369 51.7104 273.927 52.3015 274.374 53.0038L272.554 53.0456C272.191 52.4892 271.717 52.0859 271.138 51.8425L272.372 54.5616C273.725 54.9858 274.729 55.4517 275.392 55.9803C276.047 56.5018 276.549 57.1416 276.891 57.8927C277.274 58.7341 277.316 59.4087 277.023 59.9303C276.73 60.4518 276.117 60.73 275.189 60.7578L275.782 62.0583L274.68 61.947L274.109 60.6813C273.188 60.5005 272.338 60.125 271.564 59.5756C270.79 59.0193 270.12 58.2821 269.548 57.3502H271.445C271.696 57.7327 271.989 58.0665 272.338 58.3586C272.686 58.6507 273.021 58.8663 273.349 59.0193V59.0054ZM270.029 51.7034C269.771 51.766 269.604 51.8981 269.527 52.1067C269.451 52.3154 269.472 52.5518 269.597 52.8161C269.709 53.0595 269.897 53.2959 270.155 53.5254C270.413 53.7549 270.734 53.9496 271.124 54.1096L270.029 51.7034ZM274.492 59.214C274.841 59.1862 275.078 59.054 275.196 58.8246C275.315 58.5881 275.301 58.303 275.141 57.9553C275.001 57.6423 274.778 57.3642 274.478 57.1208C274.178 56.8774 273.767 56.6687 273.258 56.5088L274.492 59.2209V59.214Z" fill="#0B0B0B"/>
<path d="M273.007 59.3677L271.682 56.4539C270.573 56.0992 269.667 55.6333 268.962 55.063C268.258 54.4928 267.735 53.8321 267.393 53.0811C267.045 52.3231 267.135 51.8293 267.428 51.3634C267.721 50.8975 268.16 50.5497 268.997 50.5567L269.025 50.0004L269.785 49.9795L270.099 50.668C270.943 50.8349 271.703 51.1478 272.365 51.6137C273.027 52.0727 273.39 52.643 273.836 53.3523L272.212 53.4079C271.849 52.8516 271.375 52.4483 270.796 52.2049L272.03 54.924C273.383 55.3482 274.387 55.8141 275.05 56.3426C275.705 56.8642 276.207 57.504 276.549 58.255C276.932 59.0965 276.974 59.7711 276.681 60.2926C276.388 60.8142 275.775 61.0924 274.847 61.1202L275.28 62.3928L274.338 62.3163L273.767 61.0507C272.846 60.8698 271.996 60.4943 271.222 59.9449C270.448 59.3886 269.966 58.8392 269.402 57.9143L271.103 57.7265C271.354 58.1021 271.647 58.4428 271.995 58.7279C272.337 59.02 272.679 59.2356 273.007 59.3886V59.3677ZM269.687 52.0658C269.429 52.1284 269.262 52.2605 269.185 52.4691C269.109 52.6777 269.13 52.9142 269.255 53.1784C269.367 53.4218 269.555 53.6583 269.813 53.8878C270.071 54.1173 270.392 54.312 270.782 54.4719L269.687 52.0658ZM274.15 59.5764C274.499 59.5485 274.736 59.4164 274.854 59.1869C274.973 58.9505 274.959 58.6653 274.799 58.3176C274.659 58.0047 274.436 57.7265 274.136 57.4831C273.836 57.2397 273.425 57.0311 272.916 56.8712L274.15 59.5833V59.5764Z" fill="#8D8D8D"/>
<path d="M274.54 62.1352L273.961 60.8557C273.054 60.6609 272.211 60.2854 271.444 59.736C270.656 59.1658 269.952 58.4008 269.373 57.4481L269.303 57.3299L269.498 57.0656L270.168 57.1351H271.562L271.625 57.2255C271.862 57.5872 272.148 57.9071 272.476 58.1852C272.622 58.3035 272.762 58.4147 272.908 58.5121L271.883 56.252C270.788 55.8903 269.882 55.4174 269.185 54.8472C268.459 54.2561 267.915 53.5676 267.56 52.7887C267.183 51.9681 267.162 51.2797 267.49 50.7581C267.776 50.2922 268.299 50.0349 269.038 49.9792L268.703 49.249L270.279 49.402L270.6 50.1044C271.43 50.2852 272.183 50.6051 272.838 51.0571C273.522 51.53 274.268 52.142 274.728 52.8722L274.498 53.1851L272.462 53.2268L272.399 53.1295C272.176 52.7887 271.911 52.5036 271.597 52.288L272.538 54.3604C273.863 54.7776 274.874 55.2575 275.537 55.786C276.22 56.3284 276.743 56.9961 277.099 57.7749C277.51 58.672 277.545 59.4231 277.224 60.0003C276.931 60.5219 276.36 60.8278 275.523 60.9113L276.095 61.9753L275.899 62.2396L274.561 62.1074L274.54 62.1352ZM274.247 60.494L274.819 61.7458L275.544 61.8223L274.881 60.5566L275.188 60.5427C276.039 60.5149 276.597 60.2715 276.848 59.8195C277.106 59.3605 277.057 58.7346 276.708 57.9627C276.381 57.2464 275.899 56.6275 275.265 56.1268C274.63 55.6261 273.64 55.1601 272.315 54.7429L272.225 54.7151L270.732 51.4327L271.214 51.6343C271.792 51.8777 272.28 52.2741 272.657 52.8166L274.1 52.7887C273.71 52.2393 273.124 51.7734 272.58 51.3979C271.939 50.9528 271.207 50.6468 270.391 50.4869L270.286 50.466L269.979 49.7915L269.352 49.7289L269.652 50.3895H269.331C268.578 50.3826 268.069 50.5773 267.818 50.9806C267.567 51.384 267.602 51.9334 267.915 52.6288C268.243 53.3451 268.752 53.9918 269.422 54.5412C270.105 55.0975 270.99 55.5496 272.071 55.8973L272.155 55.9251L273.738 59.4161L273.243 59.1936C272.901 59.0406 272.538 58.8042 272.183 58.5051C271.855 58.227 271.562 57.9071 271.311 57.5524H269.903C270.412 58.3104 271.004 58.9432 271.66 59.4022C272.406 59.9377 273.236 60.2993 274.121 60.4732L274.226 60.494H274.247ZM274.365 59.43L272.88 56.1615L273.326 56.3076C273.856 56.4814 274.289 56.697 274.609 56.9613C274.937 57.2255 275.181 57.5315 275.335 57.8723C275.516 58.2756 275.537 58.6303 275.383 58.9224C275.23 59.2214 274.93 59.3953 274.512 59.4231L274.365 59.437V59.43ZM273.654 56.8709L274.616 58.9919C274.812 58.9502 274.944 58.8667 275.014 58.7277C275.105 58.5538 275.084 58.3174 274.951 58.0322C274.826 57.7541 274.623 57.4968 274.344 57.2742C274.156 57.1282 273.926 56.9891 273.647 56.8639L273.654 56.8709ZM270.217 53.8458C270.147 53.7971 270.077 53.7415 270.014 53.6858C269.735 53.4424 269.533 53.1782 269.408 52.907C269.261 52.5871 269.24 52.295 269.331 52.0377C269.401 51.8499 269.568 51.6065 269.972 51.5092L270.14 51.4674L271.52 54.5064L271.039 54.3048C270.726 54.1726 270.447 54.0196 270.217 53.8458ZM269.917 51.9681C269.791 52.0307 269.742 52.1211 269.721 52.1837C269.666 52.3367 269.687 52.5245 269.784 52.7401C269.882 52.9556 270.049 53.1712 270.286 53.3798C270.405 53.4842 270.544 53.5815 270.691 53.6719L269.917 51.9681Z" fill="#4D4D4D"/>
<path d="M268.656 63.3662L267.031 65.5638L269.793 66.9685L272.672 68.0186L276.277 68.2759L279.178 67.504L280.531 66.5443L281.765 64.8057L278.99 66.134L275.51 66.0019L271.117 64.6945L268.656 63.3662Z" fill="#4D4D4D"/>
<path d="M267.08 62.296L265.483 64.4518L264.535 63.6312L266.209 61.3711L267.08 62.296Z" fill="#4D4D4D"/>
<path d="M303.467 104.79C304.003 99.9545 300.57 93.6695 294.402 89.1299C288.234 84.5807 281.205 83.1501 276.721 85.0861L275.879 84.4662L273.689 87.4227C270.103 92.2676 273.565 100.88 281.416 106.669C289.267 112.458 298.543 113.221 302.129 108.385L304.319 105.429L303.477 104.809L303.467 104.79Z" fill="#4D4D4D"/>
<path d="M281.245 106.878C273.279 101.013 269.789 92.2007 273.461 87.2414L275.813 84.0655L276.76 84.7617C281.446 82.8352 288.579 84.4851 294.566 88.9008C300.552 93.3165 304.234 99.6206 303.765 104.656L304.712 105.352L302.359 108.538C298.687 113.497 289.22 112.753 281.254 106.888L281.245 106.878ZM275.938 84.8475L273.92 87.5752C270.429 92.2865 273.872 100.736 281.589 106.421C289.306 112.105 298.42 112.896 301.91 108.194L303.928 105.467L303.182 104.914L303.201 104.752C303.746 99.8781 300.141 93.6885 294.241 89.3491C288.34 85.0001 281.35 83.3884 276.846 85.3339L276.693 85.4007L275.947 84.8475H275.938Z" fill="#4D4D4D"/>
<path d="M304.32 105.408C300.734 110.253 291.458 109.481 283.607 103.692C275.756 97.9025 272.295 89.2905 275.881 84.4456C279.467 79.6007 288.742 80.3732 296.593 86.1623C304.444 91.9513 307.906 100.563 304.32 105.408Z" fill="#0B0B0B"/>
<path d="M303.804 106.104C300.218 110.949 290.943 110.177 283.092 104.388C275.241 98.5988 271.779 89.9867 275.365 85.1419C278.951 80.297 288.227 81.0695 296.078 86.8586C303.929 92.6476 307.391 101.26 303.804 106.104Z" fill="#8D8D8D"/>
<path d="M283.434 103.921C275.469 98.0554 271.978 89.2431 275.65 84.2838C279.322 79.3245 288.789 80.0684 296.755 85.9337C304.721 91.7991 308.211 100.611 304.539 105.571C300.867 110.53 291.4 109.786 283.434 103.921ZM296.421 86.3915C288.703 80.7074 279.59 79.9158 276.1 84.6176C272.609 89.329 276.052 97.7788 283.769 103.463C291.486 109.147 300.599 109.939 304.09 105.237C307.58 100.526 304.138 92.0756 296.421 86.3915Z" fill="#4D4D4D"/>
<path d="M301.749 102.902C299.053 106.545 291.785 105.753 285.512 101.128C279.239 96.5024 276.341 89.8073 279.038 86.1641C281.734 82.5209 289.002 83.3125 295.275 87.938C301.548 92.5635 304.446 99.2586 301.749 102.902Z" fill="#0B0B0B"/>
<path d="M285.34 101.355C278.952 96.6536 276.026 89.7582 278.808 86.0006C281.591 82.243 289.06 83.0059 295.447 87.7173C301.835 92.4191 304.762 99.3144 301.979 103.072C299.196 106.83 291.728 106.067 285.34 101.355ZM295.113 88.1655C288.973 83.6449 281.868 82.8247 279.267 86.3344C276.666 89.8441 279.545 96.377 285.674 100.898C291.814 105.418 298.919 106.238 301.52 102.729C304.121 99.2191 301.242 92.6861 295.103 88.1655H295.113Z" fill="#4D4D4D"/>
<path d="M295.272 87.9478C288.999 83.3223 281.731 82.5307 279.035 86.1739C278.796 86.4982 278.614 86.8606 278.461 87.2325C281.626 84.6384 288.148 85.6589 293.857 89.8648C299.566 94.0706 302.463 99.9932 300.905 103.77C301.22 103.512 301.507 103.236 301.746 102.912C304.443 99.2684 301.545 92.5733 295.272 87.9478Z" fill="#4D4D4D"/>
<path d="M300.418 104.14L300.638 103.664C302.158 99.9727 299.175 94.136 293.686 90.0923C288.197 86.0485 281.732 84.9136 278.634 87.4505L278.137 87.8606L278.194 87.1262C278.376 86.678 278.577 86.3156 278.806 86.0104C281.589 82.2527 289.057 83.0157 295.445 87.7271C301.833 92.4289 304.759 99.3242 301.977 103.082C301.747 103.387 301.46 103.683 301.087 103.997L300.418 104.15V104.14ZM295.111 88.1753C288.971 83.6547 281.866 82.8345 279.265 86.3442C279.256 86.3537 279.246 86.3728 279.236 86.3823C282.775 84.494 288.751 85.7529 294.02 89.644C299.289 93.5256 302.254 98.8473 301.489 102.786C301.498 102.777 301.508 102.758 301.518 102.748C304.119 99.2384 301.24 92.7054 295.111 88.1848V88.1753Z" fill="#4D4D4D"/>
<path d="M293.274 86.707L291.897 88.5667L288.282 86.831L284.179 85.8677L280.479 86.1729L278.461 87.2315L279.542 85.4863L281.951 84.2274L284.849 83.8936L288.693 84.5612L292.738 86.3065L293.274 86.707Z" fill="#4D4D4D"/>
<path d="M293.98 102.319C294.726 102.204 295.281 101.937 295.635 101.527L295.654 101.556L296.591 100.297L295.988 99.3049C295.912 99.0379 295.816 98.7613 295.682 98.4656C295.214 97.4356 294.525 96.5582 293.626 95.8429C292.728 95.1276 291.341 94.4791 289.486 93.8973L287.793 90.1683C288.587 90.5021 289.237 91.0553 289.734 91.8183L292.23 91.761L293.091 90.5975L290.547 89.7964V89.8155C290.346 89.6533 290.155 89.5007 289.945 89.3481C289.036 88.7187 287.994 88.28 286.837 88.0511L286.617 87.5647H286.837L287.239 87.0115L285.756 85.7812L284.398 87.6124L285.183 87.5933L285.316 87.889C284.953 87.889 284.638 87.9271 284.351 87.9939C284.15 87.7077 283.997 87.4884 283.997 87.4884L283.002 88.8331C282.61 89.4721 282.648 90.3114 283.117 91.3509C283.586 92.3809 284.303 93.287 285.269 94.069C286.234 94.8511 287.478 95.4901 288.998 95.9764L290.815 99.9725C290.366 99.7722 289.907 99.467 289.428 99.0665C289.132 98.809 288.864 98.5229 288.616 98.2272L288.874 98.0269L286.464 96.5201L285.603 97.6836C286.378 98.9616 287.296 99.9725 288.367 100.735C289.428 101.498 290.595 102.004 291.857 102.252L292.642 103.988L294.152 104.14L295.013 102.977L293.98 102.29V102.319ZM286.426 92.4859C286.072 92.1711 285.823 91.8469 285.661 91.5131C285.489 91.1411 285.46 90.8169 285.565 90.5403C285.67 90.2637 285.9 90.073 286.254 89.9871L287.755 93.287C287.219 93.0676 286.78 92.8006 286.426 92.4859ZM292.374 100.287L290.681 96.5677C291.379 96.7966 291.943 97.0732 292.355 97.407C292.766 97.7408 293.072 98.1223 293.263 98.5515C293.483 99.0283 293.502 99.4289 293.34 99.7436C293.177 100.068 292.852 100.24 292.374 100.278V100.287Z" fill="#4D4D4D"/>
<path d="M292.452 104.293L291.659 102.538C290.415 102.271 289.258 101.756 288.206 101.003C287.126 100.23 286.16 99.1715 285.366 97.865L285.271 97.7028L286.399 96.1769L289.373 98.0366L289.029 98.3037C289.23 98.5326 289.421 98.7233 289.612 98.8854C289.813 99.0476 290.004 99.2002 290.205 99.3337L288.799 96.2341C287.298 95.7382 286.055 95.0897 285.099 94.3076C284.104 93.497 283.358 92.5528 282.87 91.4846C282.354 90.3592 282.325 89.4151 282.775 88.6998L283.808 87.2978L284.257 87.355L285.72 85.3809L287.642 86.964L287.049 87.7938C288.187 88.0417 289.22 88.4804 290.119 89.1003C290.301 89.2243 290.482 89.3674 290.655 89.5104L293.571 90.426L292.385 92.0187L289.593 92.0759L289.507 91.9424C289.201 91.4751 288.828 91.0936 288.407 90.7884L289.698 93.6305C291.515 94.2027 292.902 94.8608 293.81 95.5856C294.747 96.3295 295.465 97.245 295.952 98.3132C296.086 98.5993 296.191 98.8854 296.268 99.1525L296.947 100.268L295.895 101.68L295.589 101.937C295.34 102.138 295.044 102.29 294.7 102.405L295.436 102.901L294.298 104.436L292.462 104.255L292.452 104.293ZM292.051 102.042L292.835 103.759L294.021 103.873L294.614 103.072L293.227 102.147L293.944 102.042C294.614 101.937 295.111 101.708 295.426 101.346L295.685 101.05L296.258 100.278L295.723 99.3718C295.656 99.1143 295.551 98.8473 295.426 98.5707C294.977 97.5884 294.317 96.7396 293.447 96.0529C292.577 95.3662 291.219 94.7272 289.402 94.155L289.277 94.1169L287.231 89.6153L287.891 89.8919C288.685 90.2257 289.354 90.7693 289.87 91.5132L292.07 91.4655L292.615 90.7312L290.75 90.1399L290.721 90.302L290.349 90.0159C290.157 89.8633 289.966 89.7012 289.765 89.5677C288.885 88.9573 287.881 88.5377 286.763 88.3183L286.619 88.2897L286.16 87.2883H286.667L286.829 87.0594L285.73 86.4586L284.946 87.3169H285.347L285.739 88.1752H285.299C284.993 88.1752 284.707 88.2038 284.391 88.2706L284.209 88.3088L283.97 87.975L283.215 89.005C282.89 89.539 282.928 90.2925 283.358 91.2462C283.808 92.2285 284.506 93.1155 285.424 93.8689C286.351 94.6223 287.575 95.2518 289.058 95.7286L289.172 95.7668L291.353 100.554L290.674 100.249C290.205 100.039 289.708 99.7152 289.22 99.3051C288.933 99.0666 288.665 98.7901 288.369 98.4277L288.187 98.1988L288.359 98.0652L286.514 96.9208L285.921 97.7219C286.657 98.8854 287.528 99.8487 288.503 100.526C289.526 101.26 290.664 101.756 291.879 101.995L292.022 102.023L292.051 102.042ZM292.213 100.583L290.176 96.1006L290.788 96.3009C291.515 96.5393 292.108 96.835 292.548 97.1974C292.997 97.5598 293.332 97.9794 293.542 98.4467C293.791 98.9999 293.82 99.4863 293.609 99.8868C293.399 100.297 292.988 100.535 292.414 100.574L292.213 100.593V100.583ZM291.238 97.0734L292.558 99.9822C292.825 99.925 293.007 99.8105 293.103 99.6198C293.227 99.3814 293.198 99.0571 293.017 98.6661C292.844 98.2846 292.567 97.9317 292.185 97.6265C291.926 97.4167 291.611 97.2355 291.228 97.0638L291.238 97.0734ZM286.523 92.9247C286.428 92.858 286.332 92.7817 286.246 92.7054C285.864 92.3716 285.586 92.0092 285.414 91.6372C285.213 91.1985 285.185 90.7979 285.309 90.4451C285.405 90.1876 285.634 89.8538 286.189 89.7202L286.418 89.663L288.312 93.8308L287.652 93.5542C287.222 93.373 286.839 93.1632 286.523 92.9247ZM286.619 92.2857C286.782 92.4288 286.973 92.5623 287.174 92.6863L286.112 90.3497C285.94 90.4355 285.873 90.5595 285.844 90.6454C285.768 90.8552 285.797 91.1127 285.931 91.4083C286.064 91.704 286.294 91.9996 286.619 92.2857Z" fill="#4D4D4D"/>
<path d="M291.68 98.8363L289.863 94.8403C288.342 94.3539 287.099 93.7149 286.133 92.9328C285.167 92.1508 284.45 91.2448 283.982 90.2147C283.503 89.1752 283.465 88.3264 283.867 87.6969C284.259 87.058 285.033 86.7432 286.181 86.7528L285.751 85.8086L287.262 85.9612L287.692 86.9054C288.849 87.1343 289.891 87.5634 290.8 88.2024C291.708 88.8319 292.473 89.6425 293.085 90.6058L290.589 90.663C290.092 89.9 289.442 89.3469 288.648 89.0131L290.341 92.7421C292.196 93.3239 293.573 93.9628 294.481 94.6877C295.38 95.4029 296.069 96.2804 296.537 97.3104C297.063 98.4644 297.121 99.3895 296.719 100.105C296.317 100.82 295.476 101.202 294.204 101.24L295.017 103.023L293.506 102.871L292.722 101.135C291.46 100.887 290.293 100.372 289.232 99.6184C288.17 98.8554 287.252 97.8444 286.468 96.5665H289.069C289.413 97.091 289.815 97.5488 290.293 97.9494C290.771 98.3499 291.23 98.6456 291.68 98.8554V98.8363ZM287.128 88.8223C286.774 88.9082 286.544 89.0894 286.439 89.3755C286.334 89.6616 286.363 89.9859 286.535 90.3483C286.688 90.6821 286.946 91.0063 287.3 91.3211C287.654 91.6358 288.094 91.9028 288.629 92.1222L287.128 88.8223ZM293.248 99.1224C293.726 99.0843 294.051 98.9031 294.214 98.5883C294.376 98.2641 294.357 97.8731 294.137 97.3962C293.946 96.967 293.64 96.5856 293.229 96.2518C292.818 95.918 292.253 95.6318 291.555 95.4125L293.248 99.132V99.1224Z" fill="#0B0B0B"/>
<path d="M291.21 99.3312L289.393 95.3351C287.873 94.8487 286.63 94.2097 285.664 93.4277C284.698 92.6457 283.981 91.7396 283.512 90.7096C283.034 89.6701 283.158 88.9929 283.56 88.3539C283.962 87.715 284.564 87.2381 285.712 87.2476L285.75 86.4847L286.792 86.4561L287.223 87.4002C288.38 87.6291 289.422 88.0583 290.33 88.6973C291.239 89.3267 291.736 90.1088 292.348 91.0816L290.12 91.1579C289.623 90.3949 288.973 89.8417 288.179 89.5079L289.871 93.237C291.727 93.8187 293.104 94.4577 294.012 95.1825C294.911 95.8978 295.6 96.7752 296.068 97.8052C296.594 98.9592 296.651 99.8843 296.25 100.6C295.848 101.315 295.007 101.696 293.735 101.735L294.328 103.48L293.037 103.375L292.253 101.639C290.99 101.391 289.824 100.876 288.762 100.123C287.701 99.3598 287.041 98.6064 286.266 97.3379L288.6 97.0804C288.944 97.5954 289.346 98.0627 289.824 98.4538C290.292 98.8543 290.761 99.15 291.21 99.3598V99.3312ZM286.658 89.3172C286.305 89.403 286.075 89.5842 285.97 89.8703C285.865 90.1565 285.893 90.4807 286.066 90.8431C286.219 91.1769 286.477 91.5012 286.831 91.8159C287.184 92.1307 287.624 92.3977 288.16 92.617L286.658 89.3172ZM292.779 99.6173C293.257 99.5791 293.582 99.3979 293.744 99.0832C293.907 98.759 293.888 98.3679 293.668 97.8911C293.477 97.4619 293.171 97.0804 292.759 96.7466C292.348 96.4128 291.784 96.1267 291.086 95.9074L292.779 99.6268V99.6173Z" fill="#8D8D8D"/>
<path d="M293.314 103.127L292.52 101.373C291.277 101.106 290.12 100.59 289.068 99.8371C287.987 99.055 287.022 98.0059 286.228 96.6993L286.132 96.5372L286.4 96.1748L287.318 96.2702H289.231L289.317 96.3942C289.642 96.8901 290.034 97.3288 290.483 97.7103C290.684 97.8724 290.875 98.025 291.076 98.1585L289.67 95.059C288.169 94.563 286.926 93.9145 285.97 93.1325C284.975 92.3218 284.229 91.3776 283.742 90.3095C283.225 89.1841 283.197 88.2399 283.646 87.5246C284.038 86.8856 284.755 86.5328 285.769 86.4565L285.31 85.4551L287.471 85.6649L287.911 86.6281C289.049 86.8761 290.082 87.3148 290.981 87.9347C291.918 88.5833 292.941 89.4225 293.572 90.4239L293.256 90.8531L290.464 90.9103L290.378 90.7768C290.072 90.3095 289.709 89.9184 289.278 89.6228L290.569 92.4649C292.386 93.0371 293.773 93.6952 294.681 94.42C295.618 95.1639 296.336 96.0794 296.823 97.1476C297.388 98.3779 297.435 99.4079 296.996 100.199C296.594 100.915 295.81 101.334 294.662 101.449L295.446 102.908L295.179 103.27L293.343 103.089L293.314 103.127ZM292.912 100.877L293.696 102.593L294.691 102.698L293.782 100.962L294.203 100.943C295.37 100.905 296.135 100.571 296.479 99.9515C296.833 99.3221 296.766 98.4637 296.288 97.4051C295.838 96.4228 295.179 95.574 294.308 94.8873C293.438 94.2006 292.08 93.5616 290.263 92.9894L290.139 92.9513L288.093 88.4497L288.752 88.7263C289.546 89.0601 290.216 89.6037 290.732 90.3476L292.711 90.3095C292.176 89.556 291.373 88.9171 290.627 88.402C289.747 87.7917 288.743 87.372 287.624 87.1527L287.481 87.1241L287.06 86.199L286.199 86.1131L286.61 87.0192H286.17C285.138 87.0096 284.44 87.2767 284.095 87.8298C283.751 88.383 283.799 89.1364 284.229 90.0901C284.679 91.0724 285.377 91.9594 286.295 92.7128C287.232 93.4758 288.446 94.0957 289.929 94.5726L290.043 94.6107L292.214 99.3984L291.535 99.0932C291.067 98.8834 290.569 98.5591 290.082 98.149C289.632 97.7675 289.231 97.3288 288.886 96.8424H286.955C287.653 97.882 288.466 98.7498 289.364 99.3793C290.388 100.114 291.526 100.61 292.74 100.848L292.884 100.877H292.912ZM293.075 99.4174L291.038 94.935L291.65 95.1353C292.377 95.3737 292.97 95.6693 293.409 96.0318C293.859 96.3942 294.194 96.8138 294.404 97.2811C294.653 97.8343 294.681 98.3207 294.471 98.7212C294.261 99.1313 293.849 99.3697 293.276 99.4079L293.075 99.427V99.4174ZM292.099 95.9078L293.419 98.8166C293.687 98.7594 293.869 98.6449 293.964 98.4542C294.088 98.2158 294.06 97.8915 293.878 97.5005C293.706 97.119 293.429 96.7661 293.046 96.4609C292.788 96.2606 292.472 96.0699 292.09 95.8982L292.099 95.9078ZM287.385 91.7591C287.289 91.6924 287.194 91.6161 287.108 91.5398C286.725 91.206 286.448 90.8436 286.276 90.4716C286.075 90.0329 286.046 89.6323 286.17 89.2795C286.266 89.022 286.496 88.6882 287.05 88.5546L287.28 88.4974L289.173 92.6651L288.513 92.3886C288.083 92.2074 287.701 91.9975 287.385 91.7591ZM286.974 89.1841C286.802 89.2699 286.735 89.3939 286.706 89.4797C286.63 89.6896 286.658 89.9471 286.792 90.2427C286.926 90.5384 287.155 90.834 287.481 91.1201C287.643 91.2632 287.834 91.3967 288.035 91.5207L286.974 89.1841Z" fill="#4D4D4D"/>
</g>
<defs>
<clipPath id="clip0_10501_234057">
<path d="M0 16C0 7.16344 7.16344 0 16 0H359C367.837 0 375 7.16344 375 16V99H0V16Z" fill="white"/>
</clipPath>
</defs>
</svg>
