<svg width="81" height="52" viewBox="0 0 81 52" fill="none" xmlns="http://www.w3.org/2000/svg">
<path d="M14.4 24.2C14.4 11.387 24.787 0.999962 37.6 0.999962C46.8323 0.999962 54.805 6.39267 58.5401 14.2" stroke="url(#paint0_linear_4590_304902)" stroke-width="1.2"/>
<g clip-path="url(#clip0_4590_304902)">
<path d="M31.5196 35.2705C29.3826 43.842 20.7011 49.0585 12.1286 46.921C3.55962 44.784 -1.65688 36.102 0.481122 27.531C2.61712 18.9585 11.2986 13.7415 19.8686 15.8785C28.4406 18.0155 33.6566 26.6985 31.5196 35.2705Z" fill="#F7931A"/>
<path d="M23.0547 29.1205C23.3732 26.9915 21.7522 25.847 19.5357 25.0835L20.2547 22.1995L18.4992 21.762L17.7992 24.57C17.3377 24.455 16.8637 24.3465 16.3927 24.239L17.0977 21.4125L15.3432 20.975L14.6237 23.858C14.2417 23.771 13.8667 23.685 13.5027 23.5945L13.5047 23.5855L11.0837 22.981L10.6167 24.856C10.6167 24.856 11.9192 25.1545 11.8917 25.173C12.6027 25.3505 12.7312 25.821 12.7097 26.194L11.8907 29.4795C11.9397 29.492 12.0032 29.51 12.0732 29.538C12.0147 29.5235 11.9522 29.5075 11.8877 29.492L10.7397 34.0945C10.6527 34.3105 10.4322 34.6345 9.93516 34.5115C9.95266 34.537 8.65916 34.193 8.65916 34.193L7.78766 36.2025L10.0722 36.772C10.4972 36.8785 10.9137 36.99 11.3237 37.095L10.5972 40.012L12.3507 40.4495L13.0702 37.5635C13.5492 37.6935 14.0142 37.8135 14.4692 37.9265L13.7522 40.799L15.5077 41.2365L16.2342 38.325C19.2277 38.8915 21.4787 38.663 22.4262 35.9555C23.1897 33.7755 22.3882 32.518 20.8132 31.698C21.9602 31.4335 22.8242 30.679 23.0547 29.1205ZM19.0437 34.745C18.5012 36.925 14.8307 35.7465 13.6407 35.451L14.6047 31.5865C15.7947 31.8835 19.6107 32.4715 19.0437 34.745ZM19.5867 29.089C19.0917 31.072 16.0367 30.0645 15.0457 29.8175L15.9197 26.3125C16.9107 26.5595 20.1022 27.0205 19.5867 29.089Z" fill="white"/>
</g>
<path d="M3.59996 44.7C3.59996 41.5519 6.15194 39 9.29996 39H22.9C26.048 39 28.6 41.5519 28.6 44.7C28.6 47.848 26.048 50.4 22.9 50.4H9.29996C6.15193 50.4 3.59996 47.848 3.59996 44.7Z" fill="#121511"/>
<path d="M3.59996 44.7C3.59996 41.5519 6.15194 39 9.29996 39H22.9C26.048 39 28.6 41.5519 28.6 44.7C28.6 47.848 26.048 50.4 22.9 50.4H9.29996C6.15193 50.4 3.59996 47.848 3.59996 44.7Z" stroke="#232521" stroke-width="0.4"/>
<path d="M10.1648 48.3248C9.24265 48.3248 8.52505 48.0128 8.01199 47.3888C7.49892 46.7579 7.24239 45.8323 7.24239 44.612C7.24239 43.3917 7.49892 42.4557 8.01199 41.804C8.52505 41.1453 9.24265 40.816 10.1648 40.816C10.7749 40.816 11.2845 40.9547 11.6936 41.232C12.1096 41.5093 12.432 41.9011 12.6608 42.4072L11.9536 42.8336C11.808 42.4592 11.5861 42.1611 11.288 41.9392C10.9899 41.7104 10.6155 41.596 10.1648 41.596C9.85279 41.596 9.57199 41.6549 9.32239 41.7728C9.07972 41.8907 8.87172 42.0605 8.69839 42.2824C8.53199 42.4973 8.40372 42.7573 8.31359 43.0624C8.22345 43.3605 8.17839 43.6968 8.17839 44.0712V45.1528C8.17839 45.9016 8.35172 46.4875 8.69839 46.9104C9.04505 47.3333 9.53385 47.5448 10.1648 47.5448C10.6293 47.5448 11.0176 47.4269 11.3296 47.1912C11.6416 46.9485 11.8704 46.6296 12.016 46.2344L12.7128 46.6712C12.484 47.1843 12.1547 47.5899 11.7248 47.888C11.2949 48.1792 10.7749 48.3248 10.1648 48.3248ZM14.0762 48.2V40.9408H18.5066V41.7104H14.9498V44.144H18.2986V44.9136H14.9498V47.4304H18.5066V48.2H14.0762ZM25.3082 48.2H24.2578L22.3546 45.1528H22.3338L20.4306 48.2H19.4322L21.8034 44.508L19.4946 40.9408H20.545L22.365 43.832H22.3858L24.2474 40.9408H25.2458L22.9162 44.4768L25.3082 48.2Z" fill="#F7F7F7"/>
<rect x="42.6" y="14" width="34.8" height="34.8" rx="17.4" stroke="url(#paint1_linear_4590_304902)" stroke-width="1.2"/>
<g clip-path="url(#clip1_4590_304902)">
<path d="M74.7437 35.077C72.7135 43.2199 64.4661 48.1756 56.3222 46.145C48.1817 44.1148 43.226 35.8669 45.2571 27.7245C47.2863 19.5806 55.5337 14.6244 63.6752 16.6546C71.8186 18.6847 76.7738 26.9336 74.7437 35.077Z" fill="#F7931A"/>
<path d="M66.7019 29.2345C67.0045 27.2119 65.4645 26.1247 63.3588 25.3993L64.0419 22.6595L62.3742 22.2439L61.7092 24.9115C61.2707 24.8023 60.8204 24.6992 60.373 24.5971L61.0427 21.9119L59.376 21.4963L58.6924 24.2351C58.3295 24.1525 57.9733 24.0708 57.6275 23.9848L57.6294 23.9762L55.3294 23.402L54.8858 25.1832C54.8858 25.1832 56.1232 25.4668 56.097 25.4844C56.7725 25.653 56.8946 26.1 56.8741 26.4543L56.0961 29.5755C56.1426 29.5874 56.203 29.6045 56.2695 29.6311C56.2139 29.6173 56.1545 29.6021 56.0932 29.5874L55.0026 33.9598C54.92 34.165 54.7105 34.4728 54.2384 34.3559C54.255 34.3802 53.0262 34.0534 53.0262 34.0534L52.1982 35.9624L54.3685 36.5034C54.7723 36.6046 55.1679 36.7105 55.5574 36.8103L54.8673 39.5814L56.5331 39.997L57.2166 37.2553C57.6717 37.3788 58.1134 37.4928 58.5457 37.6002L57.8645 40.3291L59.5322 40.7447L60.2224 37.9788C63.0662 38.5169 65.2047 38.2999 66.1048 35.7277C66.8301 33.6567 66.0687 32.4621 64.5725 31.6831C65.6621 31.4318 66.4829 30.7151 66.7019 29.2345ZM62.8914 34.5778C62.3761 36.6488 58.8891 35.5292 57.7586 35.2485L58.6744 31.5772C59.8049 31.8593 63.4301 32.4179 62.8914 34.5778ZM63.4073 29.2046C62.937 31.0884 60.0348 30.1313 59.0933 29.8966L59.9236 26.5669C60.8651 26.8015 63.897 27.2395 63.4073 29.2046Z" fill="white"/>
</g>
<path d="M66.6 44.2C66.6 40.334 69.734 37.2 73.6 37.2C77.466 37.2 80.6 40.334 80.6 44.2C80.6 48.066 77.466 51.2 73.6 51.2C69.734 51.2 66.6 48.066 66.6 44.2Z" fill="#121511"/>
<path d="M66.6 44.2C66.6 40.334 69.734 37.2 73.6 37.2C77.466 37.2 80.6 40.334 80.6 44.2C80.6 48.066 77.466 51.2 73.6 51.2C69.734 51.2 66.6 48.066 66.6 44.2Z" stroke="#494949" stroke-width="0.4"/>
<g clip-path="url(#clip2_4590_304902)">
<g clip-path="url(#clip3_4590_304902)">
<path d="M72.6374 43.3829L72.9923 44.4311H72.1917L72.5672 43.3829H72.6374ZM74.5522 44.9923H73.9662V45.1987H75.4106V44.9923H74.8328V43.3416H75.4106V43.1353H73.9662V43.3416H74.5522V44.9923ZM71.9152 45.1987L72.1133 44.6457H73.0666L73.2523 45.1987H73.5577L72.8148 43.1353H72.3939L71.6387 45.1987H71.9152ZM76.5619 47.163H70.6359V41.237H76.5619V47.163Z" fill="white"/>
<path d="M74.176 49.7998C76.8213 49.5274 78.9259 47.4228 79.1983 44.7776H78.5009C78.2533 47.072 76.5159 48.9002 74.176 49.1602V49.7998Z" fill="white"/>
<path d="M68 44.7777C68.2724 47.4229 70.377 49.5275 73.0223 49.7999V49.1603C70.6824 48.9003 68.9492 47.068 68.6974 44.7777H68Z" fill="white"/>
<path d="M79.1983 43.6222C78.9259 40.9769 76.8213 38.8723 74.176 38.5999V39.2396C76.5159 39.4995 78.2491 41.3318 78.5009 43.6222H79.1983Z" fill="white"/>
<path d="M73.0223 38.5999C70.377 38.8723 68.2724 40.9769 68 43.6222H68.6974C68.945 41.3277 70.6824 39.4995 73.0223 39.2396V38.5999Z" fill="white"/>
</g>
</g>
<defs>
<linearGradient id="paint0_linear_4590_304902" x1="14.4" y1="12.5975" x2="58.5401" y2="12.5975" gradientUnits="userSpaceOnUse">
<stop stop-color="#2F5711"/>
<stop offset="0.427083" stop-color="#78CA11"/>
<stop offset="0.713542" stop-color="#D0E54C"/>
<stop offset="1" stop-color="#2F5711"/>
</linearGradient>
<linearGradient id="paint1_linear_4590_304902" x1="43.2" y1="31.3964" x2="76.7999" y2="31.3964" gradientUnits="userSpaceOnUse">
<stop stop-color="#2F5711"/>
<stop offset="0.427083" stop-color="#78CA11"/>
<stop offset="0.713542" stop-color="#D0E54C"/>
<stop offset="1" stop-color="#2F5711"/>
</linearGradient>
<clipPath id="clip0_4590_304902">
<rect y="15.4" width="32" height="32" fill="white"/>
</clipPath>
<clipPath id="clip1_4590_304902">
<rect x="44.8" y="16.2" width="30.4" height="30.4" fill="white"/>
</clipPath>
<clipPath id="clip2_4590_304902">
<rect width="11.2" height="11.2" fill="white" transform="translate(68 38.5999)"/>
</clipPath>
<clipPath id="clip3_4590_304902">
<rect width="11.2" height="11.2" fill="white" transform="translate(68 38.5999)"/>
</clipPath>
</defs>
</svg>
