<svg width="31" height="16" viewBox="0 0 31 16" fill="none" xmlns="http://www.w3.org/2000/svg">
<path d="M0.448975 5.3944C1.15878 6.00748 2.79133 7.23363 5.06271 7.23363C7.54703 7.23363 8.96665 2.94208 11.0961 1.40939C13.2255 -0.123302 15.3549 1.10286 16.7745 2.94209C18.1941 4.78132 18.549 5.70093 19.9686 5.70093C21.5501 5.70093 23.1628 3.24862 24.2275 2.32901C25.2922 1.4094 27.0667 1.4094 28.1314 2.02247C28.974 2.50763 29.3193 2.9976 29.551 3.52759" stroke="white"/>
<path d="M11.3233 1.11301C12.2892 0.417753 13.2152 0.362119 14.0671 0.663114C14.9503 0.975183 15.7884 1.68525 16.4792 2.58026C16.7372 2.9145 16.9585 3.21643 17.1599 3.49124C17.2335 3.59171 17.3046 3.68877 17.3738 3.78225C17.6287 4.12691 17.8612 4.42919 18.0989 4.67559C18.3386 4.92403 18.5954 5.12839 18.9061 5.26841C19.2201 5.4099 19.5666 5.4756 19.9686 5.4756C20.4698 5.4756 20.9402 5.28237 21.3598 5.01972C21.7819 4.75546 22.1856 4.40012 22.5595 4.02925C22.8931 3.69827 23.2134 3.34434 23.5077 3.0191L23.6147 2.90093C23.9432 2.53851 24.2303 2.22825 24.4784 2.01389C25.4082 1.21086 26.9917 1.20277 27.9345 1.74566C28.5459 2.0977 28.8583 2.44113 29.0636 2.79455C29.1256 2.90129 29.1777 3.00771 29.2249 3.11666L29.551 15.5102H0.448975V5.28859C1.27904 5.95624 2.88872 7.0083 5.06271 7.0083C5.81149 7.0083 6.44958 6.68321 6.99943 6.22872C7.54795 5.77532 8.04381 5.1643 8.5119 4.52897C8.71926 4.24752 8.91724 3.96713 9.1133 3.68947C9.37335 3.32116 9.63003 2.95764 9.90071 2.60282C10.3679 1.99042 10.8326 1.46618 11.3233 1.11301Z" fill="url(#paint0_linear_4510_9422)" fill-opacity="0.7"/>
<defs>
<linearGradient id="paint0_linear_4510_9422" x1="15" y1="0.489807" x2="15" y2="15.5102" gradientUnits="userSpaceOnUse">
<stop stop-color="white"/>
<stop offset="1" stop-color="white" stop-opacity="0"/>
</linearGradient>
</defs>
</svg>
