<svg width="81" height="52" viewBox="0 0 81 52" fill="none" xmlns="http://www.w3.org/2000/svg">
<path d="M14.4 24.2C14.4 11.387 24.787 1 37.6 1C46.8323 1 54.805 6.39271 58.5401 14.2" stroke="url(#paint0_linear_4420_278026)" stroke-width="1.2"/>
<g clip-path="url(#clip0_4420_278026)">
<path d="M31.5196 35.2702C29.3826 43.8417 20.7011 49.0582 12.1286 46.9207C3.55962 44.7837 -1.65688 36.1017 0.481122 27.5307C2.61712 18.9582 11.2986 13.7412 19.8686 15.8782C28.4406 18.0152 33.6566 26.6982 31.5196 35.2702Z" fill="#F7931A"/>
<path d="M23.0547 29.1204C23.3732 26.9914 21.7522 25.8469 19.5357 25.0834L20.2547 22.1994L18.4992 21.7619L17.7992 24.5699C17.3377 24.4549 16.8637 24.3464 16.3927 24.2389L17.0977 21.4124L15.3432 20.9749L14.6237 23.8579C14.2417 23.7709 13.8667 23.6849 13.5027 23.5944L13.5047 23.5854L11.0837 22.9809L10.6167 24.8559C10.6167 24.8559 11.9192 25.1544 11.8917 25.1729C12.6027 25.3504 12.7312 25.8209 12.7097 26.1939L11.8907 29.4794C11.9397 29.4919 12.0032 29.5099 12.0732 29.5379C12.0147 29.5234 11.9522 29.5074 11.8877 29.4919L10.7397 34.0944C10.6527 34.3104 10.4322 34.6344 9.93516 34.5114C9.95266 34.5369 8.65916 34.1929 8.65916 34.1929L7.78766 36.2024L10.0722 36.7719C10.4972 36.8784 10.9137 36.9899 11.3237 37.0949L10.5972 40.0119L12.3507 40.4494L13.0702 37.5634C13.5492 37.6934 14.0142 37.8134 14.4692 37.9264L13.7522 40.7989L15.5077 41.2364L16.2342 38.3249C19.2277 38.8914 21.4787 38.6629 22.4262 35.9554C23.1897 33.7754 22.3882 32.5179 20.8132 31.6979C21.9602 31.4334 22.8242 30.6789 23.0547 29.1204ZM19.0437 34.7449C18.5012 36.9249 14.8307 35.7464 13.6407 35.4509L14.6047 31.5864C15.7947 31.8834 19.6107 32.4714 19.0437 34.7449ZM19.5867 29.0889C19.0917 31.0719 16.0367 30.0644 15.0457 29.8174L15.9197 26.3124C16.9107 26.5594 20.1022 27.0204 19.5867 29.0889Z" fill="white"/>
</g>
<path d="M3.59996 44.6998C3.59996 41.5518 6.15194 38.9998 9.29996 38.9998H22.9C26.048 38.9998 28.6 41.5518 28.6 44.6998C28.6 47.8478 26.048 50.3998 22.9 50.3998H9.29996C6.15193 50.3998 3.59996 47.8478 3.59996 44.6998Z" fill="white"/>
<path d="M3.59996 44.6998C3.59996 41.5518 6.15194 38.9998 9.29996 38.9998H22.9C26.048 38.9998 28.6 41.5518 28.6 44.6998C28.6 47.8478 26.048 50.3998 22.9 50.3998H9.29996C6.15193 50.3998 3.59996 47.8478 3.59996 44.6998Z" stroke="#EFEFEF" stroke-width="0.4"/>
<path d="M10.1648 48.3248C9.24265 48.3248 8.52505 48.0128 8.01199 47.3888C7.49892 46.7578 7.24239 45.8322 7.24239 44.612C7.24239 43.3917 7.49892 42.4557 8.01199 41.804C8.52505 41.1453 9.24265 40.816 10.1648 40.816C10.7749 40.816 11.2845 40.9546 11.6936 41.232C12.1096 41.5093 12.432 41.901 12.6608 42.4072L11.9536 42.8336C11.808 42.4592 11.5861 42.161 11.288 41.9392C10.9899 41.7104 10.6155 41.596 10.1648 41.596C9.85279 41.596 9.57199 41.6549 9.32239 41.7728C9.07972 41.8906 8.87172 42.0605 8.69839 42.2824C8.53199 42.4973 8.40372 42.7573 8.31359 43.0624C8.22345 43.3605 8.17839 43.6968 8.17839 44.0712V45.1528C8.17839 45.9016 8.35172 46.4874 8.69839 46.9104C9.04505 47.3333 9.53385 47.5448 10.1648 47.5448C10.6293 47.5448 11.0176 47.4269 11.3296 47.1912C11.6416 46.9485 11.8704 46.6296 12.016 46.2344L12.7128 46.6712C12.484 47.1842 12.1547 47.5898 11.7248 47.888C11.2949 48.1792 10.7749 48.3248 10.1648 48.3248ZM14.0762 48.2V40.9408H18.5066V41.7104H14.9498V44.144H18.2986V44.9136H14.9498V47.4304H18.5066V48.2H14.0762ZM25.3082 48.2H24.2578L22.3546 45.1528H22.3338L20.4306 48.2H19.4322L21.8034 44.508L19.4946 40.9408H20.545L22.365 43.832H22.3858L24.2474 40.9408H25.2458L22.9162 44.4768L25.3082 48.2Z" fill="#232521"/>
<rect x="42.6" y="13.9999" width="34.8" height="34.8" rx="17.4" stroke="url(#paint1_linear_4420_278026)" stroke-width="1.2"/>
<g clip-path="url(#clip1_4420_278026)">
<path d="M74.7437 35.077C72.7135 43.2199 64.4661 48.1756 56.3222 46.1449C48.1817 44.1148 43.226 35.8669 45.2571 27.7244C47.2863 19.5806 55.5337 14.6244 63.6752 16.6546C71.8186 18.6847 76.7738 26.9336 74.7437 35.077Z" fill="#F7931A"/>
<path d="M66.7019 29.2346C67.0045 27.212 65.4645 26.1247 63.3588 25.3994L64.0419 22.6596L62.3742 22.244L61.7092 24.9116C61.2707 24.8023 60.8204 24.6993 60.373 24.5971L61.0427 21.912L59.376 21.4963L58.6924 24.2352C58.3295 24.1525 57.9733 24.0708 57.6275 23.9849L57.6294 23.9763L55.3294 23.402L54.8858 25.1833C54.8858 25.1833 56.1232 25.4669 56.097 25.4844C56.7725 25.6531 56.8946 26.1 56.8741 26.4544L56.0961 29.5756C56.1426 29.5875 56.203 29.6046 56.2695 29.6312C56.2139 29.6174 56.1545 29.6022 56.0932 29.5875L55.0026 33.9599C54.92 34.1651 54.7105 34.4729 54.2384 34.356C54.255 34.3802 53.0262 34.0534 53.0262 34.0534L52.1982 35.9625L54.3685 36.5035C54.7723 36.6047 55.1679 36.7106 55.5574 36.8103L54.8673 39.5815L56.5331 39.9971L57.2166 37.2554C57.6717 37.3789 58.1134 37.4929 58.5457 37.6003L57.8645 40.3291L59.5322 40.7448L60.2224 37.9788C63.0662 38.517 65.2047 38.2999 66.1048 35.7278C66.8301 33.6568 66.0687 32.4622 64.5725 31.6832C65.6621 31.4319 66.4829 30.7151 66.7019 29.2346ZM62.8914 34.5778C62.3761 36.6488 58.8891 35.5293 57.7586 35.2485L58.6744 31.5773C59.8049 31.8594 63.4301 32.418 62.8914 34.5778ZM63.4073 29.2046C62.937 31.0885 60.0348 30.1314 59.0933 29.8967L59.9236 26.567C60.8651 26.8016 63.897 27.2396 63.4073 29.2046Z" fill="white"/>
</g>
<path d="M66.6 44.2C66.6 40.334 69.734 37.2 73.6 37.2C77.466 37.2 80.6 40.334 80.6 44.2C80.6 48.066 77.466 51.2 73.6 51.2C69.734 51.2 66.6 48.066 66.6 44.2Z" fill="white"/>
<path d="M66.6 44.2C66.6 40.334 69.734 37.2 73.6 37.2C77.466 37.2 80.6 40.334 80.6 44.2C80.6 48.066 77.466 51.2 73.6 51.2C69.734 51.2 66.6 48.066 66.6 44.2Z" stroke="#DFE0DE" stroke-width="0.4"/>
<g clip-path="url(#clip2_4420_278026)">
<g clip-path="url(#clip3_4420_278026)">
<path d="M72.6374 43.383L72.9923 44.4312H72.1917L72.5672 43.383H72.6374ZM74.5522 44.9924H73.9662V45.1987H75.4106V44.9924H74.8328V43.3417H75.4106V43.1354H73.9662V43.3417H74.5522V44.9924ZM71.9152 45.1987L72.1133 44.6458H73.0666L73.2523 45.1987H73.5577L72.8148 43.1354H72.3939L71.6387 45.1987H71.9152ZM76.5619 47.1631H70.6359V41.2371H76.5619V47.1631Z" fill="black"/>
<path d="M74.176 49.7996C76.8213 49.5272 78.9259 47.4226 79.1983 44.7773H78.5009C78.2533 47.0718 76.5159 48.9 74.176 49.16V49.7996Z" fill="black"/>
<path d="M68 44.7776C68.2724 47.4228 70.377 49.5275 73.0223 49.7998V49.1602C70.6824 48.9002 68.9492 47.0679 68.6974 44.7776H68Z" fill="black"/>
<path d="M79.1983 43.6221C78.9259 40.9769 76.8213 38.8722 74.176 38.5999V39.2395C76.5159 39.4995 78.2491 41.3318 78.5009 43.6221H79.1983Z" fill="black"/>
<path d="M73.0223 38.5999C70.377 38.8722 68.2724 40.9769 68 43.6221H68.6974C68.945 41.3276 70.6824 39.4995 73.0223 39.2395V38.5999Z" fill="black"/>
</g>
</g>
<defs>
<linearGradient id="paint0_linear_4420_278026" x1="14.4" y1="12.5976" x2="58.5401" y2="12.5976" gradientUnits="userSpaceOnUse">
<stop stop-color="#2F5711"/>
<stop offset="0.427083" stop-color="#78CA11"/>
<stop offset="0.713542" stop-color="#D0E54C"/>
<stop offset="1" stop-color="#2F5711"/>
</linearGradient>
<linearGradient id="paint1_linear_4420_278026" x1="43.2" y1="31.3963" x2="76.7999" y2="31.3963" gradientUnits="userSpaceOnUse">
<stop stop-color="#2F5711"/>
<stop offset="0.427083" stop-color="#78CA11"/>
<stop offset="0.713542" stop-color="#D0E54C"/>
<stop offset="1" stop-color="#2F5711"/>
</linearGradient>
<clipPath id="clip0_4420_278026">
<rect y="15.3999" width="32" height="32" fill="white"/>
</clipPath>
<clipPath id="clip1_4420_278026">
<rect x="44.8" y="16.2" width="30.4" height="30.4" fill="white"/>
</clipPath>
<clipPath id="clip2_4420_278026">
<rect width="11.2" height="11.2" fill="white" transform="translate(68 38.5999)"/>
</clipPath>
<clipPath id="clip3_4420_278026">
<rect width="11.2" height="11.2" fill="white" transform="translate(68 38.5999)"/>
</clipPath>
</defs>
</svg>
