<svg width="140" height="140" viewBox="0 0 140 140" fill="none" xmlns="http://www.w3.org/2000/svg">
<g opacity="0.45">
<path d="M70.8606 32.1999L65.2606 33.4922L65.1529 32.9538C64.9376 31.9845 64.8299 31.2307 64.9376 30.5845C65.0453 29.9384 65.2606 29.2922 65.5837 28.7538C65.9068 28.1076 66.6606 27.0307 67.9529 25.523C68.5991 24.6614 68.9222 24.0153 68.7068 23.4768C68.5991 22.9384 68.276 22.5076 67.9529 22.2922C67.5222 22.0768 67.0914 21.9691 66.3376 22.1845C65.5837 22.2922 65.1529 22.723 64.7222 23.2614C64.3991 23.7999 64.2914 24.6614 64.3991 25.9537L58.476 26.4922C58.1529 24.3384 58.5837 22.3999 59.6606 20.8922C60.7376 19.2768 62.676 18.1999 65.3683 17.5537C67.5222 17.0153 69.353 17.123 70.8606 17.7691C72.9068 18.6307 74.1991 20.0307 74.6299 22.0768C74.8453 22.9384 74.7376 23.7999 74.5222 24.6614C74.1991 25.523 73.4453 26.7076 72.2606 28.2153C71.3991 29.1845 70.9683 30.0461 70.7529 30.5845C70.6453 30.7999 70.6453 31.4461 70.8606 32.1999ZM65.3683 34.9999L71.3991 33.5999L72.5837 38.9845L66.5529 40.3845L65.3683 34.9999Z" fill="#7A7A7A"/>
</g>
<g opacity="0.45">
<path d="M111.905 64.7694L99.477 60.9922L99.8426 59.7738C100.452 57.7025 101.183 55.9967 102.158 54.9001C103.01 53.6817 104.107 52.707 105.325 51.9759C106.544 51.123 109.346 49.9046 113.367 48.1988C115.56 47.3459 116.779 46.2493 117.144 45.0309C117.51 43.8125 117.388 42.8377 116.901 41.863C116.413 41.0101 115.438 40.279 113.976 39.9135C112.392 39.4261 111.052 39.548 109.712 40.279C108.372 41.0101 107.153 42.594 106.178 45.0309L93.9941 39.6698C95.8218 35.1617 98.6242 31.8719 102.401 29.9224C106.178 27.973 111.174 27.8511 117.266 29.6788C122.018 31.1409 125.551 33.2122 127.866 36.1364C131.034 40.0354 131.887 44.178 130.547 48.5643C129.938 50.392 128.963 52.0978 127.379 53.438C125.795 54.9001 123.114 56.3622 119.216 57.8243C116.535 58.9209 114.707 59.8957 113.854 60.7486C113.123 61.8451 112.514 63.1854 111.905 64.7694ZM98.1368 64.282L111.418 68.3028L107.884 79.9997L94.6034 75.9789L98.1368 64.282Z" fill="#7A7A7A"/>
</g>
<g opacity="0.45">
<path fill-rule="evenodd" clip-rule="evenodd" d="M18.1724 90.5091C18.3083 91.2843 18.4507 92.0625 18.5986 92.8415L18.7385 93.5783L17.2654 93.8613L17.1255 93.1245C16.9763 92.3388 16.8326 91.5537 16.6955 90.7711C16.5705 90.0579 16.4504 89.3443 16.3352 88.6317L16.2154 87.8913L17.6956 87.6487L17.8154 88.3891C17.9296 89.0955 18.0486 89.8026 18.1724 90.5091ZM15.7964 85.0858L15.6941 84.3428C15.4939 82.8899 15.3124 81.4526 15.1477 80.0429L15.0606 79.2978L16.55 79.1208L16.637 79.8658C16.8006 81.2661 16.9808 82.6931 17.1795 84.135L17.2819 84.878L15.7964 85.0858ZM19.3846 96.7595L19.5423 97.4926C19.8782 99.0546 20.2295 100.604 20.5886 102.124L20.761 102.854L19.3017 103.202L19.1294 102.472C18.7681 100.943 18.4146 99.3838 18.0764 97.8111L17.9187 97.0779L19.3846 96.7595ZM14.7587 76.4803L14.6855 75.7338C14.5391 74.2403 14.4114 72.796 14.3001 71.4175L14.2397 70.6698L15.7343 70.546L15.7947 71.2938C15.9054 72.6644 16.0323 74.1 16.1778 75.5844L16.251 76.331L14.7587 76.4803ZM21.5366 106.011L21.7217 106.738C22.1278 108.333 22.5341 109.873 22.9305 111.334L23.1268 112.058L21.6796 112.454L21.4833 111.73C21.0851 110.261 20.6768 108.714 20.2686 107.111L20.0836 106.384L21.5366 106.011ZM14.0351 67.8451L13.987 67.0965C13.9386 66.3427 13.8955 65.6214 13.8571 64.9363C13.7897 63.7334 13.9341 62.5629 14.2615 61.4633L14.4757 60.7439L15.9127 61.1698L15.6985 61.8892C15.4201 62.8243 15.2966 63.8213 15.3542 64.8494C15.3924 65.5305 15.4352 66.2478 15.4834 66.9973L15.5315 67.7459L14.0351 67.8451ZM24.0011 115.191L24.2079 115.912C24.4382 116.715 24.6599 117.477 24.8705 118.191C25.1204 119.039 25.5171 119.802 26.0254 120.461L26.483 121.055L25.2952 121.973L24.8376 121.379C24.2177 120.575 23.7352 119.647 23.4322 118.618C23.2206 117.9 22.9979 117.135 22.7666 116.329L22.5598 115.608L24.0011 115.191ZM29.5748 122.927L30.312 123.062C31.135 123.213 31.9991 123.222 32.8702 123.067L33.6086 122.936L33.8676 124.413L33.1291 124.544C32.0798 124.731 31.0355 124.721 30.0386 124.538L29.3014 124.402L29.5748 122.927ZM17.7249 56.3343L18.3468 55.9141C19.2963 55.2726 20.3653 54.7796 21.5237 54.4715C22.355 54.2504 23.2396 54.0169 24.1688 53.7737L24.8945 53.5838L25.2712 55.0355L24.5455 55.2254C23.6184 55.468 22.7357 55.7011 21.9062 55.9217C20.9111 56.1863 19.9956 56.6089 19.1842 57.1572L18.5623 57.5774L17.7249 56.3343ZM28.7463 52.5926L29.4735 52.4088C31.1821 51.9769 32.9665 51.5337 34.7898 51.0914L35.5187 50.9146L35.8693 52.3729L35.1403 52.5497C33.3222 52.9907 31.5426 53.4327 29.8381 53.8636L29.1108 54.0474L28.7463 52.5926ZM39.3903 49.9985L40.1213 49.8303C41.9119 49.4183 43.7063 49.0182 45.4718 48.6408L46.2053 48.484L46.5158 49.9514L45.7823 50.1082C44.0255 50.4837 42.2388 50.8822 40.4546 51.2926L39.7236 51.4608L39.3903 49.9985ZM50.1125 47.6901L50.8493 47.5498C51.7699 47.3744 52.6717 47.2094 53.5493 47.0566C54.2987 46.9261 55.0589 46.799 55.8272 46.6752L56.5676 46.5559L56.8031 48.0374L56.0627 48.1567C55.3003 48.2795 54.5463 48.4056 53.8036 48.5349C52.9346 48.6862 52.0406 48.8498 51.1269 49.0238L50.3901 49.1642L50.1125 47.6901ZM59.6506 46.0933L60.3933 45.989C61.9139 45.7755 63.4451 45.5741 64.9672 45.3846L65.7114 45.292L65.8936 46.7811L65.1494 46.8737C63.6342 47.0623 62.1108 47.2626 60.5988 47.475L59.8561 47.5793L59.6506 46.0933ZM68.8016 44.9285L69.5469 44.8455C71.1144 44.6709 72.65 44.5094 74.1309 44.3609L74.877 44.286L75.0237 45.7791L74.2775 45.8539C72.8016 46.0019 71.2715 46.1628 69.7099 46.3368L68.9647 46.4198L68.8016 44.9285ZM77.9723 43.9912L78.7192 43.9237C79.5136 43.8519 80.2799 43.7846 81.0132 43.7218C82.3543 43.6069 83.6595 43.7509 84.8791 44.1144L85.5972 44.3285L85.1666 45.7667L84.4484 45.5526C83.4062 45.2419 82.2893 45.1182 81.1383 45.2168C80.4072 45.2795 79.6432 45.3466 78.8512 45.4182L78.1043 45.4857L77.9723 43.9912ZM90.5081 48.1673L90.892 48.811C91.5432 49.9031 92.0083 51.1294 92.2396 52.4491L92.6722 54.9177L91.1953 55.1797L90.7626 52.7111C90.5633 51.5735 90.163 50.5193 89.604 49.5818L89.2201 48.9381L90.5081 48.1673ZM92.8433 60.2381C92.4354 60.3105 92.0468 60.0384 91.9753 59.6304L91.5427 57.1618L93.0196 56.8998L93.4523 59.3684C93.5238 59.7764 93.2511 60.1658 92.8433 60.2381Z" fill="#7A7A7A"/>
<path fill-rule="evenodd" clip-rule="evenodd" d="M24.7142 116.275L24.6373 115.529C24.5577 114.756 24.561 113.961 24.6557 113.153L25.0275 109.98L26.5168 110.152L26.145 113.325C26.0631 114.024 26.0605 114.709 26.1288 115.372L26.2057 116.118L24.7142 116.275ZM27.0403 118.576L27.4331 119.214C28.1509 120.38 29.1226 121.374 30.2706 122.114L30.9003 122.52L30.0863 123.782L29.4567 123.376C28.1202 122.514 26.9904 121.359 26.1558 120.002L25.7631 119.364L27.0403 118.576ZM25.4218 106.616L26.1654 100.271L27.6547 100.443L26.911 106.788L25.4218 106.616ZM26.5597 96.9069L26.9315 93.7342C27.0681 92.5686 27.3896 91.4582 27.8671 90.4346L28.1844 89.7543L29.5429 90.3867L29.2256 91.0671C28.8151 91.9472 28.5384 92.9022 28.4208 93.9061L28.0489 97.0788L26.5597 96.9069ZM33.3363 123.398L34.0807 123.486C34.7412 123.564 35.4248 123.57 36.1242 123.496C36.9591 123.408 37.8235 123.316 38.713 123.22L39.4586 123.139L39.6166 124.631L38.8711 124.711C37.9803 124.808 37.1146 124.9 36.2786 124.988C35.4684 125.074 34.6732 125.067 33.9024 124.976L33.158 124.888L33.3363 123.398ZM31.8516 85.8627L32.5118 85.5058C33.5049 84.9689 34.5938 84.5825 35.7487 84.3776L39.0693 83.7886L39.3283 85.266L36.0077 85.8551C35.013 86.0316 34.0764 86.364 33.2225 86.8257L32.5623 87.1826L31.8516 85.8627ZM43.1488 122.731L43.8939 122.647C45.5761 122.456 47.3098 122.255 49.0722 122.045L49.8169 121.956L49.9915 123.446L49.2468 123.535C47.4812 123.745 45.7445 123.947 44.0598 124.138L43.3146 124.222L43.1488 122.731ZM42.7567 83.1344L49.3979 81.9563L49.6568 83.4338L43.0156 84.6119L42.7567 83.1344ZM53.5017 121.504L54.2457 121.41C55.9686 121.193 57.6976 120.968 59.4125 120.737L60.1558 120.636L60.3531 122.124L59.6099 122.224C57.8903 122.456 56.1572 122.681 54.4305 122.899L53.6865 122.993L53.5017 121.504ZM53.0852 81.3021L59.7264 80.124L59.9853 81.6015L53.3441 82.7796L53.0852 81.3021ZM63.8297 120.122L64.5718 120.014C66.3343 119.757 68.0578 119.494 69.7186 119.227L70.459 119.108L70.6943 120.589L69.9538 120.709C68.2848 120.977 66.5539 121.241 64.7852 121.499L64.0431 121.607L63.8297 120.122ZM63.4137 79.4699L70.0549 78.2917L70.3139 79.7692L63.6727 80.9473L63.4137 79.4699ZM74.1067 118.484L74.8443 118.348C75.7256 118.186 76.5758 118.023 77.3902 117.859C78.1675 117.702 78.9383 117.544 79.7017 117.384L80.4357 117.23L80.7407 118.698L80.0066 118.852C79.2393 119.013 78.4645 119.173 77.683 119.33C76.8595 119.496 76.0011 119.66 75.1127 119.824L74.375 119.959L74.1067 118.484ZM73.7422 77.6376L77.0628 77.0485C77.9852 76.8849 78.8597 76.5864 79.6654 76.1737L80.3333 75.8316L81.0144 77.1671L80.3465 77.5092C79.4096 77.989 78.393 78.3359 77.3218 78.526L74.0012 79.115L73.7422 77.6376ZM83.5817 116.543L84.3132 116.378C85.8912 116.021 87.4261 115.661 88.9089 115.302L89.638 115.126L89.9874 116.585L89.2583 116.761C87.7687 117.121 86.2267 117.483 84.6411 117.842L83.9096 118.007L83.5817 116.543ZM83.2027 73.046L83.5646 72.3882C84.0013 71.5948 84.326 70.7291 84.5174 69.8115L84.8275 68.325L86.2953 68.6289L85.9852 70.1154C85.7629 71.1811 85.3855 72.1875 84.8778 73.1101L84.5158 73.7679L83.2027 73.046ZM92.7629 114.347L93.4894 114.16C95.1024 113.746 96.6288 113.341 98.054 112.954L98.7779 112.757L99.1683 114.205L98.4444 114.402C97.0129 114.791 95.4796 115.198 93.8595 115.614L93.133 115.8L92.7629 114.347ZM84.8346 68.2909L85.1448 66.8045C85.3671 65.7387 85.7445 64.7324 86.2522 63.8097L86.6142 63.152L87.9273 63.8739L87.5653 64.5316C87.1287 65.325 86.804 66.1907 86.6126 67.1084L86.3024 68.5949L84.8346 68.2909ZM90.1156 59.7528L90.7835 59.4107C91.7204 58.9308 92.737 58.5839 93.8082 58.3939L95.9269 58.018L96.1859 59.4955L94.0671 59.8714C93.1448 60.035 92.2703 60.3335 91.4646 60.7462L90.7966 61.0883L90.1156 59.7528ZM101.879 111.891L102.6 111.683C103.414 111.45 104.17 111.229 104.864 111.023C105.598 110.806 106.287 110.498 106.916 110.112L107.556 109.72L108.338 110.999L107.698 111.391C106.955 111.846 106.146 112.208 105.287 112.462C104.589 112.669 103.829 112.891 103.011 113.126L102.29 113.333L101.879 111.891ZM97.2104 57.7903L99.3291 57.4145C99.737 57.3421 100.126 57.6142 100.197 58.0222C100.269 58.4302 99.9959 58.8196 99.5881 58.8919L97.4694 59.2678L97.2104 57.7903ZM109.587 107.536L109.926 106.866C110.257 106.211 110.501 105.503 110.643 104.753C110.783 104.014 110.928 103.204 111.074 102.331L111.197 101.591L112.676 101.835L112.553 102.576C112.405 103.46 112.258 104.28 112.116 105.03C111.948 105.919 111.658 106.762 111.264 107.541L110.925 108.211L109.587 107.536ZM111.693 98.2017L111.787 97.4571C111.98 95.9288 112.158 94.2903 112.309 92.5586L112.373 91.811L113.867 91.938L113.802 92.6855C113.65 94.4378 113.47 96.0958 113.275 97.6423L113.181 98.3868L111.693 98.2017ZM112.602 88.3944L112.637 87.6449C112.675 86.8382 112.706 86.0174 112.728 85.1838C112.75 84.3466 112.763 83.5077 112.768 82.67L112.773 81.9198L114.273 81.9266L114.268 82.6769C114.262 83.5239 114.249 84.3728 114.227 85.2204C114.204 86.0646 114.173 86.8957 114.135 87.7122L114.1 88.4617L112.602 88.3944ZM112.734 78.3881L112.713 77.6382C112.666 75.9183 112.593 74.2317 112.503 72.6068L112.461 71.8578L113.958 71.7715L114 72.5205C114.091 74.158 114.165 75.8588 114.212 77.5943L114.233 78.3442L112.734 78.3881ZM112.22 68.3271L112.16 67.5794C112.089 66.7078 112.016 65.8694 111.942 65.0702C111.904 64.6576 112.208 64.2917 112.62 64.2527C113.032 64.2138 113.397 64.5166 113.436 64.9291C113.51 65.7339 113.583 66.5782 113.654 67.4559L113.714 68.2036L112.22 68.3271Z" fill="#7A7A7A"/>
</g>
</svg>
