<?xml version="1.0" encoding="UTF-8"?>
<svg xmlns="http://www.w3.org/2000/svg" xmlns:xlink="http://www.w3.org/1999/xlink" width="49px" height="49px" viewBox="0 0 49 49" version="1.1">
<defs>
<clipPath id="clip1">
  <path d="M 6 10 L 44 10 L 44 32.457031 L 6 32.457031 Z M 6 10 "/>
</clipPath>
<clipPath id="clip2">
  <path d="M 8.820312 0 L 40.179688 0 C 45.050781 0 49 3.949219 49 8.820312 L 49 40.179688 C 49 45.050781 45.050781 49 40.179688 49 L 8.820312 49 C 3.949219 49 0 45.050781 0 40.179688 L 0 8.820312 C 0 3.949219 3.949219 0 8.820312 0 Z M 8.820312 0 "/>
</clipPath>
<clipPath id="clip3">
  <path d="M 8 1.09375 L 42 1.09375 L 42 27 L 8 27 Z M 8 1.09375 "/>
</clipPath>
<clipPath id="clip4">
  <path d="M 8.820312 0 L 40.179688 0 C 45.050781 0 49 3.949219 49 8.820312 L 49 40.179688 C 49 45.050781 45.050781 49 40.179688 49 L 8.820312 49 C 3.949219 49 0 45.050781 0 40.179688 L 0 8.820312 C 0 3.949219 3.949219 0 8.820312 0 Z M 8.820312 0 "/>
</clipPath>
<clipPath id="clip5">
  <path d="M 10 3 L 19 3 L 19 12 L 10 12 Z M 10 3 "/>
</clipPath>
<clipPath id="clip6">
  <path d="M 8.820312 0 L 40.179688 0 C 45.050781 0 49 3.949219 49 8.820312 L 49 40.179688 C 49 45.050781 45.050781 49 40.179688 49 L 8.820312 49 C 3.949219 49 0 45.050781 0 40.179688 L 0 8.820312 C 0 3.949219 3.949219 0 8.820312 0 Z M 8.820312 0 "/>
</clipPath>
<clipPath id="clip7">
  <path d="M 31 3 L 40 3 L 40 12 L 31 12 Z M 31 3 "/>
</clipPath>
<clipPath id="clip8">
  <path d="M 8.820312 0 L 40.179688 0 C 45.050781 0 49 3.949219 49 8.820312 L 49 40.179688 C 49 45.050781 45.050781 49 40.179688 49 L 8.820312 49 C 3.949219 49 0 45.050781 0 40.179688 L 0 8.820312 C 0 3.949219 3.949219 0 8.820312 0 Z M 8.820312 0 "/>
</clipPath>
<clipPath id="clip9">
  <path d="M 0.972656 15 L 14 15 L 14 32 L 0.972656 32 Z M 0.972656 15 "/>
</clipPath>
<clipPath id="clip10">
  <path d="M 8.820312 0 L 40.179688 0 C 45.050781 0 49 3.949219 49 8.820312 L 49 40.179688 C 49 45.050781 45.050781 49 40.179688 49 L 8.820312 49 C 3.949219 49 0 45.050781 0 40.179688 L 0 8.820312 C 0 3.949219 3.949219 0 8.820312 0 Z M 8.820312 0 "/>
</clipPath>
<clipPath id="clip11">
  <path d="M 36 15 L 48.015625 15 L 48.015625 32 L 36 32 Z M 36 15 "/>
</clipPath>
<clipPath id="clip12">
  <path d="M 8.820312 0 L 40.179688 0 C 45.050781 0 49 3.949219 49 8.820312 L 49 40.179688 C 49 45.050781 45.050781 49 40.179688 49 L 8.820312 49 C 3.949219 49 0 45.050781 0 40.179688 L 0 8.820312 C 0 3.949219 3.949219 0 8.820312 0 Z M 8.820312 0 "/>
</clipPath>
<clipPath id="clip13">
  <path d="M 13 6 L 16 6 L 16 9 L 13 9 Z M 13 6 "/>
</clipPath>
<clipPath id="clip14">
  <path d="M 8.820312 0 L 40.179688 0 C 45.050781 0 49 3.949219 49 8.820312 L 49 40.179688 C 49 45.050781 45.050781 49 40.179688 49 L 8.820312 49 C 3.949219 49 0 45.050781 0 40.179688 L 0 8.820312 C 0 3.949219 3.949219 0 8.820312 0 Z M 8.820312 0 "/>
</clipPath>
<clipPath id="clip15">
  <path d="M 34 6 L 37 6 L 37 9 L 34 9 Z M 34 6 "/>
</clipPath>
<clipPath id="clip16">
  <path d="M 8.820312 0 L 40.179688 0 C 45.050781 0 49 3.949219 49 8.820312 L 49 40.179688 C 49 45.050781 45.050781 49 40.179688 49 L 8.820312 49 C 3.949219 49 0 45.050781 0 40.179688 L 0 8.820312 C 0 3.949219 3.949219 0 8.820312 0 Z M 8.820312 0 "/>
</clipPath>
<clipPath id="clip17">
  <path d="M 0 35 L 49 35 L 49 49 L 0 49 Z M 0 35 "/>
</clipPath>
<clipPath id="clip18">
  <path d="M 8.820312 0 L 40.179688 0 C 45.050781 0 49 3.949219 49 8.820312 L 49 40.179688 C 49 45.050781 45.050781 49 40.179688 49 L 8.820312 49 C 3.949219 49 0 45.050781 0 40.179688 L 0 8.820312 C 0 3.949219 3.949219 0 8.820312 0 Z M 8.820312 0 "/>
</clipPath>
</defs>
<g id="surface1">
<g clip-path="url(#clip1)" clip-rule="nonzero">
<g clip-path="url(#clip2)" clip-rule="nonzero">
<path style=" stroke:none;fill-rule:nonzero;fill:rgb(29.411765%,68.627451%,45.490196%);fill-opacity:1;" d="M 43.359375 22.738281 C 43.359375 29.644531 35.144531 32.453125 24.945312 32.453125 C 14.746094 32.453125 6.410156 29.644531 6.410156 22.738281 C 6.410156 15.832031 14.683594 10.246094 24.882812 10.246094 C 35.082031 10.246094 43.359375 15.84375 43.359375 22.738281 Z M 43.359375 22.738281 "/>
</g>
</g>
<g clip-path="url(#clip3)" clip-rule="nonzero">
<g clip-path="url(#clip4)" clip-rule="nonzero">
<path style=" stroke:none;fill-rule:nonzero;fill:rgb(19.607843%,85.490196%,42.745098%);fill-opacity:1;" d="M 41.484375 7.703125 C 41.484375 4.066406 38.589844 1.113281 35.027344 1.113281 C 33.019531 1.113281 31.222656 2.054688 30.039062 3.515625 C 28.425781 3.152344 26.703125 2.945312 24.921875 2.945312 C 23.140625 2.945312 21.417969 3.140625 19.804688 3.515625 C 18.609375 2.054688 16.816406 1.113281 14.820312 1.113281 C 11.253906 1.113281 8.363281 4.066406 8.363281 7.703125 C 8.363281 8.898438 8.671875 10.007812 9.210938 10.972656 C 8.695312 12.09375 8.421875 13.292969 8.421875 14.535156 C 8.421875 20.941406 15.8125 26.128906 24.921875 26.128906 C 34.035156 26.128906 41.421875 20.941406 41.421875 14.535156 C 41.421875 13.292969 41.148438 12.09375 40.632812 10.972656 C 41.171875 10.007812 41.484375 8.898438 41.484375 7.703125 Z M 41.484375 7.703125 "/>
</g>
</g>
<g clip-path="url(#clip5)" clip-rule="nonzero">
<g clip-path="url(#clip6)" clip-rule="nonzero">
<path style=" stroke:none;fill-rule:nonzero;fill:rgb(100%,100%,100%);fill-opacity:1;" d="M 14.296875 11.367188 C 16.476562 11.367188 18.242188 9.566406 18.242188 7.339844 C 18.242188 5.117188 16.476562 3.316406 14.296875 3.316406 C 12.117188 3.316406 10.351562 5.117188 10.351562 7.339844 C 10.351562 9.566406 12.117188 11.367188 14.296875 11.367188 Z M 14.296875 11.367188 "/>
</g>
</g>
<g clip-path="url(#clip7)" clip-rule="nonzero">
<g clip-path="url(#clip8)" clip-rule="nonzero">
<path style=" stroke:none;fill-rule:nonzero;fill:rgb(100%,100%,100%);fill-opacity:1;" d="M 35.351562 11.367188 C 37.53125 11.367188 39.300781 9.566406 39.300781 7.339844 C 39.300781 5.117188 37.53125 3.316406 35.351562 3.316406 C 33.171875 3.316406 31.40625 5.117188 31.40625 7.339844 C 31.40625 9.566406 33.171875 11.367188 35.351562 11.367188 Z M 35.351562 11.367188 "/>
</g>
</g>
<g clip-path="url(#clip9)" clip-rule="nonzero">
<g clip-path="url(#clip10)" clip-rule="nonzero">
<path style=" stroke:none;fill-rule:nonzero;fill:rgb(19.607843%,85.490196%,42.745098%);fill-opacity:1;" d="M 12.191406 31.976562 C 13.039062 31.976562 13.710938 31.222656 13.613281 30.367188 C 13.265625 27.339844 11.796875 20.789062 5.328125 16.847656 C -3.28125 11.601562 3.535156 29.660156 3.535156 29.660156 L 1.753906 30.707031 C 1.15625 31.0625 1.40625 31.976562 2.085938 31.976562 Z M 12.191406 31.976562 "/>
</g>
</g>
<g clip-path="url(#clip11)" clip-rule="nonzero">
<g clip-path="url(#clip12)" clip-rule="nonzero">
<path style=" stroke:none;fill-rule:nonzero;fill:rgb(19.607843%,85.490196%,42.745098%);fill-opacity:1;" d="M 37.882812 31.976562 C 37.117188 31.976562 36.519531 31.222656 36.601562 30.367188 C 36.902344 27.351562 38.242188 20.789062 44.074219 16.847656 C 51.859375 11.601562 45.703125 29.660156 45.703125 29.660156 L 47.316406 30.707031 C 47.855469 31.0625 47.628906 31.976562 47.015625 31.976562 Z M 37.882812 31.976562 "/>
</g>
</g>
<g clip-path="url(#clip13)" clip-rule="nonzero">
<g clip-path="url(#clip14)" clip-rule="nonzero">
<path style=" stroke:none;fill-rule:nonzero;fill:rgb(5.098039%,5.098039%,5.098039%);fill-opacity:1;" d="M 14.304688 8.050781 C 14.703125 8.050781 15.023438 7.722656 15.023438 7.320312 C 15.023438 6.914062 14.703125 6.589844 14.304688 6.589844 C 13.910156 6.589844 13.589844 6.914062 13.589844 7.320312 C 13.589844 7.722656 13.910156 8.050781 14.304688 8.050781 Z M 14.304688 8.050781 "/>
</g>
</g>
<g clip-path="url(#clip15)" clip-rule="nonzero">
<g clip-path="url(#clip16)" clip-rule="nonzero">
<path style=" stroke:none;fill-rule:nonzero;fill:rgb(5.098039%,5.098039%,5.098039%);fill-opacity:1;" d="M 35.339844 8.050781 C 35.738281 8.050781 36.058594 7.722656 36.058594 7.320312 C 36.058594 6.914062 35.738281 6.589844 35.339844 6.589844 C 34.945312 6.589844 34.621094 6.914062 34.621094 7.320312 C 34.621094 7.722656 34.945312 8.050781 35.339844 8.050781 Z M 35.339844 8.050781 "/>
</g>
</g>
<g clip-path="url(#clip17)" clip-rule="nonzero">
<g clip-path="url(#clip18)" clip-rule="nonzero">
<path style=" stroke:none;fill-rule:nonzero;fill:rgb(67.45098%,29.411765%,100%);fill-opacity:1;" d="M 0 35.667969 L 49 35.667969 L 49 54.539062 L 0 54.539062 Z M 0 35.667969 "/>
</g>
</g>
</g>
</svg>
