<svg width="54" height="54" viewBox="0 0 54 54" fill="none" xmlns="http://www.w3.org/2000/svg">
<path d="M27 54C41.9117 54 54 41.9117 54 27C54 12.0883 41.9117 0 27 0C12.0883 0 0 12.0883 0 27C0 41.9117 12.0883 54 27 54Z" fill="#FCEAE7"/>
<path d="M39.9481 13.3201L28.5701 21.7707L30.6742 16.785L39.9481 13.3201Z" fill="#E2761B" stroke="#E2761B" stroke-linecap="round" stroke-linejoin="round"/>
<path d="M13.6814 13.3201L24.968 21.8508L22.9668 16.785L13.6814 13.3201Z" fill="#E4761B" stroke="#E4761B" stroke-linecap="round" stroke-linejoin="round"/>
<path d="M35.8543 32.9087L32.824 37.5513L39.3077 39.3354L41.1718 33.0116L35.8543 32.9087Z" fill="#E4761B" stroke="#E4761B" stroke-linecap="round" stroke-linejoin="round"/>
<path d="M12.4805 33.0116L14.333 39.3354L20.8168 37.5513L17.7864 32.9087L12.4805 33.0116Z" fill="#E4761B" stroke="#E4761B" stroke-linecap="round" stroke-linejoin="round"/>
<path d="M20.4515 25.064L18.6448 27.7971L25.0828 28.0829L24.8541 21.1646L20.4515 25.064Z" fill="#E4761B" stroke="#E4761B" stroke-linecap="round" stroke-linejoin="round"/>
<path d="M33.1785 25.064L28.7187 21.0845L28.5701 28.0829L34.9967 27.797L33.1785 25.064Z" fill="#E4761B" stroke="#E4761B" stroke-linecap="round" stroke-linejoin="round"/>
<path d="M20.8167 37.5513L24.6819 35.6646L21.3427 33.0574L20.8167 37.5513Z" fill="#E4761B" stroke="#E4761B" stroke-linecap="round" stroke-linejoin="round"/>
<path d="M28.9477 35.6646L32.8242 37.5513L32.2868 33.0574L28.9477 35.6646Z" fill="#E4761B" stroke="#E4761B" stroke-linecap="round" stroke-linejoin="round"/>
<path d="M32.8235 37.5512L28.947 35.6646L29.2557 38.1917L29.2214 39.2551L32.8235 37.5512Z" fill="#D7C1B3" stroke="#D7C1B3" stroke-linecap="round" stroke-linejoin="round"/>
<path d="M20.8167 37.5512L24.4188 39.2551L24.396 38.1917L24.6819 35.6646L20.8167 37.5512Z" fill="#D7C1B3" stroke="#D7C1B3" stroke-linecap="round" stroke-linejoin="round"/>
<path d="M24.476 31.3877L21.2512 30.4386L23.5269 29.3979L24.476 31.3877Z" fill="#233447" stroke="#233447" stroke-linecap="round" stroke-linejoin="round"/>
<path d="M29.1523 31.3877L30.1014 29.3979L32.3885 30.4386L29.1523 31.3877Z" fill="#233447" stroke="#233447" stroke-linecap="round" stroke-linejoin="round"/>
<path d="M20.8159 37.5513L21.3647 32.9087L17.7855 33.0116L20.8159 37.5513Z" fill="#CD6116" stroke="#CD6116" stroke-linecap="round" stroke-linejoin="round"/>
<path d="M32.2734 32.9087L32.8223 37.5513L35.8527 33.0116L32.2734 32.9087Z" fill="#CD6116" stroke="#CD6116" stroke-linecap="round" stroke-linejoin="round"/>
<path d="M34.996 27.7971L28.5694 28.083L29.164 31.3878L30.1131 29.3981L32.4002 30.4387L34.996 27.7971Z" fill="#CD6116" stroke="#CD6116" stroke-linecap="round" stroke-linejoin="round"/>
<path d="M21.2499 30.4387L23.537 29.3981L24.4747 31.3878L25.0808 28.083L18.6427 27.7971L21.2499 30.4387Z" fill="#CD6116" stroke="#CD6116" stroke-linecap="round" stroke-linejoin="round"/>
<path d="M18.6441 27.7971L21.3428 33.0574L21.2513 30.4387L18.6441 27.7971Z" fill="#E4751F" stroke="#E4751F" stroke-linecap="round" stroke-linejoin="round"/>
<path d="M32.4004 30.4387L32.2861 33.0574L34.9962 27.7971L32.4004 30.4387Z" fill="#E4751F" stroke="#E4751F" stroke-linecap="round" stroke-linejoin="round"/>
<path d="M25.0818 28.083L24.4758 31.3878L25.2305 35.2873L25.402 30.1528L25.0818 28.083Z" fill="#E4751F" stroke="#E4751F" stroke-linecap="round" stroke-linejoin="round"/>
<path d="M28.5695 28.083L28.2607 30.1413L28.3979 35.2873L29.1641 31.3878L28.5695 28.083Z" fill="#E4751F" stroke="#E4751F" stroke-linecap="round" stroke-linejoin="round"/>
<path d="M29.1647 31.3878L28.3986 35.2873L28.9475 35.6646L32.2866 33.0574L32.4009 30.4387L29.1647 31.3878Z" fill="#F6851B" stroke="#F6851B" stroke-linecap="round" stroke-linejoin="round"/>
<path d="M21.2512 30.4387L21.3427 33.0574L24.6818 35.6646L25.2307 35.2873L24.476 31.3878L21.2512 30.4387Z" fill="#F6851B" stroke="#F6851B" stroke-linecap="round" stroke-linejoin="round"/>
<path d="M29.2217 39.2551L29.256 38.1917L28.9701 37.9401H24.659L24.396 38.1917L24.4188 39.2551L20.8167 37.5513L22.0746 38.5805L24.6247 40.3531H29.0044L31.5659 38.5805L32.8238 37.5513L29.2217 39.2551Z" fill="#C0AD9E" stroke="#C0AD9E" stroke-linecap="round" stroke-linejoin="round"/>
<path d="M28.9469 35.6645L28.398 35.2871H25.2304L24.6815 35.6645L24.3956 38.1916L24.6586 37.94H28.9698L29.2556 38.1916L28.9469 35.6645Z" fill="#161616" stroke="#161616" stroke-linecap="round" stroke-linejoin="round"/>
<path d="M40.428 22.3196L41.4 17.654L39.9478 13.3201L28.947 21.4849L33.178 25.0641L39.1586 26.8137L40.4852 25.2699L39.9136 24.8583L40.8283 24.0235L40.1191 23.4746L41.0339 22.7771L40.428 22.3196Z" fill="#763D16" stroke="#763D16" stroke-linecap="round" stroke-linejoin="round"/>
<path d="M12.24 17.654L13.212 22.3196L12.5945 22.7771L13.5093 23.4746L12.8117 24.0235L13.7266 24.8583L13.1548 25.2699L14.4699 26.8137L20.4505 25.0641L24.6816 21.4849L13.6809 13.3201L12.24 17.654Z" fill="#763D16" stroke="#763D16" stroke-linecap="round" stroke-linejoin="round"/>
<path d="M39.1579 26.8136L33.1774 25.064L34.9956 27.797L32.2854 33.0572L35.8532 33.0115H41.1707L39.1579 26.8136Z" fill="#F6851B" stroke="#F6851B" stroke-linecap="round" stroke-linejoin="round"/>
<path d="M20.4509 25.064L14.4702 26.8136L12.4805 33.0115H17.7864L21.3428 33.0572L18.6441 27.797L20.4509 25.064Z" fill="#F6851B" stroke="#F6851B" stroke-linecap="round" stroke-linejoin="round"/>
<path d="M28.5695 28.083L28.9469 21.4848L30.685 16.7849H22.9662L24.6815 21.4848L25.0817 28.083L25.219 30.1642L25.2304 35.2872H28.398L28.4208 30.1642L28.5695 28.083Z" fill="#F6851B" stroke="#F6851B" stroke-linecap="round" stroke-linejoin="round"/>
</svg>
