<svg width="468" height="360" viewBox="0 0 468 360" fill="none" xmlns="http://www.w3.org/2000/svg">
<g opacity="0.25">
<path d="M265.123 122.584C264.907 122.907 264.8 123.122 264.584 123.445C264.907 123.661 265.338 123.768 265.661 123.984C272.446 127.537 278.261 131.522 282.892 135.722C291.292 143.368 295.492 151.553 293.446 158.661C293.446 158.661 293.446 158.661 293.446 158.768C291.615 165.23 284.615 169.968 273.953 172.122C273.738 172.122 273.63 172.122 273.415 172.23C272.877 172.337 272.23 172.445 271.692 172.553C271.477 172.553 271.261 172.661 271.046 172.661C270.507 172.768 270.077 172.768 269.538 172.876C269.215 172.876 268.784 172.984 268.461 172.984C267.815 173.091 267.169 173.091 266.523 173.199C266.2 173.199 265.984 173.199 265.661 173.307C264.8 173.307 264.046 173.414 263.184 173.414H262.861C262 173.414 261.246 173.522 260.384 173.522H260.169C259.307 173.522 258.446 173.522 257.477 173.522H257.369C256.4 173.522 255.43 173.522 254.569 173.414H254.461C253.492 173.414 252.523 173.307 251.554 173.199H251.446C250.477 173.091 249.507 172.984 248.538 172.876C248.43 172.876 248.43 172.876 248.323 172.876C247.354 172.768 246.492 172.661 245.523 172.553C245.415 172.553 245.307 172.553 245.2 172.553C244.338 172.445 243.477 172.337 242.615 172.122C242.4 172.122 242.184 172.014 241.969 172.014C241.215 171.907 240.461 171.799 239.815 171.584C239.492 171.476 239.169 171.476 238.738 171.368C238.2 171.261 237.554 171.153 237.015 171.045C236.477 170.937 236.046 170.83 235.507 170.722C235.184 170.614 234.754 170.614 234.43 170.507C233.784 170.291 233.03 170.184 232.277 169.968C230.338 169.537 228.292 168.999 226.354 168.353C223.338 167.491 220.323 166.522 217.523 165.445C217.523 165.445 217.415 165.445 217.415 165.337C216.554 165.014 215.692 164.691 214.83 164.368C214.723 164.368 214.615 164.261 214.507 164.261C213.646 163.937 212.892 163.614 212.138 163.291C212.03 163.184 211.923 163.184 211.815 163.184C211.061 162.861 210.307 162.537 209.554 162.214C209.23 161.999 209.123 161.999 209.015 161.999C208.261 161.676 207.4 161.245 206.646 160.922C206.538 160.922 206.43 160.814 206.43 160.814C205.569 160.384 204.815 159.953 203.954 159.63C202.877 159.091 201.907 158.553 200.938 158.014C197.923 156.399 195.23 154.676 192.646 152.845C192.43 152.737 192.323 152.63 192.107 152.414C191.677 152.091 191.138 151.768 190.707 151.445C190.277 151.122 189.954 150.907 189.523 150.584L189.415 150.476C189.307 150.368 189.2 150.261 189.092 150.261C189.092 150.261 189.092 150.261 188.984 150.153C183.923 146.168 180.154 141.968 177.677 137.876L177.569 137.768C177.569 137.768 177.569 137.768 177.569 137.661C174.769 132.922 173.907 128.291 175.092 124.307C177.138 117.199 185.215 112.245 197.815 110.414C201.369 109.876 205.138 109.661 209.123 109.661C219.354 109.661 230.769 111.384 242.184 114.722C246.384 115.907 250.369 117.307 254.138 118.814C254.246 118.491 254.461 118.168 254.569 117.845C250.692 116.337 246.6 114.83 242.4 113.645C226.354 109.014 210.415 107.399 197.6 109.337C184.569 111.276 176.169 116.445 174.015 123.984L171.861 131.522C170.569 135.83 171.538 140.676 174.338 145.63C174.338 145.63 174.338 145.63 174.338 145.737V145.845C175.738 148.107 177.569 150.476 179.723 152.845C181.446 154.676 183.492 156.507 185.754 158.337C185.754 158.553 185.861 158.768 186.184 158.876H186.292H186.4C189.415 161.245 192.861 163.507 196.523 165.661C196.523 165.876 196.738 166.091 196.954 166.091C197.061 166.091 197.061 166.091 197.061 166.091C197.169 166.091 197.169 166.091 197.277 165.984C205.03 170.399 214.184 174.168 223.661 176.968C235.292 180.414 246.815 182.137 257.154 182.137C265.446 182.137 272.877 181.061 278.907 178.691C281.384 177.722 283.646 176.645 285.369 175.353C285.369 175.353 285.477 175.245 285.584 175.245C285.584 175.245 285.584 175.245 285.692 175.137C288.923 172.768 291.077 169.861 292.046 166.63L294.2 159.307C294.2 159.199 294.307 159.091 294.307 159.091C297.754 147.568 285.477 133.137 265.123 122.584ZM172.83 131.737L173.477 129.368C173.477 129.476 173.477 129.584 173.477 129.799C173.477 129.907 173.477 129.907 173.477 130.014C173.8 132.599 174.769 135.291 176.384 137.984L174.554 144.122C172.292 139.599 171.646 135.507 172.83 131.737ZM175.415 145.307L177.246 139.061C178.538 140.999 180.046 142.937 181.877 144.876L180.046 151.23C178.107 149.291 176.6 147.245 175.415 145.307ZM186.077 157.153C184.03 155.537 182.307 153.922 180.8 152.307L182.63 145.953C184.246 147.568 185.969 149.184 187.907 150.691L186.077 157.153ZM196.954 164.476C193.4 162.43 190.061 160.168 187.046 157.799L188.984 151.337C192 153.707 195.338 155.861 198.892 157.907L196.954 164.476ZM197.923 165.014L199.861 158.553C202.877 160.276 206 161.784 209.338 163.291L207.4 169.861C204.061 168.353 200.83 166.737 197.923 165.014ZM208.369 170.291L210.307 163.83C214.4 165.661 218.707 167.276 223.23 168.676L221.292 175.245C216.769 173.737 212.461 172.014 208.369 170.291ZM224.092 175.999C223.446 175.784 222.907 175.568 222.261 175.461L224.2 168.891C224.738 169.107 225.384 169.214 226.03 169.43C227.43 169.861 228.83 170.184 230.23 170.614C230.338 170.614 230.554 170.722 230.769 170.722C231.954 171.045 233.138 171.261 234.215 171.584C234.538 171.691 234.754 171.691 235.077 171.799C236.261 172.014 237.554 172.337 238.738 172.553C239.061 172.661 239.492 172.661 239.815 172.768C240.461 172.876 241.215 172.984 241.861 173.091L239.923 179.661C234.754 178.799 229.477 177.507 224.092 175.999ZM241 179.768L242.938 173.307V173.199C243.477 173.307 243.907 173.307 244.446 173.414C244.984 173.522 245.523 173.522 246.061 173.63C246.815 173.737 247.569 173.845 248.215 173.845C248.538 173.845 248.861 173.953 249.292 173.953C250.692 174.061 252.2 174.168 253.6 174.276C253.923 174.276 254.354 174.276 254.784 174.384C255.43 174.384 256.184 174.384 256.83 174.491C257.369 174.491 257.8 174.491 258.338 174.491C258.984 174.491 259.63 174.491 260.277 174.491H260.923C261.138 174.491 261.354 174.491 261.569 174.491L259.63 181.061C253.6 181.168 247.461 180.737 241 179.768ZM270.938 179.876C267.707 180.522 264.261 180.845 260.6 181.061L262.538 174.599C262.646 174.599 262.861 174.599 262.969 174.599C263.292 174.599 263.615 174.599 263.938 174.599C264.477 174.599 265.123 174.599 265.661 174.491C266.092 174.491 266.63 174.384 267.061 174.384C267.492 174.384 267.923 174.276 268.354 174.276C268.892 174.276 269.323 174.168 269.861 174.061C270.292 174.061 270.723 173.953 271.046 173.845C271.261 173.845 271.584 173.737 271.8 173.737C272.123 173.737 272.446 173.63 272.877 173.522L270.938 179.876ZM278.369 177.83C276.43 178.584 274.277 179.122 272.123 179.661L273.953 173.199C274.277 173.091 274.6 173.091 274.923 172.984C275.354 172.876 275.784 172.768 276.323 172.661C276.538 172.661 276.754 172.553 276.969 172.445C277.4 172.337 277.83 172.23 278.261 172.122C278.907 171.907 279.661 171.691 280.307 171.476L278.369 177.83ZM284.938 174.491C283.43 175.568 281.707 176.537 279.661 177.399L281.492 171.153C283.43 170.399 285.154 169.537 286.661 168.568L284.938 174.491ZM291.83 164.045L291.184 166.414C290.43 168.999 288.815 171.368 286.446 173.414L288.061 167.922C288.061 167.814 288.061 167.707 288.061 167.707C289.461 166.522 290.861 165.337 291.83 164.045Z" fill="#7A7A7A"/>
</g>
<g opacity="0.4">
<path d="M263.4 167.924C261.677 168.139 259.954 168.247 258.123 168.247V169.755C259.954 169.755 261.784 169.539 263.507 169.432L263.4 167.924ZM247.677 167.816L247.569 169.324C249.4 169.539 251.123 169.647 252.846 169.647L252.954 168.139C251.123 168.139 249.4 168.032 247.677 167.816ZM237.23 166.308L236.907 167.816C238.63 168.139 240.461 168.462 242.184 168.785L242.4 167.278C240.677 166.955 238.954 166.632 237.23 166.308ZM273.523 165.662C272.015 166.201 270.292 166.632 268.461 167.062L268.784 168.57C270.615 168.139 272.338 167.708 273.954 167.17L273.523 165.662ZM227 163.724L226.569 165.124C228.292 165.662 230.015 166.093 231.738 166.524L232.061 165.016C230.446 164.693 228.723 164.155 227 163.724ZM282.138 160.385C281.061 161.57 279.769 162.647 278.154 163.616L278.907 164.908C280.63 163.939 282.03 162.755 283.215 161.462L282.138 160.385ZM217.092 160.17L216.554 161.57C218.169 162.216 219.892 162.862 221.507 163.508L222.046 162.108C220.323 161.462 218.707 160.816 217.092 160.17ZM207.507 155.755L206.754 157.047C208.261 157.908 209.877 158.662 211.6 159.416L212.246 158.016C210.63 157.37 209.015 156.616 207.507 155.755ZM286.446 151.016L284.938 151.232C285.046 151.77 285.046 152.416 285.046 152.955C285.046 154.032 284.938 155.108 284.615 156.185L286.123 156.616C286.446 155.432 286.661 154.247 286.661 152.955C286.554 152.201 286.554 151.662 286.446 151.016ZM198.569 150.37L197.707 151.555C199.107 152.524 200.615 153.493 202.23 154.462L202.984 153.17C201.477 152.308 199.969 151.339 198.569 150.37ZM190.492 143.585L189.415 144.662C190.6 145.847 192 147.139 193.4 148.324L194.369 147.139C192.969 145.955 191.677 144.77 190.492 143.585ZM281.923 141.108L280.738 141.97C281.815 143.478 282.784 144.878 283.43 146.385L284.83 145.739C284.077 144.232 283.107 142.616 281.923 141.108ZM184.354 135.293L182.954 135.939C183.707 137.447 184.677 139.062 185.861 140.57L187.046 139.708C185.969 138.201 185.107 136.801 184.354 135.293ZM274.384 133.355L273.415 134.539C274.815 135.724 276.107 136.908 277.292 138.093L278.369 137.016C277.184 135.832 275.892 134.539 274.384 133.355ZM265.661 127.216L264.907 128.508C266.415 129.478 267.923 130.447 269.323 131.416L270.184 130.124C268.784 129.155 267.277 128.185 265.661 127.216ZM183.169 125.601L182.415 125.385L181.661 125.278C181.446 126.355 181.23 127.539 181.23 128.832C181.23 129.478 181.23 130.124 181.338 130.77L182.846 130.555C182.738 130.016 182.738 129.37 182.738 128.832C182.738 127.647 182.954 126.678 183.169 125.601ZM260.6 124.308L255.861 122.908L255.538 123.555C257.154 124.308 258.769 125.062 260.277 125.924L261.03 124.632C260.923 124.524 260.707 124.416 260.6 124.308ZM246.384 118.17L245.846 119.57C247.461 120.108 249.184 120.755 250.8 121.401L251.338 120.001C249.723 119.462 248 118.816 246.384 118.17ZM188.877 116.77C187.154 117.739 185.754 118.924 184.569 120.216L185.754 121.185C186.83 120.001 188.123 118.924 189.63 118.062L188.877 116.77ZM236.154 115.155L235.83 116.555C237.446 116.985 239.169 117.416 240.892 117.955L241.107 117.201L241.323 116.447C239.492 116.016 237.769 115.585 236.154 115.155ZM199 113.108C197.169 113.539 195.338 113.97 193.83 114.508L194.369 115.908C195.877 115.37 197.6 114.939 199.323 114.508L199 113.108ZM225.6 113.001L225.384 114.508C227.107 114.724 228.83 115.047 230.554 115.478L230.877 113.97C229.154 113.539 227.43 113.216 225.6 113.001ZM215.046 111.924L214.938 113.432C216.661 113.539 218.384 113.647 220.215 113.755L220.323 112.247C218.6 112.139 216.769 112.032 215.046 111.924ZM209.661 111.924C207.83 111.924 206 112.032 204.277 112.247L204.492 113.755C206.107 113.539 207.938 113.432 209.769 113.432L209.661 111.924Z" fill="#7A7A7A"/>
</g>
<g opacity="0.45">
<path d="M234.861 96.1999L229.261 97.4922L229.153 96.9538C228.938 95.9845 228.83 95.2307 228.938 94.5845C229.045 93.9384 229.261 93.2922 229.584 92.7538C229.907 92.1076 230.661 91.0307 231.953 89.523C232.599 88.6614 232.922 88.0153 232.707 87.4768C232.599 86.9384 232.276 86.5076 231.953 86.2922C231.522 86.0768 231.091 85.9691 230.338 86.1845C229.584 86.2922 229.153 86.723 228.722 87.2614C228.399 87.7999 228.291 88.6614 228.399 89.9538L222.476 90.4922C222.153 88.3384 222.584 86.3999 223.661 84.8922C224.738 83.2768 226.676 82.1999 229.368 81.5537C231.522 81.0153 233.353 81.123 234.861 81.7691C236.907 82.6307 238.199 84.0307 238.63 86.0768C238.845 86.9384 238.738 87.7999 238.522 88.6614C238.199 89.523 237.445 90.7076 236.261 92.2153C235.399 93.1845 234.968 94.0461 234.753 94.5845C234.645 94.7999 234.645 95.4461 234.861 96.1999ZM229.368 98.9999L235.399 97.5999L236.584 102.985L230.553 104.385L229.368 98.9999Z" fill="#7A7A7A"/>
</g>
<g opacity="0.45">
<path d="M263.831 125.278L252.846 121.939L253.169 120.862C253.708 119.032 254.354 117.524 255.215 116.555C255.969 115.478 256.938 114.616 258.015 113.97C259.092 113.216 261.569 112.139 265.123 110.632C267.062 109.878 268.138 108.909 268.462 107.832C268.785 106.755 268.677 105.893 268.246 105.032C267.815 104.278 266.954 103.632 265.662 103.309C264.262 102.878 263.077 102.985 261.892 103.632C260.708 104.278 259.631 105.678 258.769 107.832L248 103.093C249.615 99.1085 252.092 96.2009 255.431 94.4778C258.769 92.7547 263.185 92.647 268.569 94.2624C272.769 95.5547 275.892 97.3855 277.938 99.9701C280.738 103.416 281.492 107.078 280.308 110.955C279.769 112.57 278.908 114.078 277.508 115.262C276.108 116.555 273.738 117.847 270.292 119.139C267.923 120.109 266.308 120.97 265.554 121.724C264.908 122.693 264.369 123.878 263.831 125.278ZM251.662 124.847L263.4 128.401L260.277 138.739L248.538 135.185L251.662 124.847Z" fill="#7A7A7A"/>
</g>
<path d="M185.953 224.036L184.777 221.866H184.735V230H183.587V220.228H184.945L188.515 226.192L189.691 228.362H189.733V220.228H190.881V230H189.523L185.953 224.036ZM196.104 230.168C195.618 230.168 195.175 230.079 194.774 229.902C194.372 229.725 194.027 229.473 193.738 229.146C193.458 228.81 193.238 228.413 193.08 227.956C192.921 227.489 192.842 226.967 192.842 226.388C192.842 225.819 192.921 225.301 193.08 224.834C193.238 224.367 193.458 223.971 193.738 223.644C194.027 223.308 194.372 223.051 194.774 222.874C195.175 222.697 195.618 222.608 196.104 222.608C196.589 222.608 197.028 222.697 197.42 222.874C197.821 223.051 198.166 223.308 198.456 223.644C198.745 223.971 198.969 224.367 199.128 224.834C199.286 225.301 199.366 225.819 199.366 226.388C199.366 226.967 199.286 227.489 199.128 227.956C198.969 228.413 198.745 228.81 198.456 229.146C198.166 229.473 197.821 229.725 197.42 229.902C197.028 230.079 196.589 230.168 196.104 230.168ZM196.104 229.174C196.71 229.174 197.205 228.987 197.588 228.614C197.97 228.241 198.162 227.671 198.162 226.906V225.87C198.162 225.105 197.97 224.535 197.588 224.162C197.205 223.789 196.71 223.602 196.104 223.602C195.497 223.602 195.002 223.789 194.62 224.162C194.237 224.535 194.046 225.105 194.046 225.87V226.906C194.046 227.671 194.237 228.241 194.62 228.614C195.002 228.987 195.497 229.174 196.104 229.174ZM204.516 230V222.776H205.636V224.106H205.706C205.837 223.761 206.07 223.453 206.406 223.182C206.742 222.911 207.204 222.776 207.792 222.776H208.226V223.896H207.568C206.962 223.896 206.486 224.013 206.14 224.246C205.804 224.47 205.636 224.755 205.636 225.1V230H204.516ZM212.304 230.168C211.81 230.168 211.362 230.079 210.96 229.902C210.568 229.725 210.228 229.473 209.938 229.146C209.658 228.81 209.439 228.413 209.28 227.956C209.131 227.489 209.056 226.967 209.056 226.388C209.056 225.819 209.131 225.301 209.28 224.834C209.439 224.367 209.658 223.971 209.938 223.644C210.228 223.308 210.568 223.051 210.96 222.874C211.362 222.697 211.81 222.608 212.304 222.608C212.79 222.608 213.224 222.697 213.606 222.874C213.989 223.051 214.316 223.299 214.586 223.616C214.857 223.924 215.062 224.293 215.202 224.722C215.352 225.151 215.426 225.623 215.426 226.136V226.668H210.232V227.004C210.232 227.312 210.279 227.601 210.372 227.872C210.475 228.133 210.615 228.362 210.792 228.558C210.979 228.754 211.203 228.908 211.464 229.02C211.735 229.132 212.038 229.188 212.374 229.188C212.832 229.188 213.228 229.081 213.564 228.866C213.91 228.651 214.176 228.343 214.362 227.942L215.16 228.516C214.927 229.011 214.563 229.412 214.068 229.72C213.574 230.019 212.986 230.168 212.304 230.168ZM212.304 223.546C211.996 223.546 211.716 223.602 211.464 223.714C211.212 223.817 210.993 223.966 210.806 224.162C210.629 224.358 210.489 224.591 210.386 224.862C210.284 225.123 210.232 225.413 210.232 225.73V225.828H214.222V225.674C214.222 225.03 214.045 224.517 213.69 224.134C213.345 223.742 212.883 223.546 212.304 223.546ZM219.442 230.168C218.77 230.168 218.205 230.042 217.748 229.79C217.3 229.529 216.913 229.183 216.586 228.754L217.384 228.11C217.664 228.465 217.977 228.74 218.322 228.936C218.667 229.123 219.069 229.216 219.526 229.216C220.002 229.216 220.371 229.113 220.632 228.908C220.903 228.703 221.038 228.413 221.038 228.04C221.038 227.76 220.945 227.522 220.758 227.326C220.581 227.121 220.254 226.981 219.778 226.906L219.204 226.822C218.868 226.775 218.56 226.705 218.28 226.612C218 226.509 217.753 226.379 217.538 226.22C217.333 226.052 217.169 225.847 217.048 225.604C216.936 225.361 216.88 225.072 216.88 224.736C216.88 224.381 216.945 224.073 217.076 223.812C217.207 223.541 217.384 223.317 217.608 223.14C217.841 222.963 218.117 222.832 218.434 222.748C218.751 222.655 219.092 222.608 219.456 222.608C220.044 222.608 220.534 222.711 220.926 222.916C221.327 223.121 221.677 223.406 221.976 223.77L221.234 224.442C221.075 224.218 220.842 224.017 220.534 223.84C220.226 223.653 219.839 223.56 219.372 223.56C218.905 223.56 218.551 223.663 218.308 223.868C218.075 224.064 217.958 224.335 217.958 224.68C217.958 225.035 218.075 225.291 218.308 225.45C218.551 225.609 218.896 225.725 219.344 225.8L219.904 225.884C220.707 226.005 221.276 226.239 221.612 226.584C221.948 226.92 222.116 227.363 222.116 227.914C222.116 228.614 221.878 229.165 221.402 229.566C220.926 229.967 220.273 230.168 219.442 230.168ZM228.546 228.824H228.49C228.416 228.992 228.322 229.16 228.21 229.328C228.108 229.487 227.977 229.631 227.818 229.762C227.66 229.883 227.468 229.981 227.244 230.056C227.02 230.131 226.759 230.168 226.46 230.168C225.714 230.168 225.121 229.93 224.682 229.454C224.244 228.969 224.024 228.287 224.024 227.41V222.776H225.144V227.214C225.144 228.511 225.695 229.16 226.796 229.16C227.02 229.16 227.235 229.132 227.44 229.076C227.655 229.02 227.842 228.936 228 228.824C228.168 228.712 228.299 228.572 228.392 228.404C228.495 228.227 228.546 228.017 228.546 227.774V222.776H229.666V230H228.546V228.824ZM233.241 230C232.849 230 232.551 229.893 232.345 229.678C232.149 229.454 232.051 229.174 232.051 228.838V219.64H233.171V229.02H234.235V230H233.241ZM237.393 230C237.001 230 236.703 229.893 236.497 229.678C236.301 229.454 236.203 229.165 236.203 228.81V223.756H235.013V222.776H235.685C235.928 222.776 236.091 222.729 236.175 222.636C236.269 222.533 236.315 222.361 236.315 222.118V220.774H237.323V222.776H238.905V223.756H237.323V229.02H238.793V230H237.393ZM242.876 230.168C242.204 230.168 241.639 230.042 241.182 229.79C240.734 229.529 240.346 229.183 240.02 228.754L240.818 228.11C241.098 228.465 241.41 228.74 241.756 228.936C242.101 229.123 242.502 229.216 242.96 229.216C243.436 229.216 243.804 229.113 244.066 228.908C244.336 228.703 244.472 228.413 244.472 228.04C244.472 227.76 244.378 227.522 244.192 227.326C244.014 227.121 243.688 226.981 243.212 226.906L242.638 226.822C242.302 226.775 241.994 226.705 241.714 226.612C241.434 226.509 241.186 226.379 240.972 226.22C240.766 226.052 240.603 225.847 240.482 225.604C240.37 225.361 240.314 225.072 240.314 224.736C240.314 224.381 240.379 224.073 240.51 223.812C240.64 223.541 240.818 223.317 241.042 223.14C241.275 222.963 241.55 222.832 241.868 222.748C242.185 222.655 242.526 222.608 242.89 222.608C243.478 222.608 243.968 222.711 244.36 222.916C244.761 223.121 245.111 223.406 245.41 223.77L244.668 224.442C244.509 224.218 244.276 224.017 243.968 223.84C243.66 223.653 243.272 223.56 242.806 223.56C242.339 223.56 241.984 223.663 241.742 223.868C241.508 224.064 241.392 224.335 241.392 224.68C241.392 225.035 241.508 225.291 241.742 225.45C241.984 225.609 242.33 225.725 242.778 225.8L243.338 225.884C244.14 226.005 244.71 226.239 245.046 226.584C245.382 226.92 245.55 227.363 245.55 227.914C245.55 228.614 245.312 229.165 244.836 229.566C244.36 229.967 243.706 230.168 242.876 230.168ZM251.228 223.756H250.052V222.776H251.228V221.32C251.228 220.816 251.359 220.41 251.62 220.102C251.882 219.794 252.278 219.64 252.81 219.64H253.902V220.62H252.348V222.776H253.902V223.756H252.348V230H251.228V223.756ZM258.051 230.168C257.566 230.168 257.122 230.079 256.721 229.902C256.32 229.725 255.974 229.473 255.685 229.146C255.405 228.81 255.186 228.413 255.027 227.956C254.868 227.489 254.789 226.967 254.789 226.388C254.789 225.819 254.868 225.301 255.027 224.834C255.186 224.367 255.405 223.971 255.685 223.644C255.974 223.308 256.32 223.051 256.721 222.874C257.122 222.697 257.566 222.608 258.051 222.608C258.536 222.608 258.975 222.697 259.367 222.874C259.768 223.051 260.114 223.308 260.403 223.644C260.692 223.971 260.916 224.367 261.075 224.834C261.234 225.301 261.313 225.819 261.313 226.388C261.313 226.967 261.234 227.489 261.075 227.956C260.916 228.413 260.692 228.81 260.403 229.146C260.114 229.473 259.768 229.725 259.367 229.902C258.975 230.079 258.536 230.168 258.051 230.168ZM258.051 229.174C258.658 229.174 259.152 228.987 259.535 228.614C259.918 228.241 260.109 227.671 260.109 226.906V225.87C260.109 225.105 259.918 224.535 259.535 224.162C259.152 223.789 258.658 223.602 258.051 223.602C257.444 223.602 256.95 223.789 256.567 224.162C256.184 224.535 255.993 225.105 255.993 225.87V226.906C255.993 227.671 256.184 228.241 256.567 228.614C256.95 228.987 257.444 229.174 258.051 229.174ZM267.607 228.824H267.551C267.476 228.992 267.383 229.16 267.271 229.328C267.168 229.487 267.038 229.631 266.879 229.762C266.72 229.883 266.529 229.981 266.305 230.056C266.081 230.131 265.82 230.168 265.521 230.168C264.774 230.168 264.182 229.93 263.743 229.454C263.304 228.969 263.085 228.287 263.085 227.41V222.776H264.205V227.214C264.205 228.511 264.756 229.16 265.857 229.16C266.081 229.16 266.296 229.132 266.501 229.076C266.716 229.02 266.902 228.936 267.061 228.824C267.229 228.712 267.36 228.572 267.453 228.404C267.556 228.227 267.607 228.017 267.607 227.774V222.776H268.727V230H267.607V228.824ZM271.112 230V222.776H272.232V223.952H272.288C272.465 223.541 272.713 223.215 273.03 222.972C273.357 222.729 273.791 222.608 274.332 222.608C275.079 222.608 275.667 222.851 276.096 223.336C276.535 223.812 276.754 224.489 276.754 225.366V230H275.634V225.562C275.634 224.265 275.088 223.616 273.996 223.616C273.772 223.616 273.553 223.644 273.338 223.7C273.133 223.756 272.946 223.84 272.778 223.952C272.61 224.064 272.475 224.209 272.372 224.386C272.279 224.554 272.232 224.755 272.232 224.988V230H271.112ZM283.689 228.824H283.633C283.194 229.72 282.49 230.168 281.519 230.168C281.071 230.168 280.665 230.079 280.301 229.902C279.937 229.725 279.624 229.473 279.363 229.146C279.111 228.819 278.915 228.423 278.775 227.956C278.644 227.489 278.579 226.967 278.579 226.388C278.579 225.809 278.644 225.287 278.775 224.82C278.915 224.353 279.111 223.957 279.363 223.63C279.624 223.303 279.937 223.051 280.301 222.874C280.665 222.697 281.071 222.608 281.519 222.608C282.023 222.608 282.452 222.72 282.807 222.944C283.171 223.159 283.446 223.495 283.633 223.952H283.689V219.64H284.809V230H283.689V228.824ZM281.827 229.16C282.079 229.16 282.317 229.127 282.541 229.062C282.774 228.997 282.975 228.903 283.143 228.782C283.311 228.651 283.442 228.497 283.535 228.32C283.638 228.133 283.689 227.923 283.689 227.69V225.002C283.689 224.806 283.638 224.624 283.535 224.456C283.442 224.279 283.311 224.129 283.143 224.008C282.975 223.887 282.774 223.793 282.541 223.728C282.317 223.653 282.079 223.616 281.827 223.616C281.192 223.616 280.693 223.817 280.329 224.218C279.965 224.61 279.783 225.128 279.783 225.772V227.004C279.783 227.648 279.965 228.171 280.329 228.572C280.693 228.964 281.192 229.16 281.827 229.16Z" fill="#EFEFEF"/>
<path d="M60.3362 256V246.228H64.2282C65.1055 246.228 65.7775 246.48 66.2442 246.984C66.7202 247.479 66.9582 248.16 66.9582 249.028C66.9582 249.896 66.7202 250.582 66.2442 251.086C65.7775 251.581 65.1055 251.828 64.2282 251.828H61.5122V256H60.3362ZM61.5122 250.792H64.2282C64.6948 250.792 65.0542 250.671 65.3062 250.428C65.5675 250.185 65.6982 249.84 65.6982 249.392V248.664C65.6982 248.216 65.5675 247.871 65.3062 247.628C65.0542 247.385 64.6948 247.264 64.2282 247.264H61.5122V250.792ZM69.9044 256C69.5124 256 69.2137 255.893 69.0084 255.678C68.8124 255.454 68.7144 255.174 68.7144 254.838V245.64H69.8344V255.02H70.8984V256H69.9044ZM75.2449 256.168C74.7502 256.168 74.3022 256.079 73.9009 255.902C73.5089 255.725 73.1682 255.473 72.8789 255.146C72.5989 254.81 72.3795 254.413 72.2209 253.956C72.0715 253.489 71.9969 252.967 71.9969 252.388C71.9969 251.819 72.0715 251.301 72.2209 250.834C72.3795 250.367 72.5989 249.971 72.8789 249.644C73.1682 249.308 73.5089 249.051 73.9009 248.874C74.3022 248.697 74.7502 248.608 75.2449 248.608C75.7302 248.608 76.1642 248.697 76.5469 248.874C76.9295 249.051 77.2562 249.299 77.5269 249.616C77.7975 249.924 78.0029 250.293 78.1429 250.722C78.2922 251.151 78.3669 251.623 78.3669 252.136V252.668H73.1729V253.004C73.1729 253.312 73.2195 253.601 73.3129 253.872C73.4155 254.133 73.5555 254.362 73.7329 254.558C73.9195 254.754 74.1435 254.908 74.4049 255.02C74.6755 255.132 74.9789 255.188 75.3149 255.188C75.7722 255.188 76.1689 255.081 76.5049 254.866C76.8502 254.651 77.1162 254.343 77.3029 253.942L78.1009 254.516C77.8675 255.011 77.5035 255.412 77.0089 255.72C76.5142 256.019 75.9262 256.168 75.2449 256.168ZM75.2449 249.546C74.9369 249.546 74.6569 249.602 74.4049 249.714C74.1529 249.817 73.9335 249.966 73.7469 250.162C73.5695 250.358 73.4295 250.591 73.3269 250.862C73.2242 251.123 73.1729 251.413 73.1729 251.73V251.828H77.1629V251.674C77.1629 251.03 76.9855 250.517 76.6309 250.134C76.2855 249.742 75.8235 249.546 75.2449 249.546ZM85.4625 256C85.0425 256 84.7391 255.888 84.5525 255.664C84.3751 255.44 84.2631 255.16 84.2165 254.824H84.1465C83.9878 255.272 83.7265 255.608 83.3625 255.832C82.9985 256.056 82.5645 256.168 82.0605 256.168C81.2951 256.168 80.6978 255.972 80.2685 255.58C79.8485 255.188 79.6385 254.656 79.6385 253.984C79.6385 253.303 79.8858 252.78 80.3805 252.416C80.8845 252.052 81.6638 251.87 82.7185 251.87H84.1465V251.156C84.1465 250.643 84.0065 250.251 83.7265 249.98C83.4465 249.709 83.0171 249.574 82.4385 249.574C81.9998 249.574 81.6311 249.672 81.3325 249.868C81.0431 250.064 80.8005 250.325 80.6045 250.652L79.9325 250.022C80.1285 249.63 80.4411 249.299 80.8705 249.028C81.2998 248.748 81.8411 248.608 82.4945 248.608C83.3718 248.608 84.0531 248.823 84.5385 249.252C85.0238 249.681 85.2665 250.279 85.2665 251.044V255.02H86.0925V256H85.4625ZM82.2425 255.216C82.5225 255.216 82.7791 255.183 83.0125 255.118C83.2458 255.053 83.4465 254.959 83.6145 254.838C83.7825 254.717 83.9131 254.577 84.0065 254.418C84.0998 254.259 84.1465 254.087 84.1465 253.9V252.71H82.6625C82.0185 252.71 81.5471 252.803 81.2485 252.99C80.9591 253.177 80.8145 253.447 80.8145 253.802V254.096C80.8145 254.451 80.9405 254.726 81.1925 254.922C81.4538 255.118 81.8038 255.216 82.2425 255.216ZM89.861 256.168C89.189 256.168 88.6243 256.042 88.167 255.79C87.719 255.529 87.3316 255.183 87.005 254.754L87.803 254.11C88.083 254.465 88.3956 254.74 88.741 254.936C89.0863 255.123 89.4876 255.216 89.945 255.216C90.421 255.216 90.7896 255.113 91.051 254.908C91.3216 254.703 91.457 254.413 91.457 254.04C91.457 253.76 91.3636 253.522 91.177 253.326C90.9996 253.121 90.673 252.981 90.197 252.906L89.623 252.822C89.287 252.775 88.979 252.705 88.699 252.612C88.419 252.509 88.1716 252.379 87.957 252.22C87.7516 252.052 87.5883 251.847 87.467 251.604C87.355 251.361 87.299 251.072 87.299 250.736C87.299 250.381 87.3643 250.073 87.495 249.812C87.6256 249.541 87.803 249.317 88.027 249.14C88.2603 248.963 88.5356 248.832 88.853 248.748C89.1703 248.655 89.511 248.608 89.875 248.608C90.463 248.608 90.953 248.711 91.345 248.916C91.7463 249.121 92.0963 249.406 92.395 249.77L91.653 250.442C91.4943 250.218 91.261 250.017 90.953 249.84C90.645 249.653 90.2576 249.56 89.791 249.56C89.3243 249.56 88.9696 249.663 88.727 249.868C88.4936 250.064 88.377 250.335 88.377 250.68C88.377 251.035 88.4936 251.291 88.727 251.45C88.9696 251.609 89.315 251.725 89.763 251.8L90.323 251.884C91.1256 252.005 91.695 252.239 92.031 252.584C92.367 252.92 92.535 253.363 92.535 253.914C92.535 254.614 92.297 255.165 91.821 255.566C91.345 255.967 90.6916 256.168 89.861 256.168ZM97.2292 256.168C96.7346 256.168 96.2866 256.079 95.8852 255.902C95.4932 255.725 95.1526 255.473 94.8632 255.146C94.5832 254.81 94.3639 254.413 94.2052 253.956C94.0559 253.489 93.9812 252.967 93.9812 252.388C93.9812 251.819 94.0559 251.301 94.2052 250.834C94.3639 250.367 94.5832 249.971 94.8632 249.644C95.1526 249.308 95.4932 249.051 95.8852 248.874C96.2866 248.697 96.7346 248.608 97.2292 248.608C97.7146 248.608 98.1486 248.697 98.5312 248.874C98.9139 249.051 99.2406 249.299 99.5112 249.616C99.7819 249.924 99.9872 250.293 100.127 250.722C100.277 251.151 100.351 251.623 100.351 252.136V252.668H95.1572V253.004C95.1572 253.312 95.2039 253.601 95.2972 253.872C95.3999 254.133 95.5399 254.362 95.7172 254.558C95.9039 254.754 96.1279 254.908 96.3892 255.02C96.6599 255.132 96.9632 255.188 97.2992 255.188C97.7566 255.188 98.1532 255.081 98.4892 254.866C98.8346 254.651 99.1006 254.343 99.2872 253.942L100.085 254.516C99.8519 255.011 99.4879 255.412 98.9932 255.72C98.4986 256.019 97.9106 256.168 97.2292 256.168ZM97.2292 249.546C96.9212 249.546 96.6412 249.602 96.3892 249.714C96.1372 249.817 95.9179 249.966 95.7312 250.162C95.5539 250.358 95.4139 250.591 95.3112 250.862C95.2086 251.123 95.1572 251.413 95.1572 251.73V251.828H99.1472V251.674C99.1472 251.03 98.9699 250.517 98.6152 250.134C98.2699 249.742 97.8079 249.546 97.2292 249.546ZM107.101 256C106.709 256 106.411 255.893 106.205 255.678C106.009 255.454 105.911 255.165 105.911 254.81V249.756H104.721V248.776H105.393C105.636 248.776 105.799 248.729 105.883 248.636C105.977 248.533 106.023 248.361 106.023 248.118V246.774H107.031V248.776H108.613V249.756H107.031V255.02H108.501V256H107.101ZM110.414 256V248.776H111.534V250.106H111.604C111.734 249.761 111.968 249.453 112.304 249.182C112.64 248.911 113.102 248.776 113.69 248.776H114.124V249.896H113.466C112.859 249.896 112.383 250.013 112.038 250.246C111.702 250.47 111.534 250.755 111.534 251.1V256H110.414ZM120.143 248.776H121.249L118.015 257.68C117.931 257.895 117.847 258.072 117.763 258.212C117.679 258.361 117.576 258.478 117.455 258.562C117.334 258.646 117.18 258.707 116.993 258.744C116.816 258.781 116.596 258.8 116.335 258.8H115.761V257.82H116.895L117.441 256.28L114.739 248.776H115.859L117.595 253.69L117.931 254.866H118.001L118.393 253.69L120.143 248.776ZM128.156 256.168C127.484 256.168 126.919 256.042 126.462 255.79C126.014 255.529 125.627 255.183 125.3 254.754L126.098 254.11C126.378 254.465 126.691 254.74 127.036 254.936C127.381 255.123 127.783 255.216 128.24 255.216C128.716 255.216 129.085 255.113 129.346 254.908C129.617 254.703 129.752 254.413 129.752 254.04C129.752 253.76 129.659 253.522 129.472 253.326C129.295 253.121 128.968 252.981 128.492 252.906L127.918 252.822C127.582 252.775 127.274 252.705 126.994 252.612C126.714 252.509 126.467 252.379 126.252 252.22C126.047 252.052 125.883 251.847 125.762 251.604C125.65 251.361 125.594 251.072 125.594 250.736C125.594 250.381 125.659 250.073 125.79 249.812C125.921 249.541 126.098 249.317 126.322 249.14C126.555 248.963 126.831 248.832 127.148 248.748C127.465 248.655 127.806 248.608 128.17 248.608C128.758 248.608 129.248 248.711 129.64 248.916C130.041 249.121 130.391 249.406 130.69 249.77L129.948 250.442C129.789 250.218 129.556 250.017 129.248 249.84C128.94 249.653 128.553 249.56 128.086 249.56C127.619 249.56 127.265 249.663 127.022 249.868C126.789 250.064 126.672 250.335 126.672 250.68C126.672 251.035 126.789 251.291 127.022 251.45C127.265 251.609 127.61 251.725 128.058 251.8L128.618 251.884C129.421 252.005 129.99 252.239 130.326 252.584C130.662 252.92 130.83 253.363 130.83 253.914C130.83 254.614 130.592 255.165 130.116 255.566C129.64 255.967 128.987 256.168 128.156 256.168ZM131.929 248.776H133.021L133.791 251.898L134.561 255.062H134.589L135.471 251.898L136.381 248.776H137.375L138.313 251.898L139.209 255.062H139.237L139.979 251.898L140.763 248.776H141.813L139.895 256H138.509L137.501 252.528L136.871 250.33H136.843L136.227 252.528L135.219 256H133.861L131.929 248.776ZM143.991 247.082C143.749 247.082 143.571 247.026 143.459 246.914C143.357 246.793 143.305 246.639 143.305 246.452V246.27C143.305 246.083 143.357 245.934 143.459 245.822C143.571 245.701 143.749 245.64 143.991 245.64C144.234 245.64 144.407 245.701 144.509 245.822C144.621 245.934 144.677 246.083 144.677 246.27V246.452C144.677 246.639 144.621 246.793 144.509 246.914C144.407 247.026 144.234 247.082 143.991 247.082ZM143.431 248.776H144.551V256H143.431V248.776ZM148.527 256C148.135 256 147.837 255.893 147.631 255.678C147.435 255.454 147.337 255.165 147.337 254.81V249.756H146.147V248.776H146.819C147.062 248.776 147.225 248.729 147.309 248.636C147.403 248.533 147.449 248.361 147.449 248.118V246.774H148.457V248.776H150.039V249.756H148.457V255.02H149.927V256H148.527ZM154.473 256.168C153.969 256.168 153.516 256.079 153.115 255.902C152.713 255.725 152.373 255.473 152.093 255.146C151.822 254.819 151.612 254.423 151.463 253.956C151.323 253.489 151.253 252.967 151.253 252.388C151.253 251.809 151.323 251.287 151.463 250.82C151.612 250.353 151.822 249.957 152.093 249.63C152.373 249.303 152.713 249.051 153.115 248.874C153.516 248.697 153.969 248.608 154.473 248.608C155.191 248.608 155.765 248.767 156.195 249.084C156.633 249.392 156.96 249.798 157.175 250.302L156.237 250.778C156.106 250.405 155.891 250.115 155.593 249.91C155.294 249.705 154.921 249.602 154.473 249.602C154.137 249.602 153.843 249.658 153.591 249.77C153.339 249.873 153.129 250.022 152.961 250.218C152.793 250.405 152.667 250.633 152.583 250.904C152.499 251.165 152.457 251.455 152.457 251.772V253.004C152.457 253.639 152.625 254.161 152.961 254.572C153.306 254.973 153.81 255.174 154.473 255.174C155.378 255.174 156.031 254.754 156.433 253.914L157.245 254.46C157.011 254.983 156.661 255.398 156.195 255.706C155.737 256.014 155.163 256.168 154.473 256.168ZM158.826 245.64H159.946V249.952H160.002C160.179 249.541 160.426 249.215 160.744 248.972C161.07 248.729 161.504 248.608 162.046 248.608C162.792 248.608 163.38 248.851 163.81 249.336C164.248 249.812 164.468 250.489 164.468 251.366V256H163.348V251.562C163.348 250.265 162.802 249.616 161.71 249.616C161.486 249.616 161.266 249.644 161.052 249.7C160.846 249.756 160.66 249.84 160.492 249.952C160.324 250.064 160.188 250.209 160.086 250.386C159.992 250.554 159.946 250.755 159.946 250.988V256H158.826V245.64ZM167.343 247.082C167.1 247.082 166.923 247.026 166.811 246.914C166.708 246.793 166.657 246.639 166.657 246.452V246.27C166.657 246.083 166.708 245.934 166.811 245.822C166.923 245.701 167.1 245.64 167.343 245.64C167.585 245.64 167.758 245.701 167.861 245.822C167.973 245.934 168.029 246.083 168.029 246.27V246.452C168.029 246.639 167.973 246.793 167.861 246.914C167.758 247.026 167.585 247.082 167.343 247.082ZM166.783 248.776H167.903V256H166.783V248.776ZM170.283 256V248.776H171.403V249.952H171.459C171.636 249.541 171.883 249.215 172.201 248.972C172.527 248.729 172.961 248.608 173.503 248.608C174.249 248.608 174.837 248.851 175.267 249.336C175.705 249.812 175.925 250.489 175.925 251.366V256H174.805V251.562C174.805 250.265 174.259 249.616 173.167 249.616C172.943 249.616 172.723 249.644 172.509 249.7C172.303 249.756 172.117 249.84 171.949 249.952C171.781 250.064 171.645 250.209 171.543 250.386C171.449 250.554 171.403 250.755 171.403 250.988V256H170.283ZM184.33 256.798C184.33 257.545 184.036 258.091 183.448 258.436C182.869 258.791 181.996 258.968 180.83 258.968C179.7 258.968 178.888 258.814 178.394 258.506C177.899 258.198 177.652 257.759 177.652 257.19C177.652 256.798 177.754 256.49 177.96 256.266C178.165 256.051 178.445 255.893 178.8 255.79V255.636C178.37 255.431 178.156 255.095 178.156 254.628C178.156 254.264 178.272 253.989 178.506 253.802C178.739 253.606 179.038 253.461 179.402 253.368V253.312C178.972 253.107 178.636 252.813 178.394 252.43C178.16 252.047 178.044 251.604 178.044 251.1C178.044 250.736 178.109 250.4 178.24 250.092C178.37 249.784 178.552 249.523 178.786 249.308C179.028 249.084 179.313 248.911 179.64 248.79C179.976 248.669 180.349 248.608 180.76 248.608C181.273 248.608 181.73 248.701 182.132 248.888V248.762C182.132 248.482 182.197 248.253 182.328 248.076C182.458 247.889 182.673 247.796 182.972 247.796H184.05V248.776H182.678V249.238C182.939 249.462 183.14 249.733 183.28 250.05C183.429 250.358 183.504 250.708 183.504 251.1C183.504 251.464 183.438 251.8 183.308 252.108C183.177 252.416 182.99 252.682 182.748 252.906C182.514 253.121 182.23 253.289 181.894 253.41C181.558 253.531 181.184 253.592 180.774 253.592C180.54 253.592 180.307 253.569 180.074 253.522C179.831 253.587 179.612 253.685 179.416 253.816C179.22 253.937 179.122 254.11 179.122 254.334C179.122 254.549 179.224 254.693 179.43 254.768C179.635 254.843 179.901 254.88 180.228 254.88H181.768C182.664 254.88 183.312 255.053 183.714 255.398C184.124 255.734 184.33 256.201 184.33 256.798ZM183.28 256.882C183.28 256.593 183.168 256.359 182.944 256.182C182.729 256.014 182.342 255.93 181.782 255.93H179.374C178.926 256.135 178.702 256.462 178.702 256.91C178.702 257.227 178.818 257.498 179.052 257.722C179.294 257.946 179.7 258.058 180.27 258.058H181.306C181.931 258.058 182.416 257.96 182.762 257.764C183.107 257.568 183.28 257.274 183.28 256.882ZM180.774 252.696C181.25 252.696 181.628 252.584 181.908 252.36C182.188 252.127 182.328 251.772 182.328 251.296V250.904C182.328 250.428 182.188 250.078 181.908 249.854C181.628 249.621 181.25 249.504 180.774 249.504C180.298 249.504 179.92 249.621 179.64 249.854C179.36 250.078 179.22 250.428 179.22 250.904V251.296C179.22 251.772 179.36 252.127 179.64 252.36C179.92 252.584 180.298 252.696 180.774 252.696ZM188.945 256V248.776H190.065V249.952H190.121C190.298 249.541 190.546 249.215 190.863 248.972C191.19 248.729 191.624 248.608 192.165 248.608C192.912 248.608 193.5 248.851 193.929 249.336C194.368 249.812 194.587 250.489 194.587 251.366V256H193.467V251.562C193.467 250.265 192.921 249.616 191.829 249.616C191.605 249.616 191.386 249.644 191.171 249.7C190.966 249.756 190.779 249.84 190.611 249.952C190.443 250.064 190.308 250.209 190.205 250.386C190.112 250.554 190.065 250.755 190.065 250.988V256H188.945ZM199.618 256.168C199.123 256.168 198.675 256.079 198.274 255.902C197.882 255.725 197.541 255.473 197.252 255.146C196.972 254.81 196.753 254.413 196.594 253.956C196.445 253.489 196.37 252.967 196.37 252.388C196.37 251.819 196.445 251.301 196.594 250.834C196.753 250.367 196.972 249.971 197.252 249.644C197.541 249.308 197.882 249.051 198.274 248.874C198.675 248.697 199.123 248.608 199.618 248.608C200.103 248.608 200.537 248.697 200.92 248.874C201.303 249.051 201.629 249.299 201.9 249.616C202.171 249.924 202.376 250.293 202.516 250.722C202.665 251.151 202.74 251.623 202.74 252.136V252.668H197.546V253.004C197.546 253.312 197.593 253.601 197.686 253.872C197.789 254.133 197.929 254.362 198.106 254.558C198.293 254.754 198.517 254.908 198.778 255.02C199.049 255.132 199.352 255.188 199.688 255.188C200.145 255.188 200.542 255.081 200.878 254.866C201.223 254.651 201.489 254.343 201.676 253.942L202.474 254.516C202.241 255.011 201.877 255.412 201.382 255.72C200.887 256.019 200.299 256.168 199.618 256.168ZM199.618 249.546C199.31 249.546 199.03 249.602 198.778 249.714C198.526 249.817 198.307 249.966 198.12 250.162C197.943 250.358 197.803 250.591 197.7 250.862C197.597 251.123 197.546 251.413 197.546 251.73V251.828H201.536V251.674C201.536 251.03 201.359 250.517 201.004 250.134C200.659 249.742 200.197 249.546 199.618 249.546ZM206.182 256C205.79 256 205.491 255.893 205.286 255.678C205.09 255.454 204.992 255.165 204.992 254.81V249.756H203.802V248.776H204.474C204.716 248.776 204.88 248.729 204.964 248.636C205.057 248.533 205.104 248.361 205.104 248.118V246.774H206.112V248.776H207.694V249.756H206.112V255.02H207.582V256H206.182ZM208.738 248.776H209.83L210.6 251.898L211.37 255.062H211.398L212.28 251.898L213.19 248.776H214.184L215.122 251.898L216.018 255.062H216.046L216.788 251.898L217.572 248.776H218.622L216.704 256H215.318L214.31 252.528L213.68 250.33H213.652L213.036 252.528L212.028 256H210.67L208.738 248.776ZM222.901 256.168C222.416 256.168 221.973 256.079 221.571 255.902C221.17 255.725 220.825 255.473 220.535 255.146C220.255 254.81 220.036 254.413 219.877 253.956C219.719 253.489 219.639 252.967 219.639 252.388C219.639 251.819 219.719 251.301 219.877 250.834C220.036 250.367 220.255 249.971 220.535 249.644C220.825 249.308 221.17 249.051 221.571 248.874C221.973 248.697 222.416 248.608 222.901 248.608C223.387 248.608 223.825 248.697 224.217 248.874C224.619 249.051 224.964 249.308 225.253 249.644C225.543 249.971 225.767 250.367 225.925 250.834C226.084 251.301 226.163 251.819 226.163 252.388C226.163 252.967 226.084 253.489 225.925 253.956C225.767 254.413 225.543 254.81 225.253 255.146C224.964 255.473 224.619 255.725 224.217 255.902C223.825 256.079 223.387 256.168 222.901 256.168ZM222.901 255.174C223.508 255.174 224.003 254.987 224.385 254.614C224.768 254.241 224.959 253.671 224.959 252.906V251.87C224.959 251.105 224.768 250.535 224.385 250.162C224.003 249.789 223.508 249.602 222.901 249.602C222.295 249.602 221.8 249.789 221.417 250.162C221.035 250.535 220.843 251.105 220.843 251.87V252.906C220.843 253.671 221.035 254.241 221.417 254.614C221.8 254.987 222.295 255.174 222.901 255.174ZM228.005 256V248.776H229.125V250.106H229.195C229.326 249.761 229.559 249.453 229.895 249.182C230.231 248.911 230.693 248.776 231.281 248.776H231.715V249.896H231.057C230.451 249.896 229.975 250.013 229.629 250.246C229.293 250.47 229.125 250.755 229.125 251.1V256H228.005ZM233.146 245.64H234.266V252.206H234.322L235.428 250.974L237.472 248.776H238.83L236.156 251.632L239.096 256H237.738L235.344 252.318L234.266 253.424V256H233.146V245.64ZM242.562 256.168C241.89 256.168 241.325 256.042 240.868 255.79C240.42 255.529 240.033 255.183 239.706 254.754L240.504 254.11C240.784 254.465 241.097 254.74 241.442 254.936C241.787 255.123 242.189 255.216 242.646 255.216C243.122 255.216 243.491 255.113 243.752 254.908C244.023 254.703 244.158 254.413 244.158 254.04C244.158 253.76 244.065 253.522 243.878 253.326C243.701 253.121 243.374 252.981 242.898 252.906L242.324 252.822C241.988 252.775 241.68 252.705 241.4 252.612C241.12 252.509 240.873 252.379 240.658 252.22C240.453 252.052 240.289 251.847 240.168 251.604C240.056 251.361 240 251.072 240 250.736C240 250.381 240.065 250.073 240.196 249.812C240.327 249.541 240.504 249.317 240.728 249.14C240.961 248.963 241.237 248.832 241.554 248.748C241.871 248.655 242.212 248.608 242.576 248.608C243.164 248.608 243.654 248.711 244.046 248.916C244.447 249.121 244.797 249.406 245.096 249.77L244.354 250.442C244.195 250.218 243.962 250.017 243.654 249.84C243.346 249.653 242.959 249.56 242.492 249.56C242.025 249.56 241.671 249.663 241.428 249.868C241.195 250.064 241.078 250.335 241.078 250.68C241.078 251.035 241.195 251.291 241.428 251.45C241.671 251.609 242.016 251.725 242.464 251.8L243.024 251.884C243.827 252.005 244.396 252.239 244.732 252.584C245.068 252.92 245.236 253.363 245.236 253.914C245.236 254.614 244.998 255.165 244.522 255.566C244.046 255.967 243.393 256.168 242.562 256.168ZM253.253 256.168C252.768 256.168 252.324 256.079 251.923 255.902C251.522 255.725 251.176 255.473 250.887 255.146C250.607 254.81 250.388 254.413 250.229 253.956C250.07 253.489 249.991 252.967 249.991 252.388C249.991 251.819 250.07 251.301 250.229 250.834C250.388 250.367 250.607 249.971 250.887 249.644C251.176 249.308 251.522 249.051 251.923 248.874C252.324 248.697 252.768 248.608 253.253 248.608C253.738 248.608 254.177 248.697 254.569 248.874C254.97 249.051 255.316 249.308 255.605 249.644C255.894 249.971 256.118 250.367 256.277 250.834C256.436 251.301 256.515 251.819 256.515 252.388C256.515 252.967 256.436 253.489 256.277 253.956C256.118 254.413 255.894 254.81 255.605 255.146C255.316 255.473 254.97 255.725 254.569 255.902C254.177 256.079 253.738 256.168 253.253 256.168ZM253.253 255.174C253.86 255.174 254.354 254.987 254.737 254.614C255.12 254.241 255.311 253.671 255.311 252.906V251.87C255.311 251.105 255.12 250.535 254.737 250.162C254.354 249.789 253.86 249.602 253.253 249.602C252.646 249.602 252.152 249.789 251.769 250.162C251.386 250.535 251.195 251.105 251.195 251.87V252.906C251.195 253.671 251.386 254.241 251.769 254.614C252.152 254.987 252.646 255.174 253.253 255.174ZM258.357 256V248.776H259.477V250.106H259.547C259.678 249.761 259.911 249.453 260.247 249.182C260.583 248.911 261.045 248.776 261.633 248.776H262.067V249.896H261.409C260.802 249.896 260.326 250.013 259.981 250.246C259.645 250.47 259.477 250.755 259.477 251.1V256H258.357ZM268.976 256.168C268.304 256.168 267.74 256.042 267.282 255.79C266.834 255.529 266.447 255.183 266.12 254.754L266.918 254.11C267.198 254.465 267.511 254.74 267.856 254.936C268.202 255.123 268.603 255.216 269.06 255.216C269.536 255.216 269.905 255.113 270.166 254.908C270.437 254.703 270.572 254.413 270.572 254.04C270.572 253.76 270.479 253.522 270.292 253.326C270.115 253.121 269.788 252.981 269.312 252.906L268.738 252.822C268.402 252.775 268.094 252.705 267.814 252.612C267.534 252.509 267.287 252.379 267.072 252.22C266.867 252.052 266.704 251.847 266.582 251.604C266.47 251.361 266.414 251.072 266.414 250.736C266.414 250.381 266.48 250.073 266.61 249.812C266.741 249.541 266.918 249.317 267.142 249.14C267.376 248.963 267.651 248.832 267.968 248.748C268.286 248.655 268.626 248.608 268.99 248.608C269.578 248.608 270.068 248.711 270.46 248.916C270.862 249.121 271.212 249.406 271.51 249.77L270.768 250.442C270.61 250.218 270.376 250.017 270.068 249.84C269.76 249.653 269.373 249.56 268.906 249.56C268.44 249.56 268.085 249.663 267.842 249.868C267.609 250.064 267.492 250.335 267.492 250.68C267.492 251.035 267.609 251.291 267.842 251.45C268.085 251.609 268.43 251.725 268.878 251.8L269.438 251.884C270.241 252.005 270.81 252.239 271.146 252.584C271.482 252.92 271.65 253.363 271.65 253.914C271.65 254.614 271.412 255.165 270.936 255.566C270.46 255.967 269.807 256.168 268.976 256.168ZM276.344 256.168C275.85 256.168 275.402 256.079 275 255.902C274.608 255.725 274.268 255.473 273.978 255.146C273.698 254.81 273.479 254.413 273.32 253.956C273.171 253.489 273.096 252.967 273.096 252.388C273.096 251.819 273.171 251.301 273.32 250.834C273.479 250.367 273.698 249.971 273.978 249.644C274.268 249.308 274.608 249.051 275 248.874C275.402 248.697 275.85 248.608 276.344 248.608C276.83 248.608 277.264 248.697 277.646 248.874C278.029 249.051 278.356 249.299 278.626 249.616C278.897 249.924 279.102 250.293 279.242 250.722C279.392 251.151 279.466 251.623 279.466 252.136V252.668H274.272V253.004C274.272 253.312 274.319 253.601 274.412 253.872C274.515 254.133 274.655 254.362 274.832 254.558C275.019 254.754 275.243 254.908 275.504 255.02C275.775 255.132 276.078 255.188 276.414 255.188C276.872 255.188 277.268 255.081 277.604 254.866C277.95 254.651 278.216 254.343 278.402 253.942L279.2 254.516C278.967 255.011 278.603 255.412 278.108 255.72C277.614 256.019 277.026 256.168 276.344 256.168ZM276.344 249.546C276.036 249.546 275.756 249.602 275.504 249.714C275.252 249.817 275.033 249.966 274.846 250.162C274.669 250.358 274.529 250.591 274.426 250.862C274.324 251.123 274.272 251.413 274.272 251.73V251.828H278.262V251.674C278.262 251.03 278.085 250.517 277.73 250.134C277.385 249.742 276.923 249.546 276.344 249.546ZM286.562 256C286.142 256 285.839 255.888 285.652 255.664C285.475 255.44 285.363 255.16 285.316 254.824H285.246C285.087 255.272 284.826 255.608 284.462 255.832C284.098 256.056 283.664 256.168 283.16 256.168C282.395 256.168 281.797 255.972 281.368 255.58C280.948 255.188 280.738 254.656 280.738 253.984C280.738 253.303 280.985 252.78 281.48 252.416C281.984 252.052 282.763 251.87 283.818 251.87H285.246V251.156C285.246 250.643 285.106 250.251 284.826 249.98C284.546 249.709 284.117 249.574 283.538 249.574C283.099 249.574 282.731 249.672 282.432 249.868C282.143 250.064 281.9 250.325 281.704 250.652L281.032 250.022C281.228 249.63 281.541 249.299 281.97 249.028C282.399 248.748 282.941 248.608 283.594 248.608C284.471 248.608 285.153 248.823 285.638 249.252C286.123 249.681 286.366 250.279 286.366 251.044V255.02H287.192V256H286.562ZM283.342 255.216C283.622 255.216 283.879 255.183 284.112 255.118C284.345 255.053 284.546 254.959 284.714 254.838C284.882 254.717 285.013 254.577 285.106 254.418C285.199 254.259 285.246 254.087 285.246 253.9V252.71H283.762C283.118 252.71 282.647 252.803 282.348 252.99C282.059 253.177 281.914 253.447 281.914 253.802V254.096C281.914 254.451 282.04 254.726 282.292 254.922C282.553 255.118 282.903 255.216 283.342 255.216ZM288.791 256V248.776H289.911V250.106H289.981C290.111 249.761 290.345 249.453 290.681 249.182C291.017 248.911 291.479 248.776 292.067 248.776H292.501V249.896H291.843C291.236 249.896 290.76 250.013 290.415 250.246C290.079 250.47 289.911 250.755 289.911 251.1V256H288.791ZM296.551 256.168C296.047 256.168 295.594 256.079 295.193 255.902C294.792 255.725 294.451 255.473 294.171 255.146C293.9 254.819 293.69 254.423 293.541 253.956C293.401 253.489 293.331 252.967 293.331 252.388C293.331 251.809 293.401 251.287 293.541 250.82C293.69 250.353 293.9 249.957 294.171 249.63C294.451 249.303 294.792 249.051 295.193 248.874C295.594 248.697 296.047 248.608 296.551 248.608C297.27 248.608 297.844 248.767 298.273 249.084C298.712 249.392 299.038 249.798 299.253 250.302L298.315 250.778C298.184 250.405 297.97 250.115 297.671 249.91C297.372 249.705 296.999 249.602 296.551 249.602C296.215 249.602 295.921 249.658 295.669 249.77C295.417 249.873 295.207 250.022 295.039 250.218C294.871 250.405 294.745 250.633 294.661 250.904C294.577 251.165 294.535 251.455 294.535 251.772V253.004C294.535 253.639 294.703 254.161 295.039 254.572C295.384 254.973 295.888 255.174 296.551 255.174C297.456 255.174 298.11 254.754 298.511 253.914L299.323 254.46C299.09 254.983 298.74 255.398 298.273 255.706C297.816 256.014 297.242 256.168 296.551 256.168ZM300.904 245.64H302.024V249.952H302.08C302.257 249.541 302.505 249.215 302.822 248.972C303.149 248.729 303.583 248.608 304.124 248.608C304.871 248.608 305.459 248.851 305.888 249.336C306.327 249.812 306.546 250.489 306.546 251.366V256H305.426V251.562C305.426 250.265 304.88 249.616 303.788 249.616C303.564 249.616 303.345 249.644 303.13 249.7C302.925 249.756 302.738 249.84 302.57 249.952C302.402 250.064 302.267 250.209 302.164 250.386C302.071 250.554 302.024 250.755 302.024 250.988V256H300.904V245.64ZM309.421 247.082C309.178 247.082 309.001 247.026 308.889 246.914C308.786 246.793 308.735 246.639 308.735 246.452V246.27C308.735 246.083 308.786 245.934 308.889 245.822C309.001 245.701 309.178 245.64 309.421 245.64C309.664 245.64 309.836 245.701 309.939 245.822C310.051 245.934 310.107 246.083 310.107 246.27V246.452C310.107 246.639 310.051 246.793 309.939 246.914C309.836 247.026 309.664 247.082 309.421 247.082ZM308.861 248.776H309.981V256H308.861V248.776ZM312.361 256V248.776H313.481V249.952H313.537C313.714 249.541 313.962 249.215 314.279 248.972C314.606 248.729 315.04 248.608 315.581 248.608C316.328 248.608 316.916 248.851 317.345 249.336C317.784 249.812 318.003 250.489 318.003 251.366V256H316.883V251.562C316.883 250.265 316.337 249.616 315.245 249.616C315.021 249.616 314.802 249.644 314.587 249.7C314.382 249.756 314.195 249.84 314.027 249.952C313.859 250.064 313.724 250.209 313.621 250.386C313.528 250.554 313.481 250.755 313.481 250.988V256H312.361ZM326.408 256.798C326.408 257.545 326.114 258.091 325.526 258.436C324.947 258.791 324.075 258.968 322.908 258.968C321.779 258.968 320.967 258.814 320.472 258.506C319.977 258.198 319.73 257.759 319.73 257.19C319.73 256.798 319.833 256.49 320.038 256.266C320.243 256.051 320.523 255.893 320.878 255.79V255.636C320.449 255.431 320.234 255.095 320.234 254.628C320.234 254.264 320.351 253.989 320.584 253.802C320.817 253.606 321.116 253.461 321.48 253.368V253.312C321.051 253.107 320.715 252.813 320.472 252.43C320.239 252.047 320.122 251.604 320.122 251.1C320.122 250.736 320.187 250.4 320.318 250.092C320.449 249.784 320.631 249.523 320.864 249.308C321.107 249.084 321.391 248.911 321.718 248.79C322.054 248.669 322.427 248.608 322.838 248.608C323.351 248.608 323.809 248.701 324.21 248.888V248.762C324.21 248.482 324.275 248.253 324.406 248.076C324.537 247.889 324.751 247.796 325.05 247.796H326.128V248.776H324.756V249.238C325.017 249.462 325.218 249.733 325.358 250.05C325.507 250.358 325.582 250.708 325.582 251.1C325.582 251.464 325.517 251.8 325.386 252.108C325.255 252.416 325.069 252.682 324.826 252.906C324.593 253.121 324.308 253.289 323.972 253.41C323.636 253.531 323.263 253.592 322.852 253.592C322.619 253.592 322.385 253.569 322.152 253.522C321.909 253.587 321.69 253.685 321.494 253.816C321.298 253.937 321.2 254.11 321.2 254.334C321.2 254.549 321.303 254.693 321.508 254.768C321.713 254.843 321.979 254.88 322.306 254.88H323.846C324.742 254.88 325.391 255.053 325.792 255.398C326.203 255.734 326.408 256.201 326.408 256.798ZM325.358 256.882C325.358 256.593 325.246 256.359 325.022 256.182C324.807 256.014 324.42 255.93 323.86 255.93H321.452C321.004 256.135 320.78 256.462 320.78 256.91C320.78 257.227 320.897 257.498 321.13 257.722C321.373 257.946 321.779 258.058 322.348 258.058H323.384C324.009 258.058 324.495 257.96 324.84 257.764C325.185 257.568 325.358 257.274 325.358 256.882ZM322.852 252.696C323.328 252.696 323.706 252.584 323.986 252.36C324.266 252.127 324.406 251.772 324.406 251.296V250.904C324.406 250.428 324.266 250.078 323.986 249.854C323.706 249.621 323.328 249.504 322.852 249.504C322.376 249.504 321.998 249.621 321.718 249.854C321.438 250.078 321.298 250.428 321.298 250.904V251.296C321.298 251.772 321.438 252.127 321.718 252.36C321.998 252.584 322.376 252.696 322.852 252.696ZM333.753 256.168C333.268 256.168 332.824 256.079 332.423 255.902C332.022 255.725 331.676 255.473 331.387 255.146C331.107 254.81 330.888 254.413 330.729 253.956C330.57 253.489 330.491 252.967 330.491 252.388C330.491 251.819 330.57 251.301 330.729 250.834C330.888 250.367 331.107 249.971 331.387 249.644C331.676 249.308 332.022 249.051 332.423 248.874C332.824 248.697 333.268 248.608 333.753 248.608C334.238 248.608 334.677 248.697 335.069 248.874C335.47 249.051 335.816 249.308 336.105 249.644C336.394 249.971 336.618 250.367 336.777 250.834C336.936 251.301 337.015 251.819 337.015 252.388C337.015 252.967 336.936 253.489 336.777 253.956C336.618 254.413 336.394 254.81 336.105 255.146C335.816 255.473 335.47 255.725 335.069 255.902C334.677 256.079 334.238 256.168 333.753 256.168ZM333.753 255.174C334.36 255.174 334.854 254.987 335.237 254.614C335.62 254.241 335.811 253.671 335.811 252.906V251.87C335.811 251.105 335.62 250.535 335.237 250.162C334.854 249.789 334.36 249.602 333.753 249.602C333.146 249.602 332.652 249.789 332.269 250.162C331.886 250.535 331.695 251.105 331.695 251.87V252.906C331.695 253.671 331.886 254.241 332.269 254.614C332.652 254.987 333.146 255.174 333.753 255.174ZM340.453 256C340.061 256 339.762 255.893 339.557 255.678C339.361 255.454 339.263 255.165 339.263 254.81V249.756H338.073V248.776H338.745C338.988 248.776 339.151 248.729 339.235 248.636C339.328 248.533 339.375 248.361 339.375 248.118V246.774H340.383V248.776H341.965V249.756H340.383V255.02H341.853V256H340.453ZM343.765 245.64H344.885V249.952H344.941C345.119 249.541 345.366 249.215 345.683 248.972C346.01 248.729 346.444 248.608 346.985 248.608C347.732 248.608 348.32 248.851 348.749 249.336C349.188 249.812 349.407 250.489 349.407 251.366V256H348.287V251.562C348.287 250.265 347.741 249.616 346.649 249.616C346.425 249.616 346.206 249.644 345.991 249.7C345.786 249.756 345.599 249.84 345.431 249.952C345.263 250.064 345.128 250.209 345.025 250.386C344.932 250.554 344.885 250.755 344.885 250.988V256H343.765V245.64ZM354.438 256.168C353.944 256.168 353.496 256.079 353.094 255.902C352.702 255.725 352.362 255.473 352.072 255.146C351.792 254.81 351.573 254.413 351.414 253.956C351.265 253.489 351.19 252.967 351.19 252.388C351.19 251.819 351.265 251.301 351.414 250.834C351.573 250.367 351.792 249.971 352.072 249.644C352.362 249.308 352.702 249.051 353.094 248.874C353.496 248.697 353.944 248.608 354.438 248.608C354.924 248.608 355.358 248.697 355.74 248.874C356.123 249.051 356.45 249.299 356.72 249.616C356.991 249.924 357.196 250.293 357.336 250.722C357.486 251.151 357.56 251.623 357.56 252.136V252.668H352.366V253.004C352.366 253.312 352.413 253.601 352.506 253.872C352.609 254.133 352.749 254.362 352.926 254.558C353.113 254.754 353.337 254.908 353.598 255.02C353.869 255.132 354.172 255.188 354.508 255.188C354.966 255.188 355.362 255.081 355.698 254.866C356.044 254.651 356.31 254.343 356.496 253.942L357.294 254.516C357.061 255.011 356.697 255.412 356.202 255.72C355.708 256.019 355.12 256.168 354.438 256.168ZM354.438 249.546C354.13 249.546 353.85 249.602 353.598 249.714C353.346 249.817 353.127 249.966 352.94 250.162C352.763 250.358 352.623 250.591 352.52 250.862C352.418 251.123 352.366 251.413 352.366 251.73V251.828H356.356V251.674C356.356 251.03 356.179 250.517 355.824 250.134C355.479 249.742 355.017 249.546 354.438 249.546ZM359.406 256V248.776H360.526V250.106H360.596C360.726 249.761 360.96 249.453 361.296 249.182C361.632 248.911 362.094 248.776 362.682 248.776H363.116V249.896H362.458C361.851 249.896 361.375 250.013 361.03 250.246C360.694 250.47 360.526 250.755 360.526 251.1V256H359.406ZM369.451 256C369.059 256 368.76 255.893 368.555 255.678C368.359 255.454 368.261 255.165 368.261 254.81V249.756H367.071V248.776H367.743C367.986 248.776 368.149 248.729 368.233 248.636C368.326 248.533 368.373 248.361 368.373 248.118V246.774H369.381V248.776H370.963V249.756H369.381V255.02H370.851V256H369.451ZM375.439 256.168C374.953 256.168 374.51 256.079 374.109 255.902C373.707 255.725 373.362 255.473 373.073 255.146C372.793 254.81 372.573 254.413 372.415 253.956C372.256 253.489 372.177 252.967 372.177 252.388C372.177 251.819 372.256 251.301 372.415 250.834C372.573 250.367 372.793 249.971 373.073 249.644C373.362 249.308 373.707 249.051 374.109 248.874C374.51 248.697 374.953 248.608 375.439 248.608C375.924 248.608 376.363 248.697 376.755 248.874C377.156 249.051 377.501 249.308 377.791 249.644C378.08 249.971 378.304 250.367 378.463 250.834C378.621 251.301 378.701 251.819 378.701 252.388C378.701 252.967 378.621 253.489 378.463 253.956C378.304 254.413 378.08 254.81 377.791 255.146C377.501 255.473 377.156 255.725 376.755 255.902C376.363 256.079 375.924 256.168 375.439 256.168ZM375.439 255.174C376.045 255.174 376.54 254.987 376.923 254.614C377.305 254.241 377.497 253.671 377.497 252.906V251.87C377.497 251.105 377.305 250.535 376.923 250.162C376.54 249.789 376.045 249.602 375.439 249.602C374.832 249.602 374.337 249.789 373.955 250.162C373.572 250.535 373.381 251.105 373.381 251.87V252.906C373.381 253.671 373.572 254.241 373.955 254.614C374.337 254.987 374.832 255.174 375.439 255.174ZM380.543 245.64H381.663V252.206H381.719L382.825 250.974L384.869 248.776H386.227L383.553 251.632L386.493 256H385.135L382.741 252.318L381.663 253.424V256H380.543V245.64ZM390.409 256.168C389.914 256.168 389.466 256.079 389.065 255.902C388.673 255.725 388.332 255.473 388.043 255.146C387.763 254.81 387.544 254.413 387.385 253.956C387.236 253.489 387.161 252.967 387.161 252.388C387.161 251.819 387.236 251.301 387.385 250.834C387.544 250.367 387.763 249.971 388.043 249.644C388.332 249.308 388.673 249.051 389.065 248.874C389.466 248.697 389.914 248.608 390.409 248.608C390.894 248.608 391.328 248.697 391.711 248.874C392.094 249.051 392.42 249.299 392.691 249.616C392.962 249.924 393.167 250.293 393.307 250.722C393.456 251.151 393.531 251.623 393.531 252.136V252.668H388.337V253.004C388.337 253.312 388.384 253.601 388.477 253.872C388.58 254.133 388.72 254.362 388.897 254.558C389.084 254.754 389.308 254.908 389.569 255.02C389.84 255.132 390.143 255.188 390.479 255.188C390.936 255.188 391.333 255.081 391.669 254.866C392.014 254.651 392.28 254.343 392.467 253.942L393.265 254.516C393.032 255.011 392.668 255.412 392.173 255.72C391.678 256.019 391.09 256.168 390.409 256.168ZM390.409 249.546C390.101 249.546 389.821 249.602 389.569 249.714C389.317 249.817 389.098 249.966 388.911 250.162C388.734 250.358 388.594 250.591 388.491 250.862C388.388 251.123 388.337 251.413 388.337 251.73V251.828H392.327V251.674C392.327 251.03 392.15 250.517 391.795 250.134C391.45 249.742 390.988 249.546 390.409 249.546ZM395.377 256V248.776H396.497V249.952H396.553C396.73 249.541 396.977 249.215 397.295 248.972C397.621 248.729 398.055 248.608 398.597 248.608C399.343 248.608 399.931 248.851 400.361 249.336C400.799 249.812 401.019 250.489 401.019 251.366V256H399.899V251.562C399.899 250.265 399.353 249.616 398.261 249.616C398.037 249.616 397.817 249.644 397.603 249.7C397.397 249.756 397.211 249.84 397.043 249.952C396.875 250.064 396.739 250.209 396.637 250.386C396.543 250.554 396.497 250.755 396.497 250.988V256H395.377ZM405.504 256.168C404.832 256.168 404.267 256.042 403.81 255.79C403.362 255.529 402.974 255.183 402.648 254.754L403.446 254.11C403.726 254.465 404.038 254.74 404.384 254.936C404.729 255.123 405.13 255.216 405.588 255.216C406.064 255.216 406.432 255.113 406.694 254.908C406.964 254.703 407.1 254.413 407.1 254.04C407.1 253.76 407.006 253.522 406.82 253.326C406.642 253.121 406.316 252.981 405.84 252.906L405.266 252.822C404.93 252.775 404.622 252.705 404.342 252.612C404.062 252.509 403.814 252.379 403.6 252.22C403.394 252.052 403.231 251.847 403.11 251.604C402.998 251.361 402.942 251.072 402.942 250.736C402.942 250.381 403.007 250.073 403.138 249.812C403.268 249.541 403.446 249.317 403.67 249.14C403.903 248.963 404.178 248.832 404.496 248.748C404.813 248.655 405.154 248.608 405.518 248.608C406.106 248.608 406.596 248.711 406.988 248.916C407.389 249.121 407.739 249.406 408.038 249.77L407.296 250.442C407.137 250.218 406.904 250.017 406.596 249.84C406.288 249.653 405.9 249.56 405.434 249.56C404.967 249.56 404.612 249.663 404.37 249.868C404.136 250.064 404.02 250.335 404.02 250.68C404.02 251.035 404.136 251.291 404.37 251.45C404.612 251.609 404.958 251.725 405.406 251.8L405.966 251.884C406.768 252.005 407.338 252.239 407.674 252.584C408.01 252.92 408.178 253.363 408.178 253.914C408.178 254.614 407.94 255.165 407.464 255.566C406.988 255.967 406.334 256.168 405.504 256.168Z" fill="#979995"/>
</svg>
