<svg xmlns="http://www.w3.org/2000/svg" width="140" height="141" viewBox="0 0 140 141" fill="none">
    <g opacity="0.25">
        <path
            d="M78.4008 50.1C74.1008 48.9 69.7008 47.8 65.5008 47V48.1C69.7008 48.9 73.9008 49.9 78.2008 51.1C82.4008 52.3 86.4008 53.7 90.2008 55.2C90.3008 54.9 90.5008 54.6 90.6008 54.2C86.7008 52.8 82.6008 51.3 78.4008 50.1ZM44.4008 45V46.1C44.6008 46.1 44.9008 46.1 45.2008 46.1C47.5008 46.1 49.9008 46.2 52.4008 46.4V45.3C49.6008 45.1 46.9008 45 44.4008 45ZM111.001 64.9C110.601 65.1 110.301 65.2 110.001 65.4C113.301 67.6 116.301 69.9 118.901 72.2C127.301 79.8 131.501 88 129.501 95.1C129.501 95.1 129.501 95.1 129.501 95.2C127.701 101.7 120.701 106.4 110.001 108.5C109.801 108.5 109.701 108.5 109.501 108.6C109.001 108.7 108.301 108.8 107.801 108.9C107.601 108.9 107.401 109 107.201 109C106.701 109.1 106.201 109.1 105.701 109.2C105.401 109.2 104.901 109.3 104.601 109.3C104.001 109.4 103.301 109.4 102.701 109.5C102.401 109.5 102.201 109.5 101.801 109.6C100.901 109.6 100.201 109.7 99.3008 109.7H99.0008C98.1008 109.7 97.4008 109.8 96.5008 109.8H93.5008C92.5008 109.8 91.6008 109.8 90.7008 109.7H90.6008C89.6008 109.7 88.7008 109.6 87.7008 109.5H87.6008C86.6008 109.4 85.7008 109.3 84.7008 109.2C84.6008 109.2 84.6008 109.2 84.5008 109.2C83.5008 109.1 82.7008 109 81.7008 108.9H81.4008C80.5008 108.8 79.7008 108.7 78.8008 108.5C78.6008 108.5 78.4008 108.4 78.2008 108.4C77.4008 108.3 76.7008 108.2 76.1008 108C75.8008 107.9 75.4008 107.9 75.0008 107.8C74.5008 107.7 73.8008 107.6 73.3008 107.5C72.8008 107.4 72.3008 107.3 71.8008 107.2C71.5008 107.1 71.0008 107.1 70.7008 107C70.1008 106.8 69.3008 106.7 68.6008 106.5C66.7008 106.1 64.6008 105.5 62.7008 104.9C59.7008 104 56.7008 103.1 53.9008 102C53.9008 102 53.8008 102 53.8008 101.9C52.9008 101.6 52.1008 101.2 51.2008 100.9C51.1008 100.9 51.0008 100.8 50.9008 100.8C50.0008 100.5 49.3008 100.1 48.5008 99.8C48.4008 99.7 48.3008 99.7 48.2008 99.7C47.4008 99.4 46.7008 99.1 45.9008 98.7C45.6008 98.5 45.5008 98.5 45.4008 98.5C44.6008 98.2 43.8008 97.7 43.0008 97.4C42.9008 97.4 42.8008 97.3 42.8008 97.3C41.9008 96.9 41.2008 96.4 40.3008 96.1C39.2008 95.6 38.3008 95 37.3008 94.5C34.3008 92.9 31.6008 91.2 29.0008 89.3C28.8008 89.2 28.7008 89.1 28.5008 88.9C28.1008 88.6 27.5008 88.3 27.1008 87.9C26.7008 87.6 26.3008 87.4 25.9008 87H25.4008C25.3008 86.9 25.2008 86.8 25.1008 86.8C25.1008 86.8 25.1008 86.8 25.0008 86.7C19.9008 82.7 16.2008 78.5 13.7008 74.4L13.6008 74.3C13.6008 74.3 13.6008 74.3 13.6008 74.2C10.8008 69.5 9.90082 64.8 11.1008 60.8C13.0008 54.2 20.1008 49.5 31.1008 47.3V46.2C19.5008 48.5 12.0008 53.4 10.0008 60.5L7.90082 68C6.60082 72.3 7.60082 77.2 10.4008 82.1C10.4008 82.1 10.4008 82.1 10.4008 82.2V82.3C11.8008 84.6 13.6008 86.9 15.8008 89.3C17.5008 91.1 19.6008 93 21.8008 94.8C21.8008 95 21.9008 95.2 22.2008 95.3H22.4008C25.4008 97.7 28.9008 99.9 32.5008 102.1C32.5008 102.3 32.7008 102.5 32.9008 102.5C33.0008 102.5 33.0008 102.5 33.0008 102.5C33.1008 102.5 33.1008 102.5 33.2008 102.4C41.0008 106.8 50.1008 110.6 59.6008 113.4C71.2008 116.8 82.8008 118.6 93.1008 118.6C101.401 118.6 108.801 117.5 114.901 115.1C117.401 114.1 119.601 113.1 121.401 111.8C121.401 111.8 121.501 111.7 121.601 111.7C121.601 111.7 121.601 111.7 121.701 111.6C124.901 109.2 127.101 106.3 128.101 103.1L130.301 95.8C130.301 95.7 130.401 95.6 130.401 95.6C133.201 86.1 125.301 74.6 111.001 64.9ZM8.80082 68.2L9.40082 65.8V66.2C9.40082 66.3 9.40082 66.3 9.40082 66.4C9.70082 69 10.7008 71.7 12.3008 74.4L10.5008 80.5C8.30082 76.1 7.70082 72 8.80082 68.2ZM11.4008 81.8L13.2008 75.6C14.5008 77.5 16.0008 79.5 17.8008 81.4L16.0008 87.7C14.1008 85.8 12.6008 83.7 11.4008 81.8ZM22.1008 93.6C20.1008 92 18.3008 90.4 16.8008 88.8L18.6008 82.4C20.2008 84 21.9008 85.6 23.9008 87.1L22.1008 93.6ZM33.0008 101C29.5008 98.9 26.1008 96.7 23.1008 94.3L25.0008 87.8C28.0008 90.2 31.4008 92.3 34.9008 94.4L33.0008 101ZM33.9008 101.5L35.8008 95C38.8008 96.7 41.9008 98.2 45.3008 99.7L43.4008 106.3C40.1008 104.8 36.8008 103.2 33.9008 101.5ZM44.4008 106.8L46.3008 100.3C50.4008 102.1 54.7008 103.8 59.2008 105.1L57.3008 111.7C52.8008 110.2 48.5008 108.5 44.4008 106.8ZM60.1008 112.5C59.5008 112.3 58.9008 112.1 58.3008 112L60.2008 105.4C60.7008 105.6 61.4008 105.7 62.0008 105.9C63.4008 106.3 64.8008 106.7 66.2008 107.1C66.3008 107.1 66.5008 107.2 66.7008 107.2C67.9008 107.5 69.1008 107.7 70.1008 108.1C70.4008 108.2 70.6008 108.2 71.0008 108.3C72.2008 108.5 73.5008 108.8 74.7008 109.1C75.0008 109.2 75.5008 109.2 75.8008 109.3C76.4008 109.4 77.2008 109.5 77.8008 109.6L75.9008 116.2C70.8008 115.3 65.5008 114 60.1008 112.5ZM77.0008 116.3L78.9008 109.8V109.7C79.4008 109.8 79.9008 109.8 80.4008 109.9C80.9008 110 81.5008 110 82.0008 110.1C82.8008 110.2 83.5008 110.3 84.2008 110.3C84.5008 110.3 84.8008 110.4 85.3008 110.4C86.7008 110.5 88.2008 110.6 89.6008 110.7C89.9008 110.7 90.4008 110.7 90.8008 110.8C91.4008 110.8 92.2008 110.8 92.8008 110.9H97.5008L95.6008 117.5C89.6008 117.7 83.5008 117.2 77.0008 116.3ZM96.6008 117.6L98.5008 111.1H99.9008C100.401 111.1 101.101 111.1 101.601 111C102.001 111 102.601 110.9 103.001 110.9C103.401 110.9 103.901 110.8 104.301 110.8C104.801 110.8 105.301 110.7 105.801 110.6C106.201 110.6 106.701 110.5 107.001 110.4C107.201 110.4 107.501 110.3 107.801 110.3C108.101 110.3 108.501 110.2 108.901 110.1L107.001 116.5C103.701 117 100.301 117.3 96.6008 117.6ZM114.401 114.3C112.501 115.1 110.301 115.6 108.201 116.1L110.001 109.6C110.301 109.5 110.601 109.5 111.001 109.4C111.401 109.3 111.901 109.2 112.401 109.1C112.601 109.1 112.801 109 113.001 108.9C113.401 108.8 113.901 108.7 114.301 108.6C114.901 108.4 115.701 108.2 116.301 108L114.401 114.3ZM120.901 111C119.401 112.1 117.701 113.1 115.601 113.9L117.401 107.7C119.301 106.9 121.101 106.1 122.601 105.1L120.901 111ZM127.201 102.9C126.401 105.5 124.801 107.9 122.501 109.9L124.101 104.4C124.101 104.3 124.101 104.2 124.101 104.2C125.501 103 126.901 101.8 127.901 100.5L127.201 102.9Z"
            fill="#686a66" />
    </g>
    <g opacity="0.4">
        <path
            d="M99.3992 104.4C97.6992 104.6 95.8992 104.7 94.0992 104.7V106.2C95.8992 106.2 97.7992 106 99.4992 105.9L99.3992 104.4ZM83.6992 104.3L83.5992 105.8C85.3992 106 87.0992 106.1 88.8992 106.1L88.9992 104.6C87.0992 104.6 85.3992 104.5 83.6992 104.3ZM73.1992 102.8L72.8992 104.3C74.5992 104.6 76.4992 104.9 78.1992 105.3L78.3992 103.8C76.6992 103.5 74.9992 103.1 73.1992 102.8ZM109.499 102.2C107.999 102.7 106.299 103.2 104.399 103.6L104.699 105.1C106.499 104.7 108.299 104.2 109.899 103.7L109.499 102.2ZM62.9992 100.2L62.5992 101.6C64.2992 102.1 66.0992 102.6 67.7992 103L68.0992 101.5C66.4992 101.2 64.6992 100.7 62.9992 100.2ZM118.099 96.9004C116.999 98.1004 115.699 99.2004 114.099 100.1L114.899 101.4C116.599 100.4 117.999 99.2004 119.199 97.9004L118.099 96.9004ZM53.0992 96.7004L52.5992 98.1004C54.1992 98.8004 55.8992 99.4004 57.5992 100L58.0992 98.6004C56.2992 98.0004 54.6992 97.3004 53.0992 96.7004ZM43.4992 92.2004L42.6992 93.5004C44.1992 94.4004 45.7992 95.1004 47.4992 95.9004L48.1992 94.5004C46.5992 93.9004 44.9992 93.1004 43.4992 92.2004ZM122.499 87.5004L120.999 87.7004C121.099 88.2004 121.099 88.9004 121.099 89.4004C121.099 90.5004 120.999 91.6004 120.699 92.6004L122.199 93.0004C122.499 91.8004 122.699 90.6004 122.699 89.3004C122.499 88.7004 122.499 88.2004 122.499 87.5004ZM34.5992 86.9004L33.6992 88.0004C35.0992 89.0004 36.5992 89.9004 38.1992 90.9004L38.9992 89.6004C37.4992 88.8004 35.9992 87.8004 34.5992 86.9004ZM26.4992 80.1004L25.3992 81.2004C26.5992 82.4004 27.9992 83.7004 29.3992 84.9004L30.3992 83.7004C28.9992 82.4004 27.6992 81.3004 26.4992 80.1004ZM117.899 77.6004L116.699 78.5004C117.799 80.0004 118.699 81.4004 119.399 82.9004L120.799 82.2004C120.099 80.7004 119.099 79.1004 117.899 77.6004ZM20.2992 71.8004L18.9992 72.4004C19.7992 73.9004 20.6992 75.5004 21.8992 77.0004L23.0992 76.1004C21.9992 74.7004 21.0992 73.3004 20.2992 71.8004ZM110.399 69.8004L109.399 71.0004C110.799 72.2004 112.099 73.4004 113.299 74.5004L114.399 73.4004C113.199 72.3004 111.899 71.0004 110.399 69.8004ZM19.1992 62.1004L18.3992 61.9004L17.5992 61.8004C17.3992 62.9004 17.1992 64.1004 17.1992 65.3004C17.1992 66.0004 17.1992 66.6004 17.2992 67.2004L18.7992 67.0004C18.6992 66.5004 18.6992 65.8004 18.6992 65.3004C18.6992 64.1004 18.9992 63.2004 19.1992 62.1004ZM91.8992 59.4004L91.4992 60.0004C92.0992 60.3004 92.6992 60.6004 93.2992 60.8004C93.4992 60.5004 93.6992 60.2004 93.9992 60.0004L91.8992 59.4004ZM82.3992 54.7004L81.8992 56.1004C83.4992 56.6004 85.1992 57.3004 86.8992 57.9004L87.3992 56.5004C85.6992 56.0004 83.9992 55.3004 82.3992 54.7004ZM24.8992 53.3004C23.1992 54.3004 21.7992 55.5004 20.5992 56.8004L21.7992 57.8004C22.8992 56.6004 24.1992 55.5004 25.6992 54.7004L24.8992 53.3004ZM72.1992 51.6004L71.7992 53.0004C73.3992 53.4004 75.0992 53.9004 76.8992 54.4004L77.0992 53.6004L77.2992 52.8004C75.4992 52.5004 73.7992 52.1004 72.1992 51.6004ZM29.7992 51.0004L30.2992 52.4004C30.4992 52.3004 30.7992 52.2004 31.0992 52.1004V50.5004C30.6992 50.7004 30.1992 50.9004 29.7992 51.0004ZM65.4992 50.1004C65.4992 50.6004 65.3992 50.9004 65.0992 51.1004C64.8992 51.3004 64.6992 51.4004 64.4992 51.4004C65.1992 51.5004 65.8992 51.7004 66.4992 51.9004L66.7992 50.4004C66.3992 50.4004 65.9992 50.2004 65.4992 50.1004ZM50.9992 48.4004L50.8992 49.9004C51.3992 49.9004 51.7992 50.0004 52.1992 50.0004V48.5004C51.8992 48.5004 51.4992 48.4004 50.9992 48.4004ZM45.6992 48.4004C45.2992 48.4004 44.7992 48.4004 44.3992 48.4004V49.9004C44.8992 49.9004 45.2992 49.9004 45.7992 49.9004L45.6992 48.4004Z"
            fill="#686a66" />
    </g>
    <g opacity="0.45">
        <path
            d="M104.3 72.2008L90.2 67.9008L90.6 66.5008C91.3 64.2008 92.1 62.2008 93.2 61.0008C94.2 59.6008 95.4 58.5008 96.8 57.7008C98.2 56.7008 101.3 55.4008 105.9 53.4008C108.4 52.4008 109.8 51.2008 110.2 49.8008C110.6 48.4008 110.5 47.3008 109.9 46.2008C109.3 45.2008 108.2 44.4008 106.6 44.0008C104.8 43.4008 103.3 43.6008 101.8 44.4008C100.3 45.2008 98.9 47.0008 97.8 49.8008L84 43.8008C86.1 38.7008 89.2 35.0008 93.5 32.8008C97.8 30.6008 103.4 30.5008 110.3 32.5008C115.7 34.2008 119.7 36.5008 122.3 39.8008C125.9 44.2008 126.8 48.9008 125.3 53.9008C124.6 56.0008 123.5 57.9008 121.7 59.4008C119.9 61.1008 116.9 62.7008 112.5 64.4008C109.5 65.6008 107.4 66.7008 106.4 67.7008C105.6 68.9008 104.9 70.4008 104.3 72.2008ZM88.7 71.6008L103.7 76.1008L99.7 89.3008L84.7 84.8008L88.7 71.6008Z"
            fill="#686a66" />
    </g>
    <g opacity="0.45">
        <path
            d="M65.0988 30.8C64.8988 30.6 64.4988 30.4 64.1988 30.4H60.1988V22.5H57.5988V30.4H53.5988C53.1988 30.4 52.8988 30.5 52.6988 30.8C52.4988 31.1 52.2988 31.4 52.2988 31.7V50.2C52.2988 50.6 52.3988 50.9 52.6988 51.1C52.8988 51.3 53.2988 51.5 53.5988 51.5H57.5988V59.4H60.1988V51.5H64.1988C64.5988 51.5 64.8988 51.4 65.0988 51.1C65.2988 50.9 65.4988 50.5 65.4988 50.2V31.7C65.4988 31.4 65.3988 31.1 65.0988 30.8Z"
            fill="#686a66" />
        <path
            d="M42.9996 22.4996H38.9996V14.5996H36.3996V22.4996H32.3996C31.9996 22.4996 31.6996 22.5996 31.4996 22.8996C31.2996 23.0996 31.0996 23.4996 31.0996 23.7996V58.1996C31.0996 58.5996 31.1996 58.8996 31.4996 59.0996C31.6996 59.2996 32.0996 59.4996 32.3996 59.4996H36.3996V67.3996H38.9996V59.4996H42.9996C43.3996 59.4996 43.6996 59.3996 43.8996 59.0996C44.0996 58.8996 44.2996 58.4996 44.2996 58.1996V23.7996C44.2996 23.3996 44.1996 23.0996 43.8996 22.8996C43.6996 22.5996 43.3996 22.4996 42.9996 22.4996Z"
            fill="#686a66" />
    </g>
</svg>