<svg xmlns="http://www.w3.org/2000/svg" width="76" height="98" viewBox="0 0 76 98" fill="none">
    <path d="M5.79243 97.5219C4.58205 97.2429 3.47024 96.6142 2.6073 95.7255C1.45304 94.5353 1.20249 93.3957 1.64852 92.6497L2.54745 91.0576C2.54745 91.0576 2.56629 91.0466 2.57457 91.0573L3.16462 91.8143C3.28647 91.7992 3.41109 91.7895 3.54395 91.7878C5.38504 91.7642 7.62174 92.9838 8.63969 94.5405L9.93244 95.1102L8.91882 96.8523C8.46135 97.5525 7.37 97.8853 5.79511 97.5192L5.79243 97.5219Z" fill="#F7F7F7"/>
    <path d="M10.2918 94.9951L8.80816 94.3414C7.72184 92.7396 5.42539 91.5127 3.54091 91.5369C3.45143 91.538 3.3647 91.5418 3.28075 91.551L2.69344 90.7966L2.40887 90.8111L2.32912 90.9364L1.4302 92.5285C0.888588 93.4351 1.26004 94.6975 2.42803 95.901C3.32945 96.8297 4.47404 97.477 5.73883 97.7688C7.31098 98.1323 8.57916 97.8431 9.13234 96.9931L10.2945 94.995L10.2918 94.9951ZM2.59388 91.4923L3.05161 92.0808L3.19243 92.0655C3.30617 92.0532 3.42266 92.0436 3.54468 92.0421C5.299 92.0196 7.44271 93.1782 8.42472 94.6813L8.46619 94.7429L9.57074 95.2286L8.69775 96.7285C8.27223 97.3823 7.2064 97.5905 5.84915 97.2783C4.67955 97.0069 3.61967 96.4099 2.78694 95.5506C1.80307 94.5365 1.44774 93.4739 1.86461 92.7796L2.59117 91.4923L2.59388 91.4923Z" fill="#DFE0DE"/>
    <path d="M10.2918 94.9951L8.80816 94.3414C7.72184 92.7396 5.42539 91.5127 3.54091 91.5369C3.45143 91.538 3.3647 91.5418 3.28075 91.551L2.69344 90.7966L2.40887 90.8111L2.32912 90.9364L1.4302 92.5285C0.888588 93.4351 1.26004 94.6975 2.42803 95.901C2.73859 96.2213 3.08946 96.514 3.4725 96.7765L3.82265 97.0125L3.8688 96.5931C3.8881 96.4065 3.94289 96.2383 4.0305 96.0912L4.75706 94.804L5.21479 95.3925L5.35561 95.3772C5.46936 95.3649 5.58584 95.3553 5.70786 95.3538C6.76534 95.3402 8.03192 95.7725 9.09631 96.5099L9.3207 96.6664L10.2918 94.9951ZM2.59388 91.4923L3.05161 92.0808L3.19243 92.0655C3.30617 92.0532 3.42266 92.0436 3.54468 92.0421C5.299 92.0196 7.44271 93.1782 8.42472 94.6813L8.46619 94.7429L9.57074 95.2286L9.15415 95.9445C8.05496 95.2426 6.78326 94.8347 5.69867 94.8486C5.60919 94.8498 5.52246 94.8536 5.43851 94.8628L4.85391 94.1084L4.57202 94.1201L4.49227 94.2454L3.59067 95.8402C3.5349 95.9328 3.49009 96.0333 3.45348 96.1392C3.21519 95.9558 2.993 95.7587 2.79236 95.5505C1.80849 94.5365 1.45316 93.4738 1.87003 92.7795L2.59659 91.4923L2.59388 91.4923Z" fill="#DFE0DE"/>
    <path d="M8.88602 96.8558C8.42855 97.556 7.3372 97.8888 5.7623 97.5226C5.37877 97.433 5.0056 97.3054 4.64564 97.1506L5.58504 95.5418L8.32995 94.7312L9.67679 95.5001L8.88605 96.8585L8.88602 96.8558Z" fill="#DFE0DE"/>
    <path d="M7.97714 96.029C6.0791 96.0534 3.75735 94.7566 2.78734 93.1317C2.27189 92.2711 2.24836 91.4932 2.61558 90.9455C2.61558 90.9455 2.7756 90.7354 2.86682 90.6586C3.5386 89.9637 4.09335 89.8701 4.09335 89.8701L4.31397 90.1564C4.36549 90.1557 4.41419 90.147 4.46842 90.1463C6.34747 90.1222 8.6418 91.395 9.62776 92.9954L10.2063 93.2798C10.2063 93.2798 10.4774 94.5353 9.79546 95.2871C9.45685 95.7399 8.83667 96.018 7.97985 96.029L7.97714 96.029Z" fill="#F7F7F7"/>
    <path d="M10.5119 93.8193C10.5077 93.4897 10.4585 93.2499 10.4528 93.2257L10.4269 93.1071L9.80463 92.8017C8.74466 91.1402 6.41508 89.8678 4.46553 89.8928C4.45468 89.8929 4.44384 89.8931 4.43299 89.8932L4.20135 89.5936L4.05253 89.6198C4.02548 89.6255 3.40858 89.7361 2.68594 90.483C2.5974 90.5571 2.44805 90.7535 2.41871 90.7917C1.97163 91.4567 2.0319 92.3502 2.57242 93.2619C3.58125 94.9538 6.00952 96.3087 7.98347 96.2833C8.8647 96.272 9.56882 95.9847 9.96907 95.4744L9.98245 95.4607C10.429 94.9686 10.5181 94.3002 10.512 93.8247L10.5119 93.8193ZM9.97834 93.4479C10.0144 93.723 10.0696 94.4302 9.73723 94.9478L9.59049 95.1361C9.28922 95.5398 8.71722 95.7687 7.97699 95.7782C6.16302 95.8015 3.93414 94.5575 3.00845 93.005C2.57055 92.2703 2.50464 91.5714 2.82927 91.0863C2.87996 91.0209 2.98676 90.8898 3.03504 90.8487C3.45256 90.4164 3.81365 90.2362 3.99984 90.1635L4.19564 90.4177L4.38805 90.4071C4.41517 90.4068 4.44225 90.4037 4.47208 90.4033C6.25622 90.3805 8.4713 91.6057 9.41294 93.1336L9.4517 93.1953L9.97844 93.456L9.97834 93.4479Z" fill="#DFE0DE"/>
    <path d="M7.97744 96.0291C7.1423 96.0398 6.22792 95.7922 5.37918 95.3762C5.34644 95.3604 5.35391 95.309 5.39181 95.3031C5.95729 95.2013 6.37998 94.9608 6.63588 94.6144C7.27238 93.9173 7.08155 92.7822 7.05243 92.6259C7.05226 92.6124 7.04131 92.6044 7.03039 92.5992L6.47911 92.328C6.47911 92.328 6.46545 92.32 6.46263 92.312C6.16623 91.8267 5.92929 91.1138 5.69179 90.3576C5.68328 90.328 5.71001 90.298 5.73994 90.3057C7.27987 90.6939 8.84715 91.7356 9.61708 92.9848C9.61986 92.9902 9.62536 92.9955 9.63081 92.9981L10.1821 93.2693C10.1821 93.2693 10.2013 93.2826 10.2041 93.2961C10.2333 93.4524 10.4241 94.5874 9.7903 95.2845C9.45169 95.7373 8.83152 96.0155 7.97469 96.0265L7.97744 96.0291Z" fill="#DFE0DE"/>
    <path d="M8.83922 93.8297C7.22047 93.8504 5.23743 92.7438 4.40879 91.3576C4.07896 90.8026 3.98561 90.2904 4.09412 89.8702C4.09412 89.8702 7.66298 80.9842 12.958 71.5735C17.9959 62.6254 28.5373 45.5014 29.4701 44.0143C29.5126 43.9489 29.5964 43.9289 29.6648 43.9685L35.7359 47.5003C35.7359 47.5003 26.2257 67.8424 21.2697 76.6247C17.743 82.8732 11.7934 91.7844 10.5099 92.9923C10.4055 93.099 10.3037 93.1949 10.2098 93.2799C9.87735 93.5759 9.46213 93.765 9.02075 93.8165C8.95846 93.8227 8.89888 93.8289 8.84193 93.8296L8.83922 93.8297Z" fill="#F7F7F7"/>
    <path d="M36.0595 47.3989L29.7889 43.7508C29.6031 43.6424 29.3679 43.6995 29.2536 43.8793C28.4191 45.2112 17.8033 62.4496 12.7362 71.4494C7.49421 80.7649 3.89328 89.6864 3.85646 89.7761C3.7169 90.3128 3.83551 90.8922 4.19024 91.4847C5.0577 92.938 7.14454 94.1027 8.83921 94.081C8.90158 94.0802 8.96929 94.0739 9.04243 94.0676C9.5353 94.0126 9.99636 93.8041 10.3717 93.4696C10.471 93.3819 10.5754 93.2806 10.6852 93.1711C12.0009 91.9331 17.9212 83.0655 21.4851 76.7517C26.3907 68.0619 35.8669 47.8121 35.9619 47.6109L36.0596 47.4016L36.0595 47.3989ZM29.627 44.2392L35.4086 47.6018C34.3896 49.7763 25.6751 68.3007 21.0479 76.5006C17.5743 82.6566 11.6035 91.6112 10.3335 92.8109C10.2264 92.9203 10.1272 93.0135 10.0388 93.093C9.74116 93.3589 9.37715 93.5229 8.9899 93.5657C8.93574 93.5718 8.88425 93.5752 8.83816 93.5758C7.30346 93.5954 5.4133 92.5417 4.62899 91.2278C4.34628 90.7532 4.24563 90.306 4.34118 89.932C4.36757 89.8749 7.95533 80.9832 13.1815 71.6977C18.1478 62.8748 28.4579 46.1212 29.6297 44.2392L29.627 44.2392Z" fill="#DFE0DE"/>
    <path d="M36.0595 47.3989L29.7889 43.7508C29.6031 43.6424 29.3679 43.6995 29.2536 43.8793C28.4191 45.2112 17.8033 62.4496 12.7362 71.4494C7.49421 80.7649 3.89328 89.6864 3.85646 89.7761C3.7169 90.3128 3.83551 90.8922 4.19024 91.4847C4.61702 92.1979 5.33876 92.8614 6.22368 93.3499L6.70166 93.614L6.59718 93.0804C6.55941 92.8836 6.55705 92.6999 6.59558 92.5319C6.84405 92.0289 10.7517 84.1841 15.8373 75.1462C18.3058 70.762 30.5188 49.0721 31.8892 46.8148L35.3811 48.845L36.0622 47.3962L36.0595 47.3989ZM29.627 44.2392L35.4059 47.6018L35.1551 48.1346L32.0512 46.3291C31.8654 46.2207 31.6274 46.2778 31.5159 46.4602C30.4688 48.1298 17.9031 70.4457 15.3948 74.9034C10.1554 84.2107 6.16631 92.2591 6.12664 92.338L6.10828 92.3869C6.08502 92.4763 6.06997 92.5711 6.06308 92.6684C5.44221 92.2576 4.93953 91.7588 4.62631 91.2306C4.34361 90.756 4.24296 90.3088 4.3385 89.9347C4.36489 89.8776 7.95265 80.986 13.1788 71.7004C18.1451 62.8775 28.4552 46.1239 29.6271 44.2419L29.627 44.2392Z" fill="#DFE0DE"/>
    <path d="M6.9903 93.0376C8.27379 91.8269 13.565 82.5379 17.0917 76.2893C22.0504 67.5071 32.2163 47.5429 32.2163 47.5429L35.7304 47.4978C35.7304 47.4978 26.2202 67.84 21.2642 76.6222C17.7374 82.8707 11.7879 91.7819 10.5043 92.9898C10.3999 93.0965 10.2981 93.1924 10.2043 93.2774C9.8718 93.5734 9.45659 93.7625 9.01521 93.8141C8.95292 93.8203 8.89333 93.8264 8.83639 93.8272C8.1531 93.8359 7.4021 93.6402 6.70363 93.3114C6.79479 93.2292 6.89126 93.1388 6.9903 93.0376Z" fill="#DFE0DE"/>
    <path d="M21.6228 76.4886L21.1857 76.2348C20.8592 76.7902 20.1555 77.1045 19.2037 77.1167C17.0969 77.1437 14.5047 75.6964 13.4267 73.8919C12.9251 73.0527 12.8337 72.2757 13.1708 71.7013L12.7336 71.4476C12.301 72.1853 12.392 73.146 12.9906 74.1487C14.1491 76.0927 16.9407 77.651 19.2102 77.6219C20.349 77.6073 21.2063 77.2045 21.6256 76.4886L21.6228 76.4886Z" fill="#DFE0DE"/>
    <path d="M34.9566 49.7638L34.5195 49.51C34.2806 49.9183 33.7575 50.1493 33.0471 50.1584C31.4473 50.1789 29.4806 49.0802 28.6631 47.71C28.2889 47.0826 28.2192 46.508 28.4687 46.0888L28.0316 45.835C27.6865 46.4203 27.7586 47.1786 28.2298 47.9696C29.1305 49.4764 31.2938 50.6861 33.0563 50.6635C33.9511 50.652 34.6277 50.3327 34.9594 49.7637L34.9566 49.7638Z" fill="#DFE0DE"/>
    <path d="M20.6599 77.2652L20.5088 76.9078C20.4927 76.9161 18.7902 77.6025 17.1802 76.8181L17.0083 77.1661C18.7794 78.0296 20.5816 77.2959 20.6571 77.2652L20.6599 77.2652Z" fill="#F7F7F7"/>
    <path d="M34.1704 50.3766L34.0113 50.022C34.0113 50.022 32.9189 50.4845 31.2619 49.8492L31.1228 50.2104C32.9433 50.9084 34.1219 50.3989 34.1704 50.3766Z" fill="#F7F7F7"/>
    <path d="M10.2238 93.518L9.98394 93.2131C9.02808 93.9602 7.45347 93.405 7.4371 93.3971L7.30346 93.7608C7.37701 93.7869 9.09873 94.3943 10.221 93.5154L10.2238 93.518Z" fill="#F7F7F7"/>
    <path d="M9.4743 95.8344L9.25861 95.5102C7.98665 96.3506 6.06881 95.4647 6.04973 95.4568L5.88337 95.8075C5.9707 95.8496 8.02216 96.7932 9.4743 95.8344Z" fill="#F7F7F7"/>
    <path d="M38.3575 51.4032C38.0406 51.4685 37.6977 51.5035 37.3287 51.5083C34.2698 51.5475 30.5224 49.4563 28.9616 46.8367C28.5008 46.0665 28.2833 44.6908 28.2833 44.6908C27.9212 42.0303 29.4972 38.6455 29.4972 38.6455L44.3161 46.89C42.7967 49.0998 40.6729 50.531 39.3575 51.0585C39.0724 51.2051 38.746 51.3267 38.3728 51.403L38.3626 51.4031L38.3575 51.4032Z" fill="#F7F7F7"/>
    <path d="M45.0007 46.728L29.2734 37.9795L29.059 38.4468C28.9942 38.5906 27.4285 41.9804 27.8075 44.7581C27.8187 44.8295 28.0469 46.2459 28.5496 47.0819C30.1889 49.8281 34.1324 52.0291 37.3349 51.9881C37.6782 51.9837 38.0109 51.9539 38.3279 51.8988L38.3484 51.8985L38.4864 51.8661C38.8748 51.7845 39.2422 51.6573 39.5731 51.4845C40.9293 50.9413 43.1243 49.4682 44.7091 47.1657L45.0059 46.733L45.0007 46.728ZM29.7261 39.3165L43.6108 47.0419C42.2601 48.8156 40.447 50.0999 39.1724 50.6115C38.872 50.7634 38.5863 50.8641 38.2745 50.9294L38.2591 50.9296C37.9627 50.9946 37.6505 51.0242 37.3226 51.0284C34.4224 51.0656 30.8506 49.0742 29.3684 46.5914C29.0332 46.0239 28.8095 44.9699 28.7537 44.6132C28.4934 42.6969 29.329 40.3171 29.7261 39.3165Z" fill="#DFE0DE"/>
    <path d="M40.5558 48.526C44.3885 48.4769 45.9118 45.7769 43.9479 42.4936C41.984 39.2104 37.292 36.5901 33.4542 36.6393C29.6164 36.6885 28.0982 39.3884 30.0621 42.6717C32.0209 45.955 36.718 48.5752 40.5558 48.526Z" fill="#F7F7F7"/>
    <path d="M45.2827 45.1466C45.2711 44.243 44.9612 43.2565 44.3589 42.2431C42.3268 38.8331 37.4335 36.1031 33.4522 36.1541C31.418 36.1802 29.9002 36.9093 29.1685 38.2002C28.442 39.4962 28.6121 41.1686 29.6491 42.9066C31.6812 46.3166 36.5745 49.0466 40.5558 48.9956C42.59 48.9695 44.1078 48.2404 44.8343 46.9495C45.14 46.4095 45.286 45.8001 45.2776 45.1467L45.2827 45.1466ZM29.6784 39.996C29.6721 39.5059 29.7791 39.0603 29.9996 38.6695C30.5558 37.6821 31.7838 37.1302 33.4593 37.1088C37.1332 37.0617 41.6548 39.582 43.535 42.7336C44.3887 44.1676 44.5596 45.503 44.0034 46.4905C43.4472 47.4779 42.2192 48.0297 40.5437 48.0512C36.8647 48.0984 32.3482 45.5779 30.468 42.4263C29.9547 41.565 29.6879 40.7362 29.6785 40.0011L29.6784 39.996Z" fill="#DFE0DE"/>
    <path d="M20.8878 21.0286L18.9244 17.7811L18.8873 17.6846C17.9475 15.9352 18.1436 13.6454 19.6267 11.0072C22.7032 5.53532 30.2968 1.03691 36.5889 0.956232C39.6274 0.917274 41.7927 1.92085 42.8901 3.57632L44.9316 6.91985L43.5443 7.83113C43.3509 8.7373 42.9789 9.70193 42.4178 10.7047C39.3413 16.1714 31.7477 20.6699 25.4555 20.7505C24.3897 20.7642 23.4452 20.6436 22.6018 20.4144L20.8927 21.0133L20.8878 21.0286Z" fill="#F7F7F7"/>
    <path d="M45.5737 7.07021L43.2964 3.33146C42.0526 1.44811 39.6721 0.442192 36.5823 0.481807C30.1467 0.564323 22.3548 5.18271 19.2081 10.7729C17.6749 13.4985 17.4195 15.9627 18.4643 17.9099L18.5119 18.0267L20.6743 21.6035L22.613 20.9251C23.4973 21.1436 24.4518 21.2488 25.451 21.2359C31.8866 21.1534 39.6785 16.535 42.8201 10.9449C43.3562 9.99353 43.7387 9.04919 43.9524 8.12744L45.5634 7.07034L45.5737 7.07021ZM18.8007 15.3732C18.7848 14.1276 19.2025 12.7335 20.0443 11.237C23.0406 5.90913 30.4664 1.51498 36.5946 1.4364C39.3461 1.40112 41.4378 2.25758 42.4882 3.84217L44.2785 6.78048L43.1096 7.54599L43.071 7.7354C42.8825 8.62109 42.5203 9.54474 41.9941 10.4756C38.9978 15.8035 31.5721 20.2027 25.4439 20.2813C24.4754 20.2937 23.5568 20.1881 22.7185 19.9639L22.5746 19.9249L21.095 20.4443L19.3355 17.5107C18.9889 16.8616 18.8106 16.144 18.8007 15.3732Z" fill="#DFE0DE"/>
    <path d="M38.3177 11.1303C38.8839 10.1275 39.2508 9.16292 39.4441 8.25674L40.8315 7.34547L38.79 4.00193C37.7813 2.47297 35.8523 1.51231 33.1809 1.3985C34.3356 1.12841 35.4815 0.970764 36.5883 0.956574C39.6268 0.917615 41.792 1.92119 42.8895 3.57666L44.931 6.9202L43.5436 7.83147C43.3502 8.73765 42.9783 9.70227 42.4171 10.7051C39.3406 16.1718 31.747 20.6702 25.4549 20.7509C25.2089 20.754 24.968 20.7469 24.7321 20.7346C30.1585 19.4856 35.7823 15.6354 38.3226 11.1201L38.3177 11.1303Z" fill="#DFE0DE"/>
    <path d="M37.5445 16.7206L37.1176 16.2053C31.3653 9.22816 30.1899 7.88514 29.6963 7.75361L29.5523 7.71461L27.7769 8.33984L25.6877 4.87949L25.4652 4.31051L24.9675 4.66407C22.4434 6.45277 20.4514 8.56651 19.2088 10.7779C17.6755 13.5035 17.4201 15.9677 18.4649 17.9149L18.5126 18.0317L20.675 21.6085L22.6137 20.9301C23.4979 21.1486 24.4525 21.2537 25.4516 21.2409C29.1819 21.1931 33.4362 19.6528 37.1281 17.0169L37.5445 16.7206ZM29.5294 8.73093C30.2032 9.31965 33.3162 13.0936 36.1533 16.5342C32.7596 18.8497 28.7904 20.2434 25.4394 20.2863C24.471 20.2988 23.5523 20.1931 22.7141 19.969L22.5701 19.93L21.0906 20.4493L19.331 17.5157C18.4227 15.817 18.6769 13.6643 20.0398 11.242C21.1421 9.28266 22.8859 7.38653 25.0941 5.74995L27.3612 9.49904L29.5295 8.73603L29.5294 8.73093Z" fill="#DFE0DE"/>
    <path d="M20.8511 25.7779L20.4093 19.2994L20.4064 19.0799C20.2391 17.6219 20.6353 16.1464 21.6625 14.3207C24.739 8.85396 32.3326 4.35555 38.6248 4.27487C40.4796 4.25109 42.0065 4.62465 43.1732 5.28873C43.1732 5.28873 43.876 5.74434 44.1456 5.98595L48.7291 9.33774L44.3531 14.1778C41.3998 19.2652 34.5713 23.4781 28.5771 24.0144L28.9094 24.7505L20.8561 25.7727L20.8511 25.7779Z" fill="#F7F7F7"/>
    <path d="M49.4354 9.267L44.4277 5.6041C44.1787 5.37243 43.5069 4.93686 43.4294 4.8868C42.118 4.13266 40.5042 3.77043 38.6186 3.79461C32.183 3.87712 24.391 8.49551 21.2495 14.0856C20.1622 16.0193 19.7517 17.5766 19.9304 19.1265L19.9328 19.3102L20.412 26.309L29.6062 25.1394L29.2792 24.4134C35.2856 23.6268 41.8275 19.4431 44.7411 14.4583L49.4353 9.2619L49.4354 9.267ZM20.8452 18.5276C20.8297 17.3177 21.2238 16.0771 22.0806 14.5549C25.0769 9.22703 32.5026 4.82778 38.6308 4.7492C40.3474 4.72719 41.7915 5.04565 42.9325 5.69986C43.0978 5.80495 43.6251 6.16069 43.8221 6.33686L48.0177 9.41282L43.935 13.9428C41.067 18.8861 34.4424 23.0147 28.53 23.5398L27.8646 23.5994L28.2023 24.3609L21.29 25.2409L20.8777 19.0633C20.8601 18.8848 20.8475 18.7062 20.8452 18.5276Z" fill="#DFE0DE"/>
    <path d="M20.5311 22.4684L22.8182 22.1787L22.4859 21.4426C28.4801 20.9062 35.3138 16.6984 38.2619 11.606L42.2258 8.99726L38.6466 4.03964C40.4402 4.03707 41.9208 4.401 43.0565 5.04507C43.0565 5.04507 43.7593 5.50067 44.0289 5.74228L48.6124 9.09407L44.2365 13.9342C41.2832 19.0215 34.4547 23.2344 28.4605 23.7707L28.7927 24.5068L20.7395 25.5291L20.5311 22.4633L20.5311 22.4684Z" fill="#DFE0DE"/>
    <path d="M49.4352 9.26723L46.445 7.07951L46.161 7.3078C42.8785 9.9027 38.7754 11.6453 35.1871 11.967L34.5217 12.0266L34.8329 12.7221L28.7572 12.897L27.5261 7.608L26.9421 8.02394C24.4487 9.80714 22.4769 11.9053 21.2443 14.0961C20.157 16.0298 19.7465 17.5871 19.9253 19.137L19.9278 19.336L20.4068 26.3144L29.601 25.1448L29.2739 24.4188C35.2803 23.6321 41.8222 19.4485 44.7358 14.4637L49.4301 9.26729L49.4352 9.26723ZM46.4655 8.27397L48.0175 9.40794L43.9347 13.9379C41.0667 18.8812 34.4421 23.0098 28.5298 23.5349L27.8643 23.5945L28.2021 24.356L21.2898 25.236L20.8775 19.0584C20.7214 17.6767 21.0932 16.2986 22.0804 14.55C23.1476 12.6523 24.8153 10.8185 26.9215 9.21381L28.0009 13.8614L36.2845 13.6225L35.931 12.8305C39.4253 12.367 43.2936 10.699 46.4654 8.26886L46.4655 8.27397Z" fill="#DFE0DE"/>
    <path d="M67.9606 40.8171L39.1937 57.478C39.1021 57.5302 38.989 57.5011 38.9366 57.4098L21.7679 28.5738L21.6002 28.285C20.3943 26.1612 20.5516 23.2438 22.3753 19.9937C26.0831 13.3956 35.2432 7.97345 42.8317 7.87615C46.5261 7.82879 49.1555 9.06127 50.4679 11.0918L68.0188 40.5611C68.0712 40.6523 68.0419 40.765 67.9503 40.8173L67.9606 40.8171Z" fill="#F7F7F7"/>
    <path d="M68.532 40.6412C68.5305 40.5238 68.4983 40.4118 68.4355 40.3105L50.8846 10.8412C49.4153 8.56255 46.5606 7.34317 42.8355 7.39093C35.1086 7.49 25.7451 13.0373 21.9671 19.7537C20.1182 23.0399 19.8454 26.1476 21.1928 28.5096L21.3605 28.7985L38.5344 57.6446C38.723 57.9587 39.1291 58.0607 39.4445 57.878L68.2114 41.2171C68.3691 41.1283 68.4749 40.984 68.5188 40.8098C68.5335 40.7535 68.5429 40.6921 68.5422 40.6359L68.532 40.6412ZM21.3052 25.2865C21.2854 23.7449 21.7861 22.0229 22.7982 20.223C26.4309 13.7689 35.4232 8.44072 42.8477 8.34553C46.2346 8.3021 48.8004 9.36691 50.0711 11.3418L67.4649 40.5476L39.2016 56.9161L22.017 28.0446C21.5505 27.2286 21.313 26.2973 21.3002 25.2917L21.3052 25.2865Z" fill="#DFE0DE"/>
    <path d="M38.8626 57.2628L35.5787 51.75L59.3451 37.9868C59.4367 37.9346 59.4659 37.8168 59.4136 37.7307L41.8627 8.26137C41.7581 8.09933 41.6332 7.95287 41.5083 7.80131C41.928 7.76529 42.348 7.73948 42.763 7.73416C46.4573 7.68679 49.0868 8.91928 50.3991 10.9498L67.95 40.4191C68.0024 40.5103 67.9731 40.623 67.8816 40.6753L39.1147 57.3361C39.0231 57.3884 38.91 57.3592 38.8576 57.268L38.8626 57.2628Z" fill="#DFE0DE"/>
    <path d="M51.4607 50.9387L28.5134 12.6803L28.0871 13.0023C25.4328 15.0224 23.3155 17.3624 21.9627 19.7743C20.1137 23.0554 19.8359 26.1683 21.1884 28.5302L21.3561 28.819L38.53 57.6652C38.7134 57.9743 39.1196 58.0814 39.4351 57.9038L51.4607 50.9387ZM28.2496 14.0877L50.1444 50.5981L39.2023 56.9367L22.0177 28.06C20.8433 25.9971 21.1203 23.2212 22.7989 20.2384C24.0215 18.0682 25.8956 15.9508 28.2496 14.0877Z" fill="#DFE0DE"/>
    <path d="M47.4714 15.5672C39.8829 15.6645 30.7228 21.0918 27.015 27.6848C25.1861 30.9299 25.0288 33.8523 26.2399 35.976L26.4076 36.2649L24.7796 33.6002L24.6119 33.3113C23.406 31.1875 23.5633 28.2702 25.387 25.0201C29.0948 18.422 38.2549 12.9998 45.8435 12.9025C49.5378 12.8552 52.1672 14.0876 53.4796 16.1182L54.9251 18.5452C53.5635 16.6634 51.0172 15.5217 47.4714 15.5672Z" fill="#F7F7F7"/>
    <path d="M55.337 18.3L53.8914 15.873C52.4222 13.5994 49.5674 12.3749 45.8423 12.4227C38.1155 12.5217 28.7519 18.0691 24.9739 24.7855C23.125 28.0666 22.8522 31.1743 24.1996 33.5413L24.3673 33.8302L26.0005 36.505L26.8245 36.0196L26.6568 35.7308C25.4824 33.6678 25.7595 30.8919 27.4329 27.9092C31.0656 21.4551 40.0578 16.1269 47.4824 16.0317C50.7105 15.9904 53.2189 16.9793 54.539 18.8106L55.3369 18.2898L55.337 18.3ZM24.312 30.3182C24.2923 28.7766 24.7929 27.0547 25.8051 25.2547C29.4378 18.8006 38.43 13.4725 45.8546 13.3773C49.1902 13.3345 51.7248 14.364 53.0204 16.2824C51.5341 15.4743 49.648 15.0645 47.4704 15.0925C39.7435 15.1915 30.3799 20.7389 26.602 27.4553C25.5046 29.4044 24.9651 31.2901 24.987 32.9951C24.5514 32.1991 24.3297 31.2932 24.3172 30.3182L24.312 30.3182Z" fill="#DFE0DE"/>
    <path d="M57.2234 31.9896C49.6349 32.0869 40.4748 37.5142 36.767 44.1071C34.938 47.3522 34.7808 50.2747 35.9918 52.3984L36.1595 52.6873L34.5315 50.0226L34.3639 49.7337C33.1579 47.6099 33.3153 44.6926 35.139 41.4424C38.8467 34.8444 48.0069 29.4222 55.5954 29.3249C59.2898 29.2775 61.9192 30.51 63.2315 32.5405L64.6771 34.9676C63.3154 33.0858 60.7691 31.9441 57.2234 31.9896Z" fill="#F7F7F7"/>
    <path d="M65.0902 34.7223L63.6446 32.2953C62.1753 30.0166 59.3206 28.7972 55.5904 28.845C47.8635 28.9441 38.4999 34.4914 34.722 41.2078C32.8731 44.494 32.6003 47.6017 33.9477 49.9637L34.1154 50.2526L35.7486 52.9274L36.5726 52.442L36.4049 52.1531C35.2305 50.0902 35.5075 47.3143 37.1861 44.3315C40.8188 37.8774 49.811 32.5492 57.2356 32.454C60.4636 32.4126 62.9721 33.4016 64.2921 35.2329L65.09 34.7121L65.0902 34.7223ZM34.0652 46.7405C34.0455 45.204 34.5461 43.477 35.5582 41.677C39.1909 35.2229 48.1832 29.8948 55.6077 29.7996C58.9434 29.7568 61.478 30.7863 62.7735 32.7047C61.2872 31.8966 59.4012 31.4868 57.2235 31.5148C49.4967 31.6138 40.1331 37.1612 36.3552 43.8776C35.2578 45.8267 34.7183 47.7124 34.7401 49.4174C34.3046 48.6214 34.0829 47.7206 34.0703 46.7405L34.0652 46.7405Z" fill="#DFE0DE"/>
    <path d="M46.0659 62.6591C46.0659 62.6591 41.192 59.8471 41.1869 59.8421L41.1766 59.8422C38.0405 57.8657 37.3602 53.9635 39.9055 49.438C43.6132 42.8399 52.7734 37.4177 60.3619 37.3204C65.3577 37.2563 68.4104 39.525 68.8645 42.9603L69.1907 48.8225L67.5101 48.8441C67.465 48.9263 67.4302 49.0085 67.3851 49.0907C63.6723 55.6889 54.5172 61.111 46.9287 61.2083C46.8365 61.2095 46.7493 61.2004 46.657 61.2015L46.0711 62.6642L46.0659 62.6591Z" fill="#F7F7F7"/>
    <path d="M69.6948 49.2906L69.3417 42.9336C68.8313 39.1007 65.3885 36.7809 60.3568 36.8454C52.6299 36.9445 43.2664 42.4918 39.4884 49.2082C36.8879 53.8264 37.4392 58.057 40.9213 60.2435C40.9213 60.2435 42.5563 61.1875 45.8262 63.0755L46.3063 63.3502L46.9768 61.6874C54.6983 61.5679 64.0364 56.0311 67.8042 49.3251C67.8042 49.3251 67.8042 49.3251 67.8041 49.32L69.6949 49.2957L69.6948 49.2906ZM38.8368 54.7409C38.8171 53.2094 39.3074 51.4774 40.3246 49.6723C43.9573 43.2182 52.9495 37.89 60.3741 37.7948C64.9549 37.7361 67.9523 39.6889 68.3947 43.0172L68.6885 48.3437L67.223 48.3625L67.0229 48.7429C67.0029 48.7789 66.988 48.8148 66.9679 48.8508C63.3403 55.3049 54.343 60.6331 46.9184 60.7283C46.8774 60.7288 46.8415 60.7292 46.8006 60.7298C46.7493 60.7304 46.7031 60.7259 46.6519 60.7266L46.3291 60.7307L45.8275 61.9778C44.6142 61.2786 41.5061 59.4855 41.4287 59.4405C39.7341 58.3748 38.8622 56.7215 38.8368 54.746L38.8368 54.7409Z" fill="#DFE0DE"/>
    <path d="M46.0399 62.6592C46.0399 62.6592 41.1661 59.8473 41.1609 59.8422L41.1507 59.8423C39.5645 58.8416 38.6127 57.3527 38.3793 55.5381C45.3806 55.6015 50.3583 56.9213 53.8857 50.6523C53.9308 50.57 58.0792 49.5621 58.1242 49.4798L61.2849 47.3817L59.2247 37.3807C59.5984 37.3504 59.9722 37.3252 60.336 37.3205C65.3318 37.2565 68.3845 39.5251 68.8385 42.9604L69.1648 48.8226L67.4842 48.8442C67.4391 48.9264 67.4043 49.0086 67.3592 49.0908C63.6515 55.6889 54.4913 61.1111 46.9028 61.2084C46.8105 61.2096 46.7233 61.2005 46.6311 61.2017L46.0451 62.6643L46.0399 62.6592Z" fill="#DFE0DE"/>
    <path d="M61.1458 56.4819L51.2907 47.6734C51.1815 47.5472 47.7393 43.6855 46.3134 42.3916L46.0179 42.1248L45.7032 42.3637C43.0132 44.3945 40.8603 46.7605 39.4875 49.2084C36.887 53.8266 37.4384 58.0572 40.9205 60.2437C40.9205 60.2437 42.5554 61.1877 45.8253 63.0757L46.3054 63.3503L46.976 61.6875C51.326 61.6215 56.3051 59.8524 60.6532 56.8303L61.1459 56.487L61.1458 56.4819ZM45.9621 43.3662C47.4979 44.8425 50.5813 48.3054 50.6125 48.3407L59.6071 56.3791C55.5216 59.0966 50.9295 60.6719 46.9226 60.7232C46.8816 60.7238 46.8457 60.7242 46.8047 60.7247C46.7535 60.7254 46.7073 60.7209 46.6561 60.7215L46.3333 60.7257L45.8317 61.9728C44.6184 61.2735 41.5103 59.4805 41.4328 59.4355C38.426 57.5441 38.0039 53.802 40.3237 49.6725C41.5813 47.4354 43.5266 45.2661 45.9672 43.3661L45.9621 43.3662Z" fill="#DFE0DE"/>
    <path d="M46.4184 64.1557L44.455 60.9082L44.4548 60.898C43.5253 59.1485 43.6742 56.7724 45.1573 54.1342C48.2338 48.6675 55.8274 44.1691 62.1196 44.0884C65.1581 44.0495 67.3233 45.053 68.4208 46.7085L70.4623 50.052L69.0749 50.9633C68.8816 51.8695 68.5096 52.8341 67.9484 53.8369C64.8719 59.3036 57.2784 63.8021 50.9862 63.8827C49.9204 63.8964 48.9759 63.7758 48.1325 63.5466L46.4234 64.1455L46.4184 64.1557Z" fill="#F7F7F7"/>
    <path d="M71.1043 50.202L68.8271 46.4633C67.5832 44.5799 65.2027 43.574 62.113 43.6136C55.6773 43.6961 47.8854 48.3145 44.7439 53.9046C43.3109 56.4554 43.0142 58.8946 43.8947 60.8234L43.8745 60.8441L44.0476 61.1533L46.21 64.7302L48.1487 64.0518C49.0329 64.2702 49.9875 64.3754 50.9867 64.3626C57.4223 64.2801 65.2142 59.6617 68.3609 54.0715C68.897 53.1201 69.2744 52.1758 69.4932 51.254L71.1042 50.1969L71.1043 50.202ZM44.3521 58.52C44.3359 57.2591 44.7482 55.8447 45.5749 54.3688C48.5712 49.0409 55.9969 44.6417 62.1251 44.5631C64.8767 44.5278 66.9683 45.3843 68.0187 46.9689L69.8091 49.9072L68.6402 50.6727L68.6016 50.8621C68.4131 51.7478 68.0508 52.6714 67.5247 53.6023C64.5284 58.9301 57.1026 63.3294 50.9744 63.408C50.006 63.4204 49.0873 63.3147 48.2491 63.0906L48.1051 63.0516L46.6256 63.571L44.8818 60.6678C44.5353 60.0238 44.362 59.2959 44.3519 58.5098L44.3521 58.52Z" fill="#DFE0DE"/>
    <path d="M46.7252 64.1515L44.7985 60.9648C50.7862 60.3213 57.5375 56.0839 60.3936 51.008C60.9598 50.0051 62.5007 54.6723 62.694 53.7611L66.9091 53.9572L61.049 44.1734C61.5147 44.1214 61.9755 44.09 62.4264 44.0842C65.4649 44.0453 67.6302 45.0488 68.7276 46.7043L70.7691 50.0479L69.3818 50.9591C69.1884 51.8653 68.8164 52.8299 68.2553 53.8327C65.1788 59.2994 57.5852 63.7979 51.293 63.8785C50.2272 63.8922 49.2827 63.7716 48.4393 63.5424L46.7302 64.1413L46.7252 64.1515Z" fill="#DFE0DE"/>
    <path d="M60.9268 55.8003C61.3741 55.9171 63.2907 56.7094 65.155 57.4207C64.1885 58.3828 63.1033 59.28 61.9297 60.0762L60.9268 55.8003Z" fill="#F7F7F7"/>
    <path d="M66.0143 57.2413L65.3294 56.9795C64.6444 56.7177 63.9491 56.4458 63.3258 56.1985C62.069 55.7041 61.3428 55.4223 61.0497 55.3393L60.2783 55.1348L61.6227 60.8614L62.1968 60.4711C63.3907 59.6593 64.5013 58.7465 65.4931 57.7586L66.0143 57.2413ZM61.5929 56.5424C61.9843 56.6905 62.4736 56.8834 62.9784 57.0811C63.3905 57.2443 63.8385 57.4173 64.2918 57.5953C63.6486 58.1907 62.964 58.756 62.2379 59.2809L61.5929 56.5424Z" fill="#DFE0DE"/>
    <path d="M60.02 61.8009L51.209 47.2965L50.7925 47.5826C48.1306 49.4139 46.042 51.5953 44.7443 53.9044C43.3114 56.4551 43.0146 58.8943 43.8952 60.8232L43.875 60.8438L44.0481 61.1531L46.2104 64.7299L48.1492 64.0515C49.0334 64.27 49.988 64.3751 50.9871 64.3623C53.6823 64.3278 56.6494 63.5188 59.5617 62.0314L60.0199 61.7958L60.02 61.8009ZM50.919 48.6583L58.6672 61.4149C56.0595 62.6737 53.3473 63.3824 50.975 63.4128C50.0065 63.4253 49.0878 63.3196 48.2496 63.0955L48.1056 63.0565L46.6261 63.5758L44.8824 60.6726C43.9846 58.9993 44.2325 56.7548 45.5753 54.3634C46.7327 52.3063 48.5729 50.3375 50.919 48.6532L50.919 48.6583Z" fill="#DFE0DE"/>
    <path d="M62.6384 64.1511C56.0143 68.0751 48.8013 68.1678 46.5278 64.3582C44.2543 60.5485 47.7812 54.2791 54.4054 50.3551C61.0295 46.4311 68.2424 46.3383 70.5159 50.148C72.7894 53.9576 69.2625 60.227 62.6384 64.1511Z" fill="#DFE0DE"/>
    <path d="M71.6847 52.6912C71.6717 51.6753 71.4188 50.734 70.9212 49.9031C69.7323 47.9067 67.2996 46.83 64.0818 46.8712C57.6462 46.9538 49.8543 51.5721 46.7127 57.1622C45.1343 59.9599 44.9273 62.6022 46.1162 64.5986C47.3051 66.595 49.7378 67.6717 52.9556 67.6304C59.3913 67.5479 67.1832 62.9295 70.3299 57.3394C71.2519 55.704 71.703 54.1205 71.6847 52.6912ZM46.3109 61.7982C46.2947 60.5373 46.707 59.1178 47.5438 57.6315C50.5401 52.3037 57.9658 47.9044 64.0941 47.8258C66.9583 47.7891 69.0917 48.7012 70.1024 50.3884C71.1132 52.0807 70.8967 54.381 69.4936 56.8702C66.4973 62.198 59.0716 66.5973 52.9434 66.6758C50.0791 66.7126 47.9458 65.8005 46.9351 64.1133C46.5266 63.4292 46.3218 62.6507 46.3109 61.7982Z" fill="#DFE0DE"/>
    <path d="M68.919 53.6455C68.9088 52.844 68.7096 52.1012 68.3169 51.4476C67.3793 49.8717 65.462 49.0233 62.9155 49.0559C57.8325 49.1211 51.6732 52.7689 49.188 57.1865C47.9454 59.3978 47.7774 61.4831 48.7149 63.0538C49.6524 64.6296 51.5697 65.4781 54.1163 65.4455C59.1992 65.3803 65.3585 61.7325 67.8438 57.3149C68.5703 56.0241 68.9284 54.7737 68.9139 53.6455L68.919 53.6455ZM48.8608 60.8463C48.848 59.8458 49.1769 58.7234 49.8383 57.5457C52.2082 53.3287 58.0828 49.8531 62.93 49.7909C65.1999 49.7618 66.8901 50.4856 67.6862 51.8232C68.4875 53.166 68.3161 54.9858 67.2037 56.9606C64.8338 61.1776 58.9593 64.6533 54.1069 64.7155C51.837 64.7446 50.1468 64.0208 49.3507 62.6832C49.026 62.141 48.8644 61.5253 48.8557 60.8464L48.8608 60.8463Z" fill="#F7F7F7"/>
    <path d="M43.9875 5.25265C43.9252 5.18708 42.4699 3.59746 39.2988 3.68918L39.3236 4.42407C42.1361 4.34206 43.3935 5.68403 43.4455 5.74463L43.9927 5.25769L43.9875 5.25265Z" fill="#F7F7F7"/>
    <path d="M47.5062 8.28622C46.2899 7.75041 44.1354 7.19089 42.0726 7.38582L42.1435 8.11502C44.0629 7.93213 46.0734 8.45266 47.2124 8.95372L47.5112 8.28105L47.5062 8.28622Z" fill="#F7F7F7"/>
    <path d="M67.3078 38.6964C64.3463 36.345 60.249 36.9387 60.0751 36.9665L60.1869 37.69C60.2278 37.6844 64.1461 37.1185 66.8488 39.2691L67.3078 38.6964Z" fill="#F7F7F7"/>
    <path d="M68.9961 46.4561C66.2265 43.4895 61.9041 43.7134 61.7198 43.726L61.765 44.4555C61.806 44.455 65.9287 44.2438 68.4592 46.9531L68.9961 46.4561Z" fill="#F7F7F7"/>
    <path d="M69.4279 48.5437C67.086 46.557 63.9294 46.9753 63.7964 46.9974L63.8979 47.7211C63.9287 47.7207 66.8602 47.3308 68.9482 49.1012L69.4227 48.5437L69.4279 48.5437Z" fill="#F7F7F7"/>
    <path d="M69.8494 47.844L69.0956 46.613L69.2079 42.9763C69.0445 41.8246 68.3864 40.4596 68.3549 40.4038L50.0999 9.97349C49.3411 8.74766 47.8756 8.3631 47.5056 8.28616L45.2148 6.68683L44.8673 5.96119L44.2051 6.27601L44.6368 7.17417L47.2942 8.98834C47.2942 8.98834 48.7941 9.26013 49.4693 10.3543L67.7086 40.7542C67.7086 40.7542 68.3351 42.0532 68.4756 43.0215L68.3551 46.8114L69.2189 48.2299L69.8495 47.8491L69.8494 47.844Z" fill="#F7F7F7"/>
  </svg>