<svg xmlns="http://www.w3.org/2000/svg" width="76" height="98" viewBox="0 0 76 98" fill="none">
    <path d="M5.79243 97.5209C4.58205 97.242 3.47024 96.6132 2.6073 95.7246C1.45304 94.5344 1.20249 93.3947 1.64852 92.6487L2.54745 91.0566C2.54745 91.0566 2.56629 91.0456 2.57457 91.0563L3.16462 91.8133C3.28647 91.7982 3.41109 91.7885 3.54395 91.7868C5.38504 91.7632 7.62174 92.9828 8.63969 94.5395L9.93244 95.1092L8.91882 96.8513C8.46135 97.5516 7.37 97.8844 5.79511 97.5182L5.79243 97.5209Z" fill="#232521"/>
    <path d="M10.2918 94.9941L8.80816 94.3404C7.72184 92.7386 5.42539 91.5117 3.54091 91.5359C3.45143 91.537 3.3647 91.5409 3.28075 91.55L2.69344 90.7957L2.40887 90.8101L2.32912 90.9354L1.4302 92.5275C0.888588 93.4341 1.26004 94.6965 2.42803 95.9001C3.32945 96.8287 4.47404 97.476 5.73883 97.7678C7.31098 98.1313 8.57916 97.8421 9.13234 96.9921L10.2945 94.9941L10.2918 94.9941ZM2.59388 91.4913L3.05161 92.0798L3.19243 92.0645C3.30617 92.0523 3.42266 92.0427 3.54468 92.0411C5.299 92.0186 7.44271 93.1772 8.42472 94.6803L8.46619 94.7419L9.57074 95.2276L8.69775 96.7275C8.27223 97.3814 7.2064 97.5896 5.84915 97.2773C4.67955 97.0059 3.61967 96.4089 2.78694 95.5496C1.80307 94.5356 1.44774 93.4729 1.86461 92.7786L2.59117 91.4913L2.59388 91.4913Z" fill="#494949"/>
    <path d="M10.2918 94.9941L8.80816 94.3404C7.72184 92.7386 5.42539 91.5117 3.54091 91.5359C3.45143 91.537 3.3647 91.5409 3.28075 91.55L2.69344 90.7957L2.40887 90.8101L2.32912 90.9354L1.4302 92.5275C0.888588 93.4341 1.26004 94.6965 2.42803 95.9001C2.73859 96.2203 3.08946 96.513 3.4725 96.7756L3.82265 97.0115L3.8688 96.5922C3.8881 96.4055 3.94289 96.2373 4.0305 96.0903L4.75706 94.803L5.21479 95.3915L5.35561 95.3762C5.46936 95.3639 5.58584 95.3543 5.70786 95.3528C6.76534 95.3392 8.03192 95.7715 9.09631 96.5089L9.3207 96.6655L10.2918 94.9941ZM2.59388 91.4913L3.05161 92.0798L3.19243 92.0645C3.30617 92.0523 3.42266 92.0427 3.54468 92.0411C5.299 92.0186 7.44271 93.1772 8.42472 94.6803L8.46619 94.7419L9.57074 95.2276L9.15415 95.9435C8.05496 95.2416 6.78326 94.8338 5.69867 94.8477C5.60919 94.8488 5.52246 94.8526 5.43851 94.8618L4.85391 94.1074L4.57202 94.1191L4.49227 94.2444L3.59067 95.8392C3.5349 95.9318 3.49009 96.0323 3.45348 96.1382C3.21519 95.9548 2.993 95.7577 2.79236 95.5496C1.80849 94.5355 1.45316 93.4728 1.87003 92.7785L2.59659 91.4913L2.59388 91.4913Z" fill="#494949"/>
    <path d="M8.88602 96.8543C8.42855 97.5545 7.3372 97.8873 5.7623 97.5212C5.37877 97.4315 5.0056 97.3039 4.64564 97.1491L5.58504 95.5403L8.32995 94.7297L9.67679 95.4987L8.88605 96.857L8.88602 96.8543Z" fill="#494949"/>
    <path d="M7.97714 96.0281C6.0791 96.0524 3.75735 94.7556 2.78734 93.1307C2.27189 92.2701 2.24836 91.4923 2.61558 90.9445C2.61558 90.9445 2.7756 90.7344 2.86682 90.6576C3.5386 89.9627 4.09335 89.8691 4.09335 89.8691L4.31397 90.1554C4.36549 90.1547 4.41419 90.146 4.46842 90.1453C6.34747 90.1212 8.6418 91.3941 9.62776 92.9944L10.2063 93.2788C10.2063 93.2788 10.4774 94.5343 9.79546 95.2861C9.45685 95.7389 8.83667 96.0171 7.97985 96.028L7.97714 96.0281Z" fill="#232521"/>
    <path d="M10.5119 93.8188C10.5077 93.4893 10.4585 93.2494 10.4528 93.2252L10.4269 93.1066L9.80463 92.8012C8.74466 91.1397 6.41508 89.8673 4.46553 89.8923C4.45468 89.8924 4.44384 89.8926 4.43299 89.8927L4.20135 89.5931L4.05253 89.6193C4.02548 89.6251 3.40858 89.7356 2.68594 90.4825C2.5974 90.5566 2.44805 90.753 2.41871 90.7912C1.97163 91.4562 2.0319 92.3497 2.57242 93.2614C3.58125 94.9533 6.00952 96.3082 7.98347 96.2829C8.8647 96.2716 9.56882 95.9842 9.96907 95.4739L9.98245 95.4602C10.429 94.9682 10.5181 94.2997 10.512 93.8242L10.5119 93.8188ZM9.97834 93.4474C10.0144 93.7225 10.0696 94.4297 9.73723 94.9473L9.59049 95.1356C9.28922 95.5393 8.71722 95.7682 7.97699 95.7777C6.16302 95.801 3.93414 94.557 3.00845 93.0045C2.57055 92.2699 2.50464 91.5709 2.82927 91.0859C2.87996 91.0204 2.98676 90.8893 3.03504 90.8482C3.45256 90.4159 3.81365 90.2357 3.99984 90.163L4.19564 90.4172L4.38805 90.4066C4.41517 90.4063 4.44225 90.4032 4.47208 90.4028C6.25622 90.38 8.4713 91.6052 9.41294 93.1332L9.4517 93.1948L9.97844 93.4555L9.97834 93.4474Z" fill="#494949"/>
    <path d="M7.97744 96.0286C7.1423 96.0393 6.22792 95.7917 5.37918 95.3757C5.34644 95.3599 5.35391 95.3085 5.39181 95.3026C5.95729 95.2008 6.37998 94.9603 6.63588 94.6139C7.27238 93.9168 7.08155 92.7818 7.05243 92.6254C7.05226 92.6119 7.04131 92.604 7.03039 92.5987L6.47911 92.3275C6.47911 92.3275 6.46545 92.3195 6.46263 92.3115C6.16623 91.8263 5.92929 91.1133 5.69179 90.3572C5.68328 90.3275 5.71001 90.2975 5.73994 90.3052C7.27987 90.6934 8.84715 91.7351 9.61708 92.9843C9.61986 92.9897 9.62536 92.995 9.63081 92.9976L10.1821 93.2689C10.1821 93.2689 10.2013 93.2821 10.2041 93.2956C10.2333 93.4519 10.4241 94.5869 9.7903 95.284C9.45169 95.7369 8.83152 96.015 7.97469 96.026L7.97744 96.0286Z" fill="#494949"/>
    <path d="M8.83922 93.8287C7.22047 93.8495 5.23743 92.7428 4.40879 91.3566C4.07896 90.8016 3.98561 90.2894 4.09412 89.8693C4.09412 89.8693 7.66298 80.9832 12.958 71.5725C17.9959 62.6245 28.5373 45.5004 29.4701 44.0133C29.5126 43.9479 29.5964 43.9279 29.6648 43.9676L35.7359 47.4993C35.7359 47.4993 26.2257 67.8415 21.2697 76.6237C17.743 82.8722 11.7934 91.7834 10.5099 92.9913C10.4055 93.098 10.3037 93.1939 10.2098 93.2789C9.87735 93.5749 9.46213 93.764 9.02075 93.8156C8.95846 93.8218 8.89888 93.8279 8.84193 93.8287L8.83922 93.8287Z" fill="#232521"/>
    <path d="M36.0595 47.3979L29.7889 43.7499C29.6031 43.6415 29.3679 43.6985 29.2536 43.8783C28.4191 45.2102 17.8033 62.4487 12.7362 71.4485C7.49421 80.7639 3.89328 89.6855 3.85646 89.7751C3.7169 90.3118 3.83551 90.8912 4.19024 91.4838C5.0577 92.937 7.14454 94.1017 8.83921 94.08C8.90158 94.0792 8.96929 94.0729 9.04243 94.0666C9.5353 94.0116 9.99636 93.8031 10.3717 93.4687C10.471 93.3809 10.5754 93.2796 10.6852 93.1702C12.0009 91.9321 17.9212 83.0645 21.4851 76.7507C26.3907 68.0609 35.8669 47.8111 35.9619 47.6099L36.0596 47.4006L36.0595 47.3979ZM29.627 44.2383L35.4086 47.6008C34.3896 49.7753 25.6751 68.2998 21.0479 76.4996C17.5743 82.6556 11.6035 91.6103 10.3335 92.8099C10.2264 92.9194 10.1272 93.0125 10.0388 93.092C9.74116 93.3579 9.37715 93.522 8.9899 93.5647C8.93574 93.5708 8.88425 93.5742 8.83816 93.5748C7.30346 93.5945 5.4133 92.5407 4.62899 91.2269C4.34628 90.7523 4.24563 90.3051 4.34118 89.931C4.36757 89.8739 7.95533 80.9822 13.1815 71.6967C18.1478 62.8738 28.4579 46.1202 29.6297 44.2382L29.627 44.2383Z" fill="#494949"/>
    <path d="M36.0595 47.3979L29.7889 43.7499C29.6031 43.6415 29.3679 43.6985 29.2536 43.8783C28.4191 45.2102 17.8033 62.4487 12.7362 71.4485C7.49421 80.7639 3.89328 89.6855 3.85646 89.7751C3.7169 90.3118 3.83551 90.8912 4.19024 91.4838C4.61702 92.197 5.33876 92.8605 6.22368 93.3489L6.70166 93.613L6.59718 93.0794C6.55941 92.8826 6.55705 92.6989 6.59558 92.5309C6.84405 92.0279 10.7517 84.1831 15.8373 75.1453C18.3058 70.761 30.5188 49.0711 31.8892 46.8138L35.3811 48.844L36.0622 47.3952L36.0595 47.3979ZM29.627 44.2383L35.4059 47.6008L35.1551 48.1336L32.0512 46.3281C31.8654 46.2197 31.6274 46.2768 31.5159 46.4592C30.4688 48.1289 17.9031 70.4447 15.3948 74.9024C10.1554 84.2097 6.16631 92.2582 6.12664 92.337L6.10828 92.3859C6.08502 92.4753 6.06997 92.5701 6.06308 92.6674C5.44221 92.2566 4.93953 91.7578 4.62631 91.2296C4.34361 90.755 4.24296 90.3078 4.3385 89.9337C4.36489 89.8767 7.95265 80.985 13.1788 71.6994C18.1451 62.8766 28.4552 46.1229 29.6271 44.241L29.627 44.2383Z" fill="#494949"/>
    <path d="M6.9903 93.0371C8.27379 91.8264 13.565 82.5374 17.0917 76.2888C22.0504 67.5066 32.2163 47.5424 32.2163 47.5424L35.7304 47.4973C35.7304 47.4973 26.2202 67.8395 21.2642 76.6217C17.7374 82.8702 11.7879 91.7814 10.5043 92.9893C10.3999 93.0961 10.2981 93.1919 10.2043 93.2769C9.8718 93.5729 9.45659 93.762 9.01521 93.8136C8.95292 93.8198 8.89333 93.8259 8.83639 93.8267C8.1531 93.8354 7.4021 93.6397 6.70363 93.311C6.79479 93.2287 6.89126 93.1383 6.9903 93.0371Z" fill="#494949"/>
    <path d="M21.6228 76.4876L21.1857 76.2339C20.8592 76.7892 20.1555 77.1035 19.2037 77.1157C17.0969 77.1427 14.5047 75.6954 13.4267 73.8909C12.9251 73.0517 12.8337 72.2747 13.1708 71.7003L12.7336 71.4466C12.301 72.1843 12.392 73.145 12.9906 74.1478C14.1491 76.0917 16.9407 77.65 19.2102 77.6209C20.349 77.6063 21.2063 77.2035 21.6256 76.4876L21.6228 76.4876Z" fill="#494949"/>
    <path d="M34.9566 49.7628L34.5195 49.509C34.2806 49.9174 33.7575 50.1483 33.0471 50.1574C31.4473 50.1779 29.4806 49.0792 28.6631 47.7091C28.2889 47.0816 28.2192 46.5071 28.4687 46.0878L28.0316 45.834C27.6865 46.4193 27.7586 47.1776 28.2298 47.9686C29.1305 49.4755 31.2938 50.6851 33.0563 50.6625C33.9511 50.6511 34.6277 50.3317 34.9594 49.7628L34.9566 49.7628Z" fill="#494949"/>
    <path d="M20.6599 77.2642L20.5088 76.9068C20.4927 76.9151 18.7902 77.6016 17.1802 76.8171L17.0083 77.1651C18.7794 78.0286 20.5816 77.2949 20.6571 77.2642L20.6599 77.2642Z" fill="#232521"/>
    <path d="M34.1704 50.3761L34.0113 50.0215C34.0113 50.0215 32.9189 50.484 31.2619 49.8487L31.1228 50.2099C32.9433 50.9079 34.1219 50.3984 34.1704 50.3761Z" fill="#232521"/>
    <path d="M10.2238 93.5166L9.98394 93.2116C9.02808 93.9588 7.45347 93.4035 7.4371 93.3956L7.30346 93.7593C7.37701 93.7854 9.09873 94.3929 10.221 93.5139L10.2238 93.5166Z" fill="#232521"/>
    <path d="M9.4743 95.8334L9.25861 95.5092C7.98665 96.3496 6.06881 95.4637 6.04973 95.4558L5.88337 95.8065C5.9707 95.8486 8.02216 96.7922 9.4743 95.8334Z" fill="#232521"/>
    <path d="M38.3575 51.4027C38.0406 51.468 37.6977 51.503 37.3287 51.5078C34.2698 51.547 30.5224 49.4558 28.9616 46.8362C28.5008 46.066 28.2833 44.6903 28.2833 44.6903C27.9212 42.0298 29.4972 38.645 29.4972 38.645L44.3161 46.8895C42.7967 49.0993 40.6729 50.5306 39.3575 51.058C39.0724 51.2046 38.746 51.3262 38.3728 51.4025L38.3626 51.4026L38.3575 51.4027Z" fill="#232521"/>
    <path d="M45.0007 46.727L29.2734 37.9785L29.059 38.4459C28.9942 38.5896 27.4285 41.9794 27.8075 44.7571C27.8187 44.8285 28.0469 46.2449 28.5496 47.0809C30.1889 49.8271 34.1324 52.0282 37.3349 51.9871C37.6782 51.9827 38.0109 51.9529 38.3279 51.8978L38.3484 51.8975L38.4864 51.8651C38.8748 51.7835 39.2422 51.6563 39.5731 51.4836C40.9293 50.9403 43.1243 49.4673 44.7091 47.1647L45.0059 46.7321L45.0007 46.727ZM29.7261 39.3155L43.6108 47.041C42.2601 48.8146 40.447 50.099 39.1724 50.6105C38.872 50.7625 38.5863 50.8631 38.2745 50.9284L38.2591 50.9286C37.9627 50.9937 37.6505 51.0232 37.3226 51.0274C34.4224 51.0646 30.8506 49.0732 29.3684 46.5905C29.0332 46.0229 28.8095 44.9689 28.7537 44.6123C28.4934 42.6959 29.329 40.3162 29.7261 39.3155Z" fill="#494949"/>
    <path d="M40.5558 48.5251C44.3885 48.4759 45.9118 45.7759 43.9479 42.4927C41.984 39.2094 37.292 36.5891 33.4542 36.6383C29.6164 36.6875 28.0982 39.3874 30.0621 42.6707C32.0209 45.954 36.718 48.5743 40.5558 48.5251Z" fill="#232521"/>
    <path d="M45.2827 45.1461C45.2711 44.2426 44.9612 43.256 44.3589 42.2426C42.3268 38.8326 37.4335 36.1026 33.4522 36.1536C31.418 36.1797 29.9002 36.9088 29.1685 38.1997C28.442 39.4957 28.6121 41.1681 29.6491 42.9061C31.6812 46.3161 36.5745 49.0461 40.5558 48.9951C42.59 48.969 44.1078 48.2399 44.8343 46.949C45.14 46.409 45.286 45.7996 45.2776 45.1462L45.2827 45.1461ZM29.6784 39.9955C29.6721 39.5054 29.7791 39.0599 29.9996 38.669C30.5558 37.6816 31.7838 37.1298 33.4593 37.1083C37.1332 37.0612 41.6548 39.5815 43.535 42.7331C44.3887 44.1671 44.5596 45.5026 44.0034 46.49C43.4472 47.4774 42.2192 48.0292 40.5437 48.0507C36.8647 48.0979 32.3482 45.5774 30.468 42.4258C29.9547 41.5645 29.6879 40.7357 29.6785 40.0006L29.6784 39.9955Z" fill="#494949"/>
    <path d="M20.8878 21.0272L18.9244 17.7796L18.8873 17.6831C17.9475 15.9337 18.1436 13.6439 19.6267 11.0057C22.7032 5.53386 30.2968 1.03544 36.5889 0.954768C39.6274 0.915809 41.7927 1.91938 42.8901 3.57485L44.9316 6.91839L43.5443 7.82966C43.3509 8.73584 42.9789 9.70047 42.4178 10.7033C39.3413 16.17 31.7477 20.6684 25.4555 20.7491C24.3897 20.7627 23.4452 20.6421 22.6018 20.4129L20.8927 21.0118L20.8878 21.0272Z" fill="#232521"/>
    <path d="M45.5737 7.06923L43.2964 3.33048C42.0526 1.44713 39.6721 0.441215 36.5823 0.480831C30.1467 0.563346 22.3548 5.18173 19.2081 10.7719C17.6749 13.4975 17.4195 15.9617 18.4643 17.9089L18.5119 18.0257L20.6743 21.6026L22.613 20.9242C23.4973 21.1426 24.4518 21.2478 25.451 21.235C31.8866 21.1525 39.6785 16.5341 42.8201 10.944C43.3562 9.99256 43.7387 9.04822 43.9524 8.12646L45.5634 7.06937L45.5737 7.06923ZM18.8007 15.3722C18.7848 14.1266 19.2025 12.7325 20.0443 11.236C23.0406 5.90815 30.4664 1.514 36.5946 1.43543C39.3461 1.40015 41.4378 2.2566 42.4882 3.84119L44.2785 6.7795L43.1096 7.54502L43.071 7.73442C42.8825 8.62011 42.5203 9.54377 41.9941 10.4746C38.9978 15.8025 31.5721 20.2017 25.4439 20.2803C24.4754 20.2927 23.5568 20.1871 22.7185 19.963L22.5746 19.924L21.095 20.4433L19.3355 17.5097C18.9889 16.8606 18.8106 16.143 18.8007 15.3722Z" fill="#494949"/>
    <path d="M38.3177 11.1298C38.8839 10.127 39.2508 9.16243 39.4441 8.25625L40.8315 7.34498L38.79 4.00144C37.7813 2.47248 35.8523 1.51182 33.1809 1.39801C34.3356 1.12793 35.4815 0.970276 36.5883 0.956085C39.6268 0.917127 41.792 1.9207 42.8895 3.57617L44.931 6.91971L43.5436 7.83098C43.3502 8.73716 42.9783 9.70178 42.4171 10.7046C39.3406 16.1713 31.747 20.6697 25.4549 20.7504C25.2089 20.7535 24.968 20.7464 24.7321 20.7341C30.1585 19.4852 35.7823 15.6349 38.3226 11.1196L38.3177 11.1298Z" fill="#494949"/>
    <path d="M37.5445 16.7196L37.1176 16.2043C31.3653 9.22718 30.1899 7.88416 29.6963 7.75264L29.5523 7.71364L27.7769 8.33887L25.6877 4.87851L25.4652 4.30953L24.9675 4.6631C22.4434 6.45179 20.4514 8.56554 19.2088 10.7769C17.6755 13.5025 17.4201 15.9667 18.4649 17.9139L18.5126 18.0307L20.675 21.6075L22.6137 20.9292C23.4979 21.1476 24.4525 21.2528 25.4516 21.24C29.1819 21.1921 33.4362 19.6519 37.1281 17.016L37.5445 16.7196ZM29.5294 8.72995C30.2032 9.31867 33.3162 13.0927 36.1533 16.5332C32.7596 18.8487 28.7904 20.2424 25.4394 20.2854C24.471 20.2978 23.5523 20.1921 22.7141 19.968L22.5701 19.929L21.0906 20.4483L19.331 17.5147C18.4227 15.816 18.6769 13.6633 20.0398 11.2411C21.1421 9.28168 22.8859 7.38556 25.0941 5.74897L27.3612 9.49807L29.5295 8.73506L29.5294 8.72995Z" fill="#494949"/>
    <path d="M20.8511 25.7774L20.4093 19.2989L20.4064 19.0794C20.2391 17.6214 20.6353 16.1459 21.6625 14.3202C24.739 8.85347 32.3326 4.35506 38.6248 4.27438C40.4796 4.2506 42.0065 4.62416 43.1732 5.28825C43.1732 5.28825 43.876 5.74385 44.1456 5.98546L48.7291 9.33725L44.3531 14.1773C41.3998 19.2647 34.5713 23.4776 28.5771 24.0139L28.9094 24.75L20.8561 25.7723L20.8511 25.7774Z" fill="#232521"/>
    <path d="M49.4354 9.26602L44.4277 5.60312C44.1787 5.37146 43.5069 4.93588 43.4294 4.88582C42.118 4.13168 40.5042 3.76945 38.6186 3.79363C32.183 3.87615 24.391 8.49453 21.2495 14.0846C20.1622 16.0183 19.7517 17.5757 19.9304 19.1255L19.9328 19.3092L20.412 26.308L29.6062 25.1384L29.2792 24.4125C35.2856 23.6258 41.8275 19.4421 44.7411 14.4574L49.4353 9.26092L49.4354 9.26602ZM20.8452 18.5266C20.8297 17.3168 21.2238 16.0762 22.0806 14.5539C25.0769 9.22605 32.5026 4.8268 38.6308 4.74822C40.3474 4.72622 41.7915 5.04467 42.9325 5.69888C43.0978 5.80398 43.6251 6.15972 43.8221 6.33589L48.0177 9.41184L43.935 13.9418C41.067 18.8851 34.4424 23.0137 28.53 23.5388L27.8646 23.5984L28.2023 24.3599L21.29 25.2399L20.8777 19.0623C20.8601 18.8838 20.8475 18.7053 20.8452 18.5266Z" fill="#494949"/>
    <path d="M20.5311 22.4669L22.8182 22.1772L22.4859 21.4411C28.4801 20.9048 35.3138 16.6969 38.2619 11.6045L42.2258 8.9958L38.6466 4.03818C40.4402 4.0356 41.9208 4.39954 43.0565 5.0436C43.0565 5.0436 43.7593 5.4992 44.0289 5.74082L48.6124 9.09261L44.2365 13.9327C41.2832 19.02 34.4547 23.2329 28.4605 23.7693L28.7927 24.5053L20.7395 25.5276L20.5311 22.4618L20.5311 22.4669Z" fill="#494949"/>
    <path d="M49.4352 9.26625L46.445 7.07854L46.161 7.30682C42.8785 9.90172 38.7754 11.6443 35.1871 11.966L34.5217 12.0256L34.8329 12.7211L28.7572 12.896L27.5261 7.60702L26.9421 8.02296C24.4487 9.80616 22.4769 11.9043 21.2443 14.0951C20.157 16.0288 19.7465 17.5862 19.9253 19.136L19.9278 19.3351L20.4068 26.3134L29.601 25.1438L29.2739 24.4179C35.2803 23.6312 41.8222 19.4475 44.7358 14.4628L49.4301 9.26632L49.4352 9.26625ZM46.4655 8.27299L48.0175 9.40696L43.9347 13.9369C41.0667 18.8802 34.4421 23.0088 28.5298 23.5339L27.8643 23.5935L28.2021 24.355L21.2898 25.235L20.8775 19.0574C20.7214 17.6758 21.0932 16.2976 22.0804 14.549C23.1476 12.6514 24.8153 10.8175 26.9215 9.21284L28.0009 13.8604L36.2845 13.6215L35.931 12.8295C39.4253 12.3661 43.2936 10.698 46.4654 8.26789L46.4655 8.27299Z" fill="#494949"/>
    <path d="M67.9606 40.8161L39.1937 57.477C39.1021 57.5293 38.989 57.5001 38.9366 57.4089L21.7679 28.5729L21.6002 28.284C20.3943 26.1602 20.5516 23.2429 22.3753 19.9927C26.0831 13.3947 35.2432 7.97248 42.8317 7.87518C46.5261 7.82781 49.1555 9.06029 50.4679 11.0908L68.0188 40.5601C68.0712 40.6513 68.0419 40.764 67.9503 40.8163L67.9606 40.8161Z" fill="#232521"/>
    <path d="M68.532 40.6397C68.5305 40.5223 68.4983 40.4104 68.4355 40.3091L50.8846 10.8398C49.4153 8.56108 46.5606 7.3417 42.8355 7.38946C35.1086 7.48854 25.7451 13.0359 21.9671 19.7523C20.1182 23.0385 19.8454 26.1462 21.1928 28.5081L21.3605 28.797L38.5344 57.6431C38.723 57.9573 39.1291 58.0593 39.4445 57.8765L68.2114 41.2156C68.3691 41.1268 68.4749 40.9825 68.5188 40.8084C68.5335 40.752 68.5429 40.6906 68.5422 40.6345L68.532 40.6397ZM21.3052 25.285C21.2854 23.7434 21.7861 22.0215 22.7982 20.2215C26.4309 13.7674 35.4232 8.43926 42.8477 8.34406C46.2346 8.30063 48.8004 9.36545 50.0711 11.3403L67.4649 40.5462L39.2016 56.9147L22.017 28.0432C21.5505 27.2271 21.313 26.2959 21.3002 25.2902L21.3052 25.285Z" fill="#494949"/>
    <path d="M38.8626 57.2613L35.5787 51.7485L59.3451 37.9854C59.4367 37.9331 59.4659 37.8153 59.4136 37.7292L41.8627 8.25991C41.7581 8.09787 41.6332 7.95141 41.5083 7.79984C41.928 7.76383 42.348 7.73802 42.763 7.7327C46.4573 7.68533 49.0868 8.91781 50.3991 10.9483L67.95 40.4176C68.0024 40.5089 67.9731 40.6216 67.8816 40.6738L39.1147 57.3347C39.0231 57.3869 38.91 57.3577 38.8576 57.2665L38.8626 57.2613Z" fill="#494949"/>
    <path d="M51.4607 50.9377L28.5134 12.6793L28.0871 13.0013C25.4328 15.0215 23.3155 17.3615 21.9627 19.7733C20.1137 23.0544 19.8359 26.1673 21.1884 28.5292L21.3561 28.8181L38.53 57.6642C38.7134 57.9733 39.1196 58.0804 39.4351 57.9028L51.4607 50.9377ZM28.2496 14.0867L50.1444 50.5972L39.2023 56.9357L22.0177 28.0591C20.8433 25.9961 21.1203 23.2202 22.7989 20.2374C24.0215 18.0672 25.8956 15.9498 28.2496 14.0867Z" fill="#494949"/>
    <path d="M47.4714 15.5662C39.8829 15.6635 30.7228 21.0908 27.015 27.6838C25.1861 30.9289 25.0288 33.8513 26.2399 35.9751L26.4076 36.2639L24.7796 33.5992L24.6119 33.3104C23.406 31.1866 23.5633 28.2692 25.387 25.0191C29.0948 18.421 38.2549 12.9988 45.8435 12.9015C49.5378 12.8542 52.1672 14.0867 53.4796 16.1172L54.9251 18.5442C53.5635 16.6624 51.0172 15.5208 47.4714 15.5662Z" fill="#232521"/>
    <path d="M55.337 18.2991L53.8914 15.872C52.4222 13.5984 49.5674 12.3739 45.8423 12.4217C38.1155 12.5208 28.7519 18.0681 24.9739 24.7845C23.125 28.0656 22.8522 31.1733 24.1996 33.5404L24.3673 33.8292L26.0005 36.5041L26.8245 36.0187L26.6568 35.7298C25.4824 33.6669 25.7595 30.891 27.4329 27.9082C31.0656 21.4541 40.0578 16.126 47.4824 16.0308C50.7105 15.9894 53.2189 16.9783 54.539 18.8096L55.3369 18.2889L55.337 18.2991ZM24.312 30.3173C24.2923 28.7756 24.7929 27.0537 25.8051 25.2538C29.4378 18.7996 38.43 13.4715 45.8546 13.3763C49.1902 13.3335 51.7248 14.363 53.0204 16.2814C51.5341 15.4734 49.648 15.0636 47.4704 15.0915C39.7435 15.1906 30.3799 20.7379 26.602 27.4543C25.5046 29.4034 24.9651 31.2892 24.987 32.9942C24.5514 32.1982 24.3297 31.2922 24.3172 30.3172L24.312 30.3173Z" fill="#494949"/>
    <path d="M57.2234 31.9881C49.6349 32.0854 40.4748 37.5127 36.767 44.1057C34.938 47.3508 34.7808 50.2732 35.9918 52.3969L36.1595 52.6858L34.5315 50.0211L34.3639 49.7322C33.1579 47.6084 33.3153 44.6911 35.139 41.441C38.8467 34.8429 48.0069 29.4207 55.5954 29.3234C59.2898 29.2761 61.9192 30.5085 63.2315 32.5391L64.6771 34.9661C63.3154 33.0843 60.7691 31.9426 57.2234 31.9881Z" fill="#232521"/>
    <path d="M65.0902 34.7209L63.6446 32.2938C62.1753 30.0151 59.3206 28.7957 55.5904 28.8436C47.8635 28.9426 38.4999 34.49 34.722 41.2064C32.8731 44.4926 32.6003 47.6003 33.9477 49.9622L34.1154 50.2511L35.7486 52.9259L36.5726 52.4405L36.4049 52.1517C35.2305 50.0887 35.5075 47.3128 37.1861 44.3301C40.8188 37.8759 49.811 32.5478 57.2356 32.4526C60.4636 32.4112 62.9721 33.4001 64.2921 35.2315L65.09 34.7107L65.0902 34.7209ZM34.0652 46.7391C34.0455 45.2025 34.5461 43.4755 35.5582 41.6756C39.1909 35.2214 48.1832 29.8933 55.6077 29.7981C58.9434 29.7553 61.478 30.7848 62.7735 32.7032C61.2872 31.8952 59.4012 31.4854 57.2235 31.5133C49.4967 31.6124 40.1331 37.1597 36.3552 43.8761C35.2578 45.8252 34.7183 47.711 34.7401 49.416C34.3046 48.62 34.0829 47.7191 34.0703 46.739L34.0652 46.7391Z" fill="#494949"/>
    <path d="M46.0659 62.6581C46.0659 62.6581 41.192 59.8462 41.1869 59.8411L41.1766 59.8413C38.0405 57.8647 37.3602 53.9626 39.9055 49.437C43.6132 42.8389 52.7734 37.4167 60.3619 37.3194C65.3577 37.2554 68.4104 39.524 68.8645 42.9593L69.1907 48.8215L67.5101 48.8431C67.465 48.9253 67.4302 49.0075 67.3851 49.0898C63.6723 55.6879 54.5172 61.11 46.9287 61.2073C46.8365 61.2085 46.7493 61.1994 46.657 61.2006L46.0711 62.6632L46.0659 62.6581Z" fill="#232521"/>
    <path d="M69.6948 49.2897L69.3417 42.9326C68.8313 39.0997 65.3885 36.7799 60.3568 36.8444C52.6299 36.9435 43.2664 42.4909 39.4884 49.2072C36.8879 53.8254 37.4392 58.056 40.9213 60.2426C40.9213 60.2426 42.5563 61.1866 45.8262 63.0746L46.3063 63.3492L46.9768 61.6864C54.6983 61.567 64.0364 56.0302 67.8042 49.3241C67.8042 49.3241 67.8042 49.3241 67.8041 49.319L69.6949 49.2948L69.6948 49.2897ZM38.8368 54.7399C38.8171 53.2084 39.3074 51.4765 40.3246 49.6713C43.9573 43.2172 52.9495 37.8891 60.3741 37.7939C64.9549 37.7351 67.9523 39.6879 68.3947 43.0162L68.6885 48.3427L67.223 48.3615L67.0229 48.7419C67.0029 48.7779 66.988 48.8138 66.9679 48.8498C63.3403 55.3039 54.343 60.6321 46.9184 60.7273C46.8774 60.7278 46.8415 60.7283 46.8006 60.7288C46.7493 60.7294 46.7031 60.7249 46.6519 60.7256L46.3291 60.7297L45.8275 61.9768C44.6142 61.2776 41.5061 59.4845 41.4287 59.4396C39.7341 58.3738 38.8622 56.7205 38.8368 54.745L38.8368 54.7399Z" fill="#494949"/>
    <path d="M46.0399 62.6578C46.0399 62.6578 41.1661 59.8458 41.1609 59.8408L41.1507 59.8409C39.5645 58.8401 38.6127 57.3512 38.3793 55.5366C45.3806 55.6 50.3583 56.9198 53.8857 50.6508C53.9308 50.5686 58.0792 49.5606 58.1242 49.4784L61.2849 47.3803L59.2247 37.3792C59.5984 37.3489 59.9722 37.3237 60.336 37.319C65.3318 37.255 68.3845 39.5236 68.8385 42.959L69.1648 48.8211L67.4842 48.8427C67.4391 48.925 67.4043 49.0071 67.3592 49.0894C63.6515 55.6874 54.4913 61.1096 46.9028 61.2069C46.8105 61.2081 46.7233 61.199 46.6311 61.2002L46.0451 62.6628L46.0399 62.6578Z" fill="#494949"/>
    <path d="M61.1458 56.4809L51.2907 47.6724C51.1815 47.5462 47.7393 43.6845 46.3134 42.3907L46.0179 42.1238L45.7032 42.3627C43.0132 44.3935 40.8603 46.7595 39.4875 49.2074C36.887 53.8256 37.4384 58.0562 40.9205 60.2427C40.9205 60.2427 42.5554 61.1867 45.8253 63.0747L46.3054 63.3494L46.976 61.6865C51.326 61.6205 56.3051 59.8514 60.6532 56.8293L61.1459 56.486L61.1458 56.4809ZM45.9621 43.3652C47.4979 44.8415 50.5813 48.3044 50.6125 48.3397L59.6071 56.3781C55.5216 59.0956 50.9295 60.6709 46.9226 60.7223C46.8816 60.7228 46.8457 60.7232 46.8047 60.7238C46.7535 60.7244 46.7073 60.7199 46.6561 60.7206L46.3333 60.7247L45.8317 61.9718C44.6184 61.2726 41.5103 59.4795 41.4328 59.4345C38.426 57.5432 38.0039 53.8011 40.3237 49.6715C41.5813 47.4344 43.5266 45.2651 45.9672 43.3652L45.9621 43.3652Z" fill="#494949"/>
    <path d="M46.4184 64.1543L44.455 60.9067L44.4548 60.8965C43.5253 59.147 43.6742 56.771 45.1573 54.1328C48.2338 48.6661 55.8274 44.1676 62.1196 44.087C65.1581 44.048 67.3233 45.0516 68.4208 46.707L70.4623 50.0506L69.0749 50.9619C68.8816 51.868 68.5096 52.8327 67.9484 53.8355C64.8719 59.3022 57.2784 63.8006 50.9862 63.8813C49.9204 63.8949 48.9759 63.7743 48.1325 63.5451L46.4234 64.144L46.4184 64.1543Z" fill="#232521"/>
    <path d="M71.1043 50.2005L68.8271 46.4618C67.5832 44.5784 65.2027 43.5725 62.113 43.6121C55.6773 43.6947 47.8854 48.313 44.7439 53.9031C43.3109 56.4539 43.0142 58.8931 43.8947 60.8219L43.8745 60.8426L44.0476 61.1518L46.21 64.7287L48.1487 64.0503C49.0329 64.2687 49.9875 64.3739 50.9867 64.3611C57.4223 64.2786 65.2142 59.6602 68.3609 54.07C68.897 53.1186 69.2744 52.1743 69.4932 51.2525L71.1042 50.1954L71.1043 50.2005ZM44.3521 58.5185C44.3359 57.2577 44.7482 55.8432 45.5749 54.3673C48.5712 49.0395 55.9969 44.6402 62.1251 44.5616C64.8767 44.5263 66.9683 45.3828 68.0187 46.9674L69.8091 49.9057L68.6402 50.6712L68.6016 50.8606C68.4131 51.7463 68.0508 52.67 67.5247 53.6008C64.5284 58.9287 57.1026 63.3279 50.9744 63.4065C50.006 63.4189 49.0873 63.3133 48.2491 63.0892L48.1051 63.0502L46.6256 63.5695L44.8818 60.6663C44.5353 60.0223 44.362 59.2945 44.3519 58.5083L44.3521 58.5185Z" fill="#494949"/>
    <path d="M46.7252 64.1501L44.7985 60.9633C50.7862 60.3198 57.5375 56.0824 60.3936 51.0065C60.9598 50.0037 62.5007 54.6709 62.694 53.7596L66.9091 53.9557L61.049 44.1719C61.5147 44.12 61.9755 44.0885 62.4264 44.0828C65.4649 44.0438 67.6302 45.0474 68.7276 46.7028L70.7691 50.0464L69.3818 50.9577C69.1884 51.8638 68.8164 52.8285 68.2553 53.8313C65.1788 59.298 57.5852 63.7964 51.293 63.8771C50.2272 63.8907 49.2827 63.7701 48.4393 63.5409L46.7302 64.1398L46.7252 64.1501Z" fill="#494949"/>
    <path d="M60.9268 55.7988C61.3741 55.9156 63.2907 56.708 65.155 57.4193C64.1885 58.3813 63.1033 59.2785 61.9297 60.0747L60.9268 55.7988Z" fill="#232521"/>
    <path d="M66.0143 57.2403L65.3294 56.9785C64.6444 56.7167 63.9491 56.4448 63.3258 56.1975C62.069 55.7031 61.3428 55.4214 61.0497 55.3383L60.2783 55.1338L61.6227 60.8604L62.1968 60.4701C63.3907 59.6583 64.5013 58.7455 65.4931 57.7576L66.0143 57.2403ZM61.5929 56.5414C61.9843 56.6896 62.4736 56.8824 62.9784 57.0802C63.3905 57.2434 63.8385 57.4163 64.2918 57.5943C63.6486 58.1897 62.964 58.755 62.2379 59.28L61.5929 56.5414Z" fill="#494949"/>
    <path d="M60.02 61.7999L51.209 47.2955L50.7925 47.5817C48.1306 49.413 46.042 51.5943 44.7443 53.9034C43.3114 56.4541 43.0146 58.8933 43.8952 60.8222L43.875 60.8429L44.0481 61.1521L46.2104 64.7289L48.1492 64.0506C49.0334 64.269 49.988 64.3742 50.9871 64.3614C53.6823 64.3268 56.6494 63.5178 59.5617 62.0305L60.0199 61.7948L60.02 61.7999ZM50.919 48.6573L58.6672 61.4139C56.0595 62.6727 53.3473 63.3814 50.975 63.4119C50.0065 63.4243 49.0878 63.3186 48.2496 63.0945L48.1056 63.0555L46.6261 63.5748L44.8824 60.6717C43.9846 58.9983 44.2325 56.7538 45.5753 54.3624C46.7327 52.3054 48.5729 50.3365 50.919 48.6522L50.919 48.6573Z" fill="#494949"/>
    <path d="M62.6384 64.1501C56.0143 68.0741 48.8013 68.1668 46.5278 64.3572C44.2543 60.5475 47.7812 54.2782 54.4054 50.3541C61.0295 46.4301 68.2424 46.3374 70.5159 50.147C72.7894 53.9567 69.2625 60.226 62.6384 64.1501Z" fill="#494949"/>
    <path d="M71.6847 52.6907C71.6717 51.6748 71.4188 50.7336 70.9212 49.9026C69.7323 47.9062 67.2996 46.8295 64.0818 46.8708C57.6462 46.9533 49.8543 51.5717 46.7127 57.1618C45.1343 59.9595 44.9273 62.6017 46.1162 64.5981C47.3051 66.5945 49.7378 67.6712 52.9556 67.6299C59.3913 67.5474 67.1832 62.929 70.3299 57.3389C71.2519 55.7035 71.703 54.12 71.6847 52.6907ZM46.3109 61.7977C46.2947 60.5368 46.707 59.1173 47.5438 57.631C50.5401 52.3032 57.9658 47.9039 64.0941 47.8254C66.9583 47.7886 69.0917 48.7007 70.1024 50.3879C71.1132 52.0802 70.8967 54.3806 69.4936 56.8697C66.4973 62.1975 59.0716 66.5968 52.9434 66.6753C50.0791 66.7121 47.9458 65.8 46.9351 64.1128C46.5266 63.4287 46.3218 62.6502 46.3109 61.7977Z" fill="#494949"/>
    <path d="M68.919 53.644C68.9088 52.8426 68.7096 52.0997 68.3169 51.4461C67.3793 49.8703 65.462 49.0218 62.9155 49.0544C57.8325 49.1196 51.6732 52.7674 49.188 57.185C47.9454 59.3964 47.7774 61.4816 48.7149 63.0523C49.6524 64.6282 51.5697 65.4766 54.1163 65.444C59.1992 65.3788 65.3585 61.731 67.8438 57.3134C68.5703 56.0226 68.9284 54.7722 68.9139 53.6441L68.919 53.644ZM48.8608 60.8448C48.848 59.8443 49.1769 58.7219 49.8383 57.5443C52.2082 53.3273 58.0828 49.8516 62.93 49.7895C65.1999 49.7604 66.8901 50.4841 67.6862 51.8218C68.4875 53.1645 68.3161 54.9843 67.2037 56.9591C64.8338 61.1761 58.9593 64.6518 54.1069 64.714C51.837 64.7431 50.1468 64.0194 49.3507 62.6817C49.026 62.1395 48.8644 61.5238 48.8557 60.8449L48.8608 60.8448Z" fill="#232521"/>
    <path d="M43.9875 5.25119C43.9252 5.18561 42.4699 3.596 39.2988 3.68771L39.3236 4.42261C42.1361 4.34059 43.3935 5.68257 43.4455 5.74317L43.9927 5.25622L43.9875 5.25119Z" fill="#232521"/>
    <path d="M47.5062 8.28525C46.2899 7.74944 44.1354 7.18991 42.0726 7.38485L42.1435 8.11404C44.0629 7.93116 46.0734 8.45168 47.2124 8.95275L47.5112 8.28008L47.5062 8.28525Z" fill="#232521"/>
    <path d="M67.3078 38.6955C64.3463 36.344 60.249 36.9377 60.0751 36.9655L60.1869 37.6891C60.2278 37.6834 64.1461 37.1175 66.8488 39.2681L67.3078 38.6955Z" fill="#232521"/>
    <path d="M68.9961 46.4546C66.2265 43.488 61.9041 43.7119 61.7198 43.7245L61.765 44.454C61.806 44.4535 65.9287 44.2424 68.4592 46.9516L68.9961 46.4546Z" fill="#232521"/>
    <path d="M69.4279 48.5432C67.086 46.5565 63.9294 46.9748 63.7964 46.9969L63.8979 47.7206C63.9287 47.7202 66.8602 47.3303 68.9482 49.1007L69.4227 48.5432L69.4279 48.5432Z" fill="#232521"/>
    <path d="M69.8494 47.843L69.0956 46.612L69.2079 42.9754C69.0445 41.8236 68.3864 40.4586 68.3549 40.4028L50.0999 9.97252C49.3411 8.74668 47.8756 8.36213 47.5056 8.28518L45.2148 6.68586L44.8673 5.96021L44.2051 6.27504L44.6368 7.1732L47.2942 8.98736C47.2942 8.98736 48.7941 9.25915 49.4693 10.3533L67.7086 40.7532C67.7086 40.7532 68.3351 42.0522 68.4756 43.0205L68.3551 46.8104L69.2189 48.2289L69.8495 47.8481L69.8494 47.843Z" fill="#232521"/>
  </svg>