<svg width="273" height="299" viewBox="0 0 273 299" fill="none" xmlns="http://www.w3.org/2000/svg">
<path d="M103.179 38.5656C46.1947 54.3418 12.7888 113.326 28.565 170.31C44.3411 227.295 103.325 260.701 160.31 244.925C217.294 229.148 250.7 170.164 234.924 113.18C219.148 56.1954 160.164 22.7894 103.179 38.5656Z" fill="#FCFCFC" stroke="#C3C6CB" stroke-width="3.71378" stroke-miterlimit="10"/>
<path d="M169.303 69.6983L171.335 68.6727C171.443 68.6429 171.628 68.4758 171.568 68.2607L171.403 65.9907C171.421 65.6383 171.577 65.3636 171.899 65.2743C172.222 65.185 172.604 65.3108 172.694 65.6334L173.719 67.6652C173.749 67.7728 173.916 67.9581 174.131 67.8986L176.401 67.7333C176.754 67.7515 177.028 67.907 177.118 68.2297C177.207 68.5523 177.081 68.9345 176.759 69.0238L174.727 70.0495C174.619 70.0793 174.434 70.2463 174.493 70.4614L174.659 72.7314C174.64 73.0839 174.485 73.3585 174.162 73.4478C173.84 73.5371 173.457 73.4114 173.368 73.0887L172.342 71.0569C172.313 70.9494 172.146 70.7641 171.93 70.8236L169.66 70.9889C169.308 70.9707 169.033 70.8151 168.944 70.4925C168.885 70.2774 169.01 69.8952 169.303 69.6983Z" fill="#9FA8BC"/>
<path d="M71.7519 81.3772L73.6889 80.3994C73.7915 80.371 73.9681 80.2117 73.9114 80.0066L73.7538 77.8426C73.7712 77.5066 73.9194 77.2448 74.227 77.1596C74.5346 77.0745 74.899 77.1944 74.9841 77.5019L75.9619 79.4389C75.9903 79.5415 76.1496 79.7181 76.3546 79.6614L78.5187 79.5038C78.8547 79.5212 79.1165 79.6694 79.2017 79.977C79.2868 80.2846 79.1669 80.649 78.8593 80.7341L76.9223 81.7119C76.8198 81.7403 76.6431 81.8996 76.6999 82.1046L76.8575 84.2687C76.8401 84.6047 76.6918 84.8665 76.3842 84.9517C76.0767 85.0368 75.7123 84.9169 75.6272 84.6093L74.6494 82.6723C74.621 82.5698 74.4617 82.3931 74.2566 82.4499L72.0926 82.6075C71.7566 82.5901 71.4948 82.4418 71.4096 82.1342C71.3245 81.8267 71.4444 81.4623 71.7519 81.3772Z" fill="#9FA8BC"/>
<path d="M141.144 102.59L142.709 101.8C142.791 101.777 142.934 101.648 142.888 101.483L142.761 99.7348C142.775 99.4634 142.895 99.252 143.143 99.1832C143.392 99.1144 143.686 99.2112 143.755 99.4597L144.544 101.024C144.567 101.107 144.696 101.25 144.862 101.204L146.609 101.077C146.881 101.091 147.092 101.21 147.161 101.459C147.23 101.707 147.133 102.001 146.885 102.07L145.32 102.86C145.237 102.883 145.095 103.012 145.14 103.177L145.268 104.925C145.254 105.196 145.134 105.408 144.886 105.477C144.637 105.545 144.343 105.449 144.274 105.2L143.484 103.636C143.461 103.553 143.333 103.41 143.167 103.456L141.419 103.583C141.148 103.569 140.936 103.45 140.868 103.201C140.739 103.058 140.919 102.741 141.144 102.59Z" fill="#9FA8BC"/>
<path d="M79.5036 212.771L82.3123 211.354C82.461 211.312 82.7172 211.081 82.6349 210.784L82.4064 207.646C82.4316 207.159 82.6466 206.779 83.0926 206.656C83.5386 206.532 84.0669 206.706 84.1904 207.152L85.6083 209.961C85.6494 210.11 85.8804 210.366 86.1778 210.283L89.3158 210.055C89.8029 210.08 90.1826 210.295 90.3061 210.741C90.4295 211.187 90.2557 211.716 89.8097 211.839L87.0009 213.257C86.8523 213.298 86.5961 213.529 86.6784 213.826L86.9069 216.964C86.8817 217.452 86.6667 217.831 86.2207 217.955C85.7747 218.078 85.2464 217.904 85.1229 217.458L83.705 214.65C83.6639 214.501 83.4329 214.245 83.1355 214.327L79.9975 214.556C79.5103 214.53 79.1307 214.315 79.0072 213.869C78.8837 213.423 79.0988 213.044 79.5036 212.771Z" fill="#9FA8BC"/>
<path d="M222.008 138.45L223.48 136.243C223.572 136.151 223.664 135.875 223.48 135.691L222.008 133.484C221.824 133.116 221.824 132.748 222.1 132.472C222.376 132.196 222.836 132.104 223.112 132.38L225.319 133.851C225.411 133.943 225.687 134.035 225.871 133.851L228.078 132.38C228.446 132.196 228.814 132.196 229.09 132.472C229.366 132.748 229.458 133.208 229.182 133.484L227.711 135.691C227.619 135.783 227.527 136.059 227.711 136.243L229.182 138.45C229.366 138.818 229.366 139.186 229.09 139.462C228.814 139.738 228.354 139.83 228.078 139.554L225.871 138.082C225.779 137.99 225.503 137.898 225.319 138.082L223.112 139.554C222.744 139.738 222.376 139.738 222.1 139.462C221.824 139.186 221.732 138.726 222.008 138.45Z" fill="#9FA8BC"/>
<path d="M79.767 122.703L81.65 118.926C81.7769 118.762 81.8671 118.309 81.5401 118.055L78.7782 114.864C78.4146 114.32 78.3413 113.74 78.7219 113.249C79.1024 112.759 79.8099 112.522 80.3003 112.903L84.0771 114.786C84.2406 114.912 84.6944 115.003 84.9481 114.676L88.1389 111.914C88.6829 111.55 89.2636 111.477 89.754 111.858C90.2444 112.238 90.4811 112.946 90.1006 113.436L88.2175 117.213C88.0906 117.376 88.0004 117.83 88.3273 118.084L91.0893 121.275C91.4529 121.819 91.5261 122.399 91.1456 122.89C90.765 123.38 90.0576 123.617 89.5672 123.236L85.7904 121.353C85.6269 121.226 85.1731 121.136 84.9194 121.463L81.7286 124.225C81.1846 124.588 80.6039 124.662 80.1135 124.281C79.6231 123.901 79.3864 123.193 79.767 122.703Z" fill="#9FA8BC"/>
<path d="M117.278 234.265L119.916 232.933C120.056 232.894 120.297 232.677 120.219 232.398L120.005 229.451C120.028 228.993 120.23 228.637 120.649 228.521C121.068 228.405 121.564 228.568 121.68 228.987L123.012 231.625C123.051 231.765 123.268 232.005 123.547 231.928L126.494 231.713C126.952 231.737 127.309 231.939 127.425 232.358C127.54 232.777 127.377 233.273 126.958 233.389L124.32 234.721C124.18 234.759 123.94 234.976 124.017 235.256L124.232 238.203C124.208 238.661 124.006 239.017 123.587 239.133C123.168 239.249 122.672 239.086 122.556 238.667L121.224 236.029C121.186 235.889 120.969 235.648 120.69 235.726L117.742 235.94C117.285 235.917 116.928 235.715 116.812 235.296C116.696 234.877 116.859 234.381 117.278 234.265Z" fill="#9FA8BC"/>
<path d="M66.5637 166.781L68.3988 163.526C68.5183 163.387 68.6185 162.99 68.3409 162.751L66.0427 159.806C65.7458 159.308 65.7072 158.792 66.0658 158.375C66.4243 157.959 67.0605 157.781 67.477 158.14L70.7313 159.975C70.8701 160.094 71.2672 160.195 71.5063 159.917L74.4519 157.619C74.9493 157.322 75.4659 157.283 75.8824 157.642C76.2988 158 76.4762 158.637 76.1176 159.053L74.2825 162.307C74.163 162.446 74.0628 162.843 74.3404 163.082L76.6386 166.028C76.9355 166.525 76.9741 167.042 76.6155 167.458C76.257 167.875 75.6208 168.052 75.2044 167.694L71.95 165.859C71.8112 165.739 71.4141 165.639 71.175 165.917L68.2294 168.215C67.7321 168.512 67.2154 168.55 66.799 168.192C66.3825 167.833 66.2051 167.197 66.5637 166.781Z" fill="#9FA8BC"/>
<path d="M112.593 65.2631L116.037 63.5996C116.367 63.5083 116.441 63.133 116.395 62.9681L116.05 59.1586C116.078 58.6184 116.436 57.9869 116.93 57.85C117.425 57.713 118.011 57.9058 118.358 58.5196L120.022 61.964C120.113 62.2937 120.489 62.3673 120.653 62.3216L124.463 61.977C125.003 62.0049 125.635 62.3625 125.772 62.8571C125.908 63.3517 125.716 63.9376 125.102 64.285L121.658 65.9485C121.328 66.0398 121.254 66.4152 121.3 66.5801L121.645 70.3895C121.617 70.9298 121.259 71.5613 120.764 71.6982C120.27 71.8351 119.684 71.6423 119.337 71.0285L117.673 67.5842C117.582 67.2544 117.206 67.1809 117.041 67.2265L113.232 67.5712C112.692 67.5433 112.06 67.1856 111.923 66.691C111.741 66.0316 111.934 65.4457 112.593 65.2631Z" fill="#9FA8BC"/>
<path d="M193.065 102.391L194.795 101.555C194.961 101.509 194.998 101.321 194.975 101.238L194.802 99.3244C194.816 99.0531 194.995 98.7359 195.244 98.6671C195.492 98.5983 195.786 98.6952 195.961 99.0035L196.797 100.734C196.842 100.899 197.031 100.936 197.114 100.913L199.027 100.74C199.299 100.754 199.616 100.934 199.685 101.182C199.753 101.431 199.657 101.725 199.348 101.899L197.618 102.735C197.453 102.781 197.416 102.969 197.438 103.052L197.612 104.966C197.598 105.237 197.418 105.554 197.169 105.623C196.921 105.692 196.627 105.595 196.452 105.287L195.617 103.557C195.571 103.391 195.382 103.354 195.299 103.377L193.386 103.55C193.115 103.536 192.797 103.356 192.729 103.108C192.66 102.86 192.84 102.542 193.065 102.391Z" fill="#9FA8BC"/>
<path d="M177.689 209.853L181.588 207.97C181.961 207.866 182.045 207.441 181.993 207.255L181.603 202.943C181.634 202.331 182.039 201.616 182.599 201.462C183.159 201.307 183.822 201.525 184.215 202.22L186.098 206.118C186.202 206.491 186.627 206.575 186.813 206.523L191.125 206.133C191.737 206.165 192.452 206.569 192.607 207.129C192.762 207.689 192.543 208.352 191.849 208.745L187.95 210.628C187.577 210.732 187.493 211.157 187.545 211.343L187.935 215.655C187.903 216.267 187.499 216.982 186.939 217.137C186.379 217.292 185.716 217.073 185.323 216.379L183.44 212.48C183.336 212.107 182.911 212.023 182.725 212.075L178.413 212.465C177.801 212.434 177.086 212.029 176.931 211.469C176.776 210.909 176.995 210.246 177.689 209.853Z" fill="#9FA8BC"/>
<path d="M195.959 169.944L198.761 168.59C199.029 168.516 199.089 168.211 199.052 168.077L198.772 164.978C198.794 164.538 199.085 164.025 199.488 163.913C199.89 163.802 200.367 163.959 200.649 164.458L202.003 167.26C202.077 167.528 202.382 167.588 202.516 167.551L205.615 167.27C206.055 167.293 206.568 167.584 206.68 167.986C206.791 168.389 206.634 168.865 206.135 169.148L203.333 170.501C203.065 170.576 203.005 170.881 203.042 171.015L203.323 174.114C203.3 174.553 203.009 175.067 202.607 175.179C202.204 175.29 201.728 175.133 201.445 174.634L200.092 171.832C200.017 171.564 199.712 171.504 199.578 171.541L196.479 171.821C196.04 171.799 195.526 171.508 195.414 171.105C195.303 170.703 195.594 170.189 195.959 169.944Z" fill="#9FA8BC"/>
<path d="M40.1042 128.906L44.2592 128.53C44.6189 128.43 44.8982 128.74 44.948 128.92L46.7625 132.677C47.0916 133.166 47.7804 133.557 48.3199 133.407C48.8593 133.258 49.2992 132.749 49.2799 131.98L48.9039 127.825C48.8044 127.465 49.1142 127.186 49.294 127.136L53.0508 125.322C53.5405 124.992 53.9306 124.304 53.7812 123.764C53.6319 123.225 53.1229 122.785 52.3539 122.804L48.1988 123.18C47.8392 123.28 47.5598 122.97 47.5101 122.79L45.6956 119.033C45.3664 118.544 44.6776 118.153 44.1382 118.303C43.5987 118.452 43.1589 118.961 43.1782 119.73L43.5541 123.885C43.6537 124.245 43.3439 124.524 43.164 124.574L39.4072 126.388C38.9176 126.718 38.5275 127.406 38.6768 127.946C38.8759 128.665 39.5647 129.055 40.1042 128.906Z" fill="#9FA8BC"/>
<path d="M17.8921 211.598L23.767 211.066C24.2755 210.925 24.6705 211.363 24.7409 211.618L27.3064 216.929C27.7718 217.622 28.7456 218.173 29.5084 217.962C30.2711 217.751 30.893 217.031 30.8657 215.944L30.3342 210.069C30.1934 209.561 30.6315 209.166 30.8857 209.095L36.1976 206.53C36.8899 206.064 37.4414 205.09 37.2303 204.328C37.0191 203.565 36.2995 202.943 35.2121 202.97L29.3372 203.502C28.8287 203.643 28.4338 203.205 28.3634 202.95L25.7979 197.639C25.3325 196.946 24.3586 196.395 23.5959 196.606C22.8331 196.817 22.2112 197.537 22.2385 198.624L22.77 204.499C22.9108 205.007 22.4727 205.402 22.2185 205.473L16.9067 208.038C16.2143 208.504 15.6628 209.477 15.874 210.24C16.1555 211.257 17.1294 211.809 17.8921 211.598Z" fill="#9FA8BC"/>
<path d="M27.65 62.4649L33.0668 61.9748C33.5356 61.845 33.8998 62.2489 33.9647 62.4833L36.3302 67.3809C36.7593 68.0193 37.6572 68.5279 38.3605 68.3332C39.0637 68.1385 39.6372 67.4749 39.612 66.4724L39.1219 61.0556C38.9921 60.5867 39.3961 60.2225 39.6305 60.1576L44.5281 57.7922C45.1665 57.3631 45.675 56.4651 45.4803 55.7619C45.2856 55.0586 44.6221 54.4851 43.6195 54.5103L38.2027 55.0004C37.7339 55.1302 37.3697 54.7263 37.3048 54.4918L34.9393 49.5942C34.5102 48.9559 33.6123 48.4473 32.909 48.642C32.2057 48.8367 31.6323 49.5003 31.6575 50.5028L32.1475 55.9196C32.2773 56.3885 31.8734 56.7527 31.639 56.8176L26.7414 59.183C26.103 59.6121 25.5945 60.5101 25.7892 61.2134C26.0488 62.151 26.9467 62.6596 27.65 62.4649Z" fill="#9FA8BC"/>
<path d="M242.238 163.918L249.622 166.549C250.314 166.663 250.546 167.411 250.489 167.757L250.625 175.595C250.801 176.689 251.669 177.897 252.706 178.067C253.744 178.237 254.895 177.716 255.468 176.389L258.1 169.005C258.213 168.313 258.962 168.081 259.308 168.137L267.145 168.002C268.239 167.826 269.447 166.958 269.617 165.92C269.787 164.883 269.266 163.731 267.939 163.159L260.555 160.527C259.863 160.414 259.631 159.665 259.688 159.319L259.552 151.482C259.376 150.387 258.508 149.18 257.47 149.009C256.433 148.839 255.281 149.361 254.709 150.688L252.077 158.071C251.964 158.763 251.215 158.996 250.869 158.939L243.032 159.075C241.938 159.251 240.73 160.119 240.56 161.156C240.333 162.54 241.2 163.748 242.238 163.918Z" fill="#9FA8BC"/>
<path d="M87.3816 89.3909C86.6956 89.5808 86.2935 90.2909 86.4834 90.9769C86.6733 91.6629 87.3834 92.0651 88.0694 91.8751C88.7554 91.6852 89.1576 90.9751 88.9676 90.2891C88.7777 89.6031 88.0676 89.201 87.3816 89.3909Z" fill="#9FA8BC"/>
<path d="M131.743 121.776C131.057 121.966 130.655 122.676 130.845 123.362C131.035 124.048 131.745 124.45 132.431 124.26C133.117 124.07 133.519 123.36 133.329 122.674C133.139 121.988 132.429 121.586 131.743 121.776Z" fill="#9FA8BC"/>
<path d="M160.56 69.5287C160.197 70.1408 160.398 70.9315 161.01 71.2949C161.623 71.6583 162.413 71.4567 162.777 70.8446C163.14 70.2325 162.938 69.4418 162.326 69.0784C161.714 68.715 160.923 68.9166 160.56 69.5287Z" fill="#9FA8BC"/>
<path d="M118.972 44.8295C118.609 45.4416 118.81 46.2323 119.423 46.5957C120.035 46.959 120.825 46.7574 121.189 46.1454C121.552 45.5333 121.35 44.7425 120.738 44.3792C120.126 44.0158 119.336 44.2174 118.972 44.8295Z" fill="#9FA8BC"/>
<path d="M44.7867 101.57C44.4233 102.182 44.6249 102.973 45.237 103.336C45.8491 103.699 46.6398 103.498 47.0032 102.886C47.3666 102.274 47.165 101.483 46.5529 101.119C45.9408 100.756 45.1501 100.958 44.7867 101.57Z" fill="#9FA8BC"/>
<path d="M50.1871 152.251C49.8237 152.863 50.0253 153.654 50.6374 154.018C51.2495 154.381 52.0402 154.179 52.4036 153.567C52.767 152.955 52.5653 152.164 51.9533 151.801C51.3412 151.438 50.5505 151.639 50.1871 152.251Z" fill="#9FA8BC"/>
<path d="M64.2476 202.906C63.8843 203.518 64.0859 204.308 64.698 204.672C65.31 205.035 66.1008 204.834 66.4641 204.222C66.8275 203.609 66.6259 202.819 66.0138 202.455C65.4017 202.092 64.611 202.294 64.2476 202.906Z" fill="#9FA8BC"/>
<path d="M98.2457 228.794C97.8823 229.406 98.0839 230.197 98.696 230.561C99.3081 230.924 100.099 230.722 100.462 230.11C100.826 229.498 100.624 228.707 100.012 228.344C99.3998 227.981 98.609 228.182 98.2457 228.794Z" fill="#9FA8BC"/>
<path d="M160.443 229.206C160.08 229.819 160.281 230.609 160.893 230.973C161.505 231.336 162.296 231.134 162.659 230.522C163.023 229.91 162.821 229.119 162.209 228.756C161.597 228.393 160.806 228.594 160.443 229.206Z" fill="#9FA8BC"/>
<path d="M203.718 190.597C203.355 191.209 203.557 192 204.169 192.363C204.781 192.727 205.571 192.525 205.935 191.913C206.298 191.301 206.097 190.51 205.485 190.147C204.872 189.783 204.082 189.985 203.718 190.597Z" fill="#9FA8BC"/>
<path d="M226.779 148.72C226.416 149.332 226.617 150.123 227.229 150.486C227.841 150.85 228.632 150.648 228.995 150.036C229.359 149.424 229.157 148.633 228.545 148.27C227.933 147.906 227.142 148.108 226.779 148.72Z" fill="#9FA8BC"/>
<path d="M200.738 84.4213C200.375 85.0334 200.576 85.8241 201.188 86.1875C201.8 86.5508 202.591 86.3492 202.954 85.7372C203.318 85.1251 203.116 84.3343 202.504 83.971C201.892 83.6076 201.101 83.8092 200.738 84.4213Z" fill="#9FA8BC"/>
<path d="M196.369 141.971L208.062 132.76L204.503 128.104L192.81 137.315L196.369 141.971Z" fill="#FCFCFC" stroke="#C3C6CB" stroke-width="3.71378" stroke-miterlimit="10"/>
<path d="M270.687 104.627L247.757 74.4479L192.892 118.002L215.821 148.181L270.687 104.627Z" fill="#FCFCFC" stroke="#C3C6CB" stroke-width="3.71378" stroke-miterlimit="10"/>
<path d="M230.571 135.85L207.616 105.523" stroke="#C3C6CB" stroke-width="3.71378" stroke-miterlimit="10"/>
<path d="M243.439 126.11L220.484 95.7832" stroke="#C3C6CB" stroke-width="3.71378" stroke-miterlimit="10"/>
<path d="M256.309 116.367L233.354 86.041" stroke="#C3C6CB" stroke-width="3.71378" stroke-miterlimit="10"/>
<path d="M255.738 86.404L199.818 128.732" stroke="#C3C6CB" stroke-width="3.71378" stroke-miterlimit="10"/>
<path d="M264.526 98.0134L208.605 140.342" stroke="#C3C6CB" stroke-width="3.71378" stroke-miterlimit="10"/>
<path d="M209.524 186.198C205.44 189.289 199.634 188.48 196.535 184.386L191.4 177.601C191.145 177.265 191.212 176.773 191.548 176.518L205.145 166.226C205.481 165.972 205.973 166.041 206.228 166.377L211.364 173.162C214.406 177.298 213.553 183.148 209.524 186.198Z" fill="#FCFCFC" stroke="#C3C6CB" stroke-width="3.71378" stroke-miterlimit="10"/>
<path d="M167.133 156.437L155.439 165.648L158.999 170.305L170.692 161.093L167.133 156.437Z" fill="#FCFCFC" stroke="#C3C6CB" stroke-width="3.71378" stroke-miterlimit="10"/>
<path d="M115.772 223.907L92.8428 193.729L147.708 150.174L170.638 180.353L115.772 223.907Z" fill="#FCFCFC" stroke="#C3C6CB" stroke-width="3.71378" stroke-miterlimit="10"/>
<path d="M154.408 193.955L131.453 163.629" stroke="#C3C6CB" stroke-width="3.71378" stroke-miterlimit="10"/>
<path d="M141.536 203.697L118.581 173.371" stroke="#C3C6CB" stroke-width="3.71378" stroke-miterlimit="10"/>
<path d="M128.669 213.438L105.715 183.111" stroke="#C3C6CB" stroke-width="3.71378" stroke-miterlimit="10"/>
<path d="M100.182 204.973L155.317 161.011" stroke="#C3C6CB" stroke-width="3.71378" stroke-miterlimit="10"/>
<path d="M108.969 216.584L164.104 172.623" stroke="#C3C6CB" stroke-width="3.71378" stroke-miterlimit="10"/>
<path d="M177.371 116.511L151.128 136.375L187.207 184.039L187.25 184.095C187.25 184.095 187.25 184.095 187.292 184.151C188.791 186.016 195.812 183.082 203.031 177.619C210.249 172.155 214.922 166.236 213.591 164.245C213.591 164.245 213.591 164.245 213.548 164.189L213.506 164.133L177.427 116.468L177.371 116.511Z" fill="#FCFCFC" stroke="#C3C6CB" stroke-width="3.71378" stroke-miterlimit="10"/>
<path d="M190.315 133.617L200.333 146.851L200.375 146.907L200.418 146.963C201.805 148.912 197.076 154.873 189.857 160.337C182.639 165.8 175.674 168.691 174.119 166.869L174.076 166.813L174.034 166.757L164.017 153.523C165.516 155.388 172.537 152.454 179.755 146.991C186.973 141.527 191.66 135.51 190.315 133.617Z" fill="#FCFCFC" stroke="#C3C6CB" stroke-width="3.71378" stroke-miterlimit="10"/>
<path d="M179.69 93.6856C185.743 101.602 179.38 116.914 165.458 127.88C151.537 138.845 135.285 141.345 129.232 133.429C129.196 133.381 129.159 133.333 129.122 133.285C129.086 133.237 129.012 133.141 128.976 133.093C127.091 129.889 136.491 118.795 150.177 108.015C163.864 97.2347 176.822 90.795 179.375 93.3961C179.412 93.444 179.485 93.54 179.522 93.588C179.58 93.5417 179.617 93.5897 179.69 93.6856Z" fill="#FCFCFC" stroke="#C3C6CB" stroke-width="3.71378" stroke-miterlimit="10"/>
<path d="M178.475 93.2724L178.511 93.3189C179.173 94.2938 178.625 96.2106 177.068 98.6142C173.933 103.513 166.829 110.681 157.78 117.723C148.731 124.765 139.985 129.932 134.531 131.716C131.823 132.632 129.835 132.689 129.057 131.804L129.021 131.757C128.985 131.711 128.949 131.664 128.913 131.618C127.063 128.512 136.286 117.757 149.716 107.306C163.146 96.8555 175.861 90.6119 178.367 93.1329C178.403 93.1794 178.439 93.2259 178.475 93.2724Z" fill="#FCFCFC" stroke="#C3C6CB" stroke-width="3.71378" stroke-miterlimit="10"/>
<path d="M177.147 99.0605L177.183 99.1065C174.065 103.958 166.999 111.056 158 118.03C149 125.004 140.302 130.121 134.878 131.889L134.843 131.842C134.807 131.796 134.771 131.75 134.771 131.75C133.196 129.134 141.093 119.915 152.557 111.031C164.079 102.102 174.927 96.796 177.075 98.9684C177.075 98.9684 177.111 99.0144 177.147 99.0605Z" fill="#FCFCFC" stroke="#C3C6CB" stroke-width="3.71378" stroke-miterlimit="10"/>
<path d="M156.511 110.127C156.686 110.496 155.611 111.785 154.082 113.013C152.49 114.292 151.017 115.05 150.738 114.678L142.002 100.444L144.997 98.0392L156.432 110.021L156.511 110.127Z" fill="#FCFCFC" stroke="#C3C6CB" stroke-width="3.71378" stroke-miterlimit="10"/>
<path d="M144.151 99.8442C146.025 98.3498 146.595 95.882 145.425 94.3321C144.255 92.7823 141.788 92.7373 139.915 94.2317C138.041 95.7261 137.471 98.1939 138.641 99.7438C139.81 101.294 142.277 101.339 144.151 99.8442Z" fill="#FCFCFC" stroke="#C3C6CB" stroke-width="3.71378" stroke-miterlimit="10"/>
<path d="M66.155 69.9366C65.7161 72.8627 63.8141 78.5687 60.449 79.4465C60.3027 79.4465 60.1564 79.4465 60.0101 79.5928C56.7914 80.0317 53.1337 77.8371 50.7928 76.2278C49.6224 75.3499 48.4519 74.3258 47.4278 73.3016C46.9888 72.8627 46.4036 72.2775 45.9647 71.8386C42.5996 68.1809 39.9661 63.6454 38.3567 58.8173C38.0641 57.7931 37.7715 56.769 37.9178 55.7448C37.9178 55.4522 38.0641 55.3059 38.0641 55.1596C38.3567 54.4281 38.942 53.6965 39.8198 53.5502C40.5513 53.4039 41.1366 53.6965 41.8681 53.8428C42.5996 54.1355 43.1849 54.4281 43.9164 54.867C42.307 52.965 41.8681 49.7463 41.8681 47.4054C41.8681 47.2591 41.8681 46.9664 42.0144 46.9664C42.1607 46.8201 42.5996 46.9664 42.7459 47.1127C45.0868 48.8684 45.0868 52.0872 46.111 54.7207C46.111 52.8187 46.2573 50.9167 46.2573 49.0147C46.2573 47.698 46.4036 46.0886 47.4278 45.2108C47.5741 45.0645 47.7204 45.0645 47.8667 45.0645C48.1593 45.0645 48.3056 45.3571 48.4519 45.5034C50.2076 48.5758 49.1834 52.3798 49.476 55.8911C49.6224 57.2079 49.7687 58.5247 50.0613 59.8414C50.2076 60.4266 50.5002 61.7434 50.7928 63.0602C51.0854 63.6454 51.378 64.2306 51.8169 64.8158C51.9633 65.1085 52.2559 65.4011 52.5485 65.5474C52.9874 65.9863 53.5726 66.4252 54.1579 66.8641C55.3283 67.4494 56.4988 67.8883 57.8155 68.1809C60.1564 68.6198 62.4973 68.6198 64.8382 68.7661C65.2772 68.7661 65.7161 68.9124 66.0087 69.205C66.155 69.4977 66.155 69.644 66.155 69.9366Z" fill="#FCFCFC" stroke="#C3C6CB" stroke-width="3.71378" stroke-miterlimit="10" stroke-linecap="round" stroke-linejoin="round"/>
<path d="M96.8759 118.362C93.8034 118.362 90.5847 117.338 88.2438 115.875C83.7083 112.949 80.9284 108.56 78.2949 104.61L83.4157 101.244C85.7566 104.756 88.0975 108.56 91.4625 110.608C94.096 112.364 98.3389 112.949 100.68 110.901C103.606 108.267 102.874 103.293 101.704 99.6351C100.241 95.0996 97.4611 91.1493 94.096 88.6621L97.7537 83.834C102.289 87.199 105.801 92.1735 107.556 97.8794C110.043 105.634 109.166 111.779 104.776 115.583C102.582 117.485 99.6557 118.362 96.8759 118.362Z" fill="#C3C6CB"/>
<path d="M103.168 69.7905C103.315 71.9851 102.583 74.1797 101.705 76.3743C98.3402 85.1527 94.8289 93.9311 90.7323 102.417C89.8545 104.026 89.1229 105.782 88.2451 107.391C87.0746 109.732 85.6116 112.366 82.978 112.951C80.7835 113.39 78.7352 112.366 76.8332 111.342C76.248 111.049 75.6627 110.61 75.3701 110.025C75.0775 109.44 75.2238 108.708 75.3701 108.123C77.1258 99.3444 80.4908 91.1512 83.8559 82.8118C85.4653 78.7152 87.2209 74.4723 88.5377 70.2294C89.5618 67.3033 90.2934 63.4993 94.0974 63.2067C97.6087 63.0604 102.876 65.8402 103.168 69.7905Z" fill="#C3C6CB"/>
<path d="M62.3489 95.9787C62.3489 96.2713 62.3489 96.4176 62.3489 96.7102C62.2026 98.6122 61.7637 100.368 60.7395 101.977C59.5691 103.733 57.8134 105.196 55.7651 105.635C55.3262 105.781 54.8873 105.781 54.4484 105.781C52.5464 105.927 50.6444 105.342 48.8887 104.611C46.6941 103.733 44.4995 102.709 42.0123 102.562C40.6955 102.416 39.3788 102.562 38.062 102.855C37.3305 103.001 36.7453 103.294 36.0137 103.44C35.2822 103.733 34.5507 104.026 33.8191 104.318C31.3319 105.489 28.8447 107.098 26.3575 108.122C24.3092 109 21.822 109.439 20.0663 108.122C19.1885 107.537 18.7495 106.513 18.3106 105.635C15.8234 100.953 13.6288 96.2713 11.4342 91.4431C11.2879 91.2968 11.1416 91.0042 11.1416 90.7116C11.1416 89.9801 12.0194 89.3949 12.6047 89.1022C12.751 88.9559 12.8973 88.9559 13.0436 88.8096C14.653 88.0781 16.116 87.4929 17.8717 87.2003C19.7737 87.0539 21.822 87.3466 23.1387 88.6633C24.0166 89.5412 24.6018 90.5653 25.187 91.7358C25.7723 93.0525 26.5038 94.3693 27.089 95.686C28.8447 94.223 30.6004 92.7599 32.5024 91.4431C33.0876 91.0042 33.6728 90.7116 34.258 90.419C35.2822 89.8338 36.4526 89.2485 37.6231 88.9559C39.5251 88.2244 41.5734 87.9318 43.6217 87.7855C44.6458 87.6392 45.67 87.4929 46.6941 87.6392C47.8646 87.6392 49.035 87.9318 50.0592 88.0781C52.839 88.6633 55.7651 89.2485 58.5449 89.8338L55.4725 89.5412C57.9597 90.1264 60.8858 91.0042 61.91 93.3451C62.3489 94.0767 62.3489 95.1008 62.3489 95.9787Z" fill="#FCFCFC" stroke="#C3C6CB" stroke-width="3.71378" stroke-miterlimit="10" stroke-linecap="round" stroke-linejoin="round"/>
<path d="M51.5211 88.9565C50.4969 92.9068 51.3747 97.1497 53.862 100.515C54.0083 100.661 54.1546 100.954 54.4472 100.807C54.5935 100.807 54.5935 100.661 54.7398 100.515C55.1787 99.4906 55.325 98.3202 55.4713 97.296C55.7639 94.8088 56.6418 90.8585 55.7639 88.3713C54.7398 86.0304 51.96 87.0546 51.5211 88.9565Z" fill="#C3C6CB"/>
<path d="M69.6652 60.8645C68.4947 62.4739 67.0316 63.7907 65.7149 65.2537C57.9606 73.5932 54.303 85.1514 52.1084 96.417C51.5231 99.3432 51.2305 102.562 52.9862 104.757C53.8641 105.781 55.0345 106.512 56.205 107.097C58.1069 108.122 59.8626 109.146 61.7646 110.17C63.9592 111.34 66.3001 112.657 68.7873 112.803C71.7135 112.95 74.6396 111.487 76.8342 109.438C79.0288 107.39 80.4919 104.757 81.9549 102.123C85.6126 95.3929 88.9776 88.5165 91.9038 81.4938C92.7816 79.4455 93.6594 77.2509 93.9521 75.0563C94.391 71.8375 93.6594 68.6188 93.0742 65.5463C92.9279 64.8148 92.7816 63.937 92.1964 63.3517C91.4648 62.6202 90.2944 62.6202 89.4165 62.7665C82.9791 63.0591 76.3953 63.6444 70.2504 62.1813C68.9336 61.8887 67.4706 61.4497 66.739 60.2793" fill="#FCFCFC"/>
<path d="M69.6652 60.8645C68.4947 62.4739 67.0316 63.7907 65.7149 65.2537C57.9606 73.5932 54.303 85.1514 52.1084 96.417C51.5231 99.3432 51.2305 102.562 52.9862 104.757C53.8641 105.781 55.0345 106.512 56.205 107.097C58.1069 108.122 59.8626 109.146 61.7646 110.17C63.9592 111.34 66.3001 112.657 68.7873 112.803C71.7135 112.95 74.6396 111.487 76.8342 109.438C79.0288 107.39 80.4919 104.757 81.9549 102.123C85.6126 95.3929 88.9776 88.5165 91.9038 81.4938C92.7816 79.4455 93.6594 77.2509 93.9521 75.0563C94.391 71.8375 93.6594 68.6188 93.0742 65.5463C92.9279 64.8148 92.7816 63.937 92.1964 63.3517C91.4648 62.6202 90.2944 62.6202 89.4166 62.7665C82.9791 63.0591 76.3953 63.6444 70.2504 62.1813C68.9336 61.8887 67.4706 61.4497 66.739 60.2793" stroke="#C3C6CB" stroke-width="3.71378" stroke-miterlimit="10" stroke-linecap="round" stroke-linejoin="round"/>
<path d="M38.0616 103.002C37.3301 103.149 36.7448 103.441 36.0133 103.588C35.867 101.539 35.5744 99.1985 34.9892 97.0039C34.4039 95.1019 33.6724 93.3462 32.502 91.5906C33.0872 91.1516 33.6724 90.859 34.2576 90.5664C35.4281 92.4684 36.3059 94.3704 36.8912 96.4187C37.4764 98.6133 37.9153 100.954 38.0616 103.002Z" fill="#C3C6CB"/>
<path d="M57.9584 100.077C57.3732 101.54 57.6658 99.638 57.5195 101.394C57.5195 103.003 57.9584 104.612 58.8363 106.076C60.592 108.563 63.6644 110.026 66.5905 111.05C69.2241 111.928 72.0039 112.367 74.6374 111.05C77.8561 109.441 80.3434 105.637 80.0507 101.979C79.7581 97.1508 74.0522 94.6636 69.8093 94.2247C64.5422 93.6394 61.9087 95.5414 57.8121 98.6139V100.077H57.9584Z" fill="#C3C6CB"/>
<path d="M98.7786 53.6973C98.7786 53.8436 98.6323 54.1363 98.6323 54.2826C97.9007 57.5013 97.0229 60.5738 96.7303 63.9388C96.584 65.4019 96.8766 68.0354 95.4135 69.0595C94.2431 69.7911 92.1948 69.3521 90.878 69.3521C86.7814 69.0595 82.8312 68.328 78.5883 68.328C78.2957 68.328 78.003 68.328 77.5641 68.328C76.1011 68.1817 74.7843 67.5965 73.6138 66.8649C72.0045 66.1334 70.5414 65.2556 68.932 64.6703C67.6153 64.2314 66.1522 63.9388 65.4207 62.7684C64.5428 61.5979 64.5428 60.1348 64.3965 58.8181C63.9576 54.4289 64.1039 49.7471 65.2744 45.5042C66.0059 42.8707 67.469 40.2371 69.6636 38.3351C74.4917 33.946 82.2459 33.0681 88.2445 35.9942C92.6337 38.1888 96.4377 41.9928 98.1934 46.6746C98.9249 48.7229 99.2175 51.2101 98.7786 53.6973Z" fill="#FCFCFC" stroke="#C3C6CB" stroke-width="3.71378" stroke-miterlimit="10" stroke-linecap="round" stroke-linejoin="round"/>
<path d="M98.7789 53.6985C98.7789 53.8448 98.6326 54.1374 98.6326 54.2837C97.9011 57.5025 97.0232 60.5749 96.7306 63.94C96.5843 65.403 96.8769 68.0365 95.4139 69.0607C94.2434 69.7922 92.1951 69.3533 90.8784 69.3533C86.7818 69.0607 82.8315 68.3292 78.5886 68.3292C78.296 68.3292 78.0034 68.3292 77.5645 68.3292C79.3201 67.5976 81.2221 67.5976 83.1241 67.305C89.1227 66.2809 94.3897 62.038 96.7306 56.4783C97.4621 54.7226 97.9011 52.8207 98.0474 50.9187C98.1937 49.4556 98.1937 47.9925 97.9011 46.6758C98.9252 48.7241 99.2178 51.2113 98.7789 53.6985Z" fill="#FCFCFC" stroke="#C3C6CB" stroke-width="3.71378" stroke-miterlimit="10" stroke-linecap="round" stroke-linejoin="round"/>
<path d="M85.6118 65.8418C84.0024 67.3049 82.1005 68.329 80.0522 68.329C76.5408 68.329 72.8831 67.5975 69.6644 65.9881C68.6403 65.4029 67.7624 64.8177 66.8846 64.2324C66.4456 63.7935 65.8604 63.3546 65.5678 62.9157C64.5437 61.7452 63.9584 60.4285 63.6658 58.8191C62.788 55.454 63.3732 51.3575 64.5437 48.1387C65.8604 44.7737 67.9087 43.4569 71.4201 43.3106C74.9314 43.018 79.028 44.1884 82.3931 45.7978C82.5394 45.9441 82.6857 45.9441 82.832 46.0904C84.2951 46.822 85.6118 47.6998 86.636 48.7239C91.6104 53.2594 90.2936 61.4526 85.6118 65.8418Z" fill="#FCFCFC" stroke="#C3C6CB" stroke-width="3.71378" stroke-miterlimit="10" stroke-linecap="round" stroke-linejoin="round"/>
<path d="M77.8568 104.465C77.8568 104.612 77.8568 104.612 77.8568 104.758C77.8568 105.489 77.7105 106.075 77.4179 106.66C76.3937 109.44 73.4676 111.195 70.5415 112.073C67.6153 112.951 64.5429 113.097 61.7631 113.975C59.4222 114.707 57.0813 115.731 55.3256 117.34C54.8867 117.779 54.4478 118.072 54.1551 118.511C54.1551 118.657 54.0088 118.657 54.0088 118.803C50.7901 122.754 49.9122 128.46 46.1083 131.971C45.8157 132.264 45.5231 132.41 45.2304 132.556C44.9378 132.556 44.6452 132.41 44.3526 132.41C38.9393 130.069 33.9648 127.143 28.9904 124.07C28.2589 123.631 27.381 123.046 26.9421 122.315C26.6495 121.729 26.6495 121.144 26.9421 120.559C27.6736 118.364 30.8924 115.731 32.3555 115.146C33.9648 114.56 35.8668 114.707 37.4762 115.292C39.0856 115.877 40.6949 116.901 42.0117 117.925C42.3043 115.877 42.8895 113.683 43.7674 111.781C44.06 111.195 44.3526 110.61 44.6452 110.025C44.9378 109.44 45.3767 109.001 45.6694 108.416C46.5472 107.099 47.7176 105.928 48.8881 104.904C50.4975 103.441 52.2532 102.124 54.0088 100.954C56.6424 99.1983 59.4222 97.5889 62.3483 96.8573C62.7872 96.711 63.2262 96.711 63.6651 96.5647C66.5912 95.9795 69.8099 96.4184 72.5898 97.5889C74.1991 98.1741 75.6622 99.1983 76.6864 100.515C77.4179 101.539 77.8568 103.002 77.8568 104.465Z" fill="#FCFCFC" stroke="#C3C6CB" stroke-width="3.71378" stroke-miterlimit="10" stroke-linecap="round" stroke-linejoin="round"/>
<path d="M55.1795 117.339C54.7406 117.778 54.3017 118.07 54.009 118.509C54.009 118.656 53.8627 118.656 53.8627 118.802C52.1071 116.607 50.0588 114.852 47.7179 113.535C46.6937 112.95 45.5233 112.511 44.3528 112.072C44.2065 111.925 43.9139 111.925 43.7676 111.779C44.0602 111.194 44.3528 110.609 44.6454 110.023C44.7917 110.023 44.938 110.17 45.0843 110.17C46.2548 110.609 47.5716 111.048 48.742 111.779C51.0829 113.096 53.4238 114.998 55.1795 117.339Z" fill="#C3C6CB"/>
<path d="M121.897 79.1544C121.897 79.3007 121.897 79.5933 121.75 79.7396C121.311 81.349 119.702 82.2268 118.093 82.5194C117.654 82.6658 117.068 82.6658 116.63 82.6658C115.459 82.8121 114.435 82.8121 113.264 83.1047C112.094 83.3973 110.924 84.1288 109.753 84.714C108.583 85.2993 107.266 85.7382 106.095 86.0308C105.364 86.1771 104.632 86.3234 103.901 86.4697C100.682 86.9086 97.4634 86.616 94.3909 85.5919C92.4889 85.0067 91.0259 83.3973 90.148 81.349C88.8313 78.1303 89.1239 74.0337 92.1963 72.1317C96.1466 69.6445 98.6338 73.1558 101.853 74.6189C102.438 74.9115 103.023 75.0578 103.608 75.2041C104.34 75.3504 105.071 75.3504 105.803 75.3504C107.412 75.2041 109.022 74.7652 110.485 74.0337C113.118 72.7169 115.459 70.6686 117.8 68.7666C118.239 68.474 118.678 68.0351 119.263 68.1814C119.848 68.3277 120.141 69.0592 120.141 69.7908V69.9371C119.995 70.5223 119.702 71.1075 119.556 71.6928C119.263 74.3263 122.189 76.6672 121.897 79.1544Z" fill="#FCFCFC" stroke="#C3C6CB" stroke-width="3.71378" stroke-miterlimit="10" stroke-linecap="round" stroke-linejoin="round"/>
<path d="M120.725 85.443L109.898 32.1874C109.752 31.6022 110.19 31.1633 110.629 31.017C111.215 30.8707 111.654 31.3096 111.8 31.7485L122.627 85.0041C122.773 85.5893 122.334 86.0283 121.895 86.1746C121.456 86.3209 120.871 85.882 120.725 85.443Z" fill="#FCFCFC" stroke="#C3C6CB" stroke-width="3.71378" stroke-miterlimit="10" stroke-linecap="round" stroke-linejoin="round"/>
<path d="M121.75 79.7383C121.311 81.3476 119.701 82.2255 118.092 82.5181C117.653 82.6644 117.068 82.6644 116.629 82.6644C116.629 82.5181 116.483 82.3718 116.483 82.2255C116.19 81.6403 116.336 80.9087 116.922 80.4698C116.483 80.3235 116.044 80.1772 115.897 79.7383C115.605 79.0067 115.897 78.1289 116.629 77.8363L117.068 77.69C116.922 77.69 116.775 77.69 116.775 77.69C116.19 77.69 115.751 77.3974 115.458 76.8121C115.166 76.0806 115.458 75.3491 116.044 74.9102C115.751 74.7638 115.312 74.4712 115.166 74.1786C114.873 73.4471 115.166 72.5692 115.897 72.2766L120.579 70.082C120.433 70.6673 120.14 71.2525 119.994 71.8377C119.262 74.4712 122.627 76.9584 121.75 79.7383Z" fill="#FCFCFC" stroke="#C3C6CB" stroke-width="3.71378" stroke-miterlimit="10" stroke-linecap="round" stroke-linejoin="round"/>
<path d="M124.091 78.2771C123.945 77.8381 123.506 77.5455 123.067 77.5455L123.506 77.3992C124.238 77.1066 124.53 76.2288 124.238 75.4972C123.945 74.912 123.213 74.6194 122.628 74.7657L122.921 74.6194C123.652 74.3268 123.945 73.449 123.652 72.7174C123.506 72.2785 123.213 72.1322 122.774 71.9859C123.36 71.547 123.652 70.8154 123.36 70.0839C123.067 69.3524 122.189 69.0598 121.458 69.3524L116.483 71.6933C115.752 71.9859 115.459 72.8637 115.752 73.5953C115.898 74.0342 116.191 74.1805 116.63 74.3268C116.044 74.7657 115.752 75.4972 116.044 76.2288C116.337 76.814 117.069 77.1066 117.654 76.9603L117.215 77.1066C116.483 77.3992 116.191 78.2771 116.483 79.0086C116.63 79.4475 117.069 79.7401 117.507 79.7401C116.922 80.1791 116.776 80.9106 117.069 81.4958C117.361 82.2273 118.239 82.52 118.971 82.2273L123.36 80.1791C124.091 79.8864 124.384 79.1549 124.091 78.2771Z" fill="#FCFCFC" stroke="#C3C6CB" stroke-width="3.71378" stroke-miterlimit="10" stroke-linecap="round" stroke-linejoin="round"/>
<path opacity="0.4" d="M80.1982 51.6477C79.613 52.5255 78.4425 52.8182 77.5647 52.3792C77.2721 52.2329 76.8332 52.0866 76.5406 51.9403C72.444 50.3309 68.0548 51.3551 66.8843 54.4275C66.5917 55.1591 65.5676 55.0127 65.5676 54.2812C65.4213 53.2571 65.5676 52.0866 66.0065 51.0625C67.4695 47.1122 72.2977 45.3565 76.8332 47.1122C78.0036 47.5511 79.0278 48.2826 79.9056 49.0142C80.6371 49.7457 80.6371 50.7699 80.1982 51.6477Z" fill="#C3C6CB"/>
<path opacity="0.4" d="M66.1533 74.0328C69.0795 75.4958 75.078 77.3978 78.7357 77.6904C79.4672 77.8367 79.7599 78.422 79.6135 79.1535C77.1263 85.0058 75.078 90.858 74.3465 93.0526C74.2002 93.6378 73.615 93.9305 73.1761 93.7842C70.5425 93.0526 63.2272 91.0043 60.3011 89.8339C59.7159 89.6876 59.5695 89.1023 59.7159 88.5171C62.2031 82.3722 63.9587 76.9589 64.6903 74.618C64.9829 74.0328 65.7144 73.7401 66.1533 74.0328Z" fill="#C3C6CB"/>
<path d="M106.243 85.8835C105.512 86.0298 104.78 86.1761 104.049 86.3224C102.878 84.5668 102.147 82.2258 102.293 79.8849C102.439 78.5682 102.878 76.6662 103.756 75.2031C104.488 75.3494 105.219 75.3494 105.951 75.3494C105.073 76.6662 104.341 78.5682 104.195 80.0312C104.049 82.2258 104.926 84.5668 106.243 85.8835Z" fill="#C3C6CB"/>
<path d="M54.3032 66.8638C51.6696 68.6195 49.3287 70.8141 47.2804 73.3013C46.8415 72.8624 46.2563 72.2772 45.8174 71.8382C47.7194 69.4973 50.0603 67.449 52.5475 65.6934L54.3032 66.8638Z" fill="#C3C6CB"/>
<path d="M149.402 51.3554C135.65 46.8199 129.944 64.0841 115.898 56.7688L110.924 32.4819C126.14 38.9193 131.992 24.2887 144.428 27.0685L149.402 51.3554Z" fill="#FCFCFC" stroke="#C3C6CB" stroke-width="3.71378" stroke-miterlimit="10" stroke-linecap="round" stroke-linejoin="round"/>
</svg>
