<svg width="273" height="298" viewBox="0 0 273 298" fill="none" xmlns="http://www.w3.org/2000/svg">
<path d="M103.18 38.5656C46.1957 54.3418 12.7898 113.326 28.5659 170.31C44.3421 227.295 103.326 260.701 160.311 244.925C217.295 229.148 250.701 170.164 234.925 113.18C219.149 56.1954 160.165 22.7894 103.18 38.5656Z" fill="#1F2229" stroke="#3B414E" stroke-width="3.71378" stroke-miterlimit="10"/>
<path d="M169.304 69.6983L171.336 68.6727C171.444 68.6429 171.629 68.4758 171.569 68.2607L171.404 65.9907C171.422 65.6383 171.578 65.3636 171.9 65.2743C172.223 65.185 172.605 65.3108 172.695 65.6334L173.72 67.6652C173.75 67.7728 173.917 67.9581 174.132 67.8986L176.402 67.7333C176.755 67.7515 177.029 67.907 177.119 68.2297C177.208 68.5523 177.082 68.9345 176.759 69.0238L174.728 70.0495C174.62 70.0793 174.435 70.2463 174.494 70.4614L174.66 72.7314C174.641 73.0839 174.486 73.3585 174.163 73.4478C173.841 73.5371 173.458 73.4114 173.369 73.0887L172.343 71.0569C172.314 70.9494 172.147 70.7641 171.931 70.8236L169.661 70.9889C169.309 70.9707 169.034 70.8151 168.945 70.4925C168.886 70.2774 169.011 69.8952 169.304 69.6983Z" fill="#6D7381"/>
<path d="M71.7529 81.3772L73.6899 80.3994C73.7924 80.371 73.9691 80.2117 73.9123 80.0066L73.7548 77.8426C73.7721 77.5066 73.9204 77.2448 74.228 77.1596C74.5356 77.0745 74.8999 77.1944 74.9851 77.5019L75.9629 79.4389C75.9913 79.5415 76.1506 79.7181 76.3556 79.6614L78.5197 79.5038C78.8557 79.5212 79.1175 79.6694 79.2026 79.977C79.2878 80.2846 79.1679 80.649 78.8603 80.7341L76.9233 81.7119C76.8208 81.7403 76.6441 81.8996 76.7009 82.1046L76.8585 84.2687C76.8411 84.6047 76.6928 84.8665 76.3852 84.9517C76.0776 85.0368 75.7133 84.9169 75.6281 84.6093L74.6503 82.6723C74.6219 82.5698 74.4627 82.3931 74.2576 82.4499L72.0935 82.6075C71.7576 82.5901 71.4957 82.4418 71.4106 82.1342C71.3254 81.8267 71.4453 81.4623 71.7529 81.3772Z" fill="#6D7381"/>
<path d="M141.145 102.59L142.71 101.8C142.792 101.777 142.935 101.648 142.889 101.483L142.762 99.7348C142.776 99.4634 142.896 99.252 143.144 99.1832C143.393 99.1144 143.687 99.2112 143.756 99.4597L144.545 101.024C144.568 101.107 144.697 101.25 144.863 101.204L146.61 101.077C146.882 101.091 147.093 101.21 147.162 101.459C147.231 101.707 147.134 102.001 146.886 102.07L145.321 102.86C145.238 102.883 145.096 103.012 145.141 103.177L145.269 104.925C145.255 105.196 145.135 105.408 144.886 105.477C144.638 105.545 144.344 105.449 144.275 105.2L143.485 103.636C143.462 103.553 143.334 103.41 143.168 103.456L141.42 103.583C141.149 103.569 140.937 103.45 140.869 103.201C140.74 103.058 140.92 102.741 141.145 102.59Z" fill="#6D7381"/>
<path d="M79.5046 212.771L82.3133 211.354C82.462 211.312 82.7182 211.081 82.6359 210.784L82.4074 207.646C82.4326 207.159 82.6476 206.779 83.0936 206.656C83.5396 206.532 84.0679 206.706 84.1914 207.152L85.6092 209.961C85.6504 210.11 85.8814 210.366 86.1787 210.283L89.3167 210.055C89.8039 210.08 90.1836 210.295 90.307 210.741C90.4305 211.187 90.2567 211.716 89.8107 211.839L87.0019 213.257C86.8532 213.298 86.5971 213.529 86.6794 213.826L86.9079 216.964C86.8827 217.452 86.6677 217.831 86.2217 217.955C85.7757 218.078 85.2473 217.904 85.1239 217.458L83.706 214.65C83.6648 214.501 83.4338 214.245 83.1365 214.327L79.9985 214.556C79.5113 214.53 79.1317 214.315 79.0082 213.869C78.8847 213.423 79.0997 213.044 79.5046 212.771Z" fill="#6D7381"/>
<path d="M222.009 138.45L223.481 136.243C223.573 136.151 223.665 135.875 223.481 135.691L222.009 133.484C221.825 133.116 221.825 132.748 222.101 132.472C222.377 132.196 222.837 132.104 223.113 132.38L225.32 133.851C225.412 133.943 225.688 134.035 225.872 133.851L228.079 132.38C228.447 132.196 228.815 132.196 229.091 132.472C229.367 132.748 229.459 133.208 229.183 133.484L227.712 135.691C227.62 135.783 227.528 136.059 227.712 136.243L229.183 138.45C229.367 138.818 229.367 139.186 229.091 139.462C228.815 139.738 228.355 139.83 228.079 139.554L225.872 138.082C225.78 137.99 225.504 137.898 225.32 138.082L223.113 139.554C222.745 139.738 222.377 139.738 222.101 139.462C221.825 139.186 221.733 138.726 222.009 138.45Z" fill="#6D7381"/>
<path d="M79.7679 122.703L81.651 118.926C81.7779 118.762 81.8681 118.309 81.5411 118.055L78.7791 114.864C78.4156 114.32 78.3423 113.74 78.7229 113.249C79.1034 112.759 79.8109 112.522 80.3013 112.903L84.0781 114.786C84.2416 114.912 84.6953 115.003 84.949 114.676L88.1399 111.914C88.6839 111.55 89.2645 111.477 89.7549 111.858C90.2454 112.238 90.4821 112.946 90.1015 113.436L88.2184 117.213C88.0916 117.376 88.0014 117.83 88.3283 118.084L91.0903 121.275C91.4539 121.819 91.5271 122.399 91.1466 122.89C90.766 123.38 90.0586 123.617 89.5681 123.236L85.7913 121.353C85.6279 121.226 85.1741 121.136 84.9204 121.463L81.7296 124.225C81.1856 124.588 80.6049 124.662 80.1145 124.281C79.6241 123.901 79.3874 123.193 79.7679 122.703Z" fill="#6D7381"/>
<path d="M117.279 234.265L119.917 232.933C120.057 232.894 120.298 232.677 120.22 232.398L120.006 229.451C120.029 228.993 120.231 228.637 120.65 228.521C121.069 228.405 121.565 228.568 121.681 228.987L123.013 231.625C123.052 231.765 123.269 232.005 123.548 231.928L126.495 231.713C126.953 231.737 127.31 231.939 127.425 232.358C127.541 232.777 127.378 233.273 126.959 233.389L124.321 234.721C124.181 234.759 123.941 234.976 124.018 235.256L124.233 238.203C124.209 238.661 124.007 239.017 123.588 239.133C123.169 239.249 122.673 239.086 122.557 238.667L121.225 236.029C121.187 235.889 120.97 235.648 120.691 235.726L117.743 235.94C117.286 235.917 116.929 235.715 116.813 235.296C116.697 234.877 116.86 234.381 117.279 234.265Z" fill="#6D7381"/>
<path d="M66.5647 166.781L68.3998 163.526C68.5193 163.387 68.6195 162.99 68.3419 162.751L66.0437 159.806C65.7468 159.308 65.7082 158.792 66.0667 158.375C66.4253 157.959 67.0615 157.781 67.4779 158.14L70.7322 159.975C70.8711 160.094 71.2682 160.195 71.5072 159.917L74.4529 157.619C74.9502 157.322 75.4669 157.283 75.8833 157.642C76.2998 158 76.4772 158.637 76.1186 159.053L74.2835 162.307C74.164 162.446 74.0637 162.843 74.3414 163.082L76.6396 166.028C76.9365 166.525 76.9751 167.042 76.6165 167.458C76.258 167.875 75.6218 168.052 75.2053 167.694L71.951 165.859C71.8122 165.739 71.4151 165.639 71.176 165.917L68.2304 168.215C67.733 168.512 67.2164 168.55 66.7999 168.192C66.3835 167.833 66.2061 167.197 66.5647 166.781Z" fill="#6D7381"/>
<path d="M112.594 65.2631L116.038 63.5996C116.368 63.5083 116.442 63.133 116.396 62.9681L116.051 59.1586C116.079 58.6184 116.437 57.9869 116.931 57.85C117.426 57.713 118.012 57.9058 118.359 58.5196L120.023 61.964C120.114 62.2937 120.49 62.3673 120.654 62.3216L124.464 61.977C125.004 62.0049 125.636 62.3625 125.773 62.8571C125.909 63.3517 125.717 63.9376 125.103 64.285L121.659 65.9485C121.329 66.0398 121.255 66.4152 121.301 66.5801L121.646 70.3895C121.618 70.9298 121.26 71.5613 120.765 71.6982C120.271 71.8351 119.685 71.6423 119.337 71.0285L117.674 67.5842C117.583 67.2544 117.207 67.1809 117.042 67.2265L113.233 67.5712C112.693 67.5433 112.061 67.1856 111.924 66.691C111.742 66.0316 111.935 65.4457 112.594 65.2631Z" fill="#6D7381"/>
<path d="M193.066 102.391L194.796 101.555C194.962 101.509 194.999 101.321 194.976 101.238L194.803 99.3244C194.817 99.0531 194.996 98.7359 195.245 98.6671C195.493 98.5983 195.787 98.6952 195.962 99.0035L196.798 100.734C196.843 100.899 197.032 100.936 197.115 100.913L199.028 100.74C199.3 100.754 199.617 100.934 199.686 101.182C199.754 101.431 199.657 101.725 199.349 101.899L197.619 102.735C197.453 102.781 197.417 102.969 197.439 103.052L197.613 104.966C197.599 105.237 197.419 105.554 197.17 105.623C196.922 105.692 196.628 105.595 196.453 105.287L195.618 103.557C195.572 103.391 195.383 103.354 195.3 103.377L193.387 103.55C193.116 103.536 192.798 103.356 192.73 103.108C192.661 102.86 192.841 102.542 193.066 102.391Z" fill="#6D7381"/>
<path d="M177.69 209.853L181.589 207.97C181.962 207.866 182.046 207.441 181.994 207.255L181.604 202.943C181.635 202.331 182.04 201.616 182.6 201.462C183.16 201.307 183.823 201.525 184.216 202.22L186.099 206.118C186.203 206.491 186.628 206.575 186.814 206.523L191.126 206.133C191.738 206.165 192.453 206.569 192.608 207.129C192.763 207.689 192.544 208.352 191.85 208.745L187.951 210.628C187.578 210.732 187.494 211.157 187.546 211.343L187.936 215.655C187.904 216.267 187.5 216.982 186.94 217.137C186.38 217.292 185.717 217.073 185.324 216.379L183.441 212.48C183.337 212.107 182.912 212.023 182.726 212.075L178.414 212.465C177.802 212.434 177.087 212.029 176.932 211.469C176.777 210.909 176.996 210.246 177.69 209.853Z" fill="#6D7381"/>
<path d="M195.96 169.944L198.762 168.59C199.03 168.516 199.09 168.211 199.053 168.077L198.773 164.978C198.795 164.538 199.086 164.025 199.489 163.913C199.891 163.802 200.368 163.959 200.65 164.458L202.004 167.26C202.078 167.528 202.383 167.588 202.517 167.551L205.616 167.27C206.056 167.293 206.569 167.584 206.681 167.986C206.792 168.389 206.635 168.865 206.136 169.148L203.334 170.501C203.066 170.576 203.006 170.881 203.043 171.015L203.324 174.114C203.301 174.553 203.01 175.067 202.608 175.179C202.205 175.29 201.729 175.133 201.446 174.634L200.093 171.832C200.018 171.564 199.713 171.504 199.579 171.541L196.48 171.821C196.041 171.799 195.527 171.508 195.415 171.105C195.304 170.703 195.595 170.189 195.96 169.944Z" fill="#6D7381"/>
<path d="M40.1051 128.906L44.2602 128.53C44.6198 128.43 44.8992 128.74 44.949 128.92L46.7634 132.677C47.0926 133.166 47.7814 133.557 48.3208 133.407C48.8603 133.258 49.3002 132.749 49.2808 131.98L48.9049 127.825C48.8054 127.465 49.1152 127.186 49.295 127.136L53.0518 125.322C53.5415 124.992 53.9316 124.304 53.7822 123.764C53.6329 123.225 53.1239 122.785 52.3549 122.804L48.1998 123.18C47.8402 123.28 47.5608 122.97 47.511 122.79L45.6966 119.033C45.3674 118.544 44.6786 118.153 44.1392 118.303C43.5997 118.452 43.1599 118.961 43.1792 119.73L43.5551 123.885C43.6547 124.245 43.3448 124.524 43.165 124.574L39.4082 126.388C38.9185 126.718 38.5285 127.406 38.6778 127.946C38.8769 128.665 39.5657 129.055 40.1051 128.906Z" fill="#6D7381"/>
<path d="M17.8931 211.598L23.768 211.066C24.2765 210.925 24.6714 211.363 24.7418 211.618L27.3073 216.929C27.7727 217.622 28.7466 218.173 29.5093 217.962C30.2721 217.751 30.894 217.031 30.8667 215.944L30.3352 210.069C30.1944 209.561 30.6325 209.166 30.8867 209.095L36.1985 206.53C36.8909 206.064 37.4424 205.09 37.2313 204.328C37.0201 203.565 36.3005 202.943 35.2131 202.97L29.3382 203.502C28.8297 203.643 28.4347 203.205 28.3644 202.95L25.7989 197.639C25.3334 196.946 24.3596 196.395 23.5968 196.606C22.8341 196.817 22.2122 197.537 22.2395 198.624L22.771 204.499C22.9118 205.007 22.4737 205.402 22.2195 205.473L16.9077 208.038C16.2153 208.504 15.6638 209.477 15.8749 210.24C16.1565 211.257 17.1304 211.809 17.8931 211.598Z" fill="#6D7381"/>
<path d="M27.6509 62.4649L33.0678 61.9748C33.5366 61.845 33.9008 62.2489 33.9657 62.4833L36.3312 67.3809C36.7603 68.0193 37.6582 68.5279 38.3615 68.3332C39.0647 68.1385 39.6382 67.4749 39.613 66.4724L39.1229 61.0556C38.9931 60.5867 39.397 60.2225 39.6314 60.1576L44.5291 57.7922C45.1674 57.3631 45.676 56.4651 45.4813 55.7619C45.2866 55.0586 44.6231 54.4851 43.6205 54.5103L38.2037 55.0004C37.7348 55.1302 37.3707 54.7263 37.3058 54.4918L34.9403 49.5942C34.5112 48.9559 33.6132 48.4473 32.91 48.642C32.2067 48.8367 31.6333 49.5003 31.6584 50.5028L32.1485 55.9196C32.2783 56.3885 31.8744 56.7527 31.64 56.8176L26.7424 59.183C26.104 59.6121 25.5955 60.5101 25.7902 61.2134C26.0498 62.151 26.9477 62.6596 27.6509 62.4649Z" fill="#6D7381"/>
<path d="M242.239 163.918L249.623 166.549C250.314 166.663 250.547 167.411 250.49 167.757L250.626 175.595C250.802 176.689 251.67 177.897 252.707 178.067C253.745 178.237 254.896 177.716 255.469 176.389L258.101 169.005C258.214 168.313 258.963 168.081 259.309 168.137L267.146 168.002C268.24 167.826 269.448 166.958 269.618 165.92C269.788 164.883 269.267 163.731 267.94 163.159L260.556 160.527C259.864 160.414 259.632 159.665 259.689 159.319L259.553 151.482C259.377 150.387 258.509 149.18 257.471 149.009C256.434 148.839 255.282 149.361 254.71 150.688L252.078 158.071C251.965 158.763 251.216 158.996 250.87 158.939L243.033 159.075C241.939 159.251 240.731 160.119 240.561 161.156C240.334 162.54 241.201 163.748 242.239 163.918Z" fill="#6D7381"/>
<path d="M87.3826 89.3909C86.6966 89.5808 86.2944 90.2909 86.4844 90.9769C86.6743 91.6629 87.3844 92.0651 88.0704 91.8751C88.7564 91.6852 89.1585 90.9751 88.9686 90.2891C88.7787 89.6031 88.0686 89.201 87.3826 89.3909Z" fill="#6D7381"/>
<path d="M131.744 121.776C131.058 121.966 130.656 122.676 130.846 123.362C131.036 124.048 131.746 124.45 132.432 124.26C133.118 124.07 133.52 123.36 133.33 122.674C133.14 121.988 132.43 121.586 131.744 121.776Z" fill="#6D7381"/>
<path d="M160.561 69.5287C160.198 70.1408 160.399 70.9315 161.011 71.2949C161.624 71.6583 162.414 71.4567 162.778 70.8446C163.141 70.2325 162.939 69.4418 162.327 69.0784C161.715 68.715 160.924 68.9166 160.561 69.5287Z" fill="#6D7381"/>
<path d="M118.973 44.8295C118.61 45.4416 118.811 46.2323 119.424 46.5957C120.036 46.959 120.826 46.7574 121.19 46.1454C121.553 45.5333 121.351 44.7425 120.739 44.3792C120.127 44.0158 119.337 44.2174 118.973 44.8295Z" fill="#6D7381"/>
<path d="M44.7877 101.57C44.4243 102.182 44.6259 102.973 45.238 103.336C45.8501 103.699 46.6408 103.498 47.0042 102.886C47.3675 102.274 47.1659 101.483 46.5539 101.119C45.9418 100.756 45.151 100.958 44.7877 101.57Z" fill="#6D7381"/>
<path d="M50.1881 152.251C49.8247 152.863 50.0263 153.654 50.6384 154.018C51.2505 154.381 52.0412 154.179 52.4046 153.567C52.7679 152.955 52.5663 152.164 51.9542 151.801C51.3422 151.438 50.5514 151.639 50.1881 152.251Z" fill="#6D7381"/>
<path d="M64.2486 202.906C63.8852 203.518 64.0869 204.308 64.6989 204.672C65.311 205.035 66.1017 204.834 66.4651 204.222C66.8285 203.609 66.6269 202.819 66.0148 202.455C65.4027 202.092 64.612 202.294 64.2486 202.906Z" fill="#6D7381"/>
<path d="M98.2467 228.794C97.8833 229.406 98.0849 230.197 98.697 230.561C99.309 230.924 100.1 230.722 100.463 230.11C100.827 229.498 100.625 228.707 100.013 228.344C99.4008 227.981 98.61 228.182 98.2467 228.794Z" fill="#6D7381"/>
<path d="M160.444 229.206C160.081 229.819 160.282 230.609 160.894 230.973C161.506 231.336 162.297 231.134 162.66 230.522C163.024 229.91 162.822 229.119 162.21 228.756C161.598 228.393 160.807 228.594 160.444 229.206Z" fill="#6D7381"/>
<path d="M203.719 190.597C203.356 191.209 203.558 192 204.17 192.363C204.782 192.727 205.572 192.525 205.936 191.913C206.299 191.301 206.098 190.51 205.485 190.147C204.873 189.783 204.083 189.985 203.719 190.597Z" fill="#6D7381"/>
<path d="M226.78 148.72C226.416 149.332 226.618 150.123 227.23 150.486C227.842 150.85 228.633 150.648 228.996 150.036C229.36 149.424 229.158 148.633 228.546 148.27C227.934 147.906 227.143 148.108 226.78 148.72Z" fill="#6D7381"/>
<path d="M200.739 84.4213C200.375 85.0334 200.577 85.8241 201.189 86.1875C201.801 86.5508 202.592 86.3492 202.955 85.7372C203.319 85.1251 203.117 84.3343 202.505 83.971C201.893 83.6076 201.102 83.8092 200.739 84.4213Z" fill="#6D7381"/>
<path d="M196.367 141.969L208.061 132.758L204.501 128.102L192.808 137.313L196.367 141.969Z" fill="#2E333D" stroke="#494E59" stroke-width="3.71378" stroke-miterlimit="10"/>
<path d="M270.686 104.625L247.756 74.4459L192.891 118L215.82 148.179L270.686 104.625Z" fill="#2E333D" stroke="#494E59" stroke-width="3.71378" stroke-miterlimit="10"/>
<path d="M230.57 135.848L207.615 105.521" stroke="#494E59" stroke-width="3.71378" stroke-miterlimit="10"/>
<path d="M243.439 126.108L220.484 95.7812" stroke="#494E59" stroke-width="3.71378" stroke-miterlimit="10"/>
<path d="M256.308 116.365L233.354 86.0391" stroke="#494E59" stroke-width="3.71378" stroke-miterlimit="10"/>
<path d="M255.738 86.4021L199.818 128.73" stroke="#494E59" stroke-width="3.71378" stroke-miterlimit="10"/>
<path d="M264.526 98.0115L208.605 140.34" stroke="#494E59" stroke-width="3.71378" stroke-miterlimit="10"/>
<path d="M209.525 186.198C205.441 189.289 199.635 188.48 196.536 184.386L191.401 177.601C191.146 177.265 191.213 176.773 191.549 176.518L205.146 166.226C205.482 165.972 205.974 166.041 206.229 166.377L211.365 173.162C214.407 177.298 213.554 183.148 209.525 186.198Z" fill="#6D7383" stroke="#494E59" stroke-width="3.71378" stroke-miterlimit="10"/>
<path d="M167.133 156.437L155.439 165.648L158.999 170.305L170.692 161.093L167.133 156.437Z" fill="#2E333D" stroke="#494E59" stroke-width="3.71378" stroke-miterlimit="10"/>
<path d="M115.773 223.907L92.8438 193.729L147.709 150.174L170.639 180.353L115.773 223.907Z" fill="#2E333D" stroke="#494E59" stroke-width="3.71378" stroke-miterlimit="10"/>
<path d="M154.408 193.955L131.453 163.629" stroke="#494E59" stroke-width="3.71378" stroke-miterlimit="10"/>
<path d="M141.537 203.697L118.582 173.371" stroke="#494E59" stroke-width="3.71378" stroke-miterlimit="10"/>
<path d="M128.669 213.438L105.715 183.111" stroke="#494E59" stroke-width="3.71378" stroke-miterlimit="10"/>
<path d="M100.183 204.973L155.318 161.011" stroke="#494E59" stroke-width="3.71378" stroke-miterlimit="10"/>
<path d="M108.97 216.584L164.105 172.623" stroke="#494E59" stroke-width="3.71378" stroke-miterlimit="10"/>
<path d="M177.372 116.511L151.129 136.375L187.208 184.039L187.25 184.095C187.25 184.095 187.25 184.095 187.293 184.151C188.792 186.016 195.813 183.082 203.032 177.619C210.25 172.155 214.923 166.236 213.592 164.245C213.592 164.245 213.592 164.245 213.549 164.189L213.507 164.133L177.428 116.468L177.372 116.511Z" fill="#2E333D" stroke="#494E59" stroke-width="3.71378" stroke-miterlimit="10"/>
<path d="M190.316 133.617L200.334 146.851L200.376 146.907L200.418 146.963C201.806 148.912 197.076 154.873 189.858 160.337C182.64 165.8 175.675 168.691 174.12 166.869L174.077 166.813L174.035 166.757L164.018 153.523C165.517 155.388 172.538 152.454 179.756 146.991C186.974 141.527 191.661 135.51 190.316 133.617Z" fill="#6D7383" stroke="#494E59" stroke-width="3.71378" stroke-miterlimit="10"/>
<path d="M179.689 93.6837C185.742 101.6 179.379 116.912 165.457 127.878C151.536 138.843 135.284 141.343 129.231 133.427C129.195 133.379 129.158 133.331 129.121 133.283C129.085 133.235 129.011 133.139 128.975 133.091C127.09 129.887 136.49 118.793 150.176 108.013C163.863 97.2328 176.821 90.793 179.374 93.3941C179.411 93.4421 179.484 93.538 179.521 93.586C179.579 93.5398 179.616 93.5877 179.689 93.6837Z" fill="#6D7383" stroke="#494E59" stroke-width="3.71378" stroke-miterlimit="10"/>
<path d="M178.474 93.2704L178.51 93.3169C179.172 94.2918 178.624 96.2087 177.067 98.6123C173.932 103.511 166.828 110.679 157.779 117.721C148.73 124.763 139.984 129.93 134.53 131.715C131.822 132.63 129.834 132.687 129.056 131.802L129.02 131.755C128.984 131.709 128.948 131.662 128.912 131.616C127.062 128.51 136.285 117.755 149.715 107.305C163.145 96.8536 175.86 90.6099 178.366 93.1309C178.402 93.1774 178.438 93.2239 178.474 93.2704Z" fill="#6D7383" stroke="#494E59" stroke-width="3.71378" stroke-miterlimit="10"/>
<path d="M177.146 99.0585L177.182 99.1046C174.064 103.956 166.998 111.054 157.999 118.028C148.999 125.002 140.301 130.119 134.877 131.887L134.842 131.841C134.806 131.794 134.77 131.748 134.77 131.748C133.195 129.132 141.092 119.913 152.556 111.029C164.078 102.1 174.926 96.794 177.074 98.9664C177.074 98.9664 177.11 99.0125 177.146 99.0585Z" fill="#2E333D" stroke="#494E59" stroke-width="3.71378" stroke-miterlimit="10"/>
<path d="M156.51 110.125C156.685 110.494 155.61 111.783 154.081 113.011C152.489 114.29 151.016 115.048 150.737 114.676L142.001 100.442L144.996 98.0373L156.431 110.019L156.51 110.125Z" fill="#2E333D" stroke="#494E59" stroke-width="3.71378" stroke-miterlimit="10"/>
<path d="M144.15 99.8423C146.024 98.3479 146.594 95.8801 145.424 94.3302C144.254 92.7803 141.787 92.7354 139.914 94.2297C138.04 95.7241 137.47 98.192 138.64 99.7418C139.809 101.292 142.277 101.337 144.15 99.8423Z" fill="#2E333D" stroke="#494E59" stroke-width="3.71378" stroke-miterlimit="10"/>
<path d="M66.155 69.9366C65.7161 72.8627 63.8141 78.5687 60.449 79.4465C60.3027 79.4465 60.1564 79.4465 60.0101 79.5928C56.7914 80.0317 53.1337 77.8371 50.7928 76.2278C49.6224 75.3499 48.4519 74.3258 47.4278 73.3016C46.9888 72.8627 46.4036 72.2775 45.9647 71.8386C42.5996 68.1809 39.9661 63.6454 38.3567 58.8173C38.0641 57.7931 37.7715 56.769 37.9178 55.7448C37.9178 55.4522 38.0641 55.3059 38.0641 55.1596C38.3567 54.4281 38.942 53.6965 39.8198 53.5502C40.5513 53.4039 41.1366 53.6965 41.8681 53.8428C42.5996 54.1355 43.1849 54.4281 43.9164 54.867C42.307 52.965 41.8681 49.7463 41.8681 47.4054C41.8681 47.2591 41.8681 46.9664 42.0144 46.9664C42.1607 46.8201 42.5996 46.9664 42.7459 47.1127C45.0868 48.8684 45.0868 52.0872 46.111 54.7207C46.111 52.8187 46.2573 50.9167 46.2573 49.0147C46.2573 47.698 46.4036 46.0886 47.4278 45.2108C47.5741 45.0645 47.7204 45.0645 47.8667 45.0645C48.1593 45.0645 48.3056 45.3571 48.4519 45.5034C50.2076 48.5758 49.1834 52.3798 49.476 55.8911C49.6224 57.2079 49.7687 58.5247 50.0613 59.8414C50.2076 60.4266 50.5002 61.7434 50.7928 63.0602C51.0854 63.6454 51.378 64.2306 51.8169 64.8158C51.9633 65.1085 52.2559 65.4011 52.5485 65.5474C52.9874 65.9863 53.5726 66.4252 54.1579 66.8641C55.3283 67.4494 56.4988 67.8883 57.8155 68.1809C60.1564 68.6198 62.4973 68.6198 64.8382 68.7661C65.2772 68.7661 65.7161 68.9124 66.0087 69.205C66.155 69.4977 66.155 69.644 66.155 69.9366Z" fill="#6D7383" stroke="#494E59" stroke-width="3.71378" stroke-miterlimit="10" stroke-linecap="round" stroke-linejoin="round"/>
<path d="M96.8759 118.362C93.8034 118.362 90.5847 117.338 88.2438 115.875C83.7083 112.949 80.9284 108.56 78.2949 104.61L83.4157 101.244C85.7566 104.756 88.0975 108.56 91.4625 110.608C94.096 112.364 98.3389 112.949 100.68 110.901C103.606 108.267 102.874 103.293 101.704 99.6351C100.241 95.0996 97.4611 91.1493 94.096 88.6621L97.7537 83.834C102.289 87.199 105.801 92.1735 107.556 97.8794C110.043 105.634 109.166 111.779 104.776 115.583C102.582 117.485 99.6557 118.362 96.8759 118.362Z" fill="#494E59"/>
<path d="M103.168 69.7905C103.315 71.9851 102.583 74.1797 101.705 76.3743C98.3402 85.1527 94.8289 93.9311 90.7323 102.417C89.8545 104.026 89.1229 105.782 88.2451 107.391C87.0746 109.732 85.6116 112.366 82.978 112.951C80.7835 113.39 78.7352 112.366 76.8332 111.342C76.248 111.049 75.6627 110.61 75.3701 110.025C75.0775 109.44 75.2238 108.708 75.3701 108.123C77.1258 99.3444 80.4908 91.1512 83.8559 82.8118C85.4653 78.7152 87.2209 74.4723 88.5377 70.2294C89.5618 67.3033 90.2934 63.4993 94.0974 63.2067C97.6087 63.0604 102.876 65.8402 103.168 69.7905Z" fill="#494E59"/>
<path d="M62.3499 95.9787C62.3499 96.2713 62.3499 96.4176 62.3499 96.7102C62.2036 98.6122 61.7647 100.368 60.7405 101.977C59.5701 103.733 57.8144 105.196 55.7661 105.635C55.3272 105.781 54.8882 105.781 54.4493 105.781C52.5473 105.927 50.6454 105.342 48.8897 104.611C46.6951 103.733 44.5005 102.709 42.0133 102.562C40.6965 102.416 39.3797 102.562 38.063 102.855C37.3315 103.001 36.7462 103.294 36.0147 103.44C35.2832 103.733 34.5516 104.026 33.8201 104.318C31.3329 105.489 28.8457 107.098 26.3585 108.122C24.3102 109 21.823 109.439 20.0673 108.122C19.1894 107.537 18.7505 106.513 18.3116 105.635C15.8244 100.953 13.6298 96.2713 11.4352 91.4431C11.2889 91.2968 11.1426 91.0042 11.1426 90.7116C11.1426 89.9801 12.0204 89.3949 12.6056 89.1022C12.752 88.9559 12.8983 88.9559 13.0446 88.8096C14.6539 88.0781 16.117 87.4929 17.8727 87.2003C19.7747 87.0539 21.823 87.3466 23.1397 88.6633C24.0176 89.5412 24.6028 90.5653 25.188 91.7358C25.7732 93.0525 26.5048 94.3693 27.09 95.686C28.8457 94.223 30.6014 92.7599 32.5033 91.4431C33.0886 91.0042 33.6738 90.7116 34.259 90.419C35.2832 89.8338 36.4536 89.2485 37.6241 88.9559C39.5261 88.2244 41.5743 87.9318 43.6226 87.7855C44.6468 87.6392 45.6709 87.4929 46.6951 87.6392C47.8655 87.6392 49.036 87.9318 50.0601 88.0781C52.84 88.6633 55.7661 89.2485 58.5459 89.8338L55.4735 89.5412C57.9607 90.1264 60.8868 91.0042 61.911 93.3451C62.3499 94.0767 62.3499 95.1008 62.3499 95.9787Z" fill="#6D7383" stroke="#494E59" stroke-width="3.71378" stroke-miterlimit="10" stroke-linecap="round" stroke-linejoin="round"/>
<path d="M51.523 88.9565C50.4989 92.9068 51.3767 97.1497 53.8639 100.515C54.0102 100.661 54.1565 100.954 54.4491 100.807C54.5954 100.807 54.5954 100.661 54.7418 100.515C55.1807 99.4906 55.327 98.3202 55.4733 97.296C55.7659 94.8088 56.6437 90.8585 55.7659 88.3713C54.7418 86.0304 51.9619 87.0546 51.523 88.9565Z" fill="#494E59"/>
<path d="M69.6661 60.8645C68.4957 62.4739 67.0326 63.7907 65.7159 65.2537C57.9616 73.5932 54.3039 85.1514 52.1093 96.417C51.5241 99.3432 51.2315 102.562 52.9872 104.757C53.865 105.781 55.0355 106.512 56.2059 107.097C58.1079 108.122 59.8636 109.146 61.7656 110.17C63.9602 111.34 66.3011 112.657 68.7883 112.803C71.7144 112.95 74.6406 111.487 76.8352 109.438C79.0298 107.39 80.4928 104.757 81.9559 102.123C85.6136 95.3929 88.9786 88.5165 91.9047 81.4938C92.7826 79.4455 93.6604 77.2509 93.953 75.0563C94.3919 71.8375 93.6604 68.6188 93.0752 65.5463C92.9289 64.8148 92.7826 63.937 92.1974 63.3517C91.4658 62.6202 90.2954 62.6202 89.4175 62.7665C82.98 63.0591 76.3962 63.6444 70.2514 62.1813C68.9346 61.8887 67.4715 61.4497 66.74 60.2793" fill="#6D7383"/>
<path d="M69.6661 60.8645C68.4957 62.4739 67.0326 63.7907 65.7159 65.2537C57.9616 73.5932 54.3039 85.1514 52.1093 96.417C51.5241 99.3432 51.2315 102.562 52.9872 104.757C53.865 105.781 55.0355 106.512 56.2059 107.097C58.1079 108.122 59.8636 109.146 61.7656 110.17C63.9602 111.34 66.3011 112.657 68.7883 112.803C71.7144 112.95 74.6406 111.487 76.8352 109.438C79.0298 107.39 80.4928 104.757 81.9559 102.123C85.6136 95.3929 88.9786 88.5165 91.9047 81.4938C92.7826 79.4455 93.6604 77.2509 93.953 75.0563C94.3919 71.8375 93.6604 68.6188 93.0752 65.5463C92.9289 64.8148 92.7826 63.937 92.1974 63.3517C91.4658 62.6202 90.2954 62.6202 89.4175 62.7665C82.98 63.0591 76.3962 63.6444 70.2514 62.1813C68.9346 61.8887 67.4715 61.4497 66.74 60.2793" stroke="#494E59" stroke-width="3.71378" stroke-miterlimit="10" stroke-linecap="round" stroke-linejoin="round"/>
<path d="M38.0636 103.002C37.332 103.149 36.7468 103.441 36.0153 103.588C35.869 101.539 35.5763 99.1985 34.9911 97.0039C34.4059 95.1019 33.6744 93.3462 32.5039 91.5906C33.0891 91.1516 33.6744 90.859 34.2596 90.5664C35.43 92.4684 36.3079 94.3704 36.8931 96.4187C37.4783 98.6133 37.9172 100.954 38.0636 103.002Z" fill="#494E59"/>
<path d="M57.9604 100.077C57.3752 101.54 57.6678 99.638 57.5215 101.394C57.5215 103.003 57.9604 104.612 58.8382 106.076C60.5939 108.563 63.6664 110.026 66.5925 111.05C69.226 111.928 72.0058 112.367 74.6394 111.05C77.8581 109.441 80.3453 105.637 80.0527 101.979C79.7601 97.1508 74.0541 94.6636 69.8112 94.2247C64.5442 93.6394 61.9107 95.5414 57.8141 98.6139V100.077H57.9604Z" fill="#494E59"/>
<path d="M98.7796 53.6973C98.7796 53.8436 98.6332 54.1363 98.6332 54.2826C97.9017 57.5013 97.0239 60.5738 96.7313 63.9388C96.585 65.4019 96.8776 68.0354 95.4145 69.0595C94.244 69.7911 92.1958 69.3521 90.879 69.3521C86.7824 69.0595 82.8321 68.328 78.5892 68.328C78.2966 68.328 78.004 68.328 77.5651 68.328C76.102 68.1817 74.7853 67.5965 73.6148 66.8649C72.0055 66.1334 70.5424 65.2556 68.933 64.6703C67.6163 64.2314 66.1532 63.9388 65.4217 62.7684C64.5438 61.5979 64.5438 60.1348 64.3975 58.8181C63.9586 54.4289 64.1049 49.7471 65.2753 45.5042C66.0069 42.8707 67.4699 40.2371 69.6645 38.3351C74.4927 33.946 82.2469 33.0681 88.2455 35.9942C92.6347 38.1888 96.4386 41.9928 98.1943 46.6746C98.9259 48.7229 99.2185 51.2101 98.7796 53.6973Z" fill="#6D7383" stroke="#494E59" stroke-width="3.71378" stroke-miterlimit="10" stroke-linecap="round" stroke-linejoin="round"/>
<path d="M98.7809 53.6985C98.7809 53.8448 98.6346 54.1374 98.6346 54.2837C97.903 57.5025 97.0252 60.5749 96.7326 63.94C96.5863 65.403 96.8789 68.0365 95.4158 69.0607C94.2454 69.7922 92.1971 69.3533 90.8803 69.3533C86.7837 69.0607 82.8334 68.3292 78.5905 68.3292C78.2979 68.3292 78.0053 68.3292 77.5664 68.3292C79.3221 67.5976 81.2241 67.5976 83.1261 67.305C89.1246 66.2809 94.3917 62.038 96.7326 56.4783C97.4641 54.7226 97.903 52.8207 98.0493 50.9187C98.1956 49.4556 98.1956 47.9925 97.903 46.6758C98.9272 48.7241 99.2198 51.2113 98.7809 53.6985Z" fill="#6D7383" stroke="#494E59" stroke-width="3.71378" stroke-miterlimit="10" stroke-linecap="round" stroke-linejoin="round"/>
<path d="M85.6128 65.8418C84.0034 67.3049 82.1014 68.329 80.0531 68.329C76.5418 68.329 72.8841 67.5975 69.6654 65.9881C68.6412 65.4029 67.7634 64.8177 66.8855 64.2324C66.4466 63.7935 65.8614 63.3546 65.5688 62.9157C64.5446 61.7452 63.9594 60.4285 63.6668 58.8191C62.789 55.454 63.3742 51.3575 64.5446 48.1387C65.8614 44.7737 67.9097 43.4569 71.4211 43.3106C74.9324 43.018 79.029 44.1884 82.394 45.7978C82.5404 45.9441 82.6867 45.9441 82.833 46.0904C84.296 46.822 85.6128 47.6998 86.6369 48.7239C91.6114 53.2594 90.2946 61.4526 85.6128 65.8418Z" fill="#6D7383" stroke="#494E59" stroke-width="3.71378" stroke-miterlimit="10" stroke-linecap="round" stroke-linejoin="round"/>
<path d="M77.8568 104.465C77.8568 104.612 77.8568 104.612 77.8568 104.758C77.8568 105.489 77.7105 106.075 77.4179 106.66C76.3937 109.44 73.4676 111.195 70.5415 112.073C67.6153 112.951 64.5429 113.097 61.7631 113.975C59.4222 114.707 57.0813 115.731 55.3256 117.34C54.8867 117.779 54.4478 118.072 54.1551 118.511C54.1551 118.657 54.0088 118.657 54.0088 118.803C50.7901 122.754 49.9122 128.46 46.1083 131.971C45.8157 132.264 45.5231 132.41 45.2304 132.556C44.9378 132.556 44.6452 132.41 44.3526 132.41C38.9393 130.069 33.9648 127.143 28.9904 124.07C28.2589 123.631 27.381 123.046 26.9421 122.315C26.6495 121.729 26.6495 121.144 26.9421 120.559C27.6736 118.364 30.8924 115.731 32.3555 115.146C33.9648 114.56 35.8668 114.707 37.4762 115.292C39.0856 115.877 40.6949 116.901 42.0117 117.925C42.3043 115.877 42.8895 113.683 43.7674 111.781C44.06 111.195 44.3526 110.61 44.6452 110.025C44.9378 109.44 45.3767 109.001 45.6694 108.416C46.5472 107.099 47.7176 105.928 48.8881 104.904C50.4975 103.441 52.2532 102.124 54.0088 100.954C56.6424 99.1983 59.4222 97.5889 62.3483 96.8573C62.7872 96.711 63.2262 96.711 63.6651 96.5647C66.5912 95.9795 69.8099 96.4184 72.5898 97.5889C74.1991 98.1741 75.6622 99.1983 76.6864 100.515C77.4179 101.539 77.8568 103.002 77.8568 104.465Z" fill="#6D7383" stroke="#494E59" stroke-width="3.71378" stroke-miterlimit="10" stroke-linecap="round" stroke-linejoin="round"/>
<path d="M55.1795 117.339C54.7406 117.778 54.3017 118.07 54.009 118.509C54.009 118.656 53.8627 118.656 53.8627 118.802C52.1071 116.607 50.0588 114.852 47.7179 113.535C46.6937 112.95 45.5233 112.511 44.3528 112.072C44.2065 111.925 43.9139 111.925 43.7676 111.779C44.0602 111.194 44.3528 110.609 44.6454 110.023C44.7917 110.023 44.938 110.17 45.0843 110.17C46.2548 110.609 47.5716 111.048 48.742 111.779C51.0829 113.096 53.4238 114.998 55.1795 117.339Z" fill="#494E59"/>
<path d="M121.897 79.1544C121.897 79.3007 121.897 79.5933 121.75 79.7396C121.311 81.349 119.702 82.2268 118.093 82.5194C117.654 82.6658 117.068 82.6658 116.63 82.6658C115.459 82.8121 114.435 82.8121 113.264 83.1047C112.094 83.3973 110.924 84.1288 109.753 84.714C108.583 85.2993 107.266 85.7382 106.095 86.0308C105.364 86.1771 104.632 86.3234 103.901 86.4697C100.682 86.9086 97.4634 86.616 94.3909 85.5919C92.4889 85.0067 91.0259 83.3973 90.148 81.349C88.8313 78.1303 89.1239 74.0337 92.1963 72.1317C96.1466 69.6445 98.6338 73.1558 101.853 74.6189C102.438 74.9115 103.023 75.0578 103.608 75.2041C104.34 75.3504 105.071 75.3504 105.803 75.3504C107.412 75.2041 109.022 74.7652 110.485 74.0337C113.118 72.7169 115.459 70.6686 117.8 68.7666C118.239 68.474 118.678 68.0351 119.263 68.1814C119.848 68.3277 120.141 69.0592 120.141 69.7908V69.9371C119.995 70.5223 119.702 71.1075 119.556 71.6928C119.263 74.3263 122.189 76.6672 121.897 79.1544Z" fill="#6D7383" stroke="#494E59" stroke-width="3.71378" stroke-miterlimit="10" stroke-linecap="round" stroke-linejoin="round"/>
<path d="M120.726 85.443L109.9 32.1874C109.753 31.6022 110.192 31.1633 110.631 31.017C111.217 30.8707 111.655 31.3096 111.802 31.7485L122.628 85.0041C122.775 85.5893 122.336 86.0283 121.897 86.1746C121.458 86.3209 120.873 85.882 120.726 85.443Z" fill="#6D7383" stroke="#494E59" stroke-width="3.71378" stroke-miterlimit="10" stroke-linecap="round" stroke-linejoin="round"/>
<path d="M121.751 79.7383C121.312 81.3476 119.702 82.2255 118.093 82.5181C117.654 82.6644 117.069 82.6644 116.63 82.6644C116.63 82.5181 116.484 82.3718 116.484 82.2255C116.191 81.6403 116.337 80.9087 116.923 80.4698C116.484 80.3235 116.045 80.1772 115.898 79.7383C115.606 79.0067 115.898 78.1289 116.63 77.8363L117.069 77.69C116.923 77.69 116.776 77.69 116.776 77.69C116.191 77.69 115.752 77.3974 115.459 76.8121C115.167 76.0806 115.459 75.3491 116.045 74.9102C115.752 74.7638 115.313 74.4712 115.167 74.1786C114.874 73.4471 115.167 72.5692 115.898 72.2766L120.58 70.082C120.434 70.6673 120.141 71.2525 119.995 71.8377C119.263 74.4712 122.628 76.9584 121.751 79.7383Z" fill="#6D7383" stroke="#494E59" stroke-width="3.71378" stroke-miterlimit="10" stroke-linecap="round" stroke-linejoin="round"/>
<path d="M124.092 78.2771C123.946 77.8381 123.507 77.5455 123.068 77.5455L123.507 77.3992C124.239 77.1066 124.531 76.2288 124.239 75.4972C123.946 74.912 123.214 74.6194 122.629 74.7657L122.922 74.6194C123.653 74.3268 123.946 73.449 123.653 72.7174C123.507 72.2785 123.214 72.1322 122.775 71.9859C123.361 71.547 123.653 70.8154 123.361 70.0839C123.068 69.3524 122.19 69.0598 121.459 69.3524L116.484 71.6933C115.753 71.9859 115.46 72.8637 115.753 73.5953C115.899 74.0342 116.192 74.1805 116.631 74.3268C116.045 74.7657 115.753 75.4972 116.045 76.2288C116.338 76.814 117.07 77.1066 117.655 76.9603L117.216 77.1066C116.484 77.3992 116.192 78.2771 116.484 79.0086C116.631 79.4475 117.07 79.7401 117.508 79.7401C116.923 80.1791 116.777 80.9106 117.07 81.4958C117.362 82.2273 118.24 82.52 118.971 82.2273L123.361 80.1791C124.092 79.8864 124.385 79.1549 124.092 78.2771Z" fill="#6D7383" stroke="#494E59" stroke-width="3.71378" stroke-miterlimit="10" stroke-linecap="round" stroke-linejoin="round"/>
<path opacity="0.4" d="M80.1992 51.6477C79.614 52.5255 78.4435 52.8182 77.5657 52.3792C77.2731 52.2329 76.8341 52.0866 76.5415 51.9403C72.4449 50.3309 68.0557 51.3551 66.8853 54.4275C66.5927 55.1591 65.5685 55.0127 65.5685 54.2812C65.4222 53.2571 65.5685 52.0866 66.0075 51.0625C67.4705 47.1122 72.2986 45.3565 76.8341 47.1122C78.0046 47.5511 79.0287 48.2826 79.9066 49.0142C80.6381 49.7457 80.6381 50.7699 80.1992 51.6477Z" fill="#494E59"/>
<path opacity="0.4" d="M66.1543 74.0328C69.0805 75.4958 75.079 77.3978 78.7367 77.6904C79.4682 77.8367 79.7608 78.422 79.6145 79.1535C77.1273 85.0058 75.079 90.858 74.3475 93.0526C74.2012 93.6378 73.616 93.9305 73.177 93.7842C70.5435 93.0526 63.2282 91.0043 60.3021 89.8339C59.7168 89.6876 59.5705 89.1023 59.7168 88.5171C62.204 82.3722 63.9597 76.9589 64.6913 74.618C64.9839 74.0328 65.7154 73.7401 66.1543 74.0328Z" fill="#494E59"/>
<path d="M106.244 85.8835C105.513 86.0298 104.781 86.1761 104.05 86.3224C102.879 84.5668 102.148 82.2258 102.294 79.8849C102.44 78.5682 102.879 76.6662 103.757 75.2031C104.489 75.3494 105.22 75.3494 105.952 75.3494C105.074 76.6662 104.342 78.5682 104.196 80.0312C104.05 82.2258 104.927 84.5668 106.244 85.8835Z" fill="#494E59"/>
<path d="M54.3041 66.8638C51.6706 68.6195 49.3297 70.8141 47.2814 73.3013C46.8425 72.8624 46.2573 72.2772 45.8184 71.8382C47.7203 69.4973 50.0612 67.449 52.5485 65.6934L54.3041 66.8638Z" fill="#494E59"/>
<path d="M149.404 51.3554C135.652 46.8199 129.946 64.0841 115.9 56.7688L110.926 32.4819C126.142 38.9193 131.994 24.2887 144.43 27.0685L149.404 51.3554Z" fill="#6D7383" stroke="#494E59" stroke-width="3.71378" stroke-miterlimit="10" stroke-linecap="round" stroke-linejoin="round"/>
</svg>
