<svg width="437" height="190" viewBox="0 0 437 190" fill="none" xmlns="http://www.w3.org/2000/svg">
<path d="M234.991 151H49.9228C46.6126 151 43.9043 148.314 43.9043 145.032V21.6024C43.9043 18.3202 46.6126 15.6348 49.9228 15.6348H234.991C238.301 15.6348 241.009 18.3202 241.009 21.6024V144.932C241.109 148.314 238.401 151 234.991 151Z" fill="#121212" stroke="#505665" stroke-width="2" stroke-miterlimit="10"/>
<path d="M43.9043 36.123H241.109L301.495 83.267H315.337" stroke="#505665" stroke-width="2" stroke-miterlimit="10"/>
<path d="M241.109 128.721L301.495 83.2676" stroke="#505665" stroke-width="2" stroke-miterlimit="10"/>
<path d="M54.4363 28.7628C56.0428 28.7628 57.3452 27.4714 57.3452 25.8785C57.3452 24.2855 56.0428 22.9941 54.4363 22.9941C52.8297 22.9941 51.5273 24.2855 51.5273 25.8785C51.5273 27.4714 52.8297 28.7628 54.4363 28.7628Z" fill="#505665"/>
<path d="M63.2644 28.7628C64.8709 28.7628 66.1733 27.4714 66.1733 25.8785C66.1733 24.2855 64.8709 22.9941 63.2644 22.9941C61.6578 22.9941 60.3555 24.2855 60.3555 25.8785C60.3555 27.4714 61.6578 28.7628 63.2644 28.7628Z" fill="#505665"/>
<path d="M72.0906 28.7628C73.6971 28.7628 74.9995 27.4714 74.9995 25.8785C74.9995 24.2855 73.6971 22.9941 72.0906 22.9941C70.484 22.9941 69.1816 24.2855 69.1816 25.8785C69.1816 27.4714 70.484 28.7628 72.0906 28.7628Z" fill="#505665"/>
<path d="M321.042 74.369L320.705 72.8521C320.705 72.8521 322.007 70.5049 322.66 69.2898C323.397 68.0791 324.08 67.865 327.199 67.6122C330.323 67.2762 332.698 66.8177 331.638 69.3442C330.494 71.8662 327.297 78.1954 327.297 78.1954L321.042 74.369Z" fill="#121212" stroke="#505665" stroke-width="2" stroke-miterlimit="10"/>
<path d="M386.808 77.107L408.59 46.8484C409.045 46.2059 409.741 45.7427 410.508 45.5331C411.953 45.1924 414.421 44.5722 416.791 44.1968C420.346 43.6336 424.404 43.0968 422.775 46.8427C421.14 50.6717 410.689 76.2771 410.689 76.2771L386.808 77.107Z" fill="#121212" stroke="#505665" stroke-width="2" stroke-miterlimit="10"/>
<path d="M319.734 70.7134C319.985 70.7265 331.04 80.5654 331.04 80.5654L368.273 75.1802L389.314 75.7844C389.314 75.7844 407.061 75.2147 412.503 75.5004C417.944 75.7862 425.183 77.0003 425.813 80.8703C426.444 84.7402 427.989 85.6555 425.643 87.1171C423.381 88.5831 414.398 94.7843 402.016 93.9674C389.634 93.1505 374.97 95.717 374.97 95.717C374.97 95.717 374.888 94.1279 370.87 93.9169C366.851 93.706 317.2 86.5116 317.2 86.5116C317.2 86.5116 308.987 86.2472 309.926 78.2057C310.948 70.1687 313.702 70.4801 315.465 70.4892C317.315 70.4195 319.734 70.7134 319.734 70.7134Z" fill="#121212" stroke="#505665" stroke-width="2" stroke-miterlimit="10"/>
<path d="M318.109 78.9523L325.977 79.365C325.977 79.365 321.331 86.1186 319.655 87.6134C317.979 89.1083 314.738 91.6039 311.576 91.1049C308.413 90.6058 309.261 88.9009 310.206 86.9512C311.151 85.0016 312.229 82.1426 312.229 82.1426L318.109 78.9523Z" fill="#121212" stroke="#505665" stroke-width="2" stroke-miterlimit="10"/>
<path d="M402.626 92.064C396.263 90.2309 392.012 89.6747 384.53 91.4481C377.047 93.2214 374.116 94.6503 374.116 94.6503L359.038 120.432C358.111 122.049 359.263 124.025 361.105 124.122C364.792 124.232 370.189 123.765 373.289 120.763C378.255 115.859 402.626 92.064 402.626 92.064Z" fill="#121212" stroke="#505665" stroke-width="2" stroke-miterlimit="10" stroke-linecap="round" stroke-linejoin="round"/>
<path opacity="0.4" d="M434.942 82.7961C434.915 83.2943 434.888 83.7926 434.866 84.2078C433.934 93.6527 428.844 100.881 423.071 100.578C418.804 100.354 415.264 96.0045 413.835 89.8503C413.296 87.4069 413.017 84.8107 413.17 81.9872C413.174 81.9042 413.183 81.7381 413.188 81.6551C413.521 75.5099 415.57 70.2044 418.511 67.0275C420.385 64.9606 422.716 63.7504 425.142 63.8776C425.31 63.8864 425.393 63.8908 425.561 63.8996C430.73 64.5038 434.651 71.1219 435.122 79.4744C434.98 80.5496 435.005 81.6335 434.942 82.7961Z" fill="#505665"/>
<path d="M404.943 75.5521C402.795 76.5218 401.573 78.9556 401.122 81.0968C400.243 84.964 401.113 89.0064 402.852 92.5115C403.154 93.1102 403.541 93.7134 403.936 94.1504" fill="#121212"/>
<path d="M404.943 75.5521C402.795 76.5218 401.573 78.9556 401.122 81.0968C400.243 84.964 401.113 89.0064 402.852 92.5115C403.154 93.1102 403.541 93.7134 403.936 94.1504" stroke="#505665" stroke-width="2" stroke-miterlimit="10"/>
<path d="M367.426 75.3209L366.868 77.875L373.266 82.2107L385.626 81.8591C386.718 81.8331 387.605 80.9629 387.659 79.9657L387.726 78.7192L389.312 75.8023L387.374 74.3673C386.648 73.8292 385.824 73.536 384.903 73.4877L374.24 73.5116C373.822 73.4897 373.399 73.5508 373.055 73.6994L367.426 75.3209Z" fill="#0F0F0F" stroke="#505665" stroke-width="2" stroke-miterlimit="10"/>
<path d="M366.866 77.877L373.077 76.367L383.081 76.1414L387.727 78.7226" fill="#0F0F0F"/>
<path d="M366.866 77.877L373.077 76.367L383.081 76.1414L387.727 78.7226" stroke="#505665" stroke-width="2" stroke-miterlimit="10"/>
<path d="M383.189 81.8978L382.604 78.7863L382.914 76.1383L383.225 73.4902" fill="#121212"/>
<path d="M383.189 81.8978L382.604 78.7863L382.914 76.1383L383.225 73.4902" stroke="#505665" stroke-width="2" stroke-miterlimit="10"/>
<path d="M373.264 82.2044L372.723 78.2627L372.95 75.6103L373.225 73.6265" fill="#121212"/>
<path d="M373.264 82.2044L372.723 78.2627L372.95 75.6103L373.225 73.6265" stroke="#505665" stroke-width="2" stroke-miterlimit="10"/>
<path d="M425.391 63.8086L424.636 77.7588L423.381 77.693L422.472 78.9777L418.422 67.0237C420.295 64.9569 422.626 63.7468 425.052 63.8741C425.14 63.7954 425.307 63.8042 425.391 63.8086Z" fill="#121212"/>
<path d="M434.948 82.7989C434.921 83.2973 434.894 83.7957 434.871 84.2111L429.505 84.0963L429.573 82.8502L428.279 81.9493L435.044 79.4718C434.986 80.5517 435.011 81.636 434.948 82.7989Z" fill="#121212"/>
<path d="M422.595 84.558L413.747 89.8416C413.208 87.3977 412.929 84.8007 413.082 81.9766L421.452 82.4155L421.384 83.6615L422.595 84.558Z" fill="#121212"/>
<path d="M372.818 96.8302C375.347 96.6297 378.298 96.368 378.298 96.368L365.492 117.433L360.709 117.432" stroke="#505665" stroke-width="2" stroke-miterlimit="10" stroke-linecap="round" stroke-linejoin="round"/>
<path d="M392.075 69.7178L396.761 69.9636L410.567 49.0335L407.136 48.8536" stroke="#505665" stroke-width="2" stroke-miterlimit="10" stroke-linecap="round" stroke-linejoin="round"/>
<path d="M402.509 84.9162C402.833 84.9331 403.109 84.6866 403.127 84.3655C403.144 84.0444 402.896 83.7704 402.572 83.7534C402.249 83.7364 401.972 83.983 401.955 84.304C401.937 84.6251 402.186 84.8992 402.509 84.9162Z" fill="#505665"/>
<path d="M402.912 88.3498C403.235 88.3667 403.511 88.1202 403.529 87.7991C403.546 87.478 403.298 87.2039 402.975 87.187C402.651 87.17 402.375 87.4165 402.357 87.7376C402.34 88.0587 402.588 88.3328 402.912 88.3498Z" fill="#505665"/>
<path d="M404.078 91.6584C404.401 91.6753 404.678 91.4288 404.695 91.1077C404.712 90.7866 404.464 90.5125 404.141 90.4956C403.817 90.4786 403.541 90.7251 403.523 91.0462C403.506 91.3673 403.754 91.6414 404.078 91.6584Z" fill="#505665"/>
<path d="M403.035 81.3634C403.358 81.3804 403.635 81.1339 403.652 80.8128C403.669 80.4917 403.421 80.2176 403.098 80.2006C402.774 80.1837 402.498 80.4302 402.48 80.7513C402.463 81.0724 402.711 81.3465 403.035 81.3634Z" fill="#505665"/>
<path d="M404.8 78.2091C405.124 78.2261 405.4 77.9796 405.418 77.6585C405.435 77.3374 405.187 77.0633 404.863 77.0464C404.54 77.0294 404.263 77.2759 404.246 77.597C404.228 77.9181 404.477 78.1922 404.8 78.2091Z" fill="#505665"/>
<path d="M422.911 100.567L423.248 86.5942L424.503 86.6601L425.412 85.3753L429.802 97.2639C427.923 99.4138 425.676 100.628 423.33 100.588C423.162 100.58 423.079 100.575 422.911 100.567Z" fill="#121212"/>
<path d="M423.388 77.6928C422.506 78.4794 419.21 83.5536 423.213 88.6774C427.519 86.6545 430.538 85.1471 430.417 82.7255C430.385 80.2252 423.388 77.6928 423.388 77.6928Z" fill="#0F0F0F" stroke="#505665" stroke-width="2" stroke-miterlimit="10"/>
<path d="M434.942 82.7961C434.915 83.2943 434.888 83.7926 434.866 84.2078C433.934 93.6527 428.844 100.881 423.071 100.578C418.804 100.354 415.264 96.0045 413.835 89.8503C413.296 87.4069 413.017 84.8107 413.17 81.9872C413.174 81.9042 413.183 81.7381 413.188 81.6551C413.521 75.5099 415.57 70.2044 418.511 67.0275C420.385 64.9606 422.716 63.7504 425.142 63.8776C425.31 63.8864 425.393 63.8908 425.561 63.8996C430.73 64.5038 434.651 71.1219 435.122 79.4744C434.98 80.5496 435.005 81.6335 434.942 82.7961Z" stroke="#505665" stroke-width="2" stroke-miterlimit="10"/>
<path d="M305.966 16.6279C305.966 20.0118 303.205 22.7484 299.76 22.7484C299.701 22.7484 299.196 22.7484 295.484 22.7484C292.901 22.7484 288.774 22.7484 282.182 22.7484H279.035C274.907 22.8367 271.611 19.5704 271.611 15.6274C271.611 11.6549 274.937 8.35925 279.124 8.56523C282.716 -2.55768 299.166 -0.998122 300.562 10.5073C303.65 10.8899 305.966 13.4793 305.966 16.6279Z" fill="#121212" stroke="#505665" stroke-width="2" stroke-miterlimit="10"/>
<path d="M300.472 10.5373C300.235 10.5078 299.997 10.5078 299.76 10.5078C298.542 10.5078 297.384 10.8611 296.404 11.4794" fill="#121212"/>
<path d="M300.472 10.5373C300.235 10.5078 299.997 10.5078 299.76 10.5078C298.542 10.5078 297.384 10.8611 296.404 11.4794" stroke="#505665" stroke-width="2" stroke-miterlimit="10" stroke-linecap="round"/>
<path d="M279.125 8.56445C278.768 9.62378 278.59 10.742 278.59 11.919C278.59 12.3898 278.62 12.8312 278.679 13.2726" fill="#121212"/>
<path d="M279.125 8.56445C278.768 9.62378 278.59 10.742 278.59 11.919C278.59 12.3898 278.62 12.8312 278.679 13.2726" stroke="#505665" stroke-width="2" stroke-miterlimit="10" stroke-linecap="round" stroke-linejoin="round"/>
<path d="M345.423 131.124C345.423 135.542 341.817 139.116 337.319 139.116C337.242 139.116 336.583 139.116 331.736 139.116C328.363 139.116 322.973 139.116 314.366 139.116H310.256C304.866 139.231 300.562 134.966 300.562 129.817C300.562 124.63 304.905 120.327 310.372 120.595C315.064 106.071 336.544 108.108 338.366 123.131C342.399 123.631 345.423 127.012 345.423 131.124Z" fill="#121212" stroke="#505665" stroke-width="2" stroke-miterlimit="10"/>
<path d="M338.249 123.169C337.939 123.131 337.629 123.131 337.319 123.131C335.729 123.131 334.217 123.592 332.938 124.4" fill="#121212"/>
<path d="M338.249 123.169C337.939 123.131 337.629 123.131 337.319 123.131C335.729 123.131 334.217 123.592 332.938 124.4" stroke="#505665" stroke-width="2" stroke-miterlimit="10" stroke-linecap="round"/>
<path d="M310.372 120.596C309.906 121.979 309.674 123.439 309.674 124.976C309.674 125.591 309.713 126.167 309.79 126.744" fill="#121212"/>
<path d="M310.372 120.596C309.906 121.979 309.674 123.439 309.674 124.976C309.674 125.591 309.713 126.167 309.79 126.744" stroke="#505665" stroke-width="2" stroke-miterlimit="10" stroke-linecap="round" stroke-linejoin="round"/>
<path d="M51.3211 66.3715C51.3211 71.3281 47.2763 75.3366 42.2311 75.3366C42.1441 75.3366 41.4047 75.3366 35.9682 75.3366C32.1843 75.3366 26.1388 75.3366 16.4834 75.3366H11.8732C5.82769 75.4659 1 70.6816 1 64.906C1 59.0873 5.87119 54.26 12.0037 54.5617C17.2663 38.2693 41.3613 40.5537 43.4054 57.4064C47.9287 57.9667 51.3211 61.7596 51.3211 66.3715Z" fill="#121212" stroke="#505665" stroke-width="2" stroke-miterlimit="10"/>
<path d="M43.2749 57.4494C42.927 57.4063 42.579 57.4062 42.2311 57.4062C40.4479 57.4062 38.7517 57.9238 37.3164 58.8294" fill="#121212"/>
<path d="M43.2749 57.4494C42.927 57.4063 42.579 57.4062 42.2311 57.4062C40.4479 57.4062 38.7517 57.9238 37.3164 58.8294" stroke="#505665" stroke-width="2" stroke-miterlimit="10" stroke-linecap="round"/>
<path d="M12.0036 54.5625C11.4817 56.1142 11.2207 57.752 11.2207 59.4761C11.2207 60.1657 11.2642 60.8122 11.3512 61.4587" fill="#121212"/>
<path d="M12.0036 54.5625C11.4817 56.1142 11.2207 57.752 11.2207 59.4761C11.2207 60.1657 11.2642 60.8122 11.3512 61.4587" stroke="#505665" stroke-width="2" stroke-miterlimit="10" stroke-linecap="round" stroke-linejoin="round"/>
<path d="M117.78 113.968C117.018 113.968 116.409 113.711 115.8 113.326C114.733 112.427 114.733 110.886 115.8 109.988C122.807 104.21 132.099 101 142 101C151.901 101 161.193 104.21 168.2 109.988C169.267 110.886 169.267 112.427 168.2 113.326C167.134 114.225 165.306 114.225 164.24 113.326C158.299 108.319 150.378 105.622 142 105.622C133.622 105.622 125.701 108.319 119.76 113.326C119.151 113.711 118.542 113.968 117.78 113.968Z" fill="#505665"/>
<path d="M127.377 75.4161L131.032 71.7602C132.099 70.6939 132.099 68.866 131.032 67.7997C129.966 66.7334 128.138 66.7334 127.072 67.7997L123.416 71.4556L119.76 67.7997C118.694 66.7334 116.866 66.7334 115.8 67.7997C114.733 68.866 114.733 70.6939 115.8 71.7602L119.456 75.4161L115.8 79.0719C114.733 80.1382 114.733 81.9662 115.8 83.0324C116.409 83.6418 117.018 83.7941 117.78 83.7941C118.542 83.7941 119.151 83.4894 119.76 83.0324L123.416 79.3766L127.072 83.0324C127.681 83.6418 128.291 83.7941 129.052 83.7941C129.814 83.7941 130.423 83.4894 131.032 83.0324C132.099 81.9662 132.099 80.1382 131.032 79.0719L127.377 75.4161Z" fill="#505665"/>
<path d="M164.394 75.4161L168.05 71.7602C169.116 70.6939 169.116 68.866 168.05 67.7997C166.984 66.7334 165.156 66.7334 164.09 67.7997L160.434 71.4556L156.778 67.7997C155.712 66.7334 153.884 66.7334 152.817 67.7997C151.751 68.866 151.751 70.6939 152.817 71.7602L156.473 75.4161L152.817 79.0719C151.751 80.1382 151.751 81.9662 152.817 83.0324C153.427 83.6418 154.036 83.7941 154.798 83.7941C155.559 83.7941 156.168 83.4894 156.778 83.0324L160.434 79.3766L164.09 83.0324C164.699 83.6418 165.308 83.7941 166.07 83.7941C166.831 83.7941 167.441 83.4894 168.05 83.0324C169.116 81.9662 169.116 80.1382 168.05 79.0719L164.394 75.4161Z" fill="#505665"/>
<path d="M86.839 170.436H91.285C92.089 170.436 92.815 170.568 93.463 170.832C94.123 171.096 94.681 171.492 95.137 172.02C95.605 172.536 95.965 173.19 96.217 173.982C96.469 174.762 96.595 175.674 96.595 176.718C96.595 177.762 96.469 178.68 96.217 179.472C95.965 180.252 95.605 180.906 95.137 181.434C94.681 181.95 94.123 182.34 93.463 182.604C92.815 182.868 92.089 183 91.285 183H86.839V170.436ZM91.285 181.2C92.221 181.2 92.977 180.906 93.553 180.318C94.129 179.73 94.417 178.866 94.417 177.726V175.71C94.417 174.57 94.129 173.706 93.553 173.118C92.977 172.53 92.221 172.236 91.285 172.236H88.873V181.2H91.285ZM105.84 183C105.324 183 104.928 182.856 104.652 182.568C104.376 182.268 104.208 181.89 104.148 181.434H104.058C103.878 182.022 103.548 182.466 103.068 182.766C102.588 183.066 102.006 183.216 101.322 183.216C100.35 183.216 99.6001 182.964 99.0721 182.46C98.5561 181.956 98.2981 181.278 98.2981 180.426C98.2981 179.49 98.6341 178.788 99.3061 178.32C99.9901 177.852 100.986 177.618 102.294 177.618H103.986V176.826C103.986 176.25 103.83 175.806 103.518 175.494C103.206 175.182 102.72 175.026 102.06 175.026C101.508 175.026 101.058 175.146 100.71 175.386C100.362 175.626 100.068 175.932 99.8281 176.304L98.6581 175.242C98.9701 174.714 99.4081 174.282 99.9721 173.946C100.536 173.598 101.274 173.424 102.186 173.424C103.398 173.424 104.328 173.706 104.976 174.27C105.624 174.834 105.948 175.644 105.948 176.7V181.398H106.938V183H105.84ZM101.88 181.722C102.492 181.722 102.996 181.59 103.392 181.326C103.788 181.05 103.986 180.684 103.986 180.228V178.878H102.33C100.974 178.878 100.296 179.298 100.296 180.138V180.462C100.296 180.882 100.434 181.2 100.71 181.416C100.998 181.62 101.388 181.722 101.88 181.722ZM111.4 183C110.716 183 110.2 182.826 109.852 182.478C109.504 182.118 109.33 181.614 109.33 180.966V175.242H107.872V173.64H108.664C108.988 173.64 109.21 173.568 109.33 173.424C109.462 173.28 109.528 173.046 109.528 172.722V171.084H111.292V173.64H113.254V175.242H111.292V181.398H113.11V183H111.4ZM122.241 183C121.725 183 121.329 182.856 121.053 182.568C120.777 182.268 120.609 181.89 120.549 181.434H120.459C120.279 182.022 119.949 182.466 119.469 182.766C118.989 183.066 118.407 183.216 117.723 183.216C116.751 183.216 116.001 182.964 115.473 182.46C114.957 181.956 114.699 181.278 114.699 180.426C114.699 179.49 115.035 178.788 115.707 178.32C116.391 177.852 117.387 177.618 118.695 177.618H120.387V176.826C120.387 176.25 120.231 175.806 119.919 175.494C119.607 175.182 119.121 175.026 118.461 175.026C117.909 175.026 117.459 175.146 117.111 175.386C116.763 175.626 116.469 175.932 116.229 176.304L115.059 175.242C115.371 174.714 115.809 174.282 116.373 173.946C116.937 173.598 117.675 173.424 118.587 173.424C119.799 173.424 120.729 173.706 121.377 174.27C122.025 174.834 122.349 175.644 122.349 176.7V181.398H123.339V183H122.241ZM118.281 181.722C118.893 181.722 119.397 181.59 119.793 181.326C120.189 181.05 120.387 180.684 120.387 180.228V178.878H118.731C117.375 178.878 116.697 179.298 116.697 180.138V180.462C116.697 180.882 116.835 181.2 117.111 181.416C117.399 181.62 117.789 181.722 118.281 181.722ZM129.515 183V173.64H131.477V175.188H131.567C131.771 174.684 132.077 174.264 132.485 173.928C132.905 173.592 133.475 173.424 134.195 173.424C135.155 173.424 135.899 173.742 136.427 174.378C136.967 175.002 137.237 175.896 137.237 177.06V183H135.275V177.312C135.275 175.848 134.687 175.116 133.511 175.116C133.259 175.116 133.007 175.152 132.755 175.224C132.515 175.284 132.299 175.38 132.107 175.512C131.915 175.644 131.759 175.812 131.639 176.016C131.531 176.22 131.477 176.46 131.477 176.736V183H129.515ZM143.629 183.216C142.981 183.216 142.387 183.102 141.847 182.874C141.319 182.646 140.869 182.322 140.497 181.902C140.125 181.47 139.837 180.954 139.633 180.354C139.429 179.742 139.327 179.064 139.327 178.32C139.327 177.576 139.429 176.904 139.633 176.304C139.837 175.692 140.125 175.176 140.497 174.756C140.869 174.324 141.319 173.994 141.847 173.766C142.387 173.538 142.981 173.424 143.629 173.424C144.277 173.424 144.865 173.538 145.393 173.766C145.933 173.994 146.389 174.324 146.761 174.756C147.133 175.176 147.421 175.692 147.625 176.304C147.829 176.904 147.931 177.576 147.931 178.32C147.931 179.064 147.829 179.742 147.625 180.354C147.421 180.954 147.133 181.47 146.761 181.902C146.389 182.322 145.933 182.646 145.393 182.874C144.865 183.102 144.277 183.216 143.629 183.216ZM143.629 181.596C144.301 181.596 144.841 181.392 145.249 180.984C145.657 180.564 145.861 179.94 145.861 179.112V177.528C145.861 176.7 145.657 176.082 145.249 175.674C144.841 175.254 144.301 175.044 143.629 175.044C142.957 175.044 142.417 175.254 142.009 175.674C141.601 176.082 141.397 176.7 141.397 177.528V179.112C141.397 179.94 141.601 180.564 142.009 180.984C142.417 181.392 142.957 181.596 143.629 181.596ZM154.857 175.242H153.435V173.64H154.857V172.092C154.857 171.336 155.055 170.748 155.451 170.328C155.847 169.896 156.441 169.68 157.233 169.68H158.781V171.282H156.819V173.64H158.781V175.242H156.819V183H154.857V175.242ZM164.09 183.216C163.442 183.216 162.848 183.102 162.308 182.874C161.78 182.646 161.33 182.322 160.958 181.902C160.586 181.47 160.298 180.954 160.094 180.354C159.89 179.742 159.788 179.064 159.788 178.32C159.788 177.576 159.89 176.904 160.094 176.304C160.298 175.692 160.586 175.176 160.958 174.756C161.33 174.324 161.78 173.994 162.308 173.766C162.848 173.538 163.442 173.424 164.09 173.424C164.738 173.424 165.326 173.538 165.854 173.766C166.394 173.994 166.85 174.324 167.222 174.756C167.594 175.176 167.882 175.692 168.086 176.304C168.29 176.904 168.392 177.576 168.392 178.32C168.392 179.064 168.29 179.742 168.086 180.354C167.882 180.954 167.594 181.47 167.222 181.902C166.85 182.322 166.394 182.646 165.854 182.874C165.326 183.102 164.738 183.216 164.09 183.216ZM164.09 181.596C164.762 181.596 165.302 181.392 165.71 180.984C166.118 180.564 166.322 179.94 166.322 179.112V177.528C166.322 176.7 166.118 176.082 165.71 175.674C165.302 175.254 164.762 175.044 164.09 175.044C163.418 175.044 162.878 175.254 162.47 175.674C162.062 176.082 161.858 176.7 161.858 177.528V179.112C161.858 179.94 162.062 180.564 162.47 180.984C162.878 181.392 163.418 181.596 164.09 181.596ZM176.248 181.452H176.176C176.092 181.68 175.978 181.902 175.834 182.118C175.702 182.334 175.528 182.526 175.312 182.694C175.108 182.85 174.856 182.976 174.556 183.072C174.268 183.168 173.932 183.216 173.548 183.216C172.576 183.216 171.82 182.904 171.28 182.28C170.752 181.656 170.488 180.762 170.488 179.598V173.64H172.45V179.346C172.45 180.798 173.05 181.524 174.25 181.524C174.502 181.524 174.748 181.494 174.988 181.434C175.228 181.362 175.438 181.26 175.618 181.128C175.81 180.996 175.96 180.828 176.068 180.624C176.188 180.42 176.248 180.18 176.248 179.904V173.64H178.21V183H176.248V181.452ZM181.019 183V173.64H182.981V175.188H183.071C183.275 174.684 183.581 174.264 183.989 173.928C184.409 173.592 184.979 173.424 185.699 173.424C186.659 173.424 187.403 173.742 187.931 174.378C188.471 175.002 188.741 175.896 188.741 177.06V183H186.779V177.312C186.779 175.848 186.191 175.116 185.015 175.116C184.763 175.116 184.511 175.152 184.259 175.224C184.019 175.284 183.803 175.38 183.611 175.512C183.419 175.644 183.263 175.812 183.143 176.016C183.035 176.22 182.981 176.46 182.981 176.736V183H181.019ZM197.347 181.452H197.257C197.053 182.004 196.717 182.436 196.249 182.748C195.793 183.06 195.253 183.216 194.629 183.216C193.441 183.216 192.523 182.79 191.875 181.938C191.227 181.074 190.903 179.868 190.903 178.32C190.903 176.772 191.227 175.572 191.875 174.72C192.523 173.856 193.441 173.424 194.629 173.424C195.253 173.424 195.793 173.58 196.249 173.892C196.717 174.192 197.053 174.624 197.257 175.188H197.347V169.68H199.309V183H197.347V181.452ZM195.223 181.524C195.823 181.524 196.327 181.38 196.735 181.092C197.143 180.792 197.347 180.402 197.347 179.922V176.718C197.347 176.238 197.143 175.854 196.735 175.566C196.327 175.266 195.823 175.116 195.223 175.116C194.539 175.116 193.993 175.338 193.585 175.782C193.177 176.214 192.973 176.79 192.973 177.51V179.13C192.973 179.85 193.177 180.432 193.585 180.876C193.993 181.308 194.539 181.524 195.223 181.524Z" fill="#777E90"/>
</svg>
