<?xml version="1.0" encoding="utf-8"?>
<!-- Generator: Adobe Illustrator 25.0.0, SVG Export Plug-In . SVG Version: 6.00 Build 0)  -->
<svg version="1.1" id="OraiDex" xmlns="http://www.w3.org/2000/svg" xmlns:xlink="http://www.w3.org/1999/xlink" x="0px" y="0px"
	 viewBox="0 0 2000 2000" style="enable-background:new 0 0 2000 2000;" xml:space="preserve">
<style type="text/css">
	.st0{fill:url(#SVGID_1_);}
	.st1{fill:url(#SVGID_2_);}
	.st2{fill:url(#SVGID_3_);}
	.st3{fill:url(#SVGID_4_);}
</style>
<path d="M0,961.9h40.9c1.1-9.5,2.6-18.9,4.5-28.3c4.3-21.1,10.8-41.9,19.1-61.7c8.2-19.5,18.4-38.3,30.3-55.9
	c11.8-17.5,25.3-33.9,40.2-48.8c14.9-14.9,31.3-28.5,48.8-40.2c17.6-11.9,36.4-22.1,55.9-30.3c19.8-8.3,40.6-14.8,61.7-19.1
	c9.3-1.9,18.7-3.4,28.3-4.5v-41C156,649.9,17.8,788.1,0,961.9z M694.9,1038.1c-1.1,9.5-2.6,18.9-4.5,28.3
	c-4.3,21.1-10.8,41.9-19.1,61.7c-8.2,19.5-18.4,38.3-30.3,55.9c-11.8,17.5-25.3,33.9-40.2,48.8s-31.3,28.5-48.8,40.2
	c-17.6,11.9-36.4,22.1-55.9,30.3c-19.8,8.3-40.6,14.8-61.7,19.1c-9.3,1.9-18.7,3.4-28.3,4.5v40.9c173.8-17.8,312-156,329.8-329.8
	H694.9z M239.8,1303.3c-19.5-8.2-38.3-18.4-55.9-30.3c-17.5-11.8-33.9-25.3-48.8-40.2c-14.9-14.9-28.5-31.3-40.2-48.8
	c-11.9-17.6-22.1-36.4-30.3-55.9c-8.3-19.8-14.8-40.6-19.1-61.7c-1.9-9.3-3.4-18.7-4.5-28.3H0c17.8,173.8,156,312,329.8,329.8v-40.9
	c-9.5-1.1-18.9-2.6-28.3-4.5C280.4,1318.2,259.6,1311.7,239.8,1303.3z M406,632.1V673c9.5,1.1,18.9,2.6,28.3,4.5
	c21.1,4.3,41.9,10.8,61.7,19.1c19.5,8.2,38.3,18.4,55.9,30.3c17.5,11.8,33.9,25.3,48.8,40.2s28.5,31.3,40.2,48.8
	c11.9,17.6,22.1,36.4,30.3,55.9c8.3,19.8,14.8,40.6,19.1,61.7c1.9,9.3,3.4,18.7,4.5,28.3h41C718,788.1,579.9,649.9,406,632.1z"/>
<g>
	<rect x="176.3" y="808.3" width="70.2" height="70.2"/>
	<rect x="465.1" y="808.3" width="94.7" height="94.7"/>
	<polygon points="559.8,1067.2 559.8,1191.7 559.8,1191.7 435.2,1191.7 435.2,1067.2 	"/>
	<rect x="176.3" y="1150.8" width="40.8" height="40.8"/>
	<g>
		<g>
			
				<linearGradient id="SVGID_1_" gradientUnits="userSpaceOnUse" x1="366.7147" y1="998.6763" x2="216.6082" y2="848.57" gradientTransform="matrix(1 0 0 -1 0 2000)">
				<stop  offset="0" style="stop-color:#000000;stop-opacity:0"/>
				<stop  offset="1" style="stop-color:#000000"/>
			</linearGradient>
			<polygon class="st0" points="368,1002.6 178.9,1191.7 176.3,1191.7 176.3,1189.1 365.4,1000 			"/>
			
				<linearGradient id="SVGID_2_" gradientUnits="userSpaceOnUse" x1="369.3639" y1="1001.3255" x2="464.6266" y2="1096.5883" gradientTransform="matrix(1 0 0 -1 0 2000)">
				<stop  offset="1.761449e-02" style="stop-color:#000000;stop-opacity:0"/>
				<stop  offset="1" style="stop-color:#000000"/>
			</linearGradient>
			<polygon class="st1" points="559.8,808.3 559.8,810.9 467.6,903 370.7,1000 368,997.3 465.1,900.4 557.1,808.3 			"/>
		</g>
		<g>
			
				<linearGradient id="SVGID_3_" gradientUnits="userSpaceOnUse" x1="365.8818" y1="1002.1584" x2="246.0051" y2="1122.0352" gradientTransform="matrix(1 0 0 -1 0 2000)">
				<stop  offset="0" style="stop-color:#000000;stop-opacity:0"/>
				<stop  offset="1" style="stop-color:#000000"/>
			</linearGradient>
			<polygon class="st2" points="368,997.3 365.4,1000 176.3,810.9 176.3,808.3 178.9,808.3 			"/>
			
				<linearGradient id="SVGID_4_" gradientUnits="userSpaceOnUse" x1="368.9552" y1="999.085" x2="437.4458" y2="930.5944" gradientTransform="matrix(1 0 0 -1 0 2000)">
				<stop  offset="0" style="stop-color:#000000;stop-opacity:0"/>
				<stop  offset="0.9809" style="stop-color:#000000"/>
			</linearGradient>
			<polygon class="st3" points="559.8,1189.1 559.8,1191.7 559.8,1191.7 557.1,1191.7 368,1002.6 370.7,1000 			"/>
		</g>
	</g>
</g>
<g>
	<path d="M1075.9,996.3c-0.5,48.1-30,96.2-95.4,96.2s-95.7-47-95.7-96s31.4-98,95.7-98C1044.5,898.5,1076.4,947.7,1075.9,996.3z
		 M919.4,997.1c0.8,30.5,17.3,63.3,61.1,63.3c43.9,0,60.3-33,60.8-63.5c0.5-31.4-17-66.4-60.8-66.4
		C936.7,930.4,918.6,965.8,919.4,997.1z"/>
	<path d="M1136,957.2l2.4,15.1c10.1-16.2,23.6-18.6,36.9-18.6c13.5,0,26.6,5.3,33.8,12.5l-14.6,28.2c-6.7-5.6-12.8-8.5-23.4-8.5
		c-17,0-32.7,9-32.7,33.3v69.1H1106V957.2H1136z"/>
	<path d="M1331.8,957.2h31.1v131h-30.5l-1.6-19.1c-7.5,15.4-27.9,22.9-42.5,23.2c-38.8,0.3-67.5-23.6-67.5-69.6
		c0-45.1,30-68.8,68.3-68.6c17.6,0,34.2,8.2,41.7,21.3L1331.8,957.2z M1253.1,1022.6c0,25,17.3,39.8,38.8,39.8c51,0,51-79.5,0-79.5
		C1270.4,983,1253.1,997.6,1253.1,1022.6z"/>
	<path d="M1432.2,920.3c0,25.2-38.3,25.2-38.3,0C1393.9,895,1432.2,895,1432.2,920.3z M1396.9,956.7v131.5h32.4V956.7H1396.9z"/>
	<path d="M1631.2,993.6c0.8,47-27.9,94.6-93,94.6c-22.9,0-50.2,0-73.1,0v-186c22.9,0,50.2,0,73.1,0
		C1602,902.2,1630.4,947.7,1631.2,993.6z M1500,1054.5h38.3c42.3,0,59-30.8,58.2-61.1c-0.8-28.9-17.8-57.9-58.2-57.9H1500V1054.5z"
		/>
	<path d="M1799.6,1088.2h-139.2c0-61.9,0-124.1,0-186h139.2v34h-104.4V979h100.7v32.7h-100.7v42h104.4V1088.2z"/>
	<path d="M1959.6,902.2h38.6v1.6l-63,90.4l64.9,93v1.1h-39.3l-47.6-69.9l-47.6,69.9h-39.3v-1.1l64.6-93l-62.7-90.4v-1.6h38.6
		l46.5,69.4L1959.6,902.2z"/>
</g>
</svg>
