<svg width="152" height="44" viewBox="0 0 152 44" fill="none" xmlns="http://www.w3.org/2000/svg">
<g clip-path="url(#clip0_11561_279249)">
<path d="M18.0156 19.0525H20.3721C20.433 18.5047 20.52 17.9656 20.633 17.4178C20.8852 16.2004 21.2591 15.0004 21.7374 13.8612C22.2069 12.7395 22.7982 11.6525 23.4852 10.6352C24.1635 9.62646 24.9461 8.67864 25.7982 7.82646C26.6504 6.97429 27.5982 6.18298 28.6069 5.51342C29.6243 4.82646 30.7026 4.24385 31.833 3.76559C32.9721 3.28733 34.1721 2.91342 35.3895 2.66124C35.9287 2.5482 36.4678 2.46124 37.0243 2.40037V0.0351562C27.0069 1.06994 19.0417 9.03516 18.0156 19.0525ZM58.0678 23.4439C58.0069 23.9917 57.92 24.5308 57.8069 25.0786C57.5548 26.296 57.1808 27.496 56.7026 28.6352C56.233 29.7569 55.6417 30.8439 54.9548 31.8612C54.2765 32.8699 53.4939 33.8178 52.6417 34.6699C51.7808 35.5308 50.8417 36.3134 49.833 36.983C48.8156 37.6699 47.7374 38.2526 46.6069 38.7308C45.4678 39.2091 44.2678 39.583 43.0504 39.8352C42.5113 39.9482 41.9721 40.0352 41.4156 40.096V42.4525C51.4417 41.4178 59.4069 33.4525 60.433 23.4352L58.0678 23.4439ZM31.8417 38.7221C30.72 38.2525 29.633 37.6612 28.6156 36.9743C27.6069 36.296 26.6591 35.5134 25.8069 34.6612C24.9548 33.8091 24.1635 32.8612 23.4939 31.8525C22.8069 30.8352 22.2243 29.7569 21.7461 28.6265C21.2678 27.4873 20.8939 26.2873 20.6417 25.0699C20.5287 24.5308 20.4417 23.9917 20.3808 23.4352H18.0156C19.0417 33.4612 27.0069 41.4265 37.0243 42.4525V40.0873C36.4765 40.0265 35.9374 39.9395 35.3895 39.8265C34.1808 39.583 32.9808 39.2091 31.8417 38.7221ZM41.4156 0.0438524V2.40037C41.9634 2.46124 42.5026 2.5482 43.0504 2.66124C44.2678 2.91342 45.4678 3.28733 46.6069 3.76559C47.7287 4.23516 48.8156 4.82646 49.833 5.51342C50.8417 6.19168 51.7895 6.97429 52.6417 7.82646C53.5026 8.68733 54.2852 9.62646 54.9548 10.6352C55.6417 11.6525 56.2243 12.7308 56.7026 13.8612C57.1808 15.0004 57.5548 16.2004 57.8069 17.4178C57.92 17.9569 58.0069 18.496 58.0678 19.0525H60.433C59.3982 9.03516 51.4417 1.06994 41.4156 0.0438524Z" fill="black"/>
<path d="M32.2271 10.1992H28.1836V14.2427H32.2271V10.1992Z" fill="black"/>
<path d="M50.289 10.1992H44.8281V15.6601H50.289V10.1992Z" fill="black"/>
<path d="M50.2881 25.1211V32.295H43.1055V25.1211H50.2881Z" fill="black"/>
<path d="M30.5314 29.9375H28.1836V32.2853H30.5314V29.9375Z" fill="black"/>
<path d="M39.2271 21.39L28.3314 32.2944H28.1836V32.1378L39.0792 21.2422L39.2271 21.39Z" fill="url(#paint0_linear_11561_279249)"/>
<path d="M50.2874 10.1992V10.347L44.9657 15.6514L39.3831 21.2427L39.2266 21.0862L44.8266 15.5036L50.1309 10.1992H50.2874Z" fill="url(#paint1_linear_11561_279249)"/>
<path d="M39.2271 21.0862L39.0792 21.2427L28.1836 10.347V10.1992H28.3314L39.2271 21.0862Z" fill="url(#paint2_linear_11561_279249)"/>
<path d="M50.2874 32.1378V32.2944H50.1309L39.2266 21.39L39.3831 21.2422L50.2874 32.1378Z" fill="url(#paint3_linear_11561_279249)"/>
<path d="M80.0243 21.0352C79.9982 23.8091 78.2939 26.583 74.5287 26.583C70.7634 26.583 69.0156 23.87 69.0156 21.0526C69.0156 18.2352 70.8243 15.4004 74.5287 15.4004C78.2156 15.3917 80.0591 18.2265 80.0243 21.0352ZM71.0069 21.0787C71.0504 22.8352 72.0069 24.7308 74.5287 24.7308C77.0591 24.7308 78.0069 22.8265 78.033 21.07C78.0591 19.2613 77.0504 17.2439 74.5287 17.2439C72.0069 17.2352 70.9634 19.27 71.0069 21.0787Z" fill="black"/>
<path d="M83.4921 18.7742L83.6313 19.6438C84.2139 18.7133 84.9878 18.5742 85.7617 18.5742C86.5356 18.5742 87.2921 18.8786 87.7095 19.296L86.8661 20.922C86.4835 20.6003 86.1269 20.4351 85.5182 20.4351C84.5356 20.4351 83.6313 20.9568 83.6313 22.3568V26.3394H81.7617V18.7829L83.4921 18.7742Z" fill="black"/>
<path d="M94.7711 18.7744H96.5624V26.3223H94.8059L94.7102 25.2179C94.2754 26.1049 93.1015 26.5397 92.258 26.5571C90.0233 26.5745 88.3711 25.2005 88.3711 22.5484C88.3711 19.9484 90.1015 18.5831 92.3102 18.5918C93.3276 18.5918 94.2841 19.0614 94.7102 19.8179L94.7711 18.7744ZM90.2407 22.5484C90.2407 23.9918 91.2407 24.844 92.4754 24.844C95.4146 24.844 95.4146 20.2614 92.4754 20.2614C91.232 20.2614 90.2407 21.1049 90.2407 22.5484Z" fill="black"/>
<path d="M100.564 16.6523C100.564 18.1045 98.3555 18.1045 98.3555 16.6523C98.3555 15.1914 100.564 15.1914 100.564 16.6523ZM98.5294 18.7479V26.3306H100.399V18.7479H98.5294Z" fill="black"/>
<path d="M112.035 20.8789C112.078 23.592 110.426 26.3311 106.678 26.3311C105.357 26.3311 103.783 26.3311 102.461 26.3311V15.6094C103.783 15.6094 105.357 15.6094 106.678 15.6094C110.348 15.6094 111.983 18.2268 112.035 20.8789ZM104.47 24.3833H106.678C109.113 24.3833 110.078 22.6094 110.035 20.8615C109.991 19.192 109.009 17.5224 106.678 17.5224H104.47V24.3833Z" fill="black"/>
<path d="M121.737 26.3311H113.711C113.711 22.7659 113.711 19.1746 113.711 15.6094H121.737V17.5659H115.72V20.0355H121.52V21.9224H115.72V24.3398H121.737V26.3311Z" fill="black"/>
<path d="M130.955 15.6094H133.181V15.705L129.546 20.9137L133.285 26.2702V26.3311H131.024L128.285 22.305L125.546 26.3311H123.285V26.2702L127.007 20.9137L123.389 15.705V15.6094H125.616L128.294 19.6094L130.955 15.6094Z" fill="black"/>
<path d="M108.54 33.5566H110.54C110.905 33.5566 111.253 33.6088 111.583 33.7132C111.914 33.8088 112.175 33.9827 112.366 34.2175C112.566 34.4523 112.662 34.774 112.662 35.1914C112.662 35.4697 112.601 35.7219 112.496 35.9392C112.392 36.1566 112.253 36.3479 112.088 36.4784C111.923 36.6175 111.757 36.6958 111.583 36.7306C111.731 36.7392 111.87 36.7914 112.036 36.8523C112.192 36.9306 112.34 37.0262 112.479 37.1566C112.618 37.2958 112.731 37.4523 112.827 37.661C112.914 37.861 112.966 38.0958 112.966 38.3653C112.966 38.7392 112.888 39.0697 112.731 39.3479C112.575 39.6349 112.349 39.861 112.036 40.0088C111.731 40.174 111.34 40.2523 110.879 40.2523H108.531L108.54 33.5566ZM109.61 36.3914H110.575C110.81 36.3914 111.001 36.3392 111.149 36.2436C111.305 36.1479 111.418 36.0262 111.488 35.861C111.566 35.6958 111.601 35.5305 111.601 35.3566C111.601 35.0001 111.496 34.7566 111.296 34.6262C111.096 34.4871 110.818 34.4262 110.47 34.4262H109.61V36.3914ZM109.61 39.374H110.714C111.001 39.374 111.236 39.3219 111.401 39.2262C111.566 39.1305 111.679 38.9914 111.757 38.8349C111.827 38.6697 111.862 38.4871 111.862 38.2958C111.862 37.974 111.757 37.7219 111.557 37.5392C111.357 37.3566 111.053 37.2697 110.67 37.2697H109.618V39.3827H109.61V39.374Z" fill="#5EA402"/>
<path d="M114.759 38.4259C114.767 38.6433 114.82 38.8433 114.915 39.0259C115.011 39.2085 115.159 39.3476 115.35 39.4433C115.541 39.5389 115.776 39.5998 116.054 39.5998C116.298 39.5998 116.498 39.5737 116.68 39.5042C116.854 39.4346 117.002 39.3563 117.115 39.2607C117.228 39.165 117.315 39.0781 117.367 38.9998L117.846 39.652C117.741 39.7998 117.602 39.9216 117.454 40.0346C117.289 40.1476 117.098 40.2346 116.863 40.2955C116.628 40.3563 116.333 40.3911 115.993 40.3911C115.541 40.3911 115.15 40.2955 114.811 40.1129C114.472 39.9303 114.211 39.6607 114.028 39.3216C113.846 38.9824 113.75 38.5911 113.75 38.1389C113.75 37.7302 113.837 37.365 114.002 37.0433C114.176 36.7129 114.42 36.452 114.741 36.2694C115.072 36.0781 115.454 35.9824 115.907 35.9824C116.333 35.9824 116.698 36.0694 117.002 36.2346C117.307 36.4085 117.55 36.652 117.724 36.965C117.898 37.2868 117.985 37.6694 117.985 38.1129C117.985 38.1389 117.985 38.1998 117.985 38.2781C117.985 38.365 117.976 38.4259 117.976 38.4433H114.759V38.4259ZM116.967 37.6346C116.967 37.5302 116.933 37.3998 116.863 37.2607C116.793 37.1216 116.68 36.9998 116.524 36.8955C116.367 36.7911 116.167 36.7389 115.915 36.7389C115.654 36.7389 115.446 36.7911 115.28 36.8955C115.115 36.9911 115.002 37.1129 114.924 37.252C114.846 37.3911 114.802 37.5216 114.785 37.6346H116.967Z" fill="#5EA402"/>
<path d="M118.547 36.088H119.329V34.375H120.408V36.088H121.434V37.0011H120.408V38.7837C120.408 39.0011 120.443 39.175 120.521 39.288C120.599 39.3924 120.703 39.4533 120.851 39.4533C120.964 39.4533 121.06 39.4359 121.129 39.3837C121.199 39.3315 121.243 39.3054 121.251 39.2967L121.66 40.088C121.643 40.1054 121.582 40.1489 121.486 40.1924C121.39 40.2446 121.269 40.2793 121.103 40.3315C120.947 40.3663 120.764 40.3924 120.573 40.3924C120.216 40.3924 119.929 40.288 119.686 40.0707C119.451 39.862 119.329 39.5315 119.329 39.088V37.0098H118.547V36.088Z" fill="#5EA402"/>
<path d="M125.688 40.2605V39.4866C125.662 39.5648 125.584 39.6779 125.453 39.8257C125.332 39.9735 125.158 40.0953 124.932 40.2083C124.714 40.3214 124.462 40.3822 124.158 40.3822C123.775 40.3822 123.419 40.2866 123.105 40.104C122.801 39.9214 122.549 39.6605 122.375 39.3214C122.192 38.9909 122.105 38.6083 122.105 38.1735C122.105 37.7388 122.192 37.3561 122.375 37.0257C122.558 36.6953 122.801 36.4344 123.105 36.2431C123.41 36.0518 123.766 35.9648 124.158 35.9648C124.445 35.9648 124.697 36.017 124.914 36.1214C125.132 36.2257 125.297 36.3388 125.436 36.4692C125.575 36.6083 125.645 36.7214 125.679 36.817V36.0953H126.758V40.2692H125.679V40.2605H125.688ZM123.175 38.1648C123.175 38.4344 123.236 38.6692 123.349 38.8692C123.462 39.0692 123.619 39.2257 123.81 39.3301C124.001 39.4344 124.201 39.4953 124.427 39.4953C124.671 39.4953 124.871 39.4344 125.062 39.3301C125.245 39.217 125.392 39.0605 125.497 38.8692C125.601 38.6692 125.662 38.4344 125.662 38.1735C125.662 37.9127 125.601 37.6866 125.497 37.4779C125.392 37.2779 125.245 37.1214 125.062 37.0083C124.879 36.8953 124.671 36.8344 124.427 36.8344C124.21 36.8344 124.001 36.8953 123.81 36.9996C123.619 37.104 123.462 37.2692 123.349 37.4605C123.227 37.6692 123.175 37.904 123.175 38.1648Z" fill="#5EA402"/>
<path d="M129.906 30.8356C131.428 30.8356 132.662 32.0704 132.662 33.5922V40.6356C132.662 42.1574 131.428 43.3922 129.906 43.3922H104.01C102.488 43.3922 101.254 42.1574 101.254 40.6356V33.5922C101.254 32.0704 102.488 30.8356 104.01 30.8356H129.906ZM129.906 30.2617H104.01C102.167 30.2617 100.68 31.7574 100.68 33.5922V40.6356C100.68 42.4791 102.175 43.9661 104.01 43.9661H129.906C131.749 43.9661 133.236 42.4704 133.236 40.6356V33.5922C133.236 31.7574 131.749 30.2617 129.906 30.2617Z" fill="#5EA402"/>
</g>
<defs>
<linearGradient id="paint0_linear_11561_279249" x1="39.1553" y1="21.3183" x2="30.504" y2="29.9696" gradientUnits="userSpaceOnUse">
<stop stop-opacity="0"/>
<stop offset="1"/>
</linearGradient>
<linearGradient id="paint1_linear_11561_279249" x1="39.307" y1="21.1666" x2="44.7974" y2="15.6762" gradientUnits="userSpaceOnUse">
<stop offset="0.0176145" stop-opacity="0"/>
<stop offset="1"/>
</linearGradient>
<linearGradient id="paint2_linear_11561_279249" x1="39.1077" y1="21.119" x2="32.1987" y2="14.21" gradientUnits="userSpaceOnUse">
<stop stop-opacity="0"/>
<stop offset="1"/>
</linearGradient>
<linearGradient id="paint3_linear_11561_279249" x1="39.2866" y1="21.2935" x2="43.234" y2="25.2409" gradientUnits="userSpaceOnUse">
<stop offset="0.025912" stop-opacity="0"/>
<stop offset="0.9809"/>
</linearGradient>
<clipPath id="clip0_11561_279249">
<rect width="115.217" height="44" fill="white" transform="translate(18)"/>
</clipPath>
</defs>
</svg>
