<?xml version="1.0" encoding="utf-8"?>
<!-- Generator: Adobe Illustrator 26.0.0, SVG Export Plug-In . SVG Version: 6.00 Build 0)  -->
<svg version="1.1" id="Layer_1" xmlns="http://www.w3.org/2000/svg" xmlns:xlink="http://www.w3.org/1999/xlink" x="0px" y="0px"
	 viewBox="0 0 154.5 49.8" style="enable-background:new 0 0 154.5 49.8;" xml:space="preserve">
<style type="text/css">
	.st0{fill:#FFFFFF;}
	.st1{fill:url(#SVGID_1_);}
	.st2{fill:url(#SVGID_00000115488672094854922670000014831619735503385023_);}
	.st3{fill:url(#SVGID_00000096782047593312303390000000516268130008085934_);}
	.st4{fill:url(#SVGID_00000026877558057956416070000012904017255344219302_);}
	.st5{fill:#DD0400;}
	.st6{fill:url(#SVGID_00000109740818734320381740000003463305017162117536_);}
	.st7{fill:#6B1C1C;}
</style>
<g>
	<g>
		<path class="st0" d="M2.7,25.5h2.4c0.1-0.6,0.2-1.1,0.3-1.7c0.3-1.3,0.6-2.5,1.1-3.7C7,19,7.6,17.8,8.3,16.8c0.7-1,1.5-2,2.4-2.9
			c0.9-0.9,1.9-1.7,2.9-2.4c1.1-0.7,2.2-1.3,3.3-1.8c1.2-0.5,2.4-0.9,3.7-1.1c0.6-0.1,1.1-0.2,1.7-0.3V5.8C12,6.8,3.7,15.1,2.7,25.5
			z M44.2,30.1c-0.1,0.6-0.2,1.1-0.3,1.7c-0.3,1.3-0.6,2.5-1.1,3.7c-0.5,1.2-1.1,2.3-1.8,3.3c-0.7,1-1.5,2-2.4,2.9
			c-0.9,0.9-1.9,1.7-2.9,2.4c-1.1,0.7-2.2,1.3-3.3,1.8c-1.2,0.5-2.4,0.9-3.7,1.1c-0.6,0.1-1.1,0.2-1.7,0.3v2.4
			c10.4-1.1,18.7-9.3,19.7-19.7H44.2z M17,45.9c-1.2-0.5-2.3-1.1-3.3-1.8c-1-0.7-2-1.5-2.9-2.4c-0.9-0.9-1.7-1.9-2.4-2.9
			c-0.7-1.1-1.3-2.2-1.8-3.3C6,34.3,5.6,33,5.4,31.7c-0.1-0.6-0.2-1.1-0.3-1.7H2.7C3.7,40.5,12,48.7,22.4,49.8v-2.4
			c-0.6-0.1-1.1-0.2-1.7-0.3C19.4,46.8,18.2,46.4,17,45.9z M26.9,5.8v2.4c0.6,0.1,1.1,0.2,1.7,0.3c1.3,0.3,2.5,0.6,3.7,1.1
			c1.2,0.5,2.3,1.1,3.3,1.8c1,0.7,2,1.5,2.9,2.4c0.9,0.9,1.7,1.9,2.4,2.9c0.7,1.1,1.3,2.2,1.8,3.3c0.5,1.2,0.9,2.4,1.1,3.7
			c0.1,0.6,0.2,1.1,0.3,1.7h2.5C45.6,15.1,37.3,6.8,26.9,5.8z"/>
		<path class="st0" d="M17.4,16.3h-4.2v4.2h4.2V16.3z"/>
		<path class="st0" d="M36.1,16.3h-5.7V22h5.7V16.3z"/>
		<path class="st0" d="M36.1,31.8v7.4h-7.4v-7.4H36.1z"/>
		<path class="st0" d="M15.6,36.8h-2.4v2.4h2.4V36.8z"/>
		
			<linearGradient id="SVGID_1_" gradientUnits="userSpaceOnUse" x1="24.5936" y1="29.6977" x2="15.6172" y2="20.7213" gradientTransform="matrix(1 0 0 -1 0 57.561)">
			<stop  offset="0" style="stop-color:#FFFFFF;stop-opacity:0"/>
			<stop  offset="1" style="stop-color:#FFFFFF"/>
		</linearGradient>
		<path class="st1" d="M24.7,27.9L13.4,39.2h-0.2v-0.2l11.3-11.3L24.7,27.9z"/>
		
			<linearGradient id="SVGID_00000149376021588073399000000017718633607235999668_" gradientUnits="userSpaceOnUse" x1="24.7522" y1="29.8563" x2="30.4489" y2="35.5531" gradientTransform="matrix(1 0 0 -1 0 57.561)">
			<stop  offset="0" style="stop-color:#FFFFFF;stop-opacity:0"/>
			<stop  offset="1" style="stop-color:#FFFFFF"/>
		</linearGradient>
		<path style="fill:url(#SVGID_00000149376021588073399000000017718633607235999668_);" d="M36.1,16.3v0.2L30.6,22l-5.8,5.8
			l-0.2-0.2l5.8-5.8l5.5-5.5H36.1z"/>
		
			<linearGradient id="SVGID_00000055674220264965633680000018089146021447858581_" gradientUnits="userSpaceOnUse" x1="24.5439" y1="29.9062" x2="17.3752" y2="37.0749" gradientTransform="matrix(1 0 0 -1 0 57.561)">
			<stop  offset="0" style="stop-color:#FFFFFF;stop-opacity:0"/>
			<stop  offset="1" style="stop-color:#FFFFFF"/>
		</linearGradient>
		<path style="fill:url(#SVGID_00000055674220264965633680000018089146021447858581_);" d="M24.7,27.6l-0.2,0.2L13.2,16.5v-0.2h0.2
			L24.7,27.6z"/>
		
			<linearGradient id="SVGID_00000168821849288763917640000009763642162041373095_" gradientUnits="userSpaceOnUse" x1="24.7278" y1="29.7222" x2="28.8235" y2="25.6264" gradientTransform="matrix(1 0 0 -1 0 57.561)">
			<stop  offset="0" style="stop-color:#FFFFFF;stop-opacity:0"/>
			<stop  offset="0.9809" style="stop-color:#FFFFFF"/>
		</linearGradient>
		<path style="fill:url(#SVGID_00000168821849288763917640000009763642162041373095_);" d="M36.1,39.1v0.2H36L24.7,27.9l0.2-0.2
			L36.1,39.1z"/>
		<path class="st0" d="M75,27.9c0,4.1-2.6,8.2-8.1,8.2c-5.6,0-8.2-4-8.2-8.2s2.7-8.4,8.2-8.4C72.3,19.5,75,23.7,75,27.9z M61.6,27.9
			c0.1,2.6,1.5,5.4,5.2,5.4c3.7,0,5.2-2.8,5.2-5.4c0-2.7-1.4-5.7-5.2-5.7C63.1,22.2,61.6,25.2,61.6,27.9z"/>
		<path class="st0" d="M80.1,24.5l0.2,1.3c0.9-1.4,2-1.6,3.2-1.6c1.2,0,2.3,0.5,2.9,1.1l-1.2,2.4c-0.6-0.5-1.1-0.7-2-0.7
			c-1.4,0-2.8,0.8-2.8,2.8v5.9h-2.8V24.5H80.1z"/>
		<path class="st0" d="M96.8,24.5h2.7v11.2h-2.6l-0.1-1.6c-0.6,1.3-2.4,2-3.6,2c-3.3,0-5.8-2-5.8-5.9c0-3.9,2.6-5.9,5.8-5.9
			c1.5,0,2.9,0.7,3.6,1.8L96.8,24.5z M90.1,30.1c0,2.1,1.5,3.4,3.3,3.4c4.4,0,4.4-6.8,0-6.8C91.6,26.7,90.1,28,90.1,30.1z"/>
		<path class="st0" d="M105.4,21.4c0,2.2-3.3,2.2-3.3,0C102.2,19.2,105.4,19.2,105.4,21.4z M102.4,24.5v11.2h2.8V24.5H102.4z"/>
		<path class="st0" d="M122.4,27.6c0.1,4-2.4,8.1-7.9,8.1c-2,0-4.3,0-6.2,0V19.8c2,0,4.3,0,6.2,0C119.9,19.8,122.3,23.7,122.4,27.6z
			 M111.2,32.8h3.3c3.6,0,5-2.6,5-5.2c-0.1-2.5-1.5-4.9-5-4.9h-3.3V32.8z"/>
		<path class="st0" d="M136.8,35.7h-11.9c0-5.3,0-10.6,0-15.9h11.9v2.9h-8.9v3.7h8.6v2.8h-8.6v3.6h8.9V35.7z"/>
		<path class="st0" d="M150.5,19.8h3.3v0.1l-5.4,7.7l5.5,7.9v0.1h-3.4l-4.1-6l-4.1,6h-3.4v-0.1l5.5-7.9l-5.4-7.7v-0.1h3.3l4,5.9
			L150.5,19.8z"/>
	</g>
</g>
<g id="Layer_2_00000077290340626945716610000009620572510467410848_">
	<g>
		<g>
			<g>
				<g>
					<path id="SVGID_00000179627090687181422430000009539544387927867813_" class="st5" d="M6.3,2.8c-2,1.3-2.3,2.6-2.4,4
						c-0.1,1.4,0.4,4,1,4.2c0.4,0.1,0.8-1.2,1.2-2C7,7,7,5.1,7,5.1S7,3.2,6.3,2.8z"/>
				</g>
			</g>
		</g>
		
			<radialGradient id="SVGID_00000129205869425679717810000003089303331793811371_" cx="-172.232" cy="850.5775" r="4.1358" fx="-172.7306" fy="849.6837" gradientTransform="matrix(-8.389043e-02 0.9965 -0.9965 -8.389043e-02 836.4021 253.7779)" gradientUnits="userSpaceOnUse">
			<stop  offset="0.2185" style="stop-color:#FFFFFF"/>
			<stop  offset="0.7644" style="stop-color:#EBD2AD"/>
		</radialGradient>
		<circle style="fill:url(#SVGID_00000129205869425679717810000003089303331793811371_);" cx="4.3" cy="11.3" r="2.8"/>
		<path class="st7" d="M6.3,2.8c0,0-1.7,1.2-1.2,3.7c0.5,2.2,1,2.4,1,2.4l1-1.7L7.3,3L6.3,2.8z"/>
		<g>
			<g>
				<g>
					<path id="SVGID_00000067208380636625803140000000149725376666758817_" class="st5" d="M7.5,12.7c-0.7-1.2-2.6-6.9-1.8-9.2
						C6.2,1.9,14,0.6,15.8,0.9c2.3,0.4,4.2,1.6,6.1,4.5c0,0-1.8-1.2-8,1.7C7.6,10.1,7.5,12.7,7.5,12.7z"/>
				</g>
			</g>
		</g>
	</g>
	<g>
		<g>
			<g>
				<path id="SVGID_00000132782342594558689140000009239456562324086698_" class="st0" d="M7.5,12.8c0.2,0.5,0.7,0.8,0.8,0.6
					c0.7-1.3,2.6-4,5.9-5.5c3.3-1.6,6.6-1.4,8-1c0.2,0,0.2-0.5,0-1c-0.3-0.7-0.9-1.2-2.2-1.6c-1.7-0.6-4.2-0.5-7.1,0.7
					c-2.9,1.5-4.5,3.3-5.1,5C7.2,11.4,7.2,12.1,7.5,12.8z"/>
			</g>
		</g>
	</g>
</g>
<g id="Layer_2">
	<polygon class="st0" points="9.6,10.1 8.8,12.4 9.7,12.6 11.6,11.2 18.7,7.9 21.1,6.9 19.8,5.5 10.5,8.7 	"/>
</g>
</svg>
