<svg width="150" height="44" viewBox="0 0 150 44" fill="none" xmlns="http://www.w3.org/2000/svg">
<g clip-path="url(#clip0_693_9462)">
<path d="M0.357117 19.7264H2.80384C2.86839 19.1572 2.96226 18.5939 3.07375 18.0365C3.33191 16.775 3.71917 15.5311 4.2179 14.3459C4.71076 13.1783 5.32098 12.0576 6.03094 11.0015C6.73503 9.95706 7.54474 8.9772 8.43659 8.08534C9.32845 7.19349 10.3083 6.38378 11.3527 5.67969C12.403 4.96973 13.5295 4.35952 14.6972 3.86665C15.8824 3.36792 17.1263 2.98067 18.3878 2.7225C18.9452 2.61102 19.5085 2.51713 20.0776 2.45259V0C9.68636 1.06788 1.41913 9.32924 0.357117 19.7264ZM41.9104 24.2795C41.8459 24.8486 41.752 25.4119 41.6405 25.9693C41.3823 27.2308 40.9951 28.4747 40.4963 29.66C40.0035 30.8276 39.3933 31.9483 38.6833 33.0044C37.9792 34.0488 37.1695 35.0287 36.2776 35.9205C35.3858 36.8124 34.4059 37.6221 33.3615 38.3262C32.3112 39.0361 31.1847 39.6464 30.0171 40.1392C28.8319 40.638 27.588 41.0252 26.3265 41.2834C25.769 41.3949 25.2058 41.4887 24.6366 41.5533V44C35.0279 42.938 43.2951 34.6708 44.3571 24.2795H41.9104ZM14.6972 40.1392C13.5295 39.6464 12.4089 39.0361 11.3527 38.3262C10.3083 37.6221 9.32845 36.8124 8.43659 35.9205C7.54474 35.0287 6.73503 34.0488 6.03094 33.0044C5.32098 31.9541 4.71076 30.8276 4.2179 29.66C3.71917 28.4747 3.33191 27.2308 3.07375 25.9693C2.96226 25.4119 2.86839 24.8486 2.80384 24.2795H0.357117C1.41913 34.6708 9.68636 42.938 20.0776 44V41.5533C19.5085 41.4887 18.9452 41.3949 18.3878 41.2834C17.1263 41.0311 15.8824 40.6438 14.6972 40.1392ZM24.6366 0V2.44673C25.2058 2.51127 25.769 2.60515 26.3265 2.71663C27.588 2.9748 28.8319 3.36205 30.0171 3.86078C31.1847 4.35365 32.3054 4.96386 33.3615 5.67382C34.4059 6.37792 35.3858 7.18763 36.2776 8.07948C37.1695 8.97133 37.9792 9.95119 38.6833 10.9956C39.3933 12.0459 40.0035 13.1724 40.4963 14.34C40.9951 15.5253 41.3823 16.7692 41.6405 18.0307C41.752 18.5881 41.8459 19.1514 41.9104 19.7205H44.363C43.2951 9.32924 35.0337 1.06788 24.6366 0Z" fill="white"/>
<path d="M15.096 10.5381H10.9008V14.7333H15.096V10.5381Z" fill="white"/>
<path d="M33.8309 10.5381H28.1688V16.2002H33.8309V10.5381Z" fill="white"/>
<path d="M33.8308 26.0219V33.4677H26.3849V26.0219H33.8308Z" fill="white"/>
<path d="M13.3416 31.0211H10.9008V33.462H13.3416V31.0211Z" fill="white"/>
<path d="M22.3657 22.1621L11.0533 33.4686H10.9007V33.3102L22.2073 22.0036L22.3657 22.1621Z" fill="url(#paint0_linear_693_9462)"/>
<path d="M33.8309 10.5384V10.6968L28.3213 16.2004L22.5243 22.0034L22.3658 21.8449L28.1688 16.0479L33.6725 10.5384H33.8309Z" fill="url(#paint1_linear_693_9462)"/>
<path d="M22.3658 21.8449L22.2073 22.0033L10.9008 10.6967V10.5383H11.0533L22.3658 21.8449Z" fill="url(#paint2_linear_693_9462)"/>
<path d="M33.8309 33.3102V33.4686H33.6725L22.3658 22.1621L22.5243 22.0036L33.8309 33.3102Z" fill="url(#paint3_linear_693_9462)"/>
<path d="M72.6808 22.0711C72.6389 26.1778 70.1162 30.2845 64.5345 30.2845C58.9527 30.2845 56.363 26.27 56.363 22.0879C56.363 17.9058 59.0449 13.7153 64.5345 13.7153C69.9989 13.7237 72.7227 17.9226 72.6808 22.0711ZM59.3131 22.1382C59.3801 24.7447 60.7881 27.5439 64.5345 27.5439C68.2808 27.5439 69.6888 24.7279 69.7307 22.1214C69.7726 19.4395 68.2808 16.4475 64.5345 16.4475C60.7881 16.4475 59.246 19.4647 59.3131 22.1382Z" fill="white"/>
<path d="M77.8099 18.7355L78.011 20.0262C78.8743 18.6433 80.0308 18.4338 81.1623 18.4338C82.3188 18.4338 83.4335 18.8864 84.0453 19.4982L82.7965 21.9035C82.2266 21.4258 81.707 21.1744 80.8019 21.1744C79.352 21.1744 78.011 21.9454 78.011 24.0155V29.9157H75.2453V18.7355H77.8099Z" fill="white"/>
<path d="M94.5382 18.7355H97.195V29.9241H94.5885L94.4544 28.2898C93.8175 29.6056 92.0742 30.2426 90.8255 30.2677C87.515 30.2929 85.0594 28.2479 85.0594 24.3256C85.0594 20.4704 87.624 18.4506 90.8925 18.4673C92.3927 18.4673 93.8175 19.1713 94.4544 20.286L94.5382 18.7355ZM87.8167 24.3172C87.8167 26.4544 89.2918 27.7199 91.1272 27.7199C95.4853 27.7199 95.4853 20.9313 91.1272 20.9313C89.2918 20.9397 87.8167 22.1885 87.8167 24.3172Z" fill="white"/>
<path d="M103.112 15.5841C103.112 17.738 99.8433 17.738 99.8433 15.5841C99.8433 13.4218 103.112 13.4218 103.112 15.5841ZM100.095 18.6935V29.9239H102.86V18.6935H100.095Z" fill="white"/>
<path d="M120.109 21.8447C120.176 25.8592 117.728 29.9239 112.163 29.9239C110.211 29.9239 107.872 29.9239 105.92 29.9239V14.0337C107.872 14.0337 110.211 14.0337 112.163 14.0337C117.619 14.0337 120.041 17.9224 120.109 21.8447ZM108.903 27.0409H112.172C115.784 27.0409 117.209 24.4093 117.142 21.8196C117.075 19.3472 115.625 16.8748 112.172 16.8748H108.903V27.0409Z" fill="white"/>
<path d="M134.499 29.9239H122.606C122.606 24.6356 122.606 19.3221 122.606 14.0337H134.499V16.9419H125.581V20.596H134.18V23.3868H125.581V26.9738H134.499V29.9239Z" fill="white"/>
<path d="M148.16 14.0337H151.453V14.1678L146.073 21.8866L151.613 29.8317V29.9239H148.252L144.187 23.9567L140.122 29.9239H136.762V29.8317L142.276 21.8866L136.921 14.1678V14.0337H140.214L144.187 19.959L148.16 14.0337Z" fill="white"/>
</g>
<defs>
<linearGradient id="paint0_linear_693_9462" x1="22.2854" y1="22.0812" x2="13.309" y2="31.0576" gradientUnits="userSpaceOnUse">
<stop stop-color="white" stop-opacity="0"/>
<stop offset="1" stop-color="white"/>
</linearGradient>
<linearGradient id="paint1_linear_693_9462" x1="22.4423" y1="21.9253" x2="28.139" y2="16.2285" gradientUnits="userSpaceOnUse">
<stop stop-color="white" stop-opacity="0"/>
<stop offset="1" stop-color="white"/>
</linearGradient>
<linearGradient id="paint2_linear_693_9462" x1="22.2354" y1="21.8757" x2="15.0667" y2="14.707" gradientUnits="userSpaceOnUse">
<stop stop-color="white" stop-opacity="0"/>
<stop offset="1" stop-color="white"/>
</linearGradient>
<linearGradient id="paint3_linear_693_9462" x1="22.4198" y1="22.0592" x2="26.5155" y2="26.155" gradientUnits="userSpaceOnUse">
<stop stop-color="white" stop-opacity="0"/>
<stop offset="0.9809" stop-color="white"/>
</linearGradient>
<clipPath id="clip0_693_9462">
<rect width="149.286" height="44" fill="white" transform="translate(0.357117)"/>
</clipPath>
</defs>
</svg>
