<svg width="151" height="44" viewBox="0 0 151 44" fill="none" xmlns="http://www.w3.org/2000/svg">
<g clip-path="url(#clip0_4273_47855)">
<path d="M0 19.7264H2.44673C2.51127 19.1572 2.60515 18.5939 2.71663 18.0365C2.9748 16.775 3.36205 15.5311 3.86078 14.3459C4.35365 13.1783 4.96386 12.0576 5.67382 11.0015C6.37792 9.95706 7.18763 8.9772 8.07948 8.08534C8.97133 7.19349 9.95119 6.38378 10.9956 5.67969C12.0459 4.96973 13.1724 4.35952 14.34 3.86665C15.5253 3.36792 16.7692 2.98067 18.0307 2.7225C18.5881 2.61102 19.1514 2.51713 19.7205 2.45259V0C9.32925 1.06788 1.06201 9.32924 0 19.7264ZM41.5533 24.2795C41.4887 24.8486 41.3949 25.4119 41.2834 25.9693C41.0252 27.2308 40.638 28.4747 40.1392 29.66C39.6464 30.8276 39.0361 31.9483 38.3262 33.0044C37.6221 34.0488 36.8124 35.0287 35.9205 35.9205C35.0287 36.8124 34.0488 37.6221 33.0044 38.3262C31.9541 39.0361 30.8276 39.6464 29.66 40.1392C28.4747 40.638 27.2308 41.0252 25.9693 41.2834C25.4119 41.3949 24.8486 41.4887 24.2795 41.5533V44C34.6708 42.938 42.938 34.6708 44 24.2795H41.5533ZM14.34 40.1392C13.1724 39.6464 12.0517 39.0361 10.9956 38.3262C9.95119 37.6221 8.97133 36.8124 8.07948 35.9205C7.18763 35.0287 6.37792 34.0488 5.67382 33.0044C4.96386 31.9541 4.35365 30.8276 3.86078 29.66C3.36205 28.4747 2.9748 27.2308 2.71663 25.9693C2.60515 25.4119 2.51127 24.8486 2.44673 24.2795H0C1.06201 34.6708 9.32925 42.938 19.7205 44V41.5533C19.1514 41.4887 18.5881 41.3949 18.0307 41.2834C16.7692 41.0311 15.5253 40.6438 14.34 40.1392ZM24.2795 0V2.44673C24.8486 2.51127 25.4119 2.60515 25.9693 2.71663C27.2308 2.9748 28.4747 3.36205 29.66 3.86078C30.8276 4.35365 31.9483 4.96386 33.0044 5.67382C34.0488 6.37792 35.0287 7.18763 35.9205 8.07948C36.8124 8.97133 37.6221 9.95119 38.3262 10.9956C39.0361 12.0459 39.6464 13.1724 40.1392 14.34C40.638 15.5253 41.0252 16.7692 41.2834 18.0307C41.3949 18.5881 41.4887 19.1514 41.5533 19.7205H44.0059C42.938 9.32924 34.6766 1.06788 24.2795 0Z" fill="#272B30"/>
<path d="M14.7387 10.5391H10.5435V14.7343H14.7387V10.5391Z" fill="#272B30"/>
<path d="M33.4736 10.5391H27.8115V16.2011H33.4736V10.5391Z" fill="#272B30"/>
<path d="M33.4737 26.0234V33.4692H26.0278V26.0234H33.4737Z" fill="#272B30"/>
<path d="M12.9843 31.0215H10.5435V33.4623H12.9843V31.0215Z" fill="#272B30"/>
<path d="M22.0085 22.1623L10.696 33.4689H10.5435V33.3105L21.85 22.0039L22.0085 22.1623Z" fill="url(#paint0_linear_4273_47855)" fill-opacity="0.9"/>
<path d="M33.4733 10.5391V10.6975L27.9638 16.2012L22.1667 22.0041L22.0083 21.8456L27.8112 16.0486L33.3149 10.5391H33.4733Z" fill="url(#paint1_linear_4273_47855)" fill-opacity="0.9"/>
<path d="M22.0085 21.8456L21.85 22.0041L10.5435 10.6975V10.5391H10.696L22.0085 21.8456Z" fill="url(#paint2_linear_4273_47855)" fill-opacity="0.9"/>
<path d="M33.4733 33.3105V33.4689H33.3149L22.0083 22.1623L22.1667 22.0039L33.4733 33.3105Z" fill="url(#paint3_linear_4273_47855)" fill-opacity="0.9"/>
<path d="M72.3237 22.0707C72.2818 26.1773 69.7591 30.284 64.1773 30.284C58.5956 30.284 56.0059 26.2695 56.0059 22.0874C56.0059 17.9053 58.6878 13.7148 64.1773 13.7148C69.6418 13.7232 72.3656 17.9221 72.3237 22.0707ZM58.956 22.1377C59.023 24.7442 60.431 27.5434 64.1773 27.5434C67.9236 27.5434 69.3317 24.7274 69.3736 22.1209C69.4155 19.439 67.9236 16.447 64.1773 16.447C60.431 16.447 58.8889 19.4642 58.956 22.1377Z" fill="#272B30"/>
<path d="M77.4528 18.7353L77.6539 20.026C78.5171 18.6431 79.6737 18.4336 80.8051 18.4336C81.9617 18.4336 83.0764 18.8862 83.6882 19.498L82.4394 21.9033C81.8695 21.4256 81.3499 21.1742 80.4448 21.1742C78.9948 21.1742 77.6539 21.9452 77.6539 24.0153V29.9155H74.8882V18.7353H77.4528Z" fill="#272B30"/>
<path d="M94.181 18.7351H96.8378V29.9237H94.2313L94.0972 28.2894C93.4602 29.6052 91.717 30.2421 90.4682 30.2673C87.1578 30.2924 84.7021 28.2475 84.7021 24.3252C84.7021 20.4699 87.2667 18.4501 90.5353 18.4669C92.0355 18.4669 93.4602 19.1709 94.0972 20.2856L94.181 18.7351ZM87.4595 24.3168C87.4595 26.4539 88.9345 27.7195 90.77 27.7195C95.1281 27.7195 95.1281 20.9309 90.77 20.9309C88.9345 20.9393 87.4595 22.188 87.4595 24.3168Z" fill="#272B30"/>
<path d="M102.755 15.5827C102.755 17.7366 99.4863 17.7366 99.4863 15.5827C99.4863 13.4204 102.755 13.4204 102.755 15.5827ZM99.7378 18.692V29.9225H102.503V18.692H99.7378Z" fill="#272B30"/>
<path d="M119.751 21.8442C119.818 25.8587 117.371 29.9234 111.806 29.9234C109.854 29.9234 107.515 29.9234 105.562 29.9234V14.0332C107.515 14.0332 109.854 14.0332 111.806 14.0332C117.262 14.0332 119.684 17.922 119.751 21.8442ZM108.546 27.0404H111.815C115.427 27.0404 116.852 24.4088 116.785 21.8191C116.718 19.3467 115.268 16.8743 111.815 16.8743H108.546V27.0404Z" fill="#272B30"/>
<path d="M134.142 29.9234H122.249C122.249 24.6351 122.249 19.3216 122.249 14.0332H134.142V16.9414H125.224V20.5955H133.823V23.3863H125.224V26.9734H134.142V29.9234Z" fill="#272B30"/>
<path d="M147.802 14.0332H151.096V14.1673L145.716 21.8861L151.255 29.8313V29.9234H147.895L143.83 23.9562L139.765 29.9234H136.404V29.8313L141.919 21.8861L136.564 14.1673V14.0332H139.857L143.83 19.9585L147.802 14.0332Z" fill="#272B30"/>
</g>
<defs>
<linearGradient id="paint0_linear_4273_47855" x1="11.1078" y1="22.6403" x2="19.3758" y2="34.4385" gradientUnits="userSpaceOnUse">
<stop stop-color="#333333"/>
<stop offset="1" stop-color="#070707"/>
</linearGradient>
<linearGradient id="paint1_linear_4273_47855" x1="22.5727" y1="11.1754" x2="30.8407" y2="22.9737" gradientUnits="userSpaceOnUse">
<stop stop-color="#333333"/>
<stop offset="1" stop-color="#070707"/>
</linearGradient>
<linearGradient id="paint2_linear_4273_47855" x1="11.1078" y1="11.1754" x2="19.3758" y2="22.9737" gradientUnits="userSpaceOnUse">
<stop stop-color="#333333"/>
<stop offset="1" stop-color="#070707"/>
</linearGradient>
<linearGradient id="paint3_linear_4273_47855" x1="22.5727" y1="22.6403" x2="30.8407" y2="34.4385" gradientUnits="userSpaceOnUse">
<stop stop-color="#333333"/>
<stop offset="1" stop-color="#070707"/>
</linearGradient>
<clipPath id="clip0_4273_47855">
<rect width="151" height="44" fill="white"/>
</clipPath>
</defs>
</svg>
