<svg width="15" height="15" viewBox="0 0 15 15" fill="none" xmlns="http://www.w3.org/2000/svg">
<path d="M11.3827 4.11785C10.8059 3.53655 10.1057 3.09208 9.33381 2.81726C8.56193 2.54245 7.73811 2.44432 6.92317 2.5301C4.39747 2.78442 2.31909 4.83268 2.03693 7.35521C1.65842 10.6888 4.23918 13.5 7.49438 13.5C8.53364 13.5 9.55157 13.2055 10.4299 12.6507C11.3082 12.0959 12.0109 11.3035 12.4563 10.3657C12.6765 9.90523 12.3462 9.37598 11.8369 9.37598C11.5823 9.37598 11.3414 9.51345 11.2313 9.74027C10.8318 10.5988 10.1483 11.2936 9.29604 11.708C8.44374 12.1223 7.47456 12.2309 6.55154 12.0154C5.02373 11.6786 3.79185 10.4345 3.46839 8.90859C3.33243 8.30529 3.334 7.67917 3.473 7.07656C3.612 6.47395 3.88487 5.91025 4.27142 5.42717C4.65798 4.94409 5.14833 4.55399 5.7062 4.28571C6.26408 4.01743 6.8752 3.87785 7.49438 3.87728C8.6368 3.87728 9.65533 4.35155 10.3986 5.10074L9.35941 6.13862C8.92584 6.57164 9.22865 7.31397 9.84115 7.31397H12.3118C12.6903 7.31397 13 7.00467 13 6.62663V4.15909C13 3.54736 12.2567 3.23806 11.8232 3.67108L11.3827 4.11785Z" fill="#BDC3D3"/>
</svg>
