<svg xmlns="http://www.w3.org/2000/svg" width="120" height="172" viewBox="0 0 120 172" fill="none">
    <path
        d="M62.1074 49.6914V67.1235L87.7574 71.4307C87.7574 71.4307 91.9467 71.8271 92.0431 64.7664C92.1396 57.7057 81.8431 45.5342 62.1074 49.6914Z"
        fill="#ADE67E" />
    <path
        d="M92.5898 67.3916L108.093 76.2845C113.258 79.3916 111.897 87.438 106.636 90.3737L75.5862 108.192C70.1862 111.202 63.5969 111.117 58.2719 107.988L28.7326 89.6023C23.2255 86.3559 21.7791 80.0237 27.2969 76.7987L42.5005 67.9273"
        stroke="#16110D" stroke-width="0.5" stroke-miterlimit="10" />
    <path
        d="M60.0069 58.3276L48.1676 65.1633C48.1676 65.1633 41.9747 68.8597 30.8747 75.149C24.7997 78.5883 21.4997 81.374 21.4569 84.8883L21.489 135.867C22.014 144.17 28.764 147.974 28.8283 148.017L58.764 165.299C63.6283 168.106 70.9997 168.428 75.1783 166.017L106.518 147.92C107.696 147.213 113.653 143.238 113.718 135.074L113.76 84.4169C113.675 81.5347 111.682 79.4133 106.432 76.3812L90.7783 67.3383L91.539 65.9883L107.214 75.0312C112.689 78.1919 115.314 80.7419 115.314 84.374L115.271 135.074C115.196 144.074 108.618 148.467 107.3 149.26L75.9497 167.356C73.8497 168.567 71.0426 169.167 68.0961 169.167C64.5711 169.167 60.864 168.32 57.9819 166.649L28.0569 149.367C27.7676 149.206 20.514 145.145 19.9247 135.92L19.8926 84.8883C19.8926 80.0669 23.4176 77.5812 30.0819 73.8097C41.1819 67.5205 47.3104 63.8669 47.364 63.8347L59.214 56.999L59.9854 58.3383L60.0069 58.3276Z"
        fill="#16110D" />
    <path
        d="M96.1776 63.7598V63.7384C96.1776 63.6527 96.1776 63.5777 96.1669 63.492H95.3419H94.999H92.0954L91.6133 63.4812H91.3026L90.499 63.4705C90.5204 63.5563 90.5204 63.642 90.5204 63.7277V63.7705C90.5204 63.8562 90.5204 63.9312 90.5204 64.017C90.5204 64.1027 90.5097 64.1991 90.499 64.2848C90.5097 64.3598 90.499 64.4455 90.4776 64.5205H90.9704L91.8383 64.5312H92.074L95.0097 64.5741H95.3526V80.067C95.224 84.042 92.4597 87.6955 87.3597 90.642C82.774 93.2884 76.8811 94.9062 70.5169 95.2705V95.517C69.574 95.5598 68.6204 95.592 67.6561 95.592C66.6276 95.592 65.599 95.5598 64.5919 95.4955V95.2598C62.9204 95.1527 61.2811 94.9705 59.6847 94.692V94.9277C55.249 94.1777 51.1883 92.7955 47.824 90.8563C42.7454 87.9205 39.8633 84.0098 39.724 79.8527V68.3991C39.7669 68.5598 39.8526 68.7205 39.949 68.8812V67.7777L39.9383 64.3062H40.9133L43.2061 64.3277H44.2026L44.8026 64.3384L51.0811 64.3812L51.2311 64.317C54.7561 62.8384 58.7847 61.8741 63.0597 61.467V60.9098L63.0704 60.4062C58.6883 60.8027 54.5419 61.7777 50.8669 63.2884L44.8026 63.2562H40.9561L40.2061 63.2455H39.9597L39.1347 63.2348C39.124 63.3205 39.124 63.3955 39.124 63.4812H39.1133V79.467L39.1347 79.9062C39.2847 84.2563 42.2633 88.3277 47.5347 91.3598C52.8919 94.4563 60.0383 96.1598 67.6561 96.1598C75.274 96.1598 82.4204 94.4563 87.7776 91.3598C93.1347 88.2634 96.049 84.3527 96.199 80.0241V63.7705L96.1776 63.7598Z"
        fill="#16110D" />
    <path
        d="M95.5776 64.328H95.3311L95.0097 64.3173L92.0847 64.2851H91.2918L90.4883 64.2744C90.499 64.3494 90.4883 64.4351 90.4669 64.5101C90.4669 64.5958 90.4561 64.6708 90.4347 64.7566H91.549L92.0419 64.7673L94.9776 64.7994H95.1061V68.2923C95.1919 68.1208 95.2669 67.9601 95.3419 67.7887C95.4276 67.5637 95.5133 67.3494 95.5883 67.1244V64.328H95.5776ZM51.0704 64.1137L44.7811 64.0816H43.4204L43.1847 64.0708H40.8919L39.6919 64.0601V67.1351C39.7669 67.3494 39.8419 67.553 39.9276 67.7673C40.0026 67.9494 40.0883 68.1208 40.174 68.303V64.5423H43.2169L43.4526 64.553H43.7097H44.8133L51.1669 64.5851L51.3169 64.5208C54.8526 63.0316 58.8811 62.0887 63.049 61.6923V61.1994C58.7311 61.6066 54.6811 62.5816 51.124 64.0816L51.0704 64.103V64.1137ZM44.7919 64.328C44.7811 64.2423 44.7704 64.1673 44.7811 64.0816H43.4204L43.1847 64.0708H40.8919L40.1847 64.0601C40.1847 64.1351 40.1847 64.2208 40.1954 64.2958C40.1954 64.3816 40.2061 64.4566 40.2061 64.5423H43.2169L43.4526 64.553H43.7097H44.8133C44.8026 64.478 44.7919 64.3923 44.7919 64.3173V64.328ZM44.7919 64.328C44.7811 64.2423 44.7704 64.1673 44.7811 64.0816H43.4204L43.1847 64.0708H40.8919L40.1847 64.0601C40.1847 64.1351 40.1847 64.2208 40.1954 64.2958C40.1954 64.3816 40.2061 64.4566 40.2061 64.5423H43.2169L43.4526 64.553H43.7097H44.8133C44.8026 64.478 44.7919 64.3923 44.7919 64.3173V64.328ZM44.7919 64.328C44.7811 64.2423 44.7704 64.1673 44.7811 64.0816H43.4204L43.1847 64.0708H40.8919L40.1847 64.0601C40.1847 64.1351 40.1847 64.2208 40.1954 64.2958C40.1954 64.3816 40.2061 64.4566 40.2061 64.5423H43.2169L43.4526 64.553H43.7097H44.8133C44.8026 64.478 44.7919 64.3923 44.7919 64.3173V64.328ZM96.1669 63.4923C96.1669 63.4173 96.1668 63.3316 96.1561 63.2566H95.3311L94.9883 63.2458H92.0847L90.7347 63.2351H90.4883C90.5097 63.3101 90.5097 63.3851 90.499 63.4601C90.5204 63.5458 90.5204 63.6316 90.5204 63.7173H92.1061L95.0097 63.7387H96.1776C96.1776 63.653 96.1776 63.578 96.1669 63.4923ZM44.8133 63.0101H43.9669L43.2169 62.9994H40.9776L39.4347 62.9887H39.1347C39.124 63.0637 39.124 63.1387 39.124 63.2244C39.1133 63.3101 39.1133 63.3851 39.1133 63.4708H40.924L43.1847 63.4923H44.7704L50.8561 63.5244H50.9526L51.049 63.4816C54.6276 61.9923 58.7204 61.028 63.0597 60.6316V60.1494C58.7419 60.5458 54.5419 61.5101 50.8561 63.0423L44.8133 63.0101ZM44.7811 64.0816H43.4204L43.1847 64.0708H40.8919L40.1847 64.0601C40.1847 64.1351 40.1847 64.2208 40.1954 64.2958C40.1954 64.3816 40.2061 64.4566 40.2061 64.5423H43.2169L43.4526 64.553H43.7097H44.8133C44.8026 64.478 44.7919 64.3923 44.7919 64.3173C44.7811 64.2316 44.7704 64.1566 44.7811 64.0708V64.0816ZM44.7919 64.328C44.7811 64.2423 44.7704 64.1673 44.7811 64.0816H43.4204L43.1847 64.0708H40.8919L40.1847 64.0601C40.1847 64.1351 40.1847 64.2208 40.1954 64.2958C40.1954 64.3816 40.2061 64.4566 40.2061 64.5423H43.2169L43.4526 64.553H43.7097H44.8133C44.8026 64.478 44.7919 64.3923 44.7919 64.3173V64.328ZM44.7919 64.328C44.7811 64.2423 44.7704 64.1673 44.7811 64.0816H43.4204L43.1847 64.0708H40.8919L40.1847 64.0601C40.1847 64.1351 40.1847 64.2208 40.1954 64.2958C40.1954 64.3816 40.2061 64.4566 40.2061 64.5423H43.2169L43.4526 64.553H43.7097H44.8133C44.8026 64.478 44.7919 64.3923 44.7919 64.3173V64.328ZM44.7919 64.328C44.7811 64.2423 44.7704 64.1673 44.7811 64.0816H43.4204L43.1847 64.0708H40.8919L40.1847 64.0601C40.1847 64.1351 40.1847 64.2208 40.1954 64.2958C40.1954 64.3816 40.2061 64.4566 40.2061 64.5423H43.2169L43.4526 64.553H43.7097H44.8133C44.8026 64.478 44.7919 64.3923 44.7919 64.3173V64.328ZM95.5776 64.328H95.3311L95.0097 64.3173L92.0847 64.2851H91.2918L90.4883 64.2744C90.499 64.3494 90.4883 64.4351 90.4669 64.5101C90.4669 64.5958 90.4561 64.6708 90.4347 64.7566H91.549L92.0419 64.7673L94.9776 64.7994H95.1061V68.2923C95.1919 68.1208 95.2669 67.9601 95.3419 67.7887C95.4276 67.5637 95.5133 67.3494 95.5883 67.1244V64.328H95.5776ZM51.0704 64.1137L44.7811 64.0816H43.4204L43.1847 64.0708H40.8919L39.6919 64.0601V67.1351C39.7669 67.3494 39.8419 67.553 39.9276 67.7673C40.0026 67.9494 40.0883 68.1208 40.174 68.303V64.5423H43.2169L43.4526 64.553H43.7097H44.8133L51.1669 64.5851L51.3169 64.5208C54.8526 63.0316 58.8811 62.0887 63.049 61.6923V61.1994C58.7311 61.6066 54.6811 62.5816 51.124 64.0816L51.0704 64.103V64.1137ZM95.5776 64.328H95.3311L95.0097 64.3173L92.0847 64.2851H91.2918L90.4883 64.2744C90.499 64.3494 90.4883 64.4351 90.4669 64.5101C90.4669 64.5958 90.4561 64.6708 90.4347 64.7566H91.549L92.0419 64.7673L94.9776 64.7994H95.1061V68.2923C95.1919 68.1208 95.2669 67.9601 95.3419 67.7887C95.4276 67.5637 95.5133 67.3494 95.5883 67.1244V64.328H95.5776ZM51.0704 64.1137L44.7811 64.0816H43.4204L43.1847 64.0708H40.8919L39.6919 64.0601V67.1351C39.7669 67.3494 39.8419 67.553 39.9276 67.7673C40.0026 67.9494 40.0883 68.1208 40.174 68.303V64.5423H43.2169L43.4526 64.553H43.7097H44.8133L51.1669 64.5851L51.3169 64.5208C54.8526 63.0316 58.8811 62.0887 63.049 61.6923V61.1994C58.7311 61.6066 54.6811 62.5816 51.124 64.0816L51.0704 64.103V64.1137ZM59.674 94.4351V94.9173C61.2704 95.1958 62.9097 95.3887 64.5811 95.4851V95.003C62.9204 94.8958 61.2811 94.703 59.674 94.4351ZM95.5883 79.4887V64.328H95.3311L95.0097 64.3173L92.0847 64.2851H91.2918L90.4883 64.2744C90.499 64.3494 90.4883 64.4351 90.4669 64.5101C90.4669 64.5958 90.4561 64.6708 90.4347 64.7566H91.549L92.0419 64.7673L94.9776 64.7994H95.1061V80.0458C94.9776 83.9351 92.2561 87.5244 87.2311 90.428C82.5597 93.128 76.6133 94.6494 70.5061 95.0137V95.5066C72.3169 95.3994 74.0954 95.1851 75.8097 94.8851C80.1704 94.1244 84.1561 92.753 87.4668 90.8458C89.299 89.7958 90.8419 88.6387 92.0633 87.4066L92.9204 86.4744C94.6133 84.4923 95.524 82.3173 95.599 80.0351V79.4887H95.5883ZM59.674 94.4351V94.9173C61.2704 95.1958 62.9097 95.3887 64.5811 95.4851V95.003C62.9204 94.8958 61.2811 94.703 59.674 94.4351ZM95.5883 79.4887V64.328H95.3311L95.0097 64.3173L92.0847 64.2851H91.2918L90.4883 64.2744C90.499 64.3494 90.4883 64.4351 90.4669 64.5101C90.4669 64.5958 90.4561 64.6708 90.4347 64.7566H91.549L92.0419 64.7673L94.9776 64.7994H95.1061V80.0458C94.9776 83.9351 92.2561 87.5244 87.2311 90.428C82.5597 93.128 76.6133 94.6494 70.5061 95.0137V95.5066C72.3169 95.3994 74.0954 95.1851 75.8097 94.8851C80.1704 94.1244 84.1561 92.753 87.4668 90.8458C89.299 89.7958 90.8419 88.6387 92.0633 87.4066L92.9204 86.4744C94.6133 84.4923 95.524 82.3173 95.599 80.0351V79.4887H95.5883ZM59.674 94.4351V94.9173C61.2704 95.1958 62.9097 95.3887 64.5811 95.4851V95.003C62.9204 94.8958 61.2811 94.703 59.674 94.4351ZM95.5883 79.4887V64.328H95.3311L95.0097 64.3173L92.0847 64.2851H91.2918L90.4883 64.2744C90.499 64.3494 90.4883 64.4351 90.4669 64.5101C90.4669 64.5958 90.4561 64.6708 90.4347 64.7566H91.549L92.0419 64.7673L94.9776 64.7994H95.1061V80.0458C94.9776 83.9351 92.2561 87.5244 87.2311 90.428C82.5597 93.128 76.6133 94.6494 70.5061 95.0137V95.5066C72.3169 95.3994 74.0954 95.1851 75.8097 94.8851C80.1704 94.1244 84.1561 92.753 87.4668 90.8458C89.299 89.7958 90.8419 88.6387 92.0633 87.4066L92.9204 86.4744C94.6133 84.4923 95.524 82.3173 95.599 80.0351V79.4887H95.5883Z"
        fill="#DFFFC4" />
    <path
        d="M95.8784 63.4922C95.8784 63.4172 95.8784 63.3314 95.8784 63.2564C95.6748 59.26 92.9212 55.285 87.6283 52.2314C76.5926 45.8564 58.7105 45.8564 47.6855 52.2314C42.5105 55.2207 39.7676 59.0779 39.4462 62.9886C39.4355 63.0636 39.4355 63.1493 39.4355 63.2243C39.4248 63.31 39.4248 63.385 39.4248 63.4707C39.4141 63.5672 39.4141 63.6636 39.4141 63.76C39.4141 64.5422 39.5105 65.3243 39.7033 66.0957C39.7676 66.3636 39.8534 66.6314 39.9391 66.8993C40.0141 67.1243 40.0998 67.3386 40.1855 67.5529C41.3533 70.3922 43.8498 73.0815 47.6855 75.2886C51.1462 77.2922 55.2926 78.6636 59.6855 79.4029C61.2283 79.6707 62.7926 79.8529 64.3784 79.9493H64.4534C66.4676 80.0993 68.5033 80.0993 70.5176 79.9814H70.6141L72.2212 79.8422L72.4462 79.8207H72.6283C73.3998 79.735 74.1712 79.6386 74.9319 79.51H74.9748C76.7319 79.2422 78.4462 78.8672 80.1069 78.3957H80.1391L80.1926 78.3743C81.1248 78.1064 82.0462 77.8064 82.9355 77.4743H82.9569C84.6176 76.8529 86.1819 76.1243 87.6283 75.2886C88.2819 74.9136 88.9034 74.5172 89.4819 74.0993H89.5141C90.4248 73.4457 91.2391 72.7707 91.9569 72.0743L91.9891 72.0422C93.0176 71.0457 93.8426 69.985 94.4534 68.9029H94.4641C94.7212 68.4636 94.9355 68.0243 95.1176 67.585C95.2034 67.3814 95.2783 67.1672 95.3533 66.9529C95.4498 66.685 95.5355 66.4064 95.5998 66.1279C95.7819 65.4314 95.8783 64.735 95.8891 64.0279C95.8998 63.9314 95.9105 63.835 95.8998 63.7386C95.8998 63.6529 95.8998 63.5779 95.8891 63.4922H95.8784ZM67.6462 50.9993C73.9034 50.9993 79.7855 52.3386 84.2212 54.7814C88.3676 57.0636 90.7462 60.0422 90.9712 63.235H90.4891C90.5105 63.31 90.5105 63.385 90.4998 63.46C90.5212 63.5457 90.5212 63.6314 90.5212 63.7172V63.76C90.5212 63.8457 90.5212 63.9207 90.5212 64.0064C90.5212 64.0922 90.5105 64.1886 90.4998 64.2743C90.5105 64.3493 90.4998 64.435 90.4784 64.51C90.4784 64.5957 90.4676 64.6707 90.4462 64.7564C90.1676 66.6207 89.0962 68.41 87.3176 69.9957C84.5962 68.5707 74.1498 63.6636 62.1176 65.4422L63.0498 65.2707V61.7029L63.0605 61.21V60.8993L63.0712 60.1493L63.1033 51.7386V51.2457C64.5819 51.085 66.1141 50.9993 67.6569 50.9993H67.6462Z"
        fill="#DFFFC4" />
    <path
        d="M96.1678 63.4917C96.1678 63.4167 96.1678 63.331 96.1571 63.256C95.9535 58.9917 92.9857 54.9953 87.7678 51.9738C85.0892 50.431 81.9607 49.231 78.5535 48.4167C75.1464 47.6024 71.4607 47.1738 67.6464 47.1738C60.0285 47.1738 52.8821 48.8881 47.5249 51.9738C42.4142 54.931 39.4571 58.8203 39.1357 62.9774C39.1249 63.0631 39.1249 63.1381 39.1249 63.2238C39.1142 63.3095 39.1142 63.3845 39.1142 63.4703H39.1035V65.956C39.1785 66.3203 39.2749 66.6845 39.3928 67.0381C39.4785 67.3167 39.5857 67.5845 39.6928 67.8524H39.7035C39.7678 68.0345 39.8428 68.1845 39.9392 68.356C40.0035 68.5274 40.0892 68.6881 40.1857 68.8488V68.3024C41.4928 71.0238 43.9892 73.5095 47.5249 75.5453C50.9535 77.5274 55.1214 78.9417 59.6749 79.6917V79.9488C61.2607 80.2167 62.9107 80.3988 64.5821 80.4953V80.2488C65.5892 80.3131 66.6178 80.3453 67.6464 80.3453C68.6107 80.3453 69.5642 80.3131 70.5071 80.2703V80.5167C77.0857 80.1417 83.1714 78.481 87.8857 75.7595C91.2714 73.7988 93.7249 71.431 95.1071 68.8381C95.1928 68.6881 95.2785 68.5274 95.3428 68.3667C95.4392 68.1953 95.5142 68.0131 95.5892 67.8417V67.1238C95.7071 66.8024 95.8035 66.481 95.8785 66.1488C95.9749 65.7845 96.0499 65.4095 96.0928 65.0345V64.981C96.1357 64.7238 96.1571 64.4453 96.1571 64.1881C96.1785 64.0488 96.1785 63.8988 96.1785 63.7595V63.7381C96.1785 63.6524 96.1785 63.5774 96.1678 63.4917ZM87.3499 74.8274C82.0892 77.8703 75.0928 79.5417 67.6357 79.5417C63.1142 79.5417 58.7535 78.9203 54.8535 77.7524C54.8321 77.7524 54.8214 77.7524 54.7999 77.7524C52.3035 77.0024 49.9892 76.0167 47.9321 74.8381C43.6464 72.3631 40.9571 69.2238 40.1749 65.8488C40.0464 65.3453 39.9714 64.831 39.9499 64.306C39.9392 64.231 39.9392 64.156 39.9392 64.0703C39.9285 63.9738 39.9285 63.8667 39.9285 63.7703C39.9285 63.6738 39.9285 63.5774 39.9392 63.481C39.9392 63.3953 39.9392 63.3095 39.9499 63.2345C39.9499 63.1488 39.9499 63.0738 39.9607 62.9988C40.2928 59.1203 43.0999 55.4988 47.9321 52.7024C53.1928 49.6703 60.1999 47.9988 67.6464 47.9988C75.0928 47.9988 82.0892 49.6703 87.3499 52.7024C92.2999 55.5524 95.1178 59.2917 95.3321 63.256C95.3321 63.331 95.3321 63.406 95.3321 63.4917C95.3428 63.5774 95.3428 63.6631 95.3428 63.7488V63.7703C95.3428 63.8667 95.3428 63.9524 95.3321 64.0381C95.3321 64.1345 95.3321 64.231 95.3321 64.3274C95.3321 64.4131 95.3214 64.4881 95.3214 64.5738C95.2785 65.0024 95.2142 65.431 95.1071 65.8488C94.5392 68.2917 92.9964 70.606 90.5428 72.6203C90.4142 72.7381 90.2749 72.856 90.1357 72.9524C90.0928 72.9953 90.0607 73.0274 90.0178 73.0488C89.2142 73.681 88.3249 74.2703 87.3499 74.8381V74.8274Z"
        fill="#16110D" />
    <path
        d="M95.5892 63.4922C95.5892 63.4172 95.5892 63.3315 95.5785 63.2565C95.3642 59.1958 92.5035 55.3922 87.4678 52.4886C82.1749 49.4243 75.1357 47.7422 67.6464 47.7422C60.1571 47.7422 53.1071 49.4243 47.8142 52.4886C42.8964 55.3279 40.0571 59.035 39.7249 62.9886C39.7142 63.0636 39.7142 63.1493 39.7142 63.2243C39.7035 63.31 39.7035 63.385 39.7035 63.4708C39.6928 63.5672 39.6928 63.6636 39.6928 63.76C39.6928 63.8565 39.6928 63.9636 39.7035 64.06C39.7142 64.66 39.7892 65.2493 39.9285 65.8386C39.9928 66.1386 40.0785 66.4386 40.1749 66.7279C41.1928 69.8565 43.8178 72.7279 47.8142 75.0422C53.1071 78.0958 60.1464 79.7779 67.6357 79.7779C75.1249 79.7779 82.1749 78.0958 87.4678 75.0422C91.4535 72.7386 94.0892 69.8672 95.1071 66.7493C95.2035 66.4815 95.2785 66.2029 95.3428 65.9243C95.4714 65.3993 95.5464 64.8636 95.5785 64.3279C95.5892 64.2208 95.5892 64.1243 95.5892 64.0279C95.5999 63.9422 95.5999 63.8458 95.5999 63.76V63.7386C95.5999 63.6529 95.5999 63.5779 95.5892 63.4922ZM95.1178 63.76C95.1178 63.8458 95.1178 63.9422 95.1071 64.0279C95.1071 64.1243 95.1071 64.2208 95.0964 64.3172C95.0964 64.4029 95.0857 64.4779 95.0857 64.5636C95.0749 64.6386 95.0642 64.7243 95.0535 64.7993C94.9678 65.485 94.8071 66.1708 94.5714 66.8458C93.5214 69.7493 91.0035 72.4386 87.2321 74.6243C81.8321 77.7422 74.7285 79.2958 67.6357 79.2958C60.5428 79.2958 53.4499 77.7422 48.0607 74.6243C47.6321 74.3779 47.2357 74.1315 46.8499 73.885C46.8071 73.8636 46.7642 73.8315 46.7214 73.7993C42.7892 71.185 40.5071 67.9493 40.2071 64.5422C40.2071 64.4565 40.1964 64.3815 40.1964 64.2958C40.1857 64.2208 40.1857 64.135 40.1857 64.06C40.1749 63.9636 40.1749 63.8565 40.1749 63.76C40.1749 63.6636 40.1749 63.5672 40.1857 63.4708C40.1857 63.3958 40.1857 63.31 40.1964 63.235C40.1964 63.1493 40.1964 63.0743 40.2071 62.9886C40.5392 59.2172 43.2928 55.66 48.0607 52.9065C53.4607 49.7886 60.5535 48.2243 67.6464 48.2243C74.7392 48.2243 81.8321 49.7886 87.2321 52.9065C92.0964 55.7136 94.8714 59.3779 95.0964 63.2458C95.1071 63.3208 95.1071 63.4065 95.1071 63.4815C95.1178 63.5672 95.1178 63.6529 95.1178 63.7386V63.76ZM95.0535 64.7993C94.9678 65.485 94.8071 66.1708 94.5714 66.8458C93.5214 69.7493 91.0035 72.4386 87.2321 74.6243C81.8321 77.7422 74.7285 79.2958 67.6357 79.2958C60.5428 79.2958 53.4499 77.7422 48.0607 74.6243C47.6321 74.3779 47.2357 74.1315 46.8499 73.885C46.8071 73.8636 46.7642 73.8315 46.7214 73.7993C42.7892 71.185 40.5071 67.9493 40.2071 64.5422H40.1749V66.7279C41.1928 69.8565 43.8178 72.7279 47.8142 75.0422C53.1071 78.0958 60.1464 79.7779 67.6357 79.7779C75.1249 79.7779 82.1749 78.0958 87.4678 75.0422C91.4535 72.7386 94.0892 69.8672 95.1071 66.7493V64.7993H95.0535ZM95.0535 64.7993C94.9678 65.485 94.8071 66.1708 94.5714 66.8458C93.5214 69.7493 91.0035 72.4386 87.2321 74.6243C81.8321 77.7422 74.7285 79.2958 67.6357 79.2958C60.5428 79.2958 53.4499 77.7422 48.0607 74.6243C47.6321 74.3779 47.2357 74.1315 46.8499 73.885C46.8071 73.8636 46.7642 73.8315 46.7214 73.7993C42.7892 71.185 40.5071 67.9493 40.2071 64.5422C40.2071 64.4565 40.1964 64.3815 40.1964 64.2958C40.1857 64.2208 40.1857 64.135 40.1857 64.06C40.1749 63.9636 40.1749 63.8565 40.1749 63.76C40.1749 63.6636 40.1749 63.5672 40.1857 63.4708H39.7035C39.6928 63.5672 39.6928 63.6636 39.6928 63.76C39.6928 63.8565 39.6928 63.9636 39.7035 64.06C39.7142 64.66 39.7892 65.2493 39.9285 65.8386C39.9928 66.1386 40.0785 66.4386 40.1749 66.7279C41.1928 69.8565 43.8178 72.7279 47.8142 75.0422C53.1071 78.0958 60.1464 79.7779 67.6357 79.7779C75.1249 79.7779 82.1749 78.0958 87.4678 75.0422C91.4535 72.7386 94.0892 69.8672 95.1071 66.7493V64.7993H95.0535ZM95.0535 64.7993C94.9678 65.485 94.8071 66.1708 94.5714 66.8458C93.5214 69.7493 91.0035 72.4386 87.2321 74.6243C81.8321 77.7422 74.7285 79.2958 67.6357 79.2958C60.5428 79.2958 53.4499 77.7422 48.0607 74.6243C47.6321 74.3779 47.2357 74.1315 46.8499 73.885C46.8071 73.8636 46.7642 73.8315 46.7214 73.7993C42.7892 71.185 40.5071 67.9493 40.2071 64.5422H40.1749V66.7279C41.1928 69.8565 43.8178 72.7279 47.8142 75.0422C53.1071 78.0958 60.1464 79.7779 67.6357 79.7779C75.1249 79.7779 82.1749 78.0958 87.4678 75.0422C91.4535 72.7386 94.0892 69.8672 95.1071 66.7493V64.7993H95.0535ZM95.0535 64.7993C94.9678 65.485 94.8071 66.1708 94.5714 66.8458C93.5214 69.7493 91.0035 72.4386 87.2321 74.6243C81.8321 77.7422 74.7285 79.2958 67.6357 79.2958C60.5428 79.2958 53.4499 77.7422 48.0607 74.6243C47.6321 74.3779 47.2357 74.1315 46.8499 73.885C46.8071 73.8636 46.7642 73.8315 46.7214 73.7993C42.7892 71.185 40.5071 67.9493 40.2071 64.5422H40.1749V66.7279C41.1928 69.8565 43.8178 72.7279 47.8142 75.0422C53.1071 78.0958 60.1464 79.7779 67.6357 79.7779C75.1249 79.7779 82.1749 78.0958 87.4678 75.0422C91.4535 72.7386 94.0892 69.8672 95.1071 66.7493V64.7993H95.0535ZM59.6749 79.6922V80.1851C61.2821 80.4529 62.9321 80.635 64.5821 80.7315V80.2493C62.9107 80.1529 61.2714 79.96 59.6749 79.6922ZM95.3428 67.7886C95.2678 67.96 95.1928 68.1208 95.1071 68.2922C93.7999 71.0136 91.3035 73.51 87.7678 75.5458C83.0857 78.2565 77.0321 79.8958 70.5071 80.2708V80.7422C76.8928 80.3779 83.1178 78.7922 88.0035 75.9636C91.2821 74.0672 93.6928 71.7958 95.1071 69.2993C95.2035 69.16 95.2785 69.0208 95.3428 68.8815C95.4392 68.7208 95.5249 68.5493 95.5892 68.3779V67.1243C95.5142 67.3493 95.4285 67.5636 95.3428 67.7886ZM95.0535 64.7993C94.9678 65.485 94.8071 66.1708 94.5714 66.8458C93.5214 69.7493 91.0035 72.4386 87.2321 74.6243C81.8321 77.7422 74.7285 79.2958 67.6357 79.2958C60.5428 79.2958 53.4499 77.7422 48.0607 74.6243C47.6321 74.3779 47.2357 74.1315 46.8499 73.885C46.8071 73.8636 46.7642 73.8315 46.7214 73.7993C42.7892 71.185 40.5071 67.9493 40.2071 64.5422H40.1749V66.7279C41.1928 69.8565 43.8178 72.7279 47.8142 75.0422C53.1071 78.0958 60.1464 79.7779 67.6357 79.7779C75.1249 79.7779 82.1749 78.0958 87.4678 75.0422C91.4535 72.7386 94.0892 69.8672 95.1071 66.7493V64.7993H95.0535ZM95.0535 64.7993C94.9678 65.485 94.8071 66.1708 94.5714 66.8458C93.5214 69.7493 91.0035 72.4386 87.2321 74.6243C81.8321 77.7422 74.7285 79.2958 67.6357 79.2958C60.5428 79.2958 53.4499 77.7422 48.0607 74.6243C47.6321 74.3779 47.2357 74.1315 46.8499 73.885C46.8071 73.8636 46.7642 73.8315 46.7214 73.7993C42.7892 71.185 40.5071 67.9493 40.2071 64.5422C40.2071 64.4565 40.1964 64.3815 40.1964 64.2958C40.1857 64.2208 40.1857 64.135 40.1857 64.06C40.1749 63.9636 40.1749 63.8565 40.1749 63.76C40.1749 63.6636 40.1749 63.5672 40.1857 63.4708H39.7035C39.6928 63.5672 39.6928 63.6636 39.6928 63.76C39.6928 63.8565 39.6928 63.9636 39.7035 64.06C39.7142 64.66 39.7892 65.2493 39.9285 65.8386C39.9928 66.1386 40.0785 66.4386 40.1749 66.7279C41.1928 69.8565 43.8178 72.7279 47.8142 75.0422C53.1071 78.0958 60.1464 79.7779 67.6357 79.7779C75.1249 79.7779 82.1749 78.0958 87.4678 75.0422C91.4535 72.7386 94.0892 69.8672 95.1071 66.7493V64.7993H95.0535ZM95.0535 64.7993C94.9678 65.485 94.8071 66.1708 94.5714 66.8458C93.5214 69.7493 91.0035 72.4386 87.2321 74.6243C81.8321 77.7422 74.7285 79.2958 67.6357 79.2958C60.5428 79.2958 53.4499 77.7422 48.0607 74.6243C47.6321 74.3779 47.2357 74.1315 46.8499 73.885C46.8071 73.8636 46.7642 73.8315 46.7214 73.7993C42.7892 71.185 40.5071 67.9493 40.2071 64.5422H40.1749V66.7279C41.1928 69.8565 43.8178 72.7279 47.8142 75.0422C53.1071 78.0958 60.1464 79.7779 67.6357 79.7779C75.1249 79.7779 82.1749 78.0958 87.4678 75.0422C91.4535 72.7386 94.0892 69.8672 95.1071 66.7493V64.7993H95.0535ZM39.1035 63.4708V63.76C39.1035 63.6636 39.1035 63.5672 39.1142 63.4708H39.1035ZM95.5892 63.4922C95.5892 63.4172 95.5892 63.3315 95.5785 63.2565C95.3642 59.1958 92.5035 55.3922 87.4678 52.4886C82.1749 49.4243 75.1357 47.7422 67.6464 47.7422C60.1571 47.7422 53.1071 49.4243 47.8142 52.4886C42.8964 55.3279 40.0571 59.035 39.7249 62.9886C39.7142 63.0636 39.7142 63.1493 39.7142 63.2243C39.7035 63.31 39.7035 63.385 39.7035 63.4708C39.6928 63.5672 39.6928 63.6636 39.6928 63.76C39.6928 63.8565 39.6928 63.9636 39.7035 64.06C39.7142 64.66 39.7892 65.2493 39.9285 65.8386C39.9928 66.1386 40.0785 66.4386 40.1749 66.7279C41.1928 69.8565 43.8178 72.7279 47.8142 75.0422C53.1071 78.0958 60.1464 79.7779 67.6357 79.7779C75.1249 79.7779 82.1749 78.0958 87.4678 75.0422C91.4535 72.7386 94.0892 69.8672 95.1071 66.7493C95.2035 66.4815 95.2785 66.2029 95.3428 65.9243C95.4714 65.3993 95.5464 64.8636 95.5785 64.3279C95.5892 64.2208 95.5892 64.1243 95.5892 64.0279C95.5999 63.9422 95.5999 63.8458 95.5999 63.76V63.7386C95.5999 63.6529 95.5999 63.5779 95.5892 63.4922ZM95.1178 63.76C95.1178 63.8458 95.1178 63.9422 95.1071 64.0279C95.1071 64.1243 95.1071 64.2208 95.0964 64.3172C95.0964 64.4029 95.0857 64.4779 95.0857 64.5636C95.0749 64.6386 95.0642 64.7243 95.0535 64.7993C94.9678 65.485 94.8071 66.1708 94.5714 66.8458C93.5214 69.7493 91.0035 72.4386 87.2321 74.6243C81.8321 77.7422 74.7285 79.2958 67.6357 79.2958C60.5428 79.2958 53.4499 77.7422 48.0607 74.6243C47.6321 74.3779 47.2357 74.1315 46.8499 73.885C46.8071 73.8636 46.7642 73.8315 46.7214 73.7993C42.7892 71.185 40.5071 67.9493 40.2071 64.5422C40.2071 64.4565 40.1964 64.3815 40.1964 64.2958C40.1857 64.2208 40.1857 64.135 40.1857 64.06C40.1749 63.9636 40.1749 63.8565 40.1749 63.76C40.1749 63.6636 40.1749 63.5672 40.1857 63.4708C40.1857 63.3958 40.1857 63.31 40.1964 63.235C40.1964 63.1493 40.1964 63.0743 40.2071 62.9886C40.5392 59.2172 43.2928 55.66 48.0607 52.9065C53.4607 49.7886 60.5535 48.2243 67.6464 48.2243C74.7392 48.2243 81.8321 49.7886 87.2321 52.9065C92.0964 55.7136 94.8714 59.3779 95.0964 63.2458C95.1071 63.3208 95.1071 63.4065 95.1071 63.4815C95.1178 63.5672 95.1178 63.6529 95.1178 63.7386V63.76ZM95.5892 63.4922C95.5892 63.4172 95.5892 63.3315 95.5785 63.2565C95.3642 59.1958 92.5035 55.3922 87.4678 52.4886C82.1749 49.4243 75.1357 47.7422 67.6464 47.7422C60.1571 47.7422 53.1071 49.4243 47.8142 52.4886C42.8964 55.3279 40.0571 59.035 39.7249 62.9886C39.7142 63.0636 39.7142 63.1493 39.7142 63.2243C39.7035 63.31 39.7035 63.385 39.7035 63.4708C39.6928 63.5672 39.6928 63.6636 39.6928 63.76C39.6928 63.8565 39.6928 63.9636 39.7035 64.06C39.7142 64.66 39.7892 65.2493 39.9285 65.8386C39.9928 66.1386 40.0785 66.4386 40.1749 66.7279C41.1928 69.8565 43.8178 72.7279 47.8142 75.0422C53.1071 78.0958 60.1464 79.7779 67.6357 79.7779C75.1249 79.7779 82.1749 78.0958 87.4678 75.0422C91.4535 72.7386 94.0892 69.8672 95.1071 66.7493C95.2035 66.4815 95.2785 66.2029 95.3428 65.9243C95.4714 65.3993 95.5464 64.8636 95.5785 64.3279C95.5892 64.2208 95.5892 64.1243 95.5892 64.0279C95.5999 63.9422 95.5999 63.8458 95.5999 63.76V63.7386C95.5999 63.6529 95.5999 63.5779 95.5892 63.4922ZM95.1178 63.76C95.1178 63.8458 95.1178 63.9422 95.1071 64.0279C95.1071 64.1243 95.1071 64.2208 95.0964 64.3172C95.0964 64.4029 95.0857 64.4779 95.0857 64.5636C95.0749 64.6386 95.0642 64.7243 95.0535 64.7993C94.9678 65.485 94.8071 66.1708 94.5714 66.8458C93.5214 69.7493 91.0035 72.4386 87.2321 74.6243C81.8321 77.7422 74.7285 79.2958 67.6357 79.2958C60.5428 79.2958 53.4499 77.7422 48.0607 74.6243C47.6321 74.3779 47.2357 74.1315 46.8499 73.885C46.8071 73.8636 46.7642 73.8315 46.7214 73.7993C42.7892 71.185 40.5071 67.9493 40.2071 64.5422C40.2071 64.4565 40.1964 64.3815 40.1964 64.2958C40.1857 64.2208 40.1857 64.135 40.1857 64.06C40.1749 63.9636 40.1749 63.8565 40.1749 63.76C40.1749 63.6636 40.1749 63.5672 40.1857 63.4708C40.1857 63.3958 40.1857 63.31 40.1964 63.235C40.1964 63.1493 40.1964 63.0743 40.2071 62.9886C40.5392 59.2172 43.2928 55.66 48.0607 52.9065C53.4607 49.7886 60.5535 48.2243 67.6464 48.2243C74.7392 48.2243 81.8321 49.7886 87.2321 52.9065C92.0964 55.7136 94.8714 59.3779 95.0964 63.2458C95.1071 63.3208 95.1071 63.4065 95.1071 63.4815C95.1178 63.5672 95.1178 63.6529 95.1178 63.7386V63.76ZM95.5892 63.4922C95.5892 63.4172 95.5892 63.3315 95.5785 63.2565C95.3642 59.1958 92.5035 55.3922 87.4678 52.4886C82.1749 49.4243 75.1357 47.7422 67.6464 47.7422C60.1571 47.7422 53.1071 49.4243 47.8142 52.4886C42.8964 55.3279 40.0571 59.035 39.7249 62.9886C39.7142 63.0636 39.7142 63.1493 39.7142 63.2243C39.7035 63.31 39.7035 63.385 39.7035 63.4708C39.6928 63.5672 39.6928 63.6636 39.6928 63.76C39.6928 63.8565 39.6928 63.9636 39.7035 64.06C39.7142 64.66 39.7892 65.2493 39.9285 65.8386C39.9928 66.1386 40.0785 66.4386 40.1749 66.7279C41.1928 69.8565 43.8178 72.7279 47.8142 75.0422C53.1071 78.0958 60.1464 79.7779 67.6357 79.7779C75.1249 79.7779 82.1749 78.0958 87.4678 75.0422C91.4535 72.7386 94.0892 69.8672 95.1071 66.7493C95.2035 66.4815 95.2785 66.2029 95.3428 65.9243C95.4714 65.3993 95.5464 64.8636 95.5785 64.3279C95.5892 64.2208 95.5892 64.1243 95.5892 64.0279C95.5999 63.9422 95.5999 63.8458 95.5999 63.76V63.7386C95.5999 63.6529 95.5999 63.5779 95.5892 63.4922ZM95.1178 63.76C95.1178 63.8458 95.1178 63.9422 95.1071 64.0279C95.1071 64.1243 95.1071 64.2208 95.0964 64.3172C95.0964 64.4029 95.0857 64.4779 95.0857 64.5636C95.0749 64.6386 95.0642 64.7243 95.0535 64.7993C94.9678 65.485 94.8071 66.1708 94.5714 66.8458C93.5214 69.7493 91.0035 72.4386 87.2321 74.6243C81.8321 77.7422 74.7285 79.2958 67.6357 79.2958C60.5428 79.2958 53.4499 77.7422 48.0607 74.6243C47.6321 74.3779 47.2357 74.1315 46.8499 73.885C46.8071 73.8636 46.7642 73.8315 46.7214 73.7993C42.7892 71.185 40.5071 67.9493 40.2071 64.5422C40.2071 64.4565 40.1964 64.3815 40.1964 64.2958C40.1857 64.2208 40.1857 64.135 40.1857 64.06C40.1749 63.9636 40.1749 63.8565 40.1749 63.76C40.1749 63.6636 40.1749 63.5672 40.1857 63.4708C40.1857 63.3958 40.1857 63.31 40.1964 63.235C40.1964 63.1493 40.1964 63.0743 40.2071 62.9886C40.5392 59.2172 43.2928 55.66 48.0607 52.9065C53.4607 49.7886 60.5535 48.2243 67.6464 48.2243C74.7392 48.2243 81.8321 49.7886 87.2321 52.9065C92.0964 55.7136 94.8714 59.3779 95.0964 63.2458C95.1071 63.3208 95.1071 63.4065 95.1071 63.4815C95.1178 63.5672 95.1178 63.6529 95.1178 63.7386V63.76ZM95.5892 63.4922C95.5892 63.4172 95.5892 63.3315 95.5785 63.2565C95.3642 59.1958 92.5035 55.3922 87.4678 52.4886C82.1749 49.4243 75.1357 47.7422 67.6464 47.7422C60.1571 47.7422 53.1071 49.4243 47.8142 52.4886C42.8964 55.3279 40.0571 59.035 39.7249 62.9886C39.7142 63.0636 39.7142 63.1493 39.7142 63.2243C39.7035 63.31 39.7035 63.385 39.7035 63.4708C39.6928 63.5672 39.6928 63.6636 39.6928 63.76C39.6928 63.8565 39.6928 63.9636 39.7035 64.06C39.7142 64.66 39.7892 65.2493 39.9285 65.8386C39.9928 66.1386 40.0785 66.4386 40.1749 66.7279C41.1928 69.8565 43.8178 72.7279 47.8142 75.0422C53.1071 78.0958 60.1464 79.7779 67.6357 79.7779C75.1249 79.7779 82.1749 78.0958 87.4678 75.0422C91.4535 72.7386 94.0892 69.8672 95.1071 66.7493C95.2035 66.4815 95.2785 66.2029 95.3428 65.9243C95.4714 65.3993 95.5464 64.8636 95.5785 64.3279C95.5892 64.2208 95.5892 64.1243 95.5892 64.0279C95.5999 63.9422 95.5999 63.8458 95.5999 63.76V63.7386C95.5999 63.6529 95.5999 63.5779 95.5892 63.4922ZM95.1178 63.76C95.1178 63.8458 95.1178 63.9422 95.1071 64.0279C95.1071 64.1243 95.1071 64.2208 95.0964 64.3172C95.0964 64.4029 95.0857 64.4779 95.0857 64.5636C95.0749 64.6386 95.0642 64.7243 95.0535 64.7993C94.9678 65.485 94.8071 66.1708 94.5714 66.8458C93.5214 69.7493 91.0035 72.4386 87.2321 74.6243C81.8321 77.7422 74.7285 79.2958 67.6357 79.2958C60.5428 79.2958 53.4499 77.7422 48.0607 74.6243C47.6321 74.3779 47.2357 74.1315 46.8499 73.885C46.8071 73.8636 46.7642 73.8315 46.7214 73.7993C42.7892 71.185 40.5071 67.9493 40.2071 64.5422C40.2071 64.4565 40.1964 64.3815 40.1964 64.2958C40.1857 64.2208 40.1857 64.135 40.1857 64.06C40.1749 63.9636 40.1749 63.8565 40.1749 63.76C40.1749 63.6636 40.1749 63.5672 40.1857 63.4708C40.1857 63.3958 40.1857 63.31 40.1964 63.235C40.1964 63.1493 40.1964 63.0743 40.2071 62.9886C40.5392 59.2172 43.2928 55.66 48.0607 52.9065C53.4607 49.7886 60.5535 48.2243 67.6464 48.2243C74.7392 48.2243 81.8321 49.7886 87.2321 52.9065C92.0964 55.7136 94.8714 59.3779 95.0964 63.2458C95.1071 63.3208 95.1071 63.4065 95.1071 63.4815C95.1178 63.5672 95.1178 63.6529 95.1178 63.7386V63.76Z"
        fill="#DFFFC4" />
    <path
        d="M95.0118 63.9209C95.0118 63.8352 95.0118 63.7495 95.0118 63.6638C95.0118 63.5888 95.0118 63.5138 95.0118 63.4281C94.7118 59.7531 92.1618 56.1316 87.3725 53.3245C77.1189 47.3138 60.5118 47.3566 50.2368 53.3995C45.5975 56.1209 43.0582 59.6138 42.6082 63.1816C42.5868 63.2674 42.5761 63.3424 42.5761 63.4281C42.5761 63.5031 42.5546 63.5888 42.5546 63.6638C42.5546 63.7602 42.5332 63.8674 42.5546 63.9638C42.5332 64.0602 42.5332 64.1566 42.5332 64.2531C42.5332 64.3281 42.5332 64.4031 42.5332 64.4888C42.5332 64.5745 42.5332 64.6495 42.5332 64.7352C42.5332 64.9388 42.5546 65.1424 42.5761 65.3352C42.5761 65.4424 42.5975 65.5495 42.6189 65.6566C42.6189 65.6781 42.6189 65.6888 42.6189 65.7102C42.6189 65.7102 42.6189 65.7174 42.6189 65.7316C42.6403 65.8709 42.6618 66.0102 42.6939 66.1388C42.7475 66.4816 42.8439 66.8245 42.9511 67.1674C42.9725 67.2424 43.0046 67.3174 43.0261 67.3924C43.0582 67.5209 43.1118 67.6388 43.1653 67.7674C43.2189 67.8959 43.2618 68.0245 43.3153 68.1424C43.3582 68.2281 43.3903 68.3138 43.4332 68.3888C43.5189 68.5816 43.6046 68.7638 43.7118 68.9459C43.7118 68.9781 43.7332 68.9995 43.7546 69.0316C43.8511 69.2031 43.9368 69.3745 44.0439 69.5352C44.1511 69.7281 44.2689 69.9209 44.4189 70.1031C44.4725 70.1888 44.5368 70.2745 44.6011 70.3602C44.6225 70.4138 44.6653 70.4673 44.7082 70.5102C44.7832 70.6173 44.8582 70.7245 44.9439 70.8316C45.4582 71.4745 46.0368 72.1174 46.7118 72.7066C46.8082 72.7816 46.8832 72.8674 46.9796 72.9531C47.3546 73.2852 47.7403 73.5959 48.1689 73.9066C48.2118 73.9388 48.2546 73.9709 48.2975 73.9923C48.8761 74.4316 49.5189 74.8388 50.1939 75.2352C51.9618 76.2745 53.9225 77.1316 56.0118 77.8066C56.0332 77.8066 56.0439 77.8066 56.0653 77.8066C66.0403 81.0316 78.8439 80.1423 87.3296 75.1495C88.3903 74.5281 89.3439 73.8531 90.1903 73.1459C90.2332 73.1245 90.2653 73.0924 90.3082 73.0495C90.4475 72.9531 90.5761 72.8352 90.7046 72.7174C92.6761 70.9602 93.9939 69.0209 94.6153 67.0173C94.8189 66.3531 94.9582 65.6674 95.0118 64.9924C95.0118 64.9174 95.0332 64.8316 95.0332 64.7566C95.0332 64.6709 95.0332 64.5959 95.0332 64.5102C95.0332 64.4138 95.0332 64.3174 95.0332 64.2209C95.0332 64.1245 95.0332 64.0281 95.0332 63.9316L95.0118 63.9209ZM68.4618 51.3209C74.5368 51.3209 80.2368 52.6495 84.5439 55.0602C88.5725 57.3209 90.8761 60.2566 91.0903 63.4174H90.6189C90.6403 63.4924 90.6403 63.5674 90.6189 63.6424C90.6403 63.7281 90.6403 63.8138 90.6403 63.8995V63.9424C90.6403 64.0281 90.6403 64.1031 90.6403 64.1888C90.6403 64.2745 90.6403 64.3709 90.6189 64.4566C90.6189 64.5316 90.6189 64.6174 90.5975 64.6924C90.5975 64.7781 90.5975 64.8531 90.5653 64.9388C90.2975 66.7816 89.2582 68.5495 87.5332 70.1138C84.8975 68.7102 74.7511 63.8566 63.0832 65.6138L63.9832 65.4424V61.9174V61.4352V61.1245V60.3852L64.0153 52.0709V51.5888C65.4511 51.4281 66.9403 51.3424 68.4296 51.3424L68.4618 51.3209Z"
        fill="#ADE67E" />
    <path
        d="M63.0938 50.999V51.7383L63.0616 60.149V60.899L63.0509 61.2097V61.7026L63.0402 65.6026L62.108 65.8276L59.7723 66.1276L58.433 66.5026L58.058 66.5562L48.833 70.724L48.5973 70.8419L48.3509 70.9597L48.1045 71.0776L47.9866 70.9597L45.458 68.3026L44.7616 67.574L44.6438 66.8669L44.633 66.8454L44.2366 64.5633L44.1938 64.3276L44.1616 64.0812L44.108 63.7812L44.0545 63.4919L44.0116 63.2454L44.0009 63.1704L43.9688 62.999L44.0438 62.7633L44.8902 60.1597L45.0188 59.7633L45.2973 59.4633V59.4526L47.933 56.5383L47.9652 56.5062L48.0295 56.4633L51.2973 54.3419L51.3402 54.3097L51.383 54.2883L54.5973 53.0026L58.7116 51.7062L63.0938 50.999Z"
        fill="#16110D" />
    <path
        d="M96.1042 64.9814L95.89 80.8279L95.7935 81.085V81.0957L94.4007 84.8779L92.9221 86.4743L92.065 87.4064L90.2864 89.335H90.2757L89.8685 89.785L88.2507 90.7064L88.09 90.8029L86.74 91.5743L86.5685 91.6707L85.615 92.2172L84.7471 92.5386L84.5542 92.6136L81.04 93.9207L75.8114 94.885L71.2685 95.7314H71.2578L70.5078 95.8707V79.9814L70.6042 79.9707L72.2114 79.8422L72.4364 79.8207L74.0221 79.7029L74.9221 79.51H74.9328L80.0971 78.3957L80.1292 78.385L81.8542 78.0207L82.9257 77.4743L82.9471 77.4636L89.4721 74.0993L89.5042 74.0886L90.94 73.3493L91.9471 72.0743L91.9792 72.0422L94.4435 68.9029L94.4542 68.8922L95.1078 68.0672L95.3328 67.7779L95.3435 67.735L95.59 66.8457L95.8792 65.7957L96.0935 65.035L96.1042 64.9814Z"
        fill="#16110D" />
    <path
        d="M64.5829 79.9816V95.7745L63.5329 95.6888L59.6758 95.3995V79.2959L64.3686 79.9495H64.4008L64.4436 79.9602L64.5829 79.9816Z"
        fill="#16110D" />
    <path
        d="M75.1129 165.471C73.57 165.471 71.9843 165.171 70.6129 164.292C68.2558 162.782 67.0558 159.9 67.0665 155.721L67.1522 121.157C67.1093 120.975 66.0808 113.7 75.4236 108.332L105 91.6071C107.314 90.225 109.72 89.2389 111.295 90.1068C114.209 91.7032 114.616 96.6425 114.67 98.1211V135.396C114.595 144.3 107.903 148.147 106.607 148.929L80.8924 163.929C79.7674 164.379 77.6736 165.471 75.1129 165.471Z"
        stroke="#16110D" stroke-width="0.5" stroke-miterlimit="10" />
    <path
        d="M59.0304 164.571C60.5196 164.571 62.0518 164.271 63.3696 163.403C65.6518 161.903 66.7982 159.053 66.7982 154.917L66.7232 120.835C66.7661 120.653 67.4135 113.529 58.392 108.214L29.4634 90.5356C27.2349 89.1749 25.6018 89.2279 24.0696 90.0958C21.2625 91.6815 20.8661 96.5672 20.8125 98.0244V134.785C20.8768 143.603 27.1232 147.91 28.3768 148.682L53.0518 163.392L53.1054 163.296C54.1982 163.746 56.5554 164.571 59.0304 164.571Z"
        stroke="#16110D" stroke-width="0.5" stroke-miterlimit="10" />
    <path
        d="M79.8489 22.8101C82.431 19.253 78.2525 11.753 70.5168 6.07439C62.781 0.395818 54.4239 -1.31847 51.8418 2.23868C49.2596 5.79582 53.4382 13.2958 61.1739 18.9744C68.9096 24.653 77.2668 26.3672 79.8489 22.8101Z"
        fill="#DEFEC4" stroke="#232521" stroke-width="0.5" stroke-linecap="round"
        stroke-linejoin="round" />
    <path
        d="M75.9609 10.9815L51.2109 6.11719C51.4681 7.4779 52.1109 8.9779 53.0752 10.5422L79.3145 15.6958C78.5217 14.1743 77.3967 12.5672 75.9717 10.9815H75.9609Z"
        fill="#DEFEC4" />
    <path
        d="M79.8489 22.8101C82.431 19.253 78.2525 11.753 70.5168 6.07439C62.781 0.395818 54.4239 -1.31847 51.8418 2.23868C49.2596 5.79582 53.4382 13.2958 61.1739 18.9744C68.9096 24.653 77.2668 26.3672 79.8489 22.8101Z"
        stroke="#232521" stroke-width="0.5" stroke-linecap="round" stroke-linejoin="round" />
    <path
        d="M77.9318 21.3957C80.1604 18.3207 76.5604 11.86 69.8854 6.96354C63.2104 2.06712 55.9996 0.577831 53.7711 3.65283C51.5425 6.72783 55.1425 13.1885 61.8175 18.085C68.4925 22.9814 75.7032 24.4707 77.9318 21.3957Z"
        fill="#DEFEC4" stroke="#232521" stroke-width="0.5" stroke-linecap="round"
        stroke-linejoin="round" />
    <path
        d="M53.9973 4.1887C56.2259 1.12442 63.4473 2.60299 70.1223 7.4887C73.883 10.2423 76.658 13.4887 77.9759 16.3494C76.7652 13.3708 73.883 9.8887 69.8866 6.9637C63.2116 2.06728 55.9902 0.588705 53.7616 3.6637C52.7866 5.00299 52.9259 6.99585 53.9545 9.22442C53.1402 7.21013 53.0973 5.43156 53.9866 4.1887H53.9973Z"
        fill="#232521" stroke="#232521" stroke-width="0.5" stroke-linecap="round"
        stroke-linejoin="round" />
    <path
        d="M51.2221 6.13834L49.9257 7.92762C49.6364 6.40619 49.8185 5.06691 50.5578 4.03834L51.8543 2.25977C51.115 3.27762 50.9221 4.61691 51.2221 6.13834Z"
        fill="#DEFEC4" stroke="#232521" stroke-width="0.5" stroke-linecap="round"
        stroke-linejoin="round" />
    <path
        d="M53.0748 10.5636L51.7783 12.3422C51.3498 11.6351 50.9748 10.9386 50.6748 10.2636C50.3105 9.44936 50.0533 8.6565 49.9141 7.9065L51.2105 6.12793C51.4783 7.48864 52.1105 8.99936 53.0748 10.5529V10.5636Z"
        fill="#DEFEC4" stroke="#232521" stroke-width="0.5" stroke-linecap="round"
        stroke-linejoin="round" />
    <path
        d="M79.84 22.8109L78.5542 24.5895C77.9971 25.3609 77.1721 25.8752 76.1328 26.1645C75.5221 26.3359 74.8364 26.4323 74.0864 26.4431C70.2828 26.4966 64.9364 24.4823 59.8685 20.7645C57.5328 19.0502 55.5185 17.1752 53.9221 15.2895C53.0864 14.3038 52.3578 13.3181 51.7578 12.3538L53.0435 10.5752C54.7792 13.3931 57.5864 16.3823 61.1542 18.9859C65.3328 22.0502 69.6828 23.9573 73.2185 24.5038C76.2292 24.9752 78.64 24.4502 79.8292 22.8109H79.84Z"
        fill="#DEFEC4" stroke="#232521" stroke-width="0.5" stroke-linecap="round"
        stroke-linejoin="round" />
    <path d="M51.9294 8.55957L50.6758 10.2739" stroke="#232521" stroke-width="0.5"
        stroke-linecap="round" stroke-linejoin="round" />
    <path d="M51.7363 12.4061L51.7792 12.3525" stroke="#232521" stroke-width="0.5"
        stroke-linecap="round" stroke-linejoin="round" />
    <path d="M55.1646 13.5742L53.8789 15.3421" stroke="#232521" stroke-width="0.5"
        stroke-linecap="round" stroke-linejoin="round" />
    <path d="M57.3913 15.9961L56.1699 17.6782" stroke="#232521" stroke-width="0.5"
        stroke-linecap="round" stroke-linejoin="round" />
    <path d="M60.5545 18.6748L59.3438 20.3462" stroke="#232521" stroke-width="0.5"
        stroke-linecap="round" stroke-linejoin="round" />
    <path d="M64.9891 21.6416L63.8105 23.2702" stroke="#232521" stroke-width="0.5"
        stroke-linecap="round" stroke-linejoin="round" />
    <path d="M70.0368 23.7842L68.7832 25.5092" stroke="#232521" stroke-width="0.5"
        stroke-linecap="round" stroke-linejoin="round" />
    <path d="M73.2282 24.4814L71.9746 26.2064" stroke="#232521" stroke-width="0.5"
        stroke-linecap="round" stroke-linejoin="round" />
    <path d="M75.3394 24.6963L74.0645 26.4534" stroke="#232521" stroke-width="0.5"
        stroke-linecap="round" stroke-linejoin="round" />
    <path d="M77.323 24.5039L76.1016 26.186" stroke="#232521" stroke-width="0.5"
        stroke-linecap="round" stroke-linejoin="round" />
    <path opacity="0.12"
        d="M80.6005 21.1277C81.1255 16.2313 76.3041 11.0134 73.6255 8.79559C73.347 8.20631 70.0363 5.83845 68.6434 4.92773C68.4077 6.73845 67.6684 10.7456 68.3112 13.0385C68.7291 14.517 70.6255 19.5634 75.0613 21.5349C78.6077 23.1099 80.2255 21.9206 80.5898 21.1277H80.6005Z"
        fill="#AEE67F" />
    <path
        d="M87.148 70.2204C87.148 70.2204 77.0123 65.1526 67.3908 65.4204C57.7694 65.6883 51.2016 69.0847 48.3516 70.9597C48.3516 70.9597 53.9766 76.4347 67.3908 76.4133C80.8051 76.3918 87.8337 70.7883 87.148 70.2204Z"
        fill="#DFFFC4" />
    <path d="M70.5073 57.8346C70.5073 57.8346 70.2608 57.5132 69.918 56.9453" stroke="#16110D"
        stroke-width="0.5" stroke-linecap="round" stroke-linejoin="round" />
    <path
        d="M68.976 55.0061C67.8403 52.1239 67.1331 47.3882 71.2795 42.5025C72.5224 41.0346 73.4224 39.6846 74.0653 38.4632C74.8153 37.0275 75.2117 35.7739 75.3938 34.6918C75.5545 33.7061 75.5331 32.8811 75.4367 32.2061"
        stroke="#16110D" stroke-width="0.5" stroke-linecap="round" stroke-linejoin="round"
        stroke-dasharray="1 1" />
    <path d="M75.1902 31.1674C74.9759 30.5353 74.7402 30.2031 74.7402 30.2031" stroke="#16110D"
        stroke-width="0.5" stroke-linecap="round" stroke-linejoin="round" />
    <path
        d="M78.2314 135.385L79.8386 134.517C79.8814 134.121 79.9457 133.714 80.0207 133.317C80.1921 132.396 80.4386 131.442 80.7707 130.489C81.0921 129.546 81.4993 128.592 81.96 127.65C82.4207 126.717 82.9564 125.785 83.535 124.885C84.1136 123.985 84.7671 123.107 85.4528 122.271C86.1386 121.435 86.8778 120.632 87.6493 119.892C88.4314 119.142 89.2457 118.446 90.0707 117.825C90.435 117.557 90.81 117.289 91.1743 117.042V115.435C84.36 119.828 78.9278 128.185 78.2314 135.385ZM105.499 123.6C105.456 123.996 105.392 124.403 105.317 124.8C105.146 125.721 104.899 126.675 104.567 127.628C104.246 128.571 103.839 129.525 103.378 130.467C102.917 131.4 102.381 132.332 101.803 133.232C101.224 134.132 100.571 135.01 99.885 135.846C99.1993 136.682 98.46 137.485 97.6886 138.225C96.9064 138.975 96.0921 139.671 95.2671 140.292C94.9028 140.56 94.5278 140.828 94.1636 141.075V142.682C100.978 138.289 106.41 129.921 107.106 122.732L105.499 123.6ZM87.6386 143.678C86.8671 143.775 86.1386 143.764 85.4421 143.678C84.7564 143.592 84.1136 143.4 83.5243 143.132C82.935 142.864 82.41 142.51 81.9493 142.071C81.4778 141.632 81.0814 141.117 80.76 140.517C80.4278 139.917 80.1814 139.242 80.01 138.503C79.935 138.182 79.8707 137.839 79.8278 137.485L78.2207 138.353C78.9171 144.792 84.3386 147.278 91.1636 144.278V142.671C90.7886 142.832 90.4243 142.971 90.06 143.1C89.235 143.378 88.4207 143.571 87.6386 143.657V143.678ZM94.1636 113.807V115.414C94.5386 115.253 94.9028 115.114 95.2671 114.985C96.0921 114.707 96.9064 114.514 97.6886 114.428C98.46 114.332 99.1886 114.342 99.885 114.428C100.571 114.514 101.214 114.707 101.803 114.975C102.392 115.242 102.917 115.596 103.378 116.035C103.849 116.475 104.246 116.989 104.567 117.589C104.899 118.189 105.146 118.864 105.317 119.603C105.392 119.925 105.456 120.267 105.499 120.621L107.106 119.753C106.41 113.314 100.989 110.828 94.1636 113.828V113.807Z"
        fill="black" />
    <path d="M85.1445 125.604L87.8981 124.114V126.868L85.1445 128.357V125.604Z" fill="black" />
    <path d="M96.4805 119.464L100.198 117.45V121.168L96.4805 123.182V119.464Z" fill="black" />
    <path d="M100.196 127.617V132.503L95.3105 135.149V130.264L100.196 127.617Z" fill="black" />
    <path d="M85.1445 139.049L86.7517 138.182V139.778L85.1445 140.646V139.049Z" fill="black" />
    <path
        d="M92.6767 129.16L85.2517 140.603L85.1445 140.656V140.549L92.5695 129.106L92.6767 129.16Z"
        fill="url(#paint0_linear_8080_316601)" />
    <path
        d="M100.197 117.45V117.557L96.5758 123.129L92.7722 129L92.6758 128.947L96.4794 123.086L100.09 117.514L100.197 117.45Z"
        fill="url(#paint1_linear_8080_316601)" />
    <path
        d="M92.6767 128.946L92.5695 129.107L85.1445 125.711V125.603L85.2517 125.55L92.6767 128.946Z"
        fill="url(#paint2_linear_8080_316601)" />
    <path
        d="M100.197 132.395V132.503L100.09 132.556L92.6758 129.16L92.7722 128.999L100.197 132.395Z"
        fill="url(#paint3_linear_8080_316601)" />
    <path
        d="M5.01071 114.364C5.01071 113.657 5.48214 112.939 6.41429 112.403L9.17857 110.807C11.0536 109.725 14.0964 109.725 15.9714 110.807L41.0536 125.292C41.9964 125.839 42.4571 126.546 42.4571 127.253V160.382C42.4571 161.089 41.9857 161.807 41.0536 162.353L38.2893 163.95C36.4143 165.032 33.3714 165.032 31.4964 163.95L6.40357 149.464C5.46071 148.917 5 148.21 5 147.503H5.01071V114.364Z"
        fill="#DEFEC4" stroke="#16110D" stroke-width="0.62" stroke-miterlimit="10" />
    <path opacity="0.3"
        d="M5.01071 114.364C5.01071 113.657 5.48214 112.939 6.41429 112.403L9.17857 110.807C11.0536 109.725 14.0964 109.725 15.9714 110.807L41.0536 125.292C41.9964 125.839 42.4571 126.546 42.4571 127.253V160.382C42.4571 161.089 41.9857 161.807 41.0536 162.353L38.2893 163.95C36.4143 165.032 33.3714 165.032 31.4964 163.95L6.40357 149.464C5.46071 148.917 5 148.21 5 147.503H5.01071V114.364Z"
        fill="#AEE67F" stroke="#16110D" stroke-width="0.62" stroke-miterlimit="10" />
    <path
        d="M38.3008 130.81L41.0651 129.214C42.9401 128.132 42.9401 126.375 41.0651 125.292L15.9829 110.807C14.1079 109.725 11.0651 109.725 9.19007 110.807L6.42578 112.403C4.55078 113.485 4.55078 115.242 6.42578 116.325L31.5186 130.81C33.3936 131.892 36.4365 131.892 38.3115 130.81H38.3008Z"
        fill="#DEFEC4" stroke="#16110D" stroke-width="0.62" stroke-miterlimit="10" />
    <path
        d="M34.9043 131.625V164.765C36.1364 164.765 37.3686 164.497 38.3007 163.961L41.0757 162.365C42.0186 161.818 42.49 161.111 42.4793 160.393V127.265C42.4793 127.983 42.0186 128.69 41.0757 129.225L38.3007 130.822C37.3686 131.368 36.1364 131.625 34.9043 131.625Z"
        fill="#AEE67F" stroke="#16110D" stroke-width="0.62" stroke-miterlimit="10" />
    <path
        d="M16.6468 148.018L22.6361 151.479L21.704 140.647C22.4218 140.272 22.8718 139.34 22.8718 138C22.8718 135.611 21.4254 132.847 19.6361 131.808C17.8468 130.779 16.4004 131.872 16.4004 134.261C16.4004 135.6 16.8611 137.058 17.5682 138.268L16.6361 148.029L16.6468 148.018Z"
        fill="#16110D" stroke="#16110D" stroke-width="0.62" stroke-miterlimit="10" />
    <path d="M16.6445 148.017L22.066 144.889L22.6338 151.478L16.6445 148.017Z" fill="black"
        stroke="#16110D" stroke-width="0.62" stroke-miterlimit="10" />
    <path
        d="M19.6361 131.796C20.804 132.471 21.8325 133.896 22.4004 135.46L17.5682 138.246C16.8504 137.035 16.4004 135.578 16.4004 134.239C16.4004 131.849 17.8468 130.757 19.6361 131.785V131.796Z"
        fill="black" stroke="#16110D" stroke-width="0.62" stroke-miterlimit="10" />
    <path
        d="M11.793 115.103V101.85C11.793 97.7463 13.3465 94.4998 16.0465 92.9355C18.6287 91.4463 21.8215 91.6498 25.0358 93.5034C30.9394 96.9105 35.568 105.236 35.568 112.446V125.764C35.568 126.161 35.3001 126.568 34.7751 126.868C33.7144 127.478 32.0001 127.478 30.9394 126.868C30.4144 126.557 30.1465 126.161 30.1465 125.764V112.446C30.1465 107.175 26.568 100.65 22.3251 98.1963C20.8787 97.3605 19.5823 97.157 18.7573 97.6284C17.793 98.1855 17.2144 99.7605 17.2144 101.85V115.103C17.2144 115.5 16.9465 115.896 16.4215 116.196C15.3608 116.807 13.6465 116.807 12.5858 116.196C12.0608 115.896 11.793 115.5 11.793 115.103Z"
        fill="black" stroke="#16110D" stroke-width="0.62" stroke-miterlimit="10" />
    <path
        d="M74.0218 31.4033C70.3682 31.4033 67.4004 34.3712 67.4004 38.0247C67.4004 41.6783 70.3682 44.6462 74.0218 44.6462C77.6754 44.6462 80.6432 41.6783 80.6432 38.0247C80.6432 34.3712 77.6754 31.4033 74.0218 31.4033ZM74.0218 43.5212C70.9897 43.5212 68.5254 41.0569 68.5254 38.0247C68.5254 36.7069 68.9861 35.4962 69.7575 34.5533L77.4932 42.289C76.5504 43.0605 75.3397 43.5212 74.0218 43.5212ZM78.2861 41.4962L70.5504 33.7605C71.4932 32.989 72.704 32.5283 74.0218 32.5283C77.054 32.5283 79.5182 34.9926 79.5182 38.0247C79.5182 39.3426 79.0575 40.5533 78.2861 41.4962Z"
        fill="black" />
    <path
        d="M67.3883 76.4133C80.3 76.4133 90.7669 70.7241 90.7669 63.7062C90.7669 56.6882 80.3 50.999 67.3883 50.999C54.4767 50.999 44.0098 56.6882 44.0098 63.7062C44.0098 70.7241 54.4767 76.4133 67.3883 76.4133Z"
        stroke="#16110D" stroke-width="0.5" stroke-miterlimit="10" />
    <path
        d="M47.9434 70.992C47.9434 70.992 47.9755 70.9706 47.9862 70.9598C48.0505 70.9063 48.1255 70.8634 48.1898 70.8313C48.2648 70.7777 48.3291 70.7241 48.4041 70.6813C48.4791 70.6277 48.5434 70.5848 48.6184 70.5527C51.7898 68.4848 55.0041 67.1241 58.1541 66.267C58.6898 66.117 59.2255 65.9884 59.7612 65.8706C60.5541 65.6991 61.3362 65.5491 62.1076 65.442C74.1398 63.6634 84.5862 68.5706 87.3076 69.9956C87.3934 70.0384 87.4684 70.0813 87.5434 70.1134C87.6291 70.167 87.6934 70.1991 87.7576 70.242L87.2648 70.6813C87.1898 70.6384 87.1148 70.5955 87.0291 70.5527C86.9648 70.5205 86.8898 70.4777 86.8041 70.4348C82.7862 68.367 65.3969 60.567 49.1326 70.9491C49.0684 70.992 48.9934 71.0348 48.9291 71.0884C48.8541 71.1313 48.7898 71.1741 48.7148 71.2277H48.7041C48.6184 71.2813 48.5434 71.3348 48.4576 71.3991L47.9434 70.992Z"
        fill="#16110D" />
    <defs>
        <linearGradient id="paint0_linear_8080_316601" x1="92.6767" y1="134.881" x2="85.1445"
            y2="134.881" gradientUnits="userSpaceOnUse">
            <stop stop-opacity="0" />
            <stop offset="1" />
        </linearGradient>
        <linearGradient id="paint1_linear_8080_316601" x1="92.6758" y1="123.225" x2="100.197"
            y2="123.225" gradientUnits="userSpaceOnUse">
            <stop offset="0.02" stop-opacity="0" />
            <stop offset="1" />
        </linearGradient>
        <linearGradient id="paint2_linear_8080_316601" x1="4.68026" y1="127.328" x2="5.75169"
            y2="127.328" gradientUnits="userSpaceOnUse">
            <stop stop-opacity="0" />
            <stop offset="1" />
        </linearGradient>
        <linearGradient id="paint3_linear_8080_316601" x1="92.6758" y1="130.778" x2="100.197"
            y2="130.778" gradientUnits="userSpaceOnUse">
            <stop stop-opacity="0" />
            <stop offset="0.98" />
        </linearGradient>
    </defs>
</svg>