<svg xmlns="http://www.w3.org/2000/svg" width="20" height="20" viewBox="0 0 20 20" fill="none">
  <path fill-rule="evenodd" clip-rule="evenodd" d="M16.1579 9.52632C16.1579 13.1888 13.1888 16.1579 9.52632 16.1579C5.8638 16.1579 2.89474 13.1888 2.89474 9.52632C2.89474 5.8638 5.8638 2.89474 9.52632 2.89474C13.1888 2.89474 16.1579 5.8638 16.1579 9.52632ZM16.1881 14.8483C17.3549 13.3897 18.0526 11.5395 18.0526 9.52632C18.0526 4.81736 14.2353 1 9.52632 1C4.81736 1 1 4.81736 1 9.52632C1 14.2353 4.81736 18.0526 9.52632 18.0526C11.5395 18.0526 13.3897 17.3549 14.8483 16.1881L17.3827 18.7225C17.7527 19.0925 18.3526 19.0925 18.7225 18.7225C19.0925 18.3526 19.0925 17.7527 18.7225 17.3827L16.1881 14.8483Z" fill="#EFEFEF"/>
</svg>