<svg width="14" height="14" viewBox="0 0 14 14" fill="none" xmlns="http://www.w3.org/2000/svg">
<path d="M1.33661 5.16777C1.59526 4.36913 2.02015 3.63434 2.58331 3.01178C2.62986 2.96033 2.69064 2.92389 2.75795 2.90706C2.82525 2.89024 2.89603 2.89379 2.96131 2.91728L4.30391 3.39748C4.39949 3.43161 4.50135 3.44454 4.60243 3.43539C4.7035 3.42624 4.80138 3.39522 4.88928 3.34448C4.97718 3.29374 5.05299 3.2245 5.11146 3.14154C5.16993 3.05859 5.20967 2.96391 5.22791 2.86408L5.48341 1.45988C5.49579 1.39152 5.52822 1.32839 5.57659 1.27853C5.62495 1.22867 5.68707 1.19432 5.75501 1.17988C6.57531 1.00515 7.42321 1.00515 8.24351 1.17988C8.31146 1.19432 8.37357 1.22867 8.42194 1.27853C8.4703 1.32839 8.50274 1.39152 8.51511 1.45988L8.77131 2.86408C8.78956 2.96391 8.82929 3.05859 8.88776 3.14154C8.94624 3.2245 9.02205 3.29374 9.10994 3.34448C9.19784 3.39522 9.29572 3.42624 9.3968 3.43539C9.49787 3.44454 9.59973 3.43161 9.69531 3.39748L11.0386 2.91728C11.1039 2.89403 11.1745 2.89066 11.2417 2.90761C11.3089 2.92456 11.3695 2.96105 11.4159 3.01248C11.9787 3.6349 12.4034 4.36944 12.6619 5.16777C12.6833 5.23372 12.6845 5.30451 12.6656 5.37118C12.6466 5.43786 12.6083 5.4974 12.5555 5.54227L11.467 6.46627C11.3897 6.53199 11.3276 6.61373 11.285 6.70583C11.2424 6.79793 11.2203 6.8982 11.2203 6.99967C11.2203 7.10115 11.2424 7.20142 11.285 7.29352C11.3276 7.38562 11.3897 7.46736 11.467 7.53307L12.5555 8.45707C12.6083 8.50195 12.6466 8.56149 12.6656 8.62817C12.6845 8.69484 12.6833 8.76563 12.6619 8.83157C12.4035 9.63016 11.9788 10.3649 11.4159 10.9876C11.3694 11.039 11.3086 11.0755 11.2413 11.0923C11.174 11.1091 11.1032 11.1056 11.0379 11.0821L9.69531 10.6019C9.59973 10.5677 9.49787 10.5548 9.3968 10.564C9.29572 10.5731 9.19784 10.6041 9.10994 10.6549C9.02205 10.7056 8.94624 10.7749 8.88776 10.8578C8.82929 10.9408 8.78956 11.0354 8.77131 11.1353L8.51441 12.5402C8.50196 12.6083 8.46957 12.6712 8.42135 12.7209C8.37313 12.7707 8.31124 12.8049 8.24351 12.8195C7.42322 12.9942 6.57531 12.9942 5.75501 12.8195C5.68707 12.805 5.62495 12.7707 5.57659 12.7208C5.52822 12.671 5.49579 12.6078 5.48341 12.5395L5.22791 11.1353C5.20967 11.0354 5.16993 10.9408 5.11146 10.8578C5.05299 10.7749 4.97718 10.7056 4.88928 10.6549C4.80138 10.6041 4.7035 10.5731 4.60243 10.564C4.50135 10.5548 4.39949 10.5677 4.30391 10.6019L2.96061 11.0821C2.89536 11.1053 2.82468 11.1087 2.75751 11.0917C2.69035 11.0748 2.62972 11.0383 2.58331 10.9869C2.02047 10.3645 1.59582 9.62992 1.33731 8.83157C1.31597 8.76563 1.31469 8.69484 1.33364 8.62817C1.35258 8.56149 1.39089 8.50195 1.44371 8.45707L2.53221 7.53307C2.60954 7.46736 2.67165 7.38562 2.71425 7.29352C2.75685 7.20142 2.77891 7.10115 2.77891 6.99967C2.77891 6.8982 2.75685 6.79793 2.71425 6.70583C2.67165 6.61373 2.60954 6.53199 2.53221 6.46627L1.44371 5.54227C1.39089 5.4974 1.35258 5.43786 1.33364 5.37118C1.31469 5.30451 1.31597 5.23372 1.33731 5.16777H1.33661ZM5.59961 6.99967C5.59961 7.37098 5.74711 7.72707 6.00966 7.98962C6.27221 8.25217 6.62831 8.39967 6.99961 8.39967C7.37092 8.39967 7.72701 8.25217 7.98956 7.98962C8.25211 7.72707 8.39961 7.37098 8.39961 6.99967C8.39961 6.62837 8.25211 6.27228 7.98956 6.00973C7.72701 5.74717 7.37092 5.59967 6.99961 5.59967C6.62831 5.59967 6.27221 5.74717 6.00966 6.00973C5.74711 6.27228 5.59961 6.62837 5.59961 6.99967Z" fill="#BDC3D3"/>
</svg>
