<svg width="12" height="12" viewBox="0 0 12 12" fill="none" xmlns="http://www.w3.org/2000/svg">
<path d="M0.336613 4.16777C0.595261 3.36913 1.02015 2.63434 1.58331 2.01178C1.62986 1.96033 1.69064 1.92389 1.75795 1.90706C1.82525 1.89024 1.89603 1.89379 1.96131 1.91728L3.30391 2.39748C3.39949 2.43161 3.50135 2.44454 3.60243 2.43539C3.7035 2.42624 3.80138 2.39522 3.88928 2.34448C3.97718 2.29374 4.05299 2.2245 4.11146 2.14154C4.16993 2.05859 4.20967 1.96391 4.22791 1.86408L4.48341 0.459875C4.49579 0.391519 4.52822 0.328392 4.57659 0.278529C4.62495 0.228667 4.68707 0.194325 4.75501 0.179875C5.57531 0.00514576 6.42321 0.00514576 7.24351 0.179875C7.31146 0.194325 7.37357 0.228667 7.42194 0.278529C7.4703 0.328392 7.50274 0.391519 7.51511 0.459875L7.77131 1.86408C7.78956 1.96391 7.82929 2.05859 7.88776 2.14154C7.94624 2.2245 8.02205 2.29374 8.10994 2.34448C8.19784 2.39522 8.29572 2.42624 8.3968 2.43539C8.49787 2.44454 8.59973 2.43161 8.69531 2.39748L10.0386 1.91728C10.1039 1.89403 10.1745 1.89066 10.2417 1.90761C10.3089 1.92456 10.3695 1.96105 10.4159 2.01248C10.9787 2.6349 11.4034 3.36944 11.6619 4.16777C11.6833 4.23372 11.6845 4.30451 11.6656 4.37118C11.6466 4.43786 11.6083 4.4974 11.5555 4.54227L10.467 5.46627C10.3897 5.53199 10.3276 5.61373 10.285 5.70583C10.2424 5.79793 10.2203 5.8982 10.2203 5.99967C10.2203 6.10115 10.2424 6.20142 10.285 6.29352C10.3276 6.38562 10.3897 6.46736 10.467 6.53307L11.5555 7.45707C11.6083 7.50195 11.6466 7.56149 11.6656 7.62817C11.6845 7.69484 11.6833 7.76563 11.6619 7.83157C11.4035 8.63016 10.9788 9.36495 10.4159 9.98757C10.3694 10.039 10.3086 10.0755 10.2413 10.0923C10.174 10.1091 10.1032 10.1056 10.0379 10.0821L8.69531 9.60187C8.59973 9.56774 8.49787 9.55481 8.3968 9.56396C8.29572 9.57311 8.19784 9.60413 8.10994 9.65487C8.02205 9.70561 7.94624 9.77485 7.88776 9.85781C7.82929 9.94076 7.78956 10.0354 7.77131 10.1353L7.51441 11.5402C7.50196 11.6083 7.46957 11.6712 7.42135 11.7209C7.37313 11.7707 7.31124 11.8049 7.24351 11.8195C6.42322 11.9942 5.57531 11.9942 4.75501 11.8195C4.68707 11.805 4.62495 11.7707 4.57659 11.7208C4.52822 11.671 4.49579 11.6078 4.48341 11.5395L4.22791 10.1353C4.20967 10.0354 4.16993 9.94076 4.11146 9.85781C4.05299 9.77485 3.97718 9.70561 3.88928 9.65487C3.80138 9.60413 3.7035 9.57311 3.60243 9.56396C3.50135 9.55481 3.39949 9.56774 3.30391 9.60187L1.96061 10.0821C1.89536 10.1053 1.82468 10.1087 1.75751 10.0917C1.69035 10.0748 1.62972 10.0383 1.58331 9.98687C1.02047 9.36447 0.595823 8.62992 0.337313 7.83157C0.315974 7.76563 0.314695 7.69484 0.333637 7.62817C0.352579 7.56149 0.39089 7.50195 0.443713 7.45707L1.53221 6.53307C1.60954 6.46736 1.67165 6.38562 1.71425 6.29352C1.75685 6.20142 1.77891 6.10115 1.77891 5.99967C1.77891 5.8982 1.75685 5.79793 1.71425 5.70583C1.67165 5.61373 1.60954 5.53199 1.53221 5.46627L0.443713 4.54227C0.39089 4.4974 0.352579 4.43786 0.333637 4.37118C0.314695 4.30451 0.315974 4.23372 0.337313 4.16777H0.336613ZM4.59961 5.99967C4.59961 6.37098 4.74711 6.72707 5.00966 6.98962C5.27221 7.25217 5.62831 7.39967 5.99961 7.39967C6.37092 7.39967 6.72701 7.25217 6.98956 6.98962C7.25211 6.72707 7.39961 6.37098 7.39961 5.99967C7.39961 5.62837 7.25211 5.27228 6.98956 5.00973C6.72701 4.74717 6.37092 4.59967 5.99961 4.59967C5.62831 4.59967 5.27221 4.74717 5.00966 5.00973C4.74711 5.27228 4.59961 5.62837 4.59961 5.99967Z" fill="#BDC3D3"/>
</svg>
