<svg width="30" height="31" viewBox="0 0 30 31" fill="none" xmlns="http://www.w3.org/2000/svg">
<path d="M7.35 25.25L2.25 20.05L4.035 18.165L6.075 20.245L6.075 10.95C6.075 9.52 6.57438 8.29583 7.57313 7.2775C8.57188 6.25917 9.7725 5.75 11.175 5.75C12.5775 5.75 13.7781 6.25917 14.7769 7.2775C15.7756 8.29583 16.275 9.52 16.275 10.95V20.05C16.275 20.765 16.5249 21.3773 17.0247 21.8869C17.5237 22.3956 18.1238 22.65 18.825 22.65C19.5263 22.65 20.1268 22.3956 20.6266 21.8869C21.1255 21.3773 21.375 20.765 21.375 20.05L21.375 10.755L19.335 12.835L17.55 10.95L22.65 5.75L27.75 10.95L25.965 12.835L23.925 10.755L23.925 20.05C23.925 21.48 23.4256 22.7042 22.4269 23.7225C21.4281 24.7408 20.2275 25.25 18.825 25.25C17.4225 25.25 16.2219 24.7408 15.2231 23.7225C14.2244 22.7042 13.725 21.48 13.725 20.05L13.725 10.95C13.725 10.235 13.4755 9.62313 12.9766 9.1144C12.4768 8.6048 11.8763 8.35 11.175 8.35C10.4738 8.35 9.87365 8.6048 9.3747 9.1144C8.8749 9.62313 8.625 10.235 8.625 10.95L8.625 20.245L10.665 18.165L12.45 20.05L7.35 25.25Z" fill="#A871DF"/>
</svg>
