<svg width="38" height="33" viewBox="0 0 38 33" fill="none" xmlns="http://www.w3.org/2000/svg">
<g clip-path="url(#clip0_4438_280299)">
<path d="M30.0497 18.6286C28.0463 26.6644 19.9074 31.5549 11.8706 29.551C3.8372 27.5475 -1.05327 19.4082 0.951109 11.3728C2.95361 3.33613 11.0925 -1.55481 19.1269 0.448629C27.1631 2.45207 32.0531 10.5924 30.0497 18.6286Z" fill="#F7931A"/>
<path d="M22.1137 12.863C22.4123 10.867 20.8926 9.79406 18.8147 9.07828L19.4887 6.37453L17.8429 5.96438L17.1867 8.59688C16.754 8.48906 16.3097 8.38734 15.8681 8.28656L16.529 5.63672L14.8842 5.22656L14.2097 7.92938C13.8515 7.84781 13.5 7.76719 13.1587 7.68234L13.1606 7.67391L10.8909 7.10719L10.4531 8.865C10.4531 8.865 11.6742 9.14484 11.6484 9.16219C12.315 9.32859 12.4354 9.76969 12.4153 10.1194L11.6475 13.1995C11.6934 13.2113 11.7529 13.2281 11.8186 13.2544C11.7637 13.2408 11.7051 13.2258 11.6447 13.2113L10.5684 17.5261C10.4868 17.7286 10.2801 18.0323 9.81418 17.917C9.83059 17.9409 8.61793 17.6184 8.61793 17.6184L7.8009 19.5023L9.94262 20.0363C10.3411 20.1361 10.7315 20.2406 11.1159 20.3391L10.4348 23.0738L12.0787 23.4839L12.7532 20.7783C13.2023 20.9002 13.6382 21.0127 14.0648 21.1186L13.3926 23.8116L15.0384 24.2217L15.7195 21.4922C18.5259 22.0233 20.6362 21.8091 21.5245 19.2708C22.2403 17.227 21.4889 16.0481 20.0123 15.2794C21.0876 15.0314 21.8976 14.3241 22.1137 12.863ZM18.3534 18.1359C17.8448 20.1797 14.4037 19.0748 13.2881 18.7978L14.1918 15.1748C15.3075 15.4533 18.885 16.0045 18.3534 18.1359ZM18.8625 12.8334C18.3984 14.6925 15.5343 13.748 14.6053 13.5164L15.4247 10.2305C16.3537 10.462 19.3457 10.8942 18.8625 12.8334Z" fill="white"/>
</g>
<path d="M20.0999 24C20.0999 19.1399 24.0398 15.2 28.8999 15.2C33.76 15.2 37.6999 19.1399 37.6999 24C37.6999 28.8601 33.76 32.8 28.8999 32.8C24.0398 32.8 20.0999 28.8601 20.0999 24Z" fill="white"/>
<path d="M20.0999 24C20.0999 19.1399 24.0398 15.2 28.8999 15.2C33.76 15.2 37.6999 19.1399 37.6999 24C37.6999 28.8601 33.76 32.8 28.8999 32.8C24.0398 32.8 20.0999 28.8601 20.0999 24Z" stroke="#DFE0DE" stroke-width="0.4"/>
<g clip-path="url(#clip1_4438_280299)">
<g clip-path="url(#clip2_4438_280299)">
<path d="M27.6967 22.9788L28.1403 24.289H27.1396L27.609 22.9788H27.6967ZM30.0902 24.9906H29.3577V25.2485H31.1631V24.9906H30.441V22.9272H31.1631V22.6693H29.3577V22.9272H30.0902V24.9906ZM26.7939 25.2485L27.0415 24.5573H28.2331L28.4653 25.2485H28.847L27.9185 22.6693H27.3923L26.4483 25.2485H26.7939ZM32.6023 27.7039H25.1948V20.2964H32.6023V27.7039Z" fill="black"/>
<path d="M29.6199 31C32.9264 30.6595 35.5573 28.0287 35.8977 24.7222H35.0259C34.7164 27.5903 32.5447 29.8754 29.6199 30.2004V31Z" fill="black"/>
<path d="M21.8999 24.7222C22.2404 28.0287 24.8712 30.6595 28.1777 31V30.2004C25.2529 29.8754 23.0863 27.5851 22.7717 24.7222H21.8999Z" fill="black"/>
<path d="M35.8977 23.2778C35.5573 19.9713 32.9264 17.3405 29.6199 17V17.7996C32.5447 18.1245 34.7113 20.4149 35.0259 23.2778H35.8977Z" fill="black"/>
<path d="M28.1777 17C24.8712 17.3405 22.2404 19.9713 21.8999 23.2778H22.7717C23.0812 20.4097 25.2529 18.1245 28.1777 17.7996V17Z" fill="black"/>
</g>
</g>
<defs>
<clipPath id="clip0_4438_280299">
<rect x="0.5" width="30" height="30" fill="white"/>
</clipPath>
<clipPath id="clip1_4438_280299">
<rect width="14" height="14" fill="white" transform="translate(21.8999 17)"/>
</clipPath>
<clipPath id="clip2_4438_280299">
<rect width="14" height="14" fill="white" transform="translate(21.8999 17)"/>
</clipPath>
</defs>
</svg>
