<svg width="22" height="22" viewBox="0 0 22 22" fill="none" xmlns="http://www.w3.org/2000/svg">
<path d="M14.6704 6.5C14.6704 6.39687 14.586 6.3125 14.4829 6.3125H13.2055C13.1352 6.3125 13.0696 6.35234 13.0391 6.41562L11.054 10.3719H10.9766L8.99147 6.41562C8.97592 6.38477 8.95215 6.35882 8.92279 6.34062C8.89343 6.32242 8.8596 6.31269 8.82506 6.3125H7.51959C7.48912 6.3125 7.45865 6.31953 7.43053 6.33594C7.33912 6.38516 7.30631 6.5 7.35553 6.58906L9.79068 11.0797H8.45475C8.35162 11.0797 8.26725 11.1641 8.26725 11.2672V11.9023C8.26725 12.0055 8.35162 12.0898 8.45475 12.0898H10.236V13.0039H8.45475C8.35162 13.0039 8.26725 13.0883 8.26725 13.1914V13.8266C8.26725 13.9297 8.35162 14.0141 8.45475 14.0141H10.236V15.5C10.236 15.6031 10.3204 15.6875 10.4235 15.6875H11.593C11.6962 15.6875 11.7805 15.6031 11.7805 15.5V14.0117H13.5688C13.6719 14.0117 13.7563 13.9273 13.7563 13.8242V13.1891C13.7563 13.0859 13.6719 13.0016 13.5688 13.0016H11.7805V12.0875H13.5688C13.6719 12.0875 13.7563 12.0031 13.7563 11.9V11.2648C13.7563 11.1617 13.6719 11.0773 13.5688 11.0773H12.2188L14.6493 6.58672C14.661 6.56094 14.6704 6.53047 14.6704 6.5ZM2.70084 10.8172C2.74487 8.68111 3.61423 6.64505 5.12662 5.13594C5.88834 4.37422 6.77428 3.77422 7.761 3.35703C8.78287 2.92578 9.86803 2.70547 10.986 2.70547C12.1063 2.70547 13.1915 2.92344 14.211 3.35703C15.1977 3.77422 16.0837 4.37422 16.8454 5.13594C17.0797 5.37031 17.2977 5.61641 17.4993 5.87188L16.3274 6.78828C16.2995 6.80988 16.2782 6.83891 16.2661 6.87205C16.2539 6.90519 16.2514 6.94108 16.2587 6.97561C16.2661 7.01013 16.283 7.04188 16.3076 7.0672C16.3322 7.09252 16.3634 7.11039 16.3977 7.11875L20.0727 8.01641C20.1899 8.04453 20.3047 7.95547 20.3047 7.83594L20.3235 4.05078C20.3235 3.89375 20.143 3.80469 20.0212 3.90312L18.9008 4.77969C17.0633 2.42891 14.2016 0.921875 10.9883 0.921875C5.49225 0.921875 1.02271 5.33047 0.921934 10.8078C0.921308 10.8328 0.925696 10.8577 0.934838 10.881C0.94398 10.9043 0.957692 10.9255 0.975166 10.9434C0.992639 10.9613 1.01352 10.9756 1.03658 10.9853C1.05964 10.995 1.08441 11 1.10943 11H2.51568C2.61647 11 2.6985 10.918 2.70084 10.8172ZM20.8907 11H19.4844C19.3837 11 19.2993 11.082 19.2969 11.1828C19.2529 13.3189 18.3835 15.355 16.8712 16.8641C16.1164 17.6219 15.2218 18.2261 14.2368 18.643C13.2149 19.0742 12.1297 19.2945 11.0118 19.2945C9.89381 19.2945 8.80631 19.0766 7.78678 18.643C6.8018 18.2261 5.90713 17.6219 5.1524 16.8641C4.91803 16.6297 4.70006 16.3836 4.4985 16.1281L5.66803 15.2117C5.69594 15.1901 5.7172 15.1611 5.72935 15.1279C5.74149 15.0948 5.74404 15.0589 5.7367 15.0244C5.72935 14.9899 5.71241 14.9581 5.68783 14.9328C5.66324 14.9075 5.63201 14.8896 5.59772 14.8812L1.92271 13.9836C1.80553 13.9555 1.69068 14.0445 1.69068 14.1641L1.67193 17.9539C1.67193 18.1109 1.8524 18.2 1.97428 18.1016L3.09459 17.225C4.93678 19.5711 7.7985 21.0781 11.0118 21.0781C16.5079 21.0781 20.9774 16.6695 21.0782 11.1922C21.0788 11.1672 21.0744 11.1423 21.0653 11.119C21.0561 11.0957 21.0424 11.0745 21.025 11.0566C21.0075 11.0387 20.9866 11.0244 20.9635 11.0147C20.9405 11.005 20.9157 11 20.8907 11Z" fill="#fff"/>
</svg>
