<svg width="33" height="33" viewBox="0 0 33 33" fill="none" xmlns="http://www.w3.org/2000/svg">
<g clip-path="url(#clip0_13789_290903)">
<path d="M1.75 17.1056C1.30556 17.3622 1.30556 18.0037 1.75 18.2603L6.41667 20.9546C6.86111 21.2112 7.41667 20.8905 7.41667 20.3773L7.41667 14.9887C7.41667 14.4755 6.86111 14.1547 6.41667 14.4113L1.75 17.1056Z" fill="#979995"/>
<path d="M11.418 12.5L11.418 24.5" stroke="#494949" stroke-width="2.66667" stroke-linecap="round"/>
<path d="M16.75 8.5V24.5" stroke="#494949" stroke-width="2.66667" stroke-linecap="round"/>
<path d="M22.082 12.5L22.082 24.5" stroke="#494949" stroke-width="2.66667" stroke-linecap="round"/>
<path d="M31.75 17.1056C32.1944 17.3622 32.1944 18.0037 31.75 18.2603L27.0833 20.9546C26.6389 21.2112 26.0833 20.8905 26.0833 20.3773L26.0833 14.9887C26.0833 14.4755 26.6389 14.1547 27.0833 14.4113L31.75 17.1056Z" fill="#979995"/>
</g>
<defs>
<clipPath id="clip0_13789_290903">
<rect width="32" height="32" fill="white" transform="translate(0.75 0.5)"/>
</clipPath>
</defs>
</svg>
