<svg width="32" height="32" viewBox="0 0 32 32" fill="none" xmlns="http://www.w3.org/2000/svg">
<g clip-path="url(#clip0_2583_36001)">
<path fill-rule="evenodd" clip-rule="evenodd" d="M16.0005 0.03125C24.8201 0.03125 31.9699 7.18094 31.9699 16.0005C31.9699 24.8201 24.8201 31.9699 16.0005 31.9699C7.18094 31.9699 0.03125 24.8201 0.03125 16.0005C0.03125 7.18094 7.18094 0.03125 16.0005 0.03125Z" fill="#2E3148"/>
<path fill-rule="evenodd" clip-rule="evenodd" d="M15.9689 6.78711C21.0571 6.78711 25.1819 10.912 25.1819 16.0002C25.1819 21.0884 21.0571 25.2132 15.9689 25.2132C10.8807 25.2132 6.75586 21.0884 6.75586 16.0002C6.75586 10.912 10.8807 6.78711 15.9689 6.78711Z" fill="#161931"/>
<path fill-rule="evenodd" clip-rule="evenodd" d="M16.2517 2.76348C16.1248 2.64674 16.0594 2.64453 16.0484 2.64453C16.0374 2.64453 15.9719 2.64674 15.845 2.76348C15.7148 2.88332 15.5592 3.09009 15.3915 3.40912C15.0567 4.04591 14.7363 5.00841 14.4601 6.25034C13.9101 8.72415 13.5645 12.1719 13.5645 16.0013C13.5645 19.8307 13.9101 23.2785 14.4601 25.7522C14.7363 26.9942 15.0567 27.9567 15.3915 28.5935C15.5592 28.9125 15.7148 29.1193 15.845 29.2391C15.9719 29.3559 16.0374 29.3581 16.0484 29.3581C16.0594 29.3581 16.1248 29.3559 16.2517 29.2391C16.3819 29.1193 16.5376 28.9125 16.7053 28.5935C17.04 27.9567 17.3605 26.9942 17.6366 25.7522C18.1867 23.2785 18.5323 19.8307 18.5323 16.0013C18.5323 12.1719 18.1867 8.72415 17.6366 6.25034C17.3605 5.00841 17.04 4.04591 16.7053 3.40912C16.5376 3.09009 16.3819 2.88332 16.2517 2.76348ZM19.1573 16.0013C19.1573 8.27937 17.7654 2.01953 16.0484 2.01953C14.3314 2.01953 12.9395 8.27937 12.9395 16.0013C12.9395 23.7232 14.3314 29.9831 16.0484 29.9831C17.7654 29.9831 19.1573 23.7232 19.1573 16.0013Z" fill="#6F7390"/>
<path fill-rule="evenodd" clip-rule="evenodd" d="M27.6222 9.55726C27.6599 9.38916 27.629 9.33166 27.6237 9.32244C27.6183 9.31313 27.5838 9.25757 27.4191 9.2061C27.25 9.15329 26.9929 9.12194 26.6325 9.13629C25.9132 9.16494 24.9189 9.36891 23.7045 9.75088C21.2857 10.5117 18.1251 11.9365 14.8066 13.8512C11.4882 15.7659 8.67325 17.7889 6.80456 19.5019C5.86637 20.3619 5.19249 21.1205 4.80802 21.7286C4.61543 22.0333 4.51412 22.2714 4.4754 22.4439C4.43768 22.612 4.46849 22.6695 4.47387 22.6787C4.47921 22.688 4.51377 22.7436 4.67849 22.7951C4.84752 22.8479 5.10462 22.8792 5.46502 22.8649C6.18434 22.8362 7.17871 22.6323 8.39306 22.2503C10.8119 21.4895 13.9725 20.0647 17.2909 18.15C20.6093 16.2353 23.4243 14.2123 25.293 12.4993C26.2312 11.6393 26.9051 10.8807 27.2895 10.2726C27.4821 9.96788 27.5834 9.72979 27.6222 9.55726ZM3.93268 22.9914C4.79121 24.4775 10.9117 22.5523 17.6033 18.6913C24.2948 14.8304 29.0234 10.4958 28.1649 9.00979C27.3064 7.52373 21.1858 9.44891 14.4943 13.3098C7.80274 17.1707 3.07417 21.5053 3.93268 22.9914Z" fill="#6F7390"/>
<path fill-rule="evenodd" clip-rule="evenodd" d="M28.1649 22.9914C29.0234 21.5053 24.2948 17.1707 17.6033 13.3098C10.9117 9.44891 4.79121 7.52373 3.93268 9.00979C3.07417 10.4958 7.80274 14.8304 14.4943 18.6913C21.1858 22.5523 27.3064 24.4775 28.1649 22.9914ZM4.47387 9.32244C4.47924 9.3131 4.51384 9.25754 4.67849 9.2061C4.84752 9.15329 5.10462 9.12194 5.46502 9.13629C6.18434 9.16494 7.17871 9.36891 8.39306 9.75088C10.8119 10.5117 13.9725 11.9365 17.2909 13.8512C20.6093 15.7659 23.4243 17.7889 25.293 19.5019C26.2312 20.3619 26.9051 21.1205 27.2895 21.7286C27.4821 22.0333 27.5834 22.2714 27.6222 22.4439C27.6599 22.612 27.629 22.6695 27.6237 22.6787C27.6183 22.688 27.5838 22.7436 27.4191 22.7951C27.25 22.8479 26.9929 22.8792 26.6325 22.8649C25.9132 22.8362 24.9189 22.6323 23.7045 22.2503C21.2857 21.4895 18.1251 20.0647 14.8067 18.15C11.4882 16.2353 8.67325 14.2123 6.80456 12.4993C5.86637 11.6393 5.19249 10.8807 4.80802 10.2726C4.61543 9.96788 4.51412 9.72979 4.4754 9.55726C4.43768 9.38922 4.46849 9.33169 4.47387 9.32244Z" fill="#6F7390"/>
<path fill-rule="evenodd" clip-rule="evenodd" d="M7.11212 12.0859C7.65512 12.0859 8.09534 12.5263 8.09534 13.0696C8.09534 13.6129 7.65512 14.0533 7.11212 14.0533C6.56912 14.0533 6.12891 13.6129 6.12891 13.0696C6.12891 12.5263 6.56912 12.0859 7.11212 12.0859Z" fill="#B7B9C8"/>
<path fill-rule="evenodd" clip-rule="evenodd" d="M22.7376 8.7168C23.2808 8.7168 23.7213 9.1572 23.7213 9.70048C23.7213 10.2438 23.2808 10.6842 22.7376 10.6842C22.1943 10.6842 21.7539 10.2438 21.7539 9.70048C21.7539 9.1572 22.1943 8.7168 22.7376 8.7168Z" fill="#B7B9C8"/>
<path fill-rule="evenodd" clip-rule="evenodd" d="M14.0677 24.1562C14.611 24.1562 15.0514 24.5964 15.0514 25.1395C15.0514 25.6825 14.611 26.1227 14.0677 26.1227C13.5244 26.1227 13.084 25.6825 13.084 25.1395C13.084 24.5964 13.5244 24.1562 14.0677 24.1562Z" fill="#B7B9C8"/>
<path fill-rule="evenodd" clip-rule="evenodd" d="M15.9936 14.3281C16.9133 14.3281 17.659 15.0738 17.659 15.9936C17.659 16.9133 16.9133 17.659 15.9936 17.659C15.0738 17.659 14.3281 16.9133 14.3281 15.9936C14.3281 15.0738 15.0738 14.3281 15.9936 14.3281Z" fill="#B7B9C8"/>
</g>
<defs>
<clipPath id="clip0_2583_36001">
<rect width="32" height="32" fill="white"/>
</clipPath>
</defs>
</svg>
