<svg width="32" height="32" viewBox="0 0 32 32" fill="none" xmlns="http://www.w3.org/2000/svg">
<circle cx="15.9997" cy="15.9997" r="15.9997" fill="#2E3148"/>
<path d="M6.98613 13.3768L4.36328 15.9992L6.98613 18.6221L9.60897 15.9992L6.98613 13.3768ZM15.9996 9.62742L20.5062 14.134L23.129 11.5111L15.9992 4.36328L8.86984 11.4927L11.4927 14.1155L15.9996 9.62742ZM25.0132 13.3768L22.3903 15.9996L25.0132 18.6225L27.636 15.9996L25.0132 13.3768ZM15.9992 22.3899L11.4927 17.8834L8.86984 20.5062L15.9992 27.6356L23.1286 20.5062L20.5058 17.8834L15.9992 22.3899ZM15.9992 18.6201L18.6221 15.9972L15.9992 13.3744L13.3764 15.9972L15.9992 18.6201Z" fill="#F0B90B"/>
</svg>
