<svg width="32" height="32" viewBox="0 0 32 32" fill="none" xmlns="http://www.w3.org/2000/svg">
<g clip-path="url(#clip0_2519_40627)">
<g clip-path="url(#clip1_2519_40627)">
<path d="M13.2537 13.6663L14.2677 16.6612H11.9803L13.0532 13.6663H13.2537ZM18.7245 18.2647H17.0503V18.8542H21.177V18.2647H19.5263V13.5484H21.177V12.9589H17.0503V13.5484H18.7245V18.2647ZM11.1903 18.8542L11.7562 17.2743H14.4799L15.0105 18.8542H15.883L13.7607 12.9589H12.558L10.4003 18.8542H11.1903ZM24.4666 24.4666H7.53516V7.53516H24.4666V24.4666Z" fill="white"/>
<path d="M17.6504 31.9997C25.2083 31.2215 31.2216 25.2082 31.9998 17.6504H30.0071C29.2997 24.206 24.3358 29.4293 17.6504 30.1721V31.9997Z" fill="white"/>
<path d="M0 17.6504C0.778187 25.2082 6.79145 31.2215 14.3493 31.9997V30.1721C7.66396 29.4293 2.71186 24.1942 1.99263 17.6504H0Z" fill="white"/>
<path d="M31.9998 14.3493C31.2216 6.79145 25.2083 0.778187 17.6504 0V1.82756C24.3358 2.57038 29.2879 7.80545 30.0071 14.3493H31.9998Z" fill="white"/>
<path d="M14.3493 0C6.79145 0.778188 0.778187 6.79145 0 14.3493H1.99263C2.70007 7.79367 7.66397 2.57038 14.3493 1.82756V0Z" fill="white"/>
</g>
</g>
<defs>
<clipPath id="clip0_2519_40627">
<rect width="32" height="32" fill="white"/>
</clipPath>
<clipPath id="clip1_2519_40627">
<rect width="32" height="32" fill="white"/>
</clipPath>
</defs>
</svg>
