<svg width="32" height="32" viewBox="0 0 32 32" fill="none" xmlns="http://www.w3.org/2000/svg">
<g clip-path="url(#clip0_2519_40647)">
<path d="M32.2797 5.47597C31.9255 4.13516 30.7871 2.79435 28.7379 1.30176C27.0936 0.11274 25.348 -0.570312 23.9566 -0.570312C23.6783 -0.570312 23.4253 -0.545014 23.1723 -0.494418C22.5399 -0.367927 21.9833 0.0874417 21.6291 0.770494C21.1991 1.58004 21.0979 2.66786 21.3762 3.32562C21.4774 3.528 21.6038 3.78098 21.7556 4.00867C20.4148 4.81821 19.6559 5.0459 19.5547 5.07119C23.0458 6.23491 25.9551 8.66354 27.7766 11.8258L27.8019 11.5222C27.8778 10.6874 28.1308 9.72607 28.485 8.73944C28.8391 8.84063 29.1933 8.89123 29.5475 8.89123C30.4835 8.89123 31.2931 8.51175 31.799 7.8287C32.305 7.14565 32.5074 6.23491 32.2797 5.47597Z" fill="#5E12A0"/>
<path d="M28.6381 8.00554C30.9402 8.63799 31.8763 6.86712 31.5727 5.6781C31.2438 4.48908 30.1813 3.27477 28.3092 1.90866C26.4372 0.542559 24.5398 -0.0140021 23.3255 0.23898C22.1112 0.491963 21.757 2.33873 22.0606 3.04708C22.1871 3.32537 22.4653 3.73014 22.8448 4.18551C22.3641 4.51438 21.9088 4.76736 21.5293 4.99505C23.8567 6.03228 25.8806 7.65136 27.3985 9.67522C27.5756 8.99217 27.8286 8.38501 28.0562 7.85375C28.2333 7.87905 28.4357 7.92964 28.6381 8.00554Z" fill="url(#paint0_radial_2519_40647)"/>
<path d="M15.4581 32.7991C23.2684 32.7991 29.5998 26.4677 29.5998 18.6573C29.5998 10.847 23.2684 4.51562 15.4581 4.51562C7.6478 4.51562 1.31641 10.847 1.31641 18.6573C1.31641 26.4677 7.6478 32.7991 15.4581 32.7991Z" fill="url(#paint1_radial_2519_40647)"/>
<path d="M30.4094 4.51558C28.4867 2.49173 26.8676 1.96046 24.9196 1.53039C23.4017 1.17622 23.8065 0.316078 25.6533 0.493165C24.7679 0.189587 23.933 0.113692 23.3259 0.240183C22.1115 0.493165 21.7574 2.33994 22.0609 3.04829C22.1874 3.32657 22.4657 3.73134 22.8452 4.18671C22.1621 4.64208 21.5803 4.97095 21.0996 5.22394C21.3273 5.32513 21.6056 5.45162 21.9344 5.62871C22.7946 6.08408 23.7306 6.84302 23.7306 6.84302C22.3139 5.62871 22.6175 5.07215 24.5655 3.70604C25.1726 3.27597 26.2857 3.32657 27.323 3.85783C28.3602 4.38909 29.5745 5.7299 29.5745 5.7299L28.4108 7.95615C28.4867 7.98144 28.5626 8.00674 28.6385 8.03204C29.3721 8.23443 29.954 8.18383 30.4094 8.00674C30.9406 7.67786 32.332 6.56474 30.4094 4.51558Z" fill="#A98698" fill-opacity="0.6"/>
<path d="M24.8929 2.74449C25.3988 2.94688 26.0566 3.30106 26.8661 3.83232C27.8275 4.46477 28.6623 5.17312 29.1936 5.72969C28.3081 6.8934 27.7263 8.48719 27.3721 9.60032C27.5492 9.8533 27.7516 10.1063 27.9287 10.3593C28.1057 9.72681 28.4093 8.79077 28.8141 7.85474C28.9153 7.88004 29.0418 7.88004 29.1683 7.88004C29.4718 7.88004 29.826 7.82944 30.1043 7.60176C30.3067 7.44997 30.5344 7.17169 30.5091 6.66572C30.5091 6.18505 30.1296 5.5779 29.3454 4.84425C28.7888 4.31298 28.0298 3.73113 27.2709 3.19986C25.0953 1.75786 23.5774 1.35309 22.8943 2.03614C22.4389 2.49151 22.4895 3.04807 22.6413 3.45284C21.8318 3.98411 21.1487 4.36358 20.6934 4.61656C20.9969 4.71776 21.2752 4.84425 21.5788 4.97074C22.3883 4.54067 23.5521 3.80702 24.8929 2.74449ZM29.6742 6.36214C29.7501 6.48863 29.7754 6.61512 29.7754 6.69102C29.7754 6.9187 29.6995 6.9946 29.6489 7.04519C29.5477 7.12109 29.3454 7.17169 29.1683 7.17169C29.3201 6.86811 29.4971 6.61512 29.6742 6.36214ZM23.4256 2.5927C23.5015 2.51681 23.7038 2.46621 24.0327 2.51681C23.7797 2.7192 23.5268 2.89628 23.2738 3.07337C23.2485 2.89628 23.2738 2.7192 23.4256 2.5927Z" fill="#5E12A0"/>
<path d="M15.457 3.67969C7.1845 3.67969 0.480469 10.3837 0.480469 18.6562C0.480469 26.9288 7.1845 33.6328 15.457 33.6328C23.7295 33.6328 30.4336 26.9288 30.4336 18.6562C30.4336 10.3837 23.7042 3.67969 15.457 3.67969ZM15.457 32.798C7.63987 32.798 1.31531 26.4734 1.31531 18.6562C1.31531 10.8391 7.63987 4.51453 15.457 4.51453C23.2742 4.51453 29.5987 10.8391 29.5987 18.6562C29.5987 26.4734 23.2489 32.798 15.457 32.798Z" fill="#5E12A0"/>
<path d="M15.4581 32.7991C23.2684 32.7991 29.5998 26.4677 29.5998 18.6573C29.5998 10.847 23.2684 4.51562 15.4581 4.51562C7.6478 4.51562 1.31641 10.847 1.31641 18.6573C1.31641 26.4677 7.6478 32.7991 15.4581 32.7991Z" fill="url(#paint2_linear_2519_40647)"/>
<path d="M15.3556 31.078C7.63966 29.8384 2.40293 22.5778 3.66784 14.8618C4.2244 11.4466 5.94468 8.53725 8.37331 6.4375C4.83156 8.48666 2.20054 12.0537 1.49219 16.405C0.252579 24.121 5.48931 31.3816 13.18 32.6212C17.4807 33.3295 21.6296 31.9887 24.6907 29.3577C21.9838 30.9262 18.695 31.6092 15.3556 31.078Z" fill="#A98698" fill-opacity="0.6"/>
<path d="M17.7097 4.71762C14.1426 4.13576 10.6768 4.94531 7.84335 6.74148C7.79276 6.79208 7.74216 6.84267 7.74216 6.84267C8.82998 6.18492 10.4238 5.60306 10.4238 5.60306C6.32546 7.98109 5.06055 10.688 5.06055 10.688C6.65434 7.60162 11.3345 5.42597 15.0028 5.27418C18.671 5.12239 21.0743 6.21022 24.0089 8.56295C26.9435 10.941 28.7144 15.7982 28.5373 19.6436C28.3855 23.4889 26.3617 26.6006 26.3617 26.6006C27.7531 24.8044 28.5879 23.4889 29.1192 22.1481C29.2204 21.7433 29.3216 21.3386 29.3722 20.9085C30.6371 13.2178 25.4256 5.95724 17.7097 4.71762Z" fill="url(#paint3_linear_2519_40647)"/>
<path d="M28.8901 18.5312C28.8901 25.9436 22.8691 31.9646 15.4567 31.9646C8.04432 31.9646 1.99805 25.9436 1.99805 18.5312H28.8901Z" fill="url(#paint4_linear_2519_40647)"/>
<path d="M27.8279 18.5312C27.8279 25.7665 22.1105 31.6863 14.9258 31.9646H15.457C22.8694 31.9646 28.8904 25.9436 28.8904 18.5312H27.8279Z" fill="url(#paint5_linear_2519_40647)"/>
<path d="M3.89541 18.5312H1.99805C1.99805 25.9436 8.01903 31.9646 15.4314 31.9646C15.7603 31.9646 16.0639 31.9646 16.3674 31.9393C9.41043 31.4333 3.89541 25.6148 3.89541 18.5312Z" fill="url(#paint6_linear_2519_40647)"/>
<path d="M28.8648 18.657C28.8648 17.1138 26.1832 16.2283 22.6161 15.9248C20.0357 15.7224 17.43 15.9754 14.4448 16.8861C11.8644 17.645 9.53692 17.5186 7.84194 17.3162C4.0725 16.8861 1.99805 16.8355 1.99805 18.657C1.99805 21.288 7.36127 24.5768 15.4061 23.4383C19.4791 22.8565 21.5789 21.6675 23.9822 20.8579C26.5879 19.9978 28.8648 20.0231 28.8648 18.657Z" fill="url(#paint7_linear_2519_40647)"/>
<path d="M19.8589 12.2822C21.1164 12.2822 22.1357 11.2629 22.1357 10.0054C22.1357 8.74778 21.1164 7.72852 19.8589 7.72852C18.6013 7.72852 17.582 8.74778 17.582 10.0054C17.582 11.2629 18.6013 12.2822 19.8589 12.2822Z" fill="white"/>
<path d="M23.5785 13.9774C24.1095 13.9774 24.5399 13.547 24.5399 13.016C24.5399 12.485 24.1095 12.0547 23.5785 12.0547C23.0475 12.0547 22.6172 12.485 22.6172 13.016C22.6172 13.547 23.0475 13.9774 23.5785 13.9774Z" fill="white"/>
<path d="M27.0185 8.18225H26.9679C26.8161 8.15695 26.7149 8.00516 26.7402 7.82808C26.9679 6.66436 27.9292 5.55124 27.9798 5.50064C28.081 5.37415 28.2834 5.37415 28.3846 5.47534C28.5111 5.57653 28.5111 5.77892 28.4099 5.88011C28.3846 5.90541 27.4992 6.94264 27.2968 7.95457C27.2715 8.10636 27.145 8.18225 27.0185 8.18225Z" fill="url(#paint8_linear_2519_40647)"/>
<path d="M23.9574 -0.56993C25.3741 -0.56993 27.1197 0.113122 28.7388 1.30214C30.788 2.79474 31.9264 4.11024 32.2805 5.47635C32.4829 6.26059 32.3058 7.14603 31.7999 7.80379C31.2686 8.48684 30.4844 8.86631 29.5483 8.86631C29.2195 8.86631 28.8653 8.81572 28.4858 8.71452C28.2581 9.29638 28.081 9.87824 27.9545 10.4348C29.4977 12.7875 30.4085 15.6209 30.4085 18.6567C30.4085 26.9293 23.7044 33.6333 15.4319 33.6333C7.1594 33.6333 0.480666 26.9293 0.480666 18.6567C0.480666 10.3842 7.1847 3.68017 15.4572 3.68017C17.2787 3.68017 19.0243 4.00905 20.6434 4.61621C20.9469 4.46442 21.3264 4.26203 21.7565 4.00905C21.6047 3.78137 21.4529 3.55368 21.377 3.326C21.0987 2.64295 21.1999 1.58042 21.63 0.770876C21.9842 0.113122 22.5154 -0.342246 23.1732 -0.494035C23.4009 -0.544632 23.6791 -0.56993 23.9574 -0.56993ZM23.9574 -1C23.6538 -1 23.3503 -0.974702 23.072 -0.898807C22.313 -0.721719 21.6553 -0.215755 21.2252 0.593789C20.7446 1.52982 20.6181 2.74414 20.9469 3.52838C20.9975 3.62958 21.0481 3.75607 21.124 3.88256C20.9469 3.98375 20.7699 4.08495 20.5928 4.16084C18.9231 3.57898 17.2028 3.2754 15.4319 3.2754C13.3575 3.2754 11.3336 3.68017 9.43624 4.48972C7.58947 5.27396 5.94509 6.38708 4.52838 7.80379C3.11168 9.22049 1.99856 10.8649 1.21432 12.7116C0.404772 14.609 0 16.6329 0 18.7073C0 20.7818 0.404772 22.8056 1.21432 24.703C1.99856 26.5498 3.11168 28.1942 4.52838 29.6109C5.94509 31.0276 7.58947 32.1407 9.43624 32.9249C11.3336 33.7345 13.3575 34.1392 15.4319 34.1392C17.5064 34.1392 19.5302 33.7345 21.4276 32.9249C23.2744 32.1407 24.9188 31.0276 26.3355 29.6109C27.7522 28.1942 28.8653 26.5498 29.6495 24.703C30.4591 22.8056 30.8638 20.7818 30.8638 18.7073C30.8638 15.7474 30.029 12.8887 28.4352 10.4095C28.5111 10.03 28.6376 9.65056 28.7641 9.27108C29.0171 9.32168 29.2954 9.34698 29.5483 9.34698C30.6109 9.34698 31.5469 8.91691 32.1541 8.10736C32.7359 7.34842 32.9636 6.28589 32.7106 5.40045C32.3058 3.93316 31.1421 2.54175 28.9918 0.998561C27.2968 -0.291649 25.45 -1 23.9574 -1Z" fill="white"/>
<path d="M14.5209 29.2058C14.912 29.2058 15.2292 28.8885 15.2292 28.4974C15.2292 28.1063 14.912 27.7891 14.5209 27.7891C14.1297 27.7891 13.8125 28.1063 13.8125 28.4974C13.8125 28.8885 14.1297 29.2058 14.5209 29.2058Z" fill="white" fill-opacity="0.2"/>
<path d="M14.1165 28.9529C13.8383 28.6746 13.8383 28.2192 14.1165 27.9409C14.1671 27.8903 14.2177 27.865 14.2683 27.8145C14.1671 27.8398 14.0912 27.8903 14.0154 27.9662C13.7371 28.2445 13.7371 28.6999 14.0154 28.9782C14.243 29.2059 14.5972 29.2565 14.8755 29.1047C14.6225 29.2059 14.3189 29.1553 14.1165 28.9529Z" fill="url(#paint9_linear_2519_40647)"/>
<path d="M14.7748 28.2958C14.8586 28.2958 14.9266 28.2277 14.9266 28.144C14.9266 28.0602 14.8586 27.9922 14.7748 27.9922C14.6911 27.9922 14.623 28.0602 14.623 28.144C14.623 28.2277 14.6911 28.2958 14.7748 28.2958Z" fill="white" fill-opacity="0.3"/>
<path d="M18.2142 28.8522C18.6053 28.8522 18.9226 28.535 18.9226 28.1439C18.9226 27.7528 18.6053 27.4355 18.2142 27.4355C17.8231 27.4355 17.5059 27.7528 17.5059 28.1439C17.5059 28.535 17.8231 28.8522 18.2142 28.8522Z" fill="white" fill-opacity="0.2"/>
<path d="M17.8099 28.5994C17.5316 28.3211 17.5316 27.8657 17.8099 27.5874C17.8605 27.5368 17.9111 27.5115 17.9617 27.4609C17.8605 27.4862 17.7846 27.5368 17.7087 27.6127C17.4304 27.891 17.4304 28.3464 17.7087 28.6247C17.9364 28.8523 18.2906 28.9029 18.5689 28.7511C18.3159 28.8523 18.0123 28.8017 17.8099 28.5994Z" fill="url(#paint10_linear_2519_40647)"/>
<path d="M18.4682 27.9403C18.5519 27.9403 18.62 27.8722 18.62 27.7885C18.62 27.7048 18.5519 27.6367 18.4682 27.6367C18.3845 27.6367 18.3164 27.7048 18.3164 27.7885C18.3164 27.8722 18.3845 27.9403 18.4682 27.9403Z" fill="white" fill-opacity="0.3"/>
<path d="M16.3926 30.4961C16.6861 30.4961 16.9239 30.2583 16.9239 29.9649C16.9239 29.6714 16.6861 29.4336 16.3926 29.4336C16.0991 29.4336 15.8613 29.6714 15.8613 29.9649C15.8613 30.2583 16.0991 30.4961 16.3926 30.4961Z" fill="white" fill-opacity="0.2"/>
<path d="M16.089 30.2938C15.8866 30.0914 15.8866 29.7373 16.089 29.5349C16.1143 29.5096 16.1649 29.4843 16.1902 29.459C16.1143 29.4843 16.0637 29.5349 16.0131 29.5855C15.8107 29.7879 15.8107 30.142 16.0131 30.3444C16.1902 30.5215 16.4432 30.5468 16.6709 30.4203C16.4685 30.4962 16.2408 30.4456 16.089 30.2938Z" fill="url(#paint11_linear_2519_40647)"/>
<path d="M16.5699 29.7883C16.6259 29.7883 16.6711 29.743 16.6711 29.6871C16.6711 29.6312 16.6259 29.5859 16.5699 29.5859C16.514 29.5859 16.4688 29.6312 16.4688 29.6871C16.4688 29.743 16.514 29.7883 16.5699 29.7883Z" fill="white" fill-opacity="0.3"/>
<path d="M19.6563 30.1172C19.9497 30.1172 20.1875 29.8794 20.1875 29.5859C20.1875 29.2925 19.9497 29.0547 19.6563 29.0547C19.3628 29.0547 19.125 29.2925 19.125 29.5859C19.125 29.8794 19.3628 30.1172 19.6563 30.1172Z" fill="white" fill-opacity="0.2"/>
<path d="M19.3527 29.9149C19.1503 29.7125 19.1503 29.3584 19.3527 29.156C19.378 29.1307 19.4286 29.1054 19.4539 29.0801C19.378 29.1054 19.3274 29.156 19.2768 29.2066C19.0744 29.409 19.0744 29.7631 19.2768 29.9655C19.4539 30.1426 19.7069 30.1679 19.9345 30.0414C19.7322 30.1173 19.5045 30.0667 19.3527 29.9149Z" fill="url(#paint12_linear_2519_40647)"/>
<path d="M19.8336 29.4094C19.8895 29.4094 19.9348 29.3641 19.9348 29.3082C19.9348 29.2523 19.8895 29.207 19.8336 29.207C19.7777 29.207 19.7324 29.2523 19.7324 29.3082C19.7324 29.3641 19.7777 29.4094 19.8336 29.4094Z" fill="white" fill-opacity="0.3"/>
<path d="M11.5114 28.9524C12.1542 28.9524 12.6751 28.4315 12.6751 27.7887C12.6751 27.1461 12.1542 26.625 11.5114 26.625C10.8688 26.625 10.3477 27.1461 10.3477 27.7887C10.3477 28.4315 10.8688 28.9524 11.5114 28.9524Z" fill="white" fill-opacity="0.2"/>
<path d="M10.8527 28.5226C10.3973 28.0673 10.3973 27.3336 10.8527 26.8783C10.9286 26.8024 11.0045 26.7518 11.1057 26.7012C10.9539 26.7518 10.8274 26.853 10.7009 26.9542C10.2455 27.4095 10.2455 28.1432 10.7009 28.5985C11.0804 28.978 11.6622 29.0539 12.1176 28.7756C11.6875 28.9527 11.1816 28.8768 10.8527 28.5226Z" fill="url(#paint13_linear_2519_40647)"/>
<path d="M11.9151 27.4357C12.0547 27.4357 12.1681 27.3223 12.1681 27.1827C12.1681 27.043 12.0547 26.9297 11.9151 26.9297C11.7754 26.9297 11.6621 27.043 11.6621 27.1827C11.6621 27.3223 11.7754 27.4357 11.9151 27.4357Z" fill="white" fill-opacity="0.3"/>
<path d="M21.9079 26.095C22.5507 26.095 23.0716 25.5741 23.0716 24.9313C23.0716 24.2887 22.5507 23.7676 21.9079 23.7676C21.2653 23.7676 20.7441 24.2887 20.7441 24.9313C20.7441 25.5741 21.2653 26.095 21.9079 26.095Z" fill="white" fill-opacity="0.2"/>
<path d="M21.2257 25.6652C20.7704 25.2099 20.7704 24.4762 21.2257 24.0208C21.3016 23.9449 21.3775 23.8943 21.4787 23.8438C21.3269 23.8943 21.2004 23.9955 21.0739 24.0967C20.6186 24.5521 20.6186 25.2858 21.0739 25.7411C21.4534 26.1206 22.0353 26.1965 22.4906 25.9182C22.0606 26.0953 21.5799 26.0194 21.2257 25.6652Z" fill="url(#paint14_linear_2519_40647)"/>
<path d="M22.3135 24.5763C22.4532 24.5763 22.5665 24.4629 22.5665 24.3233C22.5665 24.1836 22.4532 24.0703 22.3135 24.0703C22.1739 24.0703 22.0605 24.1836 22.0605 24.3233C22.0605 24.4629 22.1739 24.5763 22.3135 24.5763Z" fill="white" fill-opacity="0.3"/>
</g>
<defs>
<radialGradient id="paint0_radial_2519_40647" cx="0" cy="0" r="1" gradientUnits="userSpaceOnUse" gradientTransform="translate(31.1113 4.08429) scale(11.3069 11.3069)">
<stop stop-color="#FFEAFF" stop-opacity="0.6"/>
<stop offset="0.68" stop-color="#A087C9"/>
<stop offset="1" stop-color="#10002F"/>
</radialGradient>
<radialGradient id="paint1_radial_2519_40647" cx="0" cy="0" r="1" gradientUnits="userSpaceOnUse" gradientTransform="translate(24.8211 8.90775) scale(27.6639)">
<stop stop-color="#FFEAFF" stop-opacity="0.6"/>
<stop offset="0.68" stop-color="#A087C9"/>
<stop offset="1" stop-color="#10002F"/>
</radialGradient>
<linearGradient id="paint2_linear_2519_40647" x1="13.1897" y1="32.5984" x2="17.7129" y2="4.69271" gradientUnits="userSpaceOnUse">
<stop stop-color="#81FFFF" stop-opacity="0.6"/>
<stop offset="0.62" stop-color="white" stop-opacity="0"/>
<stop offset="1" stop-color="white" stop-opacity="0"/>
</linearGradient>
<linearGradient id="paint3_linear_2519_40647" x1="25.4244" y1="9.05288" x2="13.7305" y2="19.7823" gradientUnits="userSpaceOnUse">
<stop stop-color="white" stop-opacity="0.6"/>
<stop offset="0.29" stop-color="white" stop-opacity="0.6"/>
<stop offset="0.78" stop-color="white" stop-opacity="0"/>
<stop offset="1" stop-color="white" stop-opacity="0"/>
</linearGradient>
<linearGradient id="paint4_linear_2519_40647" x1="2.00944" y1="25.2401" x2="28.8835" y2="25.2401" gradientUnits="userSpaceOnUse">
<stop stop-color="#0002E9"/>
<stop offset="1" stop-color="#FF00C7"/>
</linearGradient>
<linearGradient id="paint5_linear_2519_40647" x1="30.1561" y1="19.71" x2="15.5286" y2="33.5339" gradientUnits="userSpaceOnUse">
<stop stop-color="white" stop-opacity="0.6"/>
<stop offset="0.29" stop-color="white" stop-opacity="0.6"/>
<stop offset="0.78" stop-color="white" stop-opacity="0"/>
<stop offset="1" stop-color="white" stop-opacity="0"/>
</linearGradient>
<linearGradient id="paint6_linear_2519_40647" x1="2.00944" y1="25.2401" x2="16.387" y2="25.2401" gradientUnits="userSpaceOnUse">
<stop stop-color="#000292" stop-opacity="0.7"/>
<stop offset="1" stop-color="#7D00C7" stop-opacity="0.7"/>
</linearGradient>
<linearGradient id="paint7_linear_2519_40647" x1="2.02747" y1="19.773" x2="28.8656" y2="19.773" gradientUnits="userSpaceOnUse">
<stop stop-color="#000292"/>
<stop offset="1" stop-color="#BE00C7"/>
</linearGradient>
<linearGradient id="paint8_linear_2519_40647" x1="28.4256" y1="5.37744" x2="26.4968" y2="8.51189" gradientUnits="userSpaceOnUse">
<stop stop-color="white" stop-opacity="0.6"/>
<stop offset="0.29" stop-color="white" stop-opacity="0.6"/>
<stop offset="0.78" stop-color="white" stop-opacity="0"/>
<stop offset="1" stop-color="white" stop-opacity="0"/>
</linearGradient>
<linearGradient id="paint9_linear_2519_40647" x1="13.8059" y1="28.5193" x2="14.8763" y2="28.5193" gradientUnits="userSpaceOnUse">
<stop stop-color="white" stop-opacity="0.6"/>
<stop offset="0.29" stop-color="white" stop-opacity="0.6"/>
<stop offset="0.78" stop-color="white" stop-opacity="0"/>
<stop offset="1" stop-color="white" stop-opacity="0"/>
</linearGradient>
<linearGradient id="paint10_linear_2519_40647" x1="17.4967" y1="28.1609" x2="18.5671" y2="28.1609" gradientUnits="userSpaceOnUse">
<stop stop-color="white" stop-opacity="0.6"/>
<stop offset="0.29" stop-color="white" stop-opacity="0.6"/>
<stop offset="0.78" stop-color="white" stop-opacity="0"/>
<stop offset="1" stop-color="white" stop-opacity="0"/>
</linearGradient>
<linearGradient id="paint11_linear_2519_40647" x1="15.858" y1="29.971" x2="16.6616" y2="29.971" gradientUnits="userSpaceOnUse">
<stop stop-color="white" stop-opacity="0.6"/>
<stop offset="0.29" stop-color="white" stop-opacity="0.6"/>
<stop offset="0.78" stop-color="white" stop-opacity="0"/>
<stop offset="1" stop-color="white" stop-opacity="0"/>
</linearGradient>
<linearGradient id="paint12_linear_2519_40647" x1="19.1108" y1="29.5911" x2="19.9143" y2="29.5911" gradientUnits="userSpaceOnUse">
<stop stop-color="white" stop-opacity="0.6"/>
<stop offset="0.29" stop-color="white" stop-opacity="0.6"/>
<stop offset="0.78" stop-color="white" stop-opacity="0"/>
<stop offset="1" stop-color="white" stop-opacity="0"/>
</linearGradient>
<linearGradient id="paint13_linear_2519_40647" x1="10.3478" y1="27.8186" x2="12.0957" y2="27.8186" gradientUnits="userSpaceOnUse">
<stop stop-color="white" stop-opacity="0.6"/>
<stop offset="0.29" stop-color="white" stop-opacity="0.6"/>
<stop offset="0.78" stop-color="white" stop-opacity="0"/>
<stop offset="1" stop-color="white" stop-opacity="0"/>
</linearGradient>
<linearGradient id="paint14_linear_2519_40647" x1="20.7305" y1="24.9604" x2="22.4785" y2="24.9604" gradientUnits="userSpaceOnUse">
<stop stop-color="white" stop-opacity="0.6"/>
<stop offset="0.29" stop-color="white" stop-opacity="0.6"/>
<stop offset="0.78" stop-color="white" stop-opacity="0"/>
<stop offset="1" stop-color="white" stop-opacity="0"/>
</linearGradient>
<clipPath id="clip0_2519_40647">
<rect width="32" height="32" rx="16" fill="white"/>
</clipPath>
</defs>
</svg>
