<svg width="21" height="20" viewBox="0 0 21 20" fill="none" xmlns="http://www.w3.org/2000/svg">
<g id="Add">
<path id="Vector" d="M18.5 10C18.5 10.2767 18.3901 10.5422 18.1944 10.7379C17.9987 10.9335 17.7333 11.0435 17.4565 11.0435H11.5435V16.9565C11.5435 17.2333 11.4335 17.4987 11.2379 17.6944C11.0422 17.8901 10.7767 18 10.5 18C10.2233 18 9.95784 17.8901 9.76215 17.6944C9.56646 17.4987 9.45652 17.2333 9.45652 16.9565V11.0435H3.54348C3.26673 11.0435 3.00132 10.9335 2.80563 10.7379C2.60994 10.5422 2.5 10.2767 2.5 10C2.5 9.72325 2.60994 9.45784 2.80563 9.26215C3.00132 9.06646 3.26673 8.95652 3.54348 8.95652H9.45652V3.04348C9.45652 2.76673 9.56646 2.50132 9.76215 2.30563C9.95784 2.10994 10.2233 2 10.5 2C10.7767 2 11.0422 2.10994 11.2379 2.30563C11.4335 2.50132 11.5435 2.76673 11.5435 3.04348V8.95652H17.4565C17.7333 8.95652 17.9987 9.06646 18.1944 9.26215C18.3901 9.45784 18.5 9.72325 18.5 10Z" fill="#232521"/>
</g>
</svg>
