<svg width="20" height="20" viewBox="0 0 20 20" fill="none" xmlns="http://www.w3.org/2000/svg">
<path d="M18 10C18 10.2767 17.8901 10.5422 17.6944 10.7379C17.4987 10.9335 17.2333 11.0435 16.9565 11.0435H11.0435V16.9565C11.0435 17.2333 10.9335 17.4987 10.7379 17.6944C10.5422 17.8901 10.2767 18 10 18C9.72325 18 9.45784 17.8901 9.26215 17.6944C9.06646 17.4987 8.95652 17.2333 8.95652 16.9565V11.0435H3.04348C2.76673 11.0435 2.50132 10.9335 2.30563 10.7379C2.10994 10.5422 2 10.2767 2 10C2 9.72325 2.10994 9.45784 2.30563 9.26215C2.50132 9.06646 2.76673 8.95652 3.04348 8.95652H8.95652V3.04348C8.95652 2.76673 9.06646 2.50132 9.26215 2.30563C9.45784 2.10994 9.72325 2 10 2C10.2767 2 10.5422 2.10994 10.7379 2.30563C10.9335 2.50132 11.0435 2.76673 11.0435 3.04348V8.95652H16.9565C17.2333 8.95652 17.4987 9.06646 17.6944 9.26215C17.8901 9.45784 18 9.72325 18 10Z" fill="#979995"/>
</svg>
