<svg xmlns="http://www.w3.org/2000/svg" width="24" height="24" viewBox="0 0 24 24" fill="none">
  <g clip-path="url(#clip0_13310_15427)">
    <path fill-rule="evenodd" clip-rule="evenodd"
      d="M15.8093 2.06521C15.9011 2.15692 15.9751 2.25594 16.0341 2.35953L21.6992 10.1828C22.4474 11.216 22.507 12.5959 21.8507 13.6898C21.0632 15.0022 19.9647 16.1007 18.6523 16.8882C17.5584 17.5445 16.1785 17.4849 15.1453 16.7367L7.32203 11.0716C7.21844 11.0126 7.11942 10.9386 7.02771 10.8468C6.61789 10.437 6.56153 9.88136 6.61574 9.42398C6.67121 8.9559 6.85455 8.44738 7.10801 7.94047C7.61862 6.91924 8.49419 5.74605 9.60137 4.63887C10.7086 3.53168 11.8817 2.65612 12.903 2.1455C13.4099 1.89204 13.9184 1.70871 14.3865 1.65323C14.8439 1.59903 15.3995 1.65539 15.8093 2.06521ZM20.4843 11.0625L15.8651 4.68367C15.8225 4.77951 15.7771 4.87558 15.7291 4.97158C15.2184 5.99281 14.3429 7.166 13.2357 8.27318C12.1285 9.38037 10.9553 10.2559 9.93409 10.7665C9.83808 10.8146 9.74202 10.86 9.64618 10.9026L16.025 15.5218C16.5717 15.9176 17.3018 15.9492 17.8805 15.6019C18.9819 14.9411 19.9036 14.0194 20.5644 12.918C20.9117 12.3393 20.8802 11.6092 20.4843 11.0625ZM8.10531 9.60051C8.09523 9.68558 8.09693 9.74051 8.10096 9.7736C8.13404 9.77763 8.18898 9.77932 8.27404 9.76924C8.50458 9.74192 8.8387 9.63719 9.26327 9.42491C10.105 9.00404 11.1501 8.23743 12.175 7.21252C13.1999 6.18762 13.9665 5.1425 14.3874 4.30076C14.5997 3.8762 14.7044 3.54207 14.7317 3.31154C14.7418 3.22647 14.7401 3.17154 14.7361 3.13845C14.703 3.13442 14.6481 3.13273 14.563 3.14281C14.3325 3.17013 13.9984 3.27486 13.5738 3.48714C12.7321 3.90801 11.6869 4.67462 10.662 5.69953C9.63712 6.72443 8.87051 7.76955 8.44965 8.61129C8.23736 9.03585 8.13263 9.36997 8.10531 9.60051ZM6.17665 13.6378C5.59042 14.1726 4.44494 16.1662 4.52817 17.525C4.63816 19.3208 6.06372 19.8342 6.89705 19.7831C7.73039 19.7321 9.08262 19.0485 8.97262 17.2528C8.88939 15.894 7.48487 14.0565 6.83776 13.5973C6.73735 13.5268 6.61898 13.4927 6.5 13.5C6.38102 13.5073 6.2677 13.5556 6.17665 13.6378Z"
      fill="#979995" />
  </g>
  <defs>
    <clipPath id="clip0_13310_15427">
      <rect width="24" height="24" fill="white" />
    </clipPath>
  </defs>
</svg>