<svg width="36" height="36" viewBox="0 0 36 36" fill="none" xmlns="http://www.w3.org/2000/svg">
<rect y="36" width="36" height="36" rx="18" transform="rotate(-90 0 36)" fill="#47494B"/>
<path d="M19.8594 10.5319L19.8594 26.0035C19.8594 26.1014 19.9431 26.1814 20.0454 26.1814L21.44 26.1814C21.5423 26.1814 21.626 26.1014 21.626 26.0035L21.626 12.5484L25.8796 15.7565C26.0004 15.8477 26.1818 15.7654 26.1818 15.6165L26.1818 14.0046C26.1818 13.8957 26.1306 13.7934 26.04 13.7245L21.0635 9.9716C20.5753 9.60476 19.8594 9.93603 19.8594 10.5319V10.5319ZM14.3739 9.99605L14.3739 23.4512L10.1203 20.2431C9.99942 20.1519 9.81811 20.2342 9.81811 20.3831L9.81812 21.995C9.81812 22.1039 9.86925 22.2062 9.9599 22.2751L14.9364 26.028C15.4245 26.3948 16.1404 26.0636 16.1404 25.47L16.1404 9.99605C16.1404 9.89823 16.0568 9.81819 15.9545 9.81819L14.5598 9.81819C14.4576 9.81819 14.3739 9.89823 14.3739 9.99605Z" fill="white"/>
</svg>
