<svg xmlns="http://www.w3.org/2000/svg" width="39" height="49" viewBox="0 0 39 49" fill="none">
  <g clip-path="url(#clip0_1997_83380)">
    <path d="M32.3713 25.55C32.4376 32.8001 38.6322 35.2127 38.7008 35.2435C38.6484 35.4137 37.711 38.6818 35.4372 42.0575C33.4716 44.976 31.4315 47.8838 28.2178 47.944C25.0601 48.0031 24.0447 46.0417 20.4345 46.0417C16.8254 46.0417 15.6972 47.8838 12.708 48.0031C9.60604 48.1223 7.24389 44.8471 5.26194 41.9394C1.21208 35.9914 -1.88286 25.1318 2.27286 17.8013C4.33733 14.161 8.0267 11.8558 12.0312 11.7967C15.0773 11.7377 17.9524 13.8786 19.8145 13.8786C21.6755 13.8786 25.1694 11.304 28.8424 11.6821C30.3801 11.7471 34.6963 12.3131 37.4679 16.4343C37.2446 16.575 32.3177 19.4887 32.3713 25.55V25.55ZM26.4367 7.74698C28.0835 5.72186 29.192 2.9027 28.8896 0.0976562C26.5157 0.194578 23.6452 1.70463 21.9425 3.72864C20.4165 5.521 19.0801 8.38977 19.4407 11.1393C22.0867 11.3473 24.7897 9.77339 26.4367 7.74699" fill="black"/>
  </g>
  <defs>
    <clipPath id="clip0_1997_83380">
      <rect width="38.4" height="48" fill="white" transform="translate(0.300781 0.0976562)"/>
    </clipPath>
  </defs>
</svg>