<svg width="136" height="40" viewBox="0 0 136 40" fill="none" xmlns="http://www.w3.org/2000/svg">
<path d="M1.14258 8C1.14258 3.85786 4.50044 0.5 8.64258 0.5H127.643C131.785 0.5 135.143 3.85786 135.143 8V32C135.143 36.1421 131.785 39.5 127.643 39.5H8.64257C4.50044 39.5 1.14258 36.1421 1.14258 32V8Z" stroke="#F7F7F7"/>
<path d="M88.1968 19.202V21.493H86.7608V22.996H88.1968V28.101C88.1968 29.844 88.9858 30.541 90.9698 30.541C91.3178 30.541 91.6498 30.5 91.9398 30.45V28.964C91.6918 28.989 91.5338 29.006 91.2598 29.006C90.3718 29.006 89.9818 28.591 89.9818 27.644V22.996H91.9408V21.493H89.9808V19.203L88.1968 19.202ZM96.9948 30.666C99.6348 30.666 101.253 28.898 101.253 25.968C101.253 23.054 99.6258 21.278 96.9948 21.278C94.3548 21.278 92.7278 23.054 92.7278 25.968C92.7278 28.898 94.3468 30.666 96.9948 30.666ZM96.9948 29.08C95.4418 29.08 94.5708 27.943 94.5708 25.967C94.5708 24.009 95.4418 22.863 96.9948 22.863C98.5388 22.863 99.4188 24.009 99.4188 25.968C99.4188 27.935 98.5388 29.08 96.9948 29.08ZM102.638 30.491H104.423V25.154C104.423 23.884 105.377 23.029 106.73 23.029C107.046 23.029 107.577 23.087 107.726 23.137V21.377C107.535 21.327 107.195 21.302 106.929 21.302C105.751 21.302 104.746 21.95 104.489 22.838H104.356V21.452H102.638V30.491ZM112.158 22.797C113.477 22.797 114.341 23.718 114.382 25.137H109.817C109.916 23.727 110.838 22.797 112.158 22.797ZM114.374 28.051C114.042 28.757 113.303 29.147 112.224 29.147C110.796 29.147 109.875 28.142 109.817 26.557V26.457H116.2V25.835C116.2 22.995 114.681 21.278 112.166 21.278C109.618 21.278 107.999 23.112 107.999 26.001C107.999 28.889 109.584 30.666 112.174 30.666C114.241 30.666 115.685 29.67 116.092 28.051H114.374ZM76.4928 27.153C76.6308 29.373 78.4809 30.793 81.2338 30.793C84.1768 30.793 86.0178 29.304 86.0178 26.93C86.0178 25.063 84.9678 24.03 82.4208 23.437L81.0528 23.101C79.4358 22.722 78.7828 22.215 78.7828 21.329C78.7828 20.21 79.7968 19.479 81.3198 19.479C82.7658 19.479 83.7638 20.193 83.9438 21.337H85.8198C85.7078 19.247 83.8669 17.776 81.3458 17.776C78.6358 17.776 76.8288 19.246 76.8288 21.458C76.8288 23.282 77.8529 24.366 80.0989 24.891L81.6988 25.278C83.3418 25.665 84.0648 26.233 84.0648 27.179C84.0648 28.28 82.9288 29.08 81.3808 29.08C79.7198 29.08 78.5668 28.332 78.4039 27.153H76.4928ZM58.0058 21.303C56.7778 21.303 55.7159 21.917 55.1679 22.946H55.0348V21.452H53.3158V33.496H55.1008V29.122H55.2418C55.7148 30.076 56.7359 30.641 58.0219 30.641C60.3059 30.641 61.7579 28.84 61.7579 25.967C61.7579 23.095 60.3058 21.303 58.0058 21.303ZM57.4998 29.039C56.0058 29.039 55.0678 27.86 55.0678 25.976C55.0678 24.083 56.0059 22.905 57.5079 22.905C59.0189 22.905 59.9238 24.058 59.9238 25.968C59.9238 27.885 59.0188 29.039 57.4998 29.039ZM68.0028 21.303C66.7748 21.303 65.7129 21.917 65.1639 22.946H65.0308V21.452H63.3128V33.496H65.0979V29.122H65.2388C65.7118 30.076 66.7328 30.641 68.0188 30.641C70.3018 30.641 71.7548 28.84 71.7548 25.967C71.7548 23.095 70.3018 21.303 68.0028 21.303ZM67.4968 29.039C66.0028 29.039 65.0648 27.86 65.0648 25.976C65.0648 24.083 66.0028 22.905 67.5048 22.905C69.0148 22.905 69.9208 24.058 69.9208 25.968C69.9208 27.885 69.0158 29.039 67.4968 29.039ZM50.1138 30.491H52.1618L47.6798 18.077H45.6059L41.1238 30.491H43.1018L44.2468 27.195H48.9788L50.1138 30.491ZM46.5438 20.331H46.6898L48.4879 25.579H44.7379L46.5438 20.331ZM42.3228 8.71197V14.702H44.4848C46.2698 14.702 47.3028 13.602 47.3028 11.688C47.3028 9.80397 46.2608 8.71197 44.4848 8.71197H42.3228ZM43.2528 9.55897H44.3808C45.6218 9.55897 46.3568 10.348 46.3568 11.701C46.3568 13.074 45.6348 13.855 44.3808 13.855H43.2519L43.2528 9.55897ZM50.4678 14.789C51.7878 14.789 52.5979 13.905 52.5979 12.439C52.5979 10.983 51.7839 10.094 50.4678 10.094C49.1479 10.094 48.3349 10.983 48.3349 12.439C48.3349 13.905 49.1438 14.789 50.4678 14.789ZM50.4678 13.996C49.6918 13.996 49.2558 13.427 49.2558 12.44C49.2558 11.46 49.6918 10.887 50.4678 10.887C51.2398 10.887 51.6798 11.46 51.6798 12.44C51.6798 13.423 51.2398 13.996 50.4678 13.996ZM59.4888 10.181H58.5968L57.7918 13.631H57.7218L56.7918 10.181H55.9368L55.0068 13.631H54.9408L54.1308 10.181H53.2258L54.4708 14.701H55.3888L56.3188 11.373H56.3888L57.3228 14.701H58.2478L59.4888 10.181ZM60.5168 14.701H61.4088V12.058C61.4088 11.352 61.8288 10.912 62.4888 10.912C63.1488 10.912 63.4638 11.273 63.4638 12V14.701H64.3559V11.775C64.3559 10.701 63.7998 10.095 62.7908 10.095C62.1108 10.095 61.6618 10.398 61.4418 10.9H61.3759V10.182H60.5159V14.702L60.5168 14.701ZM65.7608 14.701H66.6539V8.41797H65.7608V14.701ZM70.0098 14.789C71.3298 14.789 72.1389 13.905 72.1389 12.439C72.1389 10.983 71.3248 10.094 70.0088 10.094C68.6888 10.094 67.8759 10.983 67.8759 12.439C67.8759 13.905 68.6858 14.789 70.0098 14.789ZM70.0098 13.996C69.2338 13.996 68.7978 13.427 68.7978 12.44C68.7978 11.46 69.2338 10.887 70.0098 10.887C70.7818 10.887 71.2219 11.46 71.2219 12.44C71.2219 13.423 70.7818 13.996 70.0098 13.996ZM74.7978 14.025C74.3118 14.025 73.9589 13.788 73.9589 13.382C73.9589 12.983 74.2408 12.772 74.8638 12.73L75.9678 12.66V13.037C75.9678 13.597 75.4698 14.025 74.7978 14.025ZM74.5689 14.776C75.1629 14.776 75.6568 14.519 75.9268 14.066H75.9968V14.701H76.8568V11.614C76.8568 10.659 76.2169 10.094 75.0839 10.094C74.0588 10.094 73.3279 10.593 73.2369 11.369H74.0998C74.1998 11.049 74.5438 10.867 75.0429 10.867C75.6529 10.867 75.9678 11.137 75.9678 11.614V12.004L74.7438 12.074C73.6688 12.141 73.0628 12.61 73.0628 13.424C73.0628 14.249 73.6979 14.776 74.5689 14.776ZM79.8838 14.776C80.5068 14.776 81.0339 14.481 81.3038 13.988H81.3738V14.701H82.2288V8.41797H81.3368V10.9H81.2698C81.0258 10.402 80.5028 10.107 79.8838 10.107C78.7428 10.107 78.0078 11.012 78.0078 12.439C78.0078 13.871 78.7348 14.776 79.8838 14.776ZM80.1379 10.908C80.8848 10.908 81.3528 11.502 81.3528 12.444C81.3528 13.39 80.8889 13.975 80.1379 13.975C79.3819 13.975 78.9299 13.398 78.9299 12.439C78.9299 11.489 79.3869 10.908 80.1379 10.908ZM88.0158 14.789C89.3358 14.789 90.1448 13.905 90.1448 12.439C90.1448 10.983 89.3308 10.094 88.0148 10.094C86.6948 10.094 85.8828 10.983 85.8828 12.439C85.8828 13.905 86.6918 14.789 88.0158 14.789ZM88.0158 13.996C87.2398 13.996 86.8038 13.427 86.8038 12.44C86.8038 11.46 87.2398 10.887 88.0158 10.887C88.7878 10.887 89.2278 11.46 89.2278 12.44C89.2278 13.423 88.7878 13.996 88.0158 13.996ZM91.3258 14.701H92.2178V12.058C92.2178 11.352 92.6378 10.912 93.2978 10.912C93.9578 10.912 94.2728 11.273 94.2728 12V14.701H95.1648V11.775C95.1648 10.701 94.6088 10.095 93.5998 10.095C92.9198 10.095 92.4718 10.398 92.2518 10.9H92.1848V10.182H91.3258V14.702V14.701ZM99.2748 9.05697V10.201H98.5568V10.953H99.2748V13.505C99.2748 14.377 99.6688 14.725 100.661 14.725C100.835 14.725 101.001 14.705 101.147 14.68V13.937C101.022 13.949 100.943 13.957 100.806 13.957C100.362 13.957 100.167 13.75 100.167 13.277V10.953H101.147V10.201H100.167V9.05697H99.2748ZM102.345 14.701H103.237V12.061C103.237 11.377 103.644 10.916 104.374 10.916C105.005 10.916 105.341 11.282 105.341 12.004V14.701H106.233V11.784C106.233 10.709 105.64 10.099 104.677 10.099C103.996 10.099 103.519 10.402 103.299 10.908H103.229V8.41797H102.345V14.701ZM109.453 10.854C110.112 10.854 110.544 11.314 110.565 12.024H108.282C108.332 11.319 108.793 10.854 109.453 10.854ZM110.561 13.481C110.395 13.834 110.025 14.029 109.486 14.029C108.772 14.029 108.311 13.527 108.282 12.734V12.684H111.474V12.374C111.474 10.954 110.714 10.094 109.457 10.094C108.182 10.094 107.373 11.012 107.373 12.456C107.373 13.9 108.166 14.789 109.461 14.789C110.494 14.789 111.216 14.291 111.42 13.481H110.561ZM31.4398 20.302C31.4543 19.468 31.6777 18.6511 32.0894 17.9257C32.5012 17.2004 33.0882 16.5899 33.7968 16.15C33.3416 15.5084 32.7449 14.9802 32.0529 14.6061C31.3608 14.2321 30.592 14.0223 29.8058 13.993C28.1258 13.816 26.4978 14.997 25.6428 14.997C24.7708 14.997 23.4528 14.01 22.0338 14.039C21.1171 14.0728 20.2244 14.3414 19.4412 14.8191C18.6581 15.2967 18.0106 15.9674 17.5608 16.767C15.6268 20.116 17.0698 25.037 18.9228 27.743C19.8488 29.069 20.9328 30.549 22.3498 30.496C23.7368 30.439 24.2548 29.612 25.9298 29.612C27.5878 29.612 28.0738 30.496 29.5198 30.463C31.0089 30.439 31.9469 29.132 32.8409 27.794C33.507 26.8498 34.0196 25.8062 34.3598 24.702C33.4982 24.3317 32.7631 23.7183 32.2445 22.9369C31.7259 22.1555 31.4463 21.2398 31.4398 20.302ZM28.7088 12.213C29.5206 11.2384 29.9202 9.9856 29.8228 8.72097C28.5832 8.85139 27.4381 9.44409 26.6158 10.381C25.8079 11.3072 25.397 12.5142 25.4718 13.741C26.0914 13.744 26.7038 13.6081 27.264 13.3433C27.8241 13.0785 28.3179 12.6916 28.7088 12.211V12.213Z" fill="#EFEFEF"/>
</svg>
