<svg width="40" height="40" viewBox="0 0 40 40" fill="none" xmlns="http://www.w3.org/2000/svg">
<g clip-path="url(#clip0_2564_42566)">
<g filter="url(#filter0_i_2564_42566)">
<path d="M20 40C31.0457 40 40 31.0457 40 20C40 8.9543 31.0457 0 20 0C8.9543 0 0 8.9543 0 20C0 31.0457 8.9543 40 20 40Z" fill="url(#paint0_radial_2564_42566)"/>
</g>
<path fill-rule="evenodd" clip-rule="evenodd" d="M21.5459 30.5154C22.0556 28.2913 22.4101 25.1771 22.4957 21.6562L23.2767 21.6752C23.1903 25.23 22.8324 28.3994 22.3074 30.6899C22.0456 31.8319 21.7377 32.7766 21.3898 33.4447C21.2161 33.7782 21.0226 34.0622 20.8041 34.2678C20.5841 34.4744 20.3137 34.6235 20 34.6235C19.64 34.6235 19.3386 34.4285 19.1007 34.1716C18.862 33.9138 18.6498 33.556 18.4592 33.1319C18.0768 32.281 17.7436 31.0774 17.473 29.6284L18.241 29.485C18.5067 30.9082 18.8262 32.0425 19.1718 32.8116C19.3452 33.1975 19.516 33.4703 19.6738 33.6407C19.8324 33.8119 19.9412 33.8422 20 33.8422C20.0517 33.8422 20.1402 33.8194 20.2691 33.6985C20.3994 33.576 20.5449 33.3757 20.6969 33.0838C21.0002 32.5013 21.2903 31.6307 21.5459 30.5154Z" fill="url(#paint1_linear_2564_42566)"/>
<path fill-rule="evenodd" clip-rule="evenodd" d="M18.6987 8.52795C18.2312 10.1629 17.8599 12.4911 17.6563 15.2249L16.8772 15.1669C17.083 12.4042 17.46 10.0183 17.9476 8.31317C18.1905 7.46352 18.4671 6.76073 18.7769 6.26173C19.0716 5.78714 19.4729 5.37695 19.9999 5.37695C20.3136 5.37695 20.584 5.52589 20.804 5.73273C21.0225 5.93811 21.216 6.22223 21.3897 6.55577C21.7376 7.22392 22.0455 8.16842 22.3073 9.31052C22.8323 11.601 23.1902 14.7704 23.2766 18.3252L22.4956 18.3442C22.41 14.8233 22.0555 11.7092 21.5458 9.48505C21.2902 8.3698 21.0001 7.49917 20.6968 6.91658C20.5448 6.62473 20.3994 6.42455 20.2689 6.30198C20.1401 6.18086 20.0516 6.1582 19.9999 6.1582C19.9087 6.1582 19.7104 6.23948 19.4406 6.67386C19.186 7.08386 18.9333 7.70758 18.6987 8.52795Z" fill="url(#paint2_linear_2564_42566)"/>
<path fill-rule="evenodd" clip-rule="evenodd" d="M17.6563 15.226C17.5453 16.7166 17.4844 18.3241 17.4844 20.0004C17.4844 23.6602 17.7748 26.9873 18.241 29.4843L17.4731 29.6277C16.996 27.0731 16.7031 23.6963 16.7031 20.0004C16.7031 18.3055 16.7647 16.6786 16.8772 15.168L17.6563 15.226Z" fill="url(#paint3_linear_2564_42566)"/>
<path fill-rule="evenodd" clip-rule="evenodd" d="M17.2919 21.3265C14.7577 19.7793 12.5682 18.2106 10.9421 16.8242L10.4352 17.4188C12.0994 18.8375 14.3239 20.4299 16.8849 21.9933L17.2919 21.3265Z" fill="url(#paint4_linear_2564_42566)"/>
<path fill-rule="evenodd" clip-rule="evenodd" d="M28.3169 26.5975C26.1361 25.927 23.2622 24.677 20.1704 22.9909L19.7964 23.6768C22.9179 25.3791 25.8414 26.6537 28.0873 27.3442C29.2072 27.6885 30.179 27.8941 30.9315 27.9269C31.3071 27.9432 31.65 27.9177 31.9371 27.8311C32.2262 27.744 32.4903 27.5843 32.6471 27.3127C32.9118 26.8544 32.755 26.2992 32.489 25.8045C32.209 25.284 31.7346 24.6899 31.1149 24.051C29.8715 22.7689 27.9787 21.2407 25.6723 19.6738L25.2332 20.3201C27.5157 21.8707 29.3614 23.365 30.5541 24.5949C31.1525 25.212 31.5706 25.7461 31.8009 26.1745C32.045 26.6286 32.0165 26.8425 31.9706 26.922C31.9446 26.9668 31.8809 27.0321 31.7115 27.0831C31.5403 27.1348 31.2943 27.1606 30.9655 27.1464C30.3094 27.1178 29.4105 26.9337 28.3169 26.5975Z" fill="url(#paint5_linear_2564_42566)"/>
<path fill-rule="evenodd" clip-rule="evenodd" d="M21.2417 17.8217C22.6711 18.647 24.0131 19.49 25.2333 20.319L25.6723 19.6727C24.4359 18.8327 23.0776 17.9796 21.6324 17.1451C18.2127 15.1708 14.9405 13.6676 12.4136 12.8283C11.1533 12.4096 10.059 12.1495 9.21596 12.0857C8.79552 12.054 8.41493 12.0691 8.09909 12.1515C7.78265 12.2341 7.48965 12.3963 7.32055 12.6892C7.13915 13.0034 7.15908 13.365 7.26471 13.7019C7.37074 14.0401 7.57809 14.4061 7.85465 14.787C8.40946 15.5511 9.29884 16.451 10.4351 17.4197L10.9419 16.8252C9.82568 15.8735 8.98921 15.0199 8.48684 14.328C8.23477 13.9808 8.08065 13.693 8.01018 13.4681C7.93924 13.2419 7.96752 13.1311 7.99715 13.0798C8.02483 13.0318 8.09727 12.9594 8.29627 12.9075C8.49587 12.8554 8.78074 12.8363 9.15709 12.8648C9.90768 12.9215 10.9324 13.1594 12.1674 13.5697C14.6311 14.3881 17.8545 15.8661 21.2417 17.8217Z" fill="url(#paint6_linear_2564_42566)"/>
<path fill-rule="evenodd" clip-rule="evenodd" d="M20.276 16.9702C22.9003 15.5433 25.366 14.4314 27.3807 13.7234L27.1217 12.9863C25.0589 13.7112 22.5546 14.842 19.9028 16.2839L20.276 16.9702Z" fill="url(#paint7_linear_2564_42566)"/>
<path fill-rule="evenodd" clip-rule="evenodd" d="M10.1196 23.9347C11.7787 22.3891 14.2815 20.5339 17.2701 18.7055L16.8624 18.0391C13.8449 19.8851 11.2961 21.771 9.58712 23.3631C8.73499 24.1569 8.0759 24.8922 7.67446 25.5247C7.47403 25.8405 7.32599 26.1488 7.25818 26.4397C7.1899 26.7327 7.19662 27.0401 7.35287 27.3107C7.61706 27.7683 8.17509 27.9104 8.73543 27.9277C9.32478 27.9459 10.0748 27.8327 10.9358 27.6166C12.6636 27.1828 14.928 26.3108 17.4328 25.1008L17.093 24.3973C14.6142 25.5947 12.4027 26.4428 10.7456 26.8588C9.91406 27.0676 9.24431 27.1618 8.75953 27.1468C8.24574 27.131 8.07524 26.9995 8.02946 26.9201C8.00368 26.8755 7.97918 26.7881 8.01903 26.6171C8.0594 26.444 8.1589 26.2193 8.33406 25.9433C8.68371 25.3924 9.28774 24.7097 10.1196 23.9347Z" fill="url(#paint8_linear_2564_42566)"/>
<path fill-rule="evenodd" clip-rule="evenodd" d="M21.2741 22.179C19.8366 23.0089 18.4277 23.7534 17.093 24.3981L17.4328 25.1016C18.7854 24.4482 20.2113 23.6948 21.6647 22.8556C25.0844 20.8812 28.0223 18.799 30.0126 17.0304C31.0054 16.1482 31.7778 15.3306 32.2547 14.6323C32.4922 14.2841 32.6694 13.947 32.7559 13.6322C32.8428 13.3169 32.8487 12.982 32.6797 12.6892C32.5003 12.3785 32.1825 12.2151 31.8425 12.1372C31.5019 12.0589 31.0881 12.0535 30.6282 12.0995C29.7055 12.1918 28.5038 12.5016 27.1218 12.9872L27.3808 13.7243C28.738 13.2474 29.8727 12.9602 30.706 12.8768C31.124 12.835 31.4431 12.847 31.6678 12.8986C31.8937 12.9504 31.9737 13.0291 32.0031 13.0798C32.0309 13.1278 32.0572 13.2267 32.0028 13.425C31.9481 13.6239 31.8222 13.8801 31.6094 14.1918C31.1849 14.8135 30.4665 15.582 29.4937 16.4464C27.553 18.1708 24.6614 20.2233 21.2741 22.179Z" fill="url(#paint9_linear_2564_42566)"/>
<path d="M17.9811 30.543C18.5447 30.543 19.0016 30.0861 19.0016 29.5225C19.0016 28.9589 18.5447 28.502 17.9811 28.502C17.4175 28.502 16.9606 28.9589 16.9606 29.5225C16.9606 30.0861 17.4175 30.543 17.9811 30.543Z" fill="white"/>
<path d="M9.84471 16.4785C10.1265 15.9904 10.7507 15.8231 11.2388 16.1049C11.7269 16.3868 11.8941 17.0109 11.6123 17.499C11.3305 17.9871 10.7064 18.1544 10.2183 17.8725C9.73014 17.5907 9.5629 16.9666 9.84471 16.4785Z" fill="white"/>
<path d="M28.1361 12.9805C28.4179 13.4686 28.2507 14.0927 27.7626 14.3745C27.2745 14.6563 26.6503 14.4891 26.3685 14.001C26.0867 13.5129 26.254 12.8887 26.7421 12.6069C27.2302 12.3251 27.8543 12.4924 28.1361 12.9805Z" fill="white"/>
<path fill-rule="evenodd" clip-rule="evenodd" d="M20.0004 18.2227C20.9817 18.2227 21.7772 19.0181 21.7772 19.9994C21.7772 20.9806 20.9817 21.7761 20.0004 21.7761C19.0192 21.7761 18.2238 20.9806 18.2238 19.9994C18.2238 19.0181 19.0192 18.2227 20.0004 18.2227Z" fill="white"/>
</g>
<defs>
<filter id="filter0_i_2564_42566" x="0" y="0" width="40" height="40" filterUnits="userSpaceOnUse" color-interpolation-filters="sRGB">
<feFlood flood-opacity="0" result="BackgroundImageFix"/>
<feBlend mode="normal" in="SourceGraphic" in2="BackgroundImageFix" result="shape"/>
<feColorMatrix in="SourceAlpha" type="matrix" values="0 0 0 0 0 0 0 0 0 0 0 0 0 0 0 0 0 0 127 0" result="hardAlpha"/>
<feOffset/>
<feGaussianBlur stdDeviation="10.6667"/>
<feComposite in2="hardAlpha" operator="arithmetic" k2="-1" k3="1"/>
<feColorMatrix type="matrix" values="0 0 0 0 1 0 0 0 0 1 0 0 0 0 1 0 0 0 0.62 0"/>
<feBlend mode="overlay" in2="shape" result="effect1_innerShadow_2564_42566"/>
</filter>
<radialGradient id="paint0_radial_2564_42566" cx="0" cy="0" r="1" gradientUnits="userSpaceOnUse" gradientTransform="translate(6.66666 6.66666) rotate(45) scale(47.1403)">
<stop stop-color="#F386FF"/>
<stop offset="0.486936" stop-color="#375DF1"/>
<stop offset="0.813073" stop-color="#A4FAFF"/>
</radialGradient>
<linearGradient id="paint1_linear_2564_42566" x1="20.3749" y1="34.6235" x2="24.1494" y2="21.9154" gradientUnits="userSpaceOnUse">
<stop offset="0.377307" stop-color="white" stop-opacity="0.6"/>
<stop offset="0.992239" stop-color="white" stop-opacity="0"/>
</linearGradient>
<linearGradient id="paint2_linear_2564_42566" x1="20.0769" y1="5.37695" x2="24.9455" y2="17.6881" gradientUnits="userSpaceOnUse">
<stop offset="0.634963" stop-color="white" stop-opacity="0.81"/>
<stop offset="1" stop-color="white" stop-opacity="0"/>
</linearGradient>
<linearGradient id="paint3_linear_2564_42566" x1="18.2259" y1="15.168" x2="18.2259" y2="29.6444" gradientUnits="userSpaceOnUse">
<stop stop-color="white" stop-opacity="0.81"/>
<stop offset="0.646422" stop-color="white"/>
</linearGradient>
<linearGradient id="paint4_linear_2564_42566" x1="10.9632" y1="16.7232" x2="17.3473" y2="21.2265" gradientUnits="userSpaceOnUse">
<stop stop-color="white" stop-opacity="0.6"/>
<stop offset="1" stop-color="white" stop-opacity="0"/>
</linearGradient>
<linearGradient id="paint5_linear_2564_42566" x1="33.3918" y1="27.2618" x2="19.2362" y2="24.9061" gradientUnits="userSpaceOnUse">
<stop offset="0.60731" stop-color="white" stop-opacity="0.81"/>
<stop offset="1" stop-color="white" stop-opacity="0"/>
</linearGradient>
<linearGradient id="paint6_linear_2564_42566" x1="25.2937" y1="19.5383" x2="6.91834" y2="12.725" gradientUnits="userSpaceOnUse">
<stop stop-color="white" stop-opacity="0.81"/>
<stop offset="0.478389" stop-color="white"/>
</linearGradient>
<linearGradient id="paint7_linear_2564_42566" x1="27.5268" y1="13.7781" x2="19.8713" y2="17.3353" gradientUnits="userSpaceOnUse">
<stop stop-color="white" stop-opacity="0.6"/>
<stop offset="1" stop-color="white" stop-opacity="0"/>
</linearGradient>
<linearGradient id="paint8_linear_2564_42566" x1="6.92778" y1="27.3627" x2="16.5111" y2="17.3688" gradientUnits="userSpaceOnUse">
<stop offset="0.54518" stop-color="white" stop-opacity="0.81"/>
<stop offset="1" stop-color="white" stop-opacity="0"/>
</linearGradient>
<linearGradient id="paint9_linear_2564_42566" x1="33.0731" y1="12.3272" x2="17.5998" y2="25.1972" gradientUnits="userSpaceOnUse">
<stop offset="0.518582" stop-color="white"/>
<stop offset="1" stop-color="white" stop-opacity="0.81"/>
</linearGradient>
<clipPath id="clip0_2564_42566">
<rect width="40" height="40" fill="white"/>
</clipPath>
</defs>
</svg>
