<svg width="44" height="44" viewBox="0 0 44 44" fill="none" xmlns="http://www.w3.org/2000/svg">
<g filter="url(#filter0_i_389_1639)">
<path d="M22 44C34.1503 44 44 34.1503 44 22C44 9.84974 34.1503 0 22 0C9.84974 0 0 9.84974 0 22C0 34.1503 9.84974 44 22 44Z" fill="url(#paint0_radial_389_1639)"/>
</g>
<path fill-rule="evenodd" clip-rule="evenodd" d="M23.7005 33.5661C24.2612 31.1195 24.6511 27.694 24.7453 23.821L25.6044 23.8419C25.5093 27.7522 25.1156 31.2385 24.5381 33.7581C24.2502 35.0143 23.9115 36.0534 23.5288 36.7884C23.3378 37.1551 23.1249 37.4676 22.8845 37.6938C22.6425 37.921 22.3451 38.085 22 38.085C21.604 38.085 21.2725 37.8705 21.0108 37.5879C20.7482 37.3043 20.5148 36.9107 20.3052 36.4443C19.8845 35.5082 19.518 34.1843 19.2203 32.5904L20.0651 32.4326C20.3574 33.9981 20.7088 35.246 21.089 36.0919C21.2798 36.5165 21.4676 36.8166 21.6412 37.0039C21.8156 37.1923 21.9354 37.2256 22 37.2256C22.0569 37.2256 22.1542 37.2005 22.296 37.0675C22.4394 36.9327 22.5994 36.7124 22.7666 36.3913C23.1003 35.7506 23.4193 34.7929 23.7005 33.5661Z" fill="url(#paint1_linear_389_1639)"/>
<path fill-rule="evenodd" clip-rule="evenodd" d="M20.5686 9.38163C20.0543 11.1801 19.6459 13.7411 19.4219 16.7483L18.5649 16.6844C18.7913 13.6455 19.206 11.021 19.7424 9.14537C20.0096 8.21075 20.3138 7.43769 20.6546 6.88879C20.9788 6.36673 21.4202 5.91553 22 5.91553C22.345 5.91553 22.6424 6.07936 22.8844 6.30689C23.1248 6.5328 23.3377 6.84534 23.5287 7.21222C23.9114 7.94719 24.2501 8.98614 24.538 10.2424C25.1155 12.762 25.5092 16.2483 25.6043 20.1586L24.7452 20.1795C24.651 16.3065 24.2611 12.881 23.7004 10.4344C23.4192 9.20766 23.1002 8.24997 22.7665 7.60911C22.5993 7.28809 22.4393 7.06788 22.2959 6.93306C22.1541 6.79982 22.0568 6.7749 22 6.7749C21.8996 6.7749 21.6814 6.86431 21.3847 7.34212C21.1046 7.79312 20.8266 8.47921 20.5686 9.38163Z" fill="url(#paint2_linear_389_1639)"/>
<path fill-rule="evenodd" clip-rule="evenodd" d="M19.422 16.7484C19.2998 18.3881 19.2328 20.1563 19.2328 22.0003C19.2328 26.026 19.5522 29.6859 20.0651 32.4326L19.2203 32.5903C18.6956 29.7802 18.3734 26.0658 18.3734 22.0003C18.3734 20.1358 18.4412 18.3463 18.5649 16.6846L19.422 16.7484Z" fill="url(#paint3_linear_389_1639)"/>
<path fill-rule="evenodd" clip-rule="evenodd" d="M19.0211 23.4601C16.2334 21.7582 13.8249 20.0325 12.0362 18.5076L11.4786 19.1616C13.3092 20.7222 15.7563 22.4738 18.5733 24.1936L19.0211 23.4601Z" fill="url(#paint4_linear_389_1639)"/>
<path fill-rule="evenodd" clip-rule="evenodd" d="M31.1487 29.2566C28.7498 28.5191 25.5885 27.1441 22.1876 25.2894L21.7761 26.0439C25.2098 27.9165 28.4257 29.3185 30.8962 30.0781C32.128 30.4568 33.197 30.6829 34.0248 30.719C34.438 30.7369 34.815 30.7089 35.131 30.6137C35.4489 30.5178 35.7394 30.3421 35.912 30.0434C36.2031 29.5393 36.0305 28.9285 35.738 28.3843C35.43 27.8118 34.9082 27.1583 34.2265 26.4555C32.8587 25.0452 30.7766 23.3642 28.2396 21.6406L27.7567 22.3515C30.2673 24.0572 32.2976 25.701 33.6096 27.0538C34.2679 27.7326 34.7277 28.3202 34.9811 28.7914C35.2495 29.2908 35.2183 29.5262 35.1677 29.6137C35.1392 29.6629 35.0691 29.7347 34.8828 29.7908C34.6944 29.8477 34.4239 29.8761 34.0622 29.8604C33.3404 29.829 32.3516 29.6265 31.1487 29.2566Z" fill="url(#paint5_linear_389_1639)"/>
<path fill-rule="evenodd" clip-rule="evenodd" d="M23.3658 19.6034C24.9381 20.5112 26.4144 21.4385 27.7566 22.3504L28.2395 21.6395C26.8794 20.7155 25.3853 19.7771 23.7955 18.8592C20.0339 16.6874 16.4344 15.0339 13.6549 14.1106C12.2686 13.6501 11.0649 13.3639 10.1375 13.2938C9.675 13.2589 9.25635 13.2755 8.90892 13.3662C8.56084 13.457 8.23854 13.6354 8.05254 13.9576C7.85299 14.3032 7.87492 14.701 7.99111 15.0716C8.10774 15.4436 8.33582 15.8462 8.64004 16.2652C9.25033 17.1058 10.2286 18.0956 11.4785 19.1612L12.036 18.5072C10.8082 17.4604 9.88806 16.5214 9.33545 15.7603C9.05818 15.3784 8.88864 15.0618 8.81112 14.8145C8.73309 14.5656 8.7642 14.4437 8.79679 14.3873C8.82725 14.3345 8.90693 14.2548 9.12583 14.1977C9.34538 14.1404 9.65874 14.1195 10.0727 14.1508C10.8984 14.2132 12.0256 14.4749 13.384 14.9262C16.0942 15.8264 19.6398 17.4522 23.3658 19.6034Z" fill="url(#paint6_linear_389_1639)"/>
<path fill-rule="evenodd" clip-rule="evenodd" d="M22.3037 18.6675C25.1904 17.0979 27.9026 15.8747 30.1189 15.096L29.834 14.2852C27.5649 15.0825 24.8101 16.3264 21.8932 17.9125L22.3037 18.6675Z" fill="url(#paint7_linear_389_1639)"/>
<path fill-rule="evenodd" clip-rule="evenodd" d="M11.1316 26.3292C12.9566 24.629 15.7096 22.5883 18.9971 20.577L18.5487 19.844C15.2294 21.8747 12.4257 23.9491 10.5458 25.7004C9.60848 26.5736 8.88348 27.3824 8.4419 28.0782C8.22142 28.4255 8.05858 28.7648 7.98399 29.0847C7.90888 29.407 7.91627 29.7452 8.08814 30.0428C8.37875 30.5462 8.99258 30.7025 9.60896 30.7215C10.2572 30.7415 11.0823 30.617 12.0294 30.3793C13.93 29.9021 16.4207 28.9429 19.176 27.6119L18.8022 26.8381C16.0756 28.1552 13.643 29.0882 11.8201 29.5458C10.9054 29.7754 10.1687 29.879 9.63547 29.8625C9.07031 29.8451 8.88276 29.7004 8.8324 29.6132C8.80404 29.5641 8.77709 29.4679 8.82092 29.2798C8.86533 29.0894 8.97478 28.8423 9.16745 28.5387C9.55207 27.9327 10.2165 27.1817 11.1316 26.3292Z" fill="url(#paint8_linear_389_1639)"/>
<path fill-rule="evenodd" clip-rule="evenodd" d="M23.4016 24.3971C21.8203 25.3101 20.2705 26.129 18.8024 26.8382L19.1762 27.612C20.664 26.8933 22.2324 26.0645 23.8313 25.1414C27.5929 22.9696 30.8246 20.6791 33.014 18.7337C34.106 17.7633 34.9556 16.8639 35.4802 16.0958C35.7414 15.7127 35.9363 15.3419 36.0316 14.9957C36.1271 14.6488 36.1337 14.2805 35.9477 13.9583C35.7504 13.6166 35.4008 13.4369 35.0268 13.3511C34.6521 13.2651 34.197 13.2591 33.691 13.3097C32.6761 13.4112 31.3542 13.752 29.8341 14.2861L30.119 15.0969C31.6118 14.5724 32.86 14.2565 33.7766 14.1648C34.2364 14.1188 34.5875 14.132 34.8346 14.1887C35.0832 14.2457 35.1712 14.3322 35.2035 14.388C35.2341 14.4408 35.2629 14.5496 35.2031 14.7677C35.143 14.9865 35.0044 15.2684 34.7703 15.6113C34.3035 16.2951 33.5131 17.1404 32.4431 18.0913C30.3084 19.9882 27.1276 22.2459 23.4016 24.3971Z" fill="url(#paint9_linear_389_1639)"/>
<path d="M19.7792 33.5962C20.3992 33.5962 20.9017 33.0936 20.9017 32.4736C20.9017 31.8537 20.3992 31.3511 19.7792 31.3511C19.1592 31.3511 18.6566 31.8537 18.6566 32.4736C18.6566 33.0936 19.1592 33.5962 19.7792 33.5962Z" fill="white"/>
<path d="M10.8292 18.1257C11.1392 17.5888 11.8258 17.4048 12.3627 17.7148C12.8996 18.0248 13.0836 18.7114 12.7736 19.2483C12.4636 19.7852 11.777 19.9692 11.2401 19.6592C10.7032 19.3492 10.5192 18.6626 10.8292 18.1257Z" fill="white"/>
<path d="M30.9497 14.2783C31.2597 14.8152 31.0757 15.5018 30.5388 15.8118C30.0019 16.1218 29.3154 15.9378 29.0054 15.4009C28.6954 14.864 28.8793 14.1774 29.4163 13.8674C29.9532 13.5574 30.6397 13.7414 30.9497 14.2783Z" fill="white"/>
<path fill-rule="evenodd" clip-rule="evenodd" d="M22.0005 20.0452C23.0799 20.0452 23.9549 20.9202 23.9549 21.9996C23.9549 23.0789 23.0799 23.9539 22.0005 23.9539C20.9212 23.9539 20.0461 23.0789 20.0461 21.9996C20.0461 20.9202 20.9212 20.0452 22.0005 20.0452Z" fill="white"/>
<defs>
<filter x="0" y="0" width="44" height="44" filterUnits="userSpaceOnUse" color-interpolation-filters="sRGB">
<feFlood flood-opacity="0" result="BackgroundImageFix"/>
<feBlend mode="normal" in="SourceGraphic" in2="BackgroundImageFix" result="shape"/>
<feColorMatrix in="SourceAlpha" type="matrix" values="0 0 0 0 0 0 0 0 0 0 0 0 0 0 0 0 0 0 127 0" result="hardAlpha"/>
<feOffset/>
<feGaussianBlur stdDeviation="10.6667"/>
<feComposite in2="hardAlpha" operator="arithmetic" k2="-1" k3="1"/>
<feColorMatrix type="matrix" values="0 0 0 0 1 0 0 0 0 1 0 0 0 0 1 0 0 0 0.62 0"/>
<feBlend mode="overlay" in2="shape" result="effect1_innerShadow_389_1639"/>
</filter>
<radialGradient cx="0" cy="0" r="1" gradientUnits="userSpaceOnUse" gradientTransform="translate(7.33332 7.33332) rotate(45) scale(51.8543)">
<stop stop-color="#F386FF"/>
<stop offset="0.486936" stop-color="#375DF1"/>
<stop offset="0.813073" stop-color="#A4FAFF"/>
</radialGradient>
<linearGradient x1="22.4124" y1="38.085" x2="26.5644" y2="24.1062" gradientUnits="userSpaceOnUse">
<stop offset="0.377307" stop-color="white" stop-opacity="0.6"/>
<stop offset="0.992239" stop-color="white" stop-opacity="0"/>
</linearGradient>
<linearGradient x1="22.0846" y1="5.91553" x2="27.4401" y2="19.4578" gradientUnits="userSpaceOnUse">
<stop offset="0.634963" stop-color="white" stop-opacity="0.81"/>
<stop offset="1" stop-color="white" stop-opacity="0"/>
</linearGradient>
<linearGradient x1="20.0485" y1="16.6846" x2="20.0485" y2="32.6086" gradientUnits="userSpaceOnUse">
<stop stop-color="white" stop-opacity="0.81"/>
<stop offset="0.646422" stop-color="white"/>
</linearGradient>
<linearGradient x1="12.0595" y1="18.3964" x2="19.0819" y2="23.3501" gradientUnits="userSpaceOnUse">
<stop stop-color="white" stop-opacity="0.6"/>
<stop offset="1" stop-color="white" stop-opacity="0"/>
</linearGradient>
<linearGradient x1="36.7311" y1="29.9874" x2="21.1599" y2="27.3961" gradientUnits="userSpaceOnUse">
<stop offset="0.60731" stop-color="white" stop-opacity="0.81"/>
<stop offset="1" stop-color="white" stop-opacity="0"/>
</linearGradient>
<linearGradient x1="27.823" y1="21.4916" x2="7.6101" y2="13.997" gradientUnits="userSpaceOnUse">
<stop stop-color="white" stop-opacity="0.81"/>
<stop offset="0.478389" stop-color="white"/>
</linearGradient>
<linearGradient x1="30.2796" y1="15.1561" x2="21.8585" y2="19.069" gradientUnits="userSpaceOnUse">
<stop stop-color="white" stop-opacity="0.6"/>
<stop offset="1" stop-color="white" stop-opacity="0"/>
</linearGradient>
<linearGradient x1="7.62054" y1="30.0999" x2="18.1621" y2="19.1067" gradientUnits="userSpaceOnUse">
<stop offset="0.54518" stop-color="white" stop-opacity="0.81"/>
<stop offset="1" stop-color="white" stop-opacity="0"/>
</linearGradient>
<linearGradient x1="36.3805" y1="13.5602" x2="19.3598" y2="27.7171" gradientUnits="userSpaceOnUse">
<stop offset="0.518582" stop-color="white"/>
<stop offset="1" stop-color="white" stop-opacity="0.81"/>
</linearGradient>
</defs>
</svg>
