<svg xmlns="http://www.w3.org/2000/svg" width="24" height="24" viewBox="0 0 24 24" fill="none">
  <path fill-rule="evenodd" clip-rule="evenodd" d="M10.5293 5.46934C10.6698 5.60997 10.7487 5.80059 10.7487 5.99934C10.7487 6.19809 10.6698 6.38871 10.5293 6.52934L5.80934 11.2493H19.9993C20.1983 11.2493 20.389 11.3284 20.5297 11.469C20.6703 11.6097 20.7493 11.8004 20.7493 11.9993C20.7493 12.1983 20.6703 12.389 20.5297 12.5297C20.389 12.6703 20.1983 12.7493 19.9993 12.7493H5.80934L10.5293 17.4693C10.603 17.538 10.6621 17.6208 10.7031 17.7128C10.7441 17.8048 10.7662 17.9041 10.7679 18.0048C10.7697 18.1055 10.7512 18.2055 10.7135 18.2989C10.6757 18.3923 10.6196 18.4772 10.5484 18.5484C10.4772 18.6196 10.3923 18.6757 10.2989 18.7135C10.2055 18.7512 10.1055 18.7697 10.0048 18.7679C9.90412 18.7662 9.8048 18.7441 9.7128 18.7031C9.6208 18.6621 9.538 18.603 9.46934 18.5293L3.46934 12.5293C3.32889 12.3887 3.25 12.1981 3.25 11.9993C3.25 11.8006 3.32889 11.61 3.46934 11.4693L9.46934 5.46934C9.60997 5.32889 9.80059 5.25 9.99934 5.25C10.1981 5.25 10.3887 5.32889 10.5293 5.46934Z" fill="#454847"/>
</svg>