<svg xmlns="http://www.w3.org/2000/svg" width="12" height="15" viewBox="0 0 12 15" fill="none">
    <path
        d="M1.33301 12.5V2.83333C1.33301 2.47971 1.47348 2.14057 1.72353 1.89052C1.97358 1.64048 2.31272 1.5 2.66634 1.5H10.2663C10.3724 1.5 10.4742 1.54214 10.5492 1.61716C10.6242 1.69217 10.6663 1.79391 10.6663 1.9V13.5H2.33301M3.99967 4.16667H7.99967M2.33301 9.5H10.6663M2.33301 11.5H10.6663"
        stroke="#89A571" stroke-width="1.5" stroke-linecap="round" />
    <path
        d="M2.33301 9.5C1.66634 9.5 1.33301 9.948 1.33301 10.5C1.33301 11.052 1.66634 11.5 2.33301 11.5C1.66634 11.5 1.33301 11.948 1.33301 12.5C1.33301 13.052 1.66634 13.5 2.33301 13.5"
        stroke="#89A571" stroke-width="1.5" stroke-linecap="round" stroke-linejoin="round" />
</svg>