<svg width="19" height="18" viewBox="0 0 19 18" fill="none" xmlns="http://www.w3.org/2000/svg">
    <path
        d="M1 4C1 2.067 2.567 0.5 4.5 0.5H14.5C16.433 0.5 18 2.067 18 4V14C18 15.933 16.433 17.5 14.5 17.5H4.5C2.567 17.5 1 15.933 1 14V4Z"
        fill="#111900" />
    <path
        d="M1 4C1 2.067 2.567 0.5 4.5 0.5H14.5C16.433 0.5 18 2.067 18 4V14C18 15.933 16.433 17.5 14.5 17.5H4.5C2.567 17.5 1 15.933 1 14V4Z"
        stroke="#AEE67F" />
    <path d="M14.3125 7.6875H10.375L11.25 2.4375L4.6875 10.3125H8.625L7.75 15.5625L14.3125 7.6875Z"
        fill="#AEE67F" />
</svg>