<svg width="28" height="30" viewBox="0 0 28 30" fill="none" xmlns="http://www.w3.org/2000/svg">
<path fill-rule="evenodd" clip-rule="evenodd" d="M17.9763 15.5558C17.7465 14.9059 17.3208 14.3431 16.7578 13.9451C16.1949 13.5471 15.5224 13.3333 14.833 13.3333V12.5H13.1663V13.3333C12.2823 13.3333 11.4344 13.6845 10.8093 14.3096C10.1842 14.9348 9.83301 15.7826 9.83301 16.6667C9.83301 17.5507 10.1842 18.3986 10.8093 19.0237C11.4344 19.6488 12.2823 20 13.1663 20V23.3333C12.4413 23.3333 11.8238 22.8708 11.5938 22.2225C11.5597 22.1164 11.5047 22.0183 11.4319 21.9339C11.3592 21.8494 11.2703 21.7804 11.1705 21.731C11.0706 21.6815 10.9619 21.6526 10.8507 21.6459C10.7394 21.6392 10.628 21.6549 10.5229 21.692C10.4179 21.7291 10.3213 21.7869 10.239 21.862C10.1567 21.9371 10.0902 22.0279 10.0436 22.1291C9.99702 22.2303 9.97118 22.3399 9.96764 22.4512C9.96409 22.5626 9.98292 22.6735 10.023 22.7775C10.2529 23.4275 10.6786 23.9902 11.2415 24.3882C11.8044 24.7863 12.4769 25 13.1663 25V25.8333H14.833V25C15.7171 25 16.5649 24.6488 17.19 24.0237C17.8152 23.3986 18.1663 22.5507 18.1663 21.6667C18.1663 20.7826 17.8152 19.9348 17.19 19.3096C16.5649 18.6845 15.7171 18.3333 14.833 18.3333V15C15.1777 14.9999 15.5139 15.1067 15.7954 15.3056C16.0769 15.5046 16.2897 15.7859 16.4047 16.1108C16.4783 16.3192 16.6316 16.4899 16.8311 16.5852C16.9298 16.6324 17.0369 16.6597 17.1462 16.6655C17.2554 16.6714 17.3648 16.6556 17.468 16.6192C17.5712 16.5827 17.6662 16.5263 17.7476 16.4532C17.829 16.38 17.8952 16.2915 17.9424 16.1928C17.9896 16.094 18.0169 15.987 18.0227 15.8777C18.0285 15.7684 18.0128 15.659 17.9763 15.5558ZM13.1663 15C12.7243 15 12.3004 15.1756 11.9878 15.4882C11.6753 15.8007 11.4997 16.2246 11.4997 16.6667C11.4997 17.1087 11.6753 17.5326 11.9878 17.8452C12.3004 18.1577 12.7243 18.3333 13.1663 18.3333V15ZM14.833 23.3333C15.275 23.3333 15.699 23.1577 16.0115 22.8452C16.3241 22.5326 16.4997 22.1087 16.4997 21.6667C16.4997 21.2246 16.3241 20.8007 16.0115 20.4882C15.699 20.1756 15.275 20 14.833 20V23.3333Z" fill="#B7B7B7"/>
<path fill-rule="evenodd" clip-rule="evenodd" d="M4.96049 2.18417C7.00549 1.18333 10.3605 0 14.0322 0C17.6272 0 20.8938 1.13417 22.928 2.12167L23.043 2.1775C23.6563 2.48083 24.1513 2.7675 24.4997 3L21.4213 7.5C28.518 14.755 33.9997 29.9975 14.0322 29.9975C-5.93534 29.9975 -0.601175 15.0317 6.55716 7.5L3.49882 3C3.73466 2.84583 4.03382 2.66667 4.39049 2.47667C4.56716 2.38167 4.75716 2.28333 4.96049 2.18417ZM19.443 7.44L21.9072 3.8375C19.6155 4.0025 16.8888 4.54083 14.2638 5.30083C12.3888 5.8425 10.3055 5.76 8.37632 5.40417C7.89018 5.31404 7.40738 5.20675 6.92882 5.0825L8.52882 7.43833C11.958 8.65917 16.013 8.65917 19.443 7.44ZM7.56632 8.85833C11.5788 10.4083 16.4013 10.4083 20.4138 8.85667C22.0887 10.6222 23.4898 12.6287 24.5705 14.8092C25.6972 17.1075 26.3105 19.405 26.2105 21.385C26.1138 23.2958 25.3622 24.9283 23.6455 26.1417C21.8563 27.4058 18.8472 28.3308 14.0313 28.3308C9.21049 28.3308 6.18716 27.4217 4.38132 26.1717C2.65216 24.9733 1.89299 23.3633 1.78549 21.4783C1.67299 19.52 2.27299 17.2342 3.39549 14.92C4.46632 12.7133 5.96049 10.5892 7.56632 8.85833ZM6.60799 3.26333C7.27466 3.46167 7.97132 3.63417 8.67799 3.765C10.4697 4.095 12.2663 4.14333 13.7997 3.69917C15.5865 3.17862 17.4039 2.76923 19.2413 2.47333C17.708 2.01167 15.9147 1.66667 14.0313 1.66667C11.1605 1.66667 8.48299 2.4675 6.60799 3.26333Z" fill="#B7B7B7"/>
</svg>