<svg xmlns="http://www.w3.org/2000/svg" width="24" height="24" viewBox="0 0 24 24" fill="none">
  <path d="M10.5008 13.3996L15.4008 8.49961C15.5841 8.31628 15.8174 8.22461 16.1008 8.22461C16.3841 8.22461 16.6174 8.31628 16.8008 8.49961C16.9841 8.68294 17.0758 8.91628 17.0758 9.19961C17.0758 9.48294 16.9841 9.71628 16.8008 9.89961L11.2008 15.4996C11.0008 15.6996 10.7674 15.7996 10.5008 15.7996C10.2341 15.7996 10.0008 15.6996 9.80078 15.4996L7.20078 12.8996C7.01745 12.7163 6.92578 12.4829 6.92578 12.1996C6.92578 11.9163 7.01745 11.6829 7.20078 11.4996C7.38411 11.3163 7.61745 11.2246 7.90078 11.2246C8.18411 11.2246 8.41745 11.3163 8.60078 11.4996L10.5008 13.3996Z" fill="#03A727"/>
</svg>