<svg width="136" height="40" viewBox="0 0 136 40" fill="none" xmlns="http://www.w3.org/2000/svg">
<path d="M0.5 8C0.5 3.85786 3.85786 0.5 8 0.5H128C132.142 0.5 135.5 3.85786 135.5 8V32C135.5 36.1421 132.142 39.5 128 39.5H8C3.85786 39.5 0.5 36.1421 0.5 32V8Z" stroke="#F7F7F7"/>
<path fill-rule="evenodd" clip-rule="evenodd" d="M30.6771 13.563C30.6928 13.5895 30.7011 13.6197 30.7014 13.6505C30.7017 13.6813 30.6938 13.7117 30.6786 13.7385C30.6633 13.7652 30.6413 13.7875 30.6147 13.8031C30.5881 13.8186 30.5579 13.8269 30.5271 13.827H21.9511C20.7263 13.7199 19.5032 14.0507 18.4994 14.7606C17.4956 15.4705 16.7762 16.5135 16.4691 17.704C16.4601 17.7373 16.4415 17.7673 16.4156 17.79C16.3897 17.8128 16.3576 17.8274 16.3234 17.832C16.2892 17.8366 16.2544 17.831 16.2234 17.8159C16.1924 17.8007 16.1665 17.7768 16.1491 17.747L13.1451 12.546C13.1277 12.5156 13.1198 12.4806 13.1225 12.4457C13.1251 12.4108 13.1382 12.3774 13.1601 12.35C14.157 11.0946 15.4252 10.0812 16.8696 9.38565C18.3139 8.69013 19.897 8.3306 21.5001 8.33401C23.3523 8.33338 25.1727 8.81536 26.7819 9.73246C28.3911 10.6496 29.7336 11.9701 30.6771 13.564V13.563ZM21.4991 22.988C20.4418 22.9869 19.4282 22.5664 18.6807 21.8187C17.9332 21.071 17.5129 20.0573 17.5121 19C17.5134 17.9431 17.9339 16.9299 18.6814 16.1826C19.4288 15.4353 20.4422 15.0151 21.4991 15.014C22.5558 15.0153 23.5689 15.4357 24.3161 16.1829C25.0634 16.9302 25.4838 17.9433 25.4851 19C25.484 20.0569 25.0638 21.0703 24.3165 21.8177C23.5692 22.5652 22.556 22.9857 21.4991 22.987V22.988ZM23.0751 24.068C23.054 24.0404 23.0251 24.0197 22.9921 24.0086C22.9591 23.9976 22.9236 23.9967 22.8901 24.006C22.4391 24.132 21.9701 24.196 21.5001 24.196C20.5104 24.1929 19.542 23.9086 18.7078 23.3762C17.8735 22.8438 17.2078 22.0853 16.7881 21.189L12.5041 13.769C12.4887 13.7426 12.4667 13.7206 12.4402 13.7054C12.4137 13.6901 12.3837 13.6821 12.3531 13.682H12.3521C12.321 13.6822 12.2906 13.6906 12.2639 13.7064C12.2372 13.7222 12.2152 13.7449 12.2001 13.772C11.123 15.6891 10.6643 17.8921 10.8868 20.0798C11.1093 22.2675 12.0021 24.333 13.4431 25.994C15.1124 27.9166 17.4144 29.1787 19.9331 29.552C19.9951 29.552 20.0531 29.52 20.0851 29.465L23.0891 24.262C23.1064 24.2318 23.1143 24.1971 23.1119 24.1624C23.1094 24.1276 23.0966 24.0944 23.0751 24.067V24.068ZM25.2551 14.994H31.2701C31.3421 14.994 31.4061 15.038 31.4331 15.105C31.9201 16.346 32.1671 17.657 32.1671 19.001C32.1743 21.8121 31.0646 24.511 29.0821 26.504C27.1117 28.5049 24.4281 29.6424 21.6201 29.667H21.6181C21.5875 29.6669 21.5575 29.6587 21.531 29.6433C21.5045 29.6279 21.4826 29.6059 21.4673 29.5794C21.452 29.5529 21.444 29.5228 21.4439 29.4922C21.4439 29.4616 21.4519 29.4316 21.4671 29.405L25.7581 21.972L25.7621 21.966L25.7661 21.96C26.3716 21.0922 26.6956 20.0592 26.6941 19.001C26.6958 18.3101 26.5586 17.6259 26.2906 16.9891C26.0226 16.3522 25.6293 15.7758 25.1341 15.294C25.1093 15.2697 25.0923 15.2386 25.0852 15.2046C25.0782 15.1706 25.0814 15.1352 25.0944 15.1031C25.1075 15.0709 25.1299 15.0434 25.1587 15.0239C25.1875 15.0045 25.2204 14.9941 25.2551 14.994Z" fill="#EFEFEF"/>
<path d="M51.8297 10.2183H50.2367C50.1972 9.97297 50.1121 9.73722 49.9857 9.5233C49.7452 9.11732 49.3601 8.81726 48.9077 8.6833C48.6663 8.60799 48.4145 8.57087 48.1617 8.5733C47.6877 8.5733 47.2667 8.6933 46.9007 8.9313C46.5337 9.1673 46.2467 9.5133 46.0397 9.9713C45.8317 10.4253 45.7287 10.9813 45.7287 11.6373C45.7287 12.3043 45.8317 12.8673 46.0387 13.3243C46.2497 13.7793 46.5367 14.1233 46.8997 14.3553C47.2667 14.5853 47.6857 14.7013 48.1577 14.7013C48.4187 14.7013 48.6627 14.6673 48.8907 14.5983C49.1207 14.5283 49.3267 14.4243 49.5077 14.2883C49.8918 13.9997 50.1522 13.5763 50.2367 13.1033L51.8307 13.1113C51.7728 13.5208 51.6414 13.9165 51.4427 14.2793C51.2458 14.6441 50.9846 14.9703 50.6717 15.2423C50.3537 15.5173 49.9817 15.7333 49.5547 15.8903C49.1287 16.0433 48.6557 16.1203 48.1357 16.1203C47.3687 16.1203 46.6847 15.9423 46.0817 15.5873C45.4797 15.2323 45.0057 14.7193 44.6587 14.0493C44.3127 13.3793 44.1387 12.5743 44.1387 11.6373C44.1387 10.6973 44.3137 9.8923 44.6627 9.2253C45.0127 8.5553 45.4887 8.0423 46.0907 7.6863C46.6927 7.3313 47.3747 7.1543 48.1357 7.1543C48.6217 7.1543 49.0737 7.2223 49.4907 7.3583C49.9087 7.4953 50.2807 7.6953 50.6077 7.9593C50.9347 8.2213 51.2027 8.5423 51.4127 8.9223C51.6257 9.3003 51.7647 9.7323 51.8297 10.2183ZM54.7527 12.1653V16.0003H53.2107V7.2733H54.7187V10.5673H54.7957C54.9487 10.1973 55.1857 9.9073 55.5067 9.6943C55.8307 9.4783 56.2427 9.3703 56.7427 9.3703C57.1977 9.3703 57.5937 9.4653 57.9327 9.6553C58.2697 9.8453 58.5317 10.1243 58.7157 10.4913C58.9037 10.8573 58.9977 11.3043 58.9977 11.8333V16.0003H57.4547V12.0713C57.4547 11.6313 57.3407 11.2893 57.1137 11.0443C56.8897 10.7973 56.5737 10.6743 56.1677 10.6743C55.8947 10.6743 55.6507 10.7343 55.4347 10.8533C55.2217 10.9693 55.0547 11.1383 54.9317 11.3603C54.8117 11.5813 54.7527 11.8503 54.7527 12.1653ZM60.5697 16.0003V9.4553H62.0657V10.5453H62.1337C62.2537 10.1683 62.4577 9.8773 62.7477 9.6723C63.0398 9.46565 63.3899 9.3571 63.7477 9.3623C63.8337 9.3623 63.9287 9.3663 64.0337 9.3743C64.1417 9.3803 64.2317 9.3903 64.3027 9.4043V10.8233C64.2012 10.7932 64.097 10.7731 63.9917 10.7633C63.8575 10.7437 63.7222 10.7337 63.5867 10.7333C63.3222 10.7293 63.061 10.7926 62.8277 10.9173C62.6107 11.0322 62.4294 11.2044 62.3037 11.4153C62.173 11.6386 62.1065 11.8936 62.1117 12.1523V16.0003H60.5697ZM67.9127 16.1283C67.2737 16.1283 66.7197 15.9883 66.2507 15.7063C65.7822 15.425 65.404 15.0155 65.1607 14.5263C64.9047 14.0203 64.7767 13.4293 64.7767 12.7533C64.7767 12.0773 64.9047 11.4853 65.1597 10.9763C65.4024 10.4852 65.7811 10.0743 66.2507 9.7923C66.7207 9.5103 67.2737 9.3703 67.9127 9.3703C68.5527 9.3703 69.1067 9.5103 69.5747 9.7923C70.0438 10.0736 70.4214 10.4849 70.6617 10.9763C70.9197 11.4853 71.0497 12.0773 71.0497 12.7533C71.0497 13.4293 70.9197 14.0203 70.6617 14.5263C70.4057 15.0323 70.0437 15.4263 69.5747 15.7063C69.1057 15.9883 68.5517 16.1283 67.9127 16.1283ZM67.9217 14.8923C68.2677 14.8923 68.5577 14.7973 68.7917 14.6073C69.0329 14.4014 69.2125 14.1329 69.3107 13.8313C69.4312 13.4835 69.4904 13.1174 69.4857 12.7493C69.4857 12.3493 69.4267 11.9863 69.3107 11.6623C69.2129 11.3591 69.0329 11.0891 68.7907 10.8823C68.5577 10.6893 68.2677 10.5923 67.9207 10.5923C67.5667 10.5923 67.2707 10.6893 67.0347 10.8823C66.7922 11.0897 66.611 11.3594 66.5107 11.6623C66.3977 11.9863 66.3407 12.3483 66.3407 12.7493C66.3407 13.1473 66.3977 13.5073 66.5107 13.8313C66.6277 14.1553 66.8017 14.4143 67.0357 14.6073C67.2707 14.7973 67.5657 14.8923 67.9217 14.8923ZM72.3587 16.0003V9.4553H73.8327V10.5673H73.9097C74.0457 10.1923 74.2717 9.8993 74.5877 9.6893C74.9027 9.4763 75.2787 9.3693 75.7167 9.3693C76.1597 9.3693 76.5337 9.4783 76.8367 9.6943C77.1437 9.9073 77.3597 10.1983 77.4847 10.5673H77.5537C77.6969 10.2053 77.9542 9.89987 78.2867 9.6973C78.6327 9.4793 79.0437 9.3703 79.5177 9.3703C80.1197 9.3703 80.6117 9.5603 80.9927 9.9403C81.3727 10.3213 81.5627 10.8773 81.5627 11.6073V16.0003H80.0167V11.8463C80.0167 11.4393 79.9087 11.1423 79.6927 10.9553C79.4738 10.7635 79.1906 10.6614 78.8997 10.6693C78.5277 10.6693 78.2367 10.7863 78.0267 11.0193C77.8187 11.2493 77.7157 11.5493 77.7157 11.9183V16.0003H76.2027V11.7823C76.2027 11.4443 76.0997 11.1743 75.8957 10.9723C75.6937 10.7703 75.4297 10.6693 75.1027 10.6693C74.8817 10.6693 74.6797 10.7263 74.4977 10.8393C74.3123 10.9545 74.1621 11.1185 74.0637 11.3133C73.9518 11.5318 73.8961 11.7748 73.9017 12.0203V16.0003H72.3587ZM86.0257 16.1283C85.3697 16.1283 84.8027 15.9923 84.3257 15.7193C83.8537 15.4462 83.4728 15.0399 83.2307 14.5513C82.9747 14.0463 82.8467 13.4513 82.8467 12.7663C82.8467 12.0933 82.9747 11.5023 83.2307 10.9933C83.4715 10.5014 83.8466 10.0878 84.3127 9.8003C84.7757 9.5133 85.3197 9.3703 85.9447 9.3703C86.3487 9.3703 86.7287 9.4353 87.0867 9.5663C87.4477 9.6943 87.7667 9.8923 88.0417 10.1623C88.3197 10.4323 88.5387 10.7763 88.6977 11.1943C88.8577 11.6083 88.9367 12.1033 88.9367 12.6763V13.1493H83.5717V12.1093H87.4577C87.4598 11.8348 87.3938 11.564 87.2657 11.3213C87.1453 11.093 86.9639 10.9026 86.7417 10.7713C86.5197 10.6383 86.2617 10.5713 85.9667 10.5713C85.6507 10.5713 85.3737 10.6483 85.1357 10.8013C84.8967 10.9523 84.7107 11.1513 84.5767 11.3983C84.4467 11.6423 84.3797 11.9113 84.3767 12.2043V13.1113C84.3767 13.4913 84.4467 13.8193 84.5857 14.0913C84.7257 14.3613 84.9197 14.5693 85.1697 14.7143C85.4197 14.8553 85.7117 14.9273 86.0467 14.9273C86.2717 14.9273 86.4747 14.8953 86.6567 14.8333C86.8387 14.7673 86.9967 14.6733 87.1297 14.5473C87.2627 14.4223 87.3637 14.2673 87.4327 14.0833L88.8727 14.2453C88.7817 14.6253 88.6087 14.9583 88.3527 15.2423C88.0997 15.5233 87.7757 15.7423 87.3807 15.8983C86.9867 16.0523 86.5347 16.1283 86.0257 16.1283ZM44.3597 31.0003V22.2733H50.0367V23.5983H45.9417V25.9683H49.7417V27.2933H45.9417V29.6753H50.0707V31.0003H44.3597ZM52.8427 24.4553L54.1637 26.8713L55.5057 24.4553H57.1377L55.1647 27.7283L57.1727 31.0003H55.5487L54.1637 28.6443L52.7917 31.0003H51.1557L53.1497 27.7283L51.2067 24.4553H52.8427ZM61.5997 24.4553V25.6483H57.8367V24.4553H61.5997ZM58.7657 22.8873H60.3087V29.0323C60.3087 29.2393 60.3397 29.3983 60.4027 29.5093C60.4677 29.6173 60.5527 29.6913 60.6577 29.7303C60.7697 29.7714 60.8883 29.7918 61.0077 29.7903C61.1037 29.7903 61.1917 29.7833 61.2717 29.7693C61.3537 29.7553 61.4167 29.7423 61.4597 29.7313L61.7197 30.9363C61.6367 30.9653 61.5197 30.9963 61.3657 31.0303C61.2157 31.0643 61.0307 31.0843 60.8117 31.0903C60.4552 31.1067 60.0993 31.047 59.7677 30.9153C59.467 30.7919 59.2103 30.5812 59.0307 30.3103C58.8507 30.0373 58.7627 29.6963 58.7657 29.2873V22.8873ZM65.7177 31.1283C65.0607 31.1283 64.4947 30.9923 64.0177 30.7193C63.5453 30.4464 63.164 30.0401 62.9217 29.5513C62.6667 29.0463 62.5387 28.4513 62.5387 27.7663C62.5387 27.0933 62.6657 26.5023 62.9217 25.9933C63.1627 25.5013 63.5382 25.0877 64.0047 24.8003C64.4677 24.5133 65.0117 24.3703 65.6367 24.3703C66.0397 24.3703 66.4207 24.4353 66.7787 24.5663C67.1387 24.6943 67.4577 24.8923 67.7327 25.1623C68.0117 25.4323 68.2297 25.7763 68.3887 26.1943C68.5487 26.6083 68.6287 27.1033 68.6287 27.6773V28.1503H63.2627V27.1103H67.1487C67.1513 26.8355 67.0857 26.5644 66.9577 26.3213C66.837 26.0929 66.6553 25.9024 66.4327 25.7713C66.2117 25.6383 65.9527 25.5713 65.6577 25.5713C65.3427 25.5713 65.0657 25.6483 64.8267 25.8013C64.5877 25.9523 64.4017 26.1513 64.2687 26.3983C64.1387 26.6423 64.0707 26.9113 64.0687 27.2033V28.1113C64.0687 28.4913 64.1387 28.8193 64.2767 29.0913C64.4167 29.3613 64.6107 29.5693 64.8607 29.7133C65.1107 29.8553 65.4037 29.9263 65.7387 29.9263C65.9627 29.9263 66.1657 29.8963 66.3487 29.8333C66.5297 29.7673 66.6877 29.6733 66.8207 29.5473C66.9547 29.4223 67.0557 29.2673 67.1237 29.0833L68.5637 29.2453C68.4737 29.6253 68.2997 29.9583 68.0437 30.2423C67.7917 30.5233 67.4677 30.7423 67.0727 30.8983C66.6777 31.0513 66.2257 31.1283 65.7177 31.1283ZM71.4757 27.1653V31.0003H69.9327V24.4553H71.4077V25.5673H71.4837C71.6337 25.2013 71.8747 24.9103 72.2037 24.6943C72.5367 24.4783 72.9467 24.3703 73.4357 24.3703C73.8877 24.3703 74.2807 24.4663 74.6157 24.6603C74.9537 24.8533 75.2157 25.1333 75.3997 25.4993C75.5877 25.8663 75.6797 26.3103 75.6767 26.8333V31.0003H74.1347V27.0713C74.1347 26.6343 74.0207 26.2913 73.7937 26.0443C73.5697 25.7973 73.2587 25.6743 72.8607 25.6743C72.5907 25.6743 72.3507 25.7343 72.1407 25.8533C71.9317 25.9713 71.7615 26.1474 71.6507 26.3603C71.5337 26.5813 71.4757 26.8503 71.4757 27.1653ZM82.4187 26.1853L81.0127 26.3393C80.9705 26.1928 80.8991 26.0564 80.8027 25.9383C80.6987 25.8072 80.5645 25.7033 80.4117 25.6353C80.2208 25.5534 80.0143 25.5142 79.8067 25.5203C79.4857 25.5203 79.2157 25.5903 78.9967 25.7303C78.7807 25.8683 78.6747 26.0493 78.6767 26.2703C78.6729 26.3588 78.6899 26.447 78.7264 26.5278C78.7629 26.6085 78.8178 26.6796 78.8867 26.7353C79.0307 26.8553 79.2697 26.9523 79.6017 27.0293L80.7187 27.2673C81.3377 27.4013 81.7987 27.6133 82.0987 27.9023C82.4027 28.1923 82.5567 28.5723 82.5587 29.0403C82.562 29.434 82.4347 29.8177 82.1967 30.1313C81.9617 30.4443 81.6327 30.6883 81.2127 30.8643C80.7927 31.0403 80.3097 31.1283 79.7637 31.1283C78.9627 31.1283 78.3177 30.9613 77.8297 30.6253C77.5926 30.4654 77.3921 30.2571 77.2414 30.0141C77.0908 29.771 76.9934 29.4988 76.9557 29.2153L78.4597 29.0703C78.5277 29.3663 78.6727 29.5883 78.8947 29.7393C79.1157 29.8893 79.4047 29.9653 79.7597 29.9653C80.1257 29.9653 80.4197 29.8903 80.6417 29.7393C80.8657 29.5893 80.9787 29.4023 80.9787 29.1813C80.9804 29.0923 80.9616 29.004 80.9238 28.9234C80.886 28.8428 80.8302 28.7719 80.7607 28.7163C80.6187 28.5943 80.3977 28.5003 80.0967 28.4363L78.9797 28.2003C78.3517 28.0693 77.8877 27.8493 77.5867 27.5403C77.2847 27.2273 77.1367 26.8323 77.1387 26.3543C77.1273 25.9781 77.2428 25.6089 77.4667 25.3063C77.6917 25.0083 78.0027 24.7783 78.3997 24.6163C78.8007 24.4513 79.2627 24.3693 79.7847 24.3693C80.5517 24.3693 81.1557 24.5323 81.5967 24.8593C82.0397 25.1853 82.3137 25.6283 82.4187 26.1853ZM83.8317 31.0003V24.4553H85.3737V31.0003H83.8317ZM84.6067 23.5263C84.3731 23.5301 84.1472 23.443 83.9767 23.2833C83.8928 23.2093 83.8257 23.1181 83.78 23.016C83.7343 22.9139 83.711 22.8032 83.7117 22.6913C83.7117 22.4583 83.7997 22.2613 83.9757 22.0983C84.1453 21.9361 84.372 21.8473 84.6067 21.8513C84.8537 21.8513 85.0647 21.9343 85.2367 22.0983C85.4137 22.2603 85.5017 22.4583 85.5017 22.6913C85.5017 22.9213 85.4137 23.1183 85.2377 23.2833C85.0677 23.4439 84.8404 23.5312 84.6067 23.5263ZM89.8157 31.1283C89.1757 31.1283 88.6217 30.9883 88.1537 30.7063C87.6849 30.4251 87.3063 30.0157 87.0627 29.5263C86.8067 29.0203 86.6787 28.4293 86.6787 27.7533C86.6787 27.0773 86.8067 26.4853 87.0627 25.9763C87.3051 25.4854 87.6834 25.0744 88.1527 24.7923C88.6227 24.5103 89.1757 24.3703 89.8157 24.3703C90.4547 24.3703 91.0087 24.5103 91.4777 24.7923C91.9464 25.0738 92.3237 25.485 92.5637 25.9763C92.8227 26.4853 92.9517 27.0773 92.9517 27.7533C92.9517 28.4293 92.8217 29.0203 92.5637 29.5263C92.3087 30.0323 91.9457 30.4263 91.4777 30.7063C91.0077 30.9883 90.4547 31.1283 89.8157 31.1283ZM89.8237 29.8923C90.1707 29.8923 90.4597 29.7973 90.6937 29.6073C90.9257 29.4143 91.0997 29.1553 91.2137 28.8313C91.3338 28.4834 91.3927 28.1173 91.3877 27.7493C91.3877 27.3493 91.3297 26.9863 91.2127 26.6623C91.1149 26.3592 90.9349 26.0891 90.6927 25.8823C90.4597 25.6893 90.1707 25.5923 89.8237 25.5923C89.4687 25.5923 89.1737 25.6893 88.9377 25.8823C88.6952 26.0897 88.514 26.3594 88.4137 26.6623C88.2997 26.9863 88.2437 27.3483 88.2437 27.7493C88.2437 28.1473 88.2997 28.5083 88.4137 28.8313C88.5297 29.1553 88.7037 29.4143 88.9377 29.6073C89.1737 29.7973 89.4687 29.8923 89.8237 29.8923ZM95.8037 27.1653V31.0003H94.2597V24.4553H95.7347V25.5673H95.8107C95.9617 25.2013 96.2017 24.9103 96.5307 24.6943C96.8637 24.4783 97.2737 24.3703 97.7627 24.3703C98.2147 24.3703 98.6077 24.4663 98.9427 24.6603C99.2817 24.8533 99.5427 25.1333 99.7277 25.4993C99.9147 25.8663 100.007 26.3103 100.005 26.8333V31.0003H98.4617V27.0713C98.4617 26.6343 98.3477 26.2913 98.1217 26.0443C97.8967 25.7973 97.5857 25.6743 97.1877 25.6743C96.9177 25.6743 96.6777 25.7343 96.4677 25.8533C96.2597 25.9693 96.0967 26.1383 95.9777 26.3603C95.8607 26.5813 95.8037 26.8503 95.8037 27.1653Z" fill="#EFEFEF"/>
</svg>
