<svg width="20" height="20" viewBox="0 0 20 20" fill="none" xmlns="http://www.w3.org/2000/svg">
<path d="M16.1667 16.6667H8C7.86739 16.6667 7.74021 16.614 7.64645 16.5202C7.55268 16.4265 7.5 16.2993 7.5 16.1667V8C7.5 7.86739 7.55268 7.74021 7.64645 7.64645C7.74021 7.55268 7.86739 7.5 8 7.5H16.1667C16.2993 7.5 16.4265 7.55268 16.5202 7.64645C16.614 7.74021 16.6667 7.86739 16.6667 8V16.1667C16.6667 16.2993 16.614 16.4265 16.5202 16.5202C16.4265 16.614 16.2993 16.6667 16.1667 16.6667Z" stroke="#979995" stroke-width="1.5" stroke-linecap="round" stroke-linejoin="round"/>
<path d="M12.5007 7.50065V3.83398C12.5007 3.70138 12.448 3.5742 12.3542 3.48043C12.2604 3.38666 12.1333 3.33398 12.0007 3.33398H3.83398C3.70138 3.33398 3.5742 3.38666 3.48043 3.48043C3.38666 3.5742 3.33398 3.70138 3.33398 3.83398V12.0007C3.33398 12.1333 3.38666 12.2604 3.48043 12.3542C3.5742 12.448 3.70138 12.5007 3.83398 12.5007H7.50065" stroke="#979995" stroke-width="1.5" stroke-linecap="round" stroke-linejoin="round"/>
</svg>
