<svg width="14" height="15" viewBox="0 0 14 15" fill="none" xmlns="http://www.w3.org/2000/svg">
<path d="M6.58665 0.846359C6.0954 1.30411 5.70139 1.85611 5.42811 2.46944C5.15483 3.08277 5.00788 3.74486 4.99604 4.41621C4.98419 5.08756 5.10769 5.75442 5.35916 6.37701C5.61064 6.9996 5.98493 7.56516 6.45972 8.03995C6.93452 8.51474 7.50007 8.88904 8.12266 9.14051C8.74525 9.39198 9.41211 9.51548 10.0835 9.50364C10.7548 9.49179 11.4169 9.34484 12.0302 9.07156C12.6436 8.79829 13.1956 8.40427 13.6533 7.91303C13.4413 11.403 10.544 14.167 7.00065 14.167C3.31798 14.167 0.333313 11.1824 0.333313 7.50036C0.333313 3.95703 3.09731 1.05969 6.58665 0.846359Z" fill="white"/>
</svg>
