<svg width="14" height="14" viewBox="0 0 14 14" fill="none" xmlns="http://www.w3.org/2000/svg">
<path d="M6.57257 0C6.05625 0.481116 5.64212 1.0613 5.35489 1.70594C5.06766 2.35058 4.91321 3.04647 4.90076 3.75209C4.88831 4.45772 5.01811 5.15862 5.28242 5.813C5.54674 6.46737 5.94014 7.0618 6.43917 7.56083C6.9382 8.05986 7.53263 8.45326 8.187 8.71758C8.84138 8.98189 9.54228 9.11169 10.2479 9.09924C10.9535 9.08679 11.6494 8.93234 12.2941 8.64511C12.9387 8.35788 13.5189 7.94375 14 7.42743C13.7772 11.0956 10.7319 14.0007 7.00771 14.0007C3.13704 14.0007 0 10.8637 0 6.99369C0 3.26947 2.90511 0.224224 6.57257 0Z" fill="#6F767E"/>
</svg>
