<svg xmlns="http://www.w3.org/2000/svg" width="16" height="17" viewBox="0 0 16 17" fill="none">
  <path d="M8.49956 3.1665C8.49956 3.0339 8.44688 2.90672 8.35311 2.81295C8.25935 2.71918 8.13217 2.6665 7.99956 2.6665C7.86695 2.6665 7.73978 2.71918 7.64601 2.81295C7.55224 2.90672 7.49956 3.0339 7.49956 3.1665V9.33317H3.99956C3.90073 9.33326 3.80415 9.36263 3.72201 9.41758C3.63986 9.47252 3.57584 9.55058 3.53804 9.64189C3.50023 9.7332 3.49033 9.83366 3.50958 9.93059C3.52884 10.0275 3.57639 10.1166 3.64623 10.1865L7.64623 14.1865C7.73998 14.2801 7.86706 14.3327 7.99956 14.3327C8.13206 14.3327 8.25914 14.2801 8.35289 14.1865L12.3529 10.1865C12.4227 10.1166 12.4703 10.0275 12.4895 9.93059C12.5088 9.83366 12.4989 9.7332 12.4611 9.64189C12.4233 9.55058 12.3593 9.47252 12.2771 9.41758C12.195 9.36263 12.0984 9.33326 11.9996 9.33317H8.49956V3.1665Z" fill="#979995"/>
</svg>