<svg xmlns="http://www.w3.org/2000/svg" width="16" height="16" viewBox="0 0 16 16" fill="none">
    <path
        d="M14.9719 13.993L8.39155 1.77022C8.37016 1.73045 8.33839 1.69723 8.29963 1.67406C8.26087 1.6509 8.21655 1.63867 8.1714 1.63867C8.12624 1.63867 8.08193 1.6509 8.04317 1.67406C8.0044 1.69723 7.97264 1.73045 7.95124 1.77022L1.36968 13.993C1.34918 14.0311 1.33893 14.0739 1.33991 14.1171C1.34089 14.1604 1.35308 14.2026 1.37528 14.2398C1.39748 14.2769 1.42894 14.3076 1.46657 14.329C1.50421 14.3503 1.54673 14.3615 1.58999 14.3615H14.7531C14.7962 14.3612 14.8386 14.3498 14.876 14.3284C14.9134 14.3069 14.9447 14.2762 14.9667 14.2391C14.9887 14.202 15.0007 14.1599 15.0016 14.1168C15.0026 14.0736 14.9923 14.031 14.9719 13.993ZM8.79624 12.859H7.54624V11.609H8.79624V12.859ZM8.67124 10.8615H7.67124L7.48374 5.86147H8.85874L8.67124 10.8615Z"
        fill="#FF4D52" />
</svg>