<svg width="28" height="28" viewBox="0 0 28 28" fill="none" xmlns="http://www.w3.org/2000/svg">
<path d="M28 28H0C0 26.2889 1.4 24.8889 3.11111 24.8889H24.8889C26.6156 24.8889 28 26.2733 28 28ZM24.8889 6.22222C24.8889 3.71778 23.2244 0 18.6667 0C14.1089 0 12.4444 3.71778 12.4444 6.22222V23.3333H15.5556V6.22222C15.5556 5.50667 15.82 3.11111 18.6667 3.11111C21.5133 3.11111 21.7778 5.50667 21.7778 6.22222H21V9.33333H25.6667V6.22222H24.8889ZM6.22222 14C5.36667 14 4.66667 14.7 4.66667 15.5556V17.1111H0V18.6667H4.66667V23.3333H7.77778V15.5556C7.77778 14.7 7.07778 14 6.22222 14ZM28 17.1111H23.3333V15.5556C23.3333 14.7 22.6333 14 21.7778 14C20.9222 14 20.2222 14.7 20.2222 15.5556V23.3333H23.3333V18.6667H28V17.1111Z" fill="#DDDDDD"/>
</svg>
