<svg width="28" height="28" viewBox="0 0 28 28" fill="none" xmlns="http://www.w3.org/2000/svg">
<path d="M24.3889 6.22222V6.72222H24.8889H25.1667V8.83333H21.5V6.72222H21.7778H22.2778V6.22222C22.2778 5.82247 22.207 4.93797 21.716 4.13702C21.2015 3.29776 20.2608 2.61111 18.6667 2.61111C17.0725 2.61111 16.1318 3.29776 15.6173 4.13702C15.1264 4.93797 15.0556 5.82247 15.0556 6.22222V22.8333H12.9444V6.22222C12.9444 5.06701 13.3316 3.62517 14.2381 2.48272C15.1303 1.35819 16.5424 0.5 18.6667 0.5C20.791 0.5 22.203 1.35819 23.0953 2.48272C24.0017 3.62517 24.3889 5.06701 24.3889 6.22222ZM4.66667 17.6111H5.16667V17.1111V15.5556C5.16667 14.9761 5.64281 14.5 6.22222 14.5C6.80164 14.5 7.27778 14.9761 7.27778 15.5556V22.8333H5.16667V18.6667V18.1667H4.66667H0.5V17.6111H4.66667ZM22.8333 17.1111V17.6111H23.3333H27.5V18.1667H23.3333H22.8333V18.6667V22.8333H20.7222V15.5556C20.7222 14.9761 21.1984 14.5 21.7778 14.5C22.3572 14.5 22.8333 14.9761 22.8333 15.5556V17.1111ZM0.548471 27.5C0.78374 26.3016 1.84699 25.3889 3.11111 25.3889H24.8889C26.1682 25.3889 27.222 26.2917 27.4529 27.5H0.548471Z" stroke="#B7B7B7"/>
</svg>
