<svg width="18" height="18" viewBox="0 0 18 18" fill="none" xmlns="http://www.w3.org/2000/svg">
<path d="M0.5 4C0.5 2.067 2.067 0.5 4 0.5H14C15.933 0.5 17.5 2.067 17.5 4V14C17.5 15.933 15.933 17.5 14 17.5H4C2.067 17.5 0.5 15.933 0.5 14V4Z" fill="#EEF9E5"/>
<path d="M0.5 4C0.5 2.067 2.067 0.5 4 0.5H14C15.933 0.5 17.5 2.067 17.5 4V14C17.5 15.933 15.933 17.5 14 17.5H4C2.067 17.5 0.5 15.933 0.5 14V4Z" stroke="#2F5711"/>
<path d="M3.74935 13.0833V4.33333C3.74935 4.17862 3.81081 4.03025 3.9202 3.92085C4.0296 3.81146 4.17797 3.75 4.33268 3.75H9.58268C9.73739 3.75 9.88576 3.81146 9.99516 3.92085C10.1046 4.03025 10.166 4.17862 10.166 4.33333V9H11.3327C11.6421 9 11.9388 9.12292 12.1576 9.34171C12.3764 9.5605 12.4993 9.85725 12.4993 10.1667V12.5C12.4993 12.6547 12.5608 12.8031 12.6702 12.9125C12.7796 13.0219 12.928 13.0833 13.0827 13.0833C13.2374 13.0833 13.3858 13.0219 13.4952 12.9125C13.6046 12.8031 13.666 12.6547 13.666 12.5V8.41667H12.4993C12.3446 8.41667 12.1963 8.35521 12.0869 8.24581C11.9775 8.13642 11.916 7.98804 11.916 7.83333V5.7415L10.9494 4.77492L11.7743 3.95008L14.6618 6.83758C14.716 6.89168 14.759 6.95596 14.7884 7.02674C14.8177 7.09751 14.8328 7.17339 14.8327 7.25V12.5C14.8327 12.9641 14.6483 13.4092 14.3201 13.7374C13.9919 14.0656 13.5468 14.25 13.0827 14.25C12.6186 14.25 12.1734 14.0656 11.8452 13.7374C11.5171 13.4092 11.3327 12.9641 11.3327 12.5V10.1667H10.166V13.0833H10.7493V14.25H3.16602V13.0833H3.74935ZM4.91602 4.91667V8.41667H8.99935V4.91667H4.91602Z" fill="#2F5711"/>
</svg>
