<svg width="18" height="18" viewBox="0 0 18 18" fill="none" xmlns="http://www.w3.org/2000/svg">
<path d="M0.5 4C0.5 2.067 2.067 0.5 4 0.5H14C15.933 0.5 17.5 2.067 17.5 4V14C17.5 15.933 15.933 17.5 14 17.5H4C2.067 17.5 0.5 15.933 0.5 14V4Z" fill="#292F23"/>
<path d="M0.5 4C0.5 2.067 2.067 0.5 4 0.5H14C15.933 0.5 17.5 2.067 17.5 4V14C17.5 15.933 15.933 17.5 14 17.5H4C2.067 17.5 0.5 15.933 0.5 14V4Z" stroke="#D7F5BF"/>
<path d="M3.75033 13.0833V4.33333C3.75033 4.17862 3.81178 4.03025 3.92118 3.92085C4.03058 3.81146 4.17895 3.75 4.33366 3.75H9.58366C9.73837 3.75 9.88674 3.81146 9.99614 3.92085C10.1055 4.03025 10.167 4.17862 10.167 4.33333V9H11.3337C11.6431 9 11.9398 9.12292 12.1586 9.34171C12.3774 9.5605 12.5003 9.85725 12.5003 10.1667V12.5C12.5003 12.6547 12.5618 12.8031 12.6712 12.9125C12.7806 13.0219 12.9289 13.0833 13.0837 13.0833C13.2384 13.0833 13.3867 13.0219 13.4961 12.9125C13.6055 12.8031 13.667 12.6547 13.667 12.5V8.41667H12.5003C12.3456 8.41667 12.1972 8.35521 12.0878 8.24581C11.9784 8.13642 11.917 7.98804 11.917 7.83333V5.7415L10.9504 4.77492L11.7752 3.95008L14.6627 6.83758C14.717 6.89168 14.76 6.95596 14.7893 7.02674C14.8187 7.09751 14.8337 7.17339 14.8337 7.25V12.5C14.8337 12.9641 14.6493 13.4092 14.3211 13.7374C13.9929 14.0656 13.5478 14.25 13.0837 14.25C12.6195 14.25 12.1744 14.0656 11.8462 13.7374C11.518 13.4092 11.3337 12.9641 11.3337 12.5V10.1667H10.167V13.0833H10.7503V14.25H3.16699V13.0833H3.75033ZM4.91699 4.91667V8.41667H9.00033V4.91667H4.91699Z" fill="#D7F5BF"/>
</svg>
