<svg xmlns="http://www.w3.org/2000/svg" width="20" height="20" viewBox="0 0 20 20" fill="none">
<path d="M3.33333 2.5H16.6667C16.8877 2.5 17.0996 2.5878 17.2559 2.74408C17.4122 2.90036 17.5 3.11232 17.5 3.33333V4.655C17.5 4.876 17.4121 5.08792 17.2558 5.24417L11.91 10.5892C11.754 10.7455 11.6665 10.9575 11.6667 11.1783V16.4325C11.6667 16.5592 11.6378 16.6842 11.5822 16.798C11.5267 16.9118 11.4459 17.0115 11.346 17.0894C11.2461 17.1674 11.1298 17.2215 11.0059 17.2477C10.882 17.274 10.7537 17.2716 10.6308 17.2408L8.96417 16.8242C8.78396 16.779 8.62401 16.675 8.50971 16.5285C8.39542 16.3821 8.33334 16.2016 8.33333 16.0158V11.1783C8.33329 10.9573 8.24546 10.7454 8.08917 10.5892L2.74333 5.24417C2.58735 5.08779 2.49983 4.87588 2.5 4.655V3.33333C2.5 3.11232 2.5878 2.90036 2.74408 2.74408C2.90036 2.5878 3.11232 2.5 3.33333 2.5Z" stroke="#232521" stroke-width="1.5" stroke-linecap="round" stroke-linejoin="round"/>
</svg>