<svg width="24" height="24" viewBox="0 0 24 24" fill="none" xmlns="http://www.w3.org/2000/svg">
<path d="M12.5999 3.2999C12.5999 3.06121 12.5051 2.83229 12.3363 2.66351C12.1675 2.49472 11.9386 2.3999 11.6999 2.3999C11.4612 2.3999 11.2323 2.49472 11.0635 2.66351C10.8947 2.83229 10.7999 3.06121 10.7999 3.2999V10.7999H3.2999C3.06121 10.7999 2.83229 10.8947 2.66351 11.0635C2.49472 11.2323 2.3999 11.4612 2.3999 11.6999C2.3999 11.9386 2.49472 12.1675 2.66351 12.3363C2.83229 12.5051 3.06121 12.5999 3.2999 12.5999H10.7999V20.0999C10.7999 20.3386 10.8947 20.5675 11.0635 20.7363C11.2323 20.9051 11.4612 20.9999 11.6999 20.9999C11.9386 20.9999 12.1675 20.9051 12.3363 20.7363C12.5051 20.5675 12.5999 20.3386 12.5999 20.0999V12.5999H20.0999C20.3386 12.5999 20.5675 12.5051 20.7363 12.3363C20.9051 12.1675 20.9999 11.9386 20.9999 11.6999C20.9999 11.4612 20.9051 11.2323 20.7363 11.0635C20.5675 10.8947 20.3386 10.7999 20.0999 10.7999H12.5999V3.2999Z" fill="#777E90"/>
</svg>
