<svg xmlns="http://www.w3.org/2000/svg" width="47" height="49" viewBox="0 0 47 49" fill="none">
  <path d="M46.844 24.5034C46.844 22.7909 46.6907 21.1443 46.406 19.5635H23.7168V28.9055H36.6821C36.1236 31.9244 34.4263 34.4822 31.8748 36.1947V42.2544H39.6606C44.2159 38.0499 46.844 31.8585 46.844 24.5034Z" fill="#4285F4"/>
  <path d="M23.8777 48.0973C30.316 48.0973 35.7138 45.9265 39.6592 42.224L31.9527 36.1414C29.8175 37.5959 27.086 38.4554 23.8777 38.4554C17.667 38.4554 12.4101 34.191 10.535 28.4609H2.56836V34.7419C6.49206 42.6648 14.5562 48.0973 23.8777 48.0973Z" fill="#34A853"/>
  <path d="M10.629 28.712C10.1534 27.2545 9.88323 25.6976 9.88323 24.0966C9.88323 22.4955 10.1534 20.9387 10.629 19.4812V13.1875H2.68527C1.02087 16.5725 0.154783 20.3085 0.156252 24.0966C0.156252 28.0163 1.07491 31.7263 2.68527 35.0057L10.629 28.712Z" fill="#FBBC05"/>
  <path d="M24.0281 9.73854C27.5538 9.73854 30.7192 10.9617 33.2079 13.3639L40.0956 6.41072C35.9368 2.49888 30.5009 0.0966797 24.0281 0.0966797C14.6408 0.0966797 6.51974 5.52918 2.56836 13.452L10.5912 19.733C12.4796 14.003 17.7735 9.73854 24.0281 9.73854Z" fill="#EA4335"/>
</svg>