<svg width="137" height="40" viewBox="0 0 137 40" fill="none" xmlns="http://www.w3.org/2000/svg">
<path d="M1.14258 8C1.14258 3.85786 4.50044 0.5 8.64258 0.5H128.357C132.499 0.5 135.857 3.85786 135.857 8V32C135.857 36.1421 132.499 39.5 128.357 39.5H8.64257C4.50044 39.5 1.14258 36.1421 1.14258 32V8Z" stroke="#F7F7F7"/>
<path d="M69.1358 21.7517C66.7837 21.7517 64.8673 23.5402 64.8673 26.0045C64.8673 28.4531 66.7837 30.2574 69.1358 30.2574C71.4887 30.2574 73.4058 28.4531 73.4058 26.0045C73.4051 23.5402 71.488 21.7517 69.1358 21.7517ZM69.1358 28.5831C67.8473 28.5831 66.7358 27.5202 66.7358 26.0052C66.7358 24.4745 67.848 23.4274 69.1358 23.4274C70.4251 23.4274 71.5358 24.4745 71.5358 26.0059C71.5358 27.5195 70.4251 28.5831 69.1358 28.5831ZM59.8215 21.7517C57.4701 21.7517 55.553 23.5402 55.553 26.0045C55.553 28.4531 57.4701 30.2574 59.8223 30.2574C62.1751 30.2574 64.0923 28.4531 64.0923 26.0045C64.0923 23.5402 62.1744 21.7517 59.8215 21.7517ZM59.8215 28.5831C58.533 28.5831 57.4215 27.5202 57.4215 26.0052C57.4215 24.4745 58.5344 23.4274 59.8215 23.4274C61.1108 23.4274 62.2215 24.4745 62.2215 26.0059C62.223 27.5195 61.1108 28.5831 59.8215 28.5831ZM48.7451 23.0574V24.8617H53.063C52.9344 25.8759 52.5958 26.6174 52.0794 27.1324C51.4515 27.761 50.4687 28.4538 48.7444 28.4538C46.0873 28.4538 44.0087 26.3109 44.0087 23.6524C44.0087 20.9945 46.0873 18.8517 48.7444 18.8517C50.1787 18.8517 51.2258 19.4159 51.9987 20.1402L53.2715 18.8674C52.1915 17.8367 50.7587 17.0474 48.7444 17.0474C45.1037 17.0474 42.043 20.0117 42.043 23.6524C42.043 27.2931 45.1037 30.2574 48.7444 30.2574C50.7101 30.2574 52.193 29.6124 53.3515 28.4045C54.5444 27.2124 54.9151 25.5367 54.9151 24.1831C54.9193 23.8054 54.8867 23.4281 54.818 23.0567L48.7451 23.0574ZM94.053 24.4581C93.6987 23.5081 92.6187 21.7509 90.4115 21.7509C88.2208 21.7509 86.4001 23.4752 86.4001 26.0045C86.4001 28.3881 88.2051 30.2574 90.6208 30.2574C92.5701 30.2574 93.698 29.0652 94.1658 28.3724L92.7158 27.4052C92.233 28.1145 91.5715 28.5817 90.6208 28.5817C89.6708 28.5817 88.9937 28.1459 88.5587 27.2924L94.2458 24.9402L94.053 24.4581ZM88.253 25.8767C88.2051 24.2324 89.5258 23.3952 90.4765 23.3952C91.218 23.3952 91.8458 23.7667 92.0558 24.2974L88.253 25.8767ZM83.6294 30.0002H85.4973V17.5002H83.6294V30.0002ZM80.5673 22.7024H80.503C80.0844 22.2024 79.278 21.7517 78.2644 21.7517C76.1373 21.7517 74.188 23.6202 74.188 26.0217C74.188 28.4052 76.1373 30.2581 78.2644 30.2581C79.2794 30.2581 80.0844 29.8074 80.503 29.2924H80.5673V29.9045C80.5673 31.5317 79.6973 32.4017 78.2958 32.4017C77.1523 32.4017 76.443 31.5802 76.153 30.8874L74.5258 31.5645C74.993 32.6917 76.233 34.0774 78.2958 34.0774C80.4873 34.0774 82.3401 32.7881 82.3401 29.6467V22.0109H80.568L80.5673 22.7024ZM78.4251 28.5831C77.1358 28.5831 76.0573 27.5031 76.0573 26.0217C76.0573 24.5224 77.1358 23.4274 78.4251 23.4274C79.6973 23.4274 80.6958 24.5224 80.6958 26.0217C80.6958 27.5031 79.6973 28.5831 78.4251 28.5831ZM102.806 17.5002H98.3351V30.0002H100.2V25.2645H102.805C104.873 25.2645 106.907 23.7674 106.907 21.3824C106.907 18.9974 104.874 17.5002 102.806 17.5002ZM102.854 23.5252H100.2V19.2395H102.854C104.249 19.2395 105.041 20.3952 105.041 21.3831C105.041 22.3509 104.249 23.5252 102.854 23.5252ZM114.386 21.7302C113.035 21.7302 111.636 22.3252 111.057 23.6445L112.713 24.3352C113.067 23.6438 113.727 23.4181 114.418 23.4181C115.383 23.4181 116.364 23.9967 116.38 25.0259V25.1545C116.042 24.9617 115.318 24.6731 114.434 24.6731C112.649 24.6731 110.831 25.6538 110.831 27.4874C110.831 29.1602 112.295 30.2374 113.935 30.2374C115.189 30.2374 115.881 29.6738 116.315 29.0138H116.379V29.9788H118.181V25.1859C118.182 22.9681 116.524 21.7302 114.386 21.7302ZM114.16 28.5809C113.55 28.5809 112.697 28.2752 112.697 27.5188C112.697 26.5545 113.759 26.1838 114.676 26.1838C115.495 26.1838 115.882 26.3609 116.38 26.6024C116.235 27.7609 115.238 28.5809 114.16 28.5809ZM124.743 22.0031L122.604 27.4231H122.54L120.32 22.0031H118.31L121.639 29.5781L119.741 33.7924H121.687L126.818 22.0031H124.743ZM107.937 30.0002H109.802V17.5002H107.937V30.0002ZM48.418 10.2431C48.418 11.0809 48.1701 11.7481 47.673 12.2459C47.1087 12.8388 46.373 13.1345 45.4694 13.1345C44.603 13.1345 43.8658 12.8345 43.2608 12.2345C42.6551 11.6331 42.3523 10.8895 42.3523 10.0009C42.3523 9.11238 42.6551 8.36809 43.2608 7.76809C43.8658 7.16738 44.6037 6.86738 45.4694 6.86738C45.8994 6.86738 46.3101 6.95095 46.7001 7.11809C47.0908 7.28595 47.4044 7.50881 47.638 7.78809L47.1108 8.31666C46.7144 7.84095 46.1673 7.60381 45.468 7.60381C44.8358 7.60381 44.2901 7.82595 43.8294 8.27023C43.368 8.71452 43.138 9.29166 43.138 10.0002C43.138 10.7088 43.368 11.2859 43.8294 11.7302C44.2901 12.1745 44.8365 12.3959 45.468 12.3959C46.138 12.3959 46.6965 12.1731 47.1444 11.7259C47.4344 11.4352 47.6015 11.0302 47.6473 10.5117H45.4687V9.79023H48.3751C48.4051 9.94738 48.418 10.0981 48.418 10.2431ZM53.0287 7.73738H50.2965V9.63952H52.7608V10.3602H50.2965V12.2624H53.028V13.0002H49.5251V7.00023H53.028L53.0287 7.73738ZM56.2787 13.0002H55.508V7.73738H53.8323V7.00023H57.9551V7.73738H56.2794L56.2787 13.0002ZM60.938 13.0002V7.00023H61.7094V13.0002H60.938ZM65.1287 13.0002H64.3573V7.73738H62.6815V7.00023H66.8044V7.73738H65.128L65.1287 13.0002ZM74.6087 12.2252C74.0187 12.8309 73.2858 13.1345 72.4087 13.1345C71.5323 13.1345 70.7987 12.8309 70.2101 12.2252C69.6201 11.6195 69.3258 10.8774 69.3258 10.0002C69.3258 9.12309 69.6201 8.38095 70.2101 7.77523C70.7987 7.16952 71.5315 6.86523 72.4087 6.86523C73.2808 6.86523 74.013 7.17023 74.6051 7.77952C75.1973 8.38809 75.493 9.12809 75.493 10.0002C75.493 10.8774 75.198 11.6195 74.6087 12.2252ZM70.7787 11.7224C71.223 12.1724 71.7658 12.3959 72.4087 12.3959C73.0523 12.3959 73.5958 12.1709 74.0387 11.7224C74.483 11.2724 74.7058 10.6981 74.7058 10.0002C74.7058 9.30238 74.483 8.72881 74.0387 8.27881C73.5958 7.82881 73.0523 7.60452 72.4087 7.60452C71.7658 7.60452 71.223 7.82952 70.7787 8.27809C70.3358 8.72809 70.113 9.30238 70.113 10.0002C70.113 10.6981 70.3358 11.2724 70.7787 11.7224ZM76.5751 13.0002V7.00023H77.513L80.4287 11.6674H80.4623L80.4287 10.5109V7.00023H81.2001V13.0002H80.3951L77.3437 8.10595H77.3108L77.3437 9.26238V13.0002H76.5751Z" fill="#EFEFEF"/>
<path d="M48.4173 10.2431C48.4173 11.0809 48.1694 11.7481 47.6723 12.2459C47.108 12.8388 46.3723 13.1345 45.4687 13.1345C44.6023 13.1345 43.8651 12.8345 43.2601 12.2345C42.6544 11.6331 42.3516 10.8895 42.3516 10.0009C42.3516 9.11238 42.6544 8.36809 43.2601 7.76809C43.8651 7.16738 44.603 6.86738 45.4687 6.86738C45.8987 6.86738 46.3094 6.95095 46.6994 7.11809C47.0901 7.28595 47.4037 7.50881 47.6373 7.78809L47.1101 8.31666C46.7137 7.84095 46.1666 7.60381 45.4673 7.60381C44.8351 7.60381 44.2894 7.82595 43.8287 8.27023C43.3673 8.71452 43.1373 9.29166 43.1373 10.0002C43.1373 10.7088 43.3673 11.2859 43.8287 11.7302C44.2894 12.1745 44.8358 12.3959 45.4673 12.3959C46.1373 12.3959 46.6958 12.1731 47.1437 11.7259C47.4337 11.4352 47.6008 11.0302 47.6466 10.5117H45.468V9.79023H48.3744C48.4044 9.94738 48.4173 10.0981 48.4173 10.2431ZM53.028 7.73738H50.2958V9.63952H52.7601V10.3602H50.2958V12.2624H53.0273V13.0002H49.5244V7.00023H53.0273L53.028 7.73738ZM56.278 13.0002H55.5073V7.73738H53.8316V7.00023H57.9544V7.73738H56.2787L56.278 13.0002ZM60.9373 13.0002V7.00023H61.7087V13.0002H60.9373ZM65.128 13.0002H64.3566V7.73738H62.6808V7.00023H66.8037V7.73738H65.1273L65.128 13.0002ZM74.608 12.2252C74.018 12.8309 73.2851 13.1345 72.408 13.1345C71.5316 13.1345 70.798 12.8309 70.2094 12.2252C69.6194 11.6195 69.3251 10.8774 69.3251 10.0002C69.3251 9.12309 69.6194 8.38095 70.2094 7.77523C70.798 7.16952 71.5309 6.86523 72.408 6.86523C73.2801 6.86523 74.0123 7.17023 74.6044 7.77952C75.1966 8.38809 75.4923 9.12809 75.4923 10.0002C75.4923 10.8774 75.1973 11.6195 74.608 12.2252ZM70.778 11.7224C71.2223 12.1724 71.7651 12.3959 72.408 12.3959C73.0516 12.3959 73.5951 12.1709 74.038 11.7224C74.4823 11.2724 74.7051 10.6981 74.7051 10.0002C74.7051 9.30238 74.4823 8.72881 74.038 8.27881C73.5951 7.82881 73.0516 7.60452 72.408 7.60452C71.7651 7.60452 71.2223 7.82952 70.778 8.27809C70.3351 8.72809 70.1123 9.30238 70.1123 10.0002C70.1123 10.6981 70.3351 11.2724 70.778 11.7224ZM76.5744 13.0002V7.00023H77.5123L80.428 11.6674H80.4616L80.428 10.5109V7.00023H81.1994V13.0002H80.3944L77.343 8.10595H77.3101L77.343 9.26238V13.0002H76.5744Z" stroke="#EFEFEF" stroke-width="0.2" stroke-miterlimit="10"/>
<path fill-rule="evenodd" clip-rule="evenodd" d="M11.2227 7.83168C11.0619 8.12097 10.9727 8.49525 10.9727 8.94311V31.0595C10.9727 31.5081 11.0627 31.8824 11.2227 32.1717L23.3912 20.0003L11.2227 7.8324V7.83168ZM11.7155 32.6888C12.1762 32.956 12.8127 32.9231 13.5134 32.526L27.7991 24.4081L23.8969 20.506L11.7162 32.6881L11.7155 32.6888ZM28.4441 24.0431L33.0141 21.446C34.4112 20.651 34.4112 19.3524 33.0141 18.5581L28.4419 15.9603L24.4019 20.0003L28.4441 24.0431ZM27.7977 15.5945L13.5134 7.47668C12.8127 7.07882 12.1762 7.04668 11.7162 7.31454L23.8969 19.4953L27.7977 15.5931V15.5945Z" fill="#EFEFEF"/>
</svg>
