<svg xmlns="http://www.w3.org/2000/svg" width="19" height="16" viewBox="0 0 19 16" fill="none">
<path d="M1.14332 5.05273L8.35915 1.44523C8.42851 1.4106 8.50497 1.39258 8.58249 1.39258C8.66001 1.39258 8.73646 1.4106 8.80582 1.44523L16.0217 5.05356C16.1046 5.09511 16.1744 5.15894 16.2232 5.2379C16.272 5.31686 16.2978 5.40784 16.2978 5.50064C16.2978 5.59345 16.272 5.68443 16.2232 5.76339C16.1744 5.84235 16.1046 5.90617 16.0217 5.94773L8.80582 9.55523C8.73646 9.58985 8.66001 9.60788 8.58249 9.60788C8.50497 9.60788 8.42851 9.58985 8.35915 9.55523L1.14332 5.94689C1.06034 5.90534 0.990554 5.84151 0.941785 5.76255C0.893017 5.68359 0.867188 5.59262 0.867188 5.49981C0.867188 5.407 0.893017 5.31603 0.941785 5.23707C0.990554 5.15811 1.06034 5.09428 1.14332 5.05273Z" stroke="#979995" stroke-width="1.5" stroke-linecap="round" stroke-linejoin="round"/>
<path d="M17.75 8.83398V5.91732L16.0833 5.08398M2.75 6.75065V11.2607C2.74994 11.576 2.83932 11.8848 3.00778 12.1514C3.17623 12.4179 3.41684 12.6312 3.70167 12.7665L7.86833 14.7448C8.09176 14.8509 8.33599 14.906 8.58333 14.906C8.83067 14.906 9.07491 14.8509 9.29833 14.7448L13.465 12.7665C13.7498 12.6312 13.9904 12.4179 14.1589 12.1514C14.3273 11.8848 14.4167 11.576 14.4167 11.2607V6.75065" stroke="#979995" stroke-width="1.5" stroke-linecap="round" stroke-linejoin="round"/>
</svg>