<svg width="24" height="25" viewBox="0 0 24 25" fill="none" xmlns="http://www.w3.org/2000/svg">
<path fill-rule="evenodd" clip-rule="evenodd" d="M19.6017 15.9786C20.6327 14.9444 21.455 13.7011 22 12.3182C20.4273 8.32727 16.5455 5.5 12 5.5C11.1149 5.5 10.255 5.6072 9.43236 5.80931L11.4311 7.80804C11.6175 7.78473 11.8073 7.77273 12 7.77273C14.5091 7.77273 16.5455 9.80909 16.5455 12.3182C16.5455 12.5108 16.5334 12.7007 16.5101 12.8871L19.6017 15.9786ZM11.2087 9.70694L14.6112 13.1095C14.2731 14.2312 13.2338 15.0455 12 15.0455C10.4909 15.0455 9.27273 13.8273 9.27273 12.3182C9.27273 11.0844 10.0869 10.0451 11.2087 9.70694ZM9.82707 8.32534C8.41393 9.09648 7.45455 10.596 7.45455 12.3182C7.45455 14.8273 9.49091 16.8636 12 16.8636C13.7222 16.8636 15.2217 15.9042 15.9928 14.4911L18.4688 16.9671C16.6697 18.3286 14.4296 19.1364 12 19.1364C7.45455 19.1364 3.57273 16.3091 2 12.3182C3.06211 9.623 5.17733 7.45852 7.83886 6.33714L9.82707 8.32534Z" fill="#979797"/>
<path fill-rule="evenodd" clip-rule="evenodd" d="M19.9999 20.5001L3.99989 4.50011L5.06055 3.43945L21.0605 19.4395L19.9999 20.5001Z" fill="#979797"/>
</svg>
