<svg width="21" height="20" viewBox="0 0 21 20" fill="none" xmlns="http://www.w3.org/2000/svg">
<path d="M1.5 18.4V1.6C1.5 1.44087 1.56321 1.28826 1.67574 1.17574C1.78826 1.06321 1.94087 1 2.1 1H18.9C19.0591 1 19.2117 1.06321 19.3243 1.17574C19.4368 1.28826 19.5 1.44087 19.5 1.6V18.4C19.5 18.5591 19.4368 18.7117 19.3243 18.8243C19.2117 18.9368 19.0591 19 18.9 19H2.1C1.94087 19 1.78826 18.9368 1.67574 18.8243C1.56321 18.7117 1.5 18.5591 1.5 18.4Z" stroke="#686A66" stroke-width="1.5"/>
<path d="M14 14C14.1326 14 14.2598 13.9473 14.3536 13.8536C14.4473 13.7598 14.5 13.6326 14.5 13.5C14.5 13.3674 14.4473 13.2402 14.3536 13.1464C14.2598 13.0527 14.1326 13 14 13C13.8674 13 13.7402 13.0527 13.6464 13.1464C13.5527 13.2402 13.5 13.3674 13.5 13.5C13.5 13.6326 13.5527 13.7598 13.6464 13.8536C13.7402 13.9473 13.8674 14 14 14ZM7 7C7.13261 7 7.25979 6.94732 7.35355 6.85355C7.44732 6.75979 7.5 6.63261 7.5 6.5C7.5 6.36739 7.44732 6.24021 7.35355 6.14645C7.25979 6.05268 7.13261 6 7 6C6.86739 6 6.74021 6.05268 6.64645 6.14645C6.55268 6.24021 6.5 6.36739 6.5 6.5C6.5 6.63261 6.55268 6.75979 6.64645 6.85355C6.74021 6.94732 6.86739 7 7 7Z" fill="#686A66" stroke="#686A66" stroke-width="1.5" stroke-linecap="round" stroke-linejoin="round"/>
<path d="M14.5 6L6.5 14" stroke="#686A66" stroke-width="1.5" stroke-linecap="round" stroke-linejoin="round"/>
</svg>
