<svg width="24" height="24" viewBox="0 0 24 24" fill="none" xmlns="http://www.w3.org/2000/svg">
<path d="M9.28811 15.88L13.1681 12L9.28811 8.11999C9.19553 8.02741 9.12209 7.9175 9.07199 7.79653C9.02188 7.67557 8.99609 7.54592 8.99609 7.41499C8.99609 7.28406 9.02188 7.15441 9.07199 7.03345C9.12209 6.91248 9.19553 6.80257 9.28811 6.70999C9.3807 6.61741 9.49061 6.54397 9.61157 6.49386C9.73254 6.44376 9.86218 6.41797 9.99311 6.41797C10.124 6.41797 10.2537 6.44376 10.3747 6.49386C10.4956 6.54397 10.6055 6.61741 10.6981 6.70999L15.2881 11.3C15.6781 11.69 15.6781 12.32 15.2881 12.71L10.6981 17.3C10.6056 17.3927 10.4957 17.4662 10.3747 17.5164C10.2538 17.5666 10.1241 17.5924 9.99311 17.5924C9.86215 17.5924 9.73246 17.5666 9.61149 17.5164C9.49052 17.4662 9.38063 17.3927 9.28811 17.3C8.90811 16.91 8.89811 16.27 9.28811 15.88Z" fill="#979995"/>
</svg>
