<svg width="18" height="18" viewBox="0 0 18 18" fill="none" xmlns="http://www.w3.org/2000/svg">
<path d="M0.75 4C0.75 2.20507 2.20507 0.75 4 0.75H14C15.7949 0.75 17.25 2.20507 17.25 4V14C17.25 15.7949 15.7949 17.25 14 17.25H4C2.20507 17.25 0.75 15.7949 0.75 14V4Z" fill="#EEF9E5"/>
<path d="M0.75 4C0.75 2.20507 2.20507 0.75 4 0.75H14C15.7949 0.75 17.25 2.20507 17.25 4V14C17.25 15.7949 15.7949 17.25 14 17.25H4C2.20507 17.25 0.75 15.7949 0.75 14V4Z" stroke="#5EA402" stroke-width="1.5"/>
<path d="M13.8125 7.6875H9.875L10.75 2.4375L4.1875 10.3125H8.125L7.25 15.5625L13.8125 7.6875Z" fill="#5EA402"/>
</svg>
