<svg width="24" height="24" viewBox="0 0 24 24" fill="none" xmlns="http://www.w3.org/2000/svg">
<path d="M13.6628 21.5C13.1918 21.5 12.8779 21.094 12.8779 20.688V19.6325C12.8779 19.4701 12.7994 19.3889 12.6424 19.3889H10.5232C10.3663 19.3889 10.2878 19.4701 10.2878 19.6325V20.688C10.2878 21.1752 9.89534 21.5 9.5029 21.5C9.11046 21.5 8.71802 21.094 8.71802 20.688V19.6325C8.71802 19.4701 8.63953 19.3889 8.48255 19.3889H6.28488C5.81395 19.3889 5.5 18.9829 5.5 18.5769C5.5 18.0897 5.89244 17.765 6.28488 17.765H7.30523C7.46221 17.765 7.54069 17.6838 7.54069 17.5214V6.55983C7.61918 6.47863 7.46221 6.31624 7.38372 6.31624H6.28488C5.81395 6.31624 5.5 5.91026 5.5 5.50427C5.5 5.09829 5.89244 4.69231 6.28488 4.69231H8.40406C8.56104 4.69231 8.63953 4.61111 8.63953 4.44872V3.31197C8.63953 2.82479 9.03197 2.5 9.42441 2.5C9.81685 2.5 10.2093 2.90598 10.2093 3.31197V4.36752C10.2093 4.52991 10.2878 4.61111 10.4448 4.61111H12.5639C12.7209 4.61111 12.7994 4.52991 12.7994 4.36752V3.31197C12.7994 2.82479 13.1918 2.5 13.5843 2.5C14.0552 2.5 14.3692 2.90598 14.3692 3.31197V4.52991C14.3692 4.61111 14.4477 4.7735 14.5261 4.7735C16.2529 5.26068 17.5087 6.88461 17.5087 8.75214C17.5087 9.7265 17.1947 10.6197 16.5668 11.3504C16.4884 11.4316 16.4884 11.5128 16.4884 11.5128C16.4884 11.594 16.5668 11.6752 16.5668 11.6752C17.1163 12 17.6657 12.406 17.9796 13.0556C18.686 14.4359 18.686 15.9786 17.9011 17.2778C17.3517 18.5769 16.0959 19.3077 14.6831 19.3077C14.5261 19.3077 14.4477 19.3889 14.4477 19.5513V20.5256C14.4477 21.094 14.1337 21.5 13.6628 21.5ZM9.42441 12.812C9.26743 12.812 9.18895 12.8932 9.18895 13.0556V17.359C9.18895 17.5214 9.26743 17.6026 9.42441 17.6026H14.6046C15.625 17.6026 16.5668 16.953 16.8808 15.9786C17.1163 15.2479 16.9593 14.4359 16.5668 13.7863C16.0959 13.2179 15.3895 12.812 14.6831 12.812H9.42441ZM9.42441 6.31624C9.34592 6.31624 9.18895 6.47863 9.18895 6.55983V10.8632C9.18895 11.0256 9.26743 11.1068 9.42441 11.1068H13.5058C14.5261 11.1068 15.468 10.4573 15.782 9.4829C16.0174 8.67094 15.9389 7.94017 15.468 7.2906C15.0756 6.72222 14.3692 6.31624 13.6628 6.31624H9.42441Z" fill="#494949"/>
</svg>
