<svg width="14" height="20" viewBox="0 0 14 20" fill="none" xmlns="http://www.w3.org/2000/svg">
<path d="M8.66278 19.5C8.19185 19.5 7.87789 19.094 7.87789 18.688V17.6325C7.87789 17.4701 7.7994 17.3889 7.64243 17.3889H5.52325C5.36627 17.3889 5.28778 17.4701 5.28778 17.6325V18.688C5.28778 19.1752 4.89534 19.5 4.5029 19.5C4.11046 19.5 3.71802 19.094 3.71802 18.688V17.6325C3.71802 17.4701 3.63953 17.3889 3.48255 17.3889H1.28488C0.813953 17.3889 0.5 16.9829 0.5 16.5769C0.5 16.0897 0.892441 15.765 1.28488 15.765H2.30523C2.46221 15.765 2.54069 15.6838 2.54069 15.5214V4.55983C2.61918 4.47863 2.46221 4.31624 2.38372 4.31624H1.28488C0.813953 4.31624 0.5 3.91026 0.5 3.50427C0.5 3.09829 0.892441 2.69231 1.28488 2.69231H3.40406C3.56104 2.69231 3.63953 2.61111 3.63953 2.44872V1.31197C3.63953 0.824786 4.03197 0.5 4.42441 0.5C4.81685 0.5 5.20929 0.905983 5.20929 1.31197V2.36752C5.20929 2.52991 5.28778 2.61111 5.44476 2.61111H7.56394C7.72092 2.61111 7.79941 2.52991 7.79941 2.36752V1.31197C7.79941 0.824786 8.19185 0.5 8.58429 0.5C9.05522 0.5 9.36917 0.905983 9.36917 1.31197V2.52991C9.36917 2.61111 9.44766 2.7735 9.52614 2.7735C11.2529 3.26068 12.5087 4.88461 12.5087 6.75214C12.5087 7.7265 12.1947 8.61966 11.5668 9.35043C11.4884 9.43162 11.4884 9.51282 11.4884 9.51282C11.4884 9.59402 11.5668 9.67521 11.5668 9.67521C12.1163 10 12.6657 10.406 12.9796 11.0556C13.686 12.4359 13.686 13.9786 12.9011 15.2778C12.3517 16.5769 11.0959 17.3077 9.68312 17.3077C9.52615 17.3077 9.44766 17.3889 9.44766 17.5513V18.5256C9.44766 19.094 9.13371 19.5 8.66278 19.5ZM4.42441 10.812C4.26743 10.812 4.18895 10.8932 4.18895 11.0556V15.359C4.18895 15.5214 4.26743 15.6026 4.42441 15.6026H9.60463C10.625 15.6026 11.5668 14.953 11.8808 13.9786C12.1163 13.2479 11.9593 12.4359 11.5668 11.7863C11.0959 11.2179 10.3895 10.812 9.68312 10.812H4.42441ZM4.42441 4.31624C4.34592 4.31624 4.18895 4.47863 4.18895 4.55983V8.86325C4.18895 9.02564 4.26743 9.10684 4.42441 9.10684H8.5058C9.52615 9.10684 10.468 8.45726 10.782 7.4829C11.0174 6.67094 10.9389 5.94017 10.468 5.2906C10.0756 4.72222 9.36917 4.31624 8.66278 4.31624H4.42441Z" fill="#494949"/>
</svg>
