<svg width="24" height="24" viewBox="0 0 24 24" fill="none" xmlns="http://www.w3.org/2000/svg">
<path d="M10 17H9.333C8.80257 17 8.29386 16.7893 7.91879 16.4142C7.54371 16.0391 7.333 15.5304 7.333 15V13.111C7.333 12.556 6 12 6 12C6 12 7.333 11.444 7.333 10.889V9C7.333 8.46957 7.54371 7.96086 7.91879 7.58579C8.29386 7.21071 8.80257 7 9.333 7H10M14 17H14.667C14.9296 17 15.1897 16.9483 15.4324 16.8478C15.675 16.7472 15.8955 16.5999 16.0812 16.4142C16.2669 16.2285 16.4142 16.008 16.5148 15.7654C16.6153 15.5227 16.667 15.2626 16.667 15V13.111C16.667 12.556 18 12 18 12C18 12 16.667 11.444 16.667 10.889V9C16.667 8.46957 16.4563 7.96086 16.0812 7.58579C15.7061 7.21071 15.1974 7 14.667 7H14" stroke="#232521" stroke-width="1.5" stroke-linecap="round" stroke-linejoin="round"/>
<path d="M21 3.6V20.4C21 20.5591 20.9368 20.7117 20.8243 20.8243C20.7117 20.9368 20.5591 21 20.4 21H3.6C3.44087 21 3.28826 20.9368 3.17574 20.8243C3.06321 20.7117 3 20.5591 3 20.4V3.6C3 3.44087 3.06321 3.28826 3.17574 3.17574C3.28826 3.06321 3.44087 3 3.6 3H20.4C20.5591 3 20.7117 3.06321 20.8243 3.17574C20.9368 3.28826 21 3.44087 21 3.6Z" stroke="#232521" stroke-width="1.5" stroke-linecap="round" stroke-linejoin="round"/>
</svg>
