<svg xmlns="http://www.w3.org/2000/svg" width="20" height="20" viewBox="0 0 20 20" fill="none">
    <path d="M16 2H19" stroke="#494949" stroke-width="1.5" stroke-linecap="round"
        stroke-linejoin="round" />
    <path
        d="M8 19C8.26522 19 8.51957 18.8946 8.70711 18.7071C8.89464 18.5196 9 18.2652 9 18C9 17.7348 8.89464 17.4804 8.70711 17.2929C8.51957 17.1054 8.26522 17 8 17C7.73478 17 7.48043 17.1054 7.29289 17.2929C7.10536 17.4804 7 17.7348 7 18C7 18.2652 7.10536 18.5196 7.29289 18.7071C7.48043 18.8946 7.73478 19 8 19ZM12 3C12.2652 3 12.5196 2.89464 12.7071 2.70711C12.8946 2.51957 13 2.26522 13 2C13 1.73478 12.8946 1.48043 12.7071 1.29289C12.5196 1.10536 12.2652 1 12 1C11.7348 1 11.4804 1.10536 11.2929 1.29289C11.1054 1.48043 11 1.73478 11 2C11 2.26522 11.1054 2.51957 11.2929 2.70711C11.4804 2.89464 11.7348 3 12 3Z"
        fill="#494949" stroke="#494949" stroke-width="1.5" stroke-linecap="round"
        stroke-linejoin="round" />
    <path d="M8 18C8 18 14.5 15.5 10 10C5.5 4.5 12 2 12 2M1 18H4" stroke="#494949"
        stroke-width="1.5" stroke-linecap="round" stroke-linejoin="round" />
</svg>