<svg width="24" height="24" viewBox="0 0 24 24" fill="none" xmlns="http://www.w3.org/2000/svg">
<path d="M5.164 17.0009C5.44857 15.9683 5.8275 14.9641 6.296 14.0009M11.5 7.79488C12.2885 7.22422 13.1249 6.72301 14 6.29688M4.5 22.0009C3.83696 22.0009 3.20107 21.7375 2.73223 21.2686C2.26339 20.7998 2 20.1639 2 19.5009C2 18.8378 2.26339 18.2019 2.73223 17.7331C3.20107 17.2643 3.83696 17.0009 4.5 17.0009C5.16304 17.0009 5.79893 17.2643 6.26777 17.7331C6.73661 18.2019 7 18.8378 7 19.5009C7 20.1639 6.73661 20.7998 6.26777 21.2686C5.79893 21.7375 5.16304 22.0009 4.5 22.0009Z" stroke="#494949" stroke-width="1.5" stroke-linecap="round" stroke-linejoin="round"/>
<path d="M9.5 12C8.83696 12 8.20107 11.7366 7.73223 11.2678C7.26339 10.7989 7 10.163 7 9.5C7 8.83696 7.26339 8.20107 7.73223 7.73223C8.20107 7.26339 8.83696 7 9.5 7C10.163 7 10.7989 7.26339 11.2678 7.73223C11.7366 8.20107 12 8.83696 12 9.5C12 10.163 11.7366 10.7989 11.2678 11.2678C10.7989 11.7366 10.163 12 9.5 12ZM19.5 7C18.837 7 18.2011 6.73661 17.7322 6.26777C17.2634 5.79893 17 5.16304 17 4.5C17 3.83696 17.2634 3.20107 17.7322 2.73223C18.2011 2.26339 18.837 2 19.5 2C20.163 2 20.7989 2.26339 21.2678 2.73223C21.7366 3.20107 22 3.83696 22 4.5C22 5.16304 21.7366 5.79893 21.2678 6.26777C20.7989 6.73661 20.163 7 19.5 7Z" stroke="#494949" stroke-width="1.5" stroke-linecap="round" stroke-linejoin="round"/>
</svg>
