<svg width="20" height="20" viewBox="0 0 20 20" fill="none" xmlns="http://www.w3.org/2000/svg">
<path fill-rule="evenodd" clip-rule="evenodd" d="M8.77315 4.55778C8.89019 4.67497 8.95593 4.83382 8.95593 4.99945C8.95593 5.16508 8.89019 5.32393 8.77315 5.44112L4.83981 9.37445H16.6648C16.8306 9.37445 16.9895 9.4403 17.1068 9.55751C17.224 9.67472 17.2898 9.83369 17.2898 9.99945C17.2898 10.1652 17.224 10.3242 17.1068 10.4414C16.9895 10.5586 16.8306 10.6244 16.6648 10.6244H4.83981L8.77315 14.5578C8.83455 14.615 8.88381 14.684 8.91797 14.7607C8.95213 14.8373 8.97049 14.9201 8.97197 15.004C8.97346 15.0879 8.95802 15.1713 8.92658 15.2491C8.89515 15.3269 8.84836 15.3976 8.78901 15.457C8.72966 15.5163 8.65897 15.5631 8.58115 15.5946C8.50332 15.626 8.41997 15.6414 8.33605 15.6399C8.25213 15.6385 8.16937 15.6201 8.0927 15.5859C8.01603 15.5518 7.94703 15.5025 7.88982 15.4411L2.88981 10.4411C2.77277 10.3239 2.70703 10.1651 2.70703 9.99945C2.70703 9.83382 2.77277 9.67497 2.88981 9.55778L7.88982 4.55778C8.007 4.44074 8.16586 4.375 8.33148 4.375C8.49711 4.375 8.65596 4.44074 8.77315 4.55778Z" fill="#232521"/>
</svg>
