<svg width="24" height="24" viewBox="0 0 24 24" fill="none" xmlns="http://www.w3.org/2000/svg">
<path d="M4 21.4V2.6C4 2.44087 4.06321 2.28826 4.17574 2.17574C4.28826 2.06321 4.44087 2 4.6 2H16.252C16.4111 2.00014 16.5636 2.06345 16.676 2.176L19.824 5.324C19.88 5.3799 19.9243 5.44632 19.9545 5.51943C19.9847 5.59254 20.0002 5.6709 20 5.75V21.4C20 21.4788 19.9845 21.5568 19.9543 21.6296C19.9242 21.7024 19.88 21.7685 19.8243 21.8243C19.7685 21.88 19.7024 21.9242 19.6296 21.9543C19.5568 21.9845 19.4788 22 19.4 22H4.6C4.52121 22 4.44319 21.9845 4.37039 21.9543C4.29759 21.9242 4.23145 21.88 4.17574 21.8243C4.12002 21.7685 4.07583 21.7024 4.04567 21.6296C4.01552 21.5568 4 21.4788 4 21.4Z" stroke="#494949" stroke-width="1.5" stroke-linecap="round" stroke-linejoin="round"/>
<path d="M16 2V5.4C16 5.55913 16.0632 5.71174 16.1757 5.82426C16.2883 5.93679 16.4409 6 16.6 6H20" stroke="#494949" stroke-width="1.5" stroke-linecap="round" stroke-linejoin="round"/>
<path d="M14.75 9.53846C14.1221 8.95885 13.0166 8.55608 12 8.53069M12 8.53069C10.79 8.50023 9.70833 9.00538 9.70833 10.3846C9.70833 12.9231 14.75 11.6538 14.75 14.1923C14.75 15.6401 13.408 16.262 12 16.2155M12 8.53069V7M9.25 15.0385C9.84033 15.7662 10.9394 16.1808 12 16.2155M12 16.2155V18" stroke="#494949" stroke-width="1.5" stroke-linecap="round" stroke-linejoin="round"/>
</svg>
