<svg width="24" height="24" viewBox="0 0 24 24" fill="none" xmlns="http://www.w3.org/2000/svg">
<path d="M2 9V5.6C2 5.44087 2.06321 5.28826 2.17574 5.17574C2.28826 5.06321 2.44087 5 2.6 5H21.4C21.5591 5 21.7117 5.06321 21.8243 5.17574C21.9368 5.28826 22 5.44087 22 5.6V18.4C22 18.5591 21.9368 18.7117 21.8243 18.8243C21.7117 18.9368 21.5591 19 21.4 19H2.6C2.44087 19 2.28826 18.9368 2.17574 18.8243C2.06321 18.7117 2 18.5591 2 18.4V9ZM2 9H16" stroke="#EFEFEF" stroke-width="1.5" stroke-linecap="round" stroke-linejoin="round"/>
<path d="M15.6 12.5H18.4C18.4552 12.5 18.5 12.5448 18.5 12.6V15.4C18.5 15.4552 18.4552 15.5 18.4 15.5H15.6C15.5448 15.5 15.5 15.4552 15.5 15.4V12.6C15.5 12.5448 15.5448 12.5 15.6 12.5Z" stroke="#EFEFEF"/>
</svg>
