<svg width="20" height="20" viewBox="0 0 20 20" fill="none" xmlns="http://www.w3.org/2000/svg">
<path d="M10.0003 10H15.8337M15.8337 10L13.3337 12.5M15.8337 10L13.3337 7.5M15.8337 5V4.16667C15.8337 3.72464 15.6581 3.30072 15.3455 2.98816C15.0329 2.67559 14.609 2.5 14.167 2.5H5.83366C5.39163 2.5 4.96771 2.67559 4.65515 2.98816C4.34259 3.30072 4.16699 3.72464 4.16699 4.16667V15.8333C4.16699 16.2754 4.34259 16.6993 4.65515 17.0118C4.96771 17.3244 5.39163 17.5 5.83366 17.5H14.167C14.609 17.5 15.0329 17.3244 15.3455 17.0118C15.6581 16.6993 15.8337 16.2754 15.8337 15.8333V15" stroke="#979995" stroke-width="1.5" stroke-linecap="round" stroke-linejoin="round"/>
</svg>
