<svg width="16" height="16" viewBox="0 0 16 16" fill="none" xmlns="http://www.w3.org/2000/svg">
<path d="M0 8C0 3.58172 3.58172 0 8 0C12.4183 0 16 3.58172 16 8C16 12.4183 12.4183 16 8 16C3.58172 16 0 12.4183 0 8Z" fill="#232125"/>
<path d="M11.365 3.3337C11.0203 3.33459 10.69 3.47205 10.4464 3.71596C10.2029 3.95987 10.0659 4.29035 10.0655 4.63504V5.31937C9.68221 4.53865 9.02564 3.92577 8.22038 3.59698C7.41514 3.2682 6.51723 3.24638 5.69697 3.53565C5.00608 3.78059 4.40796 4.23342 3.98477 4.83195C3.56157 5.43048 3.33407 6.14534 3.3335 6.87837V11.365C3.3335 11.7103 3.47066 12.0414 3.7148 12.2855C3.95895 12.5297 4.29008 12.6668 4.63535 12.6668C4.98062 12.6668 5.31176 12.5297 5.5559 12.2855C5.80004 12.0414 5.93721 11.7103 5.93721 11.365V10.6821C6.32046 11.4626 6.97684 12.0752 7.78185 12.4037C8.58686 12.7322 9.48445 12.7538 10.3043 12.4644C10.995 12.2195 11.5929 11.7668 12.016 11.1685C12.439 10.5701 12.6663 9.85544 12.6668 9.12265V4.63504C12.6663 4.28997 12.529 3.9592 12.2849 3.71524C12.0409 3.47129 11.7101 3.33408 11.365 3.3337ZM9.1221 12.3065C8.44151 12.3093 7.77813 12.0929 7.23014 11.6893C6.68217 11.2857 6.27873 10.7164 6.0796 10.0656L6.07428 10.0467C5.98286 9.74724 5.93669 9.43577 5.93721 9.12265V6.87837C5.93747 6.62865 6.03679 6.38926 6.21343 6.21274C6.39004 6.03622 6.6295 5.93699 6.87921 5.93687C7.12868 5.93751 7.36773 6.03691 7.54409 6.21336C7.72044 6.38981 7.81972 6.6289 7.82025 6.87837V9.12169C7.82066 9.46692 7.95809 9.79789 8.20237 10.0419C8.38462 10.2233 8.61649 10.3468 8.86878 10.3967C9.12107 10.4466 9.38248 10.4207 9.62009 10.3223C9.85769 10.2239 10.0609 10.0574 10.204 9.84377C10.3471 9.63011 10.4238 9.37886 10.4244 9.12169V4.63504C10.4244 4.51146 10.4488 4.3891 10.4961 4.27493C10.5434 4.16076 10.6127 4.05702 10.7001 3.96964C10.7874 3.88226 10.8912 3.81294 11.0053 3.76565C11.1195 3.71836 11.2419 3.69402 11.3655 3.69402C11.489 3.69402 11.6114 3.71836 11.7256 3.76565C11.8398 3.81294 11.9435 3.88226 12.0309 3.96964C12.1183 4.05702 12.1876 4.16076 12.2349 4.27493C12.2822 4.3891 12.3065 4.51146 12.3065 4.63504V9.12169C12.3068 9.53998 12.2247 9.95422 12.0648 10.3407C11.9049 10.7272 11.6703 11.0784 11.3745 11.3742C11.0788 11.67 10.7276 11.9046 10.3411 12.0646C9.95463 12.2246 9.5404 12.3068 9.1221 12.3065ZM10.0655 9.12169C10.0654 9.30777 10.0101 9.48963 9.90669 9.64436C9.8033 9.79906 9.6564 9.91972 9.48456 9.99108C9.3127 10.0624 9.12357 10.0813 8.94097 10.0454C8.7584 10.0095 8.59055 9.92027 8.45858 9.78906C8.36194 9.69333 8.28739 9.57763 8.24015 9.45006C8.23144 9.42728 8.22368 9.40161 8.21593 9.37594L8.21302 9.36287L8.21013 9.35076C8.20577 9.3338 8.20141 9.31685 8.1985 9.29894C8.1985 9.29265 8.1985 9.28586 8.1951 9.27909V9.26891C8.1951 9.25294 8.19026 9.23696 8.18882 9.22049C8.18735 9.20401 8.18882 9.20062 8.18882 9.18754C8.18882 9.17447 8.18882 9.15511 8.18882 9.13912V6.87837C8.18849 6.70683 8.15434 6.53703 8.08834 6.37868C8.02232 6.22035 7.92573 6.07659 7.80408 5.95563C7.68245 5.83468 7.53814 5.73888 7.37945 5.67373C7.22073 5.60861 7.05075 5.57541 6.87921 5.57605C6.53393 5.57644 6.2029 5.71376 5.95873 5.95791C5.71459 6.20207 5.57725 6.53308 5.57687 6.87837V11.365C5.57687 11.6147 5.47767 11.8542 5.3011 12.0307C5.12453 12.2073 4.88506 12.3065 4.63535 12.3065C4.38564 12.3065 4.14616 12.2073 3.96959 12.0307C3.79303 11.8542 3.69383 11.6147 3.69383 11.365V6.87837C3.69439 6.11486 3.96917 5.37697 4.46814 4.79907C4.9671 4.22116 5.65706 3.8417 6.41231 3.72979C7.16758 3.61788 7.93793 3.78097 8.58303 4.18936C9.22815 4.59774 9.7051 5.22425 9.92704 5.95479L9.94011 5.99741C10.023 6.28373 10.0652 6.58029 10.0655 6.87837V9.12169Z" fill="url(#paint0_linear_5521_164884)"/>
<defs>
<linearGradient id="paint0_linear_5521_164884" x1="3.97354" y1="12.0137" x2="15.0958" y2="0.874455" gradientUnits="userSpaceOnUse">
<stop offset="0.05" stop-color="white"/>
<stop offset="0.38" stop-color="#A7B3FF"/>
<stop offset="1" stop-color="#74A4FF"/>
</linearGradient>
</defs>
</svg>
