<svg width="24" height="24" viewBox="0 0 24 24" fill="none" xmlns="http://www.w3.org/2000/svg">
<path d="M5 16V14M12 21V19M19 13V11M5 8V6M12 13V11M19 5V3M7 8.6V13.4C7 13.5591 6.93679 13.7117 6.82426 13.8243C6.71174 13.9368 6.55913 14 6.4 14H3.6C3.44087 14 3.28826 13.9368 3.17574 13.8243C3.06321 13.7117 3 13.5591 3 13.4V8.6C3 8.44087 3.06321 8.28826 3.17574 8.17574C3.28826 8.06321 3.44087 8 3.6 8H6.4C6.55913 8 6.71174 8.06321 6.82426 8.17574C6.93679 8.28826 7 8.44087 7 8.6ZM14 13.6V18.4C14 18.5591 13.9368 18.7117 13.8243 18.8243C13.7117 18.9368 13.5591 19 13.4 19H10.6C10.4409 19 10.2883 18.9368 10.1757 18.8243C10.0632 18.7117 10 18.5591 10 18.4V13.6C10 13.4409 10.0632 13.2883 10.1757 13.1757C10.2883 13.0632 10.4409 13 10.6 13H13.4C13.5591 13 13.7117 13.0632 13.8243 13.1757C13.9368 13.2883 14 13.4409 14 13.6ZM21 5.6V10.4C21 10.5591 20.9368 10.7117 20.8243 10.8243C20.7117 10.9368 20.5591 11 20.4 11H17.6C17.5212 11 17.4432 10.9845 17.3704 10.9543C17.2976 10.9242 17.2315 10.88 17.1757 10.8243C17.12 10.7685 17.0758 10.7024 17.0457 10.6296C17.0155 10.5568 17 10.4788 17 10.4V5.6C17 5.52121 17.0155 5.44319 17.0457 5.37039C17.0758 5.29759 17.12 5.23145 17.1757 5.17574C17.2315 5.12002 17.2976 5.07583 17.3704 5.04567C17.4432 5.01552 17.5212 5 17.6 5H20.4C20.5591 5 20.7117 5.06321 20.8243 5.17574C20.9368 5.28826 21 5.44087 21 5.6Z" stroke="#494949" stroke-width="1.5" stroke-linecap="round" stroke-linejoin="round"/>
</svg>
