<svg width="24" height="24" viewBox="0 0 24 24" fill="none" xmlns="http://www.w3.org/2000/svg">
<path d="M0 12C0 5.37258 5.37258 0 12 0C18.6274 0 24 5.37258 24 12C24 18.6274 18.6274 24 12 24C5.37258 24 0 18.6274 0 12Z" fill="#1A154F"/>
<path d="M19.0358 7.02862C18.8709 6.40161 18.3407 5.7746 17.3863 5.07662C16.6205 4.52059 15.8075 4.20117 15.1595 4.20117C15.0299 4.20117 14.9121 4.21301 14.7942 4.23666C14.4997 4.29583 14.2405 4.50875 14.0755 4.82818C13.8752 5.20673 13.8281 5.71547 13.9577 6.02305C14.0048 6.11768 14.0637 6.23598 14.1345 6.34248C13.51 6.72103 13.1565 6.8275 13.1094 6.83934C14.7353 7.38353 16.0903 8.51927 16.9386 9.99804L16.9504 9.8561C16.9857 9.45386 17.1035 9.01613 17.2685 8.55476C17.4334 8.60208 17.5984 8.62573 17.7633 8.62573C18.1993 8.62573 18.5763 8.44826 18.8119 8.12887C19.0476 7.80945 19.1418 7.39537 19.0358 7.02862Z" fill="#5E12A0"/>
<path d="M17.3342 8.21141C18.4064 8.50718 18.8423 7.67906 18.701 7.12303C18.5596 6.567 18.0529 5.99913 17.181 5.36028C16.3092 4.72144 15.4255 4.46118 14.86 4.57949C14.2944 4.69779 14.1295 5.5614 14.2709 5.89267C14.3298 6.02278 14.4594 6.21209 14.6361 6.42501C14.4122 6.57881 14.2002 6.69711 14.0234 6.80361C15.1074 7.28863 16.05 8.04578 16.7569 8.9922C16.8394 8.67278 16.9572 8.38888 17.0633 8.14043C17.1457 8.16408 17.24 8.18776 17.3342 8.21141Z" fill="url(#paint0_radial_1610_96899)"/>
<path d="M11.1956 19.8172C14.833 19.8172 17.7818 16.8564 17.7818 13.204C17.7818 9.55164 14.833 6.59082 11.1956 6.59082C7.55811 6.59082 4.60938 9.55164 4.60938 13.204C4.60938 16.8564 7.55811 19.8172 11.1956 19.8172Z" fill="url(#paint1_radial_1610_96899)"/>
<path opacity="0.6" d="M18.164 6.59069C17.2685 5.64426 16.5145 5.39581 15.6072 5.19469C14.9003 5.02906 15.0888 4.62685 15.9489 4.70963C15.5365 4.56768 15.1477 4.5322 14.865 4.59133C14.2994 4.70963 14.1345 5.57328 14.2759 5.90451C14.3347 6.03465 14.4644 6.22393 14.6411 6.43689C14.323 6.64982 14.052 6.80365 13.8281 6.92195C13.9342 6.96924 14.0638 7.02841 14.2169 7.11123C14.6175 7.32415 15.0535 7.67906 15.0535 7.67906C14.3937 7.11123 14.5351 6.85094 15.4423 6.21209C15.725 6.01101 16.2435 6.03466 16.7265 6.2831C17.2096 6.53152 17.7752 7.15856 17.7752 7.15856L17.2332 8.19961C17.2685 8.21145 17.3039 8.22329 17.3392 8.23509C17.6809 8.32975 17.9519 8.30607 18.164 8.22329C18.4114 8.06946 19.0594 7.53711 18.164 6.59069Z" fill="#A98698"/>
<path d="M15.5886 5.76268C15.8243 5.85734 16.1306 6.02294 16.5077 6.27138C16.9554 6.56716 17.3442 6.89839 17.5916 7.15868C17.1792 7.70287 16.9082 8.44818 16.7433 8.96872C16.8258 9.08702 16.92 9.20533 17.0025 9.32363C17.085 9.02785 17.2264 8.59013 17.4149 8.15244C17.462 8.16424 17.5209 8.16424 17.5799 8.16424C17.7212 8.16424 17.8862 8.14059 18.0158 8.03413C18.11 7.96312 18.2161 7.83301 18.2043 7.5964C18.2043 7.3716 18.0275 7.0877 17.6623 6.7446C17.4031 6.49615 17.0497 6.22406 16.6962 5.97564C15.6829 5.30131 14.976 5.11203 14.6579 5.43142C14.4458 5.64438 14.4694 5.90463 14.54 6.09395C14.163 6.34236 13.8449 6.51983 13.6328 6.63814C13.7742 6.68546 13.9038 6.7446 14.0452 6.80377C14.4222 6.59081 14.9642 6.24774 15.5886 5.76268ZM17.8155 7.44261C17.8508 7.50175 17.8626 7.56088 17.8626 7.5964C17.8626 7.70287 17.8272 7.73836 17.8037 7.762C17.7566 7.79749 17.6623 7.82117 17.5799 7.82117C17.6505 7.69103 17.733 7.56092 17.8155 7.44261ZM14.9053 5.67987C14.9406 5.64438 15.0349 5.62073 15.1881 5.64438C15.0702 5.73904 14.9524 5.82185 14.8346 5.90463C14.8228 5.82185 14.8346 5.75084 14.9053 5.67987Z" fill="#5E12A0"/>
<path d="M11.1938 6.20068C7.34103 6.20068 4.21875 9.33575 4.21875 13.2043C4.21875 17.0728 7.34103 20.2079 11.1938 20.2079C15.0466 20.2079 18.1688 17.0728 18.1688 13.2043C18.1571 9.33575 15.0348 6.20068 11.1938 6.20068ZM11.1938 19.8056C7.55312 19.8056 4.60759 16.848 4.60759 13.1924C4.60759 9.53686 7.55312 6.57924 11.1938 6.57924C14.8345 6.57924 17.78 9.53686 17.78 13.1924C17.7682 16.848 14.8227 19.8056 11.1938 19.8056Z" fill="#5E12A0"/>
<path opacity="0.6" d="M11.1956 19.8172C14.833 19.8172 17.7818 16.8564 17.7818 13.204C17.7818 9.55164 14.833 6.59082 11.1956 6.59082C7.55811 6.59082 4.60938 9.55164 4.60938 13.204C4.60938 16.8564 7.55811 19.8172 11.1956 19.8172Z" fill="url(#paint2_linear_1610_96899)"/>
<path opacity="0.6" d="M11.1506 19.0008C7.55704 18.4211 5.11815 15.0258 5.70724 11.4175C5.96645 9.82045 6.76763 8.45994 7.89872 7.47803C6.24924 8.4363 5.02391 10.1044 4.69397 12.1392C4.11665 15.7475 6.55558 19.1428 10.1374 19.7225C12.1403 20.0537 14.0726 19.4267 15.4982 18.1964C14.2375 18.9417 12.7058 19.2611 11.1506 19.0008Z" fill="#A98698"/>
<path opacity="0.6" d="M12.2427 6.67358C10.5814 6.40148 8.96723 6.78007 7.64762 7.62C7.62405 7.64369 7.6005 7.66733 7.6005 7.66733C8.10712 7.35975 8.84941 7.08766 8.84941 7.08766C6.94068 8.19972 6.35156 9.46557 6.35156 9.46557C7.09385 8.02224 9.27359 7.00484 10.982 6.93386C12.6904 6.86285 13.8097 7.37156 15.1764 8.47181C16.5431 9.58384 17.3679 11.8553 17.2854 13.6535C17.2148 15.4517 16.2722 16.9069 16.2722 16.9069C16.9202 16.0669 17.309 15.4517 17.5564 14.8247C17.6036 14.6354 17.6506 14.4461 17.6743 14.245C18.2633 10.6486 15.8362 7.26509 12.2427 6.67358Z" fill="url(#paint3_linear_1610_96899)"/>
<path d="M17.4541 13.1328C17.4541 16.5991 14.65 19.4147 11.1978 19.4147C7.74564 19.4147 4.92969 16.5991 4.92969 13.1328H17.4541Z" fill="url(#paint4_linear_1610_96899)"/>
<g opacity="0.6">
<path opacity="0.6" d="M16.9621 13.1328C16.9621 16.5163 14.2993 19.2846 10.9531 19.4147C11.0356 19.4147 11.1181 19.4147 11.2006 19.4147C14.6528 19.4147 17.4569 16.5991 17.4569 13.1328H16.9621Z" fill="url(#paint5_linear_1610_96899)"/>
</g>
<g opacity="0.7">
<path d="M5.81337 13.1328H4.92969C4.92969 16.5991 7.73383 19.4147 11.186 19.4147C11.3392 19.4147 11.4806 19.4147 11.6219 19.4029C8.38185 19.1781 5.81337 16.4572 5.81337 13.1328Z" fill="url(#paint6_linear_1610_96899)"/>
</g>
<path d="M17.4423 13.2043C17.4423 12.4826 16.1934 12.0685 14.5321 11.9266C13.3304 11.8319 12.1168 11.9502 10.7265 12.3761C9.52474 12.731 8.44077 12.6719 7.65136 12.5773C5.89584 12.3761 4.92969 12.3524 4.92969 13.2043C4.92969 14.4346 7.4275 15.9726 11.1742 15.4402C13.0712 15.1681 14.0491 14.6121 15.1684 14.2335C16.3819 13.8194 17.4423 13.8431 17.4423 13.2043Z" fill="url(#paint7_linear_1610_96899)"/>
<path d="M13.24 10.211C13.8257 10.211 14.3005 9.73432 14.3005 9.14627C14.3005 8.55823 13.8257 8.08154 13.24 8.08154C12.6544 8.08154 12.1797 8.55823 12.1797 9.14627C12.1797 9.73432 12.6544 10.211 13.24 10.211Z" fill="white"/>
<path d="M14.979 11.0036C15.2262 11.0036 15.4267 10.8023 15.4267 10.5541C15.4267 10.3058 15.2262 10.1045 14.979 10.1045C14.7317 10.1045 14.5312 10.3058 14.5312 10.5541C14.5312 10.8023 14.7317 11.0036 14.979 11.0036Z" fill="white"/>
<g opacity="0.6">
<path d="M16.5767 8.30634C16.565 8.30634 16.5532 8.30634 16.5532 8.30634C16.4825 8.2945 16.4354 8.22352 16.4471 8.14071C16.5532 7.59652 17.0009 7.07598 17.0245 7.05233C17.0716 6.99316 17.1659 6.99316 17.213 7.04049C17.2719 7.08782 17.2719 7.18247 17.2247 7.22977C17.213 7.24161 16.8006 7.72666 16.7064 8.19988C16.6945 8.25901 16.6356 8.30634 16.5767 8.30634Z" fill="url(#paint8_linear_1610_96899)"/>
</g>
<path d="M15.1577 4.21296C15.8175 4.21296 16.6304 4.53238 17.3845 5.08838C18.3389 5.78639 18.8691 6.40156 19.034 7.0404C19.1282 7.40716 19.0458 7.8212 18.8102 8.12878C18.5627 8.44821 18.1974 8.62568 17.7615 8.62568C17.6084 8.62568 17.4434 8.602 17.2667 8.5547C17.1606 8.8268 17.0782 9.09889 17.0193 9.35915C17.7379 10.4594 18.1621 11.7844 18.1621 13.204C18.1621 17.0726 15.0398 20.2076 11.1871 20.2076C7.33431 20.2076 4.22383 17.0726 4.22383 13.204C4.22383 9.3355 7.34611 6.20044 11.1989 6.20044C12.0472 6.20044 12.8602 6.35423 13.6142 6.63817C13.7556 6.56719 13.9323 6.47253 14.1326 6.35423C14.0619 6.24777 13.9913 6.14131 13.9559 6.03484C13.8263 5.71542 13.8734 5.21852 14.0737 4.83997C14.2387 4.53238 14.4861 4.31942 14.7924 4.24845C14.8985 4.22477 15.0281 4.21296 15.1577 4.21296ZM15.1577 4C15.0163 4 14.8749 4.01184 14.7453 4.04733C14.3918 4.13014 14.0855 4.36675 13.8852 4.74531C13.6613 5.18304 13.6025 5.75091 13.7556 6.11762C13.7792 6.16495 13.8027 6.22412 13.8381 6.28326C13.7556 6.33058 13.6731 6.37791 13.5906 6.4134C12.813 6.1413 12.0118 5.99932 11.1871 5.99932C10.221 5.99932 9.27838 6.18863 8.39473 6.56719C7.53463 6.93394 6.7688 7.45445 6.10898 8.11698C5.44919 8.77947 4.93077 9.54846 4.56551 10.4121C4.18848 11.2993 4 12.2458 4 13.2159C4 14.1859 4.18848 15.1324 4.56551 16.0197C4.93077 16.8833 5.44919 17.6522 6.10898 18.3148C6.7688 18.9773 7.53463 19.4978 8.39473 19.8645C9.27838 20.2431 10.221 20.4324 11.1871 20.4324C12.1532 20.4324 13.0958 20.2431 13.9794 19.8645C14.8396 19.4978 15.6054 18.9773 16.2652 18.3148C16.925 17.6522 17.4434 16.8833 17.8087 16.0197C18.1857 15.1324 18.3742 14.1859 18.3742 13.2159C18.3742 11.8317 17.9854 10.4949 17.2431 9.3355C17.2784 9.15803 17.3374 8.98059 17.3963 8.80312C17.5141 8.8268 17.6437 8.8386 17.7615 8.8386C18.2564 8.8386 18.6923 8.63752 18.9751 8.25893C19.2461 7.90402 19.3521 7.40716 19.2343 6.99308C19.0458 6.30694 18.5038 5.65625 17.5023 4.93459C16.7129 4.33126 15.8528 4 15.1577 4Z" fill="white"/>
<path opacity="0.2" d="M10.7596 18.1254C10.9418 18.1254 11.0895 17.9771 11.0895 17.7941C11.0895 17.6112 10.9418 17.4629 10.7596 17.4629C10.5774 17.4629 10.4297 17.6112 10.4297 17.7941C10.4297 17.9771 10.5774 18.1254 10.7596 18.1254Z" fill="white"/>
<g opacity="0.4">
<path opacity="0.6" d="M10.574 18.0187C10.4444 17.8886 10.4444 17.6756 10.574 17.5455C10.5976 17.5219 10.6212 17.51 10.6447 17.4863C10.5976 17.4982 10.5623 17.5218 10.5269 17.5573C10.3973 17.6874 10.3973 17.9004 10.5269 18.0306C10.6329 18.137 10.7979 18.1607 10.9275 18.0897C10.8097 18.137 10.6683 18.1134 10.574 18.0187Z" fill="url(#paint9_linear_1610_96899)"/>
</g>
<path opacity="0.3" d="M10.8753 17.6996C10.9144 17.6996 10.946 17.6678 10.946 17.6286C10.946 17.5894 10.9144 17.5576 10.8753 17.5576C10.8363 17.5576 10.8047 17.5894 10.8047 17.6286C10.8047 17.6678 10.8363 17.6996 10.8753 17.6996Z" fill="white"/>
<path opacity="0.2" d="M12.4862 17.9599C12.6684 17.9599 12.816 17.8116 12.816 17.6286C12.816 17.4457 12.6684 17.2974 12.4862 17.2974C12.304 17.2974 12.1562 17.4457 12.1562 17.6286C12.1562 17.8116 12.304 17.9599 12.4862 17.9599Z" fill="white"/>
<g opacity="0.4">
<path opacity="0.6" d="M12.2927 17.842C12.1631 17.7118 12.1631 17.4988 12.2927 17.3687C12.3163 17.3451 12.3399 17.3332 12.3634 17.3096C12.3163 17.3214 12.281 17.3451 12.2456 17.3805C12.116 17.5107 12.116 17.7236 12.2456 17.8538C12.3516 17.9603 12.5166 17.9839 12.6462 17.9129C12.5284 17.9721 12.387 17.9484 12.2927 17.842Z" fill="url(#paint10_linear_1610_96899)"/>
</g>
<path opacity="0.3" d="M12.6019 17.5336C12.641 17.5336 12.6726 17.5018 12.6726 17.4626C12.6726 17.4234 12.641 17.3916 12.6019 17.3916C12.5629 17.3916 12.5312 17.4234 12.5312 17.4626C12.5312 17.5018 12.5629 17.5336 12.6019 17.5336Z" fill="white"/>
<path opacity="0.2" d="M11.6303 18.7288C11.7669 18.7288 11.8777 18.6176 11.8777 18.4804C11.8777 18.3432 11.7669 18.2319 11.6303 18.2319C11.4936 18.2319 11.3828 18.3432 11.3828 18.4804C11.3828 18.6176 11.4936 18.7288 11.6303 18.7288Z" fill="white"/>
<g opacity="0.4">
<path opacity="0.6" d="M11.4888 18.6458C11.3946 18.5511 11.3946 18.3855 11.4888 18.2909C11.5006 18.279 11.5242 18.2672 11.536 18.2554C11.5006 18.2672 11.4771 18.2909 11.4535 18.3145C11.3593 18.4092 11.3593 18.5748 11.4535 18.6694C11.536 18.7522 11.6538 18.7641 11.7598 18.7049C11.6656 18.7286 11.5595 18.7167 11.4888 18.6458Z" fill="url(#paint11_linear_1610_96899)"/>
</g>
<path opacity="0.3" d="M11.719 18.3974C11.745 18.3974 11.7661 18.3762 11.7661 18.3501C11.7661 18.3239 11.745 18.3027 11.719 18.3027C11.693 18.3027 11.6719 18.3239 11.6719 18.3501C11.6719 18.3762 11.693 18.3974 11.719 18.3974Z" fill="white"/>
<path opacity="0.2" d="M13.1459 18.5515C13.2825 18.5515 13.3932 18.4403 13.3932 18.3031C13.3932 18.1659 13.2825 18.0547 13.1459 18.0547C13.0092 18.0547 12.8984 18.1659 12.8984 18.3031C12.8984 18.4403 13.0092 18.5515 13.1459 18.5515Z" fill="white"/>
<g opacity="0.4">
<path opacity="0.6" d="M13.0123 18.469C12.918 18.3744 12.918 18.2087 13.0123 18.1141C13.0241 18.1023 13.0476 18.0904 13.0594 18.0786C13.0241 18.0904 13.0005 18.1141 12.9769 18.1377C12.8827 18.2324 12.8827 18.398 12.9769 18.4927C13.0594 18.5755 13.1773 18.5873 13.2833 18.5281C13.189 18.5518 13.083 18.54 13.0123 18.469Z" fill="url(#paint12_linear_1610_96899)"/>
</g>
<path opacity="0.3" d="M13.2347 18.2201C13.2607 18.2201 13.2817 18.1989 13.2817 18.1728C13.2817 18.1467 13.2607 18.1255 13.2347 18.1255C13.2086 18.1255 13.1875 18.1467 13.1875 18.1728C13.1875 18.1989 13.2086 18.2201 13.2347 18.2201Z" fill="white"/>
<path opacity="0.2" d="M9.36231 18.0073C9.66167 18.0073 9.90428 17.7637 9.90428 17.4631C9.90428 17.1626 9.66167 16.9189 9.36231 16.9189C9.063 16.9189 8.82031 17.1626 8.82031 17.4631C8.82031 17.7637 9.063 18.0073 9.36231 18.0073Z" fill="white"/>
<g opacity="0.4">
<path opacity="0.6" d="M9.05008 17.8181C8.83799 17.6052 8.83799 17.2621 9.05008 17.0491C9.08539 17.0136 9.12074 16.99 9.16789 16.9663C9.0972 16.99 9.03827 17.0373 8.97938 17.0846C8.76729 17.2976 8.76729 17.6406 8.97938 17.8536C9.15609 18.031 9.42707 18.0665 9.63917 17.9364C9.43888 18.0192 9.20324 17.9719 9.05008 17.8181Z" fill="url(#paint13_linear_1610_96899)"/>
</g>
<path opacity="0.3" d="M9.54754 17.3094C9.61261 17.3094 9.66536 17.2564 9.66536 17.1911C9.66536 17.1257 9.61261 17.0728 9.54754 17.0728C9.48247 17.0728 9.42969 17.1257 9.42969 17.1911C9.42969 17.2564 9.48247 17.3094 9.54754 17.3094Z" fill="white"/>
<path opacity="0.2" d="M14.1982 16.6704C14.4975 16.6704 14.7402 16.4268 14.7402 16.1262C14.7402 15.8257 14.4975 15.582 14.1982 15.582C13.8989 15.582 13.6562 15.8257 13.6562 16.1262C13.6562 16.4268 13.8989 16.6704 14.1982 16.6704Z" fill="white"/>
<g opacity="0.4">
<path opacity="0.6" d="M13.8782 16.4807C13.6661 16.2678 13.6661 15.9247 13.8782 15.7117C13.9135 15.6762 13.9489 15.6526 13.996 15.6289C13.9253 15.6526 13.8664 15.6999 13.8075 15.7472C13.5954 15.9602 13.5954 16.3032 13.8075 16.5162C13.9842 16.6936 14.2552 16.7291 14.4673 16.599C14.267 16.6818 14.0431 16.6345 13.8782 16.4807Z" fill="url(#paint14_linear_1610_96899)"/>
</g>
<path opacity="0.3" d="M14.3913 15.9724C14.4563 15.9724 14.5091 15.9195 14.5091 15.8541C14.5091 15.7888 14.4563 15.7358 14.3913 15.7358C14.3262 15.7358 14.2734 15.7888 14.2734 15.8541C14.2734 15.9195 14.3262 15.9724 14.3913 15.9724Z" fill="white"/>
<defs>
<radialGradient id="paint0_radial_1610_96899" cx="0" cy="0" r="1" gradientUnits="userSpaceOnUse" gradientTransform="translate(18.4861 6.38401) scale(5.26595 5.28751)">
<stop stop-color="#FFEAFF" stop-opacity="0.6"/>
<stop offset="0.6807" stop-color="#A087C9"/>
<stop offset="1" stop-color="#10002F"/>
</radialGradient>
<radialGradient id="paint1_radial_1610_96899" cx="0" cy="0" r="1" gradientUnits="userSpaceOnUse" gradientTransform="translate(15.5562 8.63924) scale(12.8839 12.9367)">
<stop stop-color="#FFEAFF" stop-opacity="0.6"/>
<stop offset="0.6807" stop-color="#A087C9"/>
<stop offset="1" stop-color="#10002F"/>
</radialGradient>
<linearGradient id="paint2_linear_1610_96899" x1="10.1405" y1="19.7171" x2="12.2639" y2="6.6702" gradientUnits="userSpaceOnUse">
<stop stop-color="#81FFFF"/>
<stop offset="0.6202" stop-color="white" stop-opacity="0"/>
</linearGradient>
<linearGradient id="paint3_linear_1610_96899" x1="15.8356" y1="8.7072" x2="10.3691" y2="13.7024" gradientUnits="userSpaceOnUse">
<stop offset="0.2888" stop-color="white"/>
<stop offset="0.7796" stop-color="white" stop-opacity="0"/>
</linearGradient>
<linearGradient id="paint4_linear_1610_96899" x1="4.935" y1="16.2764" x2="17.4511" y2="16.2764" gradientUnits="userSpaceOnUse">
<stop stop-color="#0002E9"/>
<stop offset="0.9952" stop-color="#FF00C7"/>
</linearGradient>
<linearGradient id="paint5_linear_1610_96899" x1="18.0463" y1="13.6904" x2="11.2076" y2="20.127" gradientUnits="userSpaceOnUse">
<stop offset="0.2888" stop-color="white"/>
<stop offset="0.7796" stop-color="white" stop-opacity="0"/>
</linearGradient>
<linearGradient id="paint6_linear_1610_96899" x1="4.935" y1="16.2764" x2="11.631" y2="16.2764" gradientUnits="userSpaceOnUse">
<stop stop-color="#000292"/>
<stop offset="0.9952" stop-color="#7D00C7"/>
</linearGradient>
<linearGradient id="paint7_linear_1610_96899" x1="4.9434" y1="13.7206" x2="17.4427" y2="13.7206" gradientUnits="userSpaceOnUse">
<stop stop-color="#000292"/>
<stop offset="0.9952" stop-color="#BE00C7"/>
</linearGradient>
<linearGradient id="paint8_linear_1610_96899" x1="17.2321" y1="6.9892" x2="16.3284" y2="8.45169" gradientUnits="userSpaceOnUse">
<stop offset="0.2888" stop-color="white"/>
<stop offset="0.7796" stop-color="white" stop-opacity="0"/>
</linearGradient>
<linearGradient id="paint9_linear_1610_96899" x1="10.4294" y1="17.8104" x2="10.9279" y2="17.8104" gradientUnits="userSpaceOnUse">
<stop offset="0.2888" stop-color="white"/>
<stop offset="0.7796" stop-color="white" stop-opacity="0"/>
</linearGradient>
<linearGradient id="paint10_linear_1610_96899" x1="12.1469" y1="17.6432" x2="12.6454" y2="17.6432" gradientUnits="userSpaceOnUse">
<stop offset="0.2888" stop-color="white"/>
<stop offset="0.7796" stop-color="white" stop-opacity="0"/>
</linearGradient>
<linearGradient id="paint11_linear_1610_96899" x1="11.3812" y1="18.4893" x2="11.7555" y2="18.4893" gradientUnits="userSpaceOnUse">
<stop offset="0.2888" stop-color="white"/>
<stop offset="0.7796" stop-color="white" stop-opacity="0"/>
</linearGradient>
<linearGradient id="paint12_linear_1610_96899" x1="12.8996" y1="18.3121" x2="13.2739" y2="18.3121" gradientUnits="userSpaceOnUse">
<stop offset="0.2888" stop-color="white"/>
<stop offset="0.7796" stop-color="white" stop-opacity="0"/>
</linearGradient>
<linearGradient id="paint13_linear_1610_96899" x1="8.8149" y1="17.4834" x2="9.62899" y2="17.4834" gradientUnits="userSpaceOnUse">
<stop offset="0.2888" stop-color="white"/>
<stop offset="0.7796" stop-color="white" stop-opacity="0"/>
</linearGradient>
<linearGradient id="paint14_linear_1610_96899" x1="13.6475" y1="16.1456" x2="14.4616" y2="16.1456" gradientUnits="userSpaceOnUse">
<stop offset="0.2888" stop-color="white"/>
<stop offset="0.7796" stop-color="white" stop-opacity="0"/>
</linearGradient>
</defs>
</svg>
