<svg width="24" height="24" viewBox="0 0 24 24" fill="none" xmlns="http://www.w3.org/2000/svg">
<path d="M10.4142 14.4939L4.64737 21.0833H3.10894L9.87158 13.354L10.2308 12.9434L9.89943 12.5101L2.56384 2.91667H7.7082L12.2211 8.88317L12.7152 9.5364L13.2546 8.92L18.5074 2.91667H20.0437L13.7841 10.071L13.4268 10.4794L13.7541 10.9122L21.4477 21.0833H16.4593L11.4454 14.528L10.9506 13.881L10.4142 14.4939ZM16.5143 20.175L16.7144 20.4367H17.0438H18.8768H20.2169L19.4086 19.3678L7.57656 3.72385L7.3765 3.45933H7.04484H5.07784H3.72859L4.54832 4.53103L16.5143 20.175Z" fill="#979995" stroke="#EFEFEF" stroke-width="1.33333"/>
</svg>
