<svg width="24" height="24" viewBox="0 0 24 24" fill="none" xmlns="http://www.w3.org/2000/svg">
<mask id="mask0_8882_64195" style="mask-type:luminance" maskUnits="userSpaceOnUse" x="2" y="2" width="20" height="20">
<path d="M2 2H22V22H2V2Z" fill="white"/>
</mask>
<g mask="url(#mask0_8882_64195)">
<path d="M13.0101 11.7712C13.3151 12.0763 13.8098 12.0763 14.1149 11.7712C14.42 11.4661 14.42 10.9714 14.1149 10.6663C13.8098 10.3612 13.3151 10.3612 13.0101 10.6663C12.705 10.9714 12.705 11.4661 13.0101 11.7712Z" fill="#232521"/>
<path fill-rule="evenodd" clip-rule="evenodd" d="M2.07812 15.9062C2.07812 18.0205 3.79203 19.7344 5.90625 19.7344H18.0938C20.208 19.7344 21.9219 18.0205 21.9219 15.9062V6.53125C21.9219 4.41703 20.208 2.70312 18.0938 2.70312H5.90625C3.79203 2.70312 2.07812 4.41703 2.07812 6.53125V15.9062ZM5.90625 18.3281C4.56868 18.3281 3.48438 17.2438 3.48438 15.9062V6.53125C3.48438 5.19368 4.56868 4.10937 5.90625 4.10937H18.0938C19.4313 4.10937 20.5156 5.19368 20.5156 6.53125V15.9062C20.5156 17.2438 19.4313 18.3281 18.0938 18.3281H5.90625Z" fill="#232521"/>
<path fill-rule="evenodd" clip-rule="evenodd" d="M5.90625 21.2969C6.29458 21.2969 6.60938 20.9821 6.60938 20.5937V19.0312C6.60938 18.6429 6.29458 18.3281 5.90625 18.3281C5.51792 18.3281 5.20312 18.6429 5.20312 19.0312V20.5937C5.20312 20.9821 5.51792 21.2969 5.90625 21.2969Z" fill="#232521"/>
<path fill-rule="evenodd" clip-rule="evenodd" d="M18.0938 21.2969C18.4821 21.2969 18.7969 20.9821 18.7969 20.5937V19.0312C18.7969 18.6429 18.4821 18.3281 18.0938 18.3281C17.7054 18.3281 17.3906 18.6429 17.3906 19.0312V20.5937C17.3906 20.9821 17.7054 21.2969 18.0938 21.2969Z" fill="#232521"/>
<path fill-rule="evenodd" clip-rule="evenodd" d="M5.90625 8.79688C6.29458 8.79688 6.60938 8.48208 6.60938 8.09375V6.53125C6.60938 6.14292 6.29458 5.82812 5.90625 5.82812C5.51792 5.82812 5.20312 6.14292 5.20312 6.53125V8.09375C5.20312 8.48208 5.51792 8.79688 5.90625 8.79688Z" fill="#232521"/>
<path fill-rule="evenodd" clip-rule="evenodd" d="M9.73438 11.2187C9.73438 13.333 11.4483 15.0469 13.5625 15.0469C15.6767 15.0469 17.3906 13.333 17.3906 11.2187C17.3906 9.10453 15.6767 7.39062 13.5625 7.39062C11.4483 7.39062 9.73438 9.10453 9.73438 11.2187ZM13.5625 13.6406C12.2249 13.6406 11.1406 12.5563 11.1406 11.2187C11.1406 9.88118 12.2249 8.79688 13.5625 8.79688C14.9001 8.79688 15.9844 9.88118 15.9844 11.2187C15.9844 12.5563 14.9001 13.6406 13.5625 13.6406Z" fill="#232521"/>
<path fill-rule="evenodd" clip-rule="evenodd" d="M13.5625 8.79688C13.9508 8.79688 14.2656 8.48208 14.2656 8.09375V6.53125C14.2656 6.14292 13.9508 5.82812 13.5625 5.82812C13.1742 5.82812 12.8594 6.14292 12.8594 6.53125V8.09375C12.8594 8.48208 13.1742 8.79688 13.5625 8.79688Z" fill="#232521"/>
<path fill-rule="evenodd" clip-rule="evenodd" d="M13.5625 16.6094C13.9508 16.6094 14.2656 16.2946 14.2656 15.9062V14.3437C14.2656 13.9554 13.9508 13.6406 13.5625 13.6406C13.1742 13.6406 12.8594 13.9554 12.8594 14.3437V15.9062C12.8594 16.2946 13.1742 16.6094 13.5625 16.6094Z" fill="#232521"/>
<path fill-rule="evenodd" clip-rule="evenodd" d="M11.4661 10.0077C11.6603 9.6714 11.5451 9.24137 11.2088 9.04721L9.85559 8.26596C9.51929 8.0718 9.08926 8.18702 8.8951 8.52332C8.70094 8.85962 8.81616 9.28964 9.15246 9.48381L10.5056 10.2651C10.8419 10.4592 11.2719 10.344 11.4661 10.0077Z" fill="#232521"/>
<path fill-rule="evenodd" clip-rule="evenodd" d="M18.2298 13.9139C18.4239 13.5776 18.3087 13.1476 17.9724 12.9535L16.6193 12.1722C16.283 11.978 15.8529 12.0933 15.6588 12.4296C15.4646 12.7659 15.5798 13.1959 15.9161 13.3901L17.2693 14.1713C17.6056 14.3655 18.0356 14.2502 18.2298 13.9139Z" fill="#232521"/>
<path fill-rule="evenodd" clip-rule="evenodd" d="M8.8951 13.9139C9.08926 14.2502 9.51929 14.3655 9.85559 14.1713L11.2088 13.3901C11.5451 13.1959 11.6603 12.7659 11.4661 12.4296C11.2719 12.0933 10.8419 11.978 10.5056 12.1722L9.15246 12.9535C8.81616 13.1476 8.70094 13.5776 8.8951 13.9139Z" fill="#232521"/>
<path fill-rule="evenodd" clip-rule="evenodd" d="M15.6588 10.0077C15.8529 10.344 16.283 10.4592 16.6193 10.2651L17.9724 9.48381C18.3087 9.28964 18.4239 8.85962 18.2298 8.52332C18.0356 8.18702 17.6056 8.0718 17.2693 8.26596L15.9161 9.04721C15.5798 9.24137 15.4646 9.6714 15.6588 10.0077Z" fill="#232521"/>
<path fill-rule="evenodd" clip-rule="evenodd" d="M5.90625 16.6094C6.29458 16.6094 6.60938 16.2946 6.60938 15.9062V14.3437C6.60938 13.9554 6.29458 13.6406 5.90625 13.6406C5.51792 13.6406 5.20312 13.9554 5.20312 14.3437V15.9062C5.20312 16.2946 5.51792 16.6094 5.90625 16.6094Z" fill="#232521"/>
</g>
</svg>
