<svg width="24" height="24" viewBox="0 0 24 24" fill="none" xmlns="http://www.w3.org/2000/svg">
<path d="M9 3H3.6C3.44087 3 3.28826 3.06321 3.17574 3.17574C3.06321 3.28826 3 3.44087 3 3.6V20.4C3 20.5591 3.06321 20.7117 3.17574 20.8243C3.28826 20.9368 3.44087 21 3.6 21H9M9 3V21M9 3H15M9 21H15M15 3H20.4C20.5591 3 20.7117 3.06321 20.8243 3.17574C20.9368 3.28826 21 3.44087 21 3.6V20.4C21 20.5591 20.9368 20.7117 20.8243 20.8243C20.7117 20.9368 20.5591 21 20.4 21H15M15 3V21" stroke="#979995" stroke-width="1.5"/>
</svg>
