<svg width="21" height="20" viewBox="0 0 21 20" fill="none" xmlns="http://www.w3.org/2000/svg">
<path d="M10.5508 3.92805C11.0253 3.12061 11.7358 2.47792 12.5867 2.08649C13.4375 1.69506 14.3878 1.57368 15.3097 1.73869C16.2317 1.9037 17.0809 2.34717 17.7431 3.00942C18.4054 3.67167 18.8489 4.5209 19.0139 5.44281C19.1789 6.36472 19.0575 7.31506 18.6661 8.1659C18.2746 9.01674 17.6319 9.72724 16.8245 10.2018" stroke="#F7F7F7" stroke-width="1.5" stroke-linecap="round" stroke-linejoin="round"/>
<path d="M8.66797 18.334C7.01037 18.334 5.42065 17.6755 4.24855 16.5034C3.07645 15.3313 2.41797 13.7416 2.41797 12.084C2.41797 10.4264 3.07645 8.83667 4.24855 7.66457C5.42065 6.49246 7.01037 5.83398 8.66797 5.83398C10.3256 5.83398 11.9153 6.49246 13.0874 7.66457C14.2595 8.83667 14.918 10.4264 14.918 12.084C14.918 13.7416 14.2595 15.3313 13.0874 16.5034C11.9153 17.6755 10.3256 18.334 8.66797 18.334Z" stroke="#F7F7F7" stroke-width="1.5" stroke-linecap="round" stroke-linejoin="round"/>
<path d="M5.78516 12.084H8.66977H11.5544" stroke="#F7F7F7" stroke-width="1.5" stroke-linecap="round" stroke-linejoin="round"/>
</svg>
