<svg width="20" height="20" viewBox="0 0 20 20" fill="none" xmlns="http://www.w3.org/2000/svg">
<path d="M10.0007 3.26356C10.0191 3.26356 10.0367 3.27088 10.0498 3.2839C10.0628 3.29693 10.0701 3.31459 10.0701 3.33301C10.0701 3.35142 10.0628 3.36909 10.0498 3.38211C10.0367 3.39514 10.0191 3.40245 10.0007 3.40245C8.25096 3.40245 6.57293 4.09751 5.33571 5.33473C4.09849 6.57195 3.40343 8.24998 3.40343 9.99967C3.40343 11.7494 4.09849 13.4274 5.33571 14.6646C6.57293 15.9018 8.25096 16.5969 10.0007 16.5969C10.0191 16.5969 10.0367 16.6042 10.0498 16.6172C10.0628 16.6303 10.0701 16.6479 10.0701 16.6663C10.0701 16.6848 10.0628 16.7024 10.0498 16.7154C10.0367 16.7285 10.0191 16.7358 10.0007 16.7358C8.21412 16.7358 6.50077 16.0261 5.2375 14.7628C3.97424 13.4996 3.26454 11.7862 3.26454 9.99967C3.26454 8.21315 3.97424 6.49979 5.2375 5.23652C6.50077 3.97326 8.21412 3.26356 10.0007 3.26356Z" fill="#E01600" stroke="#E01600" stroke-width="1.11111"/>
<path d="M13.7257 7.9417C13.6153 7.82322 13.5551 7.66652 13.558 7.5046C13.5609 7.34268 13.6265 7.18819 13.741 7.07368C13.8555 6.95917 14.01 6.89358 14.1719 6.89072C14.3338 6.88787 14.4905 6.94797 14.609 7.05837L17.109 9.55837C17.226 9.67556 17.2918 9.83441 17.2918 10C17.2918 10.1657 17.226 10.3245 17.109 10.4417L14.609 12.9417C14.5518 13.0031 14.4828 13.0524 14.4061 13.0865C14.3294 13.1207 14.2467 13.139 14.1628 13.1405C14.0788 13.142 13.9955 13.1266 13.9177 13.0951C13.8398 13.0637 13.7691 13.0169 13.7098 12.9576C13.6504 12.8982 13.6037 12.8275 13.5722 12.7497C13.5408 12.6719 13.5253 12.5885 13.5268 12.5046C13.5283 12.4207 13.5467 12.3379 13.5808 12.2613C13.615 12.1846 13.6642 12.1156 13.7257 12.0584L15.159 10.625H8.33398C8.16822 10.625 8.00925 10.5592 7.89204 10.442C7.77483 10.3248 7.70898 10.1658 7.70898 10C7.70898 9.83428 7.77483 9.6753 7.89204 9.55809C8.00925 9.44088 8.16822 9.37504 8.33398 9.37504H15.159L13.7257 7.9417Z" fill="#E01600"/>
</svg>
