<svg width="20" height="20" viewBox="0 0 20 20" fill="none" xmlns="http://www.w3.org/2000/svg">
<g clip-path="url(#clip0_1869_100853)">
<path d="M16.666 9.99935V17.8327C16.666 17.8983 16.6531 17.9634 16.628 18.024C16.6028 18.0847 16.566 18.1398 16.5196 18.1862C16.4731 18.2327 16.418 18.2695 16.3574 18.2946C16.2967 18.3198 16.2317 18.3327 16.166 18.3327H3.83268C3.76702 18.3327 3.702 18.3198 3.64134 18.2946C3.58068 18.2695 3.52556 18.2327 3.47913 18.1862C3.4327 18.1398 3.39587 18.0847 3.37074 18.024C3.34562 17.9634 3.33268 17.8983 3.33268 17.8327V9.99935M9.99935 18.3327V5.83268M9.99935 5.83268H6.24935C5.69681 5.83268 5.16691 5.61319 4.77621 5.22249C4.38551 4.83179 4.16602 4.30188 4.16602 3.74935C4.16602 3.19681 4.38551 2.66691 4.77621 2.27621C5.16691 1.88551 5.69681 1.66602 6.24935 1.66602C9.16602 1.66602 9.99935 5.83268 9.99935 5.83268ZM9.99935 5.83268H13.7493C14.3019 5.83268 14.8318 5.61319 15.2225 5.22249C15.6132 4.83179 15.8327 4.30188 15.8327 3.74935C15.8327 3.19681 15.6132 2.66691 15.2225 2.27621C14.8318 1.88551 14.3019 1.66602 13.7493 1.66602C10.8327 1.66602 9.99935 5.83268 9.99935 5.83268ZM17.8327 5.83268H2.16602C2.03341 5.83268 1.90623 5.88536 1.81246 5.97913C1.71869 6.0729 1.66602 6.20007 1.66602 6.33268V9.49935C1.66602 9.63196 1.71869 9.75913 1.81246 9.8529C1.90623 9.94667 2.03341 9.99935 2.16602 9.99935H17.8327C17.9653 9.99935 18.0925 9.94667 18.1862 9.8529C18.28 9.75913 18.3327 9.63196 18.3327 9.49935V6.33268C18.3327 6.20007 18.28 6.0729 18.1862 5.97913C18.0925 5.88536 17.9653 5.83268 17.8327 5.83268Z" stroke="#979995" stroke-width="1.5" stroke-linecap="round" stroke-linejoin="round"/>
</g>
<defs>
<clipPath id="clip0_1869_100853">
<rect width="20" height="20" fill="white"/>
</clipPath>
</defs>
</svg>
