<svg width="20" height="20" viewBox="0 0 20 20" fill="none" xmlns="http://www.w3.org/2000/svg">
<g clip-path="url(#clip0_8519_147378)">
<path d="M10 12.5C10.663 12.5 11.2989 12.2366 11.7678 11.7678C12.2366 11.2989 12.5 10.663 12.5 10C12.5 9.33696 12.2366 8.70107 11.7678 8.23223C11.2989 7.76339 10.663 7.5 10 7.5C9.33696 7.5 8.70107 7.76339 8.23223 8.23223C7.76339 8.70107 7.5 9.33696 7.5 10C7.5 10.663 7.76339 11.2989 8.23223 11.7678C8.70107 12.2366 9.33696 12.5 10 12.5Z" stroke="#979995" stroke-width="1.5" stroke-linecap="round" stroke-linejoin="round"/>
<path d="M16.351 8.66185L15.4368 6.45352L16.666 4.99935L14.9993 3.33268L13.5535 4.56852L11.2977 3.64102L10.7785 1.66602H9.15018L8.62352 3.66685L6.41935 4.59602L4.99935 3.33268L3.33268 4.99935L4.54352 6.49018L3.64352 8.70435L1.66602 9.16602V10.8327L3.66685 11.3785L4.59602 13.5827L3.33268 14.9993L4.99935 16.666L6.49185 15.4494L8.66352 16.3427L9.16602 18.3327H10.8327L11.336 16.3435L13.5452 15.4285C13.9135 15.6918 14.9993 16.666 14.9993 16.666L16.666 14.9993L15.4294 13.541L16.3443 11.331L18.3327 10.8143V9.16602L16.351 8.66185Z" stroke="#979995" stroke-width="1.5" stroke-linecap="round" stroke-linejoin="round"/>
</g>
<defs>
<clipPath id="clip0_8519_147378">
<rect width="20" height="20" fill="white"/>
</clipPath>
</defs>
</svg>
