<svg width="24" height="24" viewBox="0 0 24 24" fill="none" xmlns="http://www.w3.org/2000/svg">
<rect width="24.0004" height="24" rx="12" fill="#151C2F"/>
<path d="M17.1292 16.1344V17.3679L15.9837 18L14.8708 17.3679V16.1344L15.9837 16.7664L17.1292 16.1344ZM11 11.8679L12.1129 12.5V14.6154L14.0293 15.6909V16.9245L11 15.2474V11.8679ZM20.9674 11.8679V15.2525L17.9055 16.9296V15.696L19.8219 14.6205V12.5051L20.9674 11.8679ZM17.9001 10.1909L19.0456 10.823V12.0565L17.1292 13.1321V15.278L16.0163 15.9101L14.9088 15.278V13.127L12.9218 12.0514V10.8179L14.0673 10.1858L15.9837 11.2614L17.9001 10.1909ZM12.9218 12.9384L14.0347 13.5704V14.804L12.9218 14.1719V12.9384ZM19.0456 12.9384V14.1719L17.9327 14.804V13.5704L19.0456 12.9384ZM12.1129 9.11538L13.2584 9.74745L12.1129 10.3795V11.6131L11 10.981V9.74745L12.1129 9.11538ZM19.8545 9.11538L21 9.74745V10.981L19.8545 11.6131V10.3795L18.7416 9.74745L19.8545 9.11538ZM15.9837 9.11538L17.1292 9.74745L15.9837 10.3795L14.8708 9.74745L15.9837 9.11538ZM15.9837 7L19.0456 8.67702L17.9327 9.30908L16.0163 8.23355L14.0619 9.30908L12.949 8.67702L15.9837 7Z" fill="#F0B90B"/>
<path d="M5.87642 6.5L2.5 12.1019L5.87642 10.5676V6.5Z" fill="#8A92B2"/>
<path d="M5.87642 10.5674L2.5 12.1017L5.87642 14.0977V10.5674Z" fill="#62688F"/>
<path d="M9.25142 12.1019L5.875 6.5V10.5676L9.25142 12.1019Z" fill="#62688F"/>
<path d="M5.875 14.0987L9.25142 12.1027L5.875 10.5684V14.0987Z" fill="#454A75"/>
<path d="M2.5 12.7422L5.87642 17.4997V14.7369L2.5 12.7422Z" fill="#8A92B2"/>
<path d="M5.875 14.7369V17.4997L9.2533 12.7422L5.875 14.7369Z" fill="#62688F"/>
</svg>
