<svg width="17" height="17" viewBox="0 0 14 15" fill="none" xmlns="http://www.w3.org/2000/svg">
<path d="M7.66668 5.50011H6.33334V4.16678H7.66668V5.50011ZM7.66668 10.8334H6.33334V6.83344H7.66668V10.8334ZM7.00001 0.833443C6.12453 0.833443 5.25762 1.00588 4.44879 1.34091C3.63995 1.67594 2.90502 2.16701 2.28596 2.78606C1.03572 4.03631 0.333344 5.732 0.333344 7.50011C0.333344 9.26822 1.03572 10.9639 2.28596 12.2142C2.90502 12.8332 3.63995 13.3243 4.44879 13.6593C5.25762 13.9943 6.12453 14.1668 7.00001 14.1668C8.76812 14.1668 10.4638 13.4644 11.7141 12.2142C12.9643 10.9639 13.6667 9.26822 13.6667 7.50011C13.6667 6.62463 13.4942 5.75772 13.1592 4.94889C12.8242 4.14005 12.3331 3.40512 11.7141 2.78606C11.095 2.16701 10.3601 1.67594 9.55123 1.34091C8.7424 1.00588 7.87549 0.833443 7.00001 0.833443Z" fill="gray"/>
</svg>
