<svg xmlns="http://www.w3.org/2000/svg" width="17" height="16" viewBox="0 0 17 16" fill="none">
	<path
		d="M8.5 1.75C5.05375 1.75 2.25 4.55375 2.25 8C2.25 11.4462 5.05375 14.25 8.5 14.25C11.9462 14.25 14.75 11.4462 14.75 8C14.75 4.55375 11.9462 1.75 8.5 1.75ZM8.5 4.3125C8.6607 4.3125 8.81779 4.36015 8.9514 4.44943C9.08502 4.53871 9.18916 4.6656 9.25065 4.81407C9.31215 4.96253 9.32824 5.1259 9.29689 5.28351C9.26554 5.44112 9.18815 5.58589 9.07452 5.69952C8.96089 5.81315 8.81612 5.89054 8.65851 5.92189C8.5009 5.95324 8.33753 5.93715 8.18907 5.87565C8.0406 5.81416 7.91371 5.71002 7.82443 5.5764C7.73515 5.44279 7.6875 5.2857 7.6875 5.125C7.6875 4.90951 7.7731 4.70285 7.92548 4.55048C8.07785 4.3981 8.28451 4.3125 8.5 4.3125ZM10 11.375H7.25C7.11739 11.375 6.99021 11.3223 6.89645 11.2286C6.80268 11.1348 6.75 11.0076 6.75 10.875C6.75 10.7424 6.80268 10.6152 6.89645 10.5214C6.99021 10.4277 7.11739 10.375 7.25 10.375H8.125V7.625H7.625C7.49239 7.625 7.36521 7.57232 7.27145 7.47855C7.17768 7.38479 7.125 7.25761 7.125 7.125C7.125 6.99239 7.17768 6.86521 7.27145 6.77145C7.36521 6.67768 7.49239 6.625 7.625 6.625H8.625C8.75761 6.625 8.88479 6.67768 8.97855 6.77145C9.07232 6.86521 9.125 6.99239 9.125 7.125V10.375H10C10.1326 10.375 10.2598 10.4277 10.3536 10.5214C10.4473 10.6152 10.5 10.7424 10.5 10.875C10.5 11.0076 10.4473 11.1348 10.3536 11.2286C10.2598 11.3223 10.1326 11.375 10 11.375Z"
		fill="#AEE67F" />
</svg>