<svg width="16" height="16" viewBox="0 0 16 16" fill="none" xmlns="http://www.w3.org/2000/svg">
<path d="M8.66667 6.00011H7.33333V4.66678H8.66667V6.00011ZM8.66667 11.3334H7.33333V7.33344H8.66667V11.3334ZM8 1.33344C7.12452 1.33344 6.25761 1.50588 5.44878 1.84091C4.63994 2.17594 3.90501 2.66701 3.28595 3.28606C2.03571 4.53631 1.33333 6.232 1.33333 8.00011C1.33333 9.76822 2.03571 11.4639 3.28595 12.7142C3.90501 13.3332 4.63994 13.8243 5.44878 14.1593C6.25761 14.4943 7.12452 14.6668 8 14.6668C9.76811 14.6668 11.4638 13.9644 12.714 12.7142C13.9643 11.4639 14.6667 9.76822 14.6667 8.00011C14.6667 7.12463 14.4942 6.25772 14.1592 5.44889C13.8242 4.64005 13.3331 3.90512 12.714 3.28606C12.095 2.66701 11.3601 2.17594 10.5512 1.84091C9.74238 1.50588 8.87548 1.33344 8 1.33344Z" fill="#505665"/>
</svg>
