<svg width="31" height="31" viewBox="0 0 31 31" fill="none" xmlns="http://www.w3.org/2000/svg">
<path d="M6.34746 21.4023C6.27612 21.3786 6.2008 21.3692 6.12582 21.3746C6.05083 21.38 5.97765 21.4001 5.91046 21.4339C5.84327 21.4676 5.78339 21.5142 5.73425 21.5711C5.68511 21.628 5.64766 21.6941 5.62406 21.7654L4.99503 23.664C3.90707 22.0351 3.21393 20.175 2.97067 18.2314C2.95171 18.0797 2.87328 17.9418 2.75263 17.848C2.63198 17.7541 2.479 17.7121 2.32733 17.731C2.17567 17.75 2.03775 17.8284 1.94391 17.9491C1.85007 18.0697 1.808 18.2227 1.82696 18.3743C2.08772 20.4492 2.82032 22.4367 3.96855 24.1844L2.0557 23.5553C1.98436 23.5317 1.90906 23.5223 1.83409 23.5278C1.75913 23.5332 1.68597 23.5534 1.6188 23.5871C1.55163 23.6208 1.49175 23.6674 1.4426 23.7243C1.39344 23.7811 1.35596 23.8471 1.33231 23.9185C1.30865 23.9898 1.29928 24.0651 1.30473 24.1401C1.31017 24.215 1.33033 24.2882 1.36405 24.3554C1.39777 24.4225 1.44439 24.4824 1.50125 24.5316C1.55811 24.5807 1.62409 24.6182 1.69543 24.6419L4.92068 25.7112C4.97779 25.7305 5.03769 25.7401 5.09796 25.7398C5.2182 25.7399 5.33541 25.7021 5.43294 25.6318C5.53046 25.5615 5.60334 25.4622 5.64122 25.3481L6.71059 22.1257C6.73431 22.0544 6.74373 21.9791 6.73832 21.9041C6.7329 21.8291 6.71275 21.7559 6.67902 21.6887C6.6453 21.6215 6.59865 21.5616 6.54176 21.5125C6.48486 21.4634 6.41884 21.4259 6.34746 21.4023Z" fill="#EBEBEB"/>
<path d="M14.262 10.3765C14.2597 10.0897 14.2406 9.80326 14.2048 9.5187C15.1751 9.28452 16.1877 9.28942 17.1556 9.53299C18.6281 9.87039 19.7289 9.00403 20.2464 8.58944C20.298 8.54406 20.3525 8.50204 20.4094 8.46363C20.543 8.43051 20.682 8.42588 20.8175 8.45001C20.9529 8.47415 21.0818 8.52653 21.1957 8.60373C21.302 8.66747 21.4261 8.69496 21.5493 8.68207C21.6726 8.66918 21.7883 8.6166 21.8791 8.53225C21.9477 8.46649 23.5946 6.88532 22.7054 3.38558C22.7023 3.36674 22.6965 3.34845 22.6883 3.33125C21.7676 0.835112 20.3437 0.41766 20.1835 0.37763C20.0574 0.347176 19.9247 0.359238 19.8061 0.411941C19.1819 0.629127 18.5222 0.726144 17.8618 0.697868C16.821 0.697868 12.3091 0.126015 11.6629 0.0287998C10.9456 -0.0720063 10.2161 0.09382 9.61284 0.49486L9.43557 0.592075C8.96379 0.84369 7.14816 2.3734 6.07593 3.33125C4.72534 3.5333 3.46116 4.11892 2.43368 5.01848C1.4062 5.91804 0.658622 7.09372 0.279822 8.40576C-0.0989777 9.7178 -0.0930715 11.111 0.296838 12.4198C0.686748 13.7286 1.44426 14.8979 2.47933 15.7887C3.51441 16.6795 4.7835 17.2544 6.13576 17.445C7.48802 17.6356 8.86658 17.4339 10.1075 16.8639C11.3485 16.2938 12.3997 15.3795 13.1362 14.2294C13.8726 13.0794 14.2634 11.7421 14.262 10.3765ZM9.97311 1.59854L10.179 1.48417C10.5649 1.2111 11.0401 1.09461 11.5085 1.15821C11.56 1.15821 16.6552 1.83586 17.8647 1.83586C18.5993 1.84956 19.3315 1.74826 20.0349 1.53563C20.3208 1.69575 21.0556 2.21614 21.6046 3.68866C22.1221 5.73017 21.636 6.90533 21.3187 7.4057C20.8789 7.24672 20.3974 7.24672 19.9577 7.4057C19.8042 7.48124 19.6618 7.57744 19.5345 7.69163C19.0884 8.04332 18.3479 8.63233 17.4101 8.41788C15.973 8.05081 14.4575 8.13873 13.0726 8.6695C12.3546 8.96222 11.6614 9.31218 10.9996 9.71599C10.1418 10.2278 10.0675 10.2164 9.89019 10.0705C9.82779 10.0192 9.77842 9.95388 9.74611 9.87984C9.71381 9.80579 9.6995 9.72515 9.70434 9.64451C9.75014 9.02623 10.0378 8.45092 10.5049 8.04332C11.044 7.6339 11.633 7.29474 12.2577 7.034C13.1469 6.60511 13.9875 6.20195 14.4278 5.65011C15.3485 4.50641 15.36 3.49137 15.36 3.37986C15.36 3.22819 15.2997 3.08274 15.1925 2.9755C15.0852 2.86825 14.9398 2.808 14.7881 2.808C14.6364 2.808 14.491 2.86825 14.3837 2.9755C14.2765 3.08274 14.2163 3.22819 14.2163 3.37986C14.199 3.58881 14.1508 3.79405 14.0733 3.98888C13.6315 3.50745 13.1114 3.10431 12.535 2.79657C12.3993 2.7287 12.2421 2.71753 12.0982 2.76552C11.9542 2.81351 11.8352 2.91673 11.7673 3.05247C11.6994 3.18821 11.6883 3.34535 11.7363 3.48933C11.7842 3.6333 11.8875 3.75231 12.0232 3.82018C12.5686 4.12454 13.0532 4.52679 13.4528 5.00678C13.1569 5.25987 12.828 5.4715 12.475 5.63582C11.2913 4.28766 9.63973 3.43939 7.85439 3.26263C8.53113 2.67256 9.23732 2.11716 9.97025 1.59854H9.97311ZM7.131 16.3638C6.14476 16.3611 5.17446 16.1148 4.30632 15.6467C3.43819 15.1787 2.69912 14.5035 2.15477 13.6811C1.61042 12.8587 1.27767 11.9145 1.18608 10.9325C1.09448 9.95056 1.24688 8.96116 1.62974 8.05226C2.0126 7.14335 2.61405 6.3431 3.38066 5.72261C4.14726 5.10213 5.05527 4.68062 6.024 4.49556C6.99273 4.31049 7.99217 4.36759 8.93352 4.66179C9.87486 4.95599 10.729 5.47817 11.4199 6.18194C10.8089 6.44494 10.2374 6.79135 9.72149 7.21127C8.98666 7.8975 8.52918 8.86965 8.56063 9.69025C8.56085 9.93585 8.6159 10.1783 8.72175 10.3999C8.82761 10.6215 8.98161 10.8167 9.17252 10.9712C9.41773 11.1852 9.73063 11.3057 10.056 11.3115C10.5535 11.3115 11.0425 11.0255 11.58 10.7082C12.068 10.4091 12.5741 10.1408 13.0954 9.9047C13.0954 10.062 13.1154 10.2192 13.1154 10.3765C13.1109 11.9625 12.4791 13.4824 11.3578 14.6041C10.2366 15.7259 8.71704 16.3585 7.131 16.3638Z" fill="#EBEBEB"/>
<path d="M30.8798 20.4923C30.8798 18.6011 30.1285 16.7873 28.7912 15.45C27.4539 14.1126 25.6401 13.3613 23.7488 13.3613C21.8576 13.3613 20.0438 14.1126 18.7064 15.45C17.3691 16.7873 16.6178 18.6011 16.6178 20.4923C16.6201 20.7791 16.6392 21.0655 16.675 21.3501C15.7048 21.5843 14.6922 21.5794 13.7243 21.3358C12.2517 20.9984 11.1509 21.8648 10.6334 22.2794C10.5818 22.3248 10.5274 22.3668 10.4704 22.4052C10.3369 22.4383 10.1978 22.4429 10.0624 22.4188C9.92688 22.3947 9.79801 22.3423 9.68411 22.2651C9.57784 22.2013 9.45374 22.1739 9.3305 22.1867C9.20725 22.1996 9.09153 22.2522 9.00075 22.3366C8.93212 22.4023 7.28519 23.9835 8.17442 27.4832C8.17752 27.5021 8.1833 27.5204 8.19158 27.5376C9.11226 30.0337 10.5362 30.4512 10.6963 30.4912C10.8224 30.5216 10.9551 30.5096 11.0737 30.4569C11.698 30.2397 12.3577 30.1427 13.018 30.1709C14.0588 30.1709 18.5707 30.7428 19.2169 30.84C19.361 30.8589 19.5062 30.8685 19.6515 30.8686C20.2259 30.8596 20.786 30.6881 21.267 30.374L21.4443 30.2767C21.916 30.0251 23.7317 28.4954 24.8039 27.5376C26.4908 27.2816 28.0305 26.4308 29.1449 25.1387C30.2592 23.8466 30.8746 22.1985 30.8798 20.4923ZM20.9096 29.2703L20.7037 29.3846C20.3178 29.6577 19.8426 29.7742 19.3742 29.7106C19.3227 29.7106 14.2275 29.033 13.018 29.033C12.2841 29.0146 11.5519 29.1111 10.8478 29.3189C10.5619 29.1588 9.82707 28.6384 9.2781 27.1659C8.76057 25.1243 9.24664 23.9492 9.56402 23.4488C10.0038 23.6078 10.4853 23.6078 10.925 23.4488C11.0785 23.3733 11.2209 23.2771 11.3482 23.1629C11.7942 22.8112 12.5348 22.2222 13.4726 22.4366C14.9097 22.8037 16.4252 22.7158 17.8101 22.185C18.5266 21.8968 19.2189 21.5516 19.8802 21.1528C20.738 20.641 20.8124 20.6553 20.9896 20.7983C21.052 20.8496 21.1014 20.9149 21.1337 20.989C21.166 21.063 21.1803 21.1437 21.1755 21.2243C21.1297 21.8426 20.842 22.4179 20.3749 22.8255C19.8358 23.2349 19.2469 23.5741 18.6222 23.8348C17.7329 24.2637 16.9066 24.6669 16.452 25.2187C15.5313 26.3624 15.5199 27.3774 15.5199 27.489C15.5199 27.6406 15.5801 27.7861 15.6874 27.8933C15.7946 28.0006 15.9401 28.0608 16.0917 28.0608C16.2434 28.0608 16.3888 28.0006 16.4961 27.8933C16.6033 27.7861 16.6636 27.6406 16.6636 27.489C16.6809 27.28 16.729 27.0748 16.8065 26.8799C17.2483 27.3614 17.7684 27.7645 18.3448 28.0722C18.4239 28.1116 18.511 28.1322 18.5993 28.1323C18.7284 28.1328 18.8538 28.0896 18.9553 28.0098C19.0567 27.93 19.1281 27.8181 19.1579 27.6926C19.1878 27.567 19.1742 27.435 19.1195 27.3181C19.0648 27.2012 18.9722 27.1062 18.8566 27.0486C18.3112 26.7443 17.8266 26.342 17.427 25.862C17.7229 25.6089 18.0519 25.3973 18.4049 25.233C19.5886 26.5812 21.2401 27.4294 23.0254 27.6062C22.3487 28.1962 21.6425 28.7517 20.9096 29.2703ZM23.7488 26.4796C22.9502 26.4839 22.1589 26.3274 21.4221 26.0194C20.6852 25.7114 20.0179 25.2582 19.4599 24.6869C20.0709 24.4239 20.6425 24.0775 21.1583 23.6575C21.8932 22.9713 22.3506 21.9992 22.3192 21.1786C22.319 20.933 22.2639 20.6905 22.1581 20.4689C22.0522 20.2473 21.8982 20.0521 21.7073 19.8976C20.8753 19.2314 20.1462 19.6631 19.2998 20.1607C18.8119 20.4597 18.3057 20.728 17.7844 20.9641C17.7844 20.8069 17.7644 20.6496 17.7644 20.4923C17.7644 19.3082 18.1155 18.1506 18.7734 17.166C19.4313 16.1814 20.3664 15.414 21.4605 14.9608C22.5545 14.5076 23.7583 14.3891 24.9198 14.6201C26.0812 14.8511 27.148 15.4213 27.9853 16.2587C28.8227 17.096 29.3929 18.1628 29.6239 19.3243C29.855 20.4857 29.7364 21.6895 29.2832 22.7836C28.8301 23.8776 28.0627 24.8127 27.0781 25.4706C26.0934 26.1285 24.9359 26.4796 23.7517 26.4796H23.7488Z" fill="white"/>
<path d="M24.4981 9.50219C24.5562 9.5213 24.617 9.53095 24.6782 9.53078C24.7977 9.53129 24.9144 9.49434 25.0119 9.4251C25.1093 9.35586 25.1826 9.25783 25.2214 9.14478L25.8505 7.24623C26.939 8.8748 27.6322 10.7351 27.8748 12.6788C27.8917 12.8183 27.9593 12.9467 28.0648 13.0395C28.1703 13.1323 28.3062 13.1831 28.4467 13.1821H28.5153C28.5899 13.1729 28.6618 13.1491 28.7272 13.1121C28.7925 13.075 28.8499 13.0255 28.8961 12.9663C28.9423 12.9071 28.9764 12.8394 28.9964 12.767C29.0165 12.6946 29.022 12.619 29.0128 12.5444C28.756 10.4625 28.0253 8.46707 26.877 6.71155L28.7955 7.3463C28.9392 7.39522 29.0965 7.38504 29.2327 7.31801C29.3689 7.25098 29.4729 7.1326 29.5218 6.9889C29.5707 6.84519 29.5605 6.68795 29.4935 6.55175C29.4265 6.41555 29.3081 6.31156 29.1644 6.26264L25.942 5.19328C25.8706 5.16956 25.7953 5.16013 25.7203 5.16555C25.6454 5.17096 25.5722 5.19111 25.505 5.22484C25.4378 5.25857 25.3779 5.30521 25.3288 5.36211C25.2796 5.419 25.2422 5.48503 25.2186 5.55641L24.1349 8.7788C24.1112 8.85014 24.1018 8.92545 24.1072 9.00044C24.1126 9.07542 24.1328 9.1486 24.1665 9.21579C24.2002 9.28298 24.2469 9.34286 24.3038 9.392C24.3606 9.44115 24.4267 9.47859 24.4981 9.50219Z" fill="white"/>
</svg>
