<svg width="49" height="49" viewBox="0 0 49 49" fill="none" xmlns="http://www.w3.org/2000/svg">
<g id="Keplr_icon_ver.1.3_2 1" clip-path="url(#clip0_1543_144821)">
<g id="Clip path group">
<mask id="mask0_1543_144821" style="mask-type:luminance" maskUnits="userSpaceOnUse" x="0" y="0" width="49" height="49">
<g id="clip0_425_5107">
<path id="Vector" d="M48.5 0.0976562H0.5V48.0977H48.5V0.0976562Z" fill="white"/>
</g>
</mask>
<g mask="url(#mask0_1543_144821)">
<g id="Group">
<path id="Vector_2" d="M37.5909 0.0976562H11.4091C5.38417 0.0976562 0.5 4.98183 0.5 11.0067V37.1885C0.5 43.2135 5.38417 48.0977 11.4091 48.0977H37.5909C43.6159 48.0977 48.5 43.2135 48.5 37.1885V11.0067C48.5 4.98183 43.6159 0.0976562 37.5909 0.0976562Z" fill="url(#paint0_linear_1543_144821)"/>
<path id="Vector_3" d="M37.5909 0.0976562H11.4091C5.38417 0.0976562 0.5 4.98183 0.5 11.0067V37.1885C0.5 43.2135 5.38417 48.0977 11.4091 48.0977H37.5909C43.6159 48.0977 48.5 43.2135 48.5 37.1885V11.0067C48.5 4.98183 43.6159 0.0976562 37.5909 0.0976562Z" fill="url(#paint1_radial_1543_144821)"/>
<path id="Vector_4" d="M37.5909 0.0976562H11.4091C5.38417 0.0976562 0.5 4.98183 0.5 11.0067V37.1885C0.5 43.2135 5.38417 48.0977 11.4091 48.0977H37.5909C43.6159 48.0977 48.5 43.2135 48.5 37.1885V11.0067C48.5 4.98183 43.6159 0.0976562 37.5909 0.0976562Z" fill="url(#paint2_radial_1543_144821)"/>
<path id="Vector_5" d="M37.5909 0.0976562H11.4091C5.38417 0.0976562 0.5 4.98183 0.5 11.0067V37.1885C0.5 43.2135 5.38417 48.0977 11.4091 48.0977H37.5909C43.6159 48.0977 48.5 43.2135 48.5 37.1885V11.0067C48.5 4.98183 43.6159 0.0976562 37.5909 0.0976562Z" fill="url(#paint3_radial_1543_144821)"/>
<path id="Vector_6" d="M20.2172 36.9671V25.8331L31.0354 36.9671H37.0541V36.6774L24.6101 23.9966L36.0964 11.9663V11.8242H30.0387L20.2172 22.4552V11.8242H15.3398V36.9671H20.2172Z" fill="white"/>
</g>
</g>
</g>
</g>
<defs>
<linearGradient id="paint0_linear_1543_144821" x1="24.5" y1="0.0976562" x2="24.5" y2="48.0977" gradientUnits="userSpaceOnUse">
<stop stop-color="#1FD1FF"/>
<stop offset="1" stop-color="#1BB8FF"/>
</linearGradient>
<radialGradient id="paint1_radial_1543_144821" cx="0" cy="0" r="1" gradientUnits="userSpaceOnUse" gradientTransform="translate(2.79283 46.2789) rotate(-45.1556) scale(76.9768 78.1285)">
<stop stop-color="#232DE3"/>
<stop offset="1" stop-color="#232DE3" stop-opacity="0"/>
</radialGradient>
<radialGradient id="paint2_radial_1543_144821" cx="0" cy="0" r="1" gradientUnits="userSpaceOnUse" gradientTransform="translate(45.9147 47.8236) rotate(-138.45) scale(48.1299 73.3847)">
<stop stop-color="#8B4DFF"/>
<stop offset="1" stop-color="#8B4DFF" stop-opacity="0"/>
</radialGradient>
<radialGradient id="paint3_radial_1543_144821" cx="0" cy="0" r="1" gradientUnits="userSpaceOnUse" gradientTransform="translate(24.1001 0.453654) rotate(90) scale(37.844 91.8198)">
<stop stop-color="#24D5FF"/>
<stop offset="1" stop-color="#1BB8FF" stop-opacity="0"/>
</radialGradient>
<clipPath id="clip0_1543_144821">
<rect width="48" height="48" fill="white" transform="translate(0.5 0.0976562)"/>
</clipPath>
</defs>
</svg>
