<svg width="16" height="17" viewBox="0 0 16 17" fill="none" xmlns="http://www.w3.org/2000/svg">
<path d="M0.863281 2.62396C0.924045 2.37223 1.04991 2.22466 1.24089 2.18126C1.4362 2.13785 1.61632 2.20079 1.78125 2.37006C2.09809 2.69992 2.43229 2.9408 2.78385 3.09271C3.13976 3.24028 3.49783 3.3336 3.85807 3.37266C4.22266 3.41172 4.57639 3.43126 4.91927 3.43126C5.24479 3.43126 5.59201 3.40955 5.96094 3.36615C6.3342 3.31841 6.71181 3.27284 7.09375 3.22943C7.48003 3.18169 7.85113 3.15782 8.20703 3.15782C9.29644 3.15782 10.2513 3.34011 11.0716 3.70469C11.8919 4.06928 12.5321 4.61181 12.9922 5.3323C13.4523 6.05278 13.6823 6.94688 13.6823 8.01459C13.6823 8.1665 13.678 8.31407 13.6693 8.4573C13.6606 8.59619 13.6476 8.7112 13.6302 8.80235C13.6042 8.94992 13.5217 9.0454 13.3828 9.08881C13.2439 9.13221 13.105 9.09315 12.9661 8.97162C12.5017 8.54193 12.0308 8.22509 11.5534 8.0211C11.0803 7.81277 10.6072 7.66737 10.1341 7.5849C9.66537 7.50244 9.19878 7.44601 8.73438 7.41563C8.27431 7.38091 7.82292 7.32882 7.38021 7.25938C6.9375 7.18994 6.50781 7.0619 6.09115 6.87527C5.67448 6.68863 5.27951 6.39784 4.90625 6.00287C4.81944 5.91606 4.73698 5.8987 4.65885 5.95079C4.58073 5.99853 4.5612 6.07231 4.60026 6.17214C4.77821 6.65825 5.0408 7.03586 5.38802 7.30495C5.73958 7.56971 6.14974 7.77153 6.61849 7.91042C7.08724 8.04931 7.59288 8.16216 8.13542 8.24896C8.67795 8.33577 9.23351 8.44211 9.80208 8.56797C10.375 8.69384 10.9392 8.88047 11.4948 9.12787C12.0503 9.37093 12.5734 9.71815 13.0638 10.1695C13.2331 10.3345 13.4327 10.5471 13.6628 10.8076C13.8928 11.068 14.1163 11.3501 14.3333 11.6539C14.5547 11.9577 14.7348 12.2572 14.8737 12.5523C15.0169 12.8475 15.0885 13.1101 15.0885 13.3401C15.0885 13.6439 14.9952 13.8978 14.8086 14.1018C14.6263 14.3058 14.4028 14.4078 14.138 14.4078C14.0078 14.4078 13.8863 14.3709 13.7734 14.2971C13.6649 14.2234 13.5846 14.104 13.5326 13.9391C13.385 13.4747 13.2374 13.0537 13.0898 12.676C12.9466 12.2941 12.773 11.9382 12.569 11.6083C12.3694 11.2741 12.1133 10.9421 11.8008 10.6122L12.8815 10.6839C12.8121 10.7924 12.7014 10.9421 12.5495 11.1331C12.3976 11.3241 12.1979 11.528 11.9505 11.7451C11.7031 11.9621 11.4015 12.1682 11.0456 12.3635C10.6897 12.5545 10.2752 12.7129 9.80208 12.8388C9.32899 12.9647 8.7908 13.0276 8.1875 13.0276C7.05035 13.0276 6.01953 12.8323 5.09505 12.4417C4.17491 12.0467 3.38281 11.4868 2.71875 10.762C2.05903 10.0372 1.55122 9.1691 1.19531 8.15782C0.84375 7.14653 0.667969 6.01806 0.667969 4.7724C0.667969 4.47292 0.68316 4.12353 0.713542 3.72422C0.743924 3.32492 0.793837 2.95817 0.863281 2.62396Z" fill="#AEE67F"/>
</svg>
