<svg width="15" height="15" viewBox="0 0 15 15" fill="none" xmlns="http://www.w3.org/2000/svg">
<path d="M7.50005 11.5C6.43919 11.5 5.42177 11.0786 4.67163 10.3284C3.92148 9.57828 3.50005 8.56087 3.50005 7.5C3.50005 6.43914 3.92148 5.42172 4.67163 4.67158C5.42177 3.92143 6.43919 3.5 7.50005 3.5C8.56092 3.5 9.57834 3.92143 10.3285 4.67158C11.0786 5.42172 11.5001 6.43914 11.5001 7.5C11.5001 8.56087 11.0786 9.57828 10.3285 10.3284C9.57834 11.0786 8.56092 11.5 7.50005 11.5ZM6.83339 0.166672H8.16672V2.16667H6.83339V0.166672ZM6.83339 12.8333H8.16672V14.8333H6.83339V12.8333ZM1.84338 2.786L2.78605 1.84334L4.20005 3.25734L3.25739 4.2L1.84338 2.78667V2.786ZM10.8001 11.7427L11.7427 10.8L13.1567 12.214L12.2141 13.1567L10.8001 11.7427ZM12.2141 1.84267L13.1567 2.786L11.7427 4.2L10.8001 3.25734L12.2141 1.84334V1.84267ZM3.25739 10.8L4.20005 11.7427L2.78605 13.1567L1.84338 12.214L3.25739 10.8V10.8ZM14.8334 6.83334V8.16667H12.8334V6.83334H14.8334ZM2.16672 6.83334V8.16667H0.166718V6.83334H2.16672Z" fill="#DEE1EB"/>
</svg>
