<svg width="221" height="6" viewBox="0 0 221 6" fill="none" xmlns="http://www.w3.org/2000/svg">
<path d="M0.333333 3C0.333333 4.47276 1.52724 5.66667 3 5.66667C4.47276 5.66667 5.66667 4.47276 5.66667 3C5.66667 1.52724 4.47276 0.333333 3 0.333333C1.52724 0.333333 0.333333 1.52724 0.333333 3ZM221 3.00002L216 0.113267L216 5.88677L221 3.00002ZM3 3.5L6.02778 3.5L6.02778 2.5L3 2.5L3 3.5ZM12.0833 3.5L18.1389 3.5L18.1389 2.5L12.0833 2.5L12.0833 3.5ZM24.1944 3.5L30.25 3.5L30.25 2.5L24.1944 2.5L24.1944 3.5ZM36.3056 3.5L42.3611 3.5L42.3611 2.5L36.3056 2.5L36.3056 3.5ZM48.4167 3.5L54.4722 3.5L54.4722 2.5L48.4167 2.5L48.4167 3.5ZM60.5278 3.50001L66.5833 3.50001L66.5833 2.50001L60.5278 2.50001L60.5278 3.50001ZM72.6389 3.50001L78.6945 3.50001L78.6945 2.50001L72.6389 2.50001L72.6389 3.50001ZM84.75 3.50001L90.8056 3.50001L90.8056 2.50001L84.75 2.50001L84.75 3.50001ZM96.8611 3.50001L102.917 3.50001L102.917 2.50001L96.8611 2.50001L96.8611 3.50001ZM108.972 3.50001L115.028 3.50001L115.028 2.50001L108.972 2.50001L108.972 3.50001ZM121.083 3.50001L127.139 3.50001L127.139 2.50001L121.083 2.50001L121.083 3.50001ZM133.194 3.50001L139.25 3.50001L139.25 2.50001L133.194 2.50001L133.194 3.50001ZM145.306 3.50001L151.361 3.50001L151.361 2.50001L145.306 2.50001L145.306 3.50001ZM157.417 3.50001L163.472 3.50001L163.472 2.50001L157.417 2.50001L157.417 3.50001ZM169.528 3.50001L175.583 3.50002L175.583 2.50002L169.528 2.50001L169.528 3.50001ZM181.639 3.50002L187.694 3.50002L187.694 2.50002L181.639 2.50002L181.639 3.50002ZM193.75 3.50002L199.806 3.50002L199.806 2.50002L193.75 2.50002L193.75 3.50002ZM205.861 3.50002L211.917 3.50002L211.917 2.50002L205.861 2.50002L205.861 3.50002Z" fill="#D1D0D0"/>
</svg>
