<svg width="49" height="49" viewBox="0 0 49 49" fill="none" xmlns="http://www.w3.org/2000/svg">
<g id="2">
<path id="3" d="M48.3555 24.8555C48.3555 38.1103 37.6103 48.8555 24.3555 48.8555C11.1006 48.8555 0.355469 38.1103 0.355469 24.8555C0.355469 11.6006 11.1006 0.855469 24.3555 0.855469C37.6103 0.855469 48.3555 11.6006 48.3555 24.8555ZM7.53211 24.8555C7.53211 34.1468 15.0642 41.6788 24.3555 41.6788C33.6468 41.6788 41.1788 34.1468 41.1788 24.8555C41.1788 15.5642 33.6468 8.03211 24.3555 8.03211C15.0642 8.03211 7.53211 15.5642 7.53211 24.8555Z" fill="url(#paint0_angular_1473_37481)"/>
<circle id="Ellipse 1" cx="24.5961" cy="45.2543" r="3.6" fill="#78CA11"/>
</g>
<defs>
<radialGradient id="paint0_angular_1473_37481" cx="0" cy="0" r="1" gradientUnits="userSpaceOnUse" gradientTransform="translate(24.3555 24.8555) rotate(90) scale(24)">
<stop stop-color="#78CA11"/>
<stop offset="0.175675" stop-color="#AEE67F"/>
<stop offset="1" stop-color="white" stop-opacity="0"/>
</radialGradient>
</defs>
</svg>
