<svg width="41" height="40" viewBox="0 0 41 40" fill="none" xmlns="http://www.w3.org/2000/svg">
<g clip-path="url(#clip0_306_6112)">
<path d="M17.0658 17.0818L18.3333 20.8254H15.4741L16.8153 17.0818H17.0658ZM23.9045 22.8298H21.8116V23.5667H26.97V22.8298H24.9067V16.9344H26.97V16.1975H21.8116V16.9344H23.9045V22.8298ZM14.4866 23.5667L15.1941 21.5918H18.5986L19.2619 23.5667H20.3525L17.6996 16.1975H16.1963L13.4992 23.5667H14.4866ZM31.082 30.5822H9.91772V9.41785H31.082V30.5822Z" fill="white"/>
<path d="M22.5635 40C32.0108 39.0273 39.5274 31.5107 40.5002 22.0634H38.0094C37.1251 30.2579 30.9202 36.787 22.5635 37.7156V40Z" fill="white"/>
<path d="M0.5 22.0634C1.47273 31.5107 8.98931 39.0273 18.4366 40V37.7156C10.08 36.787 3.88983 30.2432 2.99079 22.0634H0.5Z" fill="white"/>
<path d="M40.5002 17.9366C39.5274 8.48931 32.0108 0.972734 22.5635 0V2.28445C30.9202 3.21297 37.1103 9.75681 38.0094 17.9366H40.5002Z" fill="white"/>
<path d="M18.4366 0C8.98932 0.972735 1.47273 8.48932 0.5 17.9366H2.99079C3.87509 9.74208 10.08 3.21297 18.4366 2.28445V0Z" fill="white"/>
</g>
<defs>
<clipPath id="clip0_306_6112">
<rect width="40" height="40" fill="white" transform="translate(0.5)"/>
</clipPath>
</defs>
</svg>
