<svg width="138" height="59" viewBox="0 0 138 59" fill="none" xmlns="http://www.w3.org/2000/svg">
<path opacity="0.51" d="M42.7832 20.0433H32.0236C31.4971 20.0433 31.0605 19.6158 31.0605 19.0802V14.4767C31.0605 13.9502 31.4881 13.5137 32.0236 13.5137H43.2647C43.5347 13.5137 43.7462 13.7252 43.7462 13.9952V19.0892C43.7372 19.6158 43.3097 20.0433 42.7832 20.0433Z" fill="#AD83FF"/>
<path opacity="0.5" d="M40.0927 17.8161H30.1476C29.8506 17.8161 29.6211 17.5731 29.6211 17.2896V11.8175C29.6211 11.5205 29.8641 11.291 30.1476 11.291H40.1017C40.3987 11.291 40.6282 11.534 40.6282 11.8175V17.2896C40.6327 17.5866 40.3897 17.8161 40.0927 17.8161Z" fill="#AD83FF"/>
<path opacity="0.9" d="M46.6498 22.5414H34.9812C34.7022 22.5414 34.4727 22.3209 34.4727 22.0329V16.3718C34.4727 16.0928 34.6932 15.8633 34.9812 15.8633H46.6498C46.9288 15.8633 47.1583 16.0838 47.1583 16.3718V22.0284C47.1628 22.3074 46.9288 22.5414 46.6498 22.5414Z" fill="#AD83FF"/>
<g filter="url(#filter0_d_7996_81547)">
<path d="M42.8254 35.4308C39.7474 39.7554 34.6938 42.5769 28.9832 42.5769C19.6051 42.5769 12 34.9718 12 25.5937C12 16.6251 18.9571 9.27649 27.7682 8.65548C27.8402 8.65548 27.9077 8.64648 27.9797 8.64648C28.5377 8.66448 28.9832 9.08299 28.9832 9.6005V15.7251C23.5246 15.7251 19.1056 20.1486 19.1056 25.6027C19.1056 31.0568 23.5291 35.4803 28.9832 35.4803C34.4373 35.4803 38.8608 31.0568 38.8608 25.6027C38.8608 25.6027 44.3824 27.8842 42.8254 35.4308Z" fill="#925AFF"/>
</g>
<path d="M45.9216 26.9027C45.8361 26.1692 45.1791 25.6021 44.3736 25.6021H30.1309C29.5009 25.6021 28.9879 25.0936 28.9879 24.4591V9.59993C28.9879 9.08243 28.5424 8.66392 27.9844 8.64592C28.0474 8.64592 28.1149 8.63692 28.1779 8.63692C28.9024 8.62792 29.2894 8.92492 29.3929 9.01942L29.4019 9.02842L29.4199 9.04642L44.7156 24.3421C46.0116 25.6471 45.9216 26.9027 45.9216 26.9027Z" fill="#AD83FF"/>
<path opacity="0.91" d="M45.9129 26.8886C45.9039 27.0776 45.8859 27.2621 45.8679 27.4376C45.5484 30.3941 44.4684 33.1257 42.8259 35.4297C44.3829 27.8786 38.8613 25.6016 38.8613 25.6016H44.3694C45.1794 25.6016 45.8364 26.1686 45.9129 26.8886Z" fill="url(#paint0_linear_7996_81547)"/>
<path d="M118.257 27.5001C117.681 27.5001 117.219 27.3321 116.871 26.9961C116.535 26.6481 116.367 26.1801 116.367 25.5921V20.3181H114.045V18.6081H116.367V15.7461H118.437V18.6081H120.993V20.3181H118.437V25.2501C118.437 25.6101 118.605 25.7901 118.941 25.7901H120.723V27.5001H118.257Z" fill="#5C00A3"/>
<path d="M108.871 27.7515C107.983 27.7515 107.197 27.5655 106.513 27.1935C105.841 26.8095 105.313 26.2755 104.929 25.5915C104.557 24.8955 104.371 24.0855 104.371 23.1615V22.9455C104.371 22.0095 104.557 21.1995 104.929 20.5155C105.301 19.8315 105.823 19.3035 106.495 18.9315C107.167 18.5475 107.941 18.3555 108.817 18.3555C109.681 18.3555 110.437 18.5475 111.085 18.9315C111.733 19.3035 112.237 19.8315 112.597 20.5155C112.957 21.1995 113.137 21.9975 113.137 22.9095V23.6475H106.459C106.483 24.3435 106.729 24.9015 107.197 25.3215C107.665 25.7415 108.241 25.9515 108.925 25.9515C109.597 25.9515 110.095 25.8075 110.419 25.5195C110.743 25.2195 110.989 24.8835 111.157 24.5115L112.867 25.3935C112.699 25.7175 112.453 26.0655 112.129 26.4375C111.817 26.7975 111.397 27.1095 110.869 27.3735C110.341 27.6255 109.675 27.7515 108.871 27.7515ZM106.477 22.0815H111.031C110.983 21.4935 110.755 21.0255 110.347 20.6775C109.951 20.3295 109.435 20.1555 108.799 20.1555C108.139 20.1555 107.611 20.3295 107.215 20.6775C106.819 21.0255 106.573 21.4935 106.477 22.0815Z" fill="#5C00A3"/>
<path d="M100.199 27.5004V14.9004H102.269V27.5004H100.199Z" fill="#5C00A3"/>
<path d="M95.5957 27.5004V14.9004H97.6657V27.5004H95.5957Z" fill="#5C00A3"/>
<path d="M88.0507 27.7515C87.4267 27.7515 86.8627 27.6435 86.3587 27.4275C85.8547 27.1995 85.4527 26.8755 85.1527 26.4555C84.8647 26.0355 84.7207 25.5195 84.7207 24.9075C84.7207 24.3075 84.8647 23.8035 85.1527 23.3955C85.4527 22.9875 85.8607 22.6815 86.3767 22.4775C86.8927 22.2615 87.4807 22.1535 88.1407 22.1535H90.7147V21.6135C90.7147 21.1455 90.5707 20.7675 90.2827 20.4795C89.9947 20.1795 89.5447 20.0295 88.9327 20.0295C88.3327 20.0295 87.8767 20.1735 87.5647 20.4615C87.2647 20.7375 87.0667 21.0975 86.9707 21.5415L85.0627 20.9115C85.2067 20.4435 85.4347 20.0175 85.7467 19.6335C86.0707 19.2495 86.4967 18.9435 87.0247 18.7155C87.5527 18.4755 88.2007 18.3555 88.9687 18.3555C90.1327 18.3555 91.0447 18.6495 91.7047 19.2375C92.3767 19.8135 92.7127 20.6535 92.7127 21.7575V25.2495C92.7127 25.6095 92.8807 25.7895 93.2167 25.7895H93.9727V27.4995H92.5147C92.0827 27.4995 91.7287 27.3915 91.4527 27.1755C91.1767 26.9595 91.0387 26.6655 91.0387 26.2935V26.2575H90.7327C90.6607 26.4255 90.5347 26.6295 90.3547 26.8695C90.1747 27.1095 89.8987 27.3195 89.5267 27.4995C89.1667 27.6675 88.6747 27.7515 88.0507 27.7515ZM88.3927 26.0595C89.0767 26.0595 89.6347 25.8675 90.0667 25.4835C90.4987 25.0875 90.7147 24.5595 90.7147 23.8995V23.7195H88.2667C87.8227 23.7195 87.4627 23.8155 87.1867 24.0075C86.9107 24.1995 86.7727 24.4815 86.7727 24.8535C86.7727 25.2135 86.9167 25.5075 87.2047 25.7355C87.4927 25.9515 87.8887 26.0595 88.3927 26.0595Z" fill="#5C00A3"/>
<path d="M70.4706 27.5004L68.7246 14.9004H70.8666L72.2346 26.0064H72.5406L74.3046 14.9004H78.0666L79.8306 26.0064H80.1366L81.4866 14.9004H83.6466L81.8826 27.5004H78.1206L76.3386 16.1784H76.0326L74.2326 27.5004H70.4706Z" fill="#5C00A3"/>
<path d="M62.2804 27.7524C60.7204 27.7524 59.4724 27.3204 58.5364 26.4564C57.6124 25.5804 57.1504 24.3264 57.1504 22.6944V19.7064C57.1504 18.0744 57.6124 16.8264 58.5364 15.9624C59.4724 15.0864 60.7204 14.6484 62.2804 14.6484C63.8524 14.6484 65.1004 15.0864 66.0244 15.9624C66.9484 16.8264 67.4104 18.0744 67.4104 19.7064V22.6944C67.4104 24.3264 66.9484 25.5804 66.0244 26.4564C65.1004 27.3204 63.8524 27.7524 62.2804 27.7524ZM62.2804 25.8084C63.2164 25.8084 63.9424 25.5384 64.4584 24.9984C64.9864 24.4464 65.2504 23.7024 65.2504 22.7664V19.6344C65.2504 18.6984 64.9864 17.9604 64.4584 17.4204C63.9424 16.8684 63.2164 16.5924 62.2804 16.5924C61.3564 16.5924 60.6304 16.8684 60.1024 17.4204C59.5864 17.9604 59.3284 18.6984 59.3284 19.6344V22.7664C59.3284 23.7024 59.5864 24.4464 60.1024 24.9984C60.6304 25.5384 61.3564 25.8084 62.2804 25.8084Z" fill="#5C00A3"/>
<path d="M58.7257 42.5L56.6857 34.124H57.7537L58.6537 38.156L59.3497 41.288H59.3737L60.1537 38.156L61.2097 34.124H62.3617L63.3817 38.156L64.1617 41.276H64.1977L64.9177 38.156L65.8657 34.124H66.8977L64.7497 42.5H63.6337L62.5417 38.324L61.7737 35.252H61.7497L60.9577 38.324L59.8417 42.5H58.7257ZM70.3174 42.644C69.8934 42.644 69.5094 42.568 69.1654 42.416C68.8294 42.264 68.5374 42.048 68.2894 41.768C68.0494 41.48 67.8614 41.14 67.7254 40.748C67.5974 40.348 67.5334 39.9 67.5334 39.404C67.5334 38.916 67.5974 38.472 67.7254 38.072C67.8614 37.672 68.0494 37.332 68.2894 37.052C68.5374 36.764 68.8294 36.544 69.1654 36.392C69.5094 36.24 69.8934 36.164 70.3174 36.164C70.7334 36.164 71.1054 36.24 71.4334 36.392C71.7614 36.544 72.0414 36.756 72.2734 37.028C72.5054 37.292 72.6814 37.608 72.8014 37.976C72.9294 38.344 72.9934 38.748 72.9934 39.188V39.644H68.5414V39.932C68.5414 40.196 68.5814 40.444 68.6614 40.676C68.7494 40.9 68.8694 41.096 69.0214 41.264C69.1814 41.432 69.3734 41.564 69.5974 41.66C69.8294 41.756 70.0894 41.804 70.3774 41.804C70.7694 41.804 71.1094 41.712 71.3974 41.528C71.6934 41.344 71.9214 41.08 72.0814 40.736L72.7654 41.228C72.5654 41.652 72.2534 41.996 71.8294 42.26C71.4054 42.516 70.9014 42.644 70.3174 42.644ZM70.3174 36.968C70.0534 36.968 69.8134 37.016 69.5974 37.112C69.3814 37.2 69.1934 37.328 69.0334 37.496C68.8814 37.664 68.7614 37.864 68.6734 38.096C68.5854 38.32 68.5414 38.568 68.5414 38.84V38.924H71.9614V38.792C71.9614 38.24 71.8094 37.8 71.5054 37.472C71.2094 37.136 70.8134 36.968 70.3174 36.968ZM74.5874 33.62H75.5474V37.316H75.5954C75.7554 36.924 75.9874 36.636 76.2914 36.452C76.6034 36.26 76.9754 36.164 77.4074 36.164C77.7914 36.164 78.1394 36.24 78.4514 36.392C78.7634 36.544 79.0274 36.76 79.2434 37.04C79.4674 37.32 79.6354 37.66 79.7474 38.06C79.8674 38.46 79.9274 38.908 79.9274 39.404C79.9274 39.9 79.8674 40.348 79.7474 40.748C79.6354 41.148 79.4674 41.488 79.2434 41.768C79.0274 42.048 78.7634 42.264 78.4514 42.416C78.1394 42.568 77.7914 42.644 77.4074 42.644C76.5674 42.644 75.9634 42.26 75.5954 41.492H75.5474V42.5H74.5874V33.62ZM77.1434 41.78C77.6874 41.78 78.1154 41.612 78.4274 41.276C78.7394 40.932 78.8954 40.484 78.8954 39.932V38.876C78.8954 38.324 78.7394 37.88 78.4274 37.544C78.1154 37.2 77.6874 37.028 77.1434 37.028C76.9274 37.028 76.7194 37.06 76.5194 37.124C76.3274 37.18 76.1594 37.26 76.0154 37.364C75.8714 37.468 75.7554 37.596 75.6674 37.748C75.5874 37.892 75.5474 38.048 75.5474 38.216V40.52C75.5474 40.72 75.5874 40.9 75.6674 41.06C75.7554 41.212 75.8714 41.344 76.0154 41.456C76.1594 41.56 76.3274 41.64 76.5194 41.696C76.7194 41.752 76.9274 41.78 77.1434 41.78ZM83.6723 37.676C84.2403 37.676 84.6643 37.548 84.9443 37.292C85.2323 37.028 85.3763 36.692 85.3763 36.284V36.2C85.3763 35.76 85.2363 35.432 84.9563 35.216C84.6843 34.992 84.3243 34.88 83.8763 34.88C83.4443 34.88 83.0923 34.976 82.8203 35.168C82.5483 35.352 82.3243 35.604 82.1483 35.924L81.4043 35.348C81.5083 35.18 81.6323 35.016 81.7763 34.856C81.9283 34.688 82.1043 34.54 82.3043 34.412C82.5043 34.284 82.7363 34.18 83.0003 34.1C83.2643 34.02 83.5643 33.98 83.9003 33.98C84.2523 33.98 84.5843 34.028 84.8963 34.124C85.2083 34.212 85.4763 34.348 85.7003 34.532C85.9323 34.708 86.1123 34.928 86.2403 35.192C86.3763 35.456 86.4443 35.756 86.4443 36.092C86.4443 36.364 86.4003 36.608 86.3123 36.824C86.2323 37.04 86.1203 37.228 85.9763 37.388C85.8323 37.548 85.6603 37.684 85.4603 37.796C85.2683 37.908 85.0603 37.992 84.8363 38.048V38.096C85.0603 38.144 85.2763 38.224 85.4843 38.336C85.7003 38.44 85.8883 38.58 86.0483 38.756C86.2163 38.924 86.3483 39.132 86.4443 39.38C86.5483 39.62 86.6003 39.896 86.6003 40.208C86.6003 40.568 86.5323 40.9 86.3963 41.204C86.2603 41.5 86.0683 41.756 85.8203 41.972C85.5723 42.18 85.2723 42.344 84.9203 42.464C84.5683 42.584 84.1803 42.644 83.7563 42.644C83.3963 42.644 83.0763 42.604 82.7963 42.524C82.5163 42.444 82.2683 42.336 82.0523 42.2C81.8363 42.064 81.6443 41.912 81.4763 41.744C81.3163 41.576 81.1723 41.4 81.0443 41.216L81.8003 40.64C81.9043 40.808 82.0163 40.96 82.1363 41.096C82.2643 41.232 82.4043 41.348 82.5563 41.444C82.7083 41.54 82.8803 41.616 83.0723 41.672C83.2643 41.72 83.4883 41.744 83.7443 41.744C84.3363 41.744 84.7843 41.612 85.0883 41.348C85.3923 41.076 85.5443 40.692 85.5443 40.196V40.1C85.5443 39.604 85.3923 39.224 85.0883 38.96C84.7843 38.688 84.3363 38.552 83.7443 38.552H82.7603V37.676H83.6723ZM97.1356 41.276H97.0996C96.9956 41.668 96.7396 41.996 96.3316 42.26C95.9316 42.516 95.4116 42.644 94.7716 42.644C94.2596 42.644 93.7876 42.552 93.3556 42.368C92.9316 42.176 92.5676 41.9 92.2636 41.54C91.9596 41.172 91.7196 40.72 91.5436 40.184C91.3756 39.64 91.2916 39.016 91.2916 38.312C91.2916 37.616 91.3756 37 91.5436 36.464C91.7116 35.92 91.9516 35.468 92.2636 35.108C92.5756 34.74 92.9516 34.46 93.3916 34.268C93.8316 34.076 94.3196 33.98 94.8556 33.98C95.6076 33.98 96.2356 34.148 96.7396 34.484C97.2436 34.82 97.6316 35.264 97.9036 35.816L97.0756 36.32C96.8836 35.872 96.5956 35.52 96.2116 35.264C95.8356 35.008 95.3836 34.88 94.8556 34.88C94.4876 34.88 94.1516 34.948 93.8476 35.084C93.5436 35.212 93.2796 35.396 93.0556 35.636C92.8396 35.876 92.6716 36.164 92.5516 36.5C92.4316 36.836 92.3716 37.212 92.3716 37.628V38.984C92.3716 39.4 92.4316 39.78 92.5516 40.124C92.6716 40.46 92.8396 40.748 93.0556 40.988C93.2796 41.228 93.5516 41.416 93.8716 41.552C94.1916 41.68 94.5516 41.744 94.9516 41.744C95.2396 41.744 95.5116 41.708 95.7676 41.636C96.0316 41.556 96.2596 41.44 96.4516 41.288C96.6516 41.136 96.8076 40.948 96.9196 40.724C97.0316 40.492 97.0876 40.22 97.0876 39.908V39.08H95.2396V38.192H98.0716V42.5H97.1356V41.276ZM104.471 42.5C104.111 42.5 103.851 42.404 103.691 42.212C103.539 42.02 103.443 41.78 103.403 41.492H103.343C103.207 41.876 102.983 42.164 102.671 42.356C102.359 42.548 101.987 42.644 101.555 42.644C100.899 42.644 100.387 42.476 100.019 42.14C99.6593 41.804 99.4793 41.348 99.4793 40.772C99.4793 40.188 99.6913 39.74 100.115 39.428C100.547 39.116 101.215 38.96 102.119 38.96H103.343V38.348C103.343 37.908 103.223 37.572 102.983 37.34C102.743 37.108 102.375 36.992 101.879 36.992C101.503 36.992 101.187 37.076 100.931 37.244C100.683 37.412 100.475 37.636 100.307 37.916L99.7313 37.376C99.8993 37.04 100.167 36.756 100.535 36.524C100.903 36.284 101.367 36.164 101.927 36.164C102.679 36.164 103.263 36.348 103.679 36.716C104.095 37.084 104.303 37.596 104.303 38.252V41.66H105.011V42.5H104.471ZM101.711 41.828C101.951 41.828 102.171 41.8 102.371 41.744C102.571 41.688 102.743 41.608 102.887 41.504C103.031 41.4 103.143 41.28 103.223 41.144C103.303 41.008 103.343 40.86 103.343 40.7V39.68H102.071C101.519 39.68 101.115 39.76 100.859 39.92C100.611 40.08 100.487 40.312 100.487 40.616V40.868C100.487 41.172 100.595 41.408 100.811 41.576C101.035 41.744 101.335 41.828 101.711 41.828ZM107.761 42.5C107.425 42.5 107.169 42.408 106.993 42.224C106.825 42.032 106.741 41.784 106.741 41.48V37.148H105.721V36.308H106.297C106.505 36.308 106.645 36.268 106.717 36.188C106.797 36.1 106.837 35.952 106.837 35.744V34.592H107.701V36.308H109.057V37.148H107.701V41.66H108.961V42.5H107.761ZM112.894 42.644C112.47 42.644 112.086 42.568 111.742 42.416C111.406 42.264 111.114 42.048 110.866 41.768C110.626 41.48 110.438 41.14 110.302 40.748C110.174 40.348 110.11 39.9 110.11 39.404C110.11 38.916 110.174 38.472 110.302 38.072C110.438 37.672 110.626 37.332 110.866 37.052C111.114 36.764 111.406 36.544 111.742 36.392C112.086 36.24 112.47 36.164 112.894 36.164C113.31 36.164 113.682 36.24 114.01 36.392C114.338 36.544 114.618 36.756 114.85 37.028C115.082 37.292 115.258 37.608 115.378 37.976C115.506 38.344 115.57 38.748 115.57 39.188V39.644H111.118V39.932C111.118 40.196 111.158 40.444 111.238 40.676C111.326 40.9 111.446 41.096 111.598 41.264C111.758 41.432 111.95 41.564 112.174 41.66C112.406 41.756 112.666 41.804 112.954 41.804C113.346 41.804 113.686 41.712 113.974 41.528C114.27 41.344 114.498 41.08 114.658 40.736L115.342 41.228C115.142 41.652 114.83 41.996 114.406 42.26C113.982 42.516 113.478 42.644 112.894 42.644ZM112.894 36.968C112.63 36.968 112.39 37.016 112.174 37.112C111.958 37.2 111.77 37.328 111.61 37.496C111.458 37.664 111.338 37.864 111.25 38.096C111.162 38.32 111.118 38.568 111.118 38.84V38.924H114.538V38.792C114.538 38.24 114.386 37.8 114.082 37.472C113.786 37.136 113.39 36.968 112.894 36.968ZM116.457 36.308H117.393L118.053 38.984L118.713 41.696H118.737L119.493 38.984L120.273 36.308H121.125L121.929 38.984L122.697 41.696H122.721L123.357 38.984L124.029 36.308H124.929L123.285 42.5H122.097L121.233 39.524L120.693 37.64H120.669L120.141 39.524L119.277 42.5H118.113L116.457 36.308ZM130.722 42.5C130.362 42.5 130.102 42.404 129.942 42.212C129.79 42.02 129.694 41.78 129.654 41.492H129.594C129.458 41.876 129.234 42.164 128.922 42.356C128.61 42.548 128.238 42.644 127.806 42.644C127.15 42.644 126.638 42.476 126.27 42.14C125.91 41.804 125.73 41.348 125.73 40.772C125.73 40.188 125.942 39.74 126.366 39.428C126.798 39.116 127.466 38.96 128.37 38.96H129.594V38.348C129.594 37.908 129.474 37.572 129.234 37.34C128.994 37.108 128.626 36.992 128.13 36.992C127.754 36.992 127.438 37.076 127.182 37.244C126.934 37.412 126.726 37.636 126.558 37.916L125.982 37.376C126.15 37.04 126.418 36.756 126.786 36.524C127.154 36.284 127.618 36.164 128.178 36.164C128.93 36.164 129.514 36.348 129.93 36.716C130.346 37.084 130.554 37.596 130.554 38.252V41.66H131.262V42.5H130.722ZM127.962 41.828C128.202 41.828 128.422 41.8 128.622 41.744C128.822 41.688 128.994 41.608 129.138 41.504C129.282 41.4 129.394 41.28 129.474 41.144C129.554 41.008 129.594 40.86 129.594 40.7V39.68H128.322C127.77 39.68 127.366 39.76 127.11 39.92C126.862 40.08 126.738 40.312 126.738 40.616V40.868C126.738 41.172 126.846 41.408 127.062 41.576C127.286 41.744 127.586 41.828 127.962 41.828ZM136.402 36.308H137.35L134.578 43.94C134.506 44.124 134.434 44.276 134.362 44.396C134.29 44.524 134.202 44.624 134.098 44.696C133.994 44.768 133.862 44.82 133.702 44.852C133.55 44.884 133.362 44.9 133.138 44.9H132.646V44.06H133.618L134.086 42.74L131.77 36.308H132.73L134.218 40.52L134.506 41.528H134.566L134.902 40.52L136.402 36.308Z" fill="#242325"/>
<defs>
<filter id="filter0_d_7996_81547" x="0" y="0.646484" width="55.1016" height="57.9297" filterUnits="userSpaceOnUse" color-interpolation-filters="sRGB">
<feFlood flood-opacity="0" result="BackgroundImageFix"/>
<feColorMatrix in="SourceAlpha" type="matrix" values="0 0 0 0 0 0 0 0 0 0 0 0 0 0 0 0 0 0 127 0" result="hardAlpha"/>
<feOffset dy="4"/>
<feGaussianBlur stdDeviation="6"/>
<feComposite in2="hardAlpha" operator="out"/>
<feColorMatrix type="matrix" values="0 0 0 0 0.579167 0 0 0 0 0.547795 0 0 0 0 0.547795 0 0 0 0.25 0"/>
<feBlend mode="normal" in2="BackgroundImageFix" result="effect1_dropShadow_7996_81547"/>
<feBlend mode="normal" in="SourceGraphic" in2="effect1_dropShadow_7996_81547" result="shape"/>
</filter>
<linearGradient id="paint0_linear_7996_81547" x1="42.3871" y1="35.8174" x2="42.3871" y2="25.6445" gradientUnits="userSpaceOnUse">
<stop offset="8.52446e-08" stop-color="#925AFF"/>
<stop offset="1" stop-color="#713BBB"/>
</linearGradient>
</defs>
</svg>
