<svg width="63" height="18" viewBox="0 0 63 18" fill="none" xmlns="http://www.w3.org/2000/svg">
<path d="M13.3369 9.1255C13.3475 8.52249 13.5082 7.93176 13.8046 7.4073C14.1009 6.88285 14.5233 6.4414 15.0332 6.12332C14.7056 5.659 14.276 5.27666 13.7778 5.00592C13.2796 4.73517 12.726 4.58328 12.16 4.562C10.9518 4.43484 9.78068 5.28864 9.16419 5.28864C8.53629 5.28864 7.58873 4.57443 6.56696 4.59642C5.90739 4.62096 5.26511 4.8152 4.7016 5.16055C4.13809 5.5059 3.67219 5.99081 3.34849 6.56887C1.95664 8.99069 2.99458 12.5503 4.3284 14.5084C4.99435 15.4664 5.77447 16.5372 6.79434 16.499C7.79327 16.4579 8.16621 15.8594 9.37064 15.8594C10.5646 15.8594 10.9147 16.5 11.9555 16.4751C13.0267 16.4579 13.7013 15.5123 14.3453 14.5438C14.8244 13.8608 15.193 13.1061 15.4375 12.3074C14.8177 12.0396 14.289 11.5961 13.916 11.0312C13.5429 10.4663 13.3417 9.80348 13.3369 9.1255ZM11.3714 3.27412C11.9549 2.56948 12.2422 1.66406 12.1724 0.75C11.28 0.843927 10.4556 1.27236 9.86345 1.94992C9.28195 2.62025 8.98633 3.49366 9.04051 4.3813C9.9329 4.39086 10.8101 3.97399 11.3704 3.27508L11.3714 3.27412Z" fill="#494949"/>
<path fill-rule="evenodd" clip-rule="evenodd" d="M25.4765 2.18765C25.4498 2.30663 25.4367 2.42828 25.4375 2.55022V15.4495C25.4375 15.5817 25.4512 15.7022 25.4765 15.812L32.3037 8.99887L25.4765 2.18765ZM26.1703 16.4944C26.3906 16.5197 26.6478 16.4594 26.9226 16.3049L35.0245 11.7119L32.9946 9.68612L26.1694 16.4954L26.1703 16.4944ZM35.9035 11.2142L38.325 9.84262C39.1417 9.37895 39.1417 8.62074 38.325 8.15804L35.9025 6.78452L33.6836 8.99887L35.9035 11.2142ZM35.0245 6.28585L26.9226 1.69578C26.6488 1.54025 26.3906 1.48096 26.1694 1.50526L32.9937 8.3126L35.0245 6.2878V6.28585Z" fill="#494949"/>
<path fill-rule="evenodd" clip-rule="evenodd" d="M60.2648 5.17671C60.2758 5.19536 60.2817 5.21659 60.2819 5.23826C60.2821 5.25992 60.2766 5.28124 60.2659 5.30008C60.2552 5.31891 60.2397 5.33459 60.221 5.34552C60.2023 5.35645 60.181 5.36226 60.1594 5.36234H54.1294C53.2683 5.28701 52.4083 5.51962 51.7025 6.01878C50.9967 6.51795 50.4909 7.25131 50.275 8.08839C50.2687 8.11182 50.2556 8.13287 50.2373 8.14888C50.2191 8.16489 50.1966 8.17516 50.1725 8.17839C50.1485 8.18162 50.124 8.17767 50.1022 8.16704C50.0804 8.15641 50.0622 8.13956 50.05 8.11863L47.9371 4.46162C47.9247 4.44016 47.9191 4.41545 47.9209 4.39073C47.9228 4.36602 47.9321 4.34245 47.9476 4.32311C48.6487 3.44051 49.5404 2.72806 50.5559 2.23914C51.5715 1.75023 52.6845 1.49754 53.8116 1.50002C55.1139 1.49957 56.3939 1.83847 57.5254 2.48332C58.6568 3.12816 59.6008 4.05669 60.2641 5.17742L60.2648 5.17671ZM53.8116 11.8038C53.0682 11.803 52.3555 11.5073 51.83 10.9816C51.3044 10.4559 51.0089 9.74306 51.0083 8.99966C51.009 8.25638 51.3046 7.54376 51.8302 7.01818C52.3558 6.4926 53.0684 6.197 53.8116 6.19626C54.5548 6.19719 55.2672 6.49287 55.7926 7.01842C56.318 7.54398 56.6135 8.2565 56.6143 8.99966C56.6135 9.74282 56.318 10.4553 55.7926 10.9809C55.2672 11.5064 54.5548 11.8021 53.8116 11.8031V11.8038ZM54.9197 12.5631C54.9049 12.5437 54.8846 12.5292 54.8614 12.5214C54.8382 12.5136 54.8132 12.513 54.7897 12.5196C54.4726 12.6081 54.1428 12.6531 53.8123 12.6531C53.1165 12.651 52.4356 12.4511 51.849 12.0767C51.2624 11.7024 50.7943 11.169 50.4992 10.5388L47.4871 5.32156C47.4763 5.30297 47.4608 5.28755 47.4422 5.27682C47.4235 5.26608 47.4024 5.26042 47.3809 5.26039C47.3591 5.26051 47.337 5.26643 47.3182 5.27755C47.2994 5.28867 47.2839 5.30459 47.2733 5.32367C46.6789 6.38244 46.3502 7.56965 46.3156 8.7834C46.2809 9.99715 46.5412 11.2012 47.0743 12.2922C47.6073 13.3832 48.3971 14.3285 49.3759 15.0471C50.3546 15.7657 51.4931 16.236 52.6937 16.4177C52.7181 16.4212 52.743 16.4173 52.7651 16.4065C52.7873 16.3957 52.8058 16.3786 52.8181 16.3573L54.9303 12.6989C54.9425 12.6776 54.948 12.6532 54.9463 12.6288C54.9445 12.6044 54.9355 12.581 54.9204 12.5617L54.9197 12.5631ZM56.4525 6.1829H60.6818C60.7324 6.1829 60.7774 6.21384 60.7957 6.26095C61.1388 7.13354 61.3125 8.05535 61.3125 9.00036C61.3176 10.977 60.5373 12.8746 59.1434 14.276C57.758 15.6829 55.8711 16.4827 53.8967 16.5H53.8953C53.8738 16.4999 53.8527 16.4942 53.8341 16.4833C53.8155 16.4725 53.8 16.457 53.7893 16.4384C53.7785 16.4198 53.7729 16.3986 53.7728 16.3771C53.7728 16.3556 53.7784 16.3344 53.7891 16.3158L56.8062 11.0894L56.809 11.0852L56.8118 11.0809C57.2376 10.4708 57.4654 9.7444 57.4643 9.00036C57.4655 8.51455 57.369 8.03346 57.1806 7.58569C56.9922 7.13792 56.7157 6.7326 56.3675 6.39384C56.35 6.37675 56.3381 6.35486 56.3331 6.33096C56.3281 6.30705 56.3304 6.28221 56.3396 6.25959C56.3488 6.23698 56.3645 6.21761 56.3847 6.20395C56.405 6.19029 56.4281 6.18296 56.4525 6.1829Z" fill="#494949"/>
</svg>
