<svg width="24" height="24" viewBox="0 0 24 24" fill="none" xmlns="http://www.w3.org/2000/svg">
<path d="M9.90039 9.63522C9.90039 10.2832 10.0804 10.3792 10.4884 10.5232L11.1004 10.7392V8.69922H10.7404C10.2844 8.69922 9.90039 9.11922 9.90039 9.63522Z" fill="#ECB426"/>
<path d="M12.9004 15.3017H13.2604C13.7284 15.3017 14.1004 14.8817 14.1004 14.3657C14.1004 13.7177 13.9204 13.6217 13.5124 13.4777L12.9004 13.2617V15.3017Z" fill="#ECB426"/>
<path d="M21.096 4.176L18.636 6.636C18.456 6.816 18.228 6.9 18 6.9C17.772 6.9 17.544 6.816 17.364 6.636C17.016 6.288 17.016 5.712 17.364 5.364L19.824 2.904C17.712 1.104 14.988 0 12 0C5.376 0 0 5.376 0 12C0 18.624 5.376 24 12 24C18.624 24 24 18.624 24 12C24 9.012 22.896 6.288 21.096 4.176ZM14.1 11.784C14.868 12.06 15.9 12.612 15.9 14.376C15.9 15.876 14.712 17.112 13.26 17.112H12.9V17.412C12.9 17.904 12.492 18.312 12 18.312C11.508 18.312 11.1 17.904 11.1 17.412V17.112H11.004C9.408 17.112 8.1 15.768 8.1 14.112C8.1 13.608 8.508 13.2 9 13.2C9.492 13.2 9.9 13.608 9.9 14.1C9.9 14.76 10.392 15.3 11.004 15.3H11.1V12.636L9.9 12.216C9.132 11.94 8.1 11.388 8.1 9.624C8.1 8.124 9.288 6.888 10.74 6.888H11.1V6.6C11.1 6.108 11.508 5.7 12 5.7C12.492 5.7 12.9 6.108 12.9 6.6V6.9H12.996C14.592 6.9 15.9 8.244 15.9 9.9C15.9 10.392 15.492 10.8 15 10.8C14.508 10.8 14.1 10.392 14.1 9.9C14.1 9.24 13.608 8.7 12.996 8.7H12.9V11.364L14.1 11.784Z" fill="#ECB426"/>
</svg>
