<svg id="svg" version="1.1" xmlns="http://www.w3.org/2000/svg" xmlns:xlink="http://www.w3.org/1999/xlink" width="44" height="44" viewBox="0, 0, 400,400"><g id="svgg"><path id="path0" d="M165.550 9.631 C 148.306 10.800,128.185 15.643,113.437 22.173 L 111.400 23.075 113.438 23.520 C 121.513 25.283,125.188 29.077,125.196 35.658 C 125.214 49.925,107.968 66.988,78.718 81.641 C 72.365 84.824,72.645 84.001,76.140 89.200 C 80.091 95.078,95.580 109.308,96.545 107.946 C 96.602 107.866,97.260 106.810,98.007 105.600 C 124.168 63.257,234.765 24.366,274.500 43.537 C 276.205 44.360,277.600 44.986,277.600 44.929 C 277.600 44.616,269.719 38.810,265.314 35.879 C 236.276 16.552,200.868 7.236,165.550 9.631 M207.200 158.437 C 173.761 163.333,133.109 167.195,108.800 167.786 C 80.029 168.485,80.878 168.380,77.650 171.637 C 74.191 175.128,74.505 168.116,74.700 237.364 L 74.800 272.928 88.100 272.655 C 125.672 271.885,166.405 268.467,207.916 262.600 C 211.809 262.050,215.091 261.600,215.209 261.600 C 215.327 261.600,215.425 238.110,215.427 209.400 C 215.429 180.690,215.334 157.221,215.215 157.248 C 215.097 157.274,211.490 157.809,207.200 158.437 M208.011 165.438 L 208.525 167.277 210.763 167.005 L 213.000 166.734 211.291 168.491 L 209.582 170.249 210.195 171.987 C 210.969 174.181,210.839 174.287,208.883 173.052 L 207.290 172.047 205.626 173.471 C 203.609 175.197,203.465 175.110,204.215 172.615 C 204.538 171.544,204.756 170.639,204.701 170.604 C 204.645 170.568,203.909 170.123,203.065 169.615 C 201.372 168.596,201.633 168.022,203.800 168.000 C 205.465 167.983,205.784 167.674,206.382 165.500 C 207.034 163.125,207.360 163.113,208.011 165.438 M183.213 168.647 L 183.731 170.495 185.865 170.244 C 188.428 169.943,188.467 170.073,186.375 171.946 L 184.751 173.400 185.380 175.162 C 186.172 177.382,186.043 177.490,184.083 176.252 L 182.490 175.247 180.826 176.671 C 178.834 178.376,178.600 178.268,179.396 176.012 C 180.205 173.718,180.223 173.777,178.400 172.752 C 176.461 171.662,176.372 171.202,178.100 171.195 C 180.637 171.184,181.106 170.859,181.609 168.761 C 182.195 166.318,182.554 166.293,183.213 168.647 M161.144 172.888 C 162.360 172.822,163.200 172.944,163.200 173.188 C 163.200 173.415,163.065 173.605,162.900 173.612 C 162.735 173.618,162.020 174.151,161.312 174.795 L 160.024 175.967 160.612 177.634 C 161.407 179.887,161.356 180.193,160.300 179.507 C 157.595 177.750,157.810 177.769,156.155 179.133 C 154.145 180.789,153.918 180.733,154.618 178.750 C 155.432 176.443,155.394 176.309,153.615 175.209 C 151.798 174.087,152.096 173.616,154.627 173.606 L 156.254 173.600 156.986 171.300 L 157.717 169.000 158.403 171.000 L 159.088 173.000 161.144 172.888 M133.984 174.100 C 134.347 175.107,134.558 175.201,136.490 175.217 L 138.600 175.234 136.949 176.717 L 135.299 178.200 135.891 179.925 C 136.646 182.123,136.417 182.313,134.548 181.042 C 133.292 180.188,132.918 180.097,132.358 180.507 C 131.986 180.778,131.130 181.413,130.455 181.917 L 129.228 182.835 129.810 180.917 C 130.603 178.303,130.607 178.316,128.815 177.209 C 126.987 176.079,127.296 175.616,129.885 175.606 C 131.527 175.600,131.581 175.557,132.025 173.900 C 132.795 171.029,132.880 171.037,133.984 174.100 M109.000 174.800 L 109.664 176.800 111.732 176.806 L 113.800 176.812 112.235 178.136 L 110.670 179.460 111.135 181.307 C 111.391 182.323,111.600 183.263,111.600 183.396 C 111.600 183.529,110.831 183.109,109.891 182.462 L 108.181 181.286 106.675 182.494 C 104.821 183.981,104.534 183.760,105.320 181.452 L 105.931 179.661 104.265 178.544 L 102.600 177.428 104.677 177.087 C 106.725 176.751,106.763 176.719,107.409 174.773 C 108.213 172.352,108.187 172.351,109.000 174.800 M84.200 175.600 L 84.864 177.600 86.932 177.606 L 89.000 177.612 87.420 178.949 L 85.839 180.286 86.347 181.982 C 87.002 184.167,86.747 184.359,84.979 183.011 L 83.536 181.910 81.768 183.180 C 79.818 184.580,79.724 184.484,80.604 181.988 C 80.937 181.046,81.162 180.251,81.104 180.221 C 81.047 180.192,80.280 179.635,79.400 178.984 L 77.800 177.800 79.960 177.600 L 82.121 177.400 82.672 175.500 C 83.356 173.146,83.386 173.148,84.200 175.600 M195.614 177.449 L 196.132 179.298 198.266 179.078 C 200.827 178.814,200.850 178.889,198.775 180.746 L 197.151 182.200 197.780 183.962 C 198.556 186.139,198.405 186.315,196.674 185.246 C 194.895 184.146,194.692 184.168,193.000 185.653 C 191.232 187.206,191.077 187.069,191.818 184.607 C 192.455 182.489,192.489 182.560,190.287 181.368 C 188.867 180.600,189.231 180.002,191.124 179.994 C 193.081 179.986,193.367 179.737,193.982 177.500 C 194.635 175.123,194.960 175.113,195.614 177.449 M173.636 182.088 L 175.800 181.976 174.101 183.541 L 172.402 185.106 173.001 186.804 C 173.855 189.224,173.783 189.326,172.008 188.205 C 170.043 186.964,170.225 186.955,168.400 188.400 C 166.429 189.961,166.377 189.935,167.039 187.736 C 167.768 185.314,167.836 185.535,166.015 184.409 C 164.190 183.281,164.496 182.816,167.068 182.806 C 168.624 182.800,168.756 182.712,169.019 181.500 C 169.730 178.233,170.029 178.012,170.783 180.200 L 171.472 182.200 173.636 182.088 M148.742 184.471 C 150.019 184.392,150.800 184.505,150.800 184.771 C 150.800 185.007,150.665 185.205,150.500 185.212 C 150.335 185.218,149.620 185.751,148.912 186.395 L 147.624 187.567 148.212 189.234 C 149.054 191.621,148.980 191.723,147.208 190.605 C 145.243 189.364,145.425 189.355,143.600 190.800 C 141.635 192.357,141.523 192.320,142.218 190.350 C 143.044 188.009,142.993 187.837,141.100 186.553 L 139.400 185.400 141.597 185.200 L 143.795 185.000 144.573 182.830 L 145.351 180.659 146.017 182.630 L 146.684 184.600 148.742 184.471 M121.366 184.700 L 121.997 186.600 124.298 186.463 L 126.600 186.327 124.734 187.791 L 122.867 189.255 123.479 191.049 C 124.257 193.333,124.006 193.550,122.190 192.165 C 121.179 191.394,120.566 191.166,120.205 191.425 C 119.918 191.631,119.097 192.236,118.381 192.770 L 117.080 193.740 117.298 192.770 C 117.417 192.236,117.640 191.249,117.792 190.576 C 118.046 189.458,117.919 189.250,116.335 188.176 L 114.600 187.000 116.875 186.881 C 119.116 186.763,119.157 186.739,119.606 185.281 C 119.856 184.466,120.131 183.575,120.218 183.300 C 120.484 182.451,120.712 182.729,121.366 184.700 M96.600 185.600 L 97.264 187.600 99.511 187.600 L 101.758 187.600 100.079 188.835 C 98.209 190.209,98.155 190.404,98.982 192.750 C 99.668 194.692,99.518 194.737,97.403 193.227 L 95.806 192.086 94.285 193.291 C 92.415 194.772,92.246 194.639,92.965 192.249 L 93.532 190.366 91.958 189.325 C 90.104 188.098,90.133 188.029,92.648 187.669 C 94.538 187.399,94.585 187.357,95.111 185.497 C 95.773 183.151,95.787 183.152,96.600 185.600 M365.143 258.892 C 365.111 300.312,364.966 341.220,364.820 349.800 L 364.555 365.400 364.478 352.777 L 364.400 340.155 362.300 342.181 C 347.851 356.120,281.701 362.706,144.400 363.874 C 118.598 364.094,110.834 364.256,116.600 364.456 C 157.371 365.868,205.138 370.253,262.200 377.822 C 269.680 378.815,288.220 381.321,303.400 383.392 C 340.033 388.389,342.762 388.708,343.179 388.034 C 343.452 387.593,344.629 387.613,350.054 388.150 C 367.126 389.839,371.600 389.977,371.600 388.814 C 371.600 388.095,371.930 388.019,375.500 387.914 C 379.200 387.806,379.407 387.754,379.528 386.900 C 379.608 386.333,379.932 386.000,380.404 386.000 C 381.376 386.000,381.497 385.765,381.834 383.232 C 382.101 381.214,382.074 381.122,381.291 381.371 C 380.534 381.611,380.445 381.422,380.189 379.036 L 379.911 376.440 378.956 377.066 C 378.009 377.686,378.000 377.679,378.000 376.246 C 378.000 374.859,377.521 374.358,377.000 375.200 C 376.456 376.080,376.000 375.512,376.000 373.956 L 376.000 372.311 375.234 373.256 C 374.813 373.775,374.363 374.095,374.234 373.966 C 374.104 373.837,374.044 334.957,374.099 287.566 L 374.200 201.400 375.099 202.800 L 375.997 204.200 375.999 202.230 L 376.000 200.261 377.000 201.200 L 378.000 202.139 378.013 200.570 L 378.025 199.000 378.964 200.066 L 379.903 201.132 380.179 198.339 C 380.413 195.955,380.539 195.617,381.037 196.030 C 381.920 196.763,382.110 196.256,381.800 193.998 C 381.578 192.384,381.317 191.854,380.580 191.518 C 380.013 191.260,379.595 190.679,379.521 190.049 C 379.411 189.105,379.037 188.896,375.516 187.812 C 372.427 186.862,371.608 186.453,371.516 185.816 C 371.427 185.205,370.901 184.905,369.288 184.548 C 368.127 184.291,366.732 183.969,366.188 183.833 L 365.200 183.585 365.143 258.892 M208.011 186.238 L 208.525 188.077 210.763 187.822 L 213.000 187.567 211.275 189.221 L 209.550 190.875 210.174 192.705 C 210.957 195.003,210.850 195.094,208.842 193.826 L 207.208 192.795 205.593 194.254 C 203.632 196.025,203.428 195.899,204.186 193.381 C 204.819 191.275,204.849 191.338,202.687 190.168 C 201.383 189.463,201.593 188.802,203.124 188.795 C 205.365 188.783,205.842 188.427,206.369 186.371 C 206.997 183.921,207.354 183.892,208.011 186.238 M183.213 189.447 L 183.731 191.295 185.865 191.044 C 188.425 190.743,188.432 190.767,186.380 192.686 L 184.761 194.200 185.385 195.962 C 186.173 198.189,186.045 198.291,184.042 197.026 L 182.408 195.995 180.793 197.454 C 178.830 199.227,178.661 199.121,179.423 196.589 C 180.057 194.485,179.634 193.692,177.500 192.980 C 176.480 192.639,176.644 192.000,177.750 192.000 C 180.494 192.000,181.119 191.604,181.611 189.556 C 182.195 187.118,182.554 187.094,183.213 189.447 M161.142 193.671 C 162.419 193.592,163.200 193.705,163.200 193.971 C 163.200 194.207,163.065 194.405,162.900 194.412 C 162.735 194.418,162.020 194.951,161.312 195.595 L 160.024 196.767 160.612 198.434 C 161.407 200.687,161.356 200.993,160.300 200.307 C 157.591 198.547,157.810 198.566,156.087 199.931 C 154.028 201.562,153.918 201.533,154.618 199.550 C 155.431 197.244,155.393 197.108,153.625 196.016 C 151.684 194.816,151.876 194.400,154.372 194.400 L 156.296 194.400 156.810 192.500 C 157.566 189.702,157.681 189.653,158.414 191.821 L 159.084 193.800 161.142 193.671 M133.984 194.900 C 134.347 195.907,134.558 196.002,136.490 196.018 L 138.600 196.036 136.933 197.443 L 135.265 198.850 135.878 200.646 C 136.616 202.814,136.406 203.136,134.923 202.109 C 134.305 201.681,133.596 201.214,133.348 201.071 C 133.099 200.929,132.203 201.362,131.357 202.034 C 129.687 203.362,129.279 203.097,129.964 201.132 C 130.612 199.272,130.540 199.075,128.825 198.016 C 126.877 196.812,127.077 196.400,129.608 196.400 L 131.569 196.400 132.025 194.700 C 132.795 191.829,132.880 191.837,133.984 194.900 M108.993 195.580 L 109.651 197.560 111.725 197.680 L 113.800 197.800 112.149 198.989 L 110.498 200.178 111.049 201.739 C 111.965 204.335,111.784 204.565,109.862 203.243 L 108.125 202.047 106.642 203.270 C 104.815 204.775,104.534 204.559,105.320 202.252 L 105.931 200.461 104.310 199.338 C 102.550 198.118,102.849 197.745,105.668 197.640 C 106.582 197.606,106.831 197.313,107.400 195.600 C 108.214 193.151,108.187 193.151,108.993 195.580 M84.193 196.380 L 84.851 198.360 86.925 198.480 L 89.000 198.600 87.353 199.786 L 85.707 200.971 86.298 202.707 C 87.056 204.932,86.766 205.174,84.979 203.811 L 83.536 202.710 81.768 203.980 C 79.818 205.380,79.724 205.284,80.603 202.790 C 81.161 201.210,81.153 201.043,80.503 200.586 C 80.117 200.315,79.350 199.718,78.800 199.260 L 77.800 198.427 79.868 198.413 L 81.936 198.400 82.600 196.400 C 83.414 193.951,83.387 193.951,84.193 196.380 M195.613 198.247 L 196.131 200.095 198.265 199.844 C 200.825 199.543,200.832 199.567,198.780 201.486 L 197.161 203.000 197.785 204.762 C 198.570 206.982,198.442 207.089,196.483 205.852 L 194.890 204.847 193.226 206.271 C 191.208 207.998,191.064 207.910,191.818 205.407 C 192.455 203.290,192.488 203.360,190.300 202.175 C 188.827 201.378,188.911 200.801,190.500 200.795 C 192.982 200.784,193.431 200.471,193.969 198.371 C 194.597 195.919,194.954 195.892,195.613 198.247 M173.636 202.888 L 175.800 202.776 174.101 204.341 L 172.402 205.906 173.001 207.604 C 173.855 210.024,173.776 210.149,172.107 209.014 C 170.228 207.738,170.068 207.745,168.385 209.184 C 166.509 210.787,166.395 210.716,167.082 208.372 C 167.409 207.256,167.614 206.294,167.538 206.233 C 167.462 206.173,166.693 205.652,165.829 205.076 C 164.117 203.936,164.288 203.707,167.000 203.514 C 168.481 203.408,168.638 203.281,169.109 201.800 C 170.023 198.928,170.061 198.910,170.782 201.000 L 171.472 203.000 173.636 202.888 M148.839 205.287 L 151.000 205.175 149.301 206.741 L 147.602 208.306 148.201 210.004 C 149.055 212.424,148.976 212.549,147.307 211.414 C 145.428 210.138,145.268 210.145,143.585 211.584 C 141.697 213.198,141.573 213.115,142.331 210.745 L 142.988 208.690 142.016 208.045 C 139.314 206.253,139.232 206.028,141.271 206.013 C 143.414 205.998,144.207 205.403,144.614 203.504 C 145.075 201.359,145.312 201.344,146.012 203.421 L 146.678 205.400 148.839 205.287 M373.600 287.816 C 373.600 374.781,373.640 372.400,372.171 372.400 C 372.077 372.400,372.006 334.195,372.013 287.500 C 372.027 203.024,372.031 202.605,372.813 203.544 C 373.590 204.477,373.600 205.545,373.600 287.816 M121.584 206.100 C 121.953 207.124,122.137 207.200,124.248 207.200 L 126.515 207.200 124.682 208.600 L 122.848 210.000 123.469 211.822 C 124.249 214.109,124.117 214.225,122.214 212.932 C 121.206 212.247,120.501 212.008,120.177 212.242 C 119.905 212.439,119.097 213.036,118.381 213.570 L 117.080 214.540 117.298 213.570 C 117.417 213.036,117.640 212.049,117.792 211.376 C 118.046 210.258,117.919 210.050,116.335 208.976 L 114.600 207.800 116.890 207.680 L 119.180 207.561 119.630 205.880 C 120.395 203.031,120.481 203.041,121.584 206.100 M96.600 206.400 L 97.264 208.400 99.511 208.400 L 101.758 208.400 100.079 209.635 C 98.209 211.009,98.155 211.204,98.982 213.550 C 99.672 215.505,99.499 215.555,97.441 213.998 L 95.882 212.818 94.269 214.004 C 92.295 215.455,92.141 215.340,92.934 213.013 L 93.557 211.183 91.979 210.138 C 89.902 208.764,89.985 208.466,92.488 208.321 L 94.577 208.200 95.112 206.300 C 95.773 203.950,95.787 203.951,96.600 206.400 M371.246 287.400 C 371.246 344.756,371.118 369.842,370.823 370.137 C 370.526 370.434,370.400 345.884,370.400 287.400 C 370.400 228.956,370.526 204.366,370.823 204.663 C 371.117 204.957,371.246 230.084,371.246 287.400 M208.006 207.022 L 208.516 208.843 210.758 208.594 L 213.000 208.344 211.275 210.010 L 209.550 211.675 210.175 213.509 C 210.519 214.517,210.800 215.416,210.800 215.505 C 210.800 215.595,209.982 215.211,208.981 214.652 L 207.163 213.636 205.571 215.074 C 203.633 216.825,203.430 216.693,204.186 214.181 C 204.819 212.077,204.847 212.138,202.700 210.975 C 201.189 210.157,201.322 209.600,203.026 209.600 C 205.109 209.600,205.826 209.050,206.395 207.016 C 207.035 204.730,207.365 204.732,208.006 207.022 M369.100 327.868 C 369.043 350.271,368.996 332.060,368.996 287.400 C 368.996 242.740,369.043 224.411,369.100 246.668 C 369.157 268.926,369.157 305.466,369.100 327.868 M366.854 286.800 C 366.854 330.623,366.752 366.581,366.627 366.706 C 366.502 366.831,366.400 330.873,366.400 286.800 C 366.400 242.727,366.502 206.769,366.627 206.893 C 366.751 207.018,366.853 242.976,366.854 286.800 M183.211 210.238 L 183.725 212.077 185.863 211.809 C 188.426 211.489,188.446 211.554,186.380 213.486 L 184.761 215.000 185.385 216.762 C 186.139 218.892,185.989 219.125,184.523 218.109 C 183.905 217.681,183.192 217.212,182.938 217.065 C 182.684 216.919,181.715 217.436,180.784 218.213 C 178.736 219.924,178.672 219.885,179.423 217.389 C 180.057 215.285,179.634 214.492,177.500 213.780 C 176.214 213.351,176.779 212.895,178.929 212.626 L 181.059 212.360 181.566 210.380 C 182.197 207.921,182.553 207.890,183.211 210.238 M161.239 214.487 L 163.400 214.375 161.701 215.941 L 160.002 217.506 160.601 219.204 C 161.455 221.624,161.383 221.726,159.608 220.605 C 157.643 219.364,157.825 219.355,156.000 220.800 C 154.035 222.357,153.923 222.320,154.618 220.350 C 155.432 218.041,155.394 217.909,153.600 216.800 C 151.481 215.490,151.580 215.200,154.148 215.200 L 156.296 215.200 156.810 213.300 C 157.566 210.502,157.681 210.453,158.412 212.621 L 159.078 214.600 161.239 214.487 M375.796 288.200 C 375.796 330.000,375.843 347.041,375.900 326.068 C 375.957 305.096,375.957 270.896,375.900 250.068 C 375.843 229.241,375.796 246.400,375.796 288.200 M133.998 215.738 C 134.386 216.812,134.523 216.869,136.405 216.738 C 138.811 216.572,138.862 216.767,136.828 218.378 L 135.256 219.623 135.873 221.433 C 136.648 223.709,136.516 223.824,134.614 222.532 C 133.606 221.847,132.901 221.608,132.577 221.842 C 132.305 222.039,131.497 222.636,130.781 223.170 L 129.480 224.140 129.698 223.170 C 129.817 222.636,130.042 221.640,130.196 220.957 C 130.450 219.834,130.338 219.627,129.039 218.824 C 127.094 217.622,127.229 217.200,129.557 217.200 C 131.301 217.200,131.540 217.093,131.760 216.218 C 132.637 212.722,132.890 212.668,133.998 215.738 M108.993 216.380 L 109.651 218.360 111.725 218.480 L 113.800 218.600 112.149 219.789 L 110.498 220.978 111.049 222.539 C 111.969 225.146,111.780 225.402,109.937 224.046 L 108.274 222.823 106.665 224.007 C 104.696 225.455,104.541 225.340,105.334 223.013 L 105.957 221.183 104.360 220.126 C 102.556 218.932,102.828 218.416,105.268 218.406 C 106.672 218.400,106.764 218.314,107.400 216.400 C 108.214 213.951,108.187 213.951,108.993 216.380 M84.342 217.479 C 84.818 219.152,84.828 219.159,86.910 219.279 L 89.000 219.400 87.353 220.586 L 85.707 221.771 86.298 223.507 C 87.047 225.705,86.795 225.942,85.089 224.640 C 83.390 223.345,83.440 223.343,81.558 224.834 C 79.829 226.203,79.728 226.071,80.603 223.590 C 81.161 222.010,81.153 221.843,80.503 221.386 C 80.117 221.115,79.350 220.518,78.800 220.060 L 77.800 219.227 79.868 219.213 L 81.936 219.200 82.612 217.164 C 83.356 214.925,83.631 214.975,84.342 217.479 M195.611 219.038 L 196.125 220.877 198.263 220.609 C 200.826 220.289,200.846 220.354,198.780 222.286 L 197.161 223.800 197.785 225.562 C 198.573 227.789,198.445 227.891,196.442 226.626 L 194.808 225.595 193.193 227.054 C 191.232 228.825,191.028 228.699,191.786 226.181 C 192.417 224.085,192.490 224.246,190.300 222.903 C 188.817 221.993,188.916 221.600,190.626 221.600 C 192.709 221.600,193.426 221.050,193.995 219.016 C 194.636 216.727,194.965 216.731,195.611 219.038 M173.628 223.675 L 175.800 223.590 174.090 225.115 L 172.379 226.640 172.994 228.382 C 173.773 230.591,173.578 230.757,171.679 229.499 L 170.141 228.482 168.570 229.826 C 166.511 231.589,166.374 231.545,167.039 229.336 C 167.786 226.855,167.823 226.977,166.000 225.952 C 163.895 224.769,163.981 224.466,166.462 224.321 C 168.475 224.203,168.536 224.162,169.066 222.600 C 170.045 219.716,170.061 219.709,170.774 221.780 L 171.456 223.761 173.628 223.675 M148.836 226.089 L 151.000 225.978 149.290 227.509 L 147.579 229.040 148.190 230.770 C 149.071 233.268,148.986 233.366,147.078 232.054 L 145.356 230.869 143.778 232.219 C 141.727 233.975,141.516 233.938,142.218 231.950 C 143.044 229.608,142.993 229.437,141.100 228.159 C 139.496 227.077,139.457 227.005,140.400 226.898 C 143.733 226.519,143.933 226.419,144.404 224.887 C 144.655 224.069,144.958 223.130,145.076 222.800 C 145.207 222.437,145.564 222.988,145.982 224.200 L 146.672 226.200 148.836 226.089 M121.584 226.900 C 121.947 227.907,122.158 228.002,124.090 228.018 L 126.200 228.036 124.528 229.447 L 122.856 230.858 123.428 232.479 C 124.206 234.685,124.151 234.990,123.100 234.307 C 120.384 232.542,120.620 232.558,118.782 234.015 C 116.879 235.521,116.989 235.732,117.801 232.134 C 118.065 230.964,117.956 230.783,116.367 229.734 L 114.648 228.600 116.914 228.480 L 119.180 228.361 119.630 226.680 C 120.395 223.831,120.481 223.841,121.584 226.900 M96.600 227.200 L 97.264 229.200 99.332 229.206 L 101.400 229.212 99.820 230.549 C 98.248 231.878,98.242 231.895,98.720 233.489 C 99.468 235.987,99.319 236.157,97.537 234.846 L 95.874 233.623 94.265 234.807 C 92.298 236.253,92.141 236.139,92.928 233.828 L 93.547 232.014 91.982 230.907 C 89.939 229.462,89.994 229.265,92.488 229.121 L 94.577 229.000 95.112 227.100 C 95.773 224.750,95.787 224.751,96.600 227.200 M208.006 227.822 L 208.516 229.643 210.758 229.401 L 213.000 229.158 211.259 230.770 L 209.518 232.381 210.159 234.262 C 210.512 235.296,210.800 236.218,210.800 236.309 C 210.800 236.401,209.981 235.996,208.980 235.409 L 207.160 234.343 205.545 235.803 C 203.581 237.577,203.316 237.414,204.155 234.950 C 204.510 233.909,204.800 233.011,204.800 232.954 C 204.800 232.898,204.080 232.447,203.200 231.952 C 201.301 230.885,201.168 230.400,202.774 230.400 C 204.989 230.400,205.841 229.795,206.391 227.833 C 207.035 225.530,207.364 225.528,208.006 227.822 M183.206 231.022 L 183.716 232.843 185.958 232.594 L 188.200 232.344 186.475 234.010 L 184.750 235.675 185.375 237.509 C 185.719 238.517,186.000 239.418,186.000 239.509 C 186.000 239.601,185.181 239.196,184.180 238.609 L 182.360 237.543 180.745 239.003 C 178.781 240.776,178.665 240.704,179.430 238.181 C 180.014 236.253,180.006 236.184,179.137 235.600 C 176.428 233.780,176.418 233.705,178.840 233.403 L 181.068 233.124 181.571 231.162 C 182.196 228.725,182.554 228.694,183.206 231.022 M161.239 235.287 L 163.400 235.175 161.701 236.741 L 160.002 238.306 160.601 240.004 C 161.455 242.424,161.376 242.549,159.707 241.414 C 157.828 240.138,157.668 240.145,155.985 241.584 C 154.123 243.175,153.985 243.109,154.639 240.936 C 155.386 238.455,155.423 238.577,153.600 237.552 C 151.489 236.365,151.581 236.066,154.100 235.921 C 156.165 235.802,156.209 235.773,156.709 234.200 C 157.624 231.327,157.661 231.310,158.385 233.400 L 159.078 235.400 161.239 235.287 M136.340 237.383 C 138.815 237.362,138.853 237.502,136.819 239.137 L 135.238 240.407 135.819 242.054 C 136.606 244.286,136.554 244.592,135.500 243.907 C 132.795 242.150,133.010 242.169,131.355 243.533 C 129.345 245.189,129.118 245.133,129.818 243.150 C 130.635 240.832,130.576 240.574,129.000 239.600 C 127.100 238.426,127.240 238.000,129.527 238.000 L 131.454 238.000 132.186 235.700 L 132.917 233.400 133.599 235.400 L 134.280 237.400 136.340 237.383 M109.017 237.251 L 109.698 239.302 111.946 239.070 L 114.193 238.838 112.597 240.204 C 111.718 240.955,110.873 241.577,110.718 241.585 C 110.563 241.593,110.698 242.343,111.018 243.250 C 111.950 245.892,111.781 246.136,109.947 244.807 L 108.293 243.609 106.675 244.800 C 104.695 246.255,104.540 246.141,105.334 243.813 L 105.957 241.983 104.379 240.938 C 102.305 239.566,102.387 239.200,104.768 239.200 L 106.736 239.200 107.400 237.200 C 108.216 234.744,108.184 234.743,109.017 237.251 M84.370 238.246 L 84.838 240.106 87.019 239.849 C 89.654 239.540,89.675 239.609,87.438 241.216 L 85.676 242.481 86.283 244.262 C 87.047 246.506,86.802 246.748,85.089 245.440 C 83.390 244.145,83.440 244.143,81.558 245.634 C 79.823 247.007,79.726 246.874,80.620 244.350 C 81.223 242.648,81.215 242.584,80.342 242.000 C 77.672 240.217,77.627 240.028,79.868 240.013 L 81.936 240.000 82.601 237.997 C 83.379 235.655,83.730 235.704,84.370 238.246 M195.611 239.838 L 196.125 241.677 198.363 241.422 L 200.600 241.167 198.875 242.821 L 197.150 244.475 197.774 246.305 C 198.560 248.612,198.453 248.696,196.390 247.394 L 194.705 246.330 193.160 247.839 C 191.277 249.678,191.022 249.515,191.795 246.966 C 192.123 245.885,192.393 244.967,192.396 244.926 C 192.398 244.885,191.680 244.447,190.800 243.952 C 188.901 242.885,188.768 242.400,190.374 242.400 C 192.589 242.400,193.441 241.795,193.991 239.833 C 194.637 237.527,194.964 237.528,195.611 239.838 M173.481 244.332 C 176.026 244.173,176.074 244.340,173.985 246.075 L 172.371 247.416 172.990 249.170 C 173.775 251.397,173.581 251.558,171.652 250.282 L 170.089 249.247 168.481 250.624 C 166.409 252.397,166.327 252.368,167.015 250.100 C 167.777 247.589,167.826 247.753,166.003 246.712 C 163.963 245.547,163.985 245.201,166.100 245.194 C 168.252 245.186,168.569 244.961,169.195 243.000 C 169.987 240.517,170.122 240.477,170.762 242.538 L 171.361 244.465 173.481 244.332 M146.124 245.080 L 146.672 246.960 148.836 246.875 L 151.000 246.790 149.290 248.315 L 147.579 249.840 148.194 251.582 C 148.975 253.797,148.779 253.957,146.852 252.682 L 145.289 251.647 143.681 253.024 C 141.624 254.785,141.568 254.766,142.239 252.536 C 142.990 250.043,143.025 250.160,141.153 248.921 C 140.247 248.322,139.662 247.793,139.853 247.747 C 140.044 247.701,141.051 247.548,142.091 247.408 C 143.907 247.164,143.999 247.088,144.431 245.477 C 145.205 242.594,145.387 242.551,146.124 245.080 M121.324 246.842 L 121.831 248.600 124.004 248.800 L 126.178 249.000 124.512 250.315 L 122.846 251.631 123.423 253.266 C 124.206 255.485,124.153 255.791,123.100 255.107 C 120.384 253.342,120.620 253.358,118.782 254.815 C 116.879 256.321,116.989 256.532,117.801 252.934 C 118.065 251.764,117.956 251.583,116.367 250.534 L 114.648 249.400 116.857 249.282 L 119.065 249.164 119.764 246.947 C 120.558 244.430,120.627 244.425,121.324 246.842 M96.600 248.000 L 97.264 250.000 99.332 250.006 L 101.400 250.012 99.820 251.349 C 98.248 252.678,98.242 252.695,98.720 254.289 C 99.443 256.704,99.325 256.933,97.900 255.879 C 95.837 254.354,95.774 254.349,94.186 255.611 C 92.326 257.090,92.141 256.941,92.937 254.605 L 93.563 252.766 91.997 251.683 C 89.948 250.267,90.001 250.065,92.460 249.921 L 94.520 249.800 95.072 247.900 C 95.756 245.546,95.786 245.548,96.600 248.000 M207.999 248.597 L 208.503 250.395 210.751 250.172 L 213.000 249.950 211.247 251.531 L 209.495 253.112 210.147 255.027 C 210.506 256.081,210.800 257.018,210.800 257.109 C 210.800 257.201,209.981 256.796,208.980 256.209 L 207.160 255.143 205.545 256.603 C 203.581 258.377,203.316 258.214,204.155 255.750 C 204.510 254.709,204.800 253.811,204.800 253.754 C 204.800 253.698,204.080 253.247,203.200 252.752 C 201.301 251.685,201.168 251.200,202.774 251.200 C 204.989 251.200,205.841 250.595,206.391 248.633 C 207.034 246.335,207.364 246.328,207.999 248.597 M183.289 251.818 L 183.775 253.636 185.988 253.397 L 188.200 253.158 186.501 254.732 L 184.802 256.306 185.401 258.004 C 186.267 260.456,186.189 260.545,184.205 259.382 L 182.409 258.330 180.736 259.762 C 178.709 261.497,178.640 261.456,179.395 258.966 C 179.723 257.885,179.993 256.957,179.996 256.905 C 179.998 256.853,179.235 256.321,178.300 255.724 L 176.600 254.637 178.782 254.213 C 180.929 253.796,180.973 253.759,181.552 251.895 C 182.287 249.527,182.672 249.510,183.289 251.818 M161.236 256.089 L 163.400 255.978 161.690 257.509 L 159.979 259.040 160.590 260.770 C 161.471 263.268,161.386 263.366,159.478 262.054 L 157.756 260.869 156.178 262.219 C 154.110 263.989,153.974 263.946,154.639 261.736 C 155.389 259.245,155.420 259.350,153.603 258.312 C 151.547 257.138,151.585 256.800,153.771 256.800 C 155.566 256.800,156.800 256.065,156.800 254.997 C 156.800 254.698,157.001 253.945,157.247 253.326 L 157.694 252.200 158.383 254.200 L 159.072 256.200 161.236 256.089 M136.644 258.123 L 139.000 258.046 137.125 259.643 L 135.250 261.241 135.825 262.871 C 136.606 265.085,136.552 265.391,135.500 264.707 C 132.791 262.947,133.010 262.966,131.287 264.331 C 129.199 265.985,129.158 265.961,129.931 263.545 L 130.588 261.490 129.616 260.845 C 126.837 259.002,126.804 258.828,129.227 258.813 L 131.454 258.800 132.186 256.500 L 132.917 254.200 133.602 256.200 L 134.287 258.200 136.644 258.123 M109.013 258.040 L 109.691 260.081 111.846 259.812 C 114.455 259.486,114.487 259.601,112.238 261.216 L 110.476 262.481 111.083 264.262 C 111.816 266.414,111.603 266.735,110.123 265.709 C 109.505 265.281,108.796 264.814,108.548 264.671 C 108.299 264.529,107.416 264.951,106.586 265.611 C 104.740 267.079,104.642 267.003,105.284 264.601 C 105.777 262.759,105.761 262.672,104.819 262.047 C 102.029 260.197,102.000 260.028,104.468 260.013 L 106.736 260.000 107.400 258.000 C 108.215 255.545,108.184 255.544,109.013 258.040 M84.380 258.928 L 84.869 260.676 86.835 260.487 C 89.229 260.257,89.337 260.719,87.230 262.179 L 85.659 263.268 86.230 264.884 C 87.006 267.085,86.951 267.390,85.900 266.707 C 83.188 264.945,83.414 264.963,81.644 266.365 C 79.823 267.808,79.722 267.689,80.615 265.156 C 81.188 263.532,81.182 263.375,80.515 262.878 C 80.122 262.584,79.350 262.002,78.800 261.584 L 77.800 260.825 79.868 260.813 L 81.936 260.800 82.601 258.797 C 83.370 256.481,83.702 256.506,84.380 258.928 " stroke="none" fill="#232d8f" fill-rule="evenodd"></path><path id="path1" d="M342.400 152.277 C 335.100 152.706,316.217 155.464,293.600 159.404 C 261.758 164.953,245.576 167.675,231.800 169.800 C 223.880 171.022,216.995 172.111,216.500 172.219 C 215.679 172.398,214.953 187.200,215.765 187.200 C 217.365 187.200,266.046 179.178,287.400 175.396 C 346.263 164.970,362.198 164.288,364.698 172.087 C 365.025 173.109,365.127 171.690,365.159 165.684 C 365.196 158.739,365.121 157.813,364.409 156.418 C 362.557 152.787,355.698 151.496,342.400 152.277 M206.411 166.159 C 205.921 167.912,205.912 167.919,203.704 168.195 L 201.490 168.471 203.145 169.458 C 204.990 170.559,205.053 170.782,204.201 173.197 L 203.602 174.895 205.410 173.413 L 207.218 171.932 208.659 172.782 C 210.446 173.836,210.584 173.707,209.946 171.577 L 209.437 169.877 211.018 168.485 L 212.600 167.093 210.510 167.327 L 208.420 167.560 207.947 165.980 C 207.339 163.951,207.019 163.989,206.411 166.159 M182.058 168.118 C 181.810 168.732,181.495 169.677,181.360 170.218 C 181.155 171.034,180.867 171.201,179.657 171.206 C 177.308 171.216,177.033 171.708,178.773 172.783 L 180.316 173.737 179.758 175.319 C 178.932 177.661,179.047 177.789,180.758 176.434 C 182.609 174.968,182.558 174.974,184.061 176.044 C 185.572 177.119,185.776 176.881,185.147 174.782 L 184.639 173.086 186.220 171.707 L 187.800 170.327 185.762 170.537 L 183.724 170.748 183.117 168.874 L 182.509 167.000 182.058 168.118 M157.050 171.473 C 156.359 173.530,156.337 173.549,154.306 173.873 L 152.258 174.200 153.913 175.295 L 155.568 176.390 154.984 178.045 C 154.121 180.492,154.237 180.602,156.050 179.050 L 157.699 177.638 159.142 178.619 C 161.118 179.962,161.246 179.878,160.513 177.728 L 159.876 175.855 161.438 174.534 L 163.000 173.212 160.970 173.206 L 158.940 173.200 158.343 171.300 L 157.746 169.400 157.050 171.473 M132.417 173.338 C 131.822 175.466,131.139 175.991,128.926 176.021 L 127.400 176.042 128.378 176.721 C 130.928 178.490,130.897 178.430,130.218 180.350 C 129.878 181.313,129.600 182.183,129.600 182.284 C 129.600 182.385,130.301 181.912,131.158 181.234 C 133.036 179.746,133.095 179.742,134.794 180.995 C 136.475 182.236,136.559 182.147,135.780 179.962 L 135.151 178.200 136.848 176.681 L 138.546 175.162 136.378 175.281 L 134.209 175.400 133.579 173.421 L 132.948 171.443 132.417 173.338 M107.573 175.034 L 106.965 177.000 104.782 177.235 C 103.582 177.364,102.780 177.504,103.000 177.546 C 103.220 177.587,103.990 178.112,104.711 178.711 L 106.023 179.800 105.452 181.696 L 104.881 183.592 106.608 182.351 L 108.336 181.110 109.706 182.155 C 111.532 183.549,111.665 183.486,110.982 181.550 C 110.216 179.378,110.160 179.556,112.073 178.086 L 113.745 176.800 111.543 176.800 L 109.340 176.800 108.761 174.934 L 108.181 173.068 107.573 175.034 M82.822 175.721 C 82.308 177.558,82.271 177.590,80.331 177.847 L 78.362 178.108 79.781 179.118 C 81.411 180.278,81.385 180.176,80.618 182.350 C 79.937 184.280,80.022 184.329,81.764 183.000 C 83.384 181.765,83.525 181.764,85.194 182.995 C 86.873 184.234,86.958 184.147,86.189 181.969 C 85.585 180.258,85.593 180.195,86.485 179.535 C 89.222 177.507,89.197 177.627,86.890 177.613 C 84.956 177.601,84.747 177.508,84.384 176.500 C 83.396 173.759,83.374 173.749,82.822 175.721 M194.011 178.159 C 193.521 179.912,193.512 179.919,191.304 180.195 L 189.090 180.471 190.745 181.458 C 192.590 182.559,192.653 182.782,191.801 185.197 L 191.202 186.895 193.010 185.413 L 194.818 183.932 196.259 184.782 C 198.058 185.843,198.289 185.627,197.502 183.623 L 196.879 182.038 198.540 180.597 L 200.200 179.156 198.119 179.389 L 196.039 179.622 195.556 178.011 C 194.939 175.951,194.621 175.981,194.011 178.159 M169.459 180.646 C 168.780 182.668,168.747 182.696,166.709 183.046 L 164.647 183.400 166.308 184.495 L 167.968 185.590 167.380 187.257 C 166.615 189.425,166.860 189.582,168.611 188.044 C 169.410 187.343,170.259 186.904,170.524 187.057 C 170.786 187.208,171.478 187.662,172.062 188.066 C 173.567 189.106,173.628 189.024,172.912 186.922 L 172.272 185.045 173.957 183.549 L 175.643 182.053 173.506 182.274 L 171.370 182.494 170.758 180.547 L 170.146 178.600 169.459 180.646 M144.641 183.100 C 144.026 184.930,143.798 185.201,142.868 185.205 C 140.196 185.219,139.833 185.614,141.483 186.713 C 142.317 187.269,143.047 187.758,143.104 187.799 C 143.162 187.841,142.935 188.651,142.600 189.600 C 141.814 191.826,142.050 191.990,143.811 190.444 C 144.610 189.743,145.459 189.304,145.724 189.457 C 145.986 189.608,146.678 190.062,147.262 190.466 C 148.766 191.506,148.828 191.424,148.115 189.334 L 147.480 187.467 149.162 186.034 L 150.844 184.600 148.702 184.732 L 146.561 184.865 145.953 182.932 L 145.346 181.000 144.641 183.100 M343.600 182.025 C 334.128 182.526,318.913 184.737,288.800 189.991 C 255.870 195.736,217.879 202.000,215.965 202.000 C 215.758 202.000,215.600 205.205,215.600 209.400 C 215.600 215.930,215.676 216.800,216.243 216.800 C 218.330 216.800,256.012 210.648,283.600 205.802 C 347.844 194.519,361.703 193.851,364.641 201.896 C 365.133 203.243,365.180 202.536,365.095 195.128 C 364.949 182.441,362.620 181.021,343.600 182.025 M120.011 184.560 C 119.440 186.599,119.444 186.596,117.002 187.005 L 115.403 187.273 116.366 188.053 C 116.895 188.481,117.594 188.981,117.920 189.163 C 118.439 189.453,118.431 189.731,117.856 191.418 C 117.495 192.477,117.200 193.415,117.200 193.504 C 117.200 193.593,117.957 193.038,118.881 192.270 L 120.562 190.873 122.258 192.040 L 123.954 193.207 123.313 191.326 L 122.672 189.445 124.435 187.926 L 126.198 186.408 124.043 186.504 L 121.888 186.600 121.217 184.624 L 120.547 182.647 120.011 184.560 M95.167 185.855 L 94.565 187.800 92.465 188.000 L 90.366 188.200 91.983 189.194 C 93.797 190.310,93.834 190.437,93.012 192.766 L 92.424 194.432 94.180 193.171 L 95.936 191.910 97.306 192.955 C 99.146 194.359,99.252 194.294,98.535 192.190 L 97.918 190.380 99.035 189.490 C 99.649 189.000,100.433 188.381,100.776 188.113 C 101.289 187.712,101.025 187.623,99.290 187.613 C 97.356 187.601,97.147 187.508,96.784 186.500 C 95.816 183.814,95.800 183.808,95.167 185.855 M206.397 186.734 C 205.817 188.544,205.742 188.608,203.707 188.998 L 201.614 189.400 203.250 190.337 C 204.981 191.328,204.991 191.376,204.140 194.389 C 203.869 195.348,203.911 195.338,205.560 194.032 L 207.259 192.686 208.892 193.604 L 210.525 194.521 210.253 193.561 C 209.455 190.743,209.481 190.588,210.965 189.285 C 212.580 187.866,212.706 187.615,211.700 187.812 C 208.486 188.442,208.548 188.460,207.986 186.759 C 207.268 184.582,207.088 184.580,206.397 186.734 M182.041 188.918 C 181.802 189.532,181.495 190.477,181.360 191.018 C 181.155 191.834,180.867 192.001,179.657 192.006 C 177.285 192.016,176.987 192.533,178.775 193.538 L 180.355 194.426 179.778 196.063 C 178.926 198.478,179.038 198.596,180.830 197.177 L 182.459 195.886 184.030 196.769 C 185.780 197.753,185.793 197.737,185.120 195.489 C 184.642 193.897,184.650 193.877,186.220 192.521 L 187.800 191.156 185.814 191.278 L 183.827 191.400 183.151 189.600 L 182.475 187.800 182.041 188.918 M157.059 192.246 C 156.380 194.268,156.347 194.296,154.309 194.646 L 152.247 195.000 153.908 196.095 L 155.568 197.190 154.980 198.857 C 154.219 201.015,154.437 201.157,156.234 199.676 L 157.710 198.459 159.247 199.430 C 161.259 200.700,161.255 200.703,160.515 198.534 L 159.880 196.667 161.562 195.234 L 163.244 193.800 161.102 193.932 L 158.961 194.065 158.353 192.132 L 157.746 190.200 157.059 192.246 M132.412 194.157 C 131.834 196.221,131.017 196.800,128.681 196.800 L 127.414 196.800 129.007 197.862 C 129.883 198.446,130.665 198.976,130.745 199.040 C 130.825 199.104,130.600 200.008,130.245 201.050 C 129.890 202.091,129.600 203.015,129.600 203.104 C 129.600 203.193,130.357 202.638,131.281 201.870 L 132.962 200.473 134.681 201.656 C 135.627 202.306,136.400 202.772,136.400 202.690 C 136.400 202.609,136.112 201.696,135.759 200.661 L 135.118 198.780 136.235 197.890 C 138.780 195.862,138.767 195.971,136.442 196.090 L 134.284 196.200 133.615 194.224 L 132.947 192.247 132.412 194.157 M107.570 195.843 L 106.964 197.800 104.852 197.922 L 102.741 198.044 104.370 199.224 C 105.267 199.874,105.998 200.449,105.996 200.503 C 105.993 200.556,105.730 201.463,105.410 202.517 L 104.828 204.435 106.055 203.517 C 106.730 203.013,107.518 202.431,107.805 202.225 C 108.165 201.966,108.765 202.183,109.737 202.925 C 111.586 204.335,111.669 204.296,110.982 202.350 C 110.202 200.138,110.171 200.238,112.079 198.835 L 113.758 197.600 111.479 197.600 C 109.582 197.600,109.197 197.483,109.182 196.900 C 109.172 196.515,108.942 195.679,108.670 195.043 L 108.176 193.886 107.570 195.843 M82.849 196.361 L 82.326 198.400 80.063 198.421 C 77.815 198.442,77.806 198.446,78.778 199.121 C 81.424 200.958,81.385 200.879,80.685 202.933 C 79.938 205.125,80.018 205.170,81.954 203.637 L 83.422 202.474 84.980 203.635 C 86.881 205.052,86.972 204.987,86.188 202.766 L 85.567 201.006 86.884 199.914 C 87.608 199.313,88.380 198.787,88.600 198.746 C 88.820 198.704,88.025 198.564,86.832 198.435 L 84.664 198.200 84.018 196.261 L 83.371 194.321 82.849 196.361 M194.000 199.000 C 193.544 200.630,193.378 200.803,192.248 200.828 C 189.688 200.886,189.306 201.353,190.975 202.384 C 192.553 203.360,192.571 203.450,191.740 206.389 C 191.467 207.352,191.504 207.344,193.134 206.052 L 194.809 204.726 196.255 205.579 C 198.046 206.636,198.184 206.508,197.547 204.382 L 197.039 202.686 198.620 201.307 L 200.200 199.927 198.110 200.144 L 196.020 200.360 195.547 198.780 C 194.936 196.743,194.619 196.788,194.000 199.000 M169.884 200.000 C 169.761 200.330,169.460 201.253,169.216 202.050 C 168.797 203.414,168.646 203.518,166.685 203.790 C 164.895 204.038,164.705 204.144,165.343 204.539 C 167.900 206.124,168.000 206.298,167.374 208.074 C 166.607 210.247,166.915 210.433,168.590 208.809 L 169.969 207.473 171.576 208.537 C 173.663 209.918,173.660 209.919,172.912 207.722 L 172.272 205.845 174.000 204.311 L 175.728 202.778 173.548 203.034 L 171.369 203.290 170.738 201.345 C 170.352 200.155,170.021 199.633,169.884 200.000 M144.641 203.900 C 143.978 205.873,143.855 206.000,142.601 206.000 C 140.098 206.000,139.805 206.396,141.481 207.512 C 142.316 208.068,143.047 208.558,143.104 208.599 C 143.162 208.641,142.935 209.451,142.600 210.400 C 141.826 212.593,141.945 212.674,143.786 211.211 C 144.616 210.551,145.499 210.129,145.748 210.271 C 145.996 210.414,146.678 210.862,147.262 211.266 C 148.767 212.306,148.828 212.224,148.112 210.122 L 147.472 208.245 149.164 206.787 L 150.857 205.329 148.712 205.507 L 146.567 205.685 145.956 203.743 L 145.346 201.800 144.641 203.900 M119.965 205.456 C 119.390 207.308,119.283 207.411,117.688 207.626 C 115.432 207.931,115.348 208.125,116.988 209.242 C 118.613 210.349,118.575 210.205,117.818 212.350 C 117.131 214.296,117.332 214.366,119.186 212.829 L 120.572 211.680 122.266 212.846 L 123.960 214.011 123.357 211.981 L 122.754 209.951 123.853 209.075 C 126.377 207.065,126.366 207.171,124.042 207.290 L 121.884 207.400 121.226 205.456 L 120.568 203.511 119.965 205.456 M95.167 206.655 C 94.567 208.592,94.556 208.601,92.582 208.800 L 90.600 209.000 92.095 210.000 C 93.824 211.156,93.761 210.936,93.040 213.332 L 92.481 215.192 94.227 213.938 L 95.973 212.684 97.360 213.742 C 99.200 215.146,99.256 215.107,98.517 212.938 C 97.890 211.098,97.894 211.067,98.841 210.366 C 101.629 208.303,101.601 208.427,99.290 208.413 C 97.356 208.401,97.147 208.308,96.784 207.300 C 95.816 204.614,95.800 204.608,95.167 206.655 M206.475 207.437 C 205.968 209.331,205.903 209.382,203.400 209.814 C 201.990 210.058,201.889 210.144,202.547 210.545 C 204.987 212.030,205.037 212.136,204.327 214.356 L 203.674 216.399 205.309 215.000 C 207.240 213.346,207.147 213.360,209.045 214.479 L 210.535 215.359 210.258 214.379 C 209.446 211.510,209.466 211.414,211.179 209.867 C 212.527 208.649,212.661 208.412,211.913 208.563 C 208.488 209.255,208.548 209.270,208.046 207.595 C 207.391 205.408,207.027 205.372,206.475 207.437 M182.188 209.400 C 180.857 212.883,180.929 212.800,179.244 212.800 C 177.074 212.800,176.929 213.300,178.794 214.349 L 180.355 215.226 179.778 216.863 C 178.932 219.261,179.035 219.370,180.805 217.948 L 182.410 216.658 184.005 217.555 C 185.782 218.554,185.794 218.540,185.118 216.284 L 184.636 214.675 186.342 213.206 L 188.047 211.737 185.976 212.003 C 183.750 212.289,183.758 212.296,182.699 209.200 C 182.537 208.727,182.428 208.770,182.188 209.400 M157.041 213.100 C 156.433 214.911,156.189 215.205,155.268 215.240 C 154.681 215.262,153.750 215.409,153.200 215.567 L 152.200 215.854 153.400 216.512 C 155.709 217.779,155.669 217.703,155.003 219.591 C 154.214 221.827,154.448 221.992,156.211 220.444 C 157.010 219.743,157.859 219.304,158.124 219.457 C 158.386 219.608,159.078 220.062,159.662 220.466 C 161.167 221.506,161.228 221.424,160.512 219.322 L 159.872 217.445 161.564 215.987 L 163.257 214.529 161.112 214.707 L 158.967 214.885 158.356 212.943 L 157.746 211.000 157.041 213.100 M337.200 212.210 C 325.700 213.514,316.875 214.933,266.600 223.564 C 245.282 227.224,217.975 231.600,216.453 231.600 C 215.612 231.600,215.600 231.710,215.600 239.190 L 215.600 246.780 216.700 246.582 C 217.305 246.473,224.730 245.308,233.200 243.993 C 241.670 242.678,258.500 239.888,270.600 237.793 C 303.724 232.058,314.963 230.181,324.200 228.840 C 351.595 224.865,363.006 225.686,364.768 231.758 C 365.014 232.608,365.139 230.567,365.164 225.284 C 365.211 215.174,364.800 214.241,359.569 212.586 C 356.585 211.642,344.069 211.432,337.200 212.210 M132.367 215.056 C 131.778 216.964,131.728 217.008,129.680 217.404 L 127.593 217.807 129.197 218.798 C 131.037 219.935,130.986 219.773,130.200 222.000 C 129.870 222.935,129.600 223.783,129.600 223.883 C 129.600 223.984,130.357 223.438,131.281 222.670 L 132.962 221.273 134.681 222.456 C 135.627 223.106,136.400 223.572,136.400 223.490 C 136.400 223.409,136.110 222.491,135.755 221.450 C 135.400 220.408,135.175 219.514,135.255 219.463 C 135.335 219.411,136.103 218.771,136.962 218.042 L 138.524 216.716 136.401 216.858 L 134.278 217.000 133.623 215.056 L 132.968 213.111 132.367 215.056 M107.614 216.400 C 107.017 218.564,106.720 218.786,104.407 218.794 L 102.614 218.800 104.207 219.862 C 105.083 220.446,105.857 220.968,105.927 221.022 C 105.997 221.077,105.776 222.057,105.437 223.202 C 104.758 225.487,104.774 225.490,107.117 223.433 C 108.097 222.574,107.994 222.549,110.698 224.306 L 111.596 224.889 110.998 223.194 C 110.200 220.932,110.167 221.041,112.079 219.635 L 113.758 218.400 111.479 218.400 C 109.582 218.400,109.197 218.283,109.182 217.700 C 109.172 217.315,108.927 216.460,108.638 215.800 L 108.112 214.600 107.614 216.400 M82.825 217.100 L 82.320 219.200 80.081 219.200 L 77.842 219.200 79.521 220.435 C 81.429 221.838,81.398 221.738,80.618 223.950 C 79.925 225.913,80.038 225.954,81.954 224.437 L 83.422 223.274 84.980 224.435 C 86.881 225.852,86.972 225.787,86.188 223.566 L 85.567 221.806 86.884 220.714 C 87.608 220.113,88.380 219.587,88.600 219.546 C 88.820 219.504,88.025 219.364,86.832 219.235 L 84.664 219.000 83.997 217.000 L 83.329 215.000 82.825 217.100 M194.081 219.413 C 193.568 221.332,193.504 221.381,191.000 221.814 C 189.590 222.058,189.489 222.144,190.147 222.545 C 192.586 224.029,192.637 224.137,191.928 226.352 L 191.276 228.391 192.979 226.995 C 194.984 225.353,194.940 225.360,196.461 226.444 C 197.973 227.520,198.176 227.282,197.546 225.177 L 197.036 223.475 198.818 221.923 C 199.798 221.070,200.330 220.453,200.000 220.552 C 199.670 220.652,198.658 220.837,197.751 220.963 L 196.102 221.193 195.599 219.397 C 194.967 217.137,194.689 217.141,194.081 219.413 M169.884 220.800 C 169.761 221.130,169.453 222.075,169.199 222.900 C 168.822 224.125,168.542 224.407,167.669 224.440 C 164.838 224.545,164.460 224.958,166.265 225.972 L 167.929 226.908 167.379 228.735 C 166.684 231.047,166.796 231.130,168.541 229.598 L 169.966 228.347 171.769 229.403 L 173.572 230.459 172.926 228.564 L 172.280 226.668 173.958 225.103 L 175.635 223.538 173.499 223.805 L 171.363 224.072 170.735 222.136 C 170.351 220.951,170.021 220.433,169.884 220.800 M144.641 224.700 L 143.936 226.800 142.168 226.800 C 140.036 226.800,139.933 227.246,141.800 228.400 C 142.570 228.876,143.200 229.318,143.200 229.382 C 143.200 229.447,142.928 230.270,142.596 231.212 C 141.821 233.408,141.997 233.529,143.741 231.998 L 145.166 230.747 146.969 231.803 L 148.772 232.859 148.122 230.952 L 147.472 229.045 149.215 227.543 L 150.959 226.041 148.764 226.268 L 146.570 226.494 145.958 224.547 L 145.346 222.600 144.641 224.700 M119.966 226.256 C 119.367 228.190,119.355 228.201,117.482 228.322 C 115.235 228.467,115.127 228.843,117.000 230.000 C 118.604 230.991,118.593 230.951,117.818 233.150 C 117.132 235.094,117.337 235.164,119.159 233.605 L 120.518 232.443 122.259 233.641 C 123.217 234.299,124.000 234.772,124.000 234.690 C 124.000 234.609,123.712 233.696,123.359 232.661 L 122.718 230.780 123.835 229.890 C 126.381 227.862,126.370 227.961,124.039 228.085 L 121.878 228.200 121.223 226.256 L 120.568 224.311 119.966 226.256 M95.222 227.321 C 94.706 229.165,94.678 229.189,92.688 229.453 C 90.512 229.741,90.499 229.639,92.928 231.390 C 93.611 231.882,93.618 232.042,93.043 233.979 L 92.430 236.043 94.059 234.753 C 95.811 233.366,95.594 233.349,98.268 235.086 L 99.137 235.651 98.558 233.728 C 97.998 231.866,98.008 231.784,98.890 231.131 C 101.622 229.108,101.597 229.227,99.290 229.213 C 97.356 229.201,97.147 229.108,96.784 228.100 C 95.796 225.359,95.774 225.349,95.222 227.321 M206.371 228.300 C 205.826 230.113,205.722 230.210,204.107 230.426 C 201.817 230.732,201.719 230.955,203.430 231.965 C 204.971 232.874,204.990 232.983,204.144 235.971 C 203.881 236.901,203.940 236.886,205.540 235.600 L 207.210 234.258 208.805 235.155 C 210.577 236.151,210.592 236.134,209.932 233.932 C 209.478 232.414,209.505 232.331,210.959 230.842 L 212.453 229.312 210.457 229.504 L 208.461 229.696 207.967 228.048 C 207.333 225.932,207.069 225.973,206.371 228.300 M181.600 231.502 C 181.005 233.385,180.985 233.401,179.100 233.522 C 176.792 233.670,176.739 233.933,178.785 235.101 L 180.363 236.003 179.782 237.652 C 178.932 240.059,179.045 240.219,180.614 238.841 C 182.288 237.372,182.498 237.348,184.253 238.433 C 185.765 239.367,185.790 239.327,185.118 237.084 L 184.636 235.475 186.346 234.002 L 188.057 232.529 185.858 232.712 L 183.660 232.894 183.167 231.247 C 182.537 229.146,182.334 229.179,181.600 231.502 M157.057 233.851 C 156.371 235.895,156.362 235.902,154.324 236.172 L 152.279 236.444 153.839 237.483 C 154.698 238.055,155.447 238.558,155.504 238.599 C 155.562 238.641,155.335 239.451,155.000 240.400 C 154.226 242.593,154.345 242.674,156.186 241.211 C 157.016 240.551,157.899 240.129,158.148 240.271 C 158.396 240.414,159.078 240.862,159.662 241.266 C 161.167 242.306,161.228 242.224,160.512 240.122 L 159.872 238.245 161.615 236.743 L 163.359 235.241 161.164 235.468 L 158.970 235.694 158.358 233.747 L 157.746 231.800 157.057 233.851 M132.364 235.855 C 131.765 237.784,131.745 237.801,129.642 238.136 L 127.522 238.473 129.061 239.498 C 129.908 240.062,130.665 240.576,130.745 240.640 C 130.825 240.704,130.611 241.576,130.269 242.578 C 129.547 244.699,129.716 244.781,131.559 243.205 L 132.918 242.043 134.659 243.241 C 135.617 243.899,136.400 244.362,136.400 244.270 C 136.400 244.177,136.130 243.335,135.800 242.400 C 135.013 240.169,134.953 240.362,136.900 238.856 L 138.600 237.541 136.428 237.651 L 134.256 237.761 133.612 235.836 L 132.968 233.911 132.364 235.855 M107.627 237.091 L 107.124 239.182 105.093 239.452 L 103.063 239.721 103.995 240.477 C 104.508 240.892,105.194 241.381,105.520 241.563 C 106.039 241.853,106.031 242.131,105.456 243.818 C 105.095 244.877,104.800 245.816,104.800 245.905 C 104.800 245.994,105.540 245.481,106.444 244.765 C 108.213 243.364,107.990 243.346,110.689 245.100 L 111.578 245.677 110.928 243.772 L 110.279 241.866 111.821 240.633 L 113.363 239.400 111.414 239.200 C 109.480 239.002,109.459 238.984,108.797 237.000 L 108.129 235.000 107.627 237.091 M82.788 237.900 L 82.249 240.000 80.046 240.000 L 77.842 240.000 79.521 241.235 C 81.430 242.638,81.398 242.537,80.616 244.755 C 79.970 246.587,80.166 246.597,82.381 244.848 L 83.363 244.074 85.081 245.256 C 86.027 245.906,86.800 246.362,86.800 246.270 C 86.800 246.177,86.523 245.314,86.184 244.353 L 85.567 242.606 86.884 241.514 C 87.608 240.913,88.380 240.387,88.600 240.346 C 88.820 240.304,88.025 240.164,86.832 240.035 L 84.664 239.800 83.996 237.800 L 83.328 235.800 82.788 237.900 M194.000 240.302 C 193.430 242.106,193.316 242.211,191.707 242.426 C 189.417 242.732,189.319 242.955,191.030 243.965 C 192.571 244.874,192.590 244.983,191.744 247.971 C 191.481 248.901,191.540 248.886,193.140 247.600 L 194.810 246.258 196.467 247.190 L 198.125 248.121 197.853 247.161 C 197.041 244.294,197.063 244.172,198.662 242.820 L 200.200 241.519 198.135 241.697 L 196.069 241.876 195.583 240.138 C 194.966 237.936,194.741 237.959,194.000 240.302 M169.922 241.406 C 169.790 241.623,169.476 242.565,169.225 243.500 C 168.811 245.042,168.650 245.203,167.485 245.228 C 164.951 245.284,164.640 245.712,166.360 246.775 L 167.920 247.739 167.375 249.551 C 166.683 251.849,166.797 251.929,168.556 250.385 L 169.995 249.121 171.759 250.155 L 173.523 251.188 172.904 249.253 L 172.285 247.317 173.842 245.852 L 175.400 244.387 173.383 244.634 L 171.366 244.881 170.765 242.946 C 170.434 241.882,170.055 241.189,169.922 241.406 M343.800 241.436 C 331.164 242.380,319.169 244.223,268.800 252.957 C 235.850 258.670,210.331 262.613,189.628 265.189 C 152.103 269.858,111.664 272.779,84.200 272.804 C 73.672 272.814,74.800 271.889,74.800 280.511 L 74.800 287.730 89.100 287.468 C 146.027 286.426,193.081 281.043,285.400 265.008 C 348.852 253.986,361.919 253.392,364.718 261.400 C 365.038 262.318,365.144 260.755,365.168 254.759 C 365.203 246.171,365.026 245.454,362.400 243.548 C 360.175 241.933,351.037 240.895,343.800 241.436 M144.641 245.500 L 143.936 247.600 141.868 247.613 C 139.627 247.628,139.672 247.817,142.342 249.600 C 143.216 250.184,143.224 250.246,142.616 251.962 C 141.828 254.187,141.915 254.250,143.729 252.755 L 145.213 251.531 146.983 252.569 L 148.754 253.607 148.113 251.726 L 147.472 249.845 149.200 248.311 L 150.928 246.778 148.748 247.034 L 146.569 247.290 145.957 245.345 L 145.346 243.400 144.641 245.500 M119.966 247.056 L 119.365 249.000 117.182 249.200 L 115.000 249.400 116.695 250.550 C 118.480 251.761,118.535 252.031,117.543 254.723 C 117.163 255.753,117.350 255.694,119.439 254.128 L 120.678 253.198 122.339 254.402 C 123.252 255.064,124.000 255.537,124.000 255.453 C 124.000 255.369,123.730 254.535,123.400 253.600 C 122.613 251.369,122.553 251.562,124.500 250.056 L 126.200 248.741 124.028 248.851 L 121.856 248.961 121.212 247.036 L 120.568 245.111 119.966 247.056 M95.249 247.961 C 94.762 249.862,94.640 250.002,93.463 250.028 C 90.918 250.085,90.554 250.529,92.156 251.620 C 93.820 252.754,93.778 252.595,93.000 254.800 C 92.670 255.735,92.400 256.583,92.400 256.684 C 92.400 256.785,93.140 256.281,94.044 255.565 C 95.814 254.163,95.589 254.146,98.293 255.903 L 99.187 256.483 98.596 254.542 L 98.005 252.600 99.302 251.511 C 100.016 250.912,100.780 250.387,101.000 250.346 C 101.220 250.304,100.425 250.164,99.232 250.035 L 97.064 249.800 96.418 247.861 L 95.771 245.921 95.249 247.961 M206.371 249.100 C 205.826 250.913,205.722 251.010,204.107 251.226 C 201.819 251.531,201.719 251.755,203.424 252.761 C 204.645 253.481,204.842 253.782,204.641 254.611 C 204.508 255.155,204.279 256.095,204.132 256.700 L 203.864 257.800 205.346 256.500 C 207.092 254.968,207.290 254.943,209.053 256.033 C 210.560 256.964,210.588 256.922,209.932 254.732 C 209.478 253.214,209.505 253.131,210.959 251.642 L 212.453 250.112 210.457 250.304 L 208.461 250.496 207.967 248.848 C 207.333 246.732,207.069 246.773,206.371 249.100 M181.839 251.700 C 181.448 253.725,180.999 254.140,178.928 254.386 L 177.000 254.614 178.670 255.741 L 180.341 256.867 179.770 258.484 C 178.933 260.857,179.049 261.015,180.614 259.641 C 182.297 258.164,182.492 258.145,184.319 259.273 L 185.732 260.147 185.456 259.173 C 184.637 256.279,184.656 256.185,186.356 254.731 L 187.986 253.335 185.823 253.515 L 183.660 253.694 183.167 252.047 C 182.572 250.062,182.174 249.958,181.839 251.700 M157.041 254.700 C 156.426 256.530,156.198 256.801,155.268 256.805 C 152.596 256.819,152.233 257.214,153.883 258.313 C 154.717 258.869,155.447 259.358,155.504 259.399 C 155.562 259.441,155.335 260.251,155.000 261.200 C 154.221 263.409,154.395 263.531,156.141 261.998 L 157.566 260.747 159.369 261.803 L 161.172 262.859 160.522 260.952 L 159.872 259.045 161.557 257.549 L 163.243 256.053 161.106 256.274 L 158.970 256.494 158.358 254.547 L 157.746 252.600 157.041 254.700 M132.371 256.634 C 131.789 258.511,131.686 258.610,130.088 258.826 C 127.823 259.132,127.719 259.361,129.378 260.387 C 130.866 261.306,130.920 261.672,129.951 264.300 C 129.625 265.187,130.114 265.586,130.588 264.819 C 130.718 264.609,131.332 264.075,131.953 263.633 L 133.082 262.829 134.741 264.049 C 135.654 264.720,136.400 265.186,136.400 265.085 C 136.400 264.984,136.130 264.135,135.800 263.200 C 135.013 260.970,134.956 261.159,136.873 259.686 L 138.545 258.400 136.343 258.400 L 134.140 258.400 133.561 256.534 L 132.981 254.668 132.371 256.634 M107.599 257.857 L 107.071 259.914 105.035 260.186 C 102.821 260.482,102.804 260.371,105.348 262.203 C 106.058 262.715,106.063 262.836,105.448 264.642 C 105.091 265.687,104.800 266.616,104.800 266.705 C 104.800 266.794,105.540 266.281,106.444 265.565 C 108.213 264.164,107.990 264.146,110.689 265.900 L 111.578 266.477 110.927 264.566 L 110.276 262.655 111.827 261.353 L 113.377 260.051 111.421 259.926 L 109.465 259.800 108.796 257.800 L 108.128 255.800 107.599 257.857 M82.766 258.656 L 82.164 260.600 80.052 260.722 L 77.941 260.844 79.570 262.024 C 81.420 263.364,81.406 263.316,80.612 265.566 C 79.976 267.369,80.041 267.376,82.230 265.735 L 83.459 264.812 85.130 266.041 C 86.048 266.716,86.800 267.186,86.800 267.085 C 86.800 266.984,86.520 266.113,86.179 265.150 L 85.557 263.400 87.067 262.126 L 88.577 260.851 86.621 260.726 C 84.668 260.600,84.664 260.597,84.017 258.656 L 83.368 256.711 82.766 258.656 M336.312 271.812 C 323.900 273.290,314.386 274.825,269.478 282.589 C 193.272 295.765,132.487 302.379,87.400 302.402 C 84.100 302.403,79.935 302.519,78.144 302.658 L 74.888 302.912 74.716 309.956 C 74.621 313.830,74.590 317.065,74.648 317.143 C 74.853 317.423,95.944 317.189,105.800 316.797 C 154.305 314.873,201.371 309.315,270.200 297.383 C 319.422 288.851,329.719 287.252,342.518 286.152 C 356.122 284.982,363.001 286.493,364.598 291.000 C 365.124 292.484,365.166 292.040,365.182 284.887 C 365.205 274.826,364.742 273.720,359.845 272.138 C 357.033 271.229,342.854 271.033,336.312 271.812 M340.291 301.235 C 330.487 302.044,314.364 304.571,270.416 312.186 C 191.964 325.779,144.988 330.895,86.300 332.238 L 74.400 332.510 74.400 339.855 L 74.400 347.200 80.500 347.197 C 131.133 347.174,191.585 340.760,271.156 326.969 C 329.771 316.811,340.253 315.339,351.378 315.705 C 359.932 315.987,363.762 317.485,364.763 320.941 C 365.016 321.815,365.139 319.839,365.164 314.484 C 365.197 307.437,365.128 306.628,364.375 305.150 C 362.458 301.393,354.347 300.074,340.291 301.235 " stroke="none" fill="#f2f1f1" fill-rule="evenodd"></path><path id="path2" d="M340.800 137.208 C 338.490 137.402,335.700 137.749,334.600 137.979 C 333.500 138.209,328.550 138.959,323.600 139.646 C 318.650 140.333,306.230 142.317,296.000 144.054 C 263.584 149.561,228.015 155.485,221.700 156.430 L 215.600 157.341 215.600 164.671 C 215.600 169.750,215.736 172.000,216.042 172.000 C 216.284 172.000,222.899 171.005,230.742 169.790 C 243.331 167.838,255.378 165.804,300.800 157.962 C 345.180 150.301,362.037 149.994,364.751 156.800 C 365.038 157.521,365.156 155.716,365.175 150.326 C 365.208 140.445,364.797 139.459,360.023 137.962 C 356.928 136.992,347.686 136.629,340.800 137.208 M344.800 167.075 C 333.358 167.938,318.053 170.246,281.400 176.639 C 260.802 180.231,236.720 184.219,224.501 186.059 L 215.602 187.400 215.601 194.645 L 215.600 201.889 216.500 201.738 C 216.995 201.655,224.354 200.507,232.854 199.187 C 241.353 197.867,258.183 195.078,270.254 192.988 C 325.888 183.357,336.748 181.775,348.200 181.635 C 357.613 181.519,362.979 182.956,364.499 186.000 C 365.438 187.879,365.569 175.311,364.639 172.600 C 363.071 168.030,356.482 166.195,344.800 167.075 M338.200 197.423 C 326.712 198.687,314.509 200.635,273.200 207.804 C 260.990 209.923,243.620 212.811,234.600 214.221 C 225.580 215.632,217.615 216.887,216.900 217.011 L 215.600 217.236 215.600 224.418 C 215.600 228.368,215.685 231.600,215.788 231.600 C 215.891 231.600,222.866 230.521,231.288 229.202 C 245.027 227.050,254.133 225.517,299.200 217.765 C 346.470 209.635,363.520 209.312,364.921 216.523 C 365.014 217.005,365.113 214.340,365.140 210.600 C 365.207 201.178,364.399 199.334,359.517 197.758 C 356.633 196.827,345.248 196.649,338.200 197.423 M343.400 226.670 C 342.740 226.752,339.680 227.093,336.600 227.427 C 328.747 228.279,311.616 230.879,297.000 233.436 C 269.691 238.215,242.292 242.828,229.300 244.834 L 215.600 246.950 215.600 254.075 C 215.600 260.341,215.677 261.200,216.240 261.200 C 216.593 261.200,223.298 260.207,231.140 258.992 C 243.747 257.041,254.395 255.243,301.200 247.162 C 344.809 239.634,361.799 239.260,364.631 245.766 C 365.108 246.860,365.169 246.204,365.168 240.000 C 365.167 231.311,364.745 230.069,361.200 228.306 C 357.952 226.692,349.474 225.912,343.400 226.670 M344.000 256.433 C 333.080 257.218,319.814 259.272,266.983 268.360 C 190.418 281.531,133.420 287.593,86.100 287.599 L 74.800 287.600 74.800 295.000 L 74.800 302.400 79.900 302.395 C 134.789 302.341,192.373 295.920,288.000 279.192 C 311.115 275.149,324.907 272.999,337.000 271.555 C 351.303 269.848,362.608 271.378,364.533 275.283 C 365.400 277.042,365.531 264.386,364.671 261.917 C 363.039 257.231,356.614 255.526,344.000 256.433 M337.000 286.804 C 327.720 287.918,311.124 290.489,294.400 293.404 C 220.645 306.258,192.305 310.325,149.600 314.184 C 127.810 316.153,99.649 317.557,81.300 317.588 L 74.400 317.600 74.400 324.975 L 74.400 332.350 81.700 332.160 C 150.092 330.384,190.673 325.911,280.600 310.238 C 328.119 301.956,338.076 300.622,350.400 300.889 C 360.369 301.105,363.348 302.083,364.751 305.600 C 365.040 306.326,365.156 304.720,365.175 299.733 C 365.210 290.213,364.485 288.668,359.200 286.991 C 355.818 285.918,345.131 285.828,337.000 286.804 M340.400 316.226 C 328.176 317.472,316.485 319.321,271.000 327.199 C 193.439 340.634,142.449 346.251,90.648 347.069 L 74.296 347.327 74.501 350.764 C 74.851 356.624,76.887 360.414,80.871 362.620 L 83.000 363.800 130.600 363.721 C 284.793 363.466,360.184 355.378,364.759 338.600 C 365.473 335.982,365.325 323.532,364.552 321.168 C 362.993 316.402,354.904 314.747,340.400 316.226 " stroke="none" fill="#d52828" fill-rule="evenodd"></path><path id="path3" d="M99.145 23.229 C 74.843 26.798,37.690 60.221,19.690 94.706 C 16.668 100.495,16.564 100.217,21.738 100.138 C 41.960 99.829,84.824 81.678,106.400 64.287 C 134.422 41.701,130.348 18.646,99.145 23.229 M238.600 38.640 C 237.940 38.734,235.060 39.091,232.200 39.434 C 206.980 42.457,174.146 52.576,148.600 65.199 C 91.087 93.619,75.565 130.568,106.983 164.269 L 110.403 167.938 113.302 167.762 C 132.001 166.627,137.821 166.221,147.600 165.370 C 184.674 162.144,213.906 157.988,281.000 146.406 C 303.519 142.519,321.036 139.689,328.000 138.813 C 329.870 138.578,332.056 138.286,332.858 138.165 L 334.315 137.944 332.797 132.072 C 325.217 102.753,311.086 77.823,289.600 55.864 C 278.342 44.358,273.764 41.742,260.800 39.405 C 257.153 38.748,241.610 38.212,238.600 38.640 M7.871 122.700 C -3.226 157.330,-2.752 195.519,9.206 230.200 C 20.139 261.909,41.186 290.326,69.000 310.932 C 71.860 313.051,74.335 314.788,74.500 314.792 C 74.665 314.797,74.800 305.453,74.800 294.029 C 74.800 274.584,74.845 273.247,75.500 273.076 C 76.167 272.902,76.167 272.891,75.500 272.846 C 74.839 272.803,74.800 270.833,74.800 237.466 L 74.800 202.131 70.282 194.966 C 54.523 169.973,47.407 160.198,29.396 138.800 C 20.428 128.146,11.956 117.759,11.050 116.308 C 10.323 115.145,10.236 115.321,7.871 122.700 M186.905 170.277 C 187.293 170.378,187.490 170.655,187.343 170.892 C 187.185 171.149,187.264 171.208,187.538 171.038 C 188.307 170.563,188.057 169.997,187.100 170.046 C 186.415 170.082,186.368 170.137,186.905 170.277 M215.367 179.800 C 215.367 183.980,215.426 185.636,215.498 183.479 C 215.571 181.323,215.570 177.903,215.498 175.879 C 215.425 173.856,215.366 175.620,215.367 179.800 M161.200 172.953 C 161.200 173.038,161.650 173.193,162.200 173.298 C 162.750 173.403,163.200 173.334,163.200 173.145 C 163.200 172.955,162.750 172.800,162.200 172.800 C 161.650 172.800,161.200 172.869,161.200 172.953 M134.341 175.301 C 134.543 175.503,135.133 175.601,135.654 175.519 C 136.455 175.393,136.398 175.337,135.287 175.152 C 134.493 175.021,134.119 175.079,134.341 175.301 M128.705 175.883 C 129.202 175.979,129.922 175.975,130.305 175.875 C 130.687 175.775,130.280 175.696,129.400 175.701 C 128.520 175.705,128.207 175.787,128.705 175.883 M106.800 176.333 C 106.800 176.590,106.395 176.821,105.900 176.846 C 105.159 176.885,105.131 176.927,105.742 177.084 C 106.540 177.289,107.525 176.591,107.073 176.140 C 106.923 175.990,106.800 176.077,106.800 176.333 M180.004 176.996 C 179.732 177.323,179.350 177.493,179.155 177.372 C 178.960 177.251,178.800 177.343,178.800 177.576 C 178.800 178.239,179.407 178.076,180.200 177.200 C 180.598 176.760,180.828 176.400,180.711 176.400 C 180.594 176.400,180.276 176.668,180.004 176.996 M78.705 177.883 C 79.202 177.979,79.922 177.975,80.305 177.875 C 80.687 177.775,80.280 177.696,79.400 177.701 C 78.520 177.705,78.207 177.787,78.705 177.883 M148.400 184.555 C 148.400 184.640,148.930 184.787,149.579 184.882 C 150.227 184.977,150.667 184.908,150.555 184.728 C 150.357 184.407,148.400 184.250,148.400 184.555 M114.800 186.951 C 114.800 187.034,115.105 187.349,115.477 187.651 C 115.855 187.958,116.029 187.993,115.872 187.730 C 115.708 187.456,115.884 187.184,116.295 187.077 C 116.735 186.962,116.586 186.875,115.900 186.846 C 115.295 186.821,114.800 186.868,114.800 186.951 M93.000 187.600 L 91.400 187.886 92.876 187.943 C 93.688 187.974,94.464 187.820,94.600 187.600 C 94.736 187.380,94.792 187.226,94.724 187.257 C 94.656 187.288,93.880 187.442,93.000 187.600 M160.800 193.755 C 160.800 193.840,161.330 193.987,161.979 194.082 C 162.627 194.177,163.067 194.108,162.955 193.928 C 162.757 193.607,160.800 193.450,160.800 193.755 M204.804 194.596 C 204.532 194.923,204.150 195.093,203.955 194.972 C 203.760 194.851,203.600 194.943,203.600 195.176 C 203.600 195.839,204.207 195.676,205.000 194.800 C 205.398 194.360,205.628 194.000,205.511 194.000 C 205.394 194.000,205.076 194.268,204.804 194.596 M152.245 194.728 C 152.133 194.908,152.573 194.977,153.221 194.882 C 153.870 194.787,154.400 194.640,154.400 194.555 C 154.400 194.250,152.443 194.407,152.245 194.728 M127.457 196.707 C 127.353 196.876,127.972 196.948,128.834 196.865 C 129.695 196.783,130.400 196.645,130.400 196.558 C 130.400 196.260,127.647 196.400,127.457 196.707 M106.800 197.133 C 106.800 197.390,106.215 197.627,105.500 197.660 C 104.221 197.719,104.219 197.723,105.349 197.891 C 106.495 198.062,107.591 197.458,107.073 196.940 C 106.923 196.790,106.800 196.877,106.800 197.133 M180.004 197.796 C 179.732 198.123,179.350 198.293,179.155 198.172 C 178.960 198.051,178.800 198.143,178.800 198.376 C 178.800 199.039,179.407 198.876,180.200 198.000 C 180.598 197.560,180.828 197.200,180.711 197.200 C 180.594 197.200,180.276 197.468,180.004 197.796 M189.200 201.176 C 189.200 201.383,189.408 201.681,189.662 201.838 C 189.936 202.008,190.015 201.949,189.857 201.692 C 189.710 201.455,189.907 201.178,190.295 201.077 C 190.832 200.937,190.785 200.882,190.100 200.846 C 189.605 200.821,189.200 200.969,189.200 201.176 M215.367 209.600 C 215.367 213.890,215.426 215.645,215.498 213.500 C 215.570 211.355,215.570 207.845,215.498 205.700 C 215.426 203.555,215.367 205.310,215.367 209.600 M192.404 206.596 C 192.132 206.923,191.750 207.093,191.555 206.972 C 191.360 206.851,191.200 206.943,191.200 207.176 C 191.200 207.839,191.807 207.676,192.600 206.800 C 192.998 206.360,193.228 206.000,193.111 206.000 C 192.994 206.000,192.676 206.268,192.404 206.596 M114.800 207.751 C 114.800 207.834,115.105 208.149,115.477 208.451 C 115.849 208.753,116.028 208.790,115.874 208.534 C 115.721 208.278,115.821 207.977,116.098 207.866 C 116.374 207.754,116.195 207.649,115.700 207.632 C 115.205 207.614,114.800 207.668,114.800 207.751 M92.500 208.295 C 90.474 208.437,89.895 208.841,90.862 209.438 C 91.148 209.615,91.215 209.548,91.038 209.262 C 90.839 208.939,91.294 208.800,92.553 208.800 C 93.543 208.800,94.464 208.620,94.600 208.400 C 94.736 208.180,94.792 208.033,94.724 208.074 C 94.656 208.115,93.655 208.214,92.500 208.295 M211.143 208.688 L 212.086 208.867 210.943 210.133 L 209.800 211.400 211.086 210.239 C 212.473 208.986,212.470 208.368,211.076 208.454 C 210.244 208.506,210.248 208.518,211.143 208.688 M201.600 209.976 C 201.600 210.183,201.808 210.481,202.062 210.638 C 202.336 210.808,202.415 210.749,202.257 210.492 C 202.110 210.255,202.307 209.978,202.695 209.877 C 203.232 209.737,203.185 209.682,202.500 209.646 C 202.005 209.621,201.600 209.769,201.600 209.976 M205.009 215.191 C 204.615 215.625,204.109 215.868,203.885 215.729 C 203.642 215.579,203.600 215.676,203.780 215.968 C 204.039 216.387,206.000 215.117,206.000 214.530 C 206.000 214.234,205.684 214.444,205.009 215.191 M152.000 215.545 C 152.000 215.734,152.450 215.803,153.000 215.698 C 153.550 215.593,154.000 215.438,154.000 215.353 C 154.000 215.269,153.550 215.200,153.000 215.200 C 152.450 215.200,152.000 215.355,152.000 215.545 M128.100 217.476 C 128.485 217.576,129.115 217.576,129.500 217.476 C 129.885 217.375,129.570 217.293,128.800 217.293 C 128.030 217.293,127.715 217.375,128.100 217.476 M104.305 218.683 C 104.802 218.779,105.522 218.775,105.905 218.675 C 106.287 218.575,105.880 218.496,105.000 218.501 C 104.120 218.505,103.807 218.587,104.305 218.683 M164.400 224.745 C 164.400 224.934,164.850 225.003,165.400 224.898 C 165.950 224.793,166.400 224.638,166.400 224.553 C 166.400 224.469,165.950 224.400,165.400 224.400 C 164.850 224.400,164.400 224.555,164.400 224.745 M90.400 229.520 C 90.400 229.696,91.030 229.766,91.800 229.676 C 92.570 229.586,93.200 229.442,93.200 229.356 C 93.200 229.270,92.570 229.200,91.800 229.200 C 91.030 229.200,90.400 229.344,90.400 229.520 M211.375 230.500 L 210.200 231.800 211.500 230.625 C 212.215 229.979,212.800 229.394,212.800 229.325 C 212.800 229.016,212.470 229.288,211.375 230.500 M215.367 239.200 C 215.367 243.490,215.426 245.245,215.498 243.100 C 215.570 240.955,215.570 237.445,215.498 235.300 C 215.426 233.155,215.367 234.910,215.367 239.200 M152.000 236.345 C 152.000 236.534,152.450 236.603,153.000 236.498 C 153.550 236.393,154.000 236.238,154.000 236.153 C 154.000 236.069,153.550 236.000,153.000 236.000 C 152.450 236.000,152.000 236.155,152.000 236.345 M102.800 239.576 C 102.800 239.783,103.008 240.081,103.262 240.238 C 103.538 240.409,103.615 240.349,103.454 240.088 C 103.287 239.816,103.679 239.591,104.492 239.490 C 105.789 239.329,105.788 239.328,104.300 239.264 C 103.475 239.229,102.800 239.369,102.800 239.576 M174.434 245.353 L 173.469 246.600 174.613 245.512 C 175.243 244.914,175.677 244.353,175.579 244.265 C 175.480 244.177,174.965 244.667,174.434 245.353 M171.700 244.676 C 172.085 244.776,172.715 244.776,173.100 244.676 C 173.485 244.575,173.170 244.493,172.400 244.493 C 171.630 244.493,171.315 244.575,171.700 244.676 M192.609 247.991 C 192.215 248.425,191.737 248.685,191.547 248.567 C 191.356 248.449,191.200 248.543,191.200 248.776 C 191.200 249.477,191.805 249.259,192.800 248.200 C 193.317 247.650,193.646 247.200,193.532 247.200 C 193.417 247.200,193.002 247.556,192.609 247.991 M127.200 258.951 C 127.200 259.034,127.505 259.349,127.877 259.651 C 128.249 259.953,128.428 259.990,128.274 259.734 C 128.121 259.478,128.221 259.177,128.498 259.066 C 128.774 258.954,128.595 258.849,128.100 258.832 C 127.605 258.814,127.200 258.868,127.200 258.951 M112.505 259.877 C 112.893 259.978,113.107 260.227,112.981 260.430 C 112.617 261.021,113.054 260.858,113.600 260.200 C 114.024 259.689,113.927 259.607,112.949 259.646 C 112.264 259.674,112.085 259.767,112.505 259.877 M102.400 260.151 C 102.400 260.234,102.705 260.549,103.077 260.851 C 103.460 261.162,103.631 261.195,103.471 260.929 C 103.295 260.635,103.530 260.392,104.094 260.283 C 104.756 260.156,104.650 260.094,103.700 260.054 C 102.985 260.025,102.400 260.068,102.400 260.151 M86.908 260.692 C 87.869 260.792,88.319 261.008,88.147 261.286 C 87.985 261.549,88.061 261.609,88.338 261.438 C 89.300 260.844,88.738 260.402,87.100 260.467 L 85.400 260.534 86.908 260.692 M144.100 269.876 C 144.485 269.976,145.115 269.976,145.500 269.876 C 145.885 269.775,145.570 269.693,144.800 269.693 C 144.030 269.693,143.715 269.775,144.100 269.876 M139.300 270.276 C 139.685 270.376,140.315 270.376,140.700 270.276 C 141.085 270.175,140.770 270.093,140.000 270.093 C 139.230 270.093,138.915 270.175,139.300 270.276 M134.100 270.676 C 134.485 270.776,135.115 270.776,135.500 270.676 C 135.885 270.575,135.570 270.493,134.800 270.493 C 134.030 270.493,133.715 270.575,134.100 270.676 M128.305 271.083 C 128.802 271.179,129.522 271.175,129.905 271.075 C 130.287 270.975,129.880 270.896,129.000 270.901 C 128.120 270.905,127.807 270.987,128.305 271.083 M122.500 271.476 C 122.885 271.576,123.515 271.576,123.900 271.476 C 124.285 271.375,123.970 271.293,123.200 271.293 C 122.430 271.293,122.115 271.375,122.500 271.476 M114.900 271.876 C 115.285 271.976,115.915 271.976,116.300 271.876 C 116.685 271.775,116.370 271.693,115.600 271.693 C 114.830 271.693,114.515 271.775,114.900 271.876 M105.505 272.283 C 106.002 272.379,106.722 272.375,107.105 272.275 C 107.487 272.175,107.080 272.096,106.200 272.101 C 105.320 272.105,105.007 272.187,105.505 272.283 M92.707 272.690 C 93.426 272.779,94.506 272.777,95.107 272.686 C 95.708 272.595,95.120 272.522,93.800 272.524 C 92.480 272.526,91.988 272.601,92.707 272.690 " stroke="none" fill="#5393f3" fill-rule="evenodd"></path><path id="path4" d="M341.705 152.287 C 342.314 152.379,343.214 152.377,343.705 152.282 C 344.197 152.187,343.700 152.111,342.600 152.114 C 341.500 152.117,341.097 152.195,341.705 152.287 M343.705 167.087 C 344.314 167.179,345.214 167.177,345.705 167.082 C 346.197 166.987,345.700 166.911,344.600 166.914 C 343.500 166.917,343.097 166.995,343.705 167.087 M353.505 167.083 C 354.002 167.179,354.722 167.175,355.105 167.075 C 355.487 166.975,355.080 166.896,354.200 166.901 C 353.320 166.905,353.007 166.987,353.505 167.083 M344.691 181.889 C 345.401 181.977,346.661 181.979,347.491 181.892 C 348.321 181.805,347.740 181.733,346.200 181.731 C 344.660 181.729,343.981 181.800,344.691 181.889 M351.700 181.887 C 352.305 181.978,353.295 181.978,353.900 181.887 C 354.505 181.795,354.010 181.720,352.800 181.720 C 351.590 181.720,351.095 181.795,351.700 181.887 M347.300 196.696 C 348.565 196.775,350.635 196.775,351.900 196.696 C 353.165 196.616,352.130 196.551,349.600 196.551 C 347.070 196.551,346.035 196.616,347.300 196.696 M341.300 197.076 C 341.685 197.176,342.315 197.176,342.700 197.076 C 343.085 196.975,342.770 196.893,342.000 196.893 C 341.230 196.893,340.915 196.975,341.300 197.076 M347.911 211.493 C 348.851 211.578,350.291 211.577,351.111 211.491 C 351.930 211.405,351.160 211.336,349.400 211.337 C 347.640 211.339,346.970 211.409,347.911 211.493 M340.100 211.876 C 340.485 211.976,341.115 211.976,341.500 211.876 C 341.885 211.775,341.570 211.693,340.800 211.693 C 340.030 211.693,339.715 211.775,340.100 211.876 M342.500 241.487 C 343.105 241.578,344.095 241.578,344.700 241.487 C 345.305 241.395,344.810 241.320,343.600 241.320 C 342.390 241.320,341.895 241.395,342.500 241.487 M353.700 241.476 C 354.085 241.576,354.715 241.576,355.100 241.476 C 355.485 241.375,355.170 241.293,354.400 241.293 C 353.630 241.293,353.315 241.375,353.700 241.476 M345.107 256.290 C 345.826 256.379,346.906 256.377,347.507 256.286 C 348.108 256.195,347.520 256.122,346.200 256.124 C 344.880 256.126,344.388 256.201,345.107 256.290 M352.105 256.287 C 352.714 256.379,353.614 256.377,354.105 256.282 C 354.597 256.187,354.100 256.111,353.000 256.114 C 351.900 256.117,351.497 256.195,352.105 256.287 M347.116 271.097 C 348.499 271.175,350.659 271.174,351.916 271.095 C 353.172 271.016,352.040 270.952,349.400 270.953 C 346.760 270.953,345.732 271.018,347.116 271.097 M158.900 283.476 C 159.285 283.576,159.915 283.576,160.300 283.476 C 160.685 283.375,160.370 283.293,159.600 283.293 C 158.830 283.293,158.515 283.375,158.900 283.476 M150.500 284.276 C 150.885 284.376,151.515 284.376,151.900 284.276 C 152.285 284.175,151.970 284.093,151.200 284.093 C 150.430 284.093,150.115 284.175,150.500 284.276 M141.300 285.076 C 141.685 285.176,142.315 285.176,142.700 285.076 C 143.085 284.975,142.770 284.893,142.000 284.893 C 141.230 284.893,140.915 284.975,141.300 285.076 M136.305 285.483 C 136.802 285.579,137.522 285.575,137.905 285.475 C 138.287 285.375,137.880 285.296,137.000 285.301 C 136.120 285.305,135.807 285.387,136.305 285.483 M130.705 285.883 C 131.202 285.979,131.922 285.975,132.305 285.875 C 132.687 285.775,132.280 285.696,131.400 285.701 C 130.520 285.705,130.207 285.787,130.705 285.883 M348.311 285.893 C 349.251 285.978,350.691 285.977,351.511 285.891 C 352.330 285.805,351.560 285.736,349.800 285.737 C 348.040 285.739,347.370 285.809,348.311 285.893 M124.300 286.282 C 124.795 286.378,125.605 286.378,126.100 286.282 C 126.595 286.187,126.190 286.109,125.200 286.109 C 124.210 286.109,123.805 286.187,124.300 286.282 M116.900 286.687 C 117.505 286.778,118.495 286.778,119.100 286.687 C 119.705 286.595,119.210 286.520,118.000 286.520 C 116.790 286.520,116.295 286.595,116.900 286.687 M107.900 287.089 C 108.615 287.178,109.785 287.178,110.500 287.089 C 111.215 287.001,110.630 286.928,109.200 286.928 C 107.770 286.928,107.185 287.001,107.900 287.089 M96.112 287.495 C 97.164 287.577,98.784 287.576,99.712 287.492 C 100.640 287.408,99.780 287.341,97.800 287.342 C 95.820 287.343,95.060 287.412,96.112 287.495 M157.700 298.276 C 158.085 298.376,158.715 298.376,159.100 298.276 C 159.485 298.175,159.170 298.093,158.400 298.093 C 157.630 298.093,157.315 298.175,157.700 298.276 M144.500 299.476 C 144.885 299.576,145.515 299.576,145.900 299.476 C 146.285 299.375,145.970 299.293,145.200 299.293 C 144.430 299.293,144.115 299.375,144.500 299.476 M139.700 299.876 C 140.085 299.976,140.715 299.976,141.100 299.876 C 141.485 299.775,141.170 299.693,140.400 299.693 C 139.630 299.693,139.315 299.775,139.700 299.876 M134.705 300.283 C 135.202 300.379,135.922 300.375,136.305 300.275 C 136.687 300.175,136.280 300.096,135.400 300.101 C 134.520 300.105,134.207 300.187,134.705 300.283 M129.105 300.683 C 129.602 300.779,130.322 300.775,130.705 300.675 C 131.087 300.575,130.680 300.496,129.800 300.501 C 128.920 300.505,128.607 300.587,129.105 300.683 M122.300 301.082 C 122.795 301.178,123.605 301.178,124.100 301.082 C 124.595 300.987,124.190 300.909,123.200 300.909 C 122.210 300.909,121.805 300.987,122.300 301.082 M341.305 301.087 C 341.914 301.179,342.814 301.177,343.305 301.082 C 343.797 300.987,343.300 300.911,342.200 300.914 C 341.100 300.917,340.697 300.995,341.305 301.087 M114.707 301.490 C 115.426 301.579,116.506 301.577,117.107 301.486 C 117.708 301.395,117.120 301.322,115.800 301.324 C 114.480 301.326,113.988 301.401,114.707 301.490 M104.691 301.889 C 105.401 301.977,106.661 301.979,107.491 301.892 C 108.321 301.805,107.740 301.733,106.200 301.731 C 104.660 301.729,103.981 301.800,104.691 301.889 M91.500 302.295 C 92.655 302.376,94.545 302.376,95.700 302.295 C 96.855 302.214,95.910 302.148,93.600 302.148 C 91.290 302.148,90.345 302.214,91.500 302.295 M75.907 302.690 C 76.626 302.779,77.706 302.777,78.307 302.686 C 78.908 302.595,78.320 302.522,77.000 302.524 C 75.680 302.526,75.188 302.601,75.907 302.690 M152.100 313.876 C 152.485 313.976,153.115 313.976,153.500 313.876 C 153.885 313.775,153.570 313.693,152.800 313.693 C 152.030 313.693,151.715 313.775,152.100 313.876 M147.700 314.276 C 148.085 314.376,148.715 314.376,149.100 314.276 C 149.485 314.175,149.170 314.093,148.400 314.093 C 147.630 314.093,147.315 314.175,147.700 314.276 M143.300 314.676 C 143.685 314.776,144.315 314.776,144.700 314.676 C 145.085 314.575,144.770 314.493,144.000 314.493 C 143.230 314.493,142.915 314.575,143.300 314.676 M138.305 315.083 C 138.802 315.179,139.522 315.175,139.905 315.075 C 140.287 314.975,139.880 314.896,139.000 314.901 C 138.120 314.905,137.807 314.987,138.305 315.083 M133.105 315.483 C 133.602 315.579,134.322 315.575,134.705 315.475 C 135.087 315.375,134.680 315.296,133.800 315.301 C 132.920 315.305,132.607 315.387,133.105 315.483 M126.700 315.882 C 127.195 315.978,128.005 315.978,128.500 315.882 C 128.995 315.787,128.590 315.709,127.600 315.709 C 126.610 315.709,126.205 315.787,126.700 315.882 M343.500 315.882 C 343.995 315.978,344.805 315.978,345.300 315.882 C 345.795 315.787,345.390 315.709,344.400 315.709 C 343.410 315.709,343.005 315.787,343.500 315.882 M353.700 315.876 C 354.085 315.976,354.715 315.976,355.100 315.876 C 355.485 315.775,355.170 315.693,354.400 315.693 C 353.630 315.693,353.315 315.775,353.700 315.876 M120.105 316.287 C 120.714 316.379,121.614 316.377,122.105 316.282 C 122.597 316.187,122.100 316.111,121.000 316.114 C 119.900 316.117,119.497 316.195,120.105 316.287 M339.300 316.276 C 339.685 316.376,340.315 316.376,340.700 316.276 C 341.085 316.175,340.770 316.093,340.000 316.093 C 339.230 316.093,338.915 316.175,339.300 316.276 M111.907 316.690 C 112.626 316.779,113.706 316.777,114.307 316.686 C 114.908 316.595,114.320 316.522,113.000 316.524 C 111.680 316.526,111.188 316.601,111.907 316.690 M101.300 317.091 C 102.125 317.178,103.475 317.178,104.300 317.091 C 105.125 317.005,104.450 316.934,102.800 316.934 C 101.150 316.934,100.475 317.005,101.300 317.091 M75.500 317.489 C 76.215 317.578,77.385 317.578,78.100 317.489 C 78.815 317.401,78.230 317.328,76.800 317.328 C 75.370 317.328,74.785 317.401,75.500 317.489 M82.713 317.495 C 83.876 317.576,85.676 317.576,86.713 317.493 C 87.751 317.411,86.800 317.345,84.600 317.346 C 82.400 317.347,81.551 317.414,82.713 317.495 M89.700 317.487 C 90.305 317.578,91.295 317.578,91.900 317.487 C 92.505 317.395,92.010 317.320,90.800 317.320 C 89.590 317.320,89.095 317.395,89.700 317.487 M150.900 328.676 C 151.285 328.776,151.915 328.776,152.300 328.676 C 152.685 328.575,152.370 328.493,151.600 328.493 C 150.830 328.493,150.515 328.575,150.900 328.676 M146.500 329.076 C 146.885 329.176,147.515 329.176,147.900 329.076 C 148.285 328.975,147.970 328.893,147.200 328.893 C 146.430 328.893,146.115 328.975,146.500 329.076 M141.700 329.476 C 142.085 329.576,142.715 329.576,143.100 329.476 C 143.485 329.375,143.170 329.293,142.400 329.293 C 141.630 329.293,141.315 329.375,141.700 329.476 M136.705 329.883 C 137.202 329.979,137.922 329.975,138.305 329.875 C 138.687 329.775,138.280 329.696,137.400 329.701 C 136.520 329.705,136.207 329.787,136.705 329.883 M131.505 330.283 C 132.002 330.379,132.722 330.375,133.105 330.275 C 133.487 330.175,133.080 330.096,132.200 330.101 C 131.320 330.105,131.007 330.187,131.505 330.283 M125.100 330.682 C 125.595 330.778,126.405 330.778,126.900 330.682 C 127.395 330.587,126.990 330.509,126.000 330.509 C 125.010 330.509,124.605 330.587,125.100 330.682 M117.700 331.087 C 118.305 331.178,119.295 331.178,119.900 331.087 C 120.505 330.995,120.010 330.920,118.800 330.920 C 117.590 330.920,117.095 330.995,117.700 331.087 M109.100 331.489 C 109.815 331.578,110.985 331.578,111.700 331.489 C 112.415 331.401,111.830 331.328,110.400 331.328 C 108.970 331.328,108.385 331.401,109.100 331.489 M97.500 331.893 C 98.435 331.977,99.965 331.977,100.900 331.893 C 101.835 331.809,101.070 331.740,99.200 331.740 C 97.330 331.740,96.565 331.809,97.500 331.893 M80.500 332.296 C 81.765 332.375,83.835 332.375,85.100 332.296 C 86.365 332.216,85.330 332.151,82.800 332.151 C 80.270 332.151,79.235 332.216,80.500 332.296 M144.900 344.276 C 145.285 344.376,145.915 344.376,146.300 344.276 C 146.685 344.175,146.370 344.093,145.600 344.093 C 144.830 344.093,144.515 344.175,144.900 344.276 M140.100 344.676 C 140.485 344.776,141.115 344.776,141.500 344.676 C 141.885 344.575,141.570 344.493,140.800 344.493 C 140.030 344.493,139.715 344.575,140.100 344.676 M135.105 345.083 C 135.602 345.179,136.322 345.175,136.705 345.075 C 137.087 344.975,136.680 344.896,135.800 344.901 C 134.920 344.905,134.607 344.987,135.105 345.083 M129.505 345.483 C 130.002 345.579,130.722 345.575,131.105 345.475 C 131.487 345.375,131.080 345.296,130.200 345.301 C 129.320 345.305,129.007 345.387,129.505 345.483 M122.905 345.887 C 123.514 345.979,124.414 345.977,124.905 345.882 C 125.397 345.787,124.900 345.711,123.800 345.714 C 122.700 345.717,122.297 345.795,122.905 345.887 M115.107 346.290 C 115.826 346.379,116.906 346.377,117.507 346.286 C 118.108 346.195,117.520 346.122,116.200 346.124 C 114.880 346.126,114.388 346.201,115.107 346.290 M105.491 346.689 C 106.201 346.777,107.461 346.779,108.291 346.692 C 109.121 346.605,108.540 346.533,107.000 346.531 C 105.460 346.529,104.781 346.600,105.491 346.689 M92.900 347.094 C 93.945 347.176,95.655 347.176,96.700 347.094 C 97.745 347.012,96.890 346.944,94.800 346.944 C 92.710 346.944,91.855 347.012,92.900 347.094 " stroke="none" fill="#df6666" fill-rule="evenodd"></path></g></svg>