<svg xmlns="http://www.w3.org/2000/svg" width="14" height="14" viewBox="0 0 14 14" fill="none">
  <path d="M13 1.4V12.6C13 12.7061 12.9579 12.8078 12.8828 12.8828C12.8078 12.9579 12.7061 13 12.6 13H1.4C1.29391 13 1.19217 12.9579 1.11716 12.8828C1.04214 12.8078 1 12.7061 1 12.6V1.4C1 1.29391 1.04214 1.19217 1.11716 1.11716C1.19217 1.04214 1.29391 1 1.4 1H12.6C12.7061 1 12.8078 1.04214 12.8828 1.11716C12.9579 1.19217 13 1.29391 13 1.4Z" stroke="#979995" stroke-width="1.5" stroke-linecap="round" stroke-linejoin="round"/>
  <path d="M5.59867 4.67587C5.53787 4.64108 5.46901 4.62287 5.39897 4.62305C5.32893 4.62323 5.26017 4.6418 5.19956 4.67689C5.13894 4.71199 5.08861 4.76239 5.05359 4.82305C5.01857 4.88371 5.00009 4.9525 5 5.02254V8.97787C4.99997 9.04797 5.01837 9.11684 5.05334 9.17759C5.08831 9.23834 5.13863 9.28884 5.19927 9.32401C5.2599 9.35919 5.32871 9.37782 5.39881 9.37803C5.4689 9.37823 5.53783 9.36002 5.59867 9.3252L9.05867 7.34787C9.11991 7.31289 9.17081 7.26234 9.20622 7.20134C9.24163 7.14034 9.26027 7.07107 9.26027 7.00054C9.26027 6.93001 9.24163 6.86073 9.20622 6.79973C9.17081 6.73874 9.11991 6.68818 9.05867 6.6532L5.59867 4.67587Z" stroke="#979995" stroke-width="1.5" stroke-linecap="round" stroke-linejoin="round"/>
</svg>