<svg width="33" height="33" viewBox="0 0 33 33" fill="none" xmlns="http://www.w3.org/2000/svg">
<path d="M8.58203 15.7717C9.02647 16.0283 9.02648 16.6698 8.58203 16.9264L3.91536 19.6207C3.47092 19.8773 2.91536 19.5565 2.91536 19.0433L2.91536 13.6547C2.91536 13.1415 3.47092 12.8207 3.91536 13.0773L8.58203 15.7717Z" fill="#979995"/>
<path d="M13.582 8.5V24.5" stroke="#494949" stroke-width="2.66667" stroke-linecap="round"/>
<path d="M18.9141 8.5V24.5" stroke="#494949" stroke-width="2.66667" stroke-linecap="round"/>
<path d="M23.9141 15.7717C23.4696 16.0283 23.4696 16.6698 23.9141 16.9264L28.5807 19.6207C29.0252 19.8773 29.5807 19.5565 29.5807 19.0433L29.5807 13.6547C29.5807 13.1415 29.0252 12.8207 28.5807 13.0773L23.9141 15.7717Z" fill="#979995"/>
</svg>
