<svg xmlns="http://www.w3.org/2000/svg" width="24" height="24" viewBox="0 0 24 24" fill="none">
  <path d="M19.5 10.5C19.8978 10.5 20.2794 10.342 20.5607 10.0607C20.842 9.77936 21 9.39782 21 9V4.5C21 4.10218 20.842 3.72064 20.5607 3.43934C20.2794 3.15804 19.8978 3 19.5 3H15C14.6022 3 14.2207 3.15804 13.9393 3.43934C13.658 3.72064 13.5 4.10218 13.5 4.5V9C13.5 9.39782 13.658 9.77936 13.9393 10.0607C14.2207 10.342 14.6022 10.5 15 10.5H16.5V13.575C15.7793 13.722 15.1178 14.0776 14.5977 14.5977C14.0776 15.1178 13.722 15.7793 13.575 16.5H10.5V15C10.5 14.6022 10.342 14.2206 10.0607 13.9393C9.77936 13.658 9.39783 13.5 9.00001 13.5H7.50001V10.425C8.41054 10.2391 9.21963 9.72181 9.77041 8.97331C10.3212 8.22481 10.5744 7.29846 10.481 6.37386C10.3876 5.44926 9.95423 4.59227 9.26487 3.96905C8.57552 3.34583 7.67932 3.00077 6.75001 3.00077C5.8207 3.00077 4.9245 3.34583 4.23514 3.96905C3.54579 4.59227 3.1124 5.44926 3.019 6.37386C2.92559 7.29846 3.17883 8.22481 3.72961 8.97331C4.28039 9.72181 5.08948 10.2391 6.00001 10.425V13.5H4.50001C4.10218 13.5 3.72065 13.658 3.43935 13.9393C3.15804 14.2206 3.00001 14.6022 3.00001 15V19.5C3.00001 19.8978 3.15804 20.2794 3.43935 20.5607C3.72065 20.842 4.10218 21 4.50001 21H9.00001C9.39783 21 9.77936 20.842 10.0607 20.5607C10.342 20.2794 10.5 19.8978 10.5 19.5V18H13.575C13.7107 18.6637 14.0236 19.2782 14.4805 19.7783C14.9374 20.2785 15.5212 20.6455 16.1699 20.8404C16.8187 21.0354 17.5081 21.0509 18.165 20.8855C18.8219 20.72 19.4217 20.3797 19.9007 19.9007C20.3797 19.4217 20.72 18.8219 20.8855 18.165C21.0509 17.5081 21.0354 16.8187 20.8404 16.1699C20.6455 15.5212 20.2785 14.9373 19.7784 14.4804C19.2782 14.0236 18.6637 13.7107 18 13.575V10.5H19.5ZM4.50001 6.75C4.50001 6.30499 4.63197 5.86998 4.8792 5.49997C5.12644 5.12996 5.47784 4.84157 5.88897 4.67127C6.3001 4.50097 6.7525 4.45642 7.18896 4.54323C7.62542 4.63005 8.02633 4.84434 8.341 5.15901C8.65567 5.47368 8.86996 5.87459 8.95678 6.31105C9.04359 6.7475 8.99903 7.1999 8.82874 7.61104C8.65844 8.02217 8.37005 8.37357 8.00004 8.62081C7.63003 8.86804 7.19502 9 6.75001 9C6.15327 9 5.58098 8.76295 5.15902 8.34099C4.73706 7.91903 4.50001 7.34674 4.50001 6.75ZM9.00001 19.5H4.50001V15H9.00001V19.5ZM19.5 17.25C19.5 17.695 19.368 18.13 19.1208 18.5C18.8736 18.87 18.5222 19.1584 18.111 19.3287C17.6999 19.499 17.2475 19.5436 16.8111 19.4568C16.3746 19.37 15.9737 19.1557 15.659 18.841C15.3443 18.5263 15.1301 18.1254 15.0432 17.689C14.9564 17.2525 15.001 16.8001 15.1713 16.389C15.3416 15.9778 15.63 15.6264 16 15.3792C16.37 15.132 16.805 15 17.25 15C17.8467 15 18.419 15.2371 18.841 15.659C19.263 16.081 19.5 16.6533 19.5 17.25ZM15 4.5H19.5V9H15V4.5Z" fill="#979797"/>
</svg>