<?xml version="1.0" encoding="UTF-8"?>
<!DOCTYPE svg PUBLIC "-//W3C//DTD SVG 1.1//EN" "http://www.w3.org/Graphics/SVG/1.1/DTD/svg11.dtd">
<svg xmlns="http://www.w3.org/2000/svg" version="1.1" width="256px" height="256px" style="shape-rendering:geometricPrecision; text-rendering:geometricPrecision; image-rendering:optimizeQuality; fill-rule:evenodd; clip-rule:evenodd" xmlns:xlink="http://www.w3.org/1999/xlink">
<g><path style="opacity:1" fill="#fefefe" d="M -0.5,-0.5 C 84.8333,-0.5 170.167,-0.5 255.5,-0.5C 255.5,84.8333 255.5,170.167 255.5,255.5C 170.167,255.5 84.8333,255.5 -0.5,255.5C -0.5,170.167 -0.5,84.8333 -0.5,-0.5 Z"/></g>
<g><path style="opacity:1" fill="#fcfedb" d="M 130.5,26.5 C 129.167,26.5 127.833,26.5 126.5,26.5C 120.63,25.2338 114.63,25.2338 108.5,26.5C 108.611,25.8826 108.944,25.3826 109.5,25C 112.5,24.8333 115.5,24.6667 118.5,24.5C 122.797,24.2783 126.797,24.945 130.5,26.5 Z"/></g>
<g><path style="opacity:1" fill="#f2fe9c" d="M 126.5,26.5 C 121.305,26.1795 116.305,26.5128 111.5,27.5C 110.167,27.5 108.833,27.5 107.5,27.5C 107.5,26.8333 107.833,26.5 108.5,26.5C 114.63,25.2338 120.63,25.2338 126.5,26.5 Z"/></g>
<g><path style="opacity:1" fill="#d4f257" d="M 111.5,27.5 C 116.305,26.5128 121.305,26.1795 126.5,26.5C 127.833,26.5 129.167,26.5 130.5,26.5C 135.041,27.5702 139.375,29.2369 143.5,31.5C 133.182,28.2182 122.515,26.8849 111.5,27.5 Z"/></g>
<g><path style="opacity:1" fill="#cafc08" d="M 107.5,27.5 C 108.833,27.5 110.167,27.5 111.5,27.5C 122.515,26.8849 133.182,28.2182 143.5,31.5C 145.05,32.4408 146.716,33.1075 148.5,33.5C 148.973,34.9063 149.973,35.573 151.5,35.5C 152.29,36.4013 153.29,37.0679 154.5,37.5C 155.535,39.205 155.535,40.8716 154.5,42.5C 155.651,43.731 156.817,43.731 158,42.5C 159.716,45.0778 162.216,46.4111 165.5,46.5C 166.526,52.8682 170.192,55.8682 176.5,55.5C 177.922,56.925 179.589,57.925 181.5,58.5C 181.833,59.5 182.5,60.1667 183.5,60.5C 184.694,61.2719 185.694,62.2719 186.5,63.5C 186.286,65.1439 186.62,66.6439 187.5,68C 191.148,69.936 194.814,71.7693 198.5,73.5C 198.833,73.5 199.167,73.5 199.5,73.5C 201.878,75.8777 204.545,77.8777 207.5,79.5C 209.193,82.1897 211.527,84.1897 214.5,85.5C 218.202,89.2034 222.202,92.5367 226.5,95.5C 226.525,98.179 227.858,99.5123 230.5,99.5C 231.605,100.6 232.938,101.267 234.5,101.5C 235.833,102.933 237.333,104.267 239,105.5C 239.495,107.473 239.662,109.473 239.5,111.5C 237.167,111.833 235.833,113.167 235.5,115.5C 233.086,116.911 231.419,118.911 230.5,121.5C 228.738,122.262 227.738,123.596 227.5,125.5C 224.355,128.46 221.688,131.793 219.5,135.5C 218.094,135.973 217.427,136.973 217.5,138.5C 216.833,138.833 216.167,139.167 215.5,139.5C 214.5,139.5 213.5,139.5 212.5,139.5C 212.5,140.833 212.5,142.167 212.5,143.5C 209.833,143.5 207.167,143.5 204.5,143.5C 203.833,143.5 203.167,143.5 202.5,143.5C 201.415,141.413 199.749,140.08 197.5,139.5C 196.415,137.413 194.749,136.08 192.5,135.5C 191.5,135.167 190.833,134.5 190.5,133.5C 189.415,131.413 187.749,130.08 185.5,129.5C 184.128,128.488 182.795,127.488 181.5,126.5C 180.089,124.086 178.089,122.419 175.5,121.5C 175.67,120.178 175.337,119.011 174.5,118C 172.146,117.153 169.812,116.32 167.5,115.5C 167.167,115.5 166.833,115.5 166.5,115.5C 162.153,111.155 157.486,107.155 152.5,103.5C 151.167,102.833 150.167,101.833 149.5,100.5C 148.058,99.1805 147.392,97.5138 147.5,95.5C 146.5,95.5 145.5,95.5 144.5,95.5C 144.241,91.9319 142.241,90.5985 138.5,91.5C 138.5,90.5 138.5,89.5 138.5,88.5C 135.328,86.0861 131.661,84.4195 127.5,83.5C 127.586,82.5041 127.252,81.6708 126.5,81C 120.5,80.3333 114.5,80.3333 108.5,81C 107.944,81.3826 107.611,81.8826 107.5,82.5C 106.833,83.1667 106.167,83.8333 105.5,84.5C 102.573,85.0971 100.573,86.7638 99.5,89.5C 98.2223,89.7822 97.2223,90.4489 96.5,91.5C 92.4223,91.2604 90.2556,93.2604 90,97.5C 89.1826,103.016 89.3493,108.35 90.5,113.5C 90.9887,114.995 91.6554,116.329 92.5,117.5C 92.9752,119.784 93.9752,121.784 95.5,123.5C 95.7986,125.455 96.7986,126.789 98.5,127.5C 99.0128,129.854 100.179,131.854 102,133.5C 103.011,134.337 104.178,134.67 105.5,134.5C 106.391,135.11 107.391,135.443 108.5,135.5C 109.911,137.914 111.911,139.581 114.5,140.5C 114.5,142.5 115.5,143.5 117.5,143.5C 119.884,145.885 122.55,147.885 125.5,149.5C 127.8,151.984 130.467,153.984 133.5,155.5C 134.585,157.587 136.251,158.92 138.5,159.5C 140.167,161.833 142.167,163.833 144.5,165.5C 144.722,167.607 145.722,169.274 147.5,170.5C 147.167,171.167 146.833,171.833 146.5,172.5C 152.631,174.731 158.298,177.731 163.5,181.5C 163.833,181.5 164.167,181.5 164.5,181.5C 165.523,183.846 166.523,186.179 167.5,188.5C 169.635,188.147 170.968,188.98 171.5,191C 169.546,192.741 168.546,194.908 168.5,197.5C 168.167,198.167 167.833,198.833 167.5,199.5C 166.094,199.973 165.427,200.973 165.5,202.5C 162.08,205.251 159.413,208.584 157.5,212.5C 155.413,213.585 154.08,215.251 153.5,217.5C 151.167,219.167 149.167,221.167 147.5,223.5C 145.879,225.264 144.546,227.264 143.5,229.5C 141.901,229.768 140.568,229.434 139.5,228.5C 138.407,225.739 136.407,224.073 133.5,223.5C 133.714,221.856 133.38,220.356 132.5,219C 129.005,218.881 126.005,217.715 123.5,215.5C 115.836,210.326 108.502,204.659 101.5,198.5C 98.1667,195.5 94.8333,192.5 91.5,189.5C 91.5792,188.07 91.2458,186.736 90.5,185.5C 88.2235,184.579 85.8901,183.913 83.5,183.5C 83.1667,183.5 82.8333,183.5 82.5,183.5C 79.8333,180.833 77.1667,178.167 74.5,175.5C 74.4142,174.504 74.7476,173.671 75.5,173C 70.4405,169.395 65.1072,166.229 59.5,163.5C 57.0276,160.657 55.5276,157.657 55,154.5C 54.586,154.957 54.086,155.291 53.5,155.5C 51.8273,153.914 49.8273,153.247 47.5,153.5C 45.9731,153.573 44.9731,152.906 44.5,151.5C 43.0582,150.18 42.3915,148.514 42.5,146.5C 38.4528,146.465 35.7861,144.465 34.5,140.5C 32.2612,139.212 29.9279,138.212 27.5,137.5C 26.4154,135.413 24.7488,134.08 22.5,133.5C 19.3164,129.392 18.983,124.725 21.5,119.5C 23.016,116.467 25.016,113.8 27.5,111.5C 29.5311,110.461 30.8645,108.795 31.5,106.5C 32.9063,106.027 33.573,105.027 33.5,103.5C 34.5,101.833 35.8333,100.5 37.5,99.5C 39.2624,98.7377 40.2624,97.4044 40.5,95.5C 42.878,93.448 45.2113,91.448 47.5,89.5C 49.8003,91.984 52.4669,93.984 55.5,95.5C 56.5,96.8333 57.5,98.1667 58.5,99.5C 58.8276,102.172 60.3276,103.839 63,104.5C 63.3333,106.167 63.6667,107.833 64,109.5C 66.3806,108.565 68.8806,108.232 71.5,108.5C 71.7886,105.351 71.2886,102.351 70,99.5C 69.6667,100.167 69.3333,100.833 69,101.5C 68.8784,99.563 68.045,98.2297 66.5,97.5C 65.6295,94.997 64.9628,92.3303 64.5,89.5C 64.5782,82.485 64.9115,75.485 65.5,68.5C 67.146,65.3458 68.4794,62.0124 69.5,58.5C 70.9063,58.0269 71.573,57.0269 71.5,55.5C 73.9118,55.3059 74.9118,53.9726 74.5,51.5C 75.5,51.5 76.5,51.5 77.5,51.5C 77.8258,49.3393 78.8258,47.5059 80.5,46C 81.9506,46.2626 83.2839,46.0959 84.5,45.5C 84.1667,44.8333 83.8333,44.1667 83.5,43.5C 84.4671,41.2099 85.8004,39.2099 87.5,37.5C 87.5,36.1667 88.1667,35.5 89.5,35.5C 91.8525,34.6597 93.8525,33.3264 95.5,31.5C 99.3677,29.864 103.368,28.5307 107.5,27.5 Z"/></g>
<g><path style="opacity:1" fill="#ecfc92" d="M 95.5,31.5 C 93.8525,33.3264 91.8525,34.6597 89.5,35.5C 90.8021,33.1782 92.8021,31.8449 95.5,31.5 Z"/></g>
<g><path style="opacity:1" fill="#f2febe" d="M 148.5,33.5 C 150.027,33.427 151.027,34.0937 151.5,35.5C 149.973,35.573 148.973,34.9063 148.5,33.5 Z"/></g>
<g><path style="opacity:1" fill="#cff839" d="M 154.5,37.5 C 156.001,38.7515 157.668,39.7515 159.5,40.5C 161.194,42.8606 163.194,44.8606 165.5,46.5C 162.216,46.4111 159.716,45.0778 158,42.5C 156.817,43.731 155.651,43.731 154.5,42.5C 155.535,40.8716 155.535,39.205 154.5,37.5 Z"/></g>
<g><path style="opacity:1" fill="#fafedc" d="M 159.5,40.5 C 161.489,41.4814 163.489,42.4814 165.5,43.5C 166.672,43.0814 167.672,42.4147 168.5,41.5C 169.754,43.2592 169.421,44.7592 167.5,46C 168.71,47.0391 169.71,48.2058 170.5,49.5C 168.589,48.925 166.922,47.925 165.5,46.5C 163.194,44.8606 161.194,42.8606 159.5,40.5 Z"/></g>
<g><path style="opacity:1" fill="#d1f742" d="M 87.5,37.5 C 85.8004,39.2099 84.4671,41.2099 83.5,43.5C 83.8333,44.1667 84.1667,44.8333 84.5,45.5C 83.2839,46.0959 81.9506,46.2626 80.5,46C 78.8258,47.5059 77.8258,49.3393 77.5,51.5C 76.5,51.5 75.5,51.5 74.5,51.5C 74.9118,53.9726 73.9118,55.3059 71.5,55.5C 71.9752,53.2163 72.9752,51.2163 74.5,49.5C 77.1479,47.1804 79.4812,44.5138 81.5,41.5C 83.2459,39.7484 85.2459,38.4151 87.5,37.5 Z"/></g>
<g><path style="opacity:1" fill="#fbfecb" d="M 81.5,41.5 C 79.4812,44.5138 77.1479,47.1804 74.5,49.5C 74.954,46.8602 76.1207,44.5268 78,42.5C 79.0113,41.6634 80.1779,41.33 81.5,41.5 Z"/></g>
<g><path style="opacity:1" fill="#faffc3" d="M 170.5,49.5 C 172.749,50.0798 174.415,51.4131 175.5,53.5C 173.251,52.9202 171.585,51.5869 170.5,49.5 Z"/></g>
<g><path style="opacity:1" fill="#d0f637" d="M 165.5,46.5 C 166.922,47.925 168.589,48.925 170.5,49.5C 171.585,51.5869 173.251,52.9202 175.5,53.5C 175.5,54.1667 175.833,54.5 176.5,54.5C 176.5,54.8333 176.5,55.1667 176.5,55.5C 170.192,55.8682 166.526,52.8682 165.5,46.5 Z"/></g>
<g><path style="opacity:1" fill="#f7ffbe" d="M 176.5,55.5 C 176.5,55.1667 176.5,54.8333 176.5,54.5C 178.749,55.0798 180.415,56.4131 181.5,58.5C 179.589,57.925 177.922,56.925 176.5,55.5 Z"/></g>
<g><path style="opacity:1" fill="#e1f987" d="M 71.5,55.5 C 71.573,57.0269 70.9063,58.0269 69.5,58.5C 69.427,56.9731 70.0937,55.9731 71.5,55.5 Z"/></g>
<g><path style="opacity:1" fill="#fcfee9" d="M 68.5,58.5 C 66.7084,61.5459 65.7084,64.8793 65.5,68.5C 64.2318,70.9052 63.5651,73.5718 63.5,76.5C 63.1667,76.5 62.8333,76.5 62.5,76.5C 62.4328,69.4393 63.9328,62.7727 67,56.5C 67.2784,57.4158 67.7784,58.0825 68.5,58.5 Z"/></g>
<g><path style="opacity:1" fill="#fcffe0" d="M 190.5,65.5 C 188.938,65.2671 187.605,64.6005 186.5,63.5C 185.694,62.2719 184.694,61.2719 183.5,60.5C 186.179,60.3274 188.513,59.3274 190.5,57.5C 191.188,59.7177 190.188,61.2177 187.5,62C 188.71,63.0391 189.71,64.2058 190.5,65.5 Z"/></g>
<g><path style="opacity:1" fill="#e4fb85" d="M 68.5,58.5 C 68.8333,58.5 69.1667,58.5 69.5,58.5C 68.4794,62.0124 67.146,65.3458 65.5,68.5C 65.7084,64.8793 66.7084,61.5459 68.5,58.5 Z"/></g>
<g><path style="opacity:1" fill="#d3f647" d="M 186.5,63.5 C 187.605,64.6005 188.938,65.2671 190.5,65.5C 193.167,68.1667 195.833,70.8333 198.5,73.5C 194.814,71.7693 191.148,69.936 187.5,68C 186.62,66.6439 186.286,65.1439 186.5,63.5 Z"/></g>
<g><path style="opacity:1" fill="#f9fed6" d="M 199.5,73.5 C 201.679,73.84 203.512,74.84 205,76.5C 205.414,76.0426 205.914,75.7093 206.5,75.5C 206.788,76.8605 207.121,78.1938 207.5,79.5C 204.545,77.8777 201.878,75.8777 199.5,73.5 Z"/></g>
<g><path style="opacity:1" fill="#f8fecb" d="M 207.5,79.5 C 208.833,79.5 210.167,79.5 211.5,79.5C 211.615,81.9468 212.615,83.9468 214.5,85.5C 211.527,84.1897 209.193,82.1897 207.5,79.5 Z"/></g>
<g><path style="opacity:1" fill="#cff63b" d="M 127.5,83.5 C 120.933,81.3975 114.266,81.0642 107.5,82.5C 107.611,81.8826 107.944,81.3826 108.5,81C 114.5,80.3333 120.5,80.3333 126.5,81C 127.252,81.6708 127.586,82.5041 127.5,83.5 Z"/></g>
<g><path style="opacity:1" fill="#d6f754" d="M 65.5,68.5 C 64.9115,75.485 64.5782,82.485 64.5,89.5C 63.5151,85.3656 63.1818,81.0323 63.5,76.5C 63.5651,73.5718 64.2318,70.9052 65.5,68.5 Z"/></g>
<g><path style="opacity:1" fill="#fafedd" d="M 127.5,83.5 C 127.5,83.8333 127.5,84.1667 127.5,84.5C 124.116,84.3396 120.783,84.673 117.5,85.5C 116.833,85.3333 116.167,85.1667 115.5,85C 120.579,83.459 120.579,82.6256 115.5,82.5C 112.31,83.6554 108.977,84.3221 105.5,84.5C 106.167,83.8333 106.833,83.1667 107.5,82.5C 114.266,81.0642 120.933,81.3975 127.5,83.5 Z"/></g>
<g><path style="opacity:1" fill="#d2f646" d="M 127.5,84.5 C 127.5,84.1667 127.5,83.8333 127.5,83.5C 131.661,84.4195 135.328,86.0861 138.5,88.5C 138.5,89.5 138.5,90.5 138.5,91.5C 135.098,88.7673 131.431,86.434 127.5,84.5 Z"/></g>
<g><path style="opacity:1" fill="#fcfed1" d="M 47.5,89.5 C 51.5895,89.5881 54.2562,91.5881 55.5,95.5C 52.4669,93.984 49.8003,91.984 47.5,89.5 Z"/></g>
<g><path style="opacity:1" fill="#f8fecb" d="M 62.5,76.5 C 62.8333,76.5 63.1667,76.5 63.5,76.5C 63.1818,81.0323 63.5151,85.3656 64.5,89.5C 64.9628,92.3303 65.6295,94.997 66.5,97.5C 71.0454,108.168 69.3787,109.168 61.5,100.5C 63.2385,101.434 64.9052,101.434 66.5,100.5C 65.2393,98.5466 64.0726,96.5466 63,94.5C 62.5005,88.5092 62.3338,82.5092 62.5,76.5 Z"/></g>
<g><path style="opacity:1" fill="#e6fb98" d="M 47.5,89.5 C 45.2113,91.448 42.878,93.448 40.5,95.5C 41.3891,93.264 42.7224,91.264 44.5,89.5C 45.6136,88.2241 46.6136,88.2241 47.5,89.5 Z"/></g>
<g><path style="opacity:1" fill="#fcfee8" d="M 127.5,84.5 C 131.431,86.434 135.098,88.7673 138.5,91.5C 139.167,92.5 139.833,93.5 140.5,94.5C 138.906,94.0805 137.406,93.4138 136,92.5C 133.651,93.9765 131.484,93.8098 129.5,92C 133.575,89.9283 133.242,88.4283 128.5,87.5C 127.614,86.675 127.281,85.675 127.5,84.5 Z"/></g>
<g><path style="opacity:1" fill="#d5f848" d="M 138.5,91.5 C 142.241,90.5985 144.241,91.9319 144.5,95.5C 145.5,95.5 146.5,95.5 147.5,95.5C 147.392,97.5138 148.058,99.1805 149.5,100.5C 146.518,98.5258 143.518,96.5258 140.5,94.5C 139.833,93.5 139.167,92.5 138.5,91.5 Z"/></g>
<g><path style="opacity:1" fill="#f8fecb" d="M 214.5,85.5 C 218.361,86.8488 222.027,88.6821 225.5,91C 228.336,94.6668 231.336,98.1668 234.5,101.5C 232.938,101.267 231.605,100.6 230.5,99.5C 229.5,97.8333 228.167,96.5 226.5,95.5C 222.202,92.5367 218.202,89.2034 214.5,85.5 Z"/></g>
<g><path style="opacity:1" fill="#d3f64c" d="M 96.5,91.5 C 95.2235,93.95 93.7235,96.2833 92,98.5C 91.51,99.7932 91.3433,101.127 91.5,102.5C 90.5184,105.962 90.185,109.629 90.5,113.5C 89.3493,108.35 89.1826,103.016 90,97.5C 90.2556,93.2604 92.4223,91.2604 96.5,91.5 Z"/></g>
<g><path style="opacity:1" fill="#f9ffc7" d="M 55.5,95.5 C 58.0892,96.4194 60.0892,98.086 61.5,100.5C 60.391,100.443 59.391,100.11 58.5,99.5C 57.5,98.1667 56.5,96.8333 55.5,95.5 Z"/></g>
<g><path style="opacity:1" fill="#e4fc85" d="M 40.5,95.5 C 40.2624,97.4044 39.2624,98.7377 37.5,99.5C 37.7376,97.5956 38.7376,96.2623 40.5,95.5 Z"/></g>
<g><path style="opacity:1" fill="#fbfed6" d="M 99.5,89.5 C 99.5,90.8333 99.5,92.1667 99.5,93.5C 98.325,93.281 97.325,93.6143 96.5,94.5C 94.9526,97.3178 93.2859,99.9844 91.5,102.5C 91.3433,101.127 91.51,99.7932 92,98.5C 93.7235,96.2833 95.2235,93.95 96.5,91.5C 97.2223,90.4489 98.2223,89.7822 99.5,89.5 Z"/></g>
<g><path style="opacity:1" fill="#d2f556" d="M 226.5,95.5 C 228.167,96.5 229.5,97.8333 230.5,99.5C 227.858,99.5123 226.525,98.179 226.5,95.5 Z"/></g>
<g><path style="opacity:1" fill="#eaff9e" d="M 33.5,103.5 C 33.573,105.027 32.9063,106.027 31.5,106.5C 31.427,104.973 32.0937,103.973 33.5,103.5 Z"/></g>
<g><path style="opacity:1" fill="#cff732" d="M 66.5,97.5 C 68.045,98.2297 68.8784,99.563 69,101.5C 69.3333,100.833 69.6667,100.167 70,99.5C 71.2886,102.351 71.7886,105.351 71.5,108.5C 68.8806,108.232 66.3806,108.565 64,109.5C 63.6667,107.833 63.3333,106.167 63,104.5C 60.3276,103.839 58.8276,102.172 58.5,99.5C 59.391,100.11 60.391,100.443 61.5,100.5C 69.3787,109.168 71.0454,108.168 66.5,97.5 Z"/></g>
<g><path style="opacity:1" fill="#e6fa7d" d="M 31.5,106.5 C 30.8645,108.795 29.5311,110.461 27.5,111.5C 28.1237,109.246 29.457,107.579 31.5,106.5 Z"/></g>
<g><path style="opacity:1" fill="#f0f7bd" d="M 234.5,101.5 C 240.652,103.125 242.319,106.458 239.5,111.5C 239.662,109.473 239.495,107.473 239,105.5C 237.333,104.267 235.833,102.933 234.5,101.5 Z"/></g>
<g><path style="opacity:1" fill="#fcfedb" d="M 152.5,103.5 C 157.486,107.155 162.153,111.155 166.5,115.5C 161.555,111.73 156.221,108.564 150.5,106C 151.756,105.583 152.423,104.75 152.5,103.5 Z"/></g>
<g><path style="opacity:1" fill="#fbfed8" d="M 91.5,102.5 C 92.254,107.463 92.5874,112.463 92.5,117.5C 91.6554,116.329 90.9887,114.995 90.5,113.5C 90.185,109.629 90.5184,105.962 91.5,102.5 Z"/></g>
<g><path style="opacity:1" fill="#e9f992" d="M 239.5,111.5 C 238.5,113.167 237.167,114.5 235.5,115.5C 235.833,113.167 237.167,111.833 239.5,111.5 Z"/></g>
<g><path style="opacity:1" fill="#d5f64a" d="M 167.5,115.5 C 169.812,116.32 172.146,117.153 174.5,118C 175.337,119.011 175.67,120.178 175.5,121.5C 172.467,119.984 169.8,117.984 167.5,115.5 Z"/></g>
<g><path style="opacity:1" fill="#eefba4" d="M 235.5,115.5 C 234.527,118.135 232.86,120.135 230.5,121.5C 231.419,118.911 233.086,116.911 235.5,115.5 Z"/></g>
<g><path style="opacity:1" fill="#dff770" d="M 175.5,121.5 C 178.089,122.419 180.089,124.086 181.5,126.5C 181.167,126.5 180.833,126.5 180.5,126.5C 178.5,125.167 176.833,123.5 175.5,121.5 Z"/></g>
<g><path style="opacity:1" fill="#e9fb95" d="M 230.5,121.5 C 230.262,123.404 229.262,124.738 227.5,125.5C 227.738,123.596 228.738,122.262 230.5,121.5 Z"/></g>
<g><path style="opacity:1" fill="#d1f542" d="M 21.5,119.5 C 18.983,124.725 19.3164,129.392 22.5,133.5C 20.9731,133.573 19.9731,132.906 19.5,131.5C 19.0269,130.094 18.0269,129.427 16.5,129.5C 15.3788,125.071 17.0455,121.737 21.5,119.5 Z"/></g>
<g><path style="opacity:1" fill="#eefca8" d="M 227.5,125.5 C 225.792,129.572 223.126,132.905 219.5,135.5C 221.688,131.793 224.355,128.46 227.5,125.5 Z"/></g>
<g><path style="opacity:1" fill="#f9fecf" d="M 95.5,123.5 C 99.9735,124.999 102.973,127.999 104.5,132.5C 102.544,130.886 100.544,129.219 98.5,127.5C 96.7986,126.789 95.7986,125.455 95.5,123.5 Z"/></g>
<g><path style="opacity:1" fill="#e3fb88" d="M 16.5,129.5 C 18.0269,129.427 19.0269,130.094 19.5,131.5C 17.9731,131.573 16.9731,130.906 16.5,129.5 Z"/></g>
<g><path style="opacity:1" fill="#fafed6" d="M 180.5,126.5 C 180.833,126.5 181.167,126.5 181.5,126.5C 182.795,127.488 184.128,128.488 185.5,129.5C 186.585,131.587 188.251,132.92 190.5,133.5C 190.833,134.5 191.5,135.167 192.5,135.5C 192.5,135.833 192.5,136.167 192.5,136.5C 189.232,136.366 186.898,134.866 185.5,132C 182.348,131.536 180.682,129.703 180.5,126.5 Z"/></g>
<g><path style="opacity:1" fill="#d7f664" d="M 185.5,129.5 C 187.749,130.08 189.415,131.413 190.5,133.5C 188.251,132.92 186.585,131.587 185.5,129.5 Z"/></g>
<g><path style="opacity:1" fill="#d4f356" d="M 98.5,127.5 C 100.544,129.219 102.544,130.886 104.5,132.5C 104.833,133.167 105.167,133.833 105.5,134.5C 104.178,134.67 103.011,134.337 102,133.5C 100.179,131.854 99.0128,129.854 98.5,127.5 Z"/></g>
<g><path style="opacity:1" fill="#d8f669" d="M 22.5,133.5 C 24.7488,134.08 26.4154,135.413 27.5,137.5C 25.9382,137.267 24.6049,136.6 23.5,135.5C 23.1667,134.833 22.8333,134.167 22.5,133.5 Z"/></g>
<g><path style="opacity:1" fill="#f4feb1" d="M 104.5,132.5 C 106.404,132.738 107.738,133.738 108.5,135.5C 107.391,135.443 106.391,135.11 105.5,134.5C 105.167,133.833 104.833,133.167 104.5,132.5 Z"/></g>
<g><path style="opacity:1" fill="#f9fec6" d="M 108.5,135.5 C 110.697,136.845 113.03,138.011 115.5,139C 116.823,139.816 117.489,140.983 117.5,142.5C 116.5,141.833 115.5,141.167 114.5,140.5C 111.911,139.581 109.911,137.914 108.5,135.5 Z"/></g>
<g><path style="opacity:1" fill="#e1fa75" d="M 192.5,136.5 C 192.5,136.167 192.5,135.833 192.5,135.5C 194.749,136.08 196.415,137.413 197.5,139.5C 195.589,138.925 193.922,137.925 192.5,136.5 Z"/></g>
<g><path style="opacity:1" fill="#f0fdae" d="M 219.5,135.5 C 219.573,137.027 218.906,138.027 217.5,138.5C 217.427,136.973 218.094,135.973 219.5,135.5 Z"/></g>
<g><path style="opacity:1" fill="#fcfee8" d="M 23.5,135.5 C 24.6049,136.6 25.9382,137.267 27.5,137.5C 29.4133,139.291 31.08,141.291 32.5,143.5C 28.7258,142.641 25.0592,141.641 21.5,140.5C 21.8308,138.678 22.4975,137.011 23.5,135.5 Z"/></g>
<g><path style="opacity:1" fill="#e7f983" d="M 114.5,140.5 C 115.5,141.167 116.5,141.833 117.5,142.5C 117.5,142.833 117.5,143.167 117.5,143.5C 115.5,143.5 114.5,142.5 114.5,140.5 Z"/></g>
<g><path style="opacity:1" fill="#dffc6f" d="M 197.5,139.5 C 199.749,140.08 201.415,141.413 202.5,143.5C 202.167,143.5 201.833,143.5 201.5,143.5C 199.833,142.5 198.5,141.167 197.5,139.5 Z"/></g>
<g><path style="opacity:1" fill="#d2f539" d="M 215.5,139.5 C 215.672,140.492 215.338,141.158 214.5,141.5C 213.872,143.662 212.539,145.328 210.5,146.5C 207.687,146.975 205.687,145.975 204.5,143.5C 207.167,143.5 209.833,143.5 212.5,143.5C 212.5,142.167 212.5,140.833 212.5,139.5C 213.5,139.5 214.5,139.5 215.5,139.5 Z"/></g>
<g><path style="opacity:1" fill="#d6f654" d="M 27.5,137.5 C 29.9279,138.212 32.2612,139.212 34.5,140.5C 35.7861,144.465 38.4528,146.465 42.5,146.5C 42.3915,148.514 43.0582,150.18 44.5,151.5C 44.1667,151.5 43.8333,151.5 43.5,151.5C 39.981,148.579 36.3143,145.913 32.5,143.5C 31.08,141.291 29.4133,139.291 27.5,137.5 Z"/></g>
<g><path style="opacity:1" fill="#fdfed8" d="M 214.5,141.5 C 215.275,145.182 213.941,147.682 210.5,149C 207.843,149.175 205.176,149.008 202.5,148.5C 202.371,146.784 202.038,145.117 201.5,143.5C 201.833,143.5 202.167,143.5 202.5,143.5C 203.871,145.867 205.871,147.533 208.5,148.5C 209.522,148.145 210.189,147.478 210.5,146.5C 212.539,145.328 213.872,143.662 214.5,141.5 Z"/></g>
<g><path style="opacity:1" fill="#e1f575" d="M 202.5,143.5 C 203.167,143.5 203.833,143.5 204.5,143.5C 205.687,145.975 207.687,146.975 210.5,146.5C 210.189,147.478 209.522,148.145 208.5,148.5C 205.871,147.533 203.871,145.867 202.5,143.5 Z"/></g>
<g><path style="opacity:1" fill="#faffd6" d="M 125.5,149.5 C 129.615,149.62 132.281,151.62 133.5,155.5C 130.467,153.984 127.8,151.984 125.5,149.5 Z"/></g>
<g><path style="opacity:1" fill="#f7ffbf" d="M 43.5,151.5 C 43.8333,151.5 44.1667,151.5 44.5,151.5C 44.9731,152.906 45.9731,153.573 47.5,153.5C 48.1667,154.5 48.8333,155.5 49.5,156.5C 46.6385,155.753 44.6385,154.086 43.5,151.5 Z"/></g>
<g><path style="opacity:1" fill="#d0f73d" d="M 47.5,153.5 C 49.8273,153.247 51.8273,153.914 53.5,155.5C 54.086,155.291 54.586,154.957 55,154.5C 55.5276,157.657 57.0276,160.657 59.5,163.5C 55.6319,161.971 52.2985,159.637 49.5,156.5C 48.8333,155.5 48.1667,154.5 47.5,153.5 Z"/></g>
<g><path style="opacity:1" fill="#fafeca" d="M 133.5,155.5 C 135.749,156.08 137.415,157.413 138.5,159.5C 136.251,158.92 134.585,157.587 133.5,155.5 Z"/></g>
<g><path style="opacity:1" fill="#fbfedc" d="M 138.5,159.5 C 140.544,160.031 142.211,161.198 143.5,163C 145.134,163.494 146.801,163.66 148.5,163.5C 148.433,164.959 148.766,166.292 149.5,167.5C 148.833,167.5 148.167,167.5 147.5,167.5C 146.5,166.833 145.5,166.167 144.5,165.5C 142.167,163.833 140.167,161.833 138.5,159.5 Z"/></g>
<g><path style="opacity:1" fill="#d2f648" d="M 59.5,163.5 C 65.1072,166.229 70.4405,169.395 75.5,173C 74.7476,173.671 74.4142,174.504 74.5,175.5C 74.1667,175.5 73.8333,175.5 73.5,175.5C 68.5137,171.845 63.847,167.845 59.5,163.5 Z"/></g>
<g><path style="opacity:1" fill="#f1feaf" d="M 147.5,167.5 C 148.167,167.5 148.833,167.5 149.5,167.5C 150.5,168.833 151.5,170.167 152.5,171.5C 150.251,170.92 148.585,169.587 147.5,167.5 Z"/></g>
<g><path style="opacity:1" fill="#cff633" d="M 144.5,165.5 C 145.5,166.167 146.5,166.833 147.5,167.5C 148.585,169.587 150.251,170.92 152.5,171.5C 154.89,173.893 157.557,175.893 160.5,177.5C 161.5,178.833 162.5,180.167 163.5,181.5C 158.298,177.731 152.631,174.731 146.5,172.5C 146.833,171.833 147.167,171.167 147.5,170.5C 145.722,169.274 144.722,167.607 144.5,165.5 Z"/></g>
<g><path style="opacity:1" fill="#faffc7" d="M 160.5,177.5 C 162.749,178.08 164.415,179.413 165.5,181.5C 165.167,181.5 164.833,181.5 164.5,181.5C 164.167,181.5 163.833,181.5 163.5,181.5C 162.5,180.167 161.5,178.833 160.5,177.5 Z"/></g>
<g><path style="opacity:1" fill="#f8fec3" d="M 73.5,175.5 C 73.8333,175.5 74.1667,175.5 74.5,175.5C 77.1667,178.167 79.8333,180.833 82.5,183.5C 78.436,181.978 75.436,179.311 73.5,175.5 Z"/></g>
<g><path style="opacity:1" fill="#f7ffc4" d="M 165.5,181.5 C 168.427,182.757 170.761,184.757 172.5,187.5C 169.573,186.243 167.239,184.243 165.5,181.5 Z"/></g>
<g><path style="opacity:1" fill="#d4f74b" d="M 83.5,183.5 C 85.8901,183.913 88.2235,184.579 90.5,185.5C 91.2458,186.736 91.5792,188.07 91.5,189.5C 91.1667,189.5 90.8333,189.5 90.5,189.5C 87.9401,187.727 85.6068,185.727 83.5,183.5 Z"/></g>
<g><path style="opacity:1" fill="#d0f640" d="M 164.5,181.5 C 164.833,181.5 165.167,181.5 165.5,181.5C 167.239,184.243 169.573,186.243 172.5,187.5C 173.6,188.605 174.267,189.938 174.5,191.5C 172.5,193.5 170.5,195.5 168.5,197.5C 168.546,194.908 169.546,192.741 171.5,191C 170.968,188.98 169.635,188.147 167.5,188.5C 166.523,186.179 165.523,183.846 164.5,181.5 Z"/></g>
<g><path style="opacity:1" fill="#fafed3" d="M 174.5,191.5 C 173.648,195.359 171.314,198.026 167.5,199.5C 167.833,198.833 168.167,198.167 168.5,197.5C 170.5,195.5 172.5,193.5 174.5,191.5 Z"/></g>
<g><path style="opacity:1" fill="#fcfee8" d="M 90.5,189.5 C 90.8333,189.5 91.1667,189.5 91.5,189.5C 94.8333,192.5 98.1667,195.5 101.5,198.5C 94.3603,199.459 90.6937,196.459 90.5,189.5 Z"/></g>
<g><path style="opacity:1" fill="#f1fea7" d="M 167.5,199.5 C 167.573,201.027 166.906,202.027 165.5,202.5C 165.427,200.973 166.094,199.973 167.5,199.5 Z"/></g>
<g><path style="opacity:1" fill="#fbfee1" d="M 165.5,202.5 C 164.863,205.456 164.363,208.456 164,211.5C 162.039,213.58 159.872,213.914 157.5,212.5C 159.413,208.584 162.08,205.251 165.5,202.5 Z"/></g>
<g><path style="opacity:1" fill="#f4ffc1" d="M 157.5,212.5 C 156.92,214.749 155.587,216.415 153.5,217.5C 154.08,215.251 155.413,213.585 157.5,212.5 Z"/></g>
<g><path style="opacity:1" fill="#d3f74b" d="M 123.5,215.5 C 126.005,217.715 129.005,218.881 132.5,219C 133.38,220.356 133.714,221.856 133.5,223.5C 131.517,222.529 129.517,221.529 127.5,220.5C 126.167,218.833 124.833,217.167 123.5,215.5 Z"/></g>
<g><path style="opacity:1" fill="#fafed6" d="M 127.5,220.5 C 129.517,221.529 131.517,222.529 133.5,223.5C 134.911,225.914 136.911,227.581 139.5,228.5C 140.568,229.434 141.901,229.768 143.5,229.5C 142.796,231.344 141.463,231.844 139.5,231C 136.904,229.412 134.571,227.412 132.5,225C 131.101,224.405 129.768,224.572 128.5,225.5C 128.611,223.891 128.278,222.225 127.5,220.5 Z"/></g>
<g><path style="opacity:1" fill="#daf762" d="M 133.5,223.5 C 136.407,224.073 138.407,225.739 139.5,228.5C 136.911,227.581 134.911,225.914 133.5,223.5 Z"/></g>
<g><path style="opacity:1" fill="#f7fead" d="M 147.5,223.5 C 147.5,224.833 147.5,226.167 147.5,227.5C 146.167,228.167 144.833,228.833 143.5,229.5C 144.546,227.264 145.879,225.264 147.5,223.5 Z"/></g>
<g><path style="opacity:1" fill="#fbfedf" d="M 153.5,217.5 C 153.143,219.589 152.477,221.589 151.5,223.5C 149.603,224.368 148.27,225.701 147.5,227.5C 147.5,226.167 147.5,224.833 147.5,223.5C 149.167,221.167 151.167,219.167 153.5,217.5 Z"/></g>
</svg>
