<svg xmlns="http://www.w3.org/2000/svg" width="22" height="20" viewBox="0 0 22 20" fill="none">
<path d="M15.4391 15.8752C14.4266 17.1252 13.4391 18.3502 12.3516 19.6877C8.38906 16.4627 4.42656 13.2502 0.414062 10.0002C1.41406 8.77519 2.37656 7.60019 3.35156 6.38769C4.03906 6.93769 4.68906 7.47519 5.52656 8.13769C5.56406 8.17519 5.62656 8.12519 5.60156 8.07519C5.41406 7.63769 5.27656 7.35019 5.17656 7.06269C4.30156 4.53769 6.31406 1.58769 8.50156 0.787687C10.7141 0.000186861 12.5516 0.750187 14.2516 2.12519C16.6766 4.08769 19.0891 6.06269 21.6516 8.15019C20.6641 9.40019 19.6766 10.6377 18.6141 11.9752C17.8141 11.3252 17.0391 10.7127 16.2641 10.0877C14.6766 8.80019 13.1266 7.46269 11.4891 6.23769C10.2016 5.27519 8.83906 5.51269 8.03906 6.65019C7.12656 7.96269 7.41406 9.47519 8.68906 10.4502C10.7891 12.0752 12.8391 13.7627 14.9016 15.4252C15.0391 15.5502 15.1766 15.6627 15.4391 15.8752Z" fill="#CBFC01"/>
</svg>