<svg xmlns="http://www.w3.org/2000/svg" width="21" height="22" viewBox="0 0 21 22" fill="none">
    <path
        d="M15.4099 9.9782H4.47656V8.5382H13.2126L10.3539 5.51953H12.3379L15.7619 9.1462C16.0712 9.45553 15.8472 9.9782 15.4099 9.9782Z"
        fill="black" />
    <path
        d="M15.9089 12.8482H7.16222L10.0209 15.8669H8.03689L4.61289 12.2402C4.31422 11.9202 4.53822 11.4082 4.97555 11.4082H15.9089V12.8482Z"
        fill="black" />
    <path
        d="M-0.164062 9.62465H0.987938C1.01994 9.35798 1.0626 9.09132 1.11594 8.82465C1.23327 8.22732 1.4146 7.65132 1.65994 7.08598C1.8946 6.53132 2.1826 6.00865 2.51327 5.50732C2.84394 5.01665 3.22794 4.55798 3.64394 4.13132C4.05994 3.71532 4.52927 3.33132 5.01994 3.00065C5.5106 2.66998 6.04394 2.38198 6.5986 2.14732C7.15327 1.91265 7.73994 1.73132 8.33727 1.60332C8.60394 1.54998 8.8706 1.50732 9.13727 1.47532V0.333984C4.2306 0.835318 0.337271 4.72865 -0.164062 9.62465ZM19.3986 11.7687C19.3666 12.0353 19.3239 12.302 19.2706 12.5687C19.1533 13.166 18.9719 13.742 18.7266 14.3073C18.4919 14.862 18.2039 15.3846 17.8733 15.886C17.5426 16.3766 17.1586 16.8353 16.7426 17.262C16.3266 17.678 15.8573 18.062 15.3666 18.3926C14.8759 18.7233 14.3426 19.0113 13.7879 19.246C13.2333 19.4806 12.6466 19.662 12.0493 19.79C11.7826 19.8433 11.5159 19.886 11.2493 19.918V21.07C16.1453 20.5686 20.0279 16.6753 20.5293 11.79H19.3986V11.7687ZM6.58794 19.2247C6.03327 18.99 5.5106 18.702 5.00927 18.3713C4.5186 18.0407 4.05994 17.6567 3.63327 17.2407C3.21727 16.8246 2.83327 16.3553 2.5026 15.8647C2.17194 15.374 1.88394 14.8406 1.64927 14.286C1.4146 13.7313 1.23327 13.1446 1.10527 12.5473C1.05194 12.2807 1.00927 12.014 0.97727 11.7473H-0.164062C0.337271 16.6433 4.2306 20.526 9.11594 21.0273V19.8753C8.84927 19.8433 8.5826 19.8006 8.31594 19.7473C7.72927 19.6513 7.1426 19.47 6.58794 19.2247ZM11.2599 0.333984V1.48598C11.5266 1.51798 11.7933 1.56065 12.0599 1.61398C12.6573 1.73132 13.2333 1.91265 13.7986 2.15798C14.3533 2.39265 14.8759 2.68065 15.3773 3.01132C15.8679 3.34198 16.3266 3.72598 16.7533 4.14198C17.1693 4.55798 17.5533 5.02732 17.8839 5.51798C18.2146 6.00865 18.5026 6.54198 18.7373 7.09665C18.9719 7.65132 19.1533 8.23798 19.2813 8.83532C19.3346 9.10198 19.3773 9.36865 19.4093 9.63532H20.5613C20.0493 4.72865 16.1559 0.835318 11.2599 0.333984Z"
        fill="black" />
</svg>