<svg width="29" height="30" viewBox="0 0 29 30" fill="none" xmlns="http://www.w3.org/2000/svg">
<g clip-path="url(#clip0_4171_57284)">
<path fill-rule="evenodd" clip-rule="evenodd" d="M20.7695 15.4551C17.1354 15.4551 14.1895 18.401 14.1895 22.0351C14.1895 25.6691 17.1354 28.6151 20.7695 28.6151C24.4035 28.6151 27.3495 25.6691 27.3495 22.0351C27.3495 18.401 24.4035 15.4551 20.7695 15.4551ZM13.1895 22.0351C13.1895 17.8488 16.5831 14.4551 20.7695 14.4551C24.9558 14.4551 28.3495 17.8488 28.3495 22.0351C28.3495 26.2214 24.9558 29.6151 20.7695 29.6151C16.5831 29.6151 13.1895 26.2214 13.1895 22.0351Z" fill="#EBEBEB"/>
<g clip-path="url(#clip1_4171_57284)">
<path d="M21.999 24.9041H21.499V21.2948C21.499 21.0097 21.2751 20.7791 20.999 20.7791H19.999C19.7229 20.7791 19.499 21.0097 19.499 21.2948C19.499 21.5798 19.7229 21.7959 19.999 21.7959H20.499V24.8896H19.999C19.7229 24.8896 19.499 25.1202 19.499 25.4053C19.499 25.6903 19.7229 25.9209 19.999 25.9209H21.999C22.2751 25.9209 22.499 25.6903 22.499 25.4053C22.499 25.1202 22.2756 24.9041 21.999 24.9041ZM20.999 19.7479C21.4132 19.7479 21.749 19.4016 21.749 18.9744C21.749 18.5473 21.4131 18.2012 20.999 18.2012C20.585 18.2012 20.249 18.5474 20.249 18.9746C20.249 19.4018 20.5848 19.7479 20.999 19.7479Z" fill="#EBEBEB"/>
</g>
<g clip-path="url(#clip2_4171_57284)">
<path d="M23 13V7C23 6.73478 22.8946 6.48043 22.7071 6.29289C22.5196 6.10536 22.2652 6 22 6H18C17.7348 6 17.4804 6.10536 17.2929 6.29289C17.1054 6.48043 17 6.73478 17 7V13.5M15 14.5V2C15 1.73478 14.8946 1.48043 14.7071 1.29289C14.5196 1.10536 14.2652 1 14 1H10C9.73478 1 9.48043 1.10536 9.29289 1.29289C9.10536 1.48043 9 1.73478 9 2V22C9 22.2652 9.10536 22.5196 9.29289 22.7071C9.48043 22.8946 9.73478 23 10 23H11.5M7 13V22C7 22.2652 6.89464 22.5196 6.70711 22.7071C6.51957 22.8946 6.26522 23 6 23H2C1.73478 23 1.48043 22.8946 1.29289 22.7071C1.10536 22.5196 1 22.2652 1 22V13C1 12.7348 1.10536 12.4804 1.29289 12.2929C1.48043 12.1054 1.73478 12 2 12H6C6.26522 12 6.51957 12.1054 6.70711 12.2929C6.89464 12.4804 7 12.7348 7 13Z" stroke="#EBEBEB" stroke-linecap="round" stroke-linejoin="round"/>
</g>
</g>
<defs>
<clipPath id="clip0_4171_57284">
<rect width="27.75" height="29.23" fill="white" transform="translate(0.599609 0.384766)"/>
</clipPath>
<clipPath id="clip1_4171_57284">
<rect width="3" height="9" fill="white" transform="translate(19.499 17.6855)"/>
</clipPath>
<clipPath id="clip2_4171_57284">
<rect width="24" height="24" fill="white"/>
</clipPath>
</defs>
</svg>
