<svg width="44" height="44" viewBox="0 0 44 44" fill="none" xmlns="http://www.w3.org/2000/svg">
<path fill-rule="evenodd" clip-rule="evenodd" d="M20.0578 39.8835V44C9.41015 43.0718 0.928125 34.5898 0 23.9421H4.11641C5.01875 32.3253 11.6746 38.9812 20.0578 39.8835Z" fill="#00AEEF"/>
<path fill-rule="evenodd" clip-rule="evenodd" d="M44 23.9421C43.0718 34.5898 34.5898 43.0718 23.9421 44V39.8835C32.3253 38.9855 38.9855 32.3253 39.8835 23.9421H44Z" fill="#00AEEF"/>
<path fill-rule="evenodd" clip-rule="evenodd" d="M20.0578 0V4.11641C11.6746 5.01445 5.01445 11.6746 4.11641 20.0578H0C0.928125 9.41015 9.41015 0.928125 20.0578 0Z" fill="#00AEEF"/>
<path fill-rule="evenodd" clip-rule="evenodd" d="M44 20.0578H39.8835C38.9855 11.6746 32.3253 5.01445 23.9421 4.11641V0C34.5898 0.928125 43.0718 9.41015 44 20.0578Z" fill="#00AEEF"/>
<path d="M31.6677 12.7917L31.6635 17.8405V18.7171L31.6592 21.3511V22.2276L31.6549 24.8659V25.7425L31.6506 31.2253C31.6506 31.4659 31.4529 31.6636 31.208 31.6636L25.9443 31.6593H25.0635L22.4295 31.655H21.5486L18.9146 31.6507H18.0338L12.7701 31.6464C12.5252 31.6464 12.3275 31.4487 12.3275 31.2038L12.3318 25.7124V24.8358L12.3361 22.2019V21.3253L12.3404 18.687V17.8105L12.3447 12.7659C12.3447 12.521 12.5424 12.3276 12.7873 12.3276L18.051 12.3319H18.9318L21.5658 12.3362H22.4467L25.0806 12.3405H25.9572L31.2209 12.3448C31.4701 12.3534 31.6677 12.5511 31.6677 12.7917Z" fill="#1B70F0"/>
<path d="M21.6477 19.8129C21.218 19.366 20.625 19.1426 19.873 19.1426C19.1254 19.1426 18.5367 19.366 18.0984 19.8086C17.6645 20.2469 17.4496 20.8828 17.4496 21.7164L17.4453 25.025H18.0426V23.3105L21.6906 23.3148V25.0293H22.2965L22.3008 21.7207C22.3008 20.8871 22.0859 20.2512 21.6477 19.8129ZM21.6949 22.7777H18.0469V21.6605C18.0469 21.0074 18.2102 20.5262 18.5281 20.1953C18.8504 19.8645 19.2973 19.6969 19.873 19.6969C20.4488 19.6969 20.8957 19.8645 21.218 20.1996C21.5359 20.5262 21.6992 21.016 21.6992 21.6691V22.7777H21.6949Z" fill="white"/>
<path d="M25.3773 19.6797L25.373 24.4879L26.5504 24.4922V25.0293L23.5898 25.025V24.4879H24.7672L24.7715 19.6797H23.5941V19.1426L26.5547 19.1469V19.684L25.3773 19.6797Z" fill="white"/>
<path fill-rule="evenodd" clip-rule="evenodd" d="M13.1914 18.5625C13.1914 18.7988 12.998 18.9922 12.7617 18.9922H11.043C10.8066 18.9922 10.6133 18.8031 10.6133 18.5668V18.5625C10.6133 18.3262 10.8066 18.1328 11.043 18.1328H12.7617C12.998 18.1328 13.1914 18.3262 13.1914 18.5625Z" fill="url(#paint0_linear_389_2108)"/>
<path fill-rule="evenodd" clip-rule="evenodd" d="M14.0508 22.0001C14.0508 22.2364 13.8574 22.4255 13.6211 22.4298H12.332H11.043C10.8066 22.4298 10.6133 22.2364 10.6133 22.0044C10.6133 21.7681 10.8066 21.5747 11.043 21.5747H12.332H13.6211C13.8574 21.5747 14.0508 21.7638 14.0508 22.0001Z" fill="url(#paint1_linear_389_2108)"/>
<path fill-rule="evenodd" clip-rule="evenodd" d="M13.6211 25.4504C13.6125 25.6781 13.432 25.8586 13.2043 25.8672H12.3406H11.0473C10.8109 25.8672 10.6176 25.6824 10.6133 25.4461V25.4375C10.6133 25.2012 10.8066 25.0078 11.0473 25.0078H13.2043C13.4406 25.0164 13.6297 25.2141 13.6211 25.4504Z" fill="url(#paint2_linear_389_2108)"/>
<path fill-rule="evenodd" clip-rule="evenodd" d="M33.3867 25.4332V25.4375C33.3867 25.6738 33.1934 25.8672 32.957 25.8672H31.2383C31.002 25.8672 30.8086 25.6738 30.8086 25.4375C30.8086 25.2012 31.002 25.0078 31.2383 25.0078H32.957C33.1934 25.0078 33.3867 25.1969 33.3867 25.4332Z" fill="url(#paint3_linear_389_2108)"/>
<path fill-rule="evenodd" clip-rule="evenodd" d="M33.3867 22C33.3867 22.2363 33.1934 22.4297 32.957 22.4297H31.668H30.3789C30.1426 22.4297 29.9492 22.2363 29.9492 22C29.9492 21.7637 30.1426 21.5703 30.3789 21.5703H31.668H32.957C33.1934 21.5703 33.3867 21.7637 33.3867 22Z" fill="url(#paint4_linear_389_2108)"/>
<path fill-rule="evenodd" clip-rule="evenodd" d="M33.3867 18.5582C33.3867 18.7988 33.1934 18.9922 32.957 18.9922H31.668H30.8086C30.5723 18.9922 30.3789 18.7988 30.3789 18.5625C30.3789 18.3262 30.5723 18.1328 30.8086 18.1328H31.668H32.957C33.1934 18.1328 33.3867 18.3219 33.3867 18.5582Z" fill="url(#paint5_linear_389_2108)"/>
<path fill-rule="evenodd" clip-rule="evenodd" d="M18.9277 11.043V12.3277V13.6125C18.9363 13.8488 18.7473 14.0465 18.5109 14.0508C18.2746 14.0594 18.077 13.8746 18.0684 13.6383C18.0684 13.6297 18.0684 13.6211 18.0684 13.6125V12.3277V11.043C18.0684 10.8066 18.2617 10.6133 18.498 10.6133C18.7344 10.6133 18.9277 10.8066 18.9277 11.043Z" fill="url(#paint6_linear_389_2108)"/>
<path fill-rule="evenodd" clip-rule="evenodd" d="M22.4512 11.073C22.4512 11.073 22.4512 11.0772 22.4512 11.073V12.4608V13.1569C22.4512 13.4105 22.2578 13.621 22.0215 13.621C21.7852 13.621 21.5918 13.4147 21.5918 13.1569V11.073C21.5918 10.8194 21.7852 10.6089 22.0215 10.6089H22.0258C22.2578 10.6132 22.4512 10.8194 22.4512 11.073Z" fill="url(#paint7_linear_389_2108)"/>
<path fill-rule="evenodd" clip-rule="evenodd" d="M25.9316 11.0387V12.7488C25.9402 12.9852 25.7512 13.1828 25.5148 13.1871C25.2785 13.1957 25.0809 13.0109 25.0723 12.7746C25.0723 12.766 25.0723 12.7574 25.0723 12.7488V11.0387C25.0723 10.8023 25.2656 10.6133 25.502 10.6133C25.7383 10.6133 25.9316 10.8023 25.9316 11.0387Z" fill="url(#paint8_linear_389_2108)"/>
<path fill-rule="evenodd" clip-rule="evenodd" d="M18.9492 30.3789V31.668V32.957C18.9492 33.1934 18.7559 33.3867 18.5195 33.3867C18.2832 33.3867 18.0898 33.1934 18.0898 32.957V31.668V30.3789C18.0898 30.1426 18.2832 29.9492 18.5195 29.9492C18.7559 29.9492 18.9492 30.1426 18.9492 30.3789Z" fill="url(#paint9_linear_389_2108)"/>
<path fill-rule="evenodd" clip-rule="evenodd" d="M22.4727 30.8386V31.7624V32.914C22.4813 33.1675 22.2922 33.378 22.0559 33.3866C21.8195 33.3952 21.6219 33.1975 21.6133 32.9397C21.6133 32.9311 21.6133 32.9183 21.6133 32.9097V30.8343C21.6133 30.5808 21.8066 30.3745 22.043 30.3745H22.0473C22.2793 30.3788 22.4727 30.5851 22.4727 30.8386Z" fill="url(#paint10_linear_389_2108)"/>
<path fill-rule="evenodd" clip-rule="evenodd" d="M25.9102 31.2383V32.957C25.9102 33.1934 25.7168 33.3867 25.4805 33.3867C25.2441 33.3867 25.0508 33.1934 25.0508 32.957V31.2383C25.0508 31.002 25.2441 30.8086 25.4805 30.8086C25.7168 30.8086 25.9102 31.002 25.9102 31.2383Z" fill="url(#paint11_linear_389_2108)"/>
<defs>
<linearGradient id="paint0_linear_389_2108" x1="10.9398" y1="18.5625" x2="13.5039" y2="18.5625" gradientUnits="userSpaceOnUse">
<stop stop-color="#F0F7FF"/>
<stop offset="1" stop-color="#9ECBFF"/>
</linearGradient>
<linearGradient id="paint1_linear_389_2108" x1="10.9852" y1="22.0001" x2="14.4045" y2="22.0001" gradientUnits="userSpaceOnUse">
<stop stop-color="#F0F7FF"/>
<stop offset="1" stop-color="#9ECBFF"/>
</linearGradient>
<linearGradient id="paint2_linear_389_2108" x1="10.9547" y1="25.4375" x2="13.959" y2="25.4375" gradientUnits="userSpaceOnUse">
<stop stop-color="#F0F7FF"/>
<stop offset="1" stop-color="#9ECBFF"/>
</linearGradient>
<linearGradient id="paint3_linear_389_2108" x1="30.5576" y1="25.4375" x2="33.122" y2="25.4375" gradientUnits="userSpaceOnUse">
<stop stop-color="#9ECBFF"/>
<stop offset="1" stop-color="#F0F7FF"/>
</linearGradient>
<linearGradient id="paint4_linear_389_2108" x1="29.5412" y1="22" x2="33.0273" y2="22" gradientUnits="userSpaceOnUse">
<stop stop-color="#9ECBFF"/>
<stop offset="1" stop-color="#F0F7FF"/>
</linearGradient>
<linearGradient id="paint5_linear_389_2108" x1="30.0665" y1="18.5625" x2="33.0587" y2="18.5625" gradientUnits="userSpaceOnUse">
<stop stop-color="#9ECBFF"/>
<stop offset="1" stop-color="#F0F7FF"/>
</linearGradient>
<linearGradient id="paint6_linear_389_2108" x1="18.498" y1="14.0781" x2="18.498" y2="10.6696" gradientUnits="userSpaceOnUse">
<stop stop-color="#9ECBFF"/>
<stop offset="1" stop-color="#F0F7FF"/>
</linearGradient>
<linearGradient id="paint7_linear_389_2108" x1="22.0215" y1="13.7033" x2="22.0215" y2="10.7094" gradientUnits="userSpaceOnUse">
<stop stop-color="#9ECBFF"/>
<stop offset="1" stop-color="#F0F7FF"/>
</linearGradient>
<linearGradient id="paint8_linear_389_2108" x1="25.502" y1="13.2599" x2="25.502" y2="10.7077" gradientUnits="userSpaceOnUse">
<stop stop-color="#9ECBFF"/>
<stop offset="1" stop-color="#F0F7FF"/>
</linearGradient>
<linearGradient id="paint9_linear_389_2108" x1="18.5195" y1="33.4197" x2="18.5195" y2="29.9991" gradientUnits="userSpaceOnUse">
<stop stop-color="#F0F7FF"/>
<stop offset="1" stop-color="#9ECBFF"/>
</linearGradient>
<linearGradient id="paint10_linear_389_2108" x1="22.043" y1="33.4238" x2="22.043" y2="30.3862" gradientUnits="userSpaceOnUse">
<stop stop-color="#F0F7FF"/>
<stop offset="1" stop-color="#9ECBFF"/>
</linearGradient>
<linearGradient id="paint11_linear_389_2108" x1="25.4805" y1="33.466" x2="25.4805" y2="30.8503" gradientUnits="userSpaceOnUse">
<stop stop-color="#F0F7FF"/>
<stop offset="1" stop-color="#9ECBFF"/>
</linearGradient>
</defs>
</svg>
