<svg width="45" height="44" viewBox="0 0 45 44" fill="none" xmlns="http://www.w3.org/2000/svg">
<path d="M0 19.7264H2.44673C2.51127 19.1572 2.60515 18.5939 2.71663 18.0365C2.9748 16.775 3.36205 15.5311 3.86078 14.3459C4.35365 13.1783 4.96386 12.0576 5.67382 11.0015C6.37792 9.95706 7.18763 8.9772 8.07948 8.08534C8.97133 7.19349 9.95119 6.38378 10.9956 5.67969C12.0459 4.96973 13.1724 4.35952 14.34 3.86665C15.5253 3.36792 16.7692 2.98067 18.0307 2.7225C18.5881 2.61102 19.1514 2.51713 19.7205 2.45259V0C9.32925 1.06788 1.06201 9.32924 0 19.7264ZM41.5533 24.2795C41.4887 24.8486 41.3949 25.4119 41.2834 25.9693C41.0252 27.2308 40.638 28.4747 40.1392 29.66C39.6464 30.8276 39.0361 31.9483 38.3262 33.0044C37.6221 34.0488 36.8124 35.0287 35.9205 35.9205C35.0287 36.8124 34.0488 37.6221 33.0044 38.3262C31.9541 39.0361 30.8276 39.6464 29.66 40.1392C28.4747 40.638 27.2308 41.0252 25.9693 41.2834C25.4119 41.3949 24.8486 41.4887 24.2795 41.5533V44C34.6708 42.938 42.938 34.6708 44 24.2795H41.5533ZM14.34 40.1392C13.1724 39.6464 12.0517 39.0361 10.9956 38.3262C9.95119 37.6221 8.97133 36.8124 8.07948 35.9205C7.18763 35.0287 6.37792 34.0488 5.67382 33.0044C4.96386 31.9541 4.35365 30.8276 3.86078 29.66C3.36205 28.4747 2.9748 27.2308 2.71663 25.9693C2.60515 25.4119 2.51127 24.8486 2.44673 24.2795H0C1.06201 34.6708 9.32925 42.938 19.7205 44V41.5533C19.1514 41.4887 18.5881 41.3949 18.0307 41.2834C16.7692 41.0311 15.5253 40.6438 14.34 40.1392ZM24.2795 0V2.44673C24.8486 2.51127 25.4119 2.60515 25.9693 2.71663C27.2308 2.9748 28.4747 3.36205 29.66 3.86078C30.8276 4.35365 31.9483 4.96386 33.0044 5.67382C34.0488 6.37792 35.0287 7.18763 35.9205 8.07948C36.8124 8.97133 37.6221 9.95119 38.3262 10.9956C39.0361 12.0459 39.6464 13.1724 40.1392 14.34C40.638 15.5253 41.0252 16.7692 41.2834 18.0307C41.3949 18.5881 41.4887 19.1514 41.5533 19.7205H44.0059C42.938 9.32924 34.6766 1.06788 24.2795 0Z" fill="#1A1D1F"/>
<path d="M14.7387 10.5381H10.5435V14.7333H14.7387V10.5381Z" fill="#1A1D1F"/>
<path d="M33.4736 10.5381H27.8115V16.2002H33.4736V10.5381Z" fill="#1A1D1F"/>
<path d="M33.4737 26.0215V33.4673H26.0278V26.0215H33.4737Z" fill="#1A1D1F"/>
<path d="M12.9843 31.0215H10.5435V33.4623H12.9843V31.0215Z" fill="#1A1D1F"/>
<path d="M22.0085 22.1623L10.696 33.4689H10.5435V33.3105L21.85 22.0039L22.0085 22.1623Z" fill="url(#paint0_linear_1311_9895)"/>
<path d="M33.4733 10.5381V10.6965L27.9638 16.2002L22.1667 22.0031L22.0083 21.8447L27.8112 16.0476L33.3149 10.5381H33.4733Z" fill="url(#paint1_linear_1311_9895)"/>
<path d="M22.0085 21.8447L21.85 22.0031L10.5435 10.6965V10.5381H10.696L22.0085 21.8447Z" fill="url(#paint2_linear_1311_9895)"/>
<path d="M33.4733 33.3105V33.4689H33.3149L22.0083 22.1623L22.1667 22.0039L33.4733 33.3105Z" fill="url(#paint3_linear_1311_9895)"/>
<defs>
<linearGradient x1="21.9282" y1="22.0815" x2="12.9518" y2="31.0579" gradientUnits="userSpaceOnUse">
<stop stop-color="white" stop-opacity="0"/>
<stop offset="1" stop-color="white"/>
</linearGradient>
<linearGradient x1="22.0848" y1="21.925" x2="27.7815" y2="16.2282" gradientUnits="userSpaceOnUse">
<stop stop-color="white" stop-opacity="0"/>
<stop offset="1" stop-color="white"/>
</linearGradient>
<linearGradient x1="21.8781" y1="21.8754" x2="14.7094" y2="14.7068" gradientUnits="userSpaceOnUse">
<stop stop-color="white" stop-opacity="0"/>
<stop offset="1" stop-color="white"/>
</linearGradient<svg width="1427" height="1427" viewBox="0 0 1427 1427" fill="none" xmlns="http://www.w3.org/2000/svg">
<rect x="17" y="17" width="1393" height="1393" rx="696.5" fill="white"/>
<g clip-path="url(#clip0_13129_561543)">
<path d="M75.2363 647.401H146.183C148.092 630.92 150.694 614.612 153.989 598.304C161.448 561.698 172.724 525.612 187.121 491.262C201.345 457.431 219.039 424.816 239.681 394.282C260.15 363.921 283.568 335.469 309.414 309.619C335.26 283.769 363.708 260.175 394.065 239.877C424.595 219.232 457.206 201.536 491.032 187.31C525.378 172.91 561.458 161.634 598.059 154.174C614.192 150.877 630.497 148.275 647.15 146.367V75.2363C345.842 106.117 106.113 345.878 75.2363 647.401ZM1280.64 779.599C1278.74 796.081 1276.13 812.389 1272.84 828.697C1265.38 865.303 1254.1 901.388 1239.71 935.739C1225.48 969.569 1207.79 1002.18 1187.15 1032.72C1166.68 1063.08 1143.26 1091.53 1117.41 1117.38C1091.57 1143.23 1063.12 1166.83 1032.76 1187.12C1002.23 1207.77 969.621 1225.46 935.795 1239.69C901.449 1254.09 865.369 1265.37 828.768 1272.83C812.635 1276.12 796.33 1278.73 779.677 1280.63V1351.59C1081.16 1320.71 1320.89 1080.95 1351.76 779.426H1280.64V779.599ZM491.205 1239.69C457.379 1225.46 424.768 1207.77 394.238 1187.12C363.882 1166.65 335.434 1143.23 309.587 1117.38C283.741 1091.53 260.15 1063.08 239.854 1032.72C219.212 1002.18 201.519 969.569 187.295 935.739C172.897 901.388 161.622 865.303 154.163 828.697C150.867 812.562 148.265 796.254 146.357 779.599H75.2363C106.113 1081.12 345.841 1320.88 647.323 1351.76V1280.81C630.844 1278.9 614.539 1276.3 598.233 1273C561.632 1265.54 525.551 1254.26 491.205 1239.69ZM779.504 75.2363V146.193C795.983 148.102 812.288 150.704 828.594 154C865.195 161.46 901.276 172.737 935.622 187.136C969.448 201.362 1002.06 219.058 1032.59 239.703C1062.95 260.175 1091.39 283.596 1117.24 309.446C1143.09 335.295 1166.68 363.748 1186.97 394.108C1207.61 424.642 1225.31 457.258 1239.53 491.088C1253.93 525.439 1265.21 561.524 1272.66 598.13C1275.96 614.265 1278.56 630.573 1280.47 647.228H1351.59C1320.71 345.878 1081.16 106.117 779.504 75.2363Z" fill="black"/>
<path d="M502.749 380.923H380.977V502.712H502.749V380.923Z" fill="black"/>
<path d="M1046.17 380.923H881.899V545.216H1046.17V380.923Z" fill="black"/>
<path d="M1046.18 830.094V1046.09H830.041V830.094H1046.18Z" fill="black"/>
<path d="M451.75 975.119H380.977V1045.9H451.75V975.119Z" fill="black"/>
<path d="M713.509 718.014L385.487 1046.08H380.977V1041.57L708.999 713.503L713.509 718.014Z" fill="url(#paint0_linear_13129_561543)"/>
<path d="M1046.49 380.923V385.434L886.556 545.216L718.469 713.5L713.785 708.816L882.22 540.706L1041.81 380.923H1046.49Z" fill="url(#paint1_linear_13129_561543)"/>
<path d="M713.509 708.816L708.999 713.5L380.977 385.434V380.923H385.487L713.509 708.816Z" fill="url(#paint2_linear_13129_561543)"/>
<path d="M1046.49 1041.57V1046.08H1041.81L713.785 718.011L718.469 713.5L1046.49 1041.57Z" fill="url(#paint3_linear_13129_561543)"/>
</g>
<defs>
<linearGradient id="paint0_linear_13129_561543" x1="711.279" y1="715.799" x2="450.862" y2="976.181" gradientUnits="userSpaceOnUse">
<stop stop-opacity="0"/>
<stop offset="1"/>
</linearGradient>
<linearGradient id="paint1_linear_13129_561543" x1="716.151" y1="711.201" x2="881.421" y2="545.953" gradientUnits="userSpaceOnUse">
<stop offset="0.0176145" stop-opacity="0"/>
<stop offset="1"/>
</linearGradient>
<linearGradient id="paint2_linear_13129_561543" x1="709.834" y1="709.756" x2="501.862" y2="501.811" gradientUnits="userSpaceOnUse">
<stop stop-opacity="0"/>
<stop offset="1"/>
</linearGradient>
<linearGradient id="paint3_linear_13129_561543" x1="715.442" y1="715.087" x2="834.265" y2="833.895" gradientUnits="userSpaceOnUse">
<stop stop-opacity="0"/>
<stop offset="0.9809"/>
</linearGradient>
<clipPath id="clip0_13129_561543">
<rect width="1313" height="1313" fill="white" transform="translate(57 57)"/>
</clipPath>
</defs>
</svg>
>
<linearGradient x1="22.0622" y1="22.0595" x2="26.158" y2="26.1553" gradientUnits="userSpaceOnUse">
<stop stop-color="white" stop-opacity="0"/>
<stop offset="0.9809" stop-color="white"/>
</linearGradient>
</defs>
</svg>
