<svg width="29" height="30" viewBox="0 0 29 30" fill="none" xmlns="http://www.w3.org/2000/svg">
<g clip-path="url(#clip0_1791_15376)">
<path fill-rule="evenodd" clip-rule="evenodd" d="M20.77 15.455C17.136 15.455 14.19 18.4009 14.19 22.035C14.19 25.669 17.136 28.615 20.77 28.615C24.404 28.615 27.35 25.669 27.35 22.035C27.35 18.4009 24.404 15.455 20.77 15.455ZM13.19 22.035C13.19 17.8486 16.5837 14.455 20.77 14.455C24.9563 14.455 28.35 17.8486 28.35 22.035C28.35 26.2213 24.9563 29.615 20.77 29.615C16.5837 29.615 13.19 26.2213 13.19 22.035Z" fill="white"/>
<g clip-path="url(#clip1_1791_15376)">
<path d="M22 24.9038H21.5V21.2944C21.5 21.0094 21.2761 20.7788 21 20.7788H20C19.7239 20.7788 19.5 21.0094 19.5 21.2944C19.5 21.5794 19.7239 21.7955 20 21.7955H20.5V24.8893H20C19.7239 24.8893 19.5 25.1198 19.5 25.4049C19.5 25.6899 19.7239 25.9205 20 25.9205H22C22.2761 25.9205 22.5 25.6899 22.5 25.4049C22.5 25.1198 22.2766 24.9038 22 24.9038ZM21 19.7475C21.4142 19.7475 21.75 19.4012 21.75 18.9741C21.75 18.5469 21.4141 18.2008 21 18.2008C20.5859 18.2008 20.25 18.5471 20.25 18.9742C20.25 19.4014 20.5858 19.7475 21 19.7475Z" fill="white"/>
</g>
<path d="M23 13V7C23 6.73478 22.8946 6.48043 22.7071 6.29289C22.5196 6.10536 22.2652 6 22 6H18C17.7348 6 17.4804 6.10536 17.2929 6.29289C17.1054 6.48043 17 6.73478 17 7V13.5M15 14.5V2C15 1.73478 14.8946 1.48043 14.7071 1.29289C14.5196 1.10536 14.2652 1 14 1H10C9.73478 1 9.48043 1.10536 9.29289 1.29289C9.10536 1.48043 9 1.73478 9 2V22C9 22.2652 9.10536 22.5196 9.29289 22.7071C9.48043 22.8946 9.73478 23 10 23H11.5M7 13V22C7 22.2652 6.89464 22.5196 6.70711 22.7071C6.51957 22.8946 6.26522 23 6 23H2C1.73478 23 1.48043 22.8946 1.29289 22.7071C1.10536 22.5196 1 22.2652 1 22V13C1 12.7348 1.10536 12.4804 1.29289 12.2929C1.48043 12.1054 1.73478 12 2 12H6C6.26522 12 6.51957 12.1054 6.70711 12.2929C6.89464 12.4804 7 12.7348 7 13Z" stroke="white" stroke-linecap="round" stroke-linejoin="round"/>
</g>
<defs>
<clipPath id="clip0_1791_15376">
<rect width="27.75" height="29.23" fill="white" transform="translate(0.599976 0.38501)"/>
</clipPath>
<clipPath id="clip1_1791_15376">
<rect width="3" height="9" fill="white" transform="translate(19.5 17.6849)"/>
</clipPath>
</defs>
</svg>
