<?xml version="1.0" standalone="no"?>
<!DOCTYPE svg PUBLIC "-//W3C//DTD SVG 20010904//EN"
 "http://www.w3.org/TR/2001/REC-SVG-20010904/DTD/svg10.dtd">
<svg version="1.0" xmlns="http://www.w3.org/2000/svg"
 width="2000.000000pt" height="2000.000000pt" viewBox="0 0 2000.000000 2000.000000"
 preserveAspectRatio="xMidYMid meet">

<g transform="translate(0.000000,2000.000000) scale(0.100000,-0.100000)"
fill="#000000" stroke="none">
<path d="M8740 19979 c-1987 -263 -3771 -1058 -5280 -2354 -1773 -1522 -2972
-3647 -3359 -5950 -39 -233 -101 -714 -101 -786 0 -5 244 -9 575 -9 316 0 575
4 575 8 0 25 44 361 66 502 241 1562 933 3085 1958 4312 360 430 830 893 1266
1244 1114 898 2431 1514 3835 1793 195 39 467 83 593 97 l62 7 0 578 0 579
-22 -1 c-13 0 -88 -10 -168 -20z"/>
<path d="M11070 19422 l0 -579 63 -7 c125 -14 397 -58 592 -97 1404 -279 2721
-895 3835 -1793 436 -351 906 -814 1266 -1244 1025 -1227 1717 -2750 1958
-4312 22 -141 66 -477 66 -502 0 -4 259 -8 575 -8 331 0 575 4 575 9 0 24 -32
314 -50 451 -244 1853 -1028 3638 -2236 5090 -1348 1619 -3175 2783 -5186
3304 -442 115 -958 211 -1400 261 l-58 6 0 -579z"/>
<path d="M9570 17799 c-2334 -132 -4451 -1273 -5849 -3152 -335 -450 -633
-962 -866 -1487 -937 -2114 -881 -4581 152 -6644 610 -1218 1520 -2252 2651
-3010 1283 -860 2788 -1316 4342 -1316 1554 0 3059 456 4342 1316 426 285 762
560 1136 929 551 541 993 1123 1365 1796 1056 1908 1258 4205 553 6284 -474
1400 -1350 2649 -2511 3581 -1394 1119 -3128 1723 -4920 1713 -137 -1 -315 -6
-395 -10z m-632 -2960 c140 -37 274 -123 360 -232 214 -269 212 -623 -5 -889
-30 -38 -58 -68 -62 -68 -3 -1 -26 -18 -50 -39 l-44 -39 1003 -2028 c1070
-2164 1445 -2929 1820 -3706 129 -268 238 -486 242 -485 4 1 156 196 339 432
183 237 863 1102 1511 1923 648 821 1181 1499 1184 1507 4 8 -6 29 -21 46 -36
44 -72 118 -90 186 -71 273 124 560 411 603 123 19 255 -15 362 -94 71 -53
113 -104 152 -188 91 -195 50 -411 -108 -560 -105 -98 -202 -138 -343 -138
l-75 0 -157 -373 c-569 -1355 -1183 -2891 -1857 -4648 -183 -475 -336 -872
-342 -882 -15 -28 -70 -57 -109 -57 -85 0 -51 -58 -803 1364 l-73 138 -323
-428 c-638 -846 -802 -1060 -841 -1095 -50 -47 -114 -65 -178 -49 -35 8 -148
83 -466 308 -736 521 -1444 1038 -2318 1689 -313 234 -574 426 -580 429 -8 3
-39 -102 -96 -318 -199 -766 -522 -1970 -535 -1995 -51 -99 -187 -125 -276
-54 -38 30 -92 139 -421 841 -274 584 -358 767 -744 1620 -459 1016 -552 1219
-773 1680 -95 201 -185 390 -199 421 l-25 57 -57 -27 c-78 -36 -193 -37 -266
-1 -64 31 -124 91 -155 155 -37 75 -35 189 3 267 118 240 450 242 568 3 54
-111 40 -244 -36 -333 l-35 -40 573 -379 c593 -393 830 -548 1642 -1072 399
-257 481 -307 487 -293 4 9 62 248 128 530 207 883 748 3116 988 4074 l229
918 -64 36 c-143 80 -267 231 -319 390 -26 80 -29 103 -29 219 0 117 3 139 29
219 115 352 484 550 844 455z"/>
<path d="M8691 12282 c-192 -782 -815 -3238 -1025 -4042 -102 -391 -132 -518
-123 -526 7 -6 248 -163 537 -350 564 -364 1939 -1277 2444 -1623 171 -116
313 -208 317 -204 4 5 258 342 564 751 l556 743 -94 177 c-384 721 -965 1841
-2127 4100 -476 925 -867 1682 -870 1682 -3 0 -83 -319 -179 -708z"/>
<path d="M14239 9448 c-947 -1324 -1264 -1764 -1661 -2301 -92 -125 -168 -231
-168 -236 0 -10 629 -1324 639 -1334 8 -8 644 1469 996 2313 340 815 652 1577
926 2265 143 358 264 660 269 673 5 12 8 22 6 22 -1 0 -454 -631 -1007 -1402z"/>
<path d="M4440 9704 c0 -9 81 -162 308 -584 242 -449 415 -760 933 -1676 246
-436 557 -991 690 -1234 134 -243 244 -438 246 -434 2 5 75 320 162 699 88
380 191 825 231 989 57 242 68 302 58 312 -50 47 -1680 1251 -2258 1668 -151
110 -296 214 -322 233 -27 19 -48 31 -48 27z"/>
<path d="M40 8730 c0 -63 95 -616 146 -852 827 -3822 3809 -6835 7614 -7692
304 -69 763 -146 1073 -181 l57 -6 0 579 0 579 -62 7 c-234 26 -671 107 -973
181 -1389 341 -2642 994 -3743 1951 -190 165 -672 647 -837 837 -873 1005
-1494 2140 -1860 3402 -93 321 -195 783 -241 1088 l-17 117 -579 0 c-390 0
-578 -3 -578 -10z"/>
<path d="M18786 8623 c-46 -305 -148 -767 -241 -1088 -366 -1262 -987 -2397
-1860 -3402 -165 -190 -647 -672 -837 -837 -1101 -957 -2354 -1610 -3743
-1951 -302 -74 -739 -155 -972 -181 l-63 -7 0 -579 0 -579 58 6 c31 4 165 22
298 41 3129 441 5891 2373 7411 5184 499 924 858 1948 1042 2975 28 156 81
500 81 525 0 7 -188 10 -578 10 l-579 0 -17 -117z"/>
</g>
</svg>
