<svg width="23" height="28" viewBox="0 0 23 28" fill="none" xmlns="http://www.w3.org/2000/svg">
<path d="M0 3.5V24.5C0 25.4283 0.40387 26.3185 1.12276 26.9749C1.84165 27.6312 2.81667 28 3.83334 28H22.0417C22.2958 28 22.5396 27.9078 22.7193 27.7437C22.899 27.5796 23 27.3571 23 27.125C23 26.8929 22.899 26.6704 22.7193 26.5063C22.5396 26.3422 22.2958 26.25 22.0417 26.25H3.83334C3.325 26.25 2.8375 26.0656 2.47805 25.7374C2.11861 25.4092 1.91667 24.9641 1.91667 24.5H21.0833C21.5917 24.5 22.0792 24.3156 22.4386 23.9874C22.7981 23.6592 23 23.2141 23 22.75V3.5C23 2.57174 22.5961 1.6815 21.8772 1.02513C21.1584 0.368749 20.1833 0 19.1667 0H3.83334C2.81667 0 1.84165 0.368749 1.12276 1.02513C0.40387 1.6815 0 2.57174 0 3.5ZM19.1667 1.75C19.675 1.75 20.1625 1.93437 20.522 2.26256C20.8814 2.59075 21.0833 3.03587 21.0833 3.5V22.75H1.91667V3.5C1.91667 3.03587 2.11861 2.59075 2.47805 2.26256C2.8375 1.93437 3.325 1.75 3.83334 1.75H19.1667Z" fill="#989CA0"/>
<path d="M12 7.5C10.8065 7.5 9.66193 7.97411 8.81802 8.81802C7.97411 9.66193 7.5 10.8065 7.5 12C7.5 13.1935 7.97411 14.3381 8.81802 15.182C9.66193 16.0259 10.8065 16.5 12 16.5C13.1935 16.5 14.3381 16.0259 15.182 15.182C16.0259 14.3381 16.5 13.1935 16.5 12C16.5 10.8065 16.0259 9.66193 15.182 8.81802C14.3381 7.97411 13.1935 7.5 12 7.5ZM6 12C6 10.4087 6.63214 8.88258 7.75736 7.75736C8.88258 6.63214 10.4087 6 12 6C13.5913 6 15.1174 6.63214 16.2426 7.75736C17.3679 8.88258 18 10.4087 18 12C18 13.5913 17.3679 15.1174 16.2426 16.2426C15.1174 17.3679 13.5913 18 12 18C10.4087 18 8.88258 17.3679 7.75736 16.2426C6.63214 15.1174 6 13.5913 6 12ZM12 9.75C12 9.55109 11.921 9.36032 11.7803 9.21967C11.6397 9.07902 11.4489 9 11.25 9C11.0511 9 10.8603 9.07902 10.7197 9.21967C10.579 9.36032 10.5 9.55109 10.5 9.75V12.75C10.5 12.9489 10.579 13.1397 10.7197 13.2803C10.8603 13.421 11.0511 13.5 11.25 13.5H13.5C13.6989 13.5 13.8897 13.421 14.0303 13.2803C14.171 13.1397 14.25 12.9489 14.25 12.75C14.25 12.5511 14.171 12.3603 14.0303 12.2197C13.8897 12.079 13.6989 12 13.5 12H12V9.75Z" fill="#989CA0"/>
</svg>
