<svg width="49" height="41" viewBox="0 0 49 41" fill="none" xmlns="http://www.w3.org/2000/svg">
<g id="Phantom-Icon-Purple 1" clip-path="url(#clip0_1543_144799)">
<path id="Vector" d="M6.17052 40.0501C12.2858 40.0501 16.8815 34.7318 19.6242 30.5293C19.2906 31.4591 19.1052 32.3888 19.1052 33.2814C19.1052 35.736 20.5137 37.4839 23.2933 37.4839C27.1107 37.4839 31.1875 34.1368 33.3001 30.5293C33.1518 31.05 33.0778 31.5335 33.0778 31.9797C33.0778 33.6905 34.0413 34.769 36.0057 34.769C42.1951 34.769 48.4215 23.7978 48.4215 14.2026C48.4215 6.72727 44.6411 0.144531 35.1532 0.144531C18.4752 0.144531 0.5 20.525 0.5 33.6905C0.5 38.86 3.27967 40.0501 6.17052 40.0501ZM29.4085 13.3844C29.4085 11.5249 30.4463 10.2232 31.9658 10.2232C33.4483 10.2232 34.4861 11.5249 34.4861 13.3844C34.4861 15.244 33.4483 16.5828 31.9658 16.5828C30.4463 16.5828 29.4085 15.244 29.4085 13.3844ZM37.3399 13.3844C37.3399 11.5249 38.3777 10.2232 39.8972 10.2232C41.3797 10.2232 42.4174 11.5249 42.4174 13.3844C42.4174 15.244 41.3797 16.5828 39.8972 16.5828C38.3777 16.5828 37.3399 15.244 37.3399 13.3844Z" fill="#AB9FF2"/>
</g>
<defs>
<clipPath id="clip0_1543_144799">
<rect width="48" height="39.9056" fill="white" transform="translate(0.5 0.144531)"/>
</clipPath>
</defs>
</svg>
