<svg width="49" height="49" viewBox="0 0 49 49" fill="none" xmlns="http://www.w3.org/2000/svg">
<g clip-path="url(#clip0_1997_83387)">
<path d="M48.5 24.0977C48.5 10.8428 37.7548 0.0976562 24.5 0.0976562C11.2452 0.0976562 0.5 10.8428 0.5 24.0977C0.5 37.3525 11.2452 48.0977 24.5 48.0977C37.7548 48.0977 48.5 37.3525 48.5 24.0977Z" fill="#AEE67F"/>
<path d="M31.117 26.702L26.999 27.5C24.217 26.104 22.499 24.5 21.499 22L22.269 17.87L20.814 14H17.063C15.935 14 15.047 14.932 15.216 16.047C15.636 18.83 16.876 23.877 20.499 27.5C24.304 31.305 29.785 32.956 32.801 33.613C33.966 33.866 34.999 32.958 34.999 31.765V28.181L31.117 26.702Z" stroke="#232521" stroke-width="1.5" stroke-linecap="round" stroke-linejoin="round"/>
</g>
<defs>
<clipPath id="clip0_1997_83387">
<rect width="48" height="48" fill="white" transform="translate(0.5 0.0976562)"/>
</clipPath>
</defs>
</svg>
