<svg width="28" height="30" viewBox="0 0 28 30" fill="none" xmlns="http://www.w3.org/2000/svg">
<g clip-path="url(#clip0_396_1110)">
<path fill-rule="evenodd" clip-rule="evenodd" d="M1.77676 3.75039C1.32647 4.18127 1.13501 4.59851 1.13501 4.98504C1.13501 5.37157 1.32647 5.78881 1.77676 6.21969C2.22833 6.6518 2.90826 7.06399 3.78961 7.4207C5.54969 8.13308 8.01563 8.58504 10.765 8.58504C13.5144 8.58504 15.9803 8.13308 17.7404 7.4207C18.6218 7.06399 19.3017 6.6518 19.7533 6.21969C20.2035 5.78881 20.395 5.37157 20.395 4.98504C20.395 4.59851 20.2035 4.18127 19.7533 3.75039C19.3017 3.31828 18.6218 2.90609 17.7404 2.54938C15.9803 1.837 13.5144 1.38504 10.765 1.38504C8.01563 1.38504 5.54969 1.837 3.78961 2.54938C2.90826 2.90609 2.22833 3.31828 1.77676 3.75039ZM3.41443 1.62243C5.32068 0.850892 7.91974 0.38504 10.765 0.38504C13.6103 0.38504 16.2093 0.850892 18.1156 1.62243C19.0674 2.00766 19.871 2.47896 20.4446 3.02788C21.0196 3.57804 21.395 4.23939 21.395 4.98504C21.395 5.73069 21.0196 6.39204 20.4446 6.9422C19.871 7.49112 19.0674 7.96242 18.1156 8.34766C16.2093 9.11919 13.6103 9.58504 10.765 9.58504C7.91974 9.58504 5.32068 9.11919 3.41443 8.34766C2.46261 7.96242 1.65903 7.49112 1.08539 6.9422C0.510465 6.39204 0.13501 5.73069 0.13501 4.98504C0.13501 4.23939 0.510465 3.57804 1.08539 3.02788C1.65903 2.47896 2.46261 2.00766 3.41443 1.62243Z" fill="#B7B7B7"/>
<path fill-rule="evenodd" clip-rule="evenodd" d="M20.295 15.455C16.661 15.455 13.715 18.401 13.715 22.035C13.715 25.6691 16.661 28.615 20.295 28.615C23.9291 28.615 26.875 25.6691 26.875 22.035C26.875 18.401 23.9291 15.455 20.295 15.455ZM12.715 22.035C12.715 17.8487 16.1087 14.455 20.295 14.455C24.4813 14.455 27.875 17.8487 27.875 22.035C27.875 26.2214 24.4813 29.615 20.295 29.615C16.1087 29.615 12.715 26.2214 12.715 22.035Z" fill="#B7B7B7"/>
<path d="M20.895 11.905C20.9 11.9549 20.9 12.0052 20.895 12.055" stroke="#B7B7B7" stroke-linecap="round" stroke-linejoin="round"/>
<path fill-rule="evenodd" clip-rule="evenodd" d="M0.625 11.405C0.901142 11.405 1.125 11.6289 1.125 11.905C1.125 12.4144 1.44568 12.9657 2.20589 13.513C2.95884 14.0551 4.06868 14.5345 5.44921 14.9007C7.18325 15.3302 8.96443 15.54 10.7508 15.5251L10.755 15.525L12.355 15.525C12.6311 15.525 12.855 15.7489 12.855 16.025C12.855 16.3012 12.6311 16.525 12.355 16.525H10.7571C8.88614 16.5405 7.02071 16.3205 5.20469 15.8704L5.1969 15.8684C3.74922 15.4848 2.51045 14.9645 1.62161 14.3246C0.739319 13.6894 0.125 12.8757 0.125 11.905C0.125 11.6289 0.348858 11.405 0.625 11.405Z" fill="#B7B7B7"/>
<path d="M5.33501 15.365H5.32501" stroke="#B7B7B7" stroke-linecap="round" stroke-linejoin="round"/>
<path fill-rule="evenodd" clip-rule="evenodd" d="M0.625 18.225C0.901142 18.225 1.125 18.4489 1.125 18.725V18.815C1.125 19.1929 1.30708 19.5991 1.73356 20.0189C2.16178 20.4404 2.80782 20.8446 3.64866 21.1978C5.32809 21.9034 7.68917 22.3658 10.3424 22.4051C10.6185 22.4092 10.839 22.6363 10.8349 22.9124C10.8309 23.1886 10.6037 23.4091 10.3276 23.405C7.58083 23.3643 5.08691 22.8867 3.26134 22.1198C2.34968 21.7368 1.58072 21.2716 1.03206 20.7315C0.481668 20.1898 0.125 19.5422 0.125 18.815V18.725C0.125 18.4489 0.348858 18.225 0.625 18.225Z" fill="#B7B7B7"/>
<path fill-rule="evenodd" clip-rule="evenodd" d="M0.625 4.48505C0.901142 4.48505 1.125 4.7089 1.125 4.98505V18.725C1.125 19.0012 0.901142 19.225 0.625 19.225C0.348858 19.225 0.125 19.0012 0.125 18.725V4.98505C0.125 4.7089 0.348858 4.48505 0.625 4.48505Z" fill="#B7B7B7"/>
<path fill-rule="evenodd" clip-rule="evenodd" d="M20.895 4.48505C21.1712 4.48505 21.395 4.7089 21.395 4.98505V12.055C21.395 12.3312 21.1712 12.555 20.895 12.555C20.6189 12.555 20.395 12.3312 20.395 12.055V4.98505C20.395 4.7089 20.6189 4.48505 20.895 4.48505Z" fill="#B7B7B7"/>
<path fill-rule="evenodd" clip-rule="evenodd" d="M19.305 17.945C19.5811 17.945 19.805 18.1689 19.805 18.445V25.625C19.805 25.9012 19.5811 26.125 19.305 26.125C19.0289 26.125 18.805 25.9012 18.805 25.625V18.445C18.805 18.1689 19.0289 17.945 19.305 17.945Z" fill="#B7B7B7"/>
<path fill-rule="evenodd" clip-rule="evenodd" d="M16.5685 22.9345C16.7621 22.7376 17.0786 22.7349 17.2755 22.9285L19.6555 25.2685C19.8524 25.4621 19.8551 25.7787 19.6615 25.9756C19.4679 26.1725 19.1514 26.1752 18.9544 25.9816L16.5744 23.6416C16.3775 23.448 16.3749 23.1314 16.5685 22.9345Z" fill="#B7B7B7"/>
<path fill-rule="evenodd" clip-rule="evenodd" d="M21.285 17.945C21.5611 17.945 21.785 18.1689 21.785 18.445V25.625C21.785 25.9012 21.5611 26.125 21.285 26.125C21.0088 26.125 20.785 25.9012 20.785 25.625V18.445C20.785 18.1689 21.0088 17.945 21.285 17.945Z" fill="#B7B7B7"/>
<path fill-rule="evenodd" clip-rule="evenodd" d="M20.9284 18.0945C21.122 17.8976 21.4386 17.8949 21.6355 18.0885L24.0155 20.4285C24.2124 20.6221 24.2151 20.9387 24.0215 21.1356C23.8279 21.3325 23.5113 21.3352 23.3144 21.1416L20.9344 18.8016C20.7375 18.608 20.7348 18.2914 20.9284 18.0945Z" fill="#B7B7B7"/>
</g>
<defs>
<clipPath id="clip0_396_1110">
<rect width="27.75" height="29.23" fill="#B7B7B7" transform="translate(0.125 0.38504)"/>
</clipPath>
</defs>
</svg>
