<svg width="20" height="20" viewBox="0 0 20 20" fill="none" xmlns="http://www.w3.org/2000/svg">
<g id="iconoir:scan-qr-code">
<path id="Vector" d="M5 10H7.5M12.5 10V12.5M10 15H12.5M10 10.0092L10.0083 10M15 10.0092L15.0083 10M10 12.5092L10.0083 12.5M15 12.5092L15.0083 12.5M15 15.0092L15.0083 15M10 7.50917L10.0083 7.5M10 5.00917L10.0083 5M15 2.5H17.5V5M15 17.5H17.5V15M5 2.5H2.5V5M5 17.5H2.5V15M7.5 5.5V7C7.5 7.13261 7.44732 7.25979 7.35355 7.35355C7.25979 7.44732 7.13261 7.5 7 7.5H5.5C5.36739 7.5 5.24021 7.44732 5.14645 7.35355C5.05268 7.25979 5 7.13261 5 7V5.5C5 5.36739 5.05268 5.24021 5.14645 5.14645C5.24021 5.05268 5.36739 5 5.5 5H7C7.13261 5 7.25979 5.05268 7.35355 5.14645C7.44732 5.24021 7.5 5.36739 7.5 5.5ZM7.5 13V14.5C7.5 14.6326 7.44732 14.7598 7.35355 14.8536C7.25979 14.9473 7.13261 15 7 15H5.5C5.36739 15 5.24021 14.9473 5.14645 14.8536C5.05268 14.7598 5 14.6326 5 14.5V13C5 12.8674 5.05268 12.7402 5.14645 12.6464C5.24021 12.5527 5.36739 12.5 5.5 12.5H7C7.13261 12.5 7.25979 12.5527 7.35355 12.6464C7.44732 12.7402 7.5 12.8674 7.5 13ZM15 5.5V7C15 7.13261 14.9473 7.25979 14.8536 7.35355C14.7598 7.44732 14.6326 7.5 14.5 7.5H13C12.8674 7.5 12.7402 7.44732 12.6464 7.35355C12.5527 7.25979 12.5 7.13261 12.5 7V5.5C12.5 5.36739 12.5527 5.24021 12.6464 5.14645C12.7402 5.05268 12.8674 5 13 5H14.5C14.6326 5 14.7598 5.05268 14.8536 5.14645C14.9473 5.24021 15 5.36739 15 5.5Z" stroke="#979995" stroke-width="1.5" stroke-linecap="round" stroke-linejoin="round"/>
</g>
</svg>
