<svg xmlns="http://www.w3.org/2000/svg" width="18" height="18" viewBox="0 0 18 18" fill="none">
    <path
        d="M8.16667 11.0827C8.16667 12.2327 10.0325 13.166 12.3333 13.166C14.6342 13.166 16.5 12.2327 16.5 11.0827M1.5 6.91602C1.5 8.06602 3.36583 8.99935 5.66667 8.99935C6.605 8.99935 7.47083 8.84435 8.16667 8.58268M1.5 9.83268C1.5 10.9827 3.36583 11.916 5.66667 11.916C6.605 11.916 7.47 11.761 8.16667 11.4993M12.3333 9.83268C10.0325 9.83268 8.16667 8.89935 8.16667 7.74935C8.16667 6.59935 10.0325 5.66602 12.3333 5.66602C14.6342 5.66602 16.5 6.59935 16.5 7.74935C16.5 8.89935 14.6342 9.83268 12.3333 9.83268Z"
        stroke="#A6BE93" stroke-width="1.25" stroke-linecap="round" stroke-linejoin="round" />
    <path
        d="M1.5 3.58398V12.7507C1.5 13.9007 3.36583 14.834 5.66667 14.834C6.605 14.834 7.47 14.679 8.16667 14.4173M8.16667 14.4173V7.75065M8.16667 14.4173C8.16667 15.5673 10.0325 16.5007 12.3333 16.5007C14.6342 16.5007 16.5 15.5673 16.5 14.4173V7.75065M9.83333 6.08398V3.58398"
        stroke="#A6BE93" stroke-width="1.25" stroke-linecap="round" stroke-linejoin="round" />
    <path
        d="M5.66667 5.66667C3.36583 5.66667 1.5 4.73333 1.5 3.58333C1.5 2.43333 3.36583 1.5 5.66667 1.5C7.9675 1.5 9.83333 2.43333 9.83333 3.58333C9.83333 4.73333 7.9675 5.66667 5.66667 5.66667Z"
        stroke="#A6BE93" stroke-width="1.25" stroke-linecap="round" stroke-linejoin="round" />
</svg>