<svg width="18" height="18" viewBox="0 0 18 18" fill="none" xmlns="http://www.w3.org/2000/svg">
<path d="M0.5 4C0.5 2.067 2.067 0.5 4 0.5H14C15.933 0.5 17.5 2.067 17.5 4V14C17.5 15.933 15.933 17.5 14 17.5H4C2.067 17.5 0.5 15.933 0.5 14V4Z" fill="#292F23"/>
<path d="M0.5 4C0.5 2.067 2.067 0.5 4 0.5H14C15.933 0.5 17.5 2.067 17.5 4V14C17.5 15.933 15.933 17.5 14 17.5H4C2.067 17.5 0.5 15.933 0.5 14V4Z" stroke="#D7F5BF"/>
<path d="M13.9191 3.77546L3.88125 8.15046C3.70352 8.23523 3.70898 8.48953 3.88945 8.56882L6.60469 10.1028C6.76602 10.193 6.96562 10.1739 7.10508 10.0536L12.459 5.43796C12.4945 5.40789 12.5793 5.35046 12.6121 5.38328C12.6477 5.41882 12.593 5.50085 12.5629 5.5364L7.93086 10.7536C7.80234 10.8985 7.7832 11.1118 7.88711 11.2759L9.66172 14.1223C9.74922 14.2946 9.99805 14.2919 10.0773 14.1169L14.2281 4.07898C14.3184 3.8821 14.1133 3.6825 13.9191 3.77546Z" fill="#D7F5BF"/>
</svg>
