<svg width="18" height="18" viewBox="0 0 18 18" fill="none" xmlns="http://www.w3.org/2000/svg">
<path d="M0.5 4C0.5 2.067 2.067 0.5 4 0.5H14C15.933 0.5 17.5 2.067 17.5 4V14C17.5 15.933 15.933 17.5 14 17.5H4C2.067 17.5 0.5 15.933 0.5 14V4Z" fill="#EEF9E5"/>
<path d="M0.5 4C0.5 2.067 2.067 0.5 4 0.5H14C15.933 0.5 17.5 2.067 17.5 4V14C17.5 15.933 15.933 17.5 14 17.5H4C2.067 17.5 0.5 15.933 0.5 14V4Z" stroke="#2F5711"/>
<path d="M13.9182 3.77546L3.88027 8.15046C3.70254 8.23523 3.70801 8.48953 3.88848 8.56882L6.60371 10.1028C6.76504 10.193 6.96465 10.1739 7.1041 10.0536L12.458 5.43796C12.4936 5.40789 12.5783 5.35046 12.6111 5.38328C12.6467 5.41882 12.592 5.50085 12.5619 5.5364L7.92988 10.7536C7.80137 10.8985 7.78223 11.1118 7.88613 11.2759L9.66074 14.1223C9.74824 14.2946 9.99707 14.2919 10.0764 14.1169L14.2271 4.07898C14.3174 3.8821 14.1123 3.6825 13.9182 3.77546Z" fill="#2F5711"/>
</svg>
