<svg width="15" height="16" viewBox="0 0 15 16" fill="none" xmlns="http://www.w3.org/2000/svg">
<path d="M1.70829 6.12647C1.97282 5.30967 2.40737 4.55818 2.98332 3.92147C3.03093 3.86886 3.0931 3.83158 3.16193 3.81438C3.23076 3.79717 3.30315 3.8008 3.36992 3.82482L4.74303 4.31594C4.84078 4.35084 4.94495 4.36407 5.04833 4.35471C5.1517 4.34536 5.25181 4.31363 5.3417 4.26174C5.43159 4.20984 5.50913 4.13902 5.56893 4.05419C5.62873 3.96935 5.66937 3.87252 5.68803 3.77041L5.94934 2.3343C5.96199 2.26439 5.99516 2.19983 6.04463 2.14883C6.09409 2.09784 6.15762 2.06271 6.22711 2.04794C7.06605 1.86923 7.93322 1.86923 8.77216 2.04794C8.84166 2.06271 8.90518 2.09784 8.95464 2.14883C9.00411 2.19983 9.03728 2.26439 9.04994 2.3343L9.31196 3.77041C9.33062 3.87252 9.37126 3.96935 9.43106 4.05419C9.49086 4.13902 9.56839 4.20984 9.65829 4.26174C9.74818 4.31363 9.84829 4.34536 9.95166 4.35471C10.055 4.36407 10.1592 4.35084 10.257 4.31594L11.6308 3.82482C11.6975 3.80104 11.7698 3.7976 11.8385 3.81494C11.9072 3.83227 11.9692 3.86959 12.0167 3.92219C12.5923 4.55875 13.0266 5.30999 13.291 6.12647C13.3128 6.19391 13.3141 6.26631 13.2947 6.3345C13.2754 6.40269 13.2362 6.46359 13.1822 6.50948L12.0689 7.45448C11.9898 7.52169 11.9263 7.60529 11.8828 7.69948C11.8392 7.79368 11.8166 7.89622 11.8166 8C11.8166 8.10379 11.8392 8.20633 11.8828 8.30052C11.9263 8.39472 11.9898 8.47832 12.0689 8.54553L13.1822 9.49053C13.2362 9.53642 13.2754 9.59732 13.2947 9.6655C13.3141 9.73369 13.3128 9.80609 13.291 9.87354C13.0267 10.6903 12.5924 11.4418 12.0167 12.0785C11.9691 12.1311 11.9069 12.1684 11.8381 12.1856C11.7692 12.2028 11.6968 12.1992 11.6301 12.1752L10.257 11.6841C10.1592 11.6492 10.055 11.6359 9.95166 11.6453C9.84829 11.6546 9.74818 11.6864 9.65829 11.7383C9.56839 11.7902 9.49086 11.861 9.43106 11.9458C9.37126 12.0307 9.33062 12.1275 9.31196 12.2296L9.04922 13.6664C9.03649 13.7361 9.00336 13.8004 8.95404 13.8513C8.90472 13.9021 8.84143 13.9372 8.77216 13.9521C7.93323 14.1308 7.06605 14.1308 6.22711 13.9521C6.15762 13.9373 6.09409 13.9022 6.04463 13.8512C5.99516 13.8002 5.96199 13.7356 5.94934 13.6657L5.68803 12.2296C5.66937 12.1275 5.62873 12.0307 5.56893 11.9458C5.50913 11.861 5.43159 11.7902 5.3417 11.7383C5.25181 11.6864 5.1517 11.6546 5.04833 11.6453C4.94495 11.6359 4.84078 11.6492 4.74303 11.6841L3.3692 12.1752C3.30246 12.199 3.23018 12.2024 3.16148 12.1851C3.09279 12.1677 3.03079 12.1304 2.98332 12.0778C2.40769 11.4413 1.97339 10.69 1.70901 9.87354C1.68718 9.80609 1.68587 9.73369 1.70525 9.6655C1.72462 9.59732 1.7638 9.53642 1.81782 9.49053L2.93106 8.54553C3.01015 8.47832 3.07367 8.39472 3.11724 8.30052C3.1608 8.20633 3.18337 8.10379 3.18337 8C3.18337 7.89622 3.1608 7.79368 3.11724 7.69948C3.07367 7.60529 3.01015 7.52169 2.93106 7.45448L1.81782 6.50948C1.7638 6.46359 1.72462 6.40269 1.70525 6.3345C1.68587 6.26631 1.68718 6.19391 1.70901 6.12647H1.70829ZM6.06818 8C6.06818 8.37974 6.21903 8.74393 6.48755 9.01245C6.75606 9.28097 7.12025 9.43182 7.49999 9.43182C7.87974 9.43182 8.24392 9.28097 8.51244 9.01245C8.78096 8.74393 8.93181 8.37974 8.93181 8C8.93181 7.62026 8.78096 7.25607 8.51244 6.98756C8.24392 6.71904 7.87974 6.56818 7.49999 6.56818C7.12025 6.56818 6.75606 6.71904 6.48755 6.98756C6.21903 7.25607 6.06818 7.62026 6.06818 8Z" fill="#BDC3D3"/>
</svg>
