<svg width="24" height="25" viewBox="0 0 24 25" fill="none" xmlns="http://www.w3.org/2000/svg">
<path d="M12 5.5C7.45455 5.5 3.57273 8.32727 2 12.3182C3.57273 16.3091 7.45455 19.1364 12 19.1364C16.5455 19.1364 20.4273 16.3091 22 12.3182C20.4273 8.32727 16.5455 5.5 12 5.5ZM12 16.8636C9.49091 16.8636 7.45455 14.8273 7.45455 12.3182C7.45455 9.80909 9.49091 7.77273 12 7.77273C14.5091 7.77273 16.5455 9.80909 16.5455 12.3182C16.5455 14.8273 14.5091 16.8636 12 16.8636ZM12 9.59091C10.4909 9.59091 9.27273 10.8091 9.27273 12.3182C9.27273 13.8273 10.4909 15.0455 12 15.0455C13.5091 15.0455 14.7273 13.8273 14.7273 12.3182C14.7273 10.8091 13.5091 9.59091 12 9.59091Z" fill="#979797"/>
</svg>
