<svg width="24" height="24" viewBox="0 0 24 24" fill="none" xmlns="http://www.w3.org/2000/svg">
<path d="M19 21H5C4.46957 21 3.96086 20.7893 3.58579 20.4142C3.21071 20.0391 3 19.5304 3 19V5C3 4.46957 3.21071 3.96086 3.58579 3.58579C3.96086 3.21071 4.46957 3 5 3H19C19.5304 3 20.0391 3.21071 20.4142 3.58579C20.7893 3.96086 21 4.46957 21 5V19C21 19.5304 20.7893 20.0391 20.4142 20.4142C20.0391 20.7893 19.5304 21 19 21Z" stroke="#979995" stroke-width="1.5"/>
<path d="M3 15H9.4C9.731 15 10.005 15.278 10.15 15.576C10.356 15.999 10.844 16.5 12 16.5C13.156 16.5 13.644 16 13.85 15.576C13.995 15.278 14.269 15 14.6 15H21M3 7H21M3 11H21" stroke="#979995" stroke-width="1.5"/>
</svg>
