<svg width="22" height="22" viewBox="0 0 22 22" fill="none" xmlns="http://www.w3.org/2000/svg">
<path d="M8 19C5.76667 19 3.875 18.225 2.325 16.675C0.775 15.125 0 13.2333 0 11C0 8.76667 0.775 6.875 2.325 5.325C3.875 3.775 5.76667 3 8 3C10.2333 3 12.125 3.775 13.675 5.325C15.225 6.875 16 8.76667 16 11C16 13.2333 15.225 15.125 13.675 16.675C12.125 18.225 10.2333 19 8 19ZM7 14.5H9V9.5H11V8H5V9.5H7V14.5ZM18 8L16.75 5.25L14 4L16.75 2.75L18 0L19.25 2.75L22 4L19.25 5.25L18 8ZM18 22L16.75 19.25L14 18L16.75 16.75L18 14L19.25 16.75L22 18L19.25 19.25L18 22Z" fill="#FCD162"/>
</svg>
