<svg width="16" height="16" viewBox="0 0 16 16" fill="none" xmlns="http://www.w3.org/2000/svg">
<path fill-rule="evenodd" clip-rule="evenodd" d="M7.9987 14.6654C11.6806 14.6654 14.6654 11.6806 14.6654 7.9987C14.6654 4.3168 11.6806 1.33203 7.9987 1.33203C4.3168 1.33203 1.33203 4.3168 1.33203 7.9987C1.33203 11.6806 4.3168 14.6654 7.9987 14.6654ZM11.8034 6.4701C12.0638 6.20975 12.0638 5.78764 11.8034 5.52729C11.5431 5.26694 11.121 5.26694 10.8606 5.52729L7.33203 9.05589L5.80344 7.52729C5.54309 7.26694 5.12098 7.26694 4.86063 7.52729C4.60028 7.78764 4.60028 8.20975 4.86063 8.4701L6.86063 10.4701C7.12098 10.7305 7.54309 10.7305 7.80344 10.4701L11.8034 6.4701Z" fill="#06C958"/>
</svg>
