<svg width="29" height="29" viewBox="0 0 29 29" fill="none" xmlns="http://www.w3.org/2000/svg">
<path fill-rule="evenodd" clip-rule="evenodd" d="M27.6678 6.30312C27.8754 6.48517 27.8962 6.80107 27.7141 7.0087L24.7474 10.3923L21.3638 7.42561C21.1562 7.24356 21.1354 6.92766 21.3175 6.72003C21.4995 6.51239 21.8154 6.49165 22.0231 6.6737L24.6548 8.98113L26.9622 6.34944C27.1442 6.1418 27.4601 6.12107 27.6678 6.30312Z" fill="#B7B7B7"/>
<path fill-rule="evenodd" clip-rule="evenodd" d="M16.6473 0.970654C16.6635 0.694988 16.9001 0.484662 17.1758 0.500878C20.7278 0.709822 22.84 2.24835 23.9978 4.13888C25.1373 5.99937 25.3197 8.14497 25.1426 9.56203C25.1083 9.83604 24.8584 10.0304 24.5844 9.99615C24.3104 9.9619 24.116 9.71201 24.1503 9.438C24.3065 8.1884 24.1389 6.28399 23.1451 4.66115C22.1695 3.06834 20.365 1.69021 17.1171 1.49915C16.8414 1.48294 16.6311 1.24632 16.6473 0.970654Z" fill="#B7B7B7"/>
<path fill-rule="evenodd" clip-rule="evenodd" d="M19.0652 11.7996C14.7659 11.7996 11.2806 15.2848 11.2806 19.5841C11.2806 23.8834 14.7659 27.3687 19.0652 27.3687C23.3645 27.3687 26.8497 23.8834 26.8497 19.5841C26.8497 15.2848 23.3645 11.7996 19.0652 11.7996ZM10.2806 19.5841C10.2806 14.7325 14.2136 10.7996 19.0652 10.7996C23.9168 10.7996 27.8497 14.7325 27.8497 19.5841C27.8497 24.4357 23.9168 28.3687 19.0652 28.3687C14.2136 28.3687 10.2806 24.4357 10.2806 19.5841Z" fill="#B7B7B7"/>
<path d="M16.9307 16.7741H15.7843L13.7276 22.3936H14.4806L15.0201 20.8876H17.6163L18.122 22.3936H18.9537L16.9307 16.7741ZM15.2336 20.3032L16.2564 17.4484H16.4474L17.414 20.3032H15.2336Z" fill="#B7B7B7"/>
<path d="M22.4266 17.336V21.8316H24.0001V22.3935H20.0664V21.8316H21.6623V17.336H20.0664V16.774H24.0001V17.336H22.4266Z" fill="#B7B7B7"/>
<path d="M16.6603 8.46859C15.5036 5.28722 12.4532 3.01501 8.87202 3.01501C4.29658 3.01501 0.587463 6.72414 0.587463 11.2996C0.587463 15.5955 3.85721 19.1277 8.04376 19.5432" stroke="#B7B7B7" stroke-linecap="round"/>
<path d="M7.79804 17.1228C8.06966 17.1726 8.33022 16.9928 8.38002 16.7212C8.42982 16.4496 8.25 16.189 7.97838 16.1392L7.79804 17.1228ZM13.2303 9.01365C13.3588 9.25807 13.6611 9.35205 13.9056 9.22355C14.15 9.09506 14.244 8.79275 14.1155 8.54832L13.2303 9.01365ZM7.15663 15.9129C6.89782 15.8167 6.60996 15.9484 6.51368 16.2072C6.4174 16.466 6.54916 16.7539 6.80798 16.8502L7.15663 15.9129ZM5.0438 15.816C5.25437 15.9946 5.56989 15.9688 5.74854 15.7582C5.92718 15.5476 5.90131 15.2321 5.69074 15.0535L5.0438 15.816ZM4.60245 13.7472C4.46487 13.5077 4.15925 13.4252 3.91982 13.5628C3.68039 13.7003 3.59782 14.006 3.7354 14.2454L4.60245 13.7472ZM3.03958 12.3217C3.08695 12.5938 3.34589 12.7759 3.61794 12.7285C3.88999 12.6812 4.07213 12.4222 4.02475 12.1502L3.03958 12.3217ZM4.04527 10.3388C4.09886 10.0679 3.9227 9.8049 3.65181 9.75131C3.38091 9.69772 3.11787 9.87388 3.06428 10.1448L4.04527 10.3388ZM3.9491 8.00985C3.79547 8.23931 3.85695 8.54987 4.08642 8.70349C4.31589 8.85712 4.62644 8.79563 4.78006 8.56617L3.9491 8.00985ZM6.13849 7.20774C6.36796 7.05411 6.42944 6.74356 6.27582 6.51409C6.1222 6.28463 5.81164 6.22315 5.58218 6.37677L6.13849 7.20774ZM7.7171 5.49195C7.44621 5.54554 7.27005 5.80859 7.32364 6.07948C7.37723 6.35037 7.64028 6.52653 7.91117 6.47294L7.7171 5.49195ZM10.1942 6.55882C10.4602 6.63284 10.7359 6.47718 10.8099 6.21115C10.8839 5.94511 10.7283 5.66944 10.4622 5.59542L10.1942 6.55882ZM13.1833 7.24209C12.994 7.04103 12.6776 7.0315 12.4765 7.22079C12.2754 7.41007 12.2659 7.72651 12.4552 7.92757L13.1833 7.24209ZM7.97838 16.1392C7.69519 16.0873 7.42055 16.0111 7.15663 15.9129L6.80798 16.8502C7.12602 16.9685 7.45696 17.0603 7.79804 17.1228L7.97838 16.1392ZM5.69074 15.0535C5.25677 14.6853 4.88753 14.2433 4.60245 13.7472L3.7354 14.2454C4.07842 14.8423 4.52233 15.3736 5.0438 15.816L5.69074 15.0535ZM4.02475 12.1502C3.97671 11.8742 3.9516 11.5901 3.9516 11.2997H2.9516C2.9516 11.6478 2.98171 11.9894 3.03958 12.3217L4.02475 12.1502ZM3.9516 11.2997C3.9516 10.9704 3.98387 10.6492 4.04527 10.3388L3.06428 10.1448C2.9903 10.5187 2.9516 10.9049 2.9516 11.2997H3.9516ZM4.78006 8.56617C5.13944 8.02938 5.6017 7.56711 6.13849 7.20774L5.58218 6.37677C4.93676 6.80886 4.38119 7.36444 3.9491 8.00985L4.78006 8.56617ZM7.91117 6.47294C8.22152 6.41154 8.54274 6.37927 8.87199 6.37927V5.37927C8.47723 5.37927 8.09102 5.41798 7.7171 5.49195L7.91117 6.47294ZM8.87199 6.37927C9.33073 6.37927 9.77403 6.44192 10.1942 6.55882L10.4622 5.59542C9.95564 5.45446 9.42219 5.37927 8.87199 5.37927V6.37927ZM12.4552 7.92757C12.7602 8.25153 13.0217 8.61669 13.2303 9.01365L14.1155 8.54832C13.8643 8.07048 13.5498 7.63138 13.1833 7.24209L12.4552 7.92757Z" fill="#B7B7B7"/>
</svg>
