<svg width="29" height="29" viewBox="0 0 29 29" fill="none" xmlns="http://www.w3.org/2000/svg">
<path fill-rule="evenodd" clip-rule="evenodd" d="M27.6678 6.30263C27.8754 6.48468 27.8962 6.80058 27.7141 7.00822L24.7474 10.3918L21.3638 7.42513C21.1562 7.24307 21.1354 6.92717 21.3175 6.71954C21.4995 6.5119 21.8154 6.49116 22.0231 6.67321L24.6548 8.98064L26.9622 6.34895C27.1442 6.14132 27.4601 6.12058 27.6678 6.30263Z" fill="#EBEBEB"/>
<path fill-rule="evenodd" clip-rule="evenodd" d="M16.6474 0.970654C16.6636 0.694988 16.9002 0.484662 17.1759 0.500878C20.7279 0.709822 22.8401 2.24835 23.9979 4.13888C25.1373 5.99937 25.3198 8.14497 25.1426 9.56203C25.1084 9.83604 24.8585 10.0304 24.5845 9.99615C24.3105 9.9619 24.1161 9.71201 24.1504 9.438C24.3066 8.1884 24.139 6.28399 23.1451 4.66115C22.1696 3.06834 20.3651 1.69021 17.1171 1.49915C16.8415 1.48294 16.6311 1.24632 16.6474 0.970654Z" fill="#EBEBEB"/>
<path fill-rule="evenodd" clip-rule="evenodd" d="M19.0658 11.7988C14.7665 11.7988 11.2812 15.2841 11.2812 19.5834C11.2812 23.8827 14.7665 27.3679 19.0658 27.3679C23.3651 27.3679 26.8504 23.8827 26.8504 19.5834C26.8504 15.2841 23.3651 11.7988 19.0658 11.7988ZM10.2812 19.5834C10.2812 14.7318 14.2142 10.7988 19.0658 10.7988C23.9174 10.7988 27.8504 14.7318 27.8504 19.5834C27.8504 24.435 23.9174 28.3679 19.0658 28.3679C14.2142 28.3679 10.2812 24.435 10.2812 19.5834Z" fill="#EBEBEB"/>
<path d="M16.9307 16.7734H15.7843L13.7275 22.3929H14.4806L15.02 20.8869H17.6162L18.122 22.3929H18.9537L16.9307 16.7734ZM15.2336 20.3025L16.2563 17.4478H16.4474L17.4139 20.3025H15.2336Z" fill="#EBEBEB"/>
<path d="M22.4266 17.3354V21.831H24.0001V22.3929H20.0664V21.831H21.6623V17.3354H20.0664V16.7734H24.0001V17.3354H22.4266Z" fill="#EBEBEB"/>
<path fill-rule="evenodd" clip-rule="evenodd" d="M8.87244 3.51562C4.57315 3.51562 1.08789 7.00089 1.08789 11.3002C1.08789 15.3365 4.16023 18.6559 8.09357 19.0463C8.36837 19.0736 8.56902 19.3184 8.54174 19.5932C8.51447 19.868 8.26959 20.0687 7.9948 20.0414C3.55505 19.6007 0.0878906 15.8556 0.0878906 11.3002C0.0878906 6.4486 4.02087 2.51562 8.87244 2.51562C12.6705 2.51562 15.9044 4.92571 17.1306 8.29835C17.2249 8.55787 17.0911 8.84475 16.8315 8.9391C16.572 9.03346 16.2851 8.89957 16.1908 8.64004C15.1037 5.64996 12.2367 3.51562 8.87244 3.51562Z" fill="#EBEBEB"/>
<path fill-rule="evenodd" clip-rule="evenodd" d="M8.87254 6.37891C8.54329 6.37891 8.22207 6.41118 7.91172 6.47257C7.64083 6.52616 7.37778 6.35001 7.32419 6.07911C7.2706 5.80822 7.44676 5.54517 7.71765 5.49158C8.09157 5.41761 8.47778 5.37891 8.87254 5.37891C9.42274 5.37891 9.95619 5.45409 10.4628 5.59505C10.7288 5.66907 10.8845 5.94474 10.8105 6.21078C10.7364 6.47682 10.4608 6.63247 10.1947 6.55845C9.77458 6.44155 9.33128 6.37891 8.87254 6.37891ZM6.27637 6.51373C6.42999 6.74319 6.36851 7.05375 6.13904 7.20737C5.60225 7.56674 5.13999 8.02901 4.78061 8.5658C4.62699 8.79527 4.31644 8.85675 4.08697 8.70313C3.8575 8.5495 3.79602 8.23895 3.94965 8.00948C4.38174 7.36407 4.93731 6.8085 5.58272 6.3764C5.81219 6.22278 6.12275 6.28426 6.27637 6.51373ZM12.4771 7.22042C12.6781 7.03113 12.9945 7.04067 13.1838 7.24173C13.5503 7.63102 13.8648 8.07011 14.116 8.54796C14.2445 8.79238 14.1505 9.09469 13.9061 9.22319C13.6617 9.35168 13.3594 9.2577 13.2309 9.01328C13.0222 8.61633 12.7607 8.25117 12.4557 7.9272C12.2665 7.72615 12.276 7.40971 12.4771 7.22042ZM3.65235 9.75095C3.92325 9.80454 4.0994 10.0676 4.04581 10.3385C3.98442 10.6488 3.95215 10.97 3.95215 11.2993C3.95215 11.5897 3.97726 11.8739 4.0253 12.1498C4.07267 12.4219 3.89054 12.6808 3.61849 12.7282C3.34644 12.7755 3.0875 12.5934 3.04013 12.3214C2.98226 11.989 2.95215 11.6475 2.95215 11.2993C2.95215 10.9045 2.99085 10.5183 3.06483 10.1444C3.11842 9.87351 3.38146 9.69736 3.65235 9.75095ZM3.92037 13.5624C4.1598 13.4248 4.46542 13.5074 4.603 13.7468C4.88808 14.2429 5.25732 14.6849 5.69129 15.0531C5.90186 15.2317 5.92773 15.5473 5.74909 15.7578C5.57044 15.9684 5.25491 15.9943 5.04435 15.8156C4.52288 15.3732 4.07897 14.842 3.73595 14.245C3.59837 14.0056 3.68094 13.7 3.92037 13.5624ZM6.51423 16.2069C6.61051 15.9481 6.89837 15.8163 7.15718 15.9126C7.4211 16.0107 7.69574 16.0869 7.97893 16.1388C8.25055 16.1886 8.43036 16.4492 8.38057 16.7208C8.33077 16.9924 8.07021 17.1722 7.79859 17.1224C7.45751 17.0599 7.12657 16.9681 6.80853 16.8498C6.54971 16.7535 6.41795 16.4657 6.51423 16.2069Z" fill="#EBEBEB"/>
</svg>
