<svg width="18" height="18" viewBox="0 0 18 18" fill="none" xmlns="http://www.w3.org/2000/svg">
<path d="M10.8594 1.53186L10.8594 17.0035C10.8594 17.1014 10.9431 17.1814 11.0454 17.1814L12.44 17.1814C12.5423 17.1814 12.626 17.1014 12.626 17.0035L12.626 3.54836L16.8796 6.75652C17.0004 6.84768 17.1818 6.76542 17.1818 6.61646L17.1818 5.00459C17.1818 4.89565 17.1306 4.79338 17.04 4.72446L12.0635 0.971597C11.5753 0.604759 10.8594 0.936025 10.8594 1.53186ZM5.3739 0.996053L5.3739 14.4512L1.12028 11.2431C0.999417 11.1519 0.818115 11.2342 0.818115 11.3831L0.818115 12.995C0.818115 13.1039 0.869252 13.2062 0.959902 13.2751L5.9364 17.028C6.42452 17.3948 7.14043 17.0636 7.14043 16.47L7.14043 0.996053C7.14043 0.898229 7.05675 0.818193 6.95448 0.818193L5.55985 0.818193C5.45758 0.818193 5.3739 0.898229 5.3739 0.996053Z" fill="white"/>
</svg>
