<svg width="64" height="64" xmlns="http://www.w3.org/2000/svg" viewBox="0 0 44 44"><defs><style>.cls-1,.cls-2{fill:#c4a8ff;}.cls-1{opacity:0.2;}.cls-3{fill:#d6c2ff;}.cls-4{fill:#9567f3;}</style></defs><g data-name="Layer 2"><g data-name="Layer 1"><path class="cls-1" d="M22,0A22,22,0,1,0,44,22,22,22,0,0,0,22,0Zm0,34.24A12.24,12.24,0,1,1,34.24,22,12.24,12.24,0,0,1,22,34.24Z"/><path class="cls-2" d="M44,22H34.24A12.24,12.24,0,0,0,23.55,9.86,11.21,11.21,0,0,0,22,9.76V0A22,22,0,0,1,42.71,14.55,22.28,22.28,0,0,1,43.79,19,21.8,21.8,0,0,1,44,22Z"/><path class="cls-3" d="M42.71,14.55C35.44.43,24.08,1.91,24.08,1.91V9.32l-.53.54A11.21,11.21,0,0,0,22,9.76V0A22,22,0,0,1,42.71,14.55Z"/><path class="cls-4" d="M43.79,19A21.8,21.8,0,0,1,44,22H34.24A12.24,12.24,0,0,0,23.55,9.86,11.21,11.21,0,0,0,22,9.76V6.6A11.28,11.28,0,0,1,24.08,7c8.61,2.16,10.44,12.11,10.44,12.11S41.18,19,43.79,19Z"/></g></g></svg>