<svg width="64" height="64" viewBox="0 0 64 64" fill="none" xmlns="http://www.w3.org/2000/svg">
<g clip-path="url(#clip0_3024_35391)">
<g filter="url(#filter0_dii_3024_35391)">
<path fill-rule="evenodd" clip-rule="evenodd" d="M40.3124 50.8182L41.2137 40.9336H36.1983L37.8577 22.7347H24.7608L23.9841 31.2529H27.1122L26.2295 40.9336H23.4998L22.5985 50.8182H40.3124ZM37.4966 7.98313C36.5833 7.34146 35.4736 7 34.3081 7C32.7455 7 31.1875 7.61322 29.9774 8.71017C28.7667 9.80768 28.0035 11.2999 27.8613 12.8594C27.7553 14.0221 28.0007 15.1573 28.5647 16.1213C29.1285 17.0851 29.9848 17.8337 31.0229 18.2751C32.0609 18.7164 33.2359 18.8316 34.4 18.6069C35.5641 18.3821 36.6676 17.8268 37.5701 17.0087C38.4729 16.1903 39.1341 15.1456 39.4675 14.0057C39.8009 12.8657 39.7907 11.6843 39.4388 10.6115C39.087 9.53894 38.4102 8.62493 37.4966 7.98313ZM30.5429 14.9669C30.5287 14.944 30.5148 14.9209 30.5011 14.8975C30.1482 14.2942 29.9951 13.585 30.0613 12.8594C30.1167 12.2513 30.3235 11.6588 30.6561 11.132C30.3235 11.6588 30.1167 12.2513 30.0613 12.8594C29.9951 13.585 30.1482 14.2942 30.5011 14.8975C30.5148 14.9209 30.5287 14.944 30.5429 14.9669Z" fill="#17A5E1"/>
</g>
</g>
<defs>
<filter id="filter0_dii_3024_35391" x="12.5984" y="-3" width="38.6152" height="63.8181" filterUnits="userSpaceOnUse" color-interpolation-filters="sRGB">
<feFlood flood-opacity="0" result="BackgroundImageFix"/>
<feColorMatrix in="SourceAlpha" type="matrix" values="0 0 0 0 0 0 0 0 0 0 0 0 0 0 0 0 0 0 127 0" result="hardAlpha"/>
<feOffset/>
<feGaussianBlur stdDeviation="5"/>
<feComposite in2="hardAlpha" operator="out"/>
<feColorMatrix type="matrix" values="0 0 0 0 0.15 0 0 0 0 0.49 0 0 0 0 1 0 0 0 0.5 0"/>
<feBlend mode="normal" in2="BackgroundImageFix" result="effect1_dropShadow_3024_35391"/>
<feBlend mode="normal" in="SourceGraphic" in2="effect1_dropShadow_3024_35391" result="shape"/>
<feColorMatrix in="SourceAlpha" type="matrix" values="0 0 0 0 0 0 0 0 0 0 0 0 0 0 0 0 0 0 127 0" result="hardAlpha"/>
<feOffset dx="2" dy="2"/>
<feComposite in2="hardAlpha" operator="arithmetic" k2="-1" k3="1"/>
<feColorMatrix type="matrix" values="0 0 0 0 0.254028 0 0 0 0 0.766708 0 0 0 0 0.983333 0 0 0 1 0"/>
<feBlend mode="normal" in2="shape" result="effect2_innerShadow_3024_35391"/>
<feColorMatrix in="SourceAlpha" type="matrix" values="0 0 0 0 0 0 0 0 0 0 0 0 0 0 0 0 0 0 127 0" result="hardAlpha"/>
<feOffset dy="-3"/>
<feComposite in2="hardAlpha" operator="arithmetic" k2="-1" k3="1"/>
<feColorMatrix type="matrix" values="0 0 0 0 0.0305555 0 0 0 0 0.524588 0 0 0 0 0.733333 0 0 0 1 0"/>
<feBlend mode="normal" in2="effect2_innerShadow_3024_35391" result="effect3_innerShadow_3024_35391"/>
</filter>
<clipPath id="clip0_3024_35391">
<rect width="64" height="64" rx="32" fill="white"/>
</clipPath>
</defs>
</svg>
