<svg width="55" height="55" viewBox="0 0 55 55" fill="none" xmlns="http://www.w3.org/2000/svg">
<g filter="url(#filter0_d_4997_9054)">
<path d="M24.6901 19.8669C24.262 20.9827 23.623 22.0014 22.8097 22.8648C21.9963 23.7283 21.0245 24.4196 19.9497 24.8992C17.7791 25.8678 15.3208 25.9156 13.1157 25.0319C10.9107 24.1483 9.13939 22.4057 8.19156 20.1874C7.24373 17.9691 7.197 15.4569 8.06165 13.2034L12.6155 17.822C12.7813 17.9918 12.9783 18.1264 13.1951 18.2183C13.4119 18.3102 13.6443 18.3575 13.879 18.3575C14.1137 18.3575 14.3462 18.3102 14.563 18.2183C14.7798 18.1264 14.9767 17.9918 15.1426 17.822L17.6696 15.2395C17.8357 15.07 17.9675 14.8687 18.0574 14.6472C18.1473 14.4256 18.1936 14.1881 18.1936 13.9482C18.1936 13.7083 18.1473 13.4708 18.0574 13.2492C17.9675 13.0277 17.8357 12.8264 17.6696 12.6569L13.1157 8.03835C14.7331 7.39248 16.4997 7.24225 18.1993 7.60602C19.8989 7.96979 21.458 8.83179 22.6859 10.0866C23.9137 11.3415 24.7572 12.9348 25.1132 14.6717C25.4691 16.4087 25.3221 18.214 24.6901 19.8669Z" fill="#ABABAB"/>
<path d="M25.1821 18.0604C20.8697 26.6012 7.86361 23.3488 8.3121 13.4594L12.6245 17.8664C12.7903 18.0362 12.9872 18.1709 13.2041 18.2628C13.4209 18.3547 13.6533 18.402 13.888 18.402C14.1227 18.402 14.3551 18.3547 14.5719 18.2628C14.7887 18.1709 14.9857 18.0362 15.1515 17.8664L17.6786 15.2839C17.9432 15.0147 18.1182 14.6672 18.1785 14.2906C18.2389 13.914 18.1817 13.5276 18.0149 13.1862C17.8511 12.816 18.0149 13.0187 13.1592 8.0828C14.6253 7.50778 16.2139 7.33782 17.7648 7.59003C19.3157 7.84224 20.7741 8.50771 21.9932 9.5194C23.2123 10.5311 24.1489 11.8533 24.7088 13.3527C25.2686 14.8522 25.4319 16.4759 25.1821 18.0604Z" fill="#ECEBEC"/>
<path d="M47.1112 44.0266C47.1624 44.7697 46.9903 45.511 46.6181 46.1514C46.2458 46.7919 45.6911 47.3009 45.0281 47.6104C44.3652 47.92 43.6255 48.0153 42.9081 47.8836C42.1907 47.7519 41.5297 47.3996 41.0135 46.8736L19.6328 25.0323C20.7769 24.5718 21.8161 23.8756 22.6856 22.987C23.5551 22.0984 24.2363 21.0364 24.6869 19.8672C47.6977 43.3832 46.9646 42.1492 47.1112 44.0266Z" fill="#ABABAB"/>
<path d="M47.1111 44.0266C46.7922 44.4104 46.3987 44.7222 45.9556 44.9423C45.5125 45.1623 45.0295 45.2858 44.5372 45.3048C44.0449 45.3239 43.5541 45.2381 43.0959 45.053C42.6378 44.8678 42.2223 44.5874 41.8759 44.2294L21.832 23.7542C23.1116 22.7478 24.0986 21.4039 24.6868 19.8672C47.9736 43.6829 46.9645 42.1228 47.1111 44.0266Z" fill="#ECEBEC"/>
<path d="M47.1138 10.0485L44.5264 13.9796L41.939 15.337L39.3516 12.6928C40.076 11.2208 39.7914 11.8113 40.6366 10.0485L44.5264 7.4043L47.1138 10.0485Z" fill="#ABABAB"/>
<path d="M46.4248 9.32577C44.9154 11.6439 44.6998 12.1198 43.8374 12.5694C43.2905 12.849 42.6715 12.9459 42.0679 12.8462C41.4642 12.7466 40.9065 12.4554 40.4737 12.0141L39.9648 11.494L40.6807 10.0485L44.5273 7.4043L46.4248 9.32577Z" fill="#ECEBEC"/>
<path d="M41.9387 15.3376L23.982 33.6709L21.3945 31.0267L39.3944 12.6934L41.9387 15.3376Z" fill="#ABABAB"/>
<path d="M40.6688 13.9705L25.2564 29.7213C25.0883 29.8983 24.8872 30.039 24.665 30.1351C24.4428 30.2312 24.2039 30.2807 23.9626 30.2807C23.7213 30.2807 23.4825 30.2312 23.2603 30.1351C23.038 30.039 22.837 29.8983 22.6689 29.7213C22.5827 29.6332 21.9272 30.4793 39.3578 12.666L40.6688 13.9705Z" fill="#ECEBEC"/>
<path d="M25.9114 35.6084L22.6944 37.5828L17.5195 32.2943L19.5118 29.0684L25.9114 35.6084Z" fill="#FFCC66"/>
<path d="M24.8364 34.5419C24.2253 34.9195 23.5078 35.0761 22.7992 34.9866C22.0906 34.897 21.432 34.5666 20.9294 34.0483L18.1953 31.2543L19.5149 29.0684L24.8364 34.5419Z" fill="#FFDE76"/>
<path d="M22.6963 37.6194L13.6489 46.8566C13.3091 47.2039 12.9058 47.4793 12.4618 47.6672C12.0179 47.8552 11.542 47.9519 11.0615 47.9519C10.581 47.9519 10.1052 47.8552 9.66121 47.6672C9.21726 47.4793 8.81387 47.2039 8.47409 46.8566C8.1343 46.5094 7.86477 46.0971 7.68088 45.6434C7.49699 45.1897 7.40234 44.7035 7.40234 44.2124C7.40234 43.7213 7.49699 43.235 7.68088 42.7813C7.86477 42.3276 8.1343 41.9154 8.47409 41.5682L17.5473 32.3574L22.6963 37.6194Z" fill="#FFCC66"/>
<path d="M21.4025 36.2964L13.6402 44.2291C13.2117 44.6687 12.6822 44.9915 12.1001 45.168C11.518 45.3444 10.9019 45.3689 10.3082 45.2391C9.71442 45.1093 9.162 44.8295 8.70144 44.4251C8.24089 44.0208 7.8869 43.5049 7.67188 42.9246C8.04274 41.8933 7.8185 42.3164 17.5386 32.3477L21.4025 36.2964Z" fill="#FFDE76"/>
<path d="M11.6909 44.4857C11.5214 44.485 11.3558 44.4332 11.2149 44.3369C11.074 44.2405 10.964 44.1039 10.8987 43.944C10.8333 43.7841 10.8155 43.6081 10.8475 43.438C10.8795 43.2678 10.9599 43.1111 11.0786 42.9873L16.9262 37.029C17.0922 36.9129 17.2927 36.8598 17.493 36.8788C17.6933 36.8978 17.8808 36.9878 18.0231 37.1332C18.1653 37.2785 18.2534 37.4701 18.272 37.6749C18.2906 37.8796 18.2386 38.0845 18.125 38.2542C11.6564 44.8824 12.1825 44.4857 11.6909 44.4857Z" fill="#F8834B"/>
<path d="M43.6644 45.3053C43.4931 45.3063 43.3253 45.2552 43.1826 45.1584C43.0398 45.0616 42.9285 44.9236 42.8628 44.7619C42.7971 44.6002 42.78 44.4222 42.8137 44.2505C42.8474 44.0789 42.9304 43.9214 43.052 43.7981C43.1524 43.6965 43.2757 43.6216 43.4111 43.5801C43.5464 43.5386 43.6897 43.5318 43.8282 43.5601C44.0371 43.6034 44.223 43.7243 44.3498 43.8993C44.4767 44.0744 44.5357 44.2913 44.5153 44.5081C44.4949 44.725 44.3967 44.9265 44.2396 45.0737C44.0824 45.2209 43.8775 45.3034 43.6644 45.3053Z" fill="#919191"/>
</g>
<defs>
<filter id="filter0_d_4997_9054" x="1.05619" y="1.05814" width="52.4111" height="53.2392" filterUnits="userSpaceOnUse" color-interpolation-filters="sRGB">
<feFlood flood-opacity="0" result="BackgroundImageFix"/>
<feColorMatrix in="SourceAlpha" type="matrix" values="0 0 0 0 0 0 0 0 0 0 0 0 0 0 0 0 0 0 127 0" result="hardAlpha"/>
<feOffset/>
<feGaussianBlur stdDeviation="3.17308"/>
<feComposite in2="hardAlpha" operator="out"/>
<feColorMatrix type="matrix" values="0 0 0 0 1 0 0 0 0 0.870588 0 0 0 0 0.462745 0 0 0 1 0"/>
<feBlend mode="normal" in2="BackgroundImageFix" result="effect1_dropShadow_4997_9054"/>
<feBlend mode="normal" in="SourceGraphic" in2="effect1_dropShadow_4997_9054" result="shape"/>
</filter>
</defs>
</svg>
