<svg width="44" height="44" viewBox="0 0 44 44" fill="none" xmlns="http://www.w3.org/2000/svg">
<rect y="44" width="44" height="44" rx="22" transform="rotate(-90 0 44)" fill="white"/>
<path d="M31.1275 24.2727H12.2177C12.0981 24.2727 12.0003 24.375 12.0003 24.5V26.2045C12.0003 26.3295 12.0981 26.4318 12.2177 26.4318H28.6629L24.7418 31.6307C24.6304 31.7784 24.7309 32 24.913 32H26.8831C27.0162 32 27.1412 31.9375 27.2254 31.8267L31.8123 25.7443C32.2606 25.1477 31.8558 24.2727 31.1275 24.2727ZM31.7824 17.5682H15.3372L19.2583 12.3693C19.3697 12.2216 19.2691 12 19.0871 12H17.117C16.9839 12 16.8589 12.0625 16.7746 12.1733L12.1878 18.2557C11.7394 18.8523 12.1443 19.7273 12.8698 19.7273H31.7824C31.9019 19.7273 31.9998 19.625 31.9998 19.5V17.7955C31.9998 17.6705 31.9019 17.5682 31.7824 17.5682Z" fill="black"/>
</svg>
