<svg width="28" height="28" viewBox="0 0 28 28" fill="none" xmlns="http://www.w3.org/2000/svg">
<g clip-path="url(#clip0_4783_71256)">
<mask id="mask0_4783_71256" style="mask-type:luminance" maskUnits="userSpaceOnUse" x="0" y="0" width="28" height="28">
<path d="M0 0H28V28H0V0Z" fill="white"/>
</mask>
<g mask="url(#mask0_4783_71256)">
<path d="M27.0216 17.8981C27.3908 16.6633 27.5887 15.3552 27.5887 14.0005C27.5887 6.49523 21.5048 0.411249 13.9995 0.411249C6.49414 0.411249 0.410156 6.49523 0.410156 14.0005C0.410156 21.5059 6.49414 27.5898 13.9995 27.5898C19.571 27.5898 24.36 24.237 26.4573 19.4381" stroke="#5D5D60" stroke-width="1.49414" stroke-miterlimit="10" stroke-linecap="round" stroke-linejoin="round"/>
<path d="M7.32797 6.07758C9.13047 4.55836 11.458 3.64289 13.9998 3.64289C19.7202 3.64289 24.3571 8.27984 24.3571 14.0002C24.3571 19.7205 19.7202 24.3574 13.9998 24.3574C8.27953 24.3574 3.64258 19.7205 3.64258 14.0002C3.64258 11.4074 4.59523 9.03727 6.16859 7.2211" fill="#858585"/>
<path d="M7.32797 6.07758C9.13047 4.55836 11.458 3.64289 13.9998 3.64289C19.7202 3.64289 24.3571 8.27985 24.3571 14.0002C24.3571 19.7205 19.7202 24.3574 13.9998 24.3574C8.27953 24.3574 3.64258 19.7205 3.64258 14.0002C3.64258 11.4074 4.59523 9.03727 6.16859 7.2211" stroke="#858585" stroke-width="1.49414" stroke-miterlimit="10" stroke-linecap="round" stroke-linejoin="round"/>
</g>
<path d="M12.8216 16.496V13.952C13.6856 13.9093 14.3469 13.728 14.8056 13.408C15.2749 13.0773 15.5096 12.592 15.5096 11.952V11.728C15.5096 11.2373 15.3602 10.8587 15.0616 10.592C14.7629 10.3147 14.3629 10.176 13.8616 10.176C13.3282 10.176 12.9016 10.3307 12.5816 10.64C12.2616 10.9493 12.0429 11.344 11.9256 11.824L10.4056 11.216C10.5016 10.8853 10.6402 10.5653 10.8216 10.256C11.0136 9.94667 11.2536 9.67467 11.5416 9.44C11.8296 9.19467 12.1709 9.00267 12.5656 8.864C12.9602 8.71467 13.4136 8.64 13.9256 8.64C14.4482 8.64 14.9229 8.71467 15.3496 8.864C15.7762 9.01333 16.1389 9.22667 16.4376 9.504C16.7362 9.77067 16.9656 10.1013 17.1256 10.496C17.2856 10.88 17.3656 11.3067 17.3656 11.776C17.3656 12.256 17.2802 12.688 17.1096 13.072C16.9496 13.4453 16.7309 13.7653 16.4536 14.032C16.1869 14.2987 15.8829 14.5173 15.5416 14.688C15.2002 14.848 14.8482 14.96 14.4856 15.024V16.496H12.8216ZM13.6696 20.192C13.2642 20.192 12.9656 20.096 12.7736 19.904C12.5922 19.7013 12.5016 19.4453 12.5016 19.136V18.864C12.5016 18.5547 12.5922 18.304 12.7736 18.112C12.9656 17.9093 13.2642 17.808 13.6696 17.808C14.0749 17.808 14.3682 17.9093 14.5496 18.112C14.7416 18.304 14.8376 18.5547 14.8376 18.864V19.136C14.8376 19.4453 14.7416 19.7013 14.5496 19.904C14.3682 20.096 14.0749 20.192 13.6696 20.192Z" fill="#2D2938"/>
</g>
<defs>
<clipPath id="clip0_4783_71256">
<rect width="28" height="28" fill="white"/>
</clipPath>
</defs>
</svg>
