   <svg
      xmlns="http://www.w3.org/2000/svg"
      width="24"
      height="24"
      viewBox="0 0 24 24"
      fill="none"
    >
      <path
        d="M12 24C18.6274 24 24 18.6274 24 12C24 5.37257 18.6274 0 12 0C5.37257 0 0 5.37257 0 12C0 18.6274 5.37257 24 12 24Z"
        fill="#0098EA"
      />
      <path
        d="M16.0518 7H7.94771C6.45766 7 5.51327 8.47334 6.26287 9.66441L11.2644 17.6109C11.5908 18.1297 12.4087 18.1297 12.7351 17.6109L17.7377 9.66441C18.4863 8.47524 17.5419 7 16.0528 7H16.0518ZM11.2603 15.2278L10.1711 13.2954L7.54284 8.98661C7.36946 8.71082 7.58361 8.35742 7.9467 8.35742H11.2593V15.2288L11.2603 15.2278ZM16.4546 8.98568L13.8274 13.2964L12.7382 15.2278V8.35648H16.0508C16.4139 8.35648 16.628 8.70989 16.4546 8.98568Z"
        fill="white"
      />
    </svg>