<svg width="20" height="20" viewBox="0 0 20 20" fill="none" xmlns="http://www.w3.org/2000/svg">
<g id="iconoir:trash">
<path id="Vector" d="M16.6667 7.49935L15.0042 16.9544C14.9363 17.3405 14.7346 17.6904 14.4343 17.9424C14.1341 18.1945 13.7545 18.3327 13.3625 18.3327H6.6375C6.24545 18.3327 5.86594 18.1945 5.56569 17.9424C5.26543 17.6904 5.06366 17.3405 4.99583 16.9544L3.33333 7.49935M17.5 4.99935H12.8125M12.8125 4.99935V3.33268C12.8125 2.89065 12.6369 2.46673 12.3243 2.15417C12.0118 1.84161 11.5879 1.66602 11.1458 1.66602H8.85417C8.41214 1.66602 7.98822 1.84161 7.67566 2.15417C7.36309 2.46673 7.1875 2.89065 7.1875 3.33268V4.99935M12.8125 4.99935H7.1875M2.5 4.99935H7.1875" stroke="#E01600" stroke-width="1.5" stroke-linecap="round" stroke-linejoin="round"/>
</g>
</svg>
