<svg width="30" height="30" viewBox="0 0 30 30" fill="none" xmlns="http://www.w3.org/2000/svg">
<path d="M15.0979 5.75C20.3283 5.75 24.5605 9.95057 24.5605 15.1228C24.5605 20.2951 20.3283 24.4956 15.0979 24.4956C9.8675 24.4956 5.63525 20.2951 5.63525 15.1228C5.63525 9.95057 9.8675 5.75 15.0979 5.75Z" stroke="white"/>
<path d="M16.1264 5.84874C16.1295 5.83429 16.1325 5.82008 16.1354 5.80615C19.8255 6.2046 22.8765 8.70454 24.0464 12.0693C22.5462 12.8862 21.6796 13.5864 21.2917 14.4559C20.8885 15.3599 21.056 16.3533 21.2532 17.5224C21.2592 17.5578 21.2652 17.5934 21.2712 17.6292C21.3173 17.9037 21.237 18.2739 21.01 18.692C20.7875 19.1019 20.451 19.5063 20.0736 19.8268C19.6913 20.1516 19.3036 20.3596 18.9903 20.4256C18.6952 20.4879 18.5284 20.4203 18.4152 20.2775C18.3464 20.1907 18.2744 20.0386 18.2149 19.797C18.1566 19.5603 18.1183 19.2715 18.0942 18.9397C18.0585 18.4475 18.0563 17.9064 18.054 17.35C18.0531 17.1476 18.0523 16.9432 18.0498 16.7384C18.0409 16.0017 18.0113 15.2397 17.8504 14.6708C17.7696 14.3853 17.6401 14.0882 17.4106 13.8709C17.1578 13.6315 16.8307 13.5331 16.4703 13.5813C16.189 13.619 15.8918 13.6692 15.6062 13.7174C15.4384 13.7458 15.2746 13.7734 15.1205 13.7975C14.6843 13.8655 14.2868 13.9116 13.9278 13.9037C13.5708 13.8959 13.2788 13.8347 13.0413 13.7087C12.8115 13.5868 12.6002 13.3873 12.4268 13.0437C12.0742 12.3448 12.1316 11.7072 12.4358 11.1237C12.7518 10.5177 13.344 9.95899 14.0662 9.51166C14.9887 8.94027 15.5153 7.84464 15.8101 6.99253C15.9624 6.55226 16.0634 6.14529 16.1264 5.84874Z" stroke="white"/>
<mask id="path-3-inside-1_5081_79250" fill="white">
<path d="M21.3398 7.42773C21.3405 7.42819 21.3412 7.42888 21.3419 7.42934C21.3412 7.42888 21.3405 7.42842 21.3398 7.42773Z"/>
</mask>
<path d="M21.3398 7.42773L21.8945 6.59572L20.6327 8.13481L21.3398 7.42773ZM20.785 8.25975C20.7693 8.24926 20.756 8.23972 20.7454 8.2319C20.7348 8.22408 20.7261 8.21726 20.7196 8.21216C20.7132 8.20707 20.7081 8.20291 20.7052 8.20049C20.7025 8.19827 20.7002 8.19636 20.7007 8.19677C20.7007 8.19677 20.7007 8.19681 20.7008 8.19686C20.7008 8.19691 20.7009 8.19698 20.701 8.19707C20.7012 8.19724 20.7016 8.19752 20.702 8.19786C20.7028 8.19852 20.7041 8.1996 20.7057 8.20092C20.7088 8.20349 20.7141 8.20779 20.7207 8.21301C20.7273 8.21826 20.7362 8.22521 20.747 8.23316C20.7577 8.2411 20.7712 8.25077 20.7871 8.26138L21.8966 6.5973C21.9123 6.60779 21.9257 6.61733 21.9362 6.62515C21.9468 6.63298 21.9556 6.63979 21.962 6.6449C21.9685 6.64999 21.9736 6.65415 21.9765 6.65657C21.9792 6.6588 21.9815 6.66071 21.981 6.6603C21.981 6.6603 21.9809 6.66026 21.9809 6.66021C21.9808 6.66017 21.9807 6.66009 21.9806 6.66C21.9804 6.65983 21.9801 6.65955 21.9797 6.65921C21.9789 6.65855 21.9776 6.65747 21.976 6.65615C21.9729 6.65359 21.9676 6.64929 21.961 6.64407C21.9544 6.63883 21.9455 6.63188 21.9347 6.62393C21.924 6.61599 21.9104 6.60632 21.8945 6.59572L20.785 8.25975ZM21.8966 6.5973C21.892 6.59422 21.969 6.64276 22.0469 6.72066L20.6327 8.13481C20.6732 8.17539 20.7111 8.20635 20.7408 8.22863C20.7551 8.23932 20.767 8.24769 20.7748 8.25304C20.7787 8.25572 20.7819 8.25787 20.7839 8.25921C20.7849 8.25989 20.7858 8.26045 20.7863 8.2608C20.7865 8.26097 20.7868 8.26112 20.7869 8.26121C20.787 8.2613 20.7871 8.26137 20.7871 8.26138L21.8966 6.5973Z" fill="white" mask="url(#path-3-inside-1_5081_79250)"/>
<mask id="path-5-inside-2_5081_79250" fill="white">
<path d="M22.5581 8.58008C22.5581 8.58038 22.5584 8.58069 22.5587 8.58069C22.5584 8.58038 22.5584 8.58038 22.5581 8.58008Z"/>
</mask>
<path d="M22.5581 8.58008L23.2653 7.87306L21.5581 6.16543V8.58008H22.5581ZM22.5587 8.58069V9.58069H24.9734L23.2657 7.87349L22.5587 8.58069ZM21.5581 8.58008C21.5581 8.90538 21.7107 9.14707 21.8512 9.2876C21.9917 9.42814 22.2334 9.58069 22.5587 9.58069V7.58069C22.8837 7.58069 23.1251 7.73308 23.2654 7.87339C23.4057 8.0137 23.5581 8.25509 23.5581 8.58008H21.5581ZM23.2657 7.87349L23.2653 7.87306L21.8509 9.28709C21.8513 9.28746 21.8513 9.28752 21.8517 9.28789L23.2657 7.87349Z" fill="white" mask="url(#path-5-inside-2_5081_79250)"/>
<path d="M8.76255 22.0843C6.84099 20.3679 5.63525 17.8845 5.63525 15.1227C5.63525 14.2949 5.74368 13.4927 5.94694 12.7288C6.05651 12.9155 6.17074 13.1243 6.29012 13.3427L6.29437 13.3504C6.44717 13.63 6.60867 13.9254 6.76609 14.1781C6.91656 14.4197 7.09804 14.681 7.3012 14.8457C7.52 15.0231 7.82054 15.1203 8.04065 15.1874C8.11119 15.2089 8.17846 15.2286 8.24314 15.2476C8.41615 15.2983 8.57066 15.3435 8.71975 15.403C8.92286 15.4841 9.02522 15.5593 9.07191 15.6211C9.09783 15.6554 9.13954 15.7233 9.09548 15.9124L9.09546 15.9125C9.03499 16.1723 8.9179 16.4701 8.76844 16.8003C8.69459 16.9635 8.61561 17.1287 8.53472 17.2973C8.5296 17.308 8.52448 17.3187 8.51934 17.3294C8.44414 17.4861 8.36736 17.6462 8.29563 17.8029C8.14513 18.1317 8.00014 18.4809 7.92856 18.8068C7.85921 19.1226 7.83481 19.5229 8.06273 19.8666L8.76255 22.0843ZM8.76255 22.0843C8.76133 22.0222 8.75858 21.9566 8.75388 21.888C8.71651 21.3429 8.55653 20.6113 8.06279 19.8667L8.76255 22.0843Z" stroke="white"/>
<mask id="path-8-inside-3_5081_79250" fill="white">
<path d="M21.7643 17.5466C21.7622 17.5343 21.7601 17.5221 21.758 17.5098C21.5674 18.2708 21.2877 18.997 20.9304 19.6768C21.497 19.0158 21.8757 18.2099 21.7643 17.5466Z"/>
</mask>
<path d="M21.7643 17.5466L22.7505 17.381L22.7503 17.3803L21.7643 17.5466ZM21.758 17.5098L22.7441 17.3435L20.788 17.2668L21.758 17.5098ZM20.9304 19.6768L20.0452 19.2115L21.6896 20.3277L20.9304 19.6768ZM22.7503 17.3803C22.7492 17.3733 22.748 17.3664 22.747 17.3604C22.7459 17.3542 22.745 17.3488 22.7441 17.3435L20.7719 17.6761C20.7731 17.6831 20.7743 17.69 20.7753 17.696C20.7764 17.7022 20.7773 17.7076 20.7782 17.7129L22.7503 17.3803ZM20.788 17.2668C20.617 17.9495 20.366 18.6012 20.0452 19.2115L21.8155 20.1421C22.2093 19.3929 22.5178 18.5921 22.7281 17.7527L20.788 17.2668ZM21.6896 20.3277C22.3192 19.5932 22.9365 18.4886 22.7505 17.381L20.7781 17.7122C20.8148 17.9312 20.6749 18.4384 20.1712 19.026L21.6896 20.3277Z" fill="white" mask="url(#path-8-inside-3_5081_79250)"/>
<path d="M14.904 30C12.3705 30 9.87602 29.3728 7.65324 28.1758C7.51594 28.3355 7.35345 28.4785 7.1673 28.599C6.12035 29.2758 4.7113 28.9847 4.02634 27.9499C3.34144 26.915 3.63602 25.5224 4.68302 24.8454C5.73015 24.1686 7.1392 24.4598 7.82404 25.4945C8.27157 26.1707 8.30085 26.9997 7.97527 27.682C12.6796 30.1995 18.3479 29.9736 22.835 27.0725C29.5309 22.7433 31.415 13.8371 27.0348 7.21903C26.9452 7.08362 26.9836 6.90204 27.1206 6.8135C27.2577 6.72491 27.4412 6.76288 27.5309 6.89829C29.7394 10.2352 30.501 14.2224 29.6754 18.1254C28.8498 22.0284 26.5357 25.3801 23.1596 27.5629C20.7956 29.0913 18.0607 29.9327 15.2505 29.9961C15.135 29.9988 15.0192 30 14.904 30ZM5.92252 25.066C5.60784 25.066 5.28997 25.1532 5.00754 25.3358C4.23407 25.8358 4.01644 26.8646 4.52242 27.6291C5.02829 28.3935 6.06919 28.6087 6.84272 28.1086C7.61619 27.6086 7.83382 26.5797 7.3279 25.8152C7.0067 25.3299 6.46965 25.066 5.92252 25.066ZM2.71742 23.2344C2.62073 23.2344 2.52599 23.1877 2.46914 23.1018C0.260591 19.7649 -0.501024 15.7777 0.324617 11.8747C1.15026 7.97167 3.46427 4.61999 6.84041 2.43719C9.2044 0.908774 11.9393 0.0673676 14.7495 0.00391053C17.4025 -0.0559723 20.0228 0.572856 22.3467 1.82419C22.484 1.66452 22.6465 1.52149 22.8327 1.40108C23.3399 1.07307 23.9459 0.959985 24.5391 1.08262C25.1324 1.2052 25.6418 1.54879 25.9736 2.05012C26.6585 3.08495 26.3639 4.4776 25.3169 5.15454C24.27 5.83153 22.8609 5.54032 22.1759 4.5055C21.7284 3.82926 21.6991 3.00028 22.0247 2.31801C17.3205 -0.19941 11.6521 0.0264106 7.16498 2.92751C3.92135 5.02469 1.69816 8.24477 0.904884 11.9946C0.111671 15.7445 0.843348 19.5751 2.96522 22.781C3.05486 22.9164 3.01644 23.098 2.87944 23.1866C2.8294 23.2189 2.77308 23.2344 2.71742 23.2344ZM22.6721 4.18475C23.178 4.94917 24.2189 5.16426 24.9925 4.66428C25.7659 4.16419 25.9835 3.1354 25.4776 2.37098C25.2325 2.00067 24.8562 1.74684 24.4179 1.65626C23.9797 1.56573 23.532 1.64917 23.1573 1.89145C22.3838 2.39149 22.1662 3.42028 22.6721 4.18475Z" fill="white"/>
</svg>
