<svg xmlns="http://www.w3.org/2000/svg" width="16" height="17" viewBox="0 0 16 17" fill="none">
  <path d="M8.49956 13.8332C8.49956 13.9658 8.44688 14.093 8.35311 14.1868C8.25935 14.2805 8.13217 14.3332 7.99956 14.3332C7.86695 14.3332 7.73978 14.2805 7.64601 14.1868C7.55224 14.093 7.49956 13.9658 7.49956 13.8332V7.66655H3.99956C3.90073 7.66647 3.80415 7.63709 3.72201 7.58215C3.63986 7.5272 3.57584 7.44914 3.53804 7.35783C3.50023 7.26653 3.49033 7.16606 3.50958 7.06913C3.52884 6.9722 3.57639 6.88314 3.64623 6.81322L7.64623 2.81322C7.73998 2.71959 7.86706 2.66699 7.99956 2.66699C8.13206 2.66699 8.25914 2.71959 8.35289 2.81322L12.3529 6.81322C12.4227 6.88314 12.4703 6.9722 12.4895 7.06913C12.5088 7.16606 12.4989 7.26653 12.4611 7.35783C12.4233 7.44914 12.3593 7.5272 12.2771 7.58215C12.195 7.63709 12.0984 7.66647 11.9996 7.66655H8.49956V13.8332Z" fill="#979995"/>
</svg>