<svg width="24" height="24" viewBox="0 0 24 24" fill="none" xmlns="http://www.w3.org/2000/svg">
<path d="M19 20H5C4.46957 20 3.96086 19.7893 3.58579 19.4142C3.21071 19.0391 3 18.5304 3 18V9C3 8.46957 3.21071 7.96086 3.58579 7.58579C3.96086 7.21071 4.46957 7 5 7H19C19.5304 7 20.0391 7.21071 20.4142 7.58579C20.7893 7.96086 21 8.46957 21 9V18C21 18.5304 20.7893 19.0391 20.4142 19.4142C20.0391 19.7893 19.5304 20 19 20Z" stroke="#979995" stroke-width="1.5"/>
<path d="M16.5 14C16.3674 14 16.2402 13.9473 16.1464 13.8536C16.0527 13.7598 16 13.6326 16 13.5C16 13.3674 16.0527 13.2402 16.1464 13.1464C16.2402 13.0527 16.3674 13 16.5 13C16.6326 13 16.7598 13.0527 16.8536 13.1464C16.9473 13.2402 17 13.3674 17 13.5C17 13.6326 16.9473 13.7598 16.8536 13.8536C16.7598 13.9473 16.6326 14 16.5 14Z" fill="#979995" stroke="#979995" stroke-width="1.5" stroke-linecap="round" stroke-linejoin="round"/>
<path d="M18 6.99996V5.60296C17.9999 5.29646 17.9294 4.99408 17.7939 4.71918C17.6583 4.44427 17.4614 4.20419 17.2184 4.01747C16.9753 3.83075 16.6926 3.7024 16.3921 3.64232C16.0915 3.58224 15.7812 3.59204 15.485 3.67096L4.485 6.60396C4.05905 6.71747 3.68254 6.96852 3.41399 7.31809C3.14544 7.66765 2.9999 8.09615 3 8.53696V8.99996" stroke="#979995" stroke-width="1.5"/>
</svg>
