<svg width="21" height="19" viewBox="0 0 21 19" fill="none" xmlns="http://www.w3.org/2000/svg">
<g id="Group">
<path id="Vector" d="M17.5 18H3.5C2.96957 18 2.46086 17.7893 2.08579 17.4142C1.71071 17.0391 1.5 16.5304 1.5 16V7C1.5 6.46957 1.71071 5.96086 2.08579 5.58579C2.46086 5.21071 2.96957 5 3.5 5H17.5C18.0304 5 18.5391 5.21071 18.9142 5.58579C19.2893 5.96086 19.5 6.46957 19.5 7V16C19.5 16.5304 19.2893 17.0391 18.9142 17.4142C18.5391 17.7893 18.0304 18 17.5 18Z" stroke="#232521" stroke-width="1.5"/>
<path id="Vector_2" d="M15 12C14.8674 12 14.7402 11.9473 14.6464 11.8536C14.5527 11.7598 14.5 11.6326 14.5 11.5C14.5 11.3674 14.5527 11.2402 14.6464 11.1464C14.7402 11.0527 14.8674 11 15 11C15.1326 11 15.2598 11.0527 15.3536 11.1464C15.4473 11.2402 15.5 11.3674 15.5 11.5C15.5 11.6326 15.4473 11.7598 15.3536 11.8536C15.2598 11.9473 15.1326 12 15 12Z" fill="#232521" stroke="#232521" stroke-width="1.5" stroke-linecap="round" stroke-linejoin="round"/>
<path id="Vector_3" d="M16.5 4.99996V3.60296C16.4999 3.29646 16.4294 2.99408 16.2939 2.71918C16.1583 2.44427 15.9614 2.20419 15.7184 2.01747C15.4753 1.83075 15.1926 1.7024 14.8921 1.64232C14.5915 1.58224 14.2812 1.59204 13.985 1.67096L2.985 4.60396C2.55905 4.71747 2.18254 4.96852 1.91399 5.31809C1.64544 5.66765 1.4999 6.09615 1.5 6.53696V6.99996" stroke="#232521" stroke-width="1.5"/>
</g>
</svg>
