<svg width="24" height="24" viewBox="0 0 24 24" fill="none" xmlns="http://www.w3.org/2000/svg">
<g clip-path="url(#clip0_4620_16396)">
<path d="M20.5 6.44727H3.50002C1.56998 6.44727 0 8.01725 0 9.94723V19.9472C0 21.8772 1.56998 23.4472 3.50002 23.4472H20.5C22.43 23.4472 24 21.8773 24 19.9472V9.94723C24 8.01725 22.43 6.44727 20.5 6.44727ZM23 19.9473C23 21.3252 21.879 22.4473 20.5 22.4473H3.50002C2.121 22.4473 1.00003 21.3252 1.00003 19.9473V9.94723C1.00003 8.56925 2.12105 7.44725 3.50002 7.44725H20.5C21.879 7.44725 23 8.56925 23 9.94723V19.9473Z" fill="#7E5CC5"/>
<path d="M19.5 13.4473C18.673 13.4473 18 14.1202 18 14.9473C18 15.7743 18.673 16.4473 19.5 16.4473C20.327 16.4473 21 15.7743 21 14.9473C21 14.1202 20.327 13.4473 19.5 13.4473ZM19.5 15.4473C19.225 15.4473 19 15.2233 19 14.9473C19 14.6713 19.225 14.4473 19.5 14.4473C19.775 14.4473 20 14.6713 20 14.9473C20 15.2233 19.775 15.4473 19.5 15.4473Z" fill="#7E5CC5"/>
<path d="M23.5 11.4473H19.5C17.57 11.4473 16 13.0172 16 14.9473C16 16.8773 17.57 18.4473 19.5 18.4473H23.5C23.776 18.4473 24 18.2233 24 17.9473V11.9473C24 11.6713 23.776 11.4473 23.5 11.4473ZM23 17.4473H19.5C18.121 17.4473 17 16.3253 17 14.9473C17 13.5693 18.121 12.4473 19.5 12.4473H23V17.4473Z" fill="#7E5CC5"/>
<path d="M20.4469 6.72246L18.3299 2.48843C17.9029 1.63442 17.1659 1.00545 16.2559 0.717446C15.3459 0.430431 14.3819 0.520431 13.5399 0.972446L3.26291 6.50646C3.01991 6.63645 2.92893 6.94048 3.0599 7.18348C3.19091 7.42648 3.4949 7.51746 3.73691 7.38649L14.0159 1.85445C14.6159 1.53045 15.3069 1.46543 15.9549 1.67145C16.6049 1.87643 17.1309 2.32643 17.4359 2.93646L19.5529 7.17045C19.6409 7.34543 19.8169 7.44645 19.9999 7.44645C20.0749 7.44645 20.1509 7.42943 20.2229 7.39343C20.4699 7.26945 20.5699 6.96945 20.4469 6.72246Z" fill="#7E5CC5"/>
<path d="M18.4402 2.7107C18.3082 2.46671 18.0042 2.37671 17.7622 2.5067L10.3332 6.50668C10.0902 6.6377 9.99924 6.9407 10.1302 7.1837C10.2202 7.3517 10.3922 7.44671 10.5702 7.44671C10.6502 7.44671 10.7322 7.42773 10.8082 7.3877L18.2372 3.38771C18.4802 3.2567 18.5712 2.9537 18.4402 2.7107Z" fill="#7E5CC5"/>
<path d="M9 3.44727H5.49998C2.46802 3.44727 0 5.91425 0 8.94725V9.94724C0 10.2232 0.224016 10.4473 0.500016 10.4473C0.776016 10.4473 1.00003 10.2232 1.00003 9.94724V8.94725C1.00003 6.46625 3.01903 4.44725 5.50003 4.44725H9C9.276 4.44725 9.50002 4.22323 9.50002 3.94723C9.50002 3.67123 9.276 3.44727 9 3.44727Z" fill="#7E5CC5"/>
<path d="M18.5 3.44727C18.224 3.44727 18 3.67128 18 3.94728C18 4.22328 18.224 4.4473 18.5 4.4473C20.981 4.4473 23 6.4663 23 8.9473V9.94728C23 10.2233 23.224 10.4473 23.5 10.4473C23.776 10.4473 24 10.2233 24 9.94728V8.9473C24 5.91425 21.532 3.44727 18.5 3.44727Z" fill="#7E5CC5"/>
</g>
<defs>
<clipPath id="clip0_4620_16396">
<rect width="24" height="24" fill="white"/>
</clipPath>
</defs>
</svg>
