<svg width="54" height="54" viewBox="0 0 54 54" fill="none" xmlns="http://www.w3.org/2000/svg">
<path d="M27 54C41.9117 54 54 41.9117 54 27C54 12.0883 41.9117 0 27 0C12.0883 0 0 12.0883 0 27C0 41.9117 12.0883 54 27 54Z" fill="#E7EEFC"/>
<path d="M15.1434 19.4879C21.6867 13.0815 32.2954 13.0815 38.8386 19.4879L39.6263 20.2589C39.9535 20.5793 39.9535 21.0986 39.6263 21.4189L36.9324 24.0565C36.7689 24.2166 36.5036 24.2166 36.3398 24.0565L35.2563 22.9954C30.6915 18.5261 23.2906 18.5261 18.7258 22.9954L17.5653 24.1317C17.4017 24.2919 17.1365 24.2919 16.9729 24.1317L14.2791 21.4942C13.9519 21.1739 13.9519 20.6545 14.2791 20.3342L15.1434 19.4879ZM44.4099 24.9426L46.8075 27.29C47.1344 27.6103 47.1344 28.1296 46.8075 28.45L35.9967 39.0348C35.6696 39.3552 35.1391 39.3552 34.812 39.0348L27.1392 31.5224C27.0574 31.4423 26.9248 31.4423 26.843 31.5224L19.1704 39.0348C18.8432 39.3552 18.3128 39.3552 17.9857 39.0348L7.17464 28.4498C6.84747 28.1295 6.84747 27.6102 7.17464 27.2898L9.5722 24.9425C9.89937 24.6221 10.4298 24.6221 10.757 24.9425L18.4299 32.4548C18.5116 32.5349 18.6442 32.5349 18.726 32.4548L26.3985 24.9425C26.7257 24.6221 27.2561 24.6221 27.5833 24.9424C27.5833 24.9424 27.5833 24.9424 27.5833 24.9424L35.2562 32.4548C35.338 32.5349 35.4706 32.5349 35.5524 32.4548L43.2252 24.9426C43.5524 24.6223 44.0827 24.6223 44.4099 24.9426Z" fill="#3B99FC"/>
</svg>
