<svg width="28" height="27" viewBox="0 0 28 27" fill="none" xmlns="http://www.w3.org/2000/svg">
<g clip-path="url(#clip0_396_1194)">
<path d="M26.535 11.2775H27.3418L27.4473 11.172V11.1903C27.4473 9.04925 25.707 7.30374 23.5607 7.30374H4.43926C2.29297 7.30374 0.552734 9.04925 0.552734 11.1903V22.4385C0.552734 24.5795 2.29297 26.325 4.43926 26.325H23.566C25.707 26.325 27.4525 24.5848 27.4525 22.4385V22.1274C27.4525 21.8479 27.2258 21.6159 26.941 21.6159C26.6562 21.6159 26.4295 21.8426 26.4295 22.1274V22.4385C26.4295 24.0205 25.1428 25.302 23.566 25.302H4.43926C2.85723 25.302 1.57578 24.0153 1.57578 22.4385V11.1903C1.57578 9.60823 2.8625 8.32679 4.43926 8.32679H23.566C25.148 8.32679 26.4295 9.61351 26.4295 11.1903V11.172L26.535 11.2775Z" fill="#B7B7B7"/>
<path d="M22.95 15.1822C22.0482 15.1822 21.3152 15.9152 21.3152 16.8169C21.3152 17.7187 22.0482 18.4517 22.95 18.4517C23.8517 18.4517 24.5847 17.7187 24.5847 16.8169C24.5847 15.9152 23.8517 15.1822 22.95 15.1822ZM22.95 17.4286C22.6125 17.4286 22.333 17.1544 22.333 16.8117C22.333 16.4689 22.6072 16.1947 22.95 16.1947C23.2927 16.1947 23.5669 16.4689 23.5669 16.8117C23.5669 17.1544 23.2875 17.4286 22.95 17.4286Z" fill="#B7B7B7"/>
<path d="M27.4482 12.9305H22.9974C20.8511 12.9305 19.0845 14.6549 19.0634 16.7748C19.0529 17.8189 19.4537 18.7998 20.1867 19.5433C20.925 20.2869 21.9005 20.6982 22.9447 20.6982H27.4429C27.7224 20.6982 27.9544 20.4715 27.9544 20.1867V13.4367C27.9597 13.1572 27.733 12.9305 27.4482 12.9305ZM22.95 13.9482H26.7732C26.8154 13.9482 26.8576 13.964 26.8892 13.9957C26.9209 14.0273 26.9367 14.0695 26.9367 14.1117V19.5117C26.9367 19.5539 26.9209 19.5961 26.8892 19.6277C26.8576 19.6594 26.8154 19.6752 26.7732 19.6752H22.9921C21.4101 19.6752 20.1076 18.4096 20.0812 16.8539C20.0707 16.0787 20.3607 15.351 20.9039 14.8025C21.4523 14.2541 22.18 13.9482 22.95 13.9482Z" fill="#B7B7B7"/>
<path d="M23.4553 7.58855L21.0717 2.82664C20.5971 1.87742 19.7797 1.18133 18.7672 0.85965C18.3822 0.738361 17.9867 0.675079 17.5912 0.675079C16.9584 0.675079 16.3203 0.838556 15.7561 1.13914L4.1967 7.36707C4.07541 7.43035 3.99103 7.53582 3.94885 7.66765C3.91193 7.79949 3.92248 7.9366 3.98576 8.05789C4.07541 8.22137 4.24943 8.32683 4.434 8.32683C4.51838 8.32683 4.59748 8.30574 4.67658 8.26355L16.2412 2.0409C16.6578 1.81414 17.1272 1.69813 17.5965 1.69813C17.8918 1.69813 18.1818 1.74559 18.4613 1.83524C19.2049 2.07254 19.8061 2.58406 20.1594 3.28543L22.543 8.04734C22.6326 8.22137 22.8067 8.32683 22.9965 8.32683C23.0756 8.32683 23.1494 8.31101 23.2233 8.2741C23.4764 8.14754 23.5818 7.8364 23.4553 7.58855Z" fill="#B7B7B7"/>
<path d="M21.1983 3.0744C21.1086 2.91092 20.9346 2.80545 20.7447 2.80545C20.6604 2.80545 20.5813 2.82654 20.5022 2.86346L12.1438 7.3617C11.8959 7.49354 11.801 7.80467 11.9381 8.05252C12.0277 8.216 12.1965 8.32147 12.3863 8.32147C12.4707 8.32147 12.5551 8.30038 12.6289 8.26346L20.9873 3.76522C21.1086 3.70194 21.193 3.59119 21.2352 3.46463C21.2774 3.33279 21.2668 3.19568 21.1983 3.0744Z" fill="#B7B7B7"/>
<path d="M10.625 3.92874H6.68574C3.30547 3.92874 0.552734 6.68148 0.552734 10.067V11.1903C0.552734 11.4698 0.779492 11.7018 1.06426 11.7018C1.34902 11.7018 1.57578 11.475 1.57578 11.1903V10.067C1.57578 7.24573 3.86973 4.95179 6.69102 4.95179H10.625C10.9045 4.95179 11.1365 4.72503 11.1365 4.44026C11.1365 4.16077 10.9045 3.92874 10.625 3.92874Z" fill="#B7B7B7"/>
<path d="M21.3143 3.92874C21.0348 3.92874 20.8027 4.1555 20.8027 4.44026C20.8027 4.72503 21.0295 4.95179 21.3143 4.95179C24.1355 4.95179 26.4295 7.24573 26.4295 10.067V11.1903C26.4295 11.4698 26.6562 11.7018 26.941 11.7018C27.2258 11.7018 27.4525 11.475 27.4525 11.1903V10.067C27.4473 6.68148 24.6945 3.92874 21.3143 3.92874Z" fill="#B7B7B7"/>
<path d="M7.70311 14.0071H6.55674L4.5 19.6266H5.25301L5.79248 18.1206H8.38869L8.89445 19.6266H9.72613L7.70311 14.0071ZM6.00603 17.5362L7.02877 14.6815H7.21984L8.18639 17.5362H6.00603Z" fill="#B7B7B7"/>
<path d="M13.199 14.569V19.0646H14.7725V19.6265H10.8388V19.0646H12.4347V14.569H10.8388V14.007H14.7725V14.569H13.199Z" fill="#B7B7B7"/>
</g>
<defs>
<clipPath id="clip0_396_1194">
<rect width="28" height="27" fill="#B7B7B7"/>
</clipPath>
</defs>
</svg>
