<svg width="48" height="48" viewBox="0 0 48 48" fill="none" xmlns="http://www.w3.org/2000/svg">
	<rect x="44" y="44" width="40" height="40" rx="20" transform="rotate(-180 44 44)" fill="#232521" />
	<rect x="44" y="44" width="40" height="40" rx="20" transform="rotate(-180 44 44)"
		stroke="#181A17" stroke-width="8" />
	<path
		d="M23.3756 17.332C23.3756 17.1663 23.4414 17.0073 23.5586 16.8901C23.6758 16.7729 23.8348 16.707 24.0006 16.707C24.1663 16.707 24.3253 16.7729 24.4425 16.8901C24.5597 17.0073 24.6255 17.1663 24.6255 17.332L24.6256 25.0404L29.0006 25.0404C29.1241 25.0405 29.2448 25.0772 29.3475 25.1459C29.4502 25.2146 29.5302 25.3121 29.5775 25.4263C29.6247 25.5404 29.6371 25.666 29.613 25.7871C29.589 25.9083 29.5295 26.0196 29.4422 26.107L24.4422 31.107C24.325 31.2241 24.1662 31.2898 24.0006 31.2898C23.8349 31.2898 23.6761 31.2241 23.5589 31.107L18.5589 26.107C18.4716 26.0196 18.4122 25.9083 18.3881 25.7871C18.364 25.666 18.3764 25.5404 18.4236 25.4263C18.4709 25.3121 18.5509 25.2146 18.6536 25.1459C18.7563 25.0772 18.877 25.0405 19.0006 25.0404L23.3756 25.0404L23.3756 17.332Z"
		fill="#979995" />
</svg>
	