<svg width="160" height="180" viewBox="0 0 160 180" fill="none" xmlns="http://www.w3.org/2000/svg">
<path d="M87.4848 31.1467L87.3913 29.9002L87.4848 31.1467ZM111.485 56.6467L110.449 55.9468L111.485 56.6467ZM88.5307 77.1926C89.062 76.7518 89.1354 75.9638 88.6946 75.4324C88.2539 74.9011 87.4658 74.8277 86.9345 75.2685L88.5307 77.1926ZM90.7084 70.8553C90.3322 71.4342 90.4964 72.2084 91.0753 72.5846C91.6541 72.9608 92.4283 72.7966 92.8045 72.2177L90.7084 70.8553ZM94.4242 69.442C94.7452 68.8309 94.51 68.0752 93.8988 67.7541C93.2877 67.4331 92.532 67.6683 92.2109 68.2794L94.4242 69.442ZM94.613 62.7501C94.3809 63.4003 94.7198 64.1155 95.37 64.3476C96.0201 64.5797 96.7354 64.2408 96.9675 63.5907L94.613 62.7501ZM97.9451 60.5657C98.1378 59.9028 97.7567 59.2092 97.0938 59.0165C96.4308 58.8238 95.7372 59.205 95.5445 59.8679L97.9451 60.5657ZM96.8945 53.9619C96.7805 54.6428 97.2401 55.2872 97.9209 55.4012C98.6018 55.5152 99.2462 55.0557 99.3602 54.3748L96.8945 53.9619ZM99.788 51.2219C99.8589 50.5352 99.3597 49.921 98.673 49.8501C97.9863 49.7792 97.3721 50.2784 97.3012 50.9651L99.788 51.2219ZM97.4814 44.9637C97.5173 45.6531 98.1054 46.1829 98.7948 46.147C99.4842 46.111 100.014 45.523 99.978 44.8336L97.4814 44.9637ZM99.6444 41.6098C99.5353 40.9281 98.8942 40.4639 98.2125 40.5731C97.5309 40.6822 97.0667 41.3232 97.1758 42.0049L99.6444 41.6098ZM95.4176 36.5411C95.7542 37.1439 96.5157 37.3596 97.1184 37.023C97.7211 36.6864 97.9369 35.9249 97.6003 35.3222L95.4176 36.5411ZM95.5021 32.5702C95.0028 32.0935 94.2115 32.1118 93.7348 32.6111C93.258 33.1104 93.2763 33.9016 93.7756 34.3784L95.5021 32.5702ZM88.971 32.3762C89.6603 32.4145 90.2501 31.8867 90.2883 31.1974C90.3265 30.5081 89.7987 29.9183 89.1094 29.8801L88.971 32.3762ZM85.7006 30.1364C85.0253 30.2799 84.5942 30.9436 84.7376 31.6189C84.8811 32.2942 85.5448 32.7253 86.2201 32.5819L85.7006 30.1364ZM82.5783 35.3921C82.8134 34.743 82.4778 34.0262 81.8287 33.7911C81.1796 33.556 80.4629 33.8916 80.2278 34.5407L82.5783 35.3921ZM79.7641 38.0332C79.7984 38.7227 80.3852 39.2538 81.0747 39.2195C81.7642 39.1852 82.2954 38.5985 82.2611 37.909L79.7641 38.0332ZM83.7132 43.3333C83.4349 42.7015 82.6971 42.415 82.0654 42.6933C81.4336 42.9716 81.1471 43.7094 81.4254 44.3411L83.7132 43.3333ZM82.87 47.1853C83.2136 47.7841 83.9776 47.9909 84.5763 47.6473C85.1751 47.3037 85.3819 46.5397 85.0383 45.941L82.87 47.1853ZM88.3998 50.7698C87.9602 50.2374 87.1724 50.1622 86.64 50.6018C86.1077 51.0414 86.0325 51.8293 86.4721 52.3616L88.3998 50.7698ZM88.5751 54.7095C89.0562 55.2046 89.8476 55.216 90.3427 54.7349C90.8378 54.2537 90.8491 53.4624 90.368 52.9673L88.5751 54.7095ZM94.8114 56.7921C94.2465 56.3954 93.4668 56.5318 93.0701 57.0967C92.6734 57.6617 92.8097 58.4413 93.3747 58.838L94.8114 56.7921ZM96.1025 60.5189C96.7125 60.8421 97.4691 60.6096 97.7923 59.9996C98.1155 59.3896 97.883 58.6331 97.273 58.3099L96.1025 60.5189ZM102.572 60.0162C101.884 59.9558 101.277 60.4643 101.217 61.152C101.157 61.8397 101.665 62.4462 102.353 62.5066L102.572 60.0162ZM105.771 62.2886C106.444 62.134 106.864 61.4632 106.709 60.7904C106.555 60.1176 105.884 59.6975 105.211 59.8521L105.771 62.2886ZM109.602 57.0635C109.153 57.5881 109.214 58.3771 109.739 58.826C110.263 59.2748 111.052 59.2135 111.501 58.689L109.602 57.0635ZM113.486 55.9088C113.87 55.3348 113.716 54.5585 113.142 54.175C112.568 53.7915 111.791 53.9459 111.408 54.5199L113.486 55.9088ZM115.173 48.7588C114.801 49.3404 114.971 50.1134 115.552 50.4853C116.134 50.8572 116.907 50.6872 117.279 50.1056L115.173 48.7588ZM119.129 47.1828C119.496 46.598 119.32 45.8265 118.735 45.4596C118.15 45.0927 117.379 45.2694 117.012 45.8542L119.129 47.1828ZM120.645 39.9947C120.282 40.582 120.464 41.3522 121.051 41.7151C121.638 42.078 122.409 41.8961 122.772 41.3088L120.645 39.9947ZM124.589 38.3956C124.959 37.8127 124.787 37.0403 124.204 36.6704C123.621 36.3005 122.849 36.4731 122.479 37.056L124.589 38.3956ZM126.738 31.2789C126.244 31.7608 126.234 32.5522 126.716 33.0466C127.198 33.5409 127.989 33.551 128.483 33.0691L126.738 31.2789ZM87.1586 78.1994C87.628 77.899 88.0855 77.5618 88.5307 77.1926L86.9345 75.2685C86.5615 75.5779 86.1866 75.8533 85.811 76.0937L87.1586 78.1994ZM92.8045 72.2177C93.3726 71.3436 93.9133 70.4145 94.4242 69.442L92.2109 68.2794C91.7327 69.1899 91.2307 70.0517 90.7084 70.8553L92.8045 72.2177ZM96.9675 63.5907C97.3209 62.6007 97.6475 61.5898 97.9451 60.5657L95.5445 59.8679C95.2605 60.845 94.9493 61.8082 94.613 62.7501L96.9675 63.5907ZM99.3602 54.3748C99.5367 53.3206 99.6801 52.2671 99.788 51.2219L97.3012 50.9651C97.1989 51.9562 97.0627 52.9577 96.8945 53.9619L99.3602 54.3748ZM99.978 44.8336C99.9203 43.7269 99.8106 42.6483 99.6444 41.6098L97.1758 42.0049C97.3266 42.9469 97.4279 43.9366 97.4814 44.9637L99.978 44.8336ZM97.6003 35.3222C97.0237 34.2896 96.3288 33.3596 95.5021 32.5702L93.7756 34.3784C94.3983 34.9729 94.9459 35.6965 95.4176 36.5411L97.6003 35.3222ZM89.1094 29.8801C88.5551 29.8493 87.9823 29.8558 87.3913 29.9002L87.5783 32.3932C88.0674 32.3565 88.5313 32.3518 88.971 32.3762L89.1094 29.8801ZM87.3913 29.9002C86.7949 29.9449 86.2313 30.0237 85.7006 30.1364L86.2201 32.5819C86.6308 32.4946 87.0826 32.4303 87.5783 32.3932L87.3913 29.9002ZM80.2278 34.5407C79.8356 35.6234 79.7033 36.8094 79.7641 38.0332L82.2611 37.909C82.2127 36.9375 82.3235 36.0955 82.5783 35.3921L80.2278 34.5407ZM81.4254 44.3411C81.8419 45.2865 82.3269 46.239 82.87 47.1853L85.0383 45.941C84.5354 45.0647 84.0911 44.191 83.7132 43.3333L81.4254 44.3411ZM86.4721 52.3616C87.1398 53.1701 87.8431 53.9562 88.5751 54.7095L90.368 52.9673C89.6838 52.2631 89.0254 51.5273 88.3998 50.7698L86.4721 52.3616ZM93.3747 58.838C94.2656 59.4636 95.1777 60.0289 96.1025 60.5189L97.273 58.3099C96.4493 57.8734 95.6259 57.364 94.8114 56.7921L93.3747 58.838ZM102.353 62.5066C103.503 62.6076 104.65 62.5463 105.771 62.2886L105.211 59.8521C104.371 60.0453 103.488 60.0967 102.572 60.0162L102.353 62.5066ZM111.501 58.689C111.855 58.2755 112.195 57.8282 112.521 57.3465L110.449 55.9468C110.174 56.3544 109.891 56.7259 109.602 57.0635L111.501 58.689ZM112.521 57.3465C112.849 56.8601 113.171 56.3809 113.486 55.9088L111.408 54.5199C111.095 54.9885 110.775 55.4641 110.449 55.9468L112.521 57.3465ZM117.279 50.1056C117.93 49.0879 118.545 48.1137 119.129 47.1828L117.012 45.8542C116.431 46.78 115.819 47.748 115.173 48.7588L117.279 50.1056ZM122.772 41.3088C123.428 40.2456 124.031 39.276 124.589 38.3956L122.479 37.056C121.911 37.9498 121.303 38.93 120.645 39.9947L122.772 41.3088ZM128.483 33.0691C128.897 32.6655 129.246 32.4135 129.544 32.2647L128.426 30.0286C127.828 30.3275 127.272 30.759 126.738 31.2789L128.483 33.0691Z" fill="#556187"/>
<g opacity="0.6">
<path d="M116 65.1111C116 63.4542 117.343 62.1111 119 62.1111H135C136.657 62.1111 138 63.4542 138 65.1111V81.1111H119C117.343 81.1111 116 79.7679 116 78.1111V65.1111Z" fill="#556187"/>
<rect y="70.1111" width="138" height="92" rx="12" fill="#3A466B"/>
</g>
<path d="M131 78.1111C131 76.4542 132.343 75.1111 134 75.1111H150C151.657 75.1111 153 76.4542 153 78.1111V94.1111H134C132.343 94.1111 131 92.7679 131 91.1111V78.1111Z" fill="#556187"/>
<rect x="15" y="83.1111" width="138" height="92" rx="12" fill="#3A466B"/>
<path fill-rule="evenodd" clip-rule="evenodd" d="M153 95.1111C153 94.7743 152.986 94.4408 152.959 94.1111H153V78.1111C153 76.4542 151.657 75.1111 150 75.1111H134C132.343 75.1111 131 76.4542 131 78.1111V83.1111H27C20.3726 83.1111 15 88.4837 15 95.1111V163.111C15 169.739 20.3726 175.111 27 175.111H141C147.627 175.111 153 169.739 153 163.111V95.1111ZM127 79.1111V78.1111C127 74.2451 130.134 71.1111 134 71.1111H150C153.866 71.1111 157 74.2451 157 78.1111V163.111C157 171.948 149.837 179.111 141 179.111H27C18.1634 179.111 11 171.948 11 163.111V95.1111C11 86.2745 18.1634 79.1111 27 79.1111H127Z" fill="#131829"/>
<ellipse cx="134.454" cy="24.782" rx="4.50579" ry="3.00386" transform="rotate(27.6269 134.454 24.782)" fill="#556187"/>
<path d="M137.626 25.5915L142.357 29.3235C145.778 32.0226 150.792 29.4797 150.635 25.1244C150.479 20.7692 145.296 18.5923 142.077 21.5298L137.626 25.5915Z" fill="#556187"/>
<path d="M131.646 23.0433L132.016 17.0289C132.284 12.6791 127.337 10.0089 123.847 12.6198C120.358 15.2306 121.524 20.7302 125.772 21.701L131.646 23.0433Z" fill="#556187"/>
</svg>
