<svg width="253" height="132" viewBox="0 0 253 132" fill="none" xmlns="http://www.w3.org/2000/svg">
<path d="M245.242 51.25C249.52 46.9698 249.52 40.0302 245.242 35.75C240.963 31.4698 234.026 31.4698 229.747 35.75C225.469 40.0302 225.469 46.9698 229.747 51.25C234.026 55.5302 240.963 55.5302 245.242 51.25Z" fill="#EFF4F2"/>
<path d="M237.858 35.534C241.924 35.2424 245.597 37.1958 245.597 37.1958C243.559 34.4404 240.504 32.5498 236.936 32.9216C232.271 33.4076 228.645 36.1108 228.058 41.1293C227.999 41.634 228.453 41.7087 228.686 41.2575C230.081 38.5642 231.991 35.9549 237.858 35.534Z" fill="white"/>
<path d="M245.944 37.3186C247.076 51.9258 234.897 54.6317 227.199 45.6505C228.171 50.7077 232.214 54.4526 237.554 54.4526C243.606 54.4526 248.513 49.5464 248.513 43.4944C248.513 41.2032 247.456 38.909 245.944 37.3184V37.3186Z" fill="#D8E5E1"/>
<path d="M232.549 43.621C232.549 43.621 232.69 40.2362 234.679 38.6202C237.214 36.561 241.226 37.4682 243.061 38.7953C243.061 38.7953 240.778 34.8994 236.818 35.7187C229.893 37.1514 232.549 43.621 232.549 43.621Z" fill="#D8E5E1"/>
<path d="M236.789 44.545C236.789 44.545 236.128 42.7548 237.488 41.7622C238.658 40.9089 240.083 41.4443 240.586 42.0553C240.586 42.0553 241.312 41.1814 240.117 40.6524C238.922 40.1234 237.522 40.2941 236.584 41.1133C235.645 41.9326 235.544 44.0001 236.789 44.5452V44.545Z" fill="#D8E5E1"/>
<path d="M228.363 38.2622C228.363 38.2622 224.754 48.0624 233.706 51.4926C242.658 54.9227 246.406 45.6123 245.018 41.7622C243.63 37.912 238.911 35.392 235.649 36.8619C232.388 38.3321 231.786 41.9658 232.804 44.3374C233.822 46.7088 237.06 47.8756 239.651 46.5223C242.242 45.1689 240.947 40.7353 238.726 40.6887C236.505 40.642 235.788 42.4386 236.181 43.582C236.575 44.7254 237.408 44.8421 237.616 45.0521C237.824 45.2622 237.338 45.7755 236.112 45.0988C234.886 44.4221 233.128 41.8086 236.02 39.0552C238.911 36.3017 243.769 40.117 243.353 43.932C242.936 47.7472 241.224 49.8354 237.06 50.2555C232.897 50.6755 228.964 46.8021 229.38 42.0418C229.797 37.2818 231.277 34.2016 237.107 33.3615C242.936 32.5215 246.406 36.8617 247.331 40.3151C248.257 43.7686 248.164 48.7153 244 51.8887C239.836 55.0622 232.665 54.7821 229.01 49.9287C225.355 45.0751 228.363 38.2618 228.363 38.2618V38.2622Z" fill="#D4A308"/>
<path d="M233.876 51.8323C242.023 55.0984 247.37 46.6717 245.585 41.8307C244.198 38.0696 239.101 35.7535 235.783 37.186C232.465 38.6185 231.848 42.5177 232.92 44.812C234.217 47.5884 237.351 48.4407 239.986 47.122C242.622 45.8033 241.636 40.7384 239.133 40.7156C236.874 40.695 235.873 42.6197 236.249 43.7425C236.608 44.8171 237.379 45.0404 237.367 45.1507C237.349 45.3043 236.765 45.3023 236.3 45.0654C235.043 44.4254 233.218 42.0066 236.16 39.3235C239.101 36.6404 244.043 40.3581 243.619 44.0756C243.196 47.7931 241.389 49.3753 237.153 49.7848C232.917 50.194 229.39 46.845 229.814 42.2065C230.237 37.568 232.067 34.5599 237.266 33.7755C243.185 32.8826 246.726 37.1862 247.667 40.5513C248.608 43.9165 247.677 48.8454 243.366 51.8325C238.587 55.1442 233.876 51.8325 233.876 51.8325L233.876 51.8323Z" fill="#F0B90B"/>
<path d="M246.439 43.3301C246.439 43.3301 246.488 43.4021 246.552 43.5403C246.584 43.6093 246.621 43.694 246.656 43.7939C246.689 43.8938 246.73 44.0074 246.759 44.1346C246.793 44.261 246.817 44.4005 246.84 44.5493C246.86 44.6981 246.874 44.8566 246.88 45.0208C246.88 45.1851 246.884 45.3564 246.862 45.5284C246.853 45.6146 246.847 45.7022 246.835 45.7888L246.785 46.0484C246.754 46.2223 246.697 46.3901 246.645 46.5557C246.631 46.5968 246.62 46.6384 246.605 46.6786L246.553 46.7965C246.519 46.874 246.485 46.9508 246.451 47.0261C246.419 47.1018 246.381 47.1732 246.338 47.2406C246.298 47.3082 246.258 47.3746 246.219 47.4391C246.145 47.5698 246.052 47.679 245.971 47.7809C245.887 47.8808 245.817 47.9761 245.737 48.047C245.661 48.1211 245.591 48.1815 245.535 48.2314C245.422 48.3309 245.354 48.3822 245.354 48.3822C245.354 48.3822 245.386 48.2997 245.45 48.1649C245.482 48.0977 245.519 48.0159 245.567 47.9268C245.592 47.8828 245.613 47.8326 245.633 47.7791C245.656 47.7269 245.679 47.6723 245.703 47.6151C245.752 47.5017 245.813 47.3843 245.856 47.2503C245.881 47.1853 245.906 47.1183 245.932 47.0502C245.959 46.9826 245.988 46.9145 246.007 46.8409C246.048 46.6952 246.108 46.5522 246.142 46.3981C246.178 46.2447 246.23 46.0935 246.254 45.9349L246.304 45.7008C246.316 45.6221 246.328 45.5437 246.34 45.4658C246.369 45.3104 246.379 45.1552 246.4 45.0051C246.413 44.8548 246.425 44.708 246.434 44.5683C246.439 44.4286 246.448 44.295 246.448 44.1717C246.456 43.9239 246.45 43.7145 246.448 43.566C246.442 43.4161 246.439 43.3303 246.439 43.3303V43.3301Z" fill="#F9F5F2"/>
<path d="M234.157 35.1474C232.124 36.1327 230.434 39.2649 230.851 40.3505C231.096 40.9866 232.494 37.3502 235.784 36.2369C239.163 35.0933 240.885 35.4963 241.533 35.2491C242.247 34.9765 238.64 32.9739 234.156 35.1474H234.157Z" fill="#FFCD2E"/>
<path d="M236.762 39.304C235.92 39.75 235.582 41.7301 236.098 41.8151C236.31 41.8501 236.496 40.6894 237.837 40.0908C239.054 39.5469 239.55 39.7951 239.718 39.5575C239.929 39.2567 238.555 38.3547 236.762 39.304Z" fill="#FFCD2E"/>
<path d="M230.834 39.4958C230.834 39.4958 230.841 39.4527 230.86 39.372C230.88 39.2922 230.908 39.1737 230.955 39.0267C231.002 38.8799 231.061 38.7013 231.143 38.5021C231.186 38.4033 231.229 38.2965 231.279 38.186C231.331 38.0765 231.386 37.9614 231.449 37.844C231.574 37.6083 231.717 37.3558 231.891 37.1021C231.979 36.976 232.068 36.8441 232.171 36.7187C232.27 36.5909 232.373 36.4605 232.49 36.3374C232.547 36.2748 232.604 36.2116 232.662 36.1479C232.721 36.0849 232.787 36.0277 232.849 35.9664C232.913 35.9061 232.977 35.8455 233.041 35.7845C233.108 35.7268 233.179 35.672 233.249 35.6151C233.319 35.559 233.389 35.5026 233.459 35.4462L233.684 35.2926L233.798 35.2163L233.855 35.1781L233.883 35.1591L233.887 35.1566L233.902 35.1474L233.91 35.1434L233.924 35.1354L234.151 35.0083C234.229 34.967 234.299 34.9239 234.383 34.8847L234.639 34.7695C234.808 34.6873 234.978 34.6298 235.146 34.571C235.313 34.5069 235.482 34.4607 235.65 34.4156C235.817 34.3659 235.984 34.3303 236.148 34.2969C236.312 34.2602 236.474 34.2337 236.634 34.2109C236.792 34.185 236.949 34.1676 237.101 34.1534C237.404 34.1218 237.692 34.1108 237.958 34.1094C238.222 34.1026 238.465 34.1143 238.68 34.1284C238.894 34.1391 239.08 34.1625 239.233 34.1813C239.538 34.2206 239.71 34.2622 239.71 34.2622C239.71 34.2622 239.536 34.2821 239.232 34.3172C239.081 34.3356 238.898 34.361 238.689 34.3898C238.585 34.4032 238.474 34.4209 238.358 34.4408C238.242 34.4589 238.119 34.4762 237.993 34.5001C237.866 34.5213 237.734 34.5447 237.599 34.5746C237.463 34.6018 237.323 34.6267 237.18 34.6617C237.038 34.6939 236.891 34.7231 236.743 34.7645C236.595 34.8034 236.443 34.8372 236.292 34.8856C236.141 34.9312 235.986 34.972 235.834 35.0275C235.681 35.0799 235.526 35.1299 235.375 35.1933C235.298 35.2234 235.222 35.2535 235.145 35.2838C235.068 35.3138 235 35.3507 234.926 35.383L234.708 35.4829C234.635 35.5172 234.557 35.5656 234.482 35.6059L234.253 35.7303L234.239 35.7381L234.232 35.7418C234.228 35.744 234.253 35.7297 234.241 35.7367L234.238 35.7389L234.212 35.756L234.161 35.7898L234.058 35.8572L233.852 35.9903C233.786 36.0394 233.721 36.0882 233.656 36.1369C233.591 36.1857 233.526 36.2346 233.462 36.2832C233.4 36.3354 233.339 36.3876 233.277 36.4391C233.153 36.5397 233.038 36.6497 232.924 36.7574C232.696 36.9718 232.489 37.1956 232.298 37.4142C232.108 37.6333 231.935 37.8484 231.78 38.0524C231.629 38.2585 231.491 38.4506 231.373 38.6243C231.259 38.7999 231.157 38.9537 231.078 39.0831C231.001 39.2135 230.936 39.3154 230.897 39.3868C230.856 39.4582 230.834 39.4965 230.834 39.4965L230.834 39.4958Z" fill="#F9F5F2"/>
<path d="M235.853 41.2798C235.853 41.2798 235.839 41.2042 235.84 41.0705C235.841 40.937 235.858 40.745 235.919 40.52C235.98 40.2962 236.089 40.0387 236.265 39.7941C236.352 39.6712 236.458 39.5536 236.577 39.4462C236.693 39.3395 236.834 39.2412 236.968 39.1654C237.259 39.0023 237.566 38.913 237.859 38.8739C238.151 38.835 238.423 38.8469 238.649 38.8809C238.877 38.9159 239.059 38.9707 239.184 39.0177C239.309 39.0644 239.375 39.103 239.375 39.103C239.375 39.103 239.3 39.1117 239.17 39.1265C239.042 39.1424 238.861 39.1645 238.65 39.2001C238.44 39.2348 238.2 39.2816 237.955 39.351C237.713 39.4195 237.459 39.5159 237.24 39.6376C237.12 39.7035 237.018 39.7715 236.916 39.8498C236.815 39.9271 236.722 40.0124 236.635 40.1004C236.462 40.2772 236.319 40.4696 236.204 40.6458C236.089 40.8215 236.003 40.9812 235.944 41.0957C235.885 41.2102 235.854 41.28 235.854 41.28L235.853 41.2798Z" fill="#F9F5F2"/>
<circle cx="15" cy="68" r="2" fill="#AEE67F"/>
<path d="M21.9279 46.456C22.6921 47.7938 19.6708 49.8726 18.6533 49.0124C16.3545 47.069 2.64542 27.7263 1.3045 21.057C-0.0360955 14.3879 1.14749 11.0069 5.28588 9.03035C9.42394 7.05357 12.9126 8.08754 15.8651 10.6439C18.8179 13.2005 21.0991 17.0849 21.2098 18.021C21.3206 18.9571 19.6702 20.6605 18.0458 20.34C16.4215 20.0194 13.931 11.5248 8.50337 13.0643C3.06841 14.606 5.01699 21.2681 9.58485 28.3191C14.1527 35.3701 21.1481 45.0915 21.9276 46.4564L21.9279 46.456Z" fill="#F2F1F0"/>
<path d="M6.30772 12.3217C11.9664 9.34523 14.768 14.6645 16.3973 17.1038C17.7155 19.0778 19.2693 19.7969 19.8145 19.9993C19.2884 20.3081 18.6683 20.4784 18.0518 20.3567C16.4274 20.0362 13.937 11.5415 8.50962 13.081C3.07435 14.6228 5.02321 21.2845 9.59107 28.3355C14.1589 35.3865 21.1543 45.1079 21.9335 46.4725C22.3146 47.1396 21.7543 47.9906 20.971 48.5698C20.745 46.0509 11.2939 34.5431 7.58752 27.9452C3.86396 21.3169 0.649278 15.2979 6.30766 12.3211L6.30772 12.3217Z" fill="#E0D9D3"/>
<path d="M18.2333 13.1166C18.2333 13.1166 20.7377 15.7442 21.2391 18.066C21.4992 19.2707 19.533 20.776 18.1735 20.4582C17.4928 20.299 16.9392 19.3087 16.9392 19.3087C16.9392 19.3087 18.4092 16.6475 18.2333 13.1166Z" fill="#ED2E40"/>
<path d="M11.1412 13.0994C11.2192 12.5064 11.5071 10.0154 11.1153 8.15816C12.4289 8.42318 13.6597 9.00414 14.8135 9.82378C15.1186 10.5167 15.0695 12.486 14.9208 13.673C14.8116 14.5433 14.5923 15.339 14.475 15.7263C13.5541 14.5709 12.4611 13.5367 11.1412 13.0994Z" fill="#ED2E40"/>
<path d="M6.39078 14.272C6.2777 13.9576 5.97235 13.3153 5.17607 12.5422C4.23537 11.6287 3.03029 11.0328 2.6817 10.8715C2.6817 10.8715 3.4733 10.0257 4.56831 9.40821C5.57506 8.8402 6.27803 8.617 6.27803 8.617C6.64996 8.77687 7.24678 9.10499 8.13112 10.5141C8.7275 11.4647 9.06245 12.967 9.06245 12.967C7.82691 13.2025 7.03085 13.643 6.39075 14.2717L6.39078 14.272Z" fill="#ED2E40"/>
<path d="M6.29889 12.3227C7.12438 11.8883 7.88849 11.6319 8.59777 11.5159C8.8856 12.2616 9.04152 12.9594 9.04152 12.9594L9.02885 12.9624C8.85602 12.992 8.67985 13.0313 8.50049 13.082C7.59761 13.3382 6.8995 13.7365 6.38213 14.2536L6.36982 14.2641C6.27197 13.992 6.02955 13.4741 5.45001 12.8386C5.70772 12.658 5.98933 12.4856 6.29889 12.3227Z" fill="#D21029"/>
<path d="M0.930813 14.5068C2.49869 14.312 3.94168 14.8119 5.41267 15.9393C5.17655 17.0549 5.12125 18.0926 5.51203 19.7844C3.1222 18.7487 1.78933 18.7952 0.971459 19.1367C0.654641 17.2192 0.732985 15.6232 0.930786 14.5065L0.930813 14.5068Z" fill="#ED2E40"/>
<path d="M3.67148 14.9023C4.69201 15.2797 5.41047 15.9403 5.41047 15.9403C5.03097 17.9339 5.51712 19.7929 5.51712 19.7929C4.74014 19.4562 4.06805 19.2252 3.4961 19.0904C3.12482 17.5321 3.11919 16.1173 3.67148 14.9023Z" fill="#D21029"/>
<path d="M1.72032 22.5231C2.98475 22.1198 5.23079 22.274 6.55772 22.8021L6.56178 22.8105C7.03861 23.9115 8.05089 25.7838 8.05089 25.7838C5.20033 25.5411 3.29579 26.1234 3.29579 26.1234C2.47832 24.792 1.72002 22.5231 1.72002 22.5231L1.72032 22.5231Z" fill="#ED2E40"/>
<path d="M6.346 25.7237C5.72019 24.5693 5.14119 23.4434 4.65625 22.3594C5.35097 22.44 6.02345 22.5949 6.54845 22.8036C6.54845 22.8036 7.23695 24.2442 8.03417 25.7794C7.42484 25.7278 6.85951 25.7138 6.3463 25.7237L6.346 25.7237Z" fill="#D21029"/>
<path d="M5.02946 29.3551C5.49826 29.2427 8.19892 28.7003 10.1317 29.1538C10.7947 30.1662 11.4983 31.2216 12.2194 32.291C10.407 31.9513 8.73448 32.3111 7.06874 32.7941C6.27271 31.5104 5.73183 30.5879 5.02946 29.3551Z" fill="#ED2E40"/>
<path d="M10.123 29.1497C10.7857 30.1618 11.4893 31.2175 12.2102 32.2873C11.5368 32.162 10.8822 32.1332 10.2406 32.1715C9.48546 31.0482 8.77987 29.9674 8.18164 28.9727C8.83971 28.9636 9.52234 29.0101 10.123 29.1497Z" fill="#D21029"/>
<path d="M9.06895 35.954C9.18375 35.8982 11.7229 34.995 14.431 35.5352C15.1675 36.6084 15.8971 37.6645 16.5962 38.6736C13.8985 38.6547 12.7131 39.1309 11.6529 39.8275C10.8661 38.6799 9.86348 37.174 9.06895 35.954Z" fill="#ED2E40"/>
<path d="M14.3897 35.525C15.1262 36.5982 15.8558 37.6545 16.5552 38.6636C15.8896 38.6589 15.3164 38.6848 14.8142 38.7365C14.0218 37.6243 13.2093 36.486 12.4141 35.3555C13.038 35.3449 13.7084 35.3892 14.39 35.5249L14.3897 35.525Z" fill="#D21029"/>
<path d="M18.5318 41.4663C19.3405 42.6296 20.056 43.6599 20.6245 44.4875C19.061 44.7184 17.144 45.9538 16.5627 46.5998C15.7207 45.5249 14.7095 44.1682 13.6136 42.6351C14.1937 42.2841 16.7081 41.2227 18.5318 41.4666L18.5318 41.4663Z" fill="#ED2E40"/>
<path d="M18.5045 41.4578C19.3126 42.6203 20.0284 43.6505 20.5976 44.4795C20.1187 44.5505 19.6071 44.7159 19.1107 44.9293C18.4564 43.914 17.6654 42.7605 16.8012 41.5281C17.3842 41.4277 17.9736 41.3871 18.5045 41.4578Z" fill="#D21029"/>
<path d="M14.759 14.6944C14.662 15.1405 14.5572 15.515 14.4877 15.744C13.5668 14.5886 12.4735 13.5543 11.1541 13.1168C11.1833 12.8953 11.2417 12.4091 11.2832 11.7904C12.7306 12.3399 13.8596 13.5034 14.7593 14.6944L14.759 14.6944Z" fill="#D21029"/>
<path d="M17.3725 18.3284C18.7132 19.7113 19.9856 20.0507 19.9856 20.0507C19.4188 20.4065 18.7399 20.5962 18.168 20.4624C17.487 20.3032 16.9338 19.3129 16.9338 19.3129C16.9338 19.3129 17.1313 18.9544 17.3727 18.3281L17.3725 18.3284Z" fill="#D21029"/>
<path d="M14.996 10.5686C15.0983 11.4471 15.0483 12.7215 14.9433 13.6041C15.1051 13.8039 15.2701 14.0158 15.4387 14.2414C16.3733 15.4919 17.1633 16.4772 17.8277 16.9787C18.0674 16.074 18.2628 14.9537 18.2624 13.7042C18.1029 13.4805 17.9469 13.2777 17.8086 13.1086C17.0808 12.2198 16.0783 11.3155 14.9963 10.5686L14.996 10.5686ZM9.83124 8.97528C9.34081 9.24925 9.59006 9.84001 10.52 10.2343C10.7991 10.3528 11.068 10.4744 11.3298 10.6041C11.3349 10.0444 11.3142 9.45055 11.2467 8.8829C10.5602 8.77353 10.0915 8.82973 9.83124 8.97528Z" fill="white"/>
<path d="M18.2538 13.7027C19.0465 14.8149 19.9297 16.4531 19.2103 17.1172C19.1531 17.1699 19.0943 17.2131 19.0339 17.2468C18.6853 17.4416 18.2828 17.3272 17.8192 16.9772C18.0589 16.0725 18.2543 14.9522 18.2538 13.7027Z" fill="#F94B61"/>
<path d="M11.2251 8.87842C11.2809 8.88725 11.3387 8.89742 11.3975 8.90869C12.5149 9.12088 13.7921 9.74826 14.9744 10.5641C15.0767 11.4426 15.0267 12.717 14.9217 13.5996C13.6498 12.0305 12.5603 11.2205 11.3081 10.5996C11.3133 10.0399 11.2925 9.44606 11.2251 8.87842Z" fill="#F94B61"/>
<path d="M8.19797 32.4807C8.76911 33.0191 9.18539 33.2674 9.3492 33.2145C9.35504 33.2124 9.36055 33.2101 9.36571 33.2073C9.48524 33.1406 9.34793 32.8245 9.04493 32.3057C8.76129 32.3549 8.47916 32.4142 8.19797 32.4807ZM3.77164 25.994C3.83597 26.1273 3.90188 26.2613 3.96958 26.3952C4.50741 27.4616 5.0585 28.4072 5.59429 29.2293C5.96579 29.1629 6.46849 29.0862 7.03051 29.033C6.50413 28.1415 5.94809 27.1406 5.42769 26.0639C5.38074 25.9667 5.33444 25.87 5.28885 25.7745C4.63452 25.832 4.11787 25.9211 3.77191 25.9937L3.77164 25.994ZM2.03559 19.1846C1.75983 19.3385 1.85567 20.6013 2.3675 22.3641C2.78711 22.3006 3.25786 22.277 3.74057 22.2894C2.92748 20.3559 2.45526 19.1587 2.09317 19.1689C2.07246 19.1696 2.05308 19.1749 2.03529 19.1847L2.03559 19.1846Z" fill="white"/>
<path d="M2.3604 22.361C2.78001 22.2975 3.25076 22.2739 3.73347 22.2863C4.14977 23.2762 4.65528 24.4586 5.28117 25.7717C4.62685 25.8292 4.1102 25.9183 3.76424 25.9909C3.13589 24.6874 2.6714 23.432 2.3604 22.361Z" fill="#F94B61"/>
<path d="M5.58999 29.229C5.96148 29.1626 6.46418 29.0858 7.0262 29.0327C7.85639 30.4388 8.61345 31.5734 9.04089 32.305C8.75725 32.3542 8.47512 32.4136 8.19393 32.48C7.49716 31.8229 6.5698 30.7328 5.58999 29.229Z" fill="#F94B61"/>
<path d="M215.229 78.7369C214.721 78.5602 212.712 80.368 212.558 80.662C212.403 80.9561 211.971 82.6348 211.971 82.6348L219.018 91.3762C219.018 91.3762 221.072 91.4005 221.37 91.3663C221.668 91.3322 223.581 89.6996 223.483 89.3462C223.426 89.1433 222.756 89.0152 222.177 88.9184C221.748 88.8467 221.37 88.792 221.327 88.7365C221.225 88.6058 221.617 86.9786 221.491 86.7748C221.428 86.6734 220.959 86.6482 220.482 86.6205C220.002 86.5926 219.514 86.5621 219.425 86.4478C219.234 86.202 219.605 84.338 219.452 84.1573C219.376 84.0677 218.881 84.0008 218.384 83.9327C217.877 83.8635 217.368 83.793 217.293 83.6969C217.128 83.4844 217.581 81.7677 217.349 81.458C217.23 81.2989 216.732 81.258 216.247 81.2217C215.789 81.1875 215.343 81.1572 215.238 81.0353C215.02 80.784 215.539 78.8444 215.229 78.7368L215.229 78.7369Z" fill="#ED2E40"/>
<path d="M194.659 94.242C194.597 93.8164 196.893 92.2325 197.226 92.1687C197.56 92.1048 199.336 92.1519 199.336 92.1519L205.808 100.913C205.808 100.913 205.256 102.501 205.138 102.765C205.019 103.03 202.765 104.404 202.445 104.221C202.125 104.037 202.787 102.486 202.687 102.358C202.638 102.295 202.198 102.246 201.744 102.192C201.275 102.137 200.792 102.077 200.708 101.99C200.543 101.82 201.147 100.229 200.973 100.006C200.877 99.8826 200.319 99.7824 199.78 99.6888C199.269 99.5998 198.774 99.5167 198.709 99.4249C198.575 99.2365 199.015 97.5067 198.869 97.3199C198.791 97.2198 198.331 97.1591 197.847 97.0903C197.323 97.016 196.772 96.9322 196.648 96.7793C196.408 96.4848 197.017 94.995 196.832 94.7284C196.743 94.6015 196.255 94.5557 195.764 94.5089C195.225 94.4574 194.682 94.4048 194.658 94.2416L194.659 94.242Z" fill="#ED2E40"/>
<path d="M211.959 82.6342C211.959 82.6342 207.717 85.1391 205.374 86.9018C203.031 88.6643 199.318 92.1503 199.318 92.1503C199.318 92.1503 199.297 94.4704 201.81 97.3162C204.322 100.162 205.792 100.914 205.792 100.914C205.792 100.914 210.275 98.2637 213.334 95.9812C216.392 93.6988 219.006 91.3756 219.006 91.3756C219.006 91.3756 217.095 86.2735 211.959 82.6342Z" fill="#1C7C5E"/>
<path d="M205.123 102.763C205.242 102.498 205.793 100.911 205.793 100.911L204.631 99.3386C203.374 99.8244 202.141 100.194 200.956 100.442C200.857 100.996 200.574 101.865 200.693 101.988C200.777 102.074 201.26 102.135 201.729 102.19C202.183 102.244 202.623 102.293 202.672 102.356C202.772 102.484 202.11 104.035 202.43 104.219C202.75 104.402 205.004 103.028 205.123 102.763L205.123 102.763Z" fill="#D21029"/>
<path d="M223.476 89.3449C223.42 89.1419 222.749 89.0139 222.17 88.917C221.742 88.8454 221.364 88.7907 221.32 88.7352C221.219 88.6045 221.611 86.9771 221.485 86.7735C221.393 86.6253 220.439 86.6396 219.855 86.5713C219.283 87.6317 218.567 88.7073 217.721 89.7731L219.012 91.3748C219.012 91.3748 221.066 91.3993 221.364 91.3651C221.662 91.3307 223.575 89.6981 223.477 89.345L223.476 89.3449Z" fill="#D21029"/>
<path d="M207.132 85.6782L219.021 91.3642C218.953 91.1871 217.99 88.7458 215.725 86.0816L210.451 83.5591C209.514 84.1345 208.279 84.9086 207.133 85.6783L207.132 85.6782Z" fill="#2C9673"/>
<path d="M202.124 89.6262L214.154 95.3796C215.243 94.5449 216.246 93.7333 217.055 93.061L204.931 87.2624C204.051 87.9541 203.041 88.8177 202.124 89.6262Z" fill="#2C9673"/>
<path d="M212.427 96.6525L200.592 90.9921C199.838 91.6785 199.332 92.1526 199.332 92.1526C199.332 92.1526 199.327 93.0322 199.905 94.3697L209.201 98.8154C210.234 98.1529 211.374 97.3988 212.427 96.6524L212.427 96.6525Z" fill="#2C9673"/>
<path d="M205.802 100.912C205.802 100.912 206.279 100.629 207.027 100.171L202.406 97.9609C204.557 100.272 205.802 100.912 205.802 100.912Z" fill="#2C9673"/>
<path d="M203.023 90.0653C202.931 90.1525 202.846 90.2351 202.771 90.313C202.309 90.7887 201.95 91.1941 201.717 91.5363L204.582 92.9065C205.432 92.7573 206.454 92.5118 207.505 92.2089L203.023 90.0652L203.023 90.0653ZM208.204 86.1973C207.47 86.6683 206.683 87.207 205.931 87.7496L211.914 90.6115C213.016 90.0966 213.803 89.5812 213.947 89.1557C213.967 89.095 213.984 89.0323 213.997 88.9677L208.204 86.1973Z" fill="#2C9673"/>
<path d="M211.466 84.7404C211.383 84.7123 211.301 84.6917 211.221 84.6804C210.85 84.6273 209.632 85.2855 208.212 86.1962L214.005 88.9665C214.294 87.5226 212.751 85.1769 211.466 84.7404Z" fill="#37AA81"/>
<path d="M205.933 87.7484C204.769 88.5885 203.69 89.4386 203.026 90.0641L207.508 92.2078C209.065 91.7596 210.687 91.1851 211.917 90.6103L205.933 87.7484L205.933 87.7484Z" fill="#37AA81"/>
<path d="M201.725 91.5369C201.266 92.2114 201.297 92.6411 202.007 92.8823C202.22 92.9545 202.493 93.0098 202.832 93.05C203.218 93.0957 203.836 93.0391 204.589 92.9069L201.725 91.537L201.725 91.5369Z" fill="#37AA81"/>
<path d="M217.145 90.4723C216.62 91.0881 216.052 91.6984 215.444 92.2982L217.035 93.0595C218.215 92.0801 218.984 91.3976 219.009 91.375L218.995 91.3573L217.145 90.4723Z" fill="#116046"/>
<path d="M219.008 91.3595L219.022 91.3771L219.022 91.3764C219.022 91.3764 219.021 91.3723 219.018 91.3644L219.008 91.3596L219.008 91.3595Z" fill="#E5610E"/>
<path d="M207.546 98.0271C206.693 98.4693 205.84 98.8606 204.996 99.2003L207.028 100.172C207.615 99.8114 208.37 99.3424 209.193 98.8148L207.546 98.0271L207.546 98.0271ZM212.714 94.6968C212.398 94.9442 212.075 95.1882 211.744 95.4284C211.492 95.6119 211.238 95.7907 210.984 95.965L212.419 96.6516C212.737 96.4263 213.047 96.2016 213.343 95.9803C213.613 95.7794 213.878 95.5782 214.139 95.3782L212.715 94.6966L212.714 94.6968Z" fill="#116046"/>
<path d="M204.039 99.5664C204.188 99.6999 204.328 99.8215 204.459 99.9318C204.328 99.8213 204.188 99.7 204.039 99.5664Z" fill="#E5610E"/>
<path d="M218.05 89.3787C217.771 89.7447 217.477 90.1094 217.168 90.4727L219.018 91.3577L219.028 91.3626C218.988 91.2581 218.683 90.4868 218.05 89.3784L218.05 89.3787Z" fill="#1C7C5E"/>
<path d="M215.469 92.2995C214.633 93.1234 213.72 93.9275 212.735 94.6981L214.16 95.3797C215.249 94.5451 216.252 93.7332 217.062 93.0611L215.47 92.2996L215.469 92.2995Z" fill="#1C7C5E"/>
<path d="M210.988 95.9668C209.853 96.7448 208.701 97.4328 207.55 98.0288L209.197 98.8165C210.23 98.1544 211.371 97.4001 212.423 96.6535L210.988 95.9669L210.988 95.9668Z" fill="#1C7C5E"/>
<path d="M204.989 99.2005C204.666 99.3307 204.344 99.4532 204.024 99.568C204.173 99.7016 204.314 99.8234 204.445 99.9343C205.316 100.667 205.794 100.913 205.794 100.913C205.794 100.913 206.27 100.631 207.019 100.172L204.989 99.2007L204.989 99.2005Z" fill="#1C7C5E"/>
<circle cx="148.5" cy="92.5" r="1.5" fill="#AEE67F"/>
<circle cx="146.5" cy="38.5" r="1.5" fill="#AEE67F"/>
<path d="M86.7495 34.7533C89.0966 32.4054 89.0966 28.5986 86.7495 26.2506C84.4023 23.9026 80.5969 23.9026 78.2498 26.2506C75.9027 28.5986 75.9027 32.4054 78.2498 34.7533C80.5969 37.1013 84.4023 37.1013 86.7495 34.7533Z" fill="#EFF4F2"/>
<path d="M82.6991 26.1325C84.9298 25.9725 86.9442 27.0441 86.9442 27.0441C85.8267 25.5325 84.1509 24.4954 82.1932 24.6994C79.6344 24.966 77.6453 26.4489 77.3232 29.2018C77.2908 29.4787 77.5398 29.5197 77.668 29.2722C78.4327 27.7947 79.4807 26.3634 82.6991 26.1325Z" fill="white"/>
<path d="M87.1342 27.1114C87.7555 35.1244 81.0743 36.6088 76.8516 31.682C77.3847 34.4562 79.6023 36.5105 82.532 36.5105C85.8519 36.5105 88.5433 33.8192 88.5433 30.4993C88.5433 29.2424 87.9636 27.9839 87.1342 27.1113V27.1114Z" fill="#D8E5E1"/>
<path d="M79.7863 30.5689C79.7863 30.5689 79.8633 28.7121 80.9545 27.8257C82.3449 26.696 84.5457 27.1937 85.5527 27.9217C85.5527 27.9217 84.3003 25.7846 82.1279 26.234C78.3292 27.0199 79.7863 30.5689 79.7863 30.5689Z" fill="#D8E5E1"/>
<path d="M82.1134 31.0749C82.1134 31.0749 81.7508 30.0928 82.4967 29.5483C83.1381 29.0802 83.9198 29.3739 84.1961 29.7091C84.1961 29.7091 84.5941 29.2297 83.9386 28.9395C83.2831 28.6493 82.5154 28.743 82.0004 29.1924C81.4855 29.6418 81.4304 30.7759 82.1134 31.075V31.0749Z" fill="#D8E5E1"/>
<path d="M77.4898 27.6291C77.4898 27.6291 75.5103 33.0052 80.421 34.8868C85.3319 36.7684 87.3876 31.6611 86.6262 29.5491C85.8649 27.437 83.2762 26.0546 81.487 26.861C79.6978 27.6674 79.3678 29.6608 79.9263 30.9617C80.4846 32.2626 82.2611 32.9027 83.6824 32.1603C85.1035 31.4178 84.393 28.9858 83.1747 28.9602C81.9566 28.9346 81.5632 29.9202 81.7789 30.5474C81.9946 31.1746 82.4515 31.2386 82.5657 31.3538C82.6799 31.469 82.4134 31.7506 81.7409 31.3794C81.0684 31.0082 80.104 29.5745 81.6901 28.0641C83.2764 26.5537 85.9412 28.6466 85.7127 30.7393C85.4843 32.8322 84.5452 33.9778 82.2611 34.2082C79.9769 34.4386 77.8198 32.3138 78.0481 29.7025C78.2765 27.0913 79.0886 25.4016 82.2864 24.9408C85.4842 24.4799 87.3876 26.8609 87.8952 28.7552C88.4028 30.6497 88.352 33.3633 86.0679 35.1041C83.7838 36.845 79.85 36.6913 77.8451 34.0289C75.8402 31.3664 77.4898 27.6289 77.4898 27.6289V27.6291Z" fill="#1C7C5E"/>
<path d="M80.5148 35.0723C84.9841 36.8639 87.9171 32.2413 86.9379 29.5857C86.177 27.5226 83.3811 26.252 81.561 27.0378C79.7408 27.8237 79.4025 29.9627 79.9905 31.2212C80.7021 32.7442 82.421 33.2117 83.8668 32.4884C85.3126 31.765 84.7719 28.9865 83.3987 28.9741C82.1592 28.9628 81.6103 30.0186 81.8164 30.6345C82.0136 31.224 82.4364 31.3465 82.4296 31.407C82.4203 31.4913 82.0997 31.4902 81.8445 31.3602C81.1548 31.0091 80.154 29.6823 81.7676 28.2104C83.3813 26.7385 86.0921 28.778 85.8598 30.8173C85.6274 32.8565 84.6363 33.7245 82.3126 33.9491C79.9889 34.1735 78.0542 32.3364 78.2865 29.7919C78.5189 27.2474 79.5224 25.5973 82.3743 25.167C85.6215 24.6772 87.5638 27.038 88.0801 28.884C88.5965 30.7299 88.0855 33.4338 85.7208 35.0724C83.0992 36.889 80.5149 35.0724 80.5149 35.0724L80.5148 35.0723Z" fill="#37AA81"/>
<path d="M87.406 30.4082C87.406 30.4082 87.4331 30.4477 87.468 30.5235C87.4854 30.5614 87.5057 30.6078 87.5248 30.6626C87.5433 30.7174 87.5656 30.7798 87.5815 30.8495C87.6004 30.9189 87.6132 30.9954 87.6261 31.077C87.6369 31.1586 87.6448 31.2456 87.6477 31.3357C87.6477 31.4258 87.6502 31.5198 87.6383 31.6141C87.6332 31.6614 87.6301 31.7094 87.6231 31.757L87.5957 31.8993C87.579 31.9948 87.5476 32.0868 87.5191 32.1777C87.5116 32.2002 87.5051 32.223 87.4969 32.2451L87.4688 32.3097C87.4499 32.3523 87.4312 32.3944 87.4128 32.4357C87.3951 32.4772 87.374 32.5164 87.3508 32.5534C87.3285 32.5905 87.3066 32.6269 87.2853 32.6623C87.2446 32.7339 87.1938 32.7938 87.1493 32.8497C87.103 32.9046 87.0646 32.9568 87.0208 32.9958C86.9794 33.0364 86.9411 33.0695 86.9102 33.0969C86.8481 33.1515 86.8105 33.1796 86.8105 33.1796C86.8105 33.1796 86.8284 33.1344 86.8633 33.0604C86.8809 33.0235 86.9015 32.9787 86.9277 32.9298C86.9413 32.9057 86.9528 32.8781 86.9641 32.8488C86.9763 32.8202 86.989 32.7902 87.0024 32.7588C87.0293 32.6966 87.0624 32.6322 87.0863 32.5587C87.0999 32.523 87.1139 32.4863 87.1281 32.4489C87.1427 32.4118 87.1585 32.3745 87.169 32.3341C87.1913 32.2542 87.2243 32.1757 87.2433 32.0912C87.2628 32.007 87.2913 31.9241 87.3045 31.8371L87.3319 31.7087C87.3385 31.6655 87.3452 31.6225 87.3518 31.5798C87.3678 31.4945 87.3734 31.4094 87.3844 31.3271C87.3919 31.2446 87.3984 31.1641 87.403 31.0874C87.4059 31.0108 87.4112 30.9376 87.411 30.8699C87.4155 30.7339 87.4123 30.6191 87.4107 30.5376C87.4077 30.4554 87.406 30.4083 87.406 30.4083V30.4082Z" fill="#F9F5F2"/>
<path d="M80.6687 25.9202C79.5538 26.4607 78.6264 28.1788 78.8553 28.7744C78.9896 29.1233 79.7565 27.1285 81.5612 26.5178C83.4151 25.8905 84.3596 26.1115 84.7149 25.976C85.1069 25.8264 83.1279 24.7278 80.6686 25.9202H80.6687Z" fill="#5ACCA0"/>
<path d="M82.0982 28.2009C81.6362 28.4455 81.4504 29.5317 81.734 29.5784C81.8501 29.5975 81.9522 28.9609 82.6876 28.6325C83.3555 28.3341 83.6276 28.4703 83.7193 28.3399C83.8354 28.1749 83.0815 27.6801 82.0982 28.2009Z" fill="#5ACCA0"/>
<path d="M78.8457 28.3055C78.8457 28.3055 78.8497 28.2818 78.8599 28.2376C78.8709 28.1938 78.8862 28.1288 78.9119 28.0481C78.9377 27.9676 78.9701 27.8696 79.0154 27.7604C79.0388 27.7062 79.0623 27.6476 79.0898 27.5869C79.1183 27.5269 79.1486 27.4637 79.1831 27.3993C79.2515 27.2701 79.3302 27.1316 79.4257 26.9924C79.474 26.9232 79.5224 26.8508 79.5789 26.7821C79.6337 26.712 79.6901 26.6404 79.754 26.5729C79.7853 26.5386 79.8168 26.5039 79.8487 26.469C79.881 26.4344 79.9169 26.403 79.9513 26.3694C79.9861 26.3363 80.0213 26.3031 80.0565 26.2696C80.0933 26.2379 80.1321 26.2079 80.1702 26.1767C80.2087 26.1459 80.2472 26.115 80.2858 26.084L80.4092 25.9998L80.4716 25.9579L80.5027 25.9369L80.5184 25.9265L80.5203 25.9252L80.5289 25.9201L80.5328 25.9179L80.5406 25.9135L80.6653 25.8438C80.7079 25.8211 80.7467 25.7975 80.7928 25.776L80.9328 25.7128C81.0259 25.6677 81.1192 25.6362 81.2111 25.6039C81.3025 25.5688 81.3957 25.5434 81.4876 25.5187C81.579 25.4914 81.6706 25.4719 81.7608 25.4536C81.8507 25.4334 81.9398 25.4189 82.0272 25.4064C82.1143 25.3922 82.1999 25.3826 82.2834 25.3748C82.4499 25.3575 82.608 25.3514 82.7534 25.3507C82.8987 25.347 83.0319 25.3534 83.1495 25.3611C83.267 25.367 83.3692 25.3798 83.4529 25.3901C83.6205 25.4117 83.7146 25.4345 83.7146 25.4345C83.7146 25.4345 83.6193 25.4454 83.4525 25.4647C83.3696 25.4748 83.2693 25.4887 83.1548 25.5045C83.0976 25.5119 83.0368 25.5216 82.973 25.5325C82.9092 25.5424 82.8422 25.5519 82.7727 25.565C82.7031 25.5766 82.6307 25.5895 82.5566 25.6059C82.4821 25.6208 82.4052 25.6345 82.3271 25.6536C82.2488 25.6714 82.1682 25.6874 82.0873 25.71C82.0061 25.7314 81.9226 25.7499 81.84 25.7765C81.7569 25.8015 81.6718 25.8239 81.5886 25.8544C81.5047 25.8831 81.4193 25.9105 81.3365 25.9453C81.2948 25.9618 81.2528 25.9783 81.2107 25.9949C81.1684 26.0114 81.1309 26.0316 81.0904 26.0494L80.9707 26.1042C80.9306 26.123 80.888 26.1495 80.8467 26.1716L80.7213 26.2399L80.7135 26.2441L80.7096 26.2462C80.7075 26.2474 80.721 26.2395 80.7145 26.2434L80.7128 26.2446L80.6987 26.2539L80.6706 26.2725L80.6142 26.3095L80.5012 26.3825C80.4653 26.4094 80.4295 26.4362 80.3937 26.4629C80.3581 26.4897 80.3225 26.5165 80.2873 26.5432C80.2533 26.5718 80.2197 26.6004 80.1861 26.6287C80.1176 26.6838 80.0549 26.7442 79.9924 26.8033C79.8674 26.9209 79.7537 27.0437 79.649 27.1636C79.5446 27.2838 79.4495 27.4018 79.3646 27.5137C79.2816 27.6267 79.2062 27.7321 79.1416 27.8274C79.0788 27.9237 79.0231 28.0081 78.9796 28.0791C78.9371 28.1506 78.9019 28.2065 78.88 28.2457C78.8577 28.2849 78.8459 28.3058 78.8459 28.3058L78.8457 28.3055Z" fill="#F9F5F2"/>
<path d="M81.5992 29.2843C81.5992 29.2843 81.5912 29.2428 81.5918 29.1695C81.5922 29.0963 81.6016 28.9909 81.635 28.8675C81.6688 28.7447 81.7284 28.6035 81.8252 28.4693C81.873 28.4019 81.9308 28.3374 81.996 28.2785C82.0601 28.2199 82.1369 28.166 82.2106 28.1244C82.3704 28.0349 82.5386 27.9859 82.6993 27.9645C82.8594 27.9431 83.0086 27.9497 83.133 27.9684C83.2576 27.9875 83.3579 28.0176 83.4262 28.0434C83.4946 28.069 83.5311 28.0902 83.5311 28.0902C83.5311 28.0902 83.4902 28.0949 83.4188 28.103C83.3481 28.1118 83.2489 28.1239 83.1334 28.1434C83.018 28.1624 82.8864 28.1881 82.7523 28.2262C82.6191 28.2638 82.48 28.3166 82.3601 28.3834C82.294 28.4196 82.2383 28.4569 82.1821 28.4998C82.1267 28.5423 82.0758 28.589 82.028 28.6373C81.933 28.7343 81.8544 28.8399 81.7917 28.9365C81.7283 29.0329 81.6814 29.1205 81.6489 29.1833C81.6168 29.2461 81.5993 29.2844 81.5993 29.2844L81.5992 29.2843Z" fill="#F9F5F2"/>
<path d="M27.497 100.862C27.497 100.862 29.2368 100.535 29.9483 100.663C30.6596 100.791 32.7387 102.085 32.7947 102.385C32.8506 102.686 30.8711 103.246 30.7219 103.45C30.6471 103.552 31.0332 104.053 31.4005 104.585C31.7672 105.116 32.1154 105.677 31.9687 105.901C31.675 106.348 29.3493 105.399 29.2252 105.619C29.1013 105.839 29.6095 107.896 29.4364 108.105C29.2614 108.317 26.6716 106.93 26.3631 106.238C26.0548 105.546 25.5684 103.798 25.5684 103.798L27.4969 100.861L27.497 100.862Z" fill="#2C9673"/>
<path d="M21.7891 97.1732C21.7891 97.1732 21.3975 95.4469 20.997 94.845C20.5968 94.2432 18.5831 92.8497 18.2851 92.9177C17.9872 92.9859 18.2597 95.0251 18.1323 95.2428C18.005 95.4607 15.6813 94.6254 15.3876 95.0728C15.0939 95.5203 16.8895 97.2769 16.737 97.4781C16.5846 97.6792 14.4945 98.0306 14.3713 98.2726C14.2467 98.5173 16.5485 100.343 17.3063 100.35C18.064 100.358 19.8609 100.11 19.8609 100.11L21.7893 97.1731L21.7891 97.1732Z" fill="#2C9673"/>
<path d="M29.4136 108.1C29.5868 107.891 29.0786 105.833 29.2024 105.613C29.2024 105.613 27.8537 105.225 26.0291 104.107C26.0291 104.107 25.7153 103.967 25.5675 103.87C25.6651 104.214 26.071 105.627 26.3407 106.233C26.649 106.925 29.2388 108.311 29.4138 108.1L29.4136 108.1Z" fill="#1C7C5E"/>
<path d="M17.2993 100.351C18.057 100.358 19.8539 100.11 19.8539 100.11L19.9377 99.9827C18.045 98.2805 16.5457 96.5527 15.5633 94.965C15.4792 94.9859 15.4157 95.0203 15.381 95.0732C15.0874 95.5207 16.883 97.2773 16.7305 97.4784C16.5778 97.6795 14.4879 98.0308 14.3648 98.273C14.2402 98.5177 16.542 100.343 17.2996 100.351L17.2993 100.351Z" fill="#1C7C5E"/>
<path d="M21.3454 104.14C19.2179 102.743 18.5763 99.961 19.9127 97.9258C21.2489 95.8909 24.0568 95.3736 26.1845 96.7704C28.312 98.1673 28.9537 100.95 27.6173 102.985C26.2811 105.02 23.4729 105.537 21.3454 104.14Z" fill="#ED2E40"/>
<path d="M27.6422 101.102C27.9299 100.635 28.0607 100.078 27.9076 99.6049C27.4641 98.2346 26.0274 97.0841 24.8704 96.6371C24.1865 96.3728 23.7809 96.3972 23.5925 96.7032C23.4622 96.915 23.4358 97.2612 23.4929 97.7406C23.6327 98.9125 24.9943 101.793 25.7901 102.049C26.4786 102.27 27.2252 101.78 27.6422 101.102Z" fill="#FC5975"/>
<path d="M26.3124 104.273C25.3222 103.799 24.2631 103.266 23.2722 102.615C21.7641 101.625 20.4316 100.531 19.314 99.4037C18.9543 101.155 19.711 103.067 21.3563 104.148C22.9061 105.165 24.8444 105.18 26.3126 104.273L26.3124 104.273Z" fill="#CE1D2E"/>
<path d="M23.1692 99.939C23.0622 100.7 23.2972 101.298 23.4838 101.646C23.5484 101.767 23.6512 101.862 23.776 101.918C24.2113 102.114 24.641 102.25 25.0345 102.263C25.2046 102.269 25.223 102.2 25.15 102.1C24.9353 101.808 24.728 101.403 24.5436 100.752C24.5268 100.693 24.5131 100.662 24.4343 100.614C24.1304 100.429 23.6376 100.153 23.2575 99.8962C23.2226 99.8725 23.1775 99.8814 23.1693 99.9387L23.1692 99.939Z" fill="#FCF8E1"/>
<path d="M22.8757 99.6425C22.5411 99.3888 22.1049 99.0263 21.7508 98.7095C21.7016 98.6654 21.6273 98.6595 21.6056 98.7431C21.4009 99.5315 21.4368 100.167 21.5972 100.503C21.6278 100.568 21.6705 100.611 21.6927 100.629C22.0035 100.87 22.3749 101.116 22.7354 101.347C22.804 101.391 22.8836 101.408 22.8589 101.287C22.7746 100.878 22.7947 100.359 22.9053 99.7286C22.9137 99.6804 22.9023 99.6627 22.8757 99.6425Z" fill="#FCF8E1"/>
<path d="M21.4068 98.567C21.4322 98.5108 21.408 98.4665 21.3673 98.4418C21.1873 98.3325 20.6794 98.1738 20.4002 98.6275C19.8989 99.4422 20.8793 100.091 21.0045 100.131C21.0869 100.156 21.1029 100.115 21.1069 100.046C21.1209 99.8129 21.139 99.1614 21.4068 98.567Z" fill="#FCF8E1"/>
<path d="M24.9574 100.796C24.8575 100.797 24.6709 100.762 24.6709 100.762C24.973 101.371 25.474 101.907 25.7127 102.078C25.7855 102.13 25.8442 102.104 25.888 102.082C26.1308 101.957 26.3368 101.774 26.4889 101.527C26.8978 100.863 26.8447 100.288 26.7281 99.9237C26.4163 98.9473 25.3468 98.4698 25.226 98.4186C24.8458 98.2574 24.3794 98.4304 24.2062 98.8071C24.0161 99.2206 24.2545 99.7125 24.6438 99.8508C25.1036 100.014 25.446 100.309 25.3431 100.566C25.2705 100.747 25.1574 100.793 24.9576 100.796L24.9574 100.796Z" fill="white"/>
<path d="M191.759 13.4622C191.759 13.4622 193.025 10.7908 193.875 9.99839C194.725 9.20597 198.377 7.9433 198.812 8.2135C199.247 8.4837 198.046 11.7397 198.16 12.17C198.215 12.3757 199.14 12.4444 200.122 12.5587C201.192 12.6835 202.329 12.8619 202.477 13.3318C202.761 14.2324 199.309 16.2152 199.468 16.6309C199.544 16.8295 200.294 17.319 201.066 17.8265C201.908 18.3807 202.778 18.9566 202.829 19.2007C202.929 19.6741 198.666 21.5049 197.49 21.1189C196.313 20.7328 193.624 19.373 193.624 19.373L191.759 13.4622L191.759 13.4622Z" fill="#ED2E40"/>
<path d="M177.226 18.06C177.226 18.06 174.655 16.5996 173.504 16.4383C172.353 16.2773 168.638 17.3398 168.437 17.8108C168.236 18.2821 171.088 20.2591 171.242 20.6764C171.395 21.0939 168.09 23.2052 168.374 24.1055C168.521 24.5737 169.665 24.7017 170.743 24.7771C171.739 24.847 172.68 24.872 172.731 25.0793C172.839 25.5112 171.266 28.6734 171.454 29.1132C171.645 29.5579 176.186 28.6102 176.928 27.6186C177.67 26.6273 179.091 23.9703 179.091 23.9703L177.226 18.0595L177.226 18.06Z" fill="#1C7C5E"/>
<path d="M202.827 19.2006C202.775 18.956 201.905 18.3797 201.063 17.8259C200.29 17.3183 199.542 16.8294 199.465 16.6305C199.465 16.6305 197.669 17.9665 194.487 19.095C194.487 19.095 194.006 19.3483 193.74 19.432C194.271 19.6981 196.457 20.7808 197.486 21.1185C198.663 21.5042 202.926 19.6737 202.826 19.2003L202.827 19.2006Z" fill="#D21029"/>
<path d="M176.913 27.6193C177.655 26.6281 179.076 23.971 179.076 23.971L178.995 23.7147C175.005 24.2633 171.363 24.2637 168.397 23.7413C168.343 23.8764 168.325 23.9998 168.358 24.1057C168.506 24.5739 169.649 24.7019 170.727 24.7772C171.723 24.8472 172.664 24.8722 172.716 25.0796C172.824 25.5117 171.251 28.6733 171.439 29.1134C171.63 29.5582 176.171 28.6104 176.913 27.6191L176.913 27.6193Z" fill="#116046"/>
<path d="M187.877 26.0198C183.051 27.5432 178.091 25.4574 176.798 21.3618C175.506 17.266 178.37 12.7112 183.197 11.1879C188.023 9.66449 192.983 11.7503 194.276 15.8458C195.568 19.9416 192.704 24.4964 187.877 26.0198Z" fill="#F4A845"/>
<path d="M190.359 24.8754C190.615 24.7195 190.975 24.4646 191.21 24.2775C191.666 22.1131 191.469 19.4994 190.673 16.9781C189.877 14.4569 188.255 11.9157 186.929 10.7012C186.638 10.6829 186.37 10.6729 186.072 10.6923C189.094 15.0639 190.397 20.3024 190.359 24.8756L190.359 24.8754Z" fill="#EFECDF"/>
<path d="M192.961 16.2684C193.618 18.3511 193.585 20.4931 192.992 22.4708C194.457 20.4807 195.004 18.113 194.289 15.8492C193.575 13.5854 191.74 11.9394 189.426 11.1737C191.047 12.4528 192.303 14.1859 192.96 16.2686L192.961 16.2684Z" fill="#EFECDF"/>
<path d="M185.179 26.5111C184.88 26.5302 184.436 26.5278 184.136 26.5091C182.52 24.9986 181.185 22.7473 180.389 20.2263C179.593 17.705 179.464 14.693 179.852 12.9374C180.08 12.7552 180.294 12.5935 180.549 12.4376C180.583 17.752 182.523 22.7882 185.18 26.5112L185.179 26.5111Z" fill="#EFECDF"/>
<path d="M178.151 20.9444C178.808 23.0271 180.061 24.763 181.681 26.0424C179.368 25.2767 177.536 23.6276 176.822 21.3638C176.107 19.1 176.662 16.6686 178.119 14.7422C177.526 16.7197 177.493 18.8619 178.15 20.9446L178.151 20.9444Z" fill="#EFECDF"/>
<path d="M188.269 25.8946C188.087 24.756 187.424 20.7992 186.631 18.2852C185.826 15.734 184.061 12.0524 183.585 11.0779C183.37 11.1257 183.165 11.2045 182.949 11.2757C183.06 12.0514 183.327 15.051 184.501 18.9321C185.649 22.7205 187.134 25.3503 187.522 26.1306C187.747 26.0655 188.033 25.9828 188.269 25.8949L188.269 25.8946Z" fill="#EFECDF"/>
<path d="M191.277 24.2103C191.273 24.2138 191.268 24.2177 191.263 24.2215C191.268 24.2181 191.273 24.2141 191.277 24.2103ZM194.32 19.7324C193.859 21.4221 192.792 22.9994 191.278 24.2104C192.782 23.0079 193.855 21.4366 194.321 19.7327L194.32 19.7324Z" fill="#704C29"/>
<path d="M194.361 19.582C194.357 19.601 194.352 19.6202 194.347 19.6394C194.338 19.6741 194.329 19.7086 194.319 19.7432C194.334 19.6895 194.348 19.6357 194.361 19.582Z" fill="#F89F1E"/>
<path d="M190.086 20.9546C189.434 21.1993 188.771 21.4306 188.101 21.6423C187.907 21.7036 187.713 21.7637 187.519 21.8225C187.888 23.5778 188.162 25.2258 188.269 25.8966C189.022 25.6287 189.727 25.2851 190.372 24.8789C190.383 23.611 190.29 22.2923 190.087 20.9544L190.086 20.9546ZM192.999 22.4661C193.28 21.5289 193.436 20.5552 193.451 19.5682C192.782 19.8638 192.097 20.1582 191.397 20.4427C191.525 21.797 191.223 24.2822 191.223 24.2822C192.442 23.3023 192.999 22.4667 192.999 22.4667L192.999 22.4661Z" fill="#ED7829"/>
<path d="M191.378 20.4429C190.947 20.6182 190.509 20.7899 190.068 20.9553C190.272 22.2932 190.364 23.612 190.353 24.8802C190.65 24.6933 190.934 24.4937 191.204 24.2823C191.452 23.1064 191.507 21.7975 191.378 20.4432L191.378 20.4429Z" fill="#DBD8C8"/>
<path d="M194.463 19.0954C194.12 19.2505 193.772 19.4069 193.42 19.5629C193.404 20.5499 192.968 22.4608 192.968 22.4608C193.665 21.603 194.088 20.6185 194.346 19.6281C194.351 19.6091 194.356 19.5903 194.361 19.5712C194.4 19.4136 194.434 19.255 194.463 19.0952L194.463 19.0954Z" fill="#DBD8C8"/>
<path d="M187.891 26.0159C187.883 26.0186 187.876 26.0208 187.868 26.0235C187.876 26.021 187.884 26.0184 187.891 26.0159Z" fill="#704C29"/>
<path d="M181.683 23.2656C180.919 23.4129 180.164 23.5409 179.42 23.6499C180.009 24.5211 180.72 25.2914 181.527 25.9464C181.566 25.9776 181.604 26.0085 181.643 26.0394C182.428 26.2999 183.267 26.4586 184.138 26.5048C183.211 25.6389 182.376 24.5302 181.683 23.2662L181.683 23.2656ZM185.689 22.3393C184.813 22.5755 183.944 22.7878 183.086 22.9766C183.705 24.2463 184.413 25.4311 185.18 26.5067L185.177 26.5068C186.061 26.4636 186.966 26.3054 187.865 26.0213C187.874 26.0184 187.882 26.016 187.89 26.0132L187.892 26.0127C187.752 26.0564 187.612 26.0969 187.491 26.1322C187.233 25.6146 186.493 24.2829 185.689 22.3389L185.689 22.3393Z" fill="#ED7829"/>
<path d="M178.205 23.8128L178.205 23.8129L178.206 23.8149L178.206 23.815L178.205 23.8128Z" fill="#FCA925"/>
<path d="M178.203 23.824L178.202 23.8241C178.396 24.0417 178.604 24.248 178.824 24.4419C178.604 24.2478 178.397 24.0419 178.203 23.824Z" fill="#F89F1E"/>
<path d="M183.1 22.9729C182.629 23.0766 182.162 23.1726 181.697 23.2619C182.391 24.5259 183.225 25.6349 184.151 26.501L184.152 26.5006C184.494 26.5193 184.841 26.5201 185.191 26.5029L185.193 26.5029C184.427 25.4274 183.719 24.2426 183.1 22.9727L183.1 22.9729Z" fill="#DBD8C8"/>
<path d="M179.419 23.6442C179.002 23.7056 178.59 23.7606 178.181 23.8101L178.183 23.8126C178.376 24.0303 178.584 24.2364 178.804 24.4303C178.837 24.4599 178.871 24.4892 178.905 24.5183C178.946 24.5532 178.987 24.5873 179.029 24.6209C179.784 25.234 180.671 25.7117 181.642 26.0338C181.603 26.0029 181.565 25.9725 181.526 25.9408C180.719 25.2858 180.008 24.5154 179.419 23.6442Z" fill="#DBD8C8"/>
<path d="M187.496 21.8152C186.894 21.9985 186.294 22.1705 185.698 22.3317C186.502 24.2757 187.242 25.6073 187.5 26.1249C187.622 26.0894 187.761 26.0492 187.902 26.0054C188.018 25.9685 188.133 25.9299 188.247 25.8892C188.14 25.2188 187.866 23.5705 187.497 21.8155L187.496 21.8152Z" fill="#DBD8C8"/>
<path d="M186.823 11.891C185.919 11.9099 184.994 12.0436 184.115 12.2566C184.816 13.7509 185.889 16.1391 186.511 18.0167C187.635 18.1716 188.695 18.2321 189.463 18.1432C188.888 16.0048 188.018 13.877 186.823 11.8907L186.823 11.891ZM190.319 12.6977C190.071 12.4967 189.792 12.3389 189.484 12.239C189.02 12.0888 188.526 11.9907 188.015 11.9373C189.043 13.2761 190.069 15.1331 190.652 16.9795C190.711 17.1653 190.766 17.352 190.818 17.5385C192.077 16.283 191.699 13.8184 190.319 12.6974L190.319 12.6977Z" fill="#F7CC61"/>
<path d="M188.049 11.9341C187.66 11.8935 187.26 11.8792 186.857 11.8874C188.052 13.8737 188.922 16.0015 189.496 18.1399C189.883 18.095 190.196 18.0123 190.406 17.8844C190.573 17.7831 190.721 17.6656 190.852 17.5352C190.8 17.3485 190.744 17.1623 190.685 16.9762C190.103 15.1298 189.077 13.2728 188.048 11.934L188.049 11.9341Z" fill="#FFFEFA"/>
<path d="M183.089 12.5496C182.378 12.7814 181.72 13.0601 181.158 13.3633C180.951 13.4747 180.766 13.5839 180.6 13.6911C180.659 14.6322 180.775 15.5619 180.943 16.4741C180.966 16.4872 180.99 16.5007 181.014 16.5137C181.673 16.8784 182.814 17.2553 184.088 17.5583C183.531 15.4561 183.246 13.7006 183.089 12.5496Z" fill="#F7CC61"/>
<path d="M180.632 13.6982C180.152 14.0088 179.842 14.3034 179.693 14.5905C179.682 14.8412 179.678 15.1014 179.681 15.3688C179.779 15.5678 179.954 15.7666 180.202 15.9683C180.409 16.1365 180.668 16.3069 180.976 16.4811C180.808 15.5693 180.691 14.6392 180.632 13.6982Z" fill="#FFFEFA"/>
<path d="M184.155 12.2618C183.801 12.3475 183.454 12.4464 183.119 12.5558C183.276 13.7068 183.561 15.4623 184.118 17.5645C184.906 17.7521 185.745 17.9117 186.55 18.0225C185.928 16.1446 184.856 13.7564 184.155 12.2624L184.155 12.2618Z" fill="#FFFEFA"/>
<path d="M121.313 102.013C121.313 105.319 118.557 107.999 115.158 107.999C111.759 107.999 109.004 105.319 109.004 102.013C109.004 98.7071 111.707 96.0117 115.106 96.0117C118.505 96.0117 121.313 98.7071 121.313 102.013H121.313Z" fill="#D8E5E1"/>
<path d="M114.788 107.228C117.985 107.228 120.577 104.715 120.577 101.614C120.577 98.5135 117.985 96 114.788 96C111.592 96 109 98.5135 109 101.614C109 104.715 111.592 107.228 114.788 107.228Z" fill="#EFF4F2"/>
<path d="M114.797 98.9747C114.964 98.9747 115.125 99.0041 115.275 99.056L116.108 96.638C115.695 96.5035 115.256 96.4336 114.797 96.4336C114.337 96.4336 113.917 96.5035 113.516 96.6297L114.329 99.0521C114.476 99.0027 114.633 98.9749 114.797 98.9749V98.9747Z" fill="#E575F9"/>
<path d="M121.202 100.894C120.945 99.5744 120.243 98.4079 119.253 97.5484L118.734 97.5098L120.498 100.755L121.202 100.894L121.202 100.894Z" fill="#D21029"/>
<path d="M121.052 103.751L120.336 102.656L118.496 105.912L118.545 107.013C119.752 106.26 120.653 105.085 121.052 103.751Z" fill="#1C7C5E"/>
<path d="M114.789 101.615L110.924 97.4453C110.527 97.7849 110.051 98.2965 109.748 98.8335C109.436 99.3865 109.231 99.9706 109.109 100.558L114.789 101.615L118.495 105.913C118.943 105.503 119.436 105.026 119.752 104.466C120.059 103.924 120.332 103.256 120.455 102.68L114.789 101.615V101.615Z" fill="#2C9673"/>
<path d="M113.229 107.701C113.838 107.897 114.488 108 115.166 108C115.575 108 115.975 107.96 116.361 107.886L116.572 107.085L113.051 107.014L113.229 107.701Z" fill="#ED7829"/>
<path d="M109.059 102.812C109.251 104.212 109.929 105.495 110.948 106.379L110.846 105.727L109.079 102.535L109.059 102.812Z" fill="#D21029"/>
<path d="M114.785 101.613L109.078 102.534C109.153 103.091 109.397 103.714 109.682 104.26C109.975 104.824 110.432 105.338 110.845 105.726L114.785 101.613L120.507 100.754C120.435 100.195 120.219 99.5532 119.922 98.9824C119.634 98.4303 119.141 97.877 118.733 97.5078L114.785 101.613V101.613Z" fill="#ED2E40"/>
<path d="M113.028 96.3666L113.07 96.4892L116.628 96.29L117.072 96.3233C116.449 96.1138 115.789 96.0117 115.106 96.0117C114.374 96.0117 113.675 96.1373 113.027 96.3666H113.028Z" fill="#ED7829"/>
<path d="M114.785 101.615L113.017 106.963C113.574 107.137 114.168 107.231 114.784 107.231C115.401 107.231 116.03 107.13 116.602 106.947L114.785 101.615L116.624 96.2898C116.046 96.1017 115.433 96.0039 114.789 96.0039C114.145 96.0039 113.558 96.1019 112.996 96.2784L114.785 101.615H114.785Z" fill="#F4A845"/>
<path d="M111.411 106.177C111.411 106.177 111.599 106.282 111.945 106.426C112.117 106.499 112.33 106.578 112.576 106.659C112.823 106.739 113.105 106.816 113.415 106.882C113.725 106.946 114.065 106.994 114.424 107.016C114.783 107.038 115.163 107.026 115.549 106.978C115.936 106.931 116.327 106.834 116.711 106.699C117.096 106.563 117.469 106.379 117.82 106.157C117.862 106.129 117.909 106.102 117.949 106.075L118.082 105.985L118.206 105.897L118.33 105.803C118.493 105.676 118.649 105.543 118.796 105.402C119.088 105.119 119.349 104.811 119.56 104.485C119.772 104.16 119.944 103.822 120.074 103.488C120.204 103.153 120.298 102.825 120.363 102.515C120.427 102.206 120.465 101.917 120.486 101.659C120.506 101.4 120.512 101.174 120.509 100.987C120.503 100.612 120.442 100.398 120.442 100.398C120.442 100.398 120.555 100.692 120.592 100.98C120.618 101.168 120.642 101.398 120.647 101.663C120.653 101.928 120.644 102.229 120.601 102.555C120.56 102.881 120.488 103.233 120.369 103.593C120.251 103.954 120.091 104.326 119.873 104.681C119.656 105.037 119.392 105.384 119.08 105.692C118.925 105.846 118.76 105.994 118.585 106.13L118.453 106.231L118.316 106.33L118.182 106.421C118.134 106.454 118.088 106.482 118.041 106.512C117.663 106.745 117.259 106.938 116.844 107.08C116.429 107.223 116.003 107.304 115.589 107.343C115.175 107.384 114.772 107.369 114.396 107.326C114.02 107.284 113.671 107.205 113.357 107.113C113.041 107.023 112.762 106.915 112.519 106.808C112.276 106.702 112.073 106.594 111.908 106.5C111.743 106.407 111.619 106.324 111.536 106.268C111.452 106.211 111.41 106.177 111.41 106.177L111.411 106.177Z" fill="white"/>
<path d="M115.815 96.5463C116.476 96.5463 117.17 96.6527 117.78 96.811C116.899 96.2814 115.846 96 114.782 96C111.841 96 109.568 97.8344 109.066 100.72C110.235 98.2568 112.836 96.5463 115.815 96.5463H115.815Z" fill="white"/>
<path d="M114.789 96C114.166 96 113.543 96.0745 112.98 96.251L113.24 96.9958C114.046 96.7064 114.916 96.5461 115.822 96.5461C116.054 96.5461 116.29 96.5631 116.525 96.587L116.642 96.2916C115.855 96.0123 115.107 96 114.789 96H114.789Z" fill="#F2BE55"/>
<path d="M110.876 97.3984C110.479 97.738 110.03 98.2567 109.727 98.7937C109.426 99.3257 109.228 99.9006 109.105 100.556L109.153 100.566C109.675 99.5334 110.452 98.6415 111.402 97.9612L110.877 97.3984H110.876Z" fill="#37AA81"/>
<path d="M114.778 100.592L115.831 97.5429C115.499 97.4351 115.147 97.3789 114.778 97.3789C114.409 97.3789 114.072 97.4349 113.75 97.5362L114.774 100.592H114.778Z" fill="#F2BE55"/>
<path d="M113.823 101.103L111.667 98.7031C111.412 98.9408 111.192 99.2214 111.013 99.5441C110.84 99.8564 110.72 100.189 110.652 100.519L113.821 101.106L113.823 101.103H113.823Z" fill="#37AA81"/>
<path d="M114.805 102.791L115.858 105.662C115.526 105.763 115.175 105.816 114.805 105.816C114.436 105.816 114.1 105.763 113.777 105.668L114.802 102.791H114.805Z" fill="#F2BE55"/>
<path d="M115.705 102.168L118.73 102.613C118.661 102.952 118.539 103.287 118.363 103.611C118.193 103.925 117.98 104.206 117.742 104.444L115.703 102.171L115.705 102.168Z" fill="#37AA81"/>
<path d="M113.769 102.182L111.726 104.457C111.481 104.212 111.269 103.926 111.097 103.6C110.929 103.284 110.813 102.951 110.746 102.622L113.767 102.18L113.769 102.183V102.182Z" fill="#F94B61"/>
<path d="M115.685 101.148L118.781 100.699C118.718 100.357 118.601 100.021 118.428 99.6947C118.261 99.379 118.05 99.0965 117.812 98.8574L115.684 101.145L115.685 101.148Z" fill="#F94B61"/>
<circle cx="207.5" cy="54.5" r="3.5" fill="#AEE67F"/>
<circle cx="67.5" cy="97.5" r="3.5" fill="#FFE81E"/>
<circle cx="54" cy="36" r="2" fill="#FFE81E"/>
</svg>
