<svg width="343" height="36" viewBox="0 0 343 36" fill="none" xmlns="http://www.w3.org/2000/svg">
<path d="M0 18C0 8.05888 8.05888 0 18 0H325C334.941 0 343 8.05888 343 18C343 27.9411 334.941 36 325 36H18C8.05888 36 0 27.9411 0 18Z" fill="#AEE67F"/>
<path fill-rule="evenodd" clip-rule="evenodd" d="M255.5 12C255.776 12 256 12.2239 256 12.5L256 30.9747C256 31.2508 255.776 31.4747 255.5 31.4747C255.224 31.4747 255 31.2508 255 30.9747L255 12.5C255 12.2239 255.224 12 255.5 12Z" fill="white"/>
<path fill-rule="evenodd" clip-rule="evenodd" d="M253.107 13.4492C253.303 13.2539 253.619 13.2539 253.814 13.4492L255.502 15.1368L257.19 13.4493C257.385 13.2541 257.701 13.2541 257.897 13.4493C258.092 13.6446 258.092 13.9612 257.897 14.1564L255.855 16.1975C255.762 16.2912 255.635 16.3439 255.502 16.3439C255.369 16.3439 255.242 16.2912 255.148 16.1974L253.107 14.1563C252.912 13.961 252.912 13.6444 253.107 13.4492Z" fill="white"/>
<path fill-rule="evenodd" clip-rule="evenodd" d="M255.502 27.1289C255.635 27.1289 255.762 27.1816 255.856 27.2754L257.897 29.3167C258.092 29.512 258.092 29.8285 257.896 30.0238C257.701 30.219 257.385 30.219 257.189 30.0237L255.502 28.336L253.814 30.0236C253.619 30.2189 253.303 30.2189 253.107 30.0236C252.912 29.8284 252.912 29.5118 253.107 29.3165L255.148 27.2754C255.242 27.1816 255.369 27.1289 255.502 27.1289Z" fill="white"/>
<path fill-rule="evenodd" clip-rule="evenodd" d="M247.067 16.8692C247.205 16.6301 247.511 16.5481 247.75 16.6862L263.75 25.9239C263.989 26.062 264.071 26.3678 263.933 26.6069C263.795 26.8461 263.489 26.928 263.25 26.79L247.25 17.5522C247.011 17.4142 246.929 17.1084 247.067 16.8692Z" fill="white"/>
<path fill-rule="evenodd" clip-rule="evenodd" d="M249.519 15.5211C249.786 15.4496 250.06 15.6079 250.132 15.8746L250.879 18.6625C250.95 18.9292 250.792 19.2034 250.525 19.2749L247.737 20.0222C247.47 20.0937 247.196 19.9355 247.125 19.6687C247.053 19.402 247.211 19.1278 247.478 19.0563L249.784 18.4384L249.166 16.1335C249.094 15.8667 249.253 15.5926 249.519 15.5211Z" fill="white"/>
<path fill-rule="evenodd" clip-rule="evenodd" d="M263.874 23.8083C263.946 24.075 263.788 24.3491 263.521 24.4206L261.216 25.038L261.834 27.3435C261.905 27.6102 261.747 27.8844 261.48 27.9559C261.213 28.0273 260.939 27.869 260.868 27.6023L260.121 24.8138C260.086 24.6857 260.104 24.5492 260.171 24.4343C260.237 24.3195 260.346 24.2357 260.474 24.2014L263.262 23.4546C263.529 23.3832 263.803 23.5415 263.874 23.8083Z" fill="white"/>
<path fill-rule="evenodd" clip-rule="evenodd" d="M263.933 16.8692C264.071 17.1084 263.989 17.4142 263.75 17.5522L247.75 26.7898C247.511 26.9279 247.205 26.8459 247.067 26.6068C246.929 26.3677 247.011 26.0619 247.25 25.9238L263.25 16.6862C263.489 16.5481 263.795 16.6301 263.933 16.8692Z" fill="white"/>
<path fill-rule="evenodd" clip-rule="evenodd" d="M247.125 23.8082C247.196 23.5415 247.47 23.3832 247.737 23.4547L250.525 24.2017C250.653 24.236 250.763 24.3198 250.829 24.4347C250.895 24.5495 250.913 24.686 250.879 24.8141L250.132 27.6025C250.06 27.8692 249.786 28.0275 249.519 27.956C249.253 27.8845 249.094 27.6103 249.166 27.3436L249.784 25.0382L247.478 24.4206C247.211 24.3491 247.053 24.075 247.125 23.8082Z" fill="white"/>
<path fill-rule="evenodd" clip-rule="evenodd" d="M261.48 15.5211C261.747 15.5925 261.905 15.8667 261.834 16.1334L261.216 18.4386L263.521 19.0559C263.788 19.1273 263.946 19.4014 263.875 19.6682C263.803 19.9349 263.529 20.0933 263.262 20.0218L260.474 19.2752C260.346 19.2409 260.237 19.1571 260.171 19.0423C260.104 18.9274 260.086 18.7909 260.121 18.6628L260.868 15.8746C260.939 15.6079 261.213 15.4496 261.48 15.5211Z" fill="white"/>
<path fill-rule="evenodd" clip-rule="evenodd" d="M252.94 17.3054C253.179 17.1673 253.484 17.2492 253.623 17.4884L258.241 25.4881C258.379 25.7272 258.297 26.033 258.058 26.1711C257.819 26.3091 257.513 26.2272 257.375 25.9881L252.757 17.9884C252.618 17.7492 252.7 17.4434 252.94 17.3054Z" fill="white"/>
<path fill-rule="evenodd" clip-rule="evenodd" d="M258.058 17.3054C258.297 17.4434 258.379 17.7492 258.241 17.9884L253.623 25.9882C253.484 26.2273 253.179 26.3093 252.94 26.1712C252.7 26.0331 252.618 25.7273 252.757 25.4882L257.375 17.4884C257.513 17.2492 257.819 17.1673 258.058 17.3054Z" fill="white"/>
<path fill-rule="evenodd" clip-rule="evenodd" d="M250.381 21.7383C250.381 21.4621 250.605 21.2383 250.881 21.2383L260.118 21.2384C260.394 21.2384 260.618 21.4623 260.618 21.7384C260.618 22.0146 260.394 22.2384 260.118 22.2384L250.881 22.2383C250.605 22.2383 250.381 22.0144 250.381 21.7383Z" fill="white"/>
<path d="M257.315 20.6903L255.5 19.6426L253.686 20.6902V22.7856L255.5 23.8333L257.315 22.7856L257.315 20.6903Z" fill="#F5F6F6"/>
<path fill-rule="evenodd" clip-rule="evenodd" d="M255.252 19.2096C255.407 19.1202 255.597 19.1202 255.752 19.2096L257.567 20.2573C257.721 20.3466 257.817 20.5116 257.817 20.6902L257.817 22.7855C257.817 22.9642 257.722 23.1293 257.567 23.2186L255.752 24.2663C255.597 24.3557 255.407 24.3556 255.252 24.2663L253.437 23.2186C253.283 23.1293 253.188 22.9642 253.188 22.7856V20.6901C253.188 20.5115 253.283 20.3465 253.437 20.2571L255.252 19.2096ZM254.187 20.9788V22.4969L255.502 23.256L256.817 22.4969L256.817 20.979L255.502 20.2199L254.187 20.9788Z" fill="white"/>
<path fill-rule="evenodd" clip-rule="evenodd" d="M85.5019 4C85.7455 4 85.943 4.19752 85.943 4.44118L85.9429 20.7424C85.9429 20.986 85.7454 21.1836 85.5017 21.1836C85.2581 21.1836 85.0605 20.986 85.0605 20.7424L85.0607 4.44117C85.0607 4.19752 85.2582 4 85.5019 4Z" fill="white"/>
<path fill-rule="evenodd" clip-rule="evenodd" d="M83.3909 5.2796C83.5632 5.10731 83.8426 5.10732 84.0149 5.27962L85.5038 6.76868L86.9929 5.27973C87.1652 5.10744 87.4445 5.10746 87.6168 5.27975C87.7891 5.45204 87.789 5.73138 87.6168 5.90366L85.8157 7.70456C85.733 7.78729 85.6208 7.83376 85.5038 7.83376C85.3868 7.83376 85.2745 7.78727 85.1918 7.70453L83.3909 5.90351C83.2186 5.73121 83.2187 5.45188 83.3909 5.2796Z" fill="white"/>
<path fill-rule="evenodd" clip-rule="evenodd" d="M85.5038 17.3516C85.6208 17.3516 85.733 17.3981 85.8158 17.4808L87.6167 19.282C87.7889 19.4543 87.7889 19.7336 87.6166 19.9059C87.4443 20.0781 87.165 20.0781 86.9927 19.9058L85.5038 18.4167L84.0149 19.9057C83.8426 20.078 83.5632 20.078 83.3909 19.9057C83.2187 19.7334 83.2186 19.4541 83.3909 19.2818L85.1918 17.4808C85.2746 17.398 85.3868 17.3516 85.5038 17.3516Z" fill="white"/>
<path fill-rule="evenodd" clip-rule="evenodd" d="M78.0592 8.29487C78.181 8.08387 78.4508 8.01157 78.6618 8.1334L92.7793 16.2843C92.9904 16.4062 93.0626 16.676 92.9408 16.887C92.819 17.098 92.5492 17.1703 92.3382 17.0485L78.2207 8.89753C78.0096 8.7757 77.9374 8.50588 78.0592 8.29487Z" fill="white"/>
<path fill-rule="evenodd" clip-rule="evenodd" d="M80.2199 7.10499C80.4552 7.04192 80.6972 7.18157 80.7602 7.41692L81.4195 9.87684C81.4826 10.1122 81.343 10.3541 81.1076 10.4172L78.6473 11.0766C78.4119 11.1397 78.17 11 78.1069 10.7647C78.0439 10.5293 78.1835 10.2874 78.4189 10.2243L80.4531 9.67913L79.908 7.64534C79.8449 7.40999 79.9845 7.16807 80.2199 7.10499Z" fill="white"/>
<path fill-rule="evenodd" clip-rule="evenodd" d="M92.8858 14.417C92.9489 14.6523 92.8092 14.8942 92.5738 14.9573L90.5401 15.502L91.0851 17.5363C91.1481 17.7717 91.0085 18.0136 90.7731 18.0766C90.5377 18.1397 90.2958 18 90.2328 17.7646L89.5736 15.3042C89.5433 15.1912 89.5592 15.0707 89.6177 14.9694C89.6762 14.8681 89.7726 14.7942 89.8856 14.7639L92.3455 14.105C92.5809 14.0419 92.8228 14.1816 92.8858 14.417Z" fill="white"/>
<path fill-rule="evenodd" clip-rule="evenodd" d="M92.9408 8.29488C93.0626 8.50589 92.9903 8.7757 92.7793 8.89753L78.6618 17.0483C78.4508 17.1702 78.181 17.0979 78.0592 16.8869C77.9374 16.6758 78.0096 16.406 78.2207 16.2842L92.3382 8.1334C92.5492 8.01157 92.819 8.08387 92.9408 8.29488Z" fill="white"/>
<path fill-rule="evenodd" clip-rule="evenodd" d="M78.1069 14.417C78.17 14.1816 78.4119 14.0419 78.6472 14.105L81.1076 14.7641C81.2206 14.7944 81.317 14.8684 81.3755 14.9697C81.434 15.071 81.4498 15.1915 81.4195 15.3045L80.7602 17.7648C80.6972 18.0002 80.4553 18.1398 80.2199 18.0767C79.9846 18.0137 79.8449 17.7718 79.908 17.5364L80.4531 15.5023L78.4189 14.9573C78.1836 14.8942 78.0439 14.6523 78.1069 14.417Z" fill="white"/>
<path fill-rule="evenodd" clip-rule="evenodd" d="M90.7731 7.10498C91.0085 7.16804 91.1481 7.40995 91.0851 7.6453L90.5401 9.67929L92.5741 10.2239C92.8094 10.2869 92.9491 10.5288 92.8861 10.7642C92.8231 10.9996 92.5812 11.1393 92.3458 11.0762L89.8857 10.4175C89.7726 10.3872 89.6762 10.3133 89.6177 10.2119C89.5592 10.1106 89.5433 9.99017 89.5736 9.87714L90.2328 7.41695C90.2958 7.1816 90.5378 7.04193 90.7731 7.10498Z" fill="white"/>
<path fill-rule="evenodd" clip-rule="evenodd" d="M83.2421 8.68028C83.4531 8.55845 83.723 8.63074 83.8448 8.84175L87.9202 15.9003C88.042 16.1113 87.9697 16.3811 87.7587 16.503C87.5477 16.6248 87.2779 16.5525 87.1561 16.3415L83.0807 9.28293C82.9588 9.07192 83.0311 8.80211 83.2421 8.68028Z" fill="white"/>
<path fill-rule="evenodd" clip-rule="evenodd" d="M87.7587 8.68027C87.9697 8.8021 88.042 9.07192 87.9202 9.28293L83.8448 16.3416C83.723 16.5526 83.4531 16.6249 83.2421 16.5031C83.0311 16.3813 82.9588 16.1114 83.0807 15.9004L87.1561 8.84175C87.2779 8.63074 87.5477 8.55845 87.7587 8.68027Z" fill="white"/>
<path fill-rule="evenodd" clip-rule="evenodd" d="M80.9824 12.5916C80.9824 12.3479 81.1799 12.1504 81.4236 12.1504L89.5741 12.1505C89.8178 12.1505 90.0153 12.348 90.0153 12.5917C90.0153 12.8354 89.8178 13.0329 89.5741 13.0329L81.4236 13.0327C81.1799 13.0327 80.9824 12.8352 80.9824 12.5916Z" fill="white"/>
<path d="M87.1006 11.6666L85.4994 10.7422L83.8984 11.6665V13.5154L85.4994 14.4399L87.1008 13.5154L87.1006 11.6666Z" fill="#F5F6F6"/>
<path fill-rule="evenodd" clip-rule="evenodd" d="M85.2806 10.3599C85.4171 10.2811 85.5852 10.2811 85.7217 10.3599L87.3229 11.2844C87.4594 11.3632 87.5434 11.5088 87.5435 11.6664L87.5437 13.5151C87.5437 13.6728 87.4596 13.8185 87.3231 13.8973L85.7217 14.8217C85.5852 14.9006 85.417 14.9005 85.2805 14.8217L83.6795 13.8973C83.5431 13.8185 83.459 13.6728 83.459 13.5152V11.6663C83.459 11.5087 83.5431 11.363 83.6796 11.2842L85.2806 10.3599ZM84.3413 11.921V13.2605L85.5012 13.9302L86.6613 13.2605L86.6611 11.9211L85.5011 11.2514L84.3413 11.921Z" fill="white"/>
<path fill-rule="evenodd" clip-rule="evenodd" d="M57.5009 17C57.6146 17 57.7067 17.0922 57.7067 17.2059L57.7067 24.8131C57.7067 24.9268 57.6145 25.019 57.5008 25.019C57.3871 25.019 57.2949 24.9268 57.2949 24.8131L57.295 17.2059C57.295 17.0922 57.3872 17 57.5009 17Z" fill="white"/>
<path fill-rule="evenodd" clip-rule="evenodd" d="M56.5173 17.5974C56.5977 17.517 56.7281 17.517 56.8085 17.5974L57.5033 18.2923L58.1982 17.5975C58.2786 17.5171 58.409 17.5171 58.4894 17.5975C58.5698 17.6779 58.5698 17.8082 58.4894 17.8886L57.6489 18.7291C57.6103 18.7677 57.5579 18.7894 57.5033 18.7893C57.4487 18.7893 57.3964 18.7677 57.3577 18.729L56.5173 17.8886C56.4369 17.8082 56.4369 17.6778 56.5173 17.5974Z" fill="white"/>
<path fill-rule="evenodd" clip-rule="evenodd" d="M57.5033 23.2305C57.5579 23.2305 57.6103 23.2522 57.6489 23.2908L58.4893 24.1313C58.5697 24.2117 58.5697 24.3421 58.4893 24.4225C58.4089 24.5029 58.2786 24.5029 58.1982 24.4225L57.5033 23.7275L56.8085 24.4224C56.7281 24.5028 56.5977 24.5028 56.5173 24.4224C56.4369 24.342 56.4369 24.2117 56.5173 24.1313L57.3577 23.2908C57.3964 23.2522 57.4487 23.2305 57.5033 23.2305Z" fill="white"/>
<path fill-rule="evenodd" clip-rule="evenodd" d="M54.0276 19.0034C54.0845 18.9049 54.2104 18.8712 54.3089 18.928L60.897 22.7318C60.9955 22.7886 61.0292 22.9145 60.9724 23.013C60.9155 23.1115 60.7896 23.1452 60.6911 23.0884L54.103 19.2846C54.0045 19.2277 53.9708 19.1018 54.0276 19.0034Z" fill="white"/>
<path fill-rule="evenodd" clip-rule="evenodd" d="M55.0361 18.4485C55.1459 18.419 55.2588 18.4842 55.2882 18.594L55.5959 19.742C55.6253 19.8518 55.5602 19.9647 55.4504 19.9942L54.3022 20.3019C54.1924 20.3313 54.0795 20.2662 54.05 20.1563C54.0206 20.0465 54.0858 19.9336 54.1956 19.9042L55.1449 19.6497L54.8905 18.7006C54.8611 18.5908 54.9263 18.4779 55.0361 18.4485Z" fill="white"/>
<path fill-rule="evenodd" clip-rule="evenodd" d="M60.9472 21.8616C60.9767 21.9715 60.9115 22.0844 60.8016 22.1138L59.8526 22.368L60.1069 23.3173C60.1363 23.4272 60.0711 23.5401 59.9613 23.5695C59.8515 23.5989 59.7386 23.5337 59.7092 23.4239L59.4015 22.2757C59.3874 22.2229 59.3948 22.1667 59.4221 22.1195C59.4494 22.0722 59.4944 22.0377 59.5471 22.0235L60.6951 21.716C60.8049 21.6866 60.9178 21.7518 60.9472 21.8616Z" fill="white"/>
<path fill-rule="evenodd" clip-rule="evenodd" d="M60.9724 19.0034C61.0292 19.1018 60.9955 19.2278 60.897 19.2846L54.3089 23.0883C54.2104 23.1452 54.0845 23.1114 54.0276 23.013C53.9708 22.9145 54.0045 22.7886 54.103 22.7317L60.6911 18.928C60.7896 18.8712 60.9155 18.9049 60.9724 19.0034Z" fill="white"/>
<path fill-rule="evenodd" clip-rule="evenodd" d="M54.05 21.8616C54.0795 21.7518 54.1923 21.6866 54.3022 21.716L55.4503 22.0237C55.5031 22.0378 55.548 22.0723 55.5753 22.1196C55.6027 22.1669 55.61 22.2231 55.5959 22.2758L55.2882 23.424C55.2588 23.5338 55.1459 23.599 55.0361 23.5695C54.9263 23.5401 54.8611 23.4272 54.8905 23.3174L55.1449 22.3681L54.1956 22.1138C54.0858 22.0844 54.0206 21.9715 54.05 21.8616Z" fill="white"/>
<path fill-rule="evenodd" clip-rule="evenodd" d="M59.9613 18.4485C60.0711 18.4779 60.1363 18.5908 60.1069 18.7006L59.8526 19.6498L60.8018 19.904C60.9116 19.9334 60.9768 20.0463 60.9474 20.1561C60.918 20.2659 60.8051 20.3311 60.6952 20.3017L59.5472 19.9943C59.4944 19.9802 59.4494 19.9457 59.4221 19.8984C59.3948 19.8511 59.3874 19.7949 59.4015 19.7421L59.7092 18.5941C59.7386 18.4842 59.8515 18.419 59.9613 18.4485Z" fill="white"/>
<path fill-rule="evenodd" clip-rule="evenodd" d="M56.4448 19.1839C56.5432 19.127 56.6692 19.1608 56.726 19.2592L58.6279 22.5532C58.6847 22.6517 58.651 22.7776 58.5525 22.8345C58.454 22.8913 58.3281 22.8576 58.2713 22.7591L56.3694 19.4651C56.3126 19.3666 56.3463 19.2407 56.4448 19.1839Z" fill="white"/>
<path fill-rule="evenodd" clip-rule="evenodd" d="M58.5525 19.1839C58.651 19.2407 58.6847 19.3666 58.6279 19.4651L56.726 22.7592C56.6692 22.8576 56.5432 22.8914 56.4448 22.8345C56.3463 22.7777 56.3126 22.6517 56.3694 22.5533L58.2713 19.2592C58.3281 19.1608 58.454 19.127 58.5525 19.1839Z" fill="white"/>
<path fill-rule="evenodd" clip-rule="evenodd" d="M55.3906 21.0086C55.3906 20.8949 55.4828 20.8027 55.5965 20.8027L59.4001 20.8028C59.5138 20.8028 59.606 20.895 59.606 21.0087C59.606 21.1224 59.5138 21.2146 59.4001 21.2146L55.5965 21.2145C55.4828 21.2145 55.3906 21.1223 55.3906 21.0086Z" fill="white"/>
<path d="M58.2482 20.5779L57.501 20.1465L56.7539 20.5778V21.4407L57.501 21.8721L58.2484 21.4407L58.2482 20.5779Z" fill="#F5F6F6"/>
<path fill-rule="evenodd" clip-rule="evenodd" d="M57.3969 19.969C57.4606 19.9322 57.5391 19.9322 57.6028 19.969L58.35 20.4004C58.4137 20.4372 58.453 20.5051 58.453 20.5787L58.4531 21.4414C58.4531 21.515 58.4138 21.583 58.3501 21.6198L57.6028 22.0512C57.5391 22.088 57.4606 22.088 57.3969 22.0512L56.6498 21.6198C56.5861 21.583 56.5469 21.515 56.5469 21.4415V20.5786C56.5469 20.5051 56.5861 20.4371 56.6498 20.4003L57.3969 19.969ZM56.9586 20.6975V21.3226L57.4999 21.6352L58.0413 21.3226L58.0412 20.6976L57.4999 20.385L56.9586 20.6975Z" fill="white"/>
<path fill-rule="evenodd" clip-rule="evenodd" d="M41.1831 6C41.254 6 41.3115 6.05747 41.3115 6.12837L41.3114 10.8716C41.3114 10.9425 41.254 11 41.1831 11C41.1122 11 41.0547 10.9425 41.0547 10.8716L41.0547 6.12837C41.0547 6.05747 41.1122 6 41.1831 6Z" fill="white"/>
<path fill-rule="evenodd" clip-rule="evenodd" d="M40.5708 6.37158C40.6209 6.32145 40.7022 6.32145 40.7523 6.37159L41.1856 6.80487L41.6189 6.37162C41.669 6.32149 41.7503 6.32149 41.8004 6.37162C41.8505 6.42176 41.8505 6.50304 41.8004 6.55317L41.2764 7.07718C41.2523 7.10126 41.2196 7.11478 41.1856 7.11478C41.1515 7.11478 41.1189 7.10125 41.0948 7.07718L40.5708 6.55312C40.5207 6.50299 40.5207 6.42171 40.5708 6.37158Z" fill="white"/>
<path fill-rule="evenodd" clip-rule="evenodd" d="M41.1856 9.88477C41.2196 9.88477 41.2523 9.89829 41.2764 9.92237L41.8004 10.4465C41.8505 10.4966 41.8505 10.5779 41.8004 10.628C41.7502 10.6781 41.669 10.6781 41.6188 10.628L41.1856 10.1947L40.7523 10.628C40.7022 10.6781 40.6209 10.6781 40.5708 10.628C40.5207 10.5778 40.5207 10.4966 40.5708 10.4464L41.0948 9.92237C41.1189 9.89829 41.1515 9.88477 41.1856 9.88477Z" fill="white"/>
<path fill-rule="evenodd" clip-rule="evenodd" d="M39.0172 7.24975C39.0527 7.18835 39.1312 7.16732 39.1926 7.20277L43.3004 9.57449C43.3618 9.60994 43.3829 9.68845 43.3474 9.74985C43.312 9.81125 43.2335 9.83228 43.1721 9.79684L39.0642 7.42511C39.0028 7.38966 38.9818 7.31115 39.0172 7.24975Z" fill="white"/>
<path fill-rule="evenodd" clip-rule="evenodd" d="M39.6446 6.90285C39.7131 6.88449 39.7835 6.92513 39.8018 6.99361L39.9937 7.70939C40.012 7.77787 39.9714 7.84826 39.9029 7.86661L39.187 8.05849C39.1185 8.07685 39.0482 8.03621 39.0298 7.96773C39.0114 7.89925 39.0521 7.82886 39.1206 7.8105L39.7125 7.65186L39.5539 7.06007C39.5355 6.99159 39.5761 6.9212 39.6446 6.90285Z" fill="white"/>
<path fill-rule="evenodd" clip-rule="evenodd" d="M43.3295 9.03074C43.3478 9.09922 43.3072 9.16961 43.2387 9.18795L42.6469 9.34646L42.8055 9.93839C42.8238 10.0069 42.7832 10.0773 42.7147 10.0956C42.6462 10.114 42.5758 10.0733 42.5575 10.0048L42.3657 9.28889C42.3569 9.25601 42.3615 9.22097 42.3785 9.19148C42.3956 9.162 42.4236 9.14048 42.4565 9.13167L43.1723 8.93995C43.2407 8.92161 43.3111 8.96225 43.3295 9.03074Z" fill="white"/>
<path fill-rule="evenodd" clip-rule="evenodd" d="M43.3474 7.24975C43.3829 7.31115 43.3618 7.38966 43.3004 7.42511L39.1926 9.7968C39.1312 9.83225 39.0527 9.81121 39.0172 9.74981C38.9818 9.68841 39.0028 9.6099 39.0642 9.57445L43.1721 7.20277C43.2335 7.16732 43.312 7.18835 43.3474 7.24975Z" fill="white"/>
<path fill-rule="evenodd" clip-rule="evenodd" d="M39.0298 9.03073C39.0481 8.96225 39.1185 8.9216 39.187 8.93995L39.9029 9.13175C39.9358 9.14056 39.9638 9.16208 39.9809 9.19156C39.9979 9.22105 40.0025 9.25609 39.9937 9.28898L39.8018 10.0049C39.7835 10.0734 39.7131 10.114 39.6446 10.0956C39.5761 10.0773 39.5355 10.0069 39.5539 9.93842L39.7125 9.34652L39.1206 9.18795C39.0521 9.1696 39.0114 9.09921 39.0298 9.03073Z" fill="white"/>
<path fill-rule="evenodd" clip-rule="evenodd" d="M42.7147 6.90284C42.7832 6.92119 42.8238 6.99158 42.8055 7.06006L42.6469 7.6519L43.2388 7.81038C43.3072 7.82872 43.3479 7.8991 43.3296 7.96759C43.3112 8.03607 43.2408 8.07672 43.1724 8.05838L42.4565 7.8667C42.4236 7.85789 42.3956 7.83638 42.3785 7.80689C42.3615 7.77741 42.3569 7.74236 42.3657 7.70947L42.5575 6.99362C42.5759 6.92514 42.6462 6.88449 42.7147 6.90284Z" fill="white"/>
<path fill-rule="evenodd" clip-rule="evenodd" d="M40.5251 7.36097C40.5865 7.32552 40.6651 7.34656 40.7005 7.40795L41.8863 9.46182C41.9218 9.52322 41.9008 9.60173 41.8394 9.63718C41.778 9.67263 41.6995 9.6516 41.664 9.5902L40.4782 7.53633C40.4427 7.47493 40.4637 7.39642 40.5251 7.36097Z" fill="white"/>
<path fill-rule="evenodd" clip-rule="evenodd" d="M41.8394 7.36097C41.9008 7.39642 41.9218 7.47493 41.8863 7.53633L40.7005 9.59024C40.6651 9.65163 40.5865 9.67267 40.5251 9.63722C40.4637 9.60177 40.4427 9.52326 40.4782 9.46186L41.664 7.40796C41.6995 7.34656 41.778 7.32552 41.8394 7.36097Z" fill="white"/>
<path fill-rule="evenodd" clip-rule="evenodd" d="M39.8672 8.49946C39.8672 8.42857 39.9247 8.37109 39.9956 8.37109L42.3672 8.37113C42.4381 8.37113 42.4955 8.42861 42.4955 8.4995C42.4955 8.5704 42.4381 8.62787 42.3672 8.62787L39.9956 8.62783C39.9247 8.62783 39.8672 8.57036 39.8672 8.49946Z" fill="white"/>
<path d="M41.6485 8.22993L41.1826 7.96094L40.7168 8.2299V8.76789L41.1826 9.03689L41.6486 8.76789L41.6485 8.22993Z" fill="#F5F6F6"/>
<path fill-rule="evenodd" clip-rule="evenodd" d="M41.1179 7.85118C41.1576 7.82825 41.2066 7.82825 41.2463 7.85118L41.7122 8.12018C41.7519 8.14311 41.7764 8.18548 41.7764 8.23133L41.7765 8.76929C41.7765 8.81516 41.752 8.85755 41.7123 8.88048L41.2463 9.14948C41.2066 9.17241 41.1576 9.1724 41.1179 9.14947L40.6521 8.88047C40.6124 8.85754 40.5879 8.81517 40.5879 8.76931V8.23131C40.5879 8.18545 40.6124 8.14307 40.6521 8.12014L41.1179 7.85118ZM40.8446 8.30543V8.6952L41.1821 8.89007L41.5197 8.69519L41.5196 8.30547L41.1821 8.11059L40.8446 8.30543Z" fill="white"/>
<path fill-rule="evenodd" clip-rule="evenodd" d="M290.619 25C290.704 25 290.773 25.069 290.773 25.154L290.773 30.846C290.773 30.931 290.704 31 290.619 31C290.534 31 290.465 30.931 290.465 30.846L290.465 25.154C290.465 25.069 290.534 25 290.619 25Z" fill="white"/>
<path fill-rule="evenodd" clip-rule="evenodd" d="M289.881 25.4475C289.941 25.3873 290.039 25.3873 290.099 25.4475L290.619 25.9674L291.139 25.4475C291.199 25.3873 291.296 25.3874 291.357 25.4475C291.417 25.5077 291.417 25.6052 291.357 25.6654L290.728 26.2942C290.699 26.3231 290.66 26.3393 290.619 26.3393C290.578 26.3393 290.539 26.3231 290.51 26.2942L289.881 25.6653C289.821 25.6051 289.821 25.5076 289.881 25.4475Z" fill="white"/>
<path fill-rule="evenodd" clip-rule="evenodd" d="M290.619 29.6621C290.66 29.6621 290.699 29.6783 290.728 29.7072L291.357 30.3361C291.417 30.3963 291.417 30.4938 291.357 30.554C291.296 30.6142 291.199 30.6141 291.139 30.554L290.619 30.034L290.099 30.5539C290.039 30.6141 289.941 30.6141 289.881 30.5539C289.821 30.4938 289.821 30.3963 289.881 30.3361L290.51 29.7072C290.539 29.6783 290.578 29.6621 290.619 29.6621Z" fill="white"/>
<path fill-rule="evenodd" clip-rule="evenodd" d="M288.021 26.4989C288.063 26.4252 288.157 26.4 288.231 26.4425L293.161 29.2886C293.234 29.3311 293.259 29.4254 293.217 29.499C293.174 29.5727 293.08 29.598 293.006 29.5554L288.077 26.7094C288.003 26.6668 287.978 26.5726 288.021 26.4989Z" fill="white"/>
<path fill-rule="evenodd" clip-rule="evenodd" d="M288.776 26.0834C288.858 26.0614 288.943 26.1102 288.965 26.1923L289.195 27.0513C289.217 27.1334 289.168 27.2179 289.086 27.2399L288.227 27.4702C288.145 27.4922 288.061 27.4435 288.038 27.3613C288.016 27.2791 288.065 27.1946 288.147 27.1726L288.858 26.9822L288.667 26.2721C288.645 26.1899 288.694 26.1054 288.776 26.0834Z" fill="white"/>
<path fill-rule="evenodd" clip-rule="evenodd" d="M293.197 28.6377C293.219 28.7198 293.17 28.8043 293.088 28.8263L292.378 29.0165L292.568 29.7268C292.59 29.809 292.541 29.8935 292.459 29.9155C292.377 29.9375 292.293 29.8888 292.271 29.8066L292.04 28.9475C292.03 28.908 292.035 28.8659 292.056 28.8306C292.076 28.7952 292.11 28.7694 292.149 28.7588L293.008 28.5287C293.09 28.5067 293.175 28.5555 293.197 28.6377Z" fill="white"/>
<path fill-rule="evenodd" clip-rule="evenodd" d="M293.217 26.4989C293.259 26.5726 293.234 26.6668 293.161 26.7094L288.231 29.5554C288.157 29.5979 288.063 29.5727 288.021 29.499C287.978 29.4253 288.003 29.3311 288.077 29.2886L293.006 26.4425C293.08 26.4 293.174 26.4252 293.217 26.4989Z" fill="white"/>
<path fill-rule="evenodd" clip-rule="evenodd" d="M288.038 28.6377C288.061 28.5555 288.145 28.5067 288.227 28.5287L289.086 28.7589C289.126 28.7695 289.159 28.7953 289.18 28.8307C289.2 28.866 289.206 28.9081 289.195 28.9476L288.965 29.8066C288.943 29.8888 288.858 29.9376 288.776 29.9155C288.694 29.8935 288.645 29.8091 288.667 29.7269L288.858 29.0166L288.147 28.8263C288.065 28.8043 288.016 28.7198 288.038 28.6377Z" fill="white"/>
<path fill-rule="evenodd" clip-rule="evenodd" d="M292.459 26.0834C292.541 26.1054 292.59 26.1899 292.568 26.2721L292.378 26.9823L293.088 27.1725C293.17 27.1945 293.219 27.2789 293.197 27.3611C293.175 27.4433 293.091 27.4921 293.008 27.4701L292.149 27.24C292.11 27.2295 292.076 27.2037 292.056 27.1683C292.035 27.1329 292.03 27.0908 292.04 27.0514L292.271 26.1923C292.293 26.1102 292.377 26.0614 292.459 26.0834Z" fill="white"/>
<path fill-rule="evenodd" clip-rule="evenodd" d="M289.829 26.6339C289.903 26.5914 289.997 26.6166 290.039 26.6903L291.462 29.155C291.505 29.2286 291.48 29.3229 291.406 29.3654C291.332 29.4079 291.238 29.3827 291.196 29.309L289.773 26.8444C289.73 26.7707 289.755 26.6765 289.829 26.6339Z" fill="white"/>
<path fill-rule="evenodd" clip-rule="evenodd" d="M291.406 26.6339C291.48 26.6765 291.505 26.7707 291.462 26.8444L290.039 29.3091C289.997 29.3827 289.903 29.408 289.829 29.3654C289.755 29.3229 289.73 29.2287 289.773 29.155L291.196 26.6903C291.238 26.6167 291.332 26.5914 291.406 26.6339Z" fill="white"/>
<path fill-rule="evenodd" clip-rule="evenodd" d="M289.041 27.9997C289.041 27.9147 289.11 27.8457 289.195 27.8457L292.041 27.8457C292.126 27.8458 292.195 27.9147 292.195 27.9998C292.195 28.0849 292.126 28.1538 292.041 28.1538L289.195 28.1538C289.11 28.1538 289.041 28.0848 289.041 27.9997Z" fill="white"/>
<path d="M291.179 27.6763L290.62 27.3535L290.061 27.6763V28.3219L290.62 28.6447L291.179 28.3219L291.179 27.6763Z" fill="#F5F6F6"/>
<path fill-rule="evenodd" clip-rule="evenodd" d="M290.54 27.2199C290.588 27.1923 290.647 27.1923 290.694 27.2199L291.253 27.5427C291.301 27.5702 291.33 27.621 291.33 27.676L291.331 28.3216C291.331 28.3766 291.301 28.4275 291.254 28.455L290.694 28.7778C290.647 28.8053 290.588 28.8053 290.54 28.7778L289.981 28.455C289.934 28.4275 289.904 28.3766 289.904 28.3216V27.676C289.904 27.621 289.934 27.5701 289.981 27.5426L290.54 27.2199ZM290.212 27.765V28.2327L290.617 28.4665L291.022 28.2327L291.022 27.765L290.617 27.5311L290.212 27.765Z" fill="white"/>
<path fill-rule="evenodd" clip-rule="evenodd" d="M311.8 12C311.956 12 312.082 12.1264 312.082 12.2824L312.082 22.7176C312.082 22.8736 311.956 23 311.8 23C311.644 23 311.518 22.8736 311.518 22.7176L311.518 12.2824C311.518 12.1264 311.644 12 311.8 12Z" fill="white"/>
<path fill-rule="evenodd" clip-rule="evenodd" d="M310.448 12.819C310.558 12.7088 310.737 12.7088 310.847 12.8191L311.8 13.7723L312.754 12.8191C312.864 12.7088 313.043 12.7088 313.153 12.8191C313.263 12.9294 313.263 13.1082 313.153 13.2185L312 14.3714C311.947 14.4243 311.875 14.4541 311.8 14.4541C311.726 14.4541 311.654 14.4243 311.601 14.3714L310.448 13.2184C310.338 13.1081 310.338 12.9293 310.448 12.819Z" fill="white"/>
<path fill-rule="evenodd" clip-rule="evenodd" d="M311.8 20.5469C311.875 20.5469 311.947 20.5766 312 20.6296L313.153 21.7826C313.263 21.8929 313.263 22.0717 313.153 22.182C313.043 22.2923 312.864 22.2923 312.754 22.182L311.8 21.2287L310.847 22.1819C310.737 22.2922 310.558 22.2922 310.448 22.1819C310.338 22.0716 310.338 21.8928 310.448 21.7825L311.601 20.6296C311.654 20.5766 311.726 20.5469 311.8 20.5469Z" fill="white"/>
<path fill-rule="evenodd" clip-rule="evenodd" d="M307.038 14.7487C307.116 14.6136 307.289 14.5673 307.424 14.6453L316.461 19.8631C316.596 19.9411 316.642 20.1138 316.564 20.2489C316.486 20.384 316.314 20.4302 316.179 20.3523L307.141 15.1345C307.006 15.0565 306.96 14.8838 307.038 14.7487Z" fill="white"/>
<path fill-rule="evenodd" clip-rule="evenodd" d="M308.423 13.9882C308.573 13.9478 308.728 14.0372 308.769 14.1879L309.191 15.7626C309.231 15.9133 309.142 16.0681 308.991 16.1085L307.416 16.5306C307.265 16.571 307.111 16.4816 307.07 16.331C307.03 16.1803 307.119 16.0254 307.27 15.9851L308.572 15.636L308.223 14.3341C308.183 14.1835 308.272 14.0286 308.423 13.9882Z" fill="white"/>
<path fill-rule="evenodd" clip-rule="evenodd" d="M316.528 18.6704C316.569 18.821 316.479 18.9759 316.329 19.0162L315.027 19.3649L315.376 20.6672C315.416 20.8178 315.327 20.9727 315.176 21.0131C315.025 21.0534 314.87 20.964 314.83 20.8134L314.408 19.2383C314.389 19.1659 314.399 19.0889 314.436 19.024C314.474 18.9591 314.535 18.9118 314.608 18.8924L316.182 18.4706C316.333 18.4303 316.488 18.5197 316.528 18.6704Z" fill="white"/>
<path fill-rule="evenodd" clip-rule="evenodd" d="M316.564 14.7487C316.642 14.8838 316.596 15.0565 316.461 15.1345L307.424 20.3522C307.289 20.4302 307.116 20.3839 307.038 20.2488C306.96 20.1137 307.006 19.941 307.141 19.863L316.179 14.6453C316.314 14.5673 316.486 14.6136 316.564 14.7487Z" fill="white"/>
<path fill-rule="evenodd" clip-rule="evenodd" d="M307.07 18.6703C307.111 18.5197 307.265 18.4303 307.416 18.4706L308.991 18.8926C309.063 18.912 309.125 18.9593 309.163 19.0242C309.2 19.089 309.21 19.1661 309.191 19.2385L308.769 20.8135C308.728 20.9641 308.574 21.0535 308.423 21.0131C308.272 20.9728 308.183 20.8179 308.223 20.6673L308.572 19.3651L307.27 19.0162C307.119 18.9759 307.03 18.821 307.07 18.6703Z" fill="white"/>
<path fill-rule="evenodd" clip-rule="evenodd" d="M315.176 13.9882C315.327 14.0286 315.416 14.1834 315.376 14.3341L315.027 15.6361L316.329 15.9848C316.479 16.0251 316.569 16.18 316.529 16.3306C316.488 16.4813 316.333 16.5707 316.183 16.5304L314.608 16.1087C314.535 16.0893 314.474 16.042 314.436 15.9771C314.399 15.9122 314.389 15.8352 314.408 15.7628L314.83 14.1879C314.87 14.0373 315.025 13.9478 315.176 13.9882Z" fill="white"/>
<path fill-rule="evenodd" clip-rule="evenodd" d="M310.352 14.9949C310.487 14.9169 310.66 14.9632 310.738 15.0983L313.347 19.6168C313.425 19.7519 313.379 19.9246 313.243 20.0026C313.108 20.0806 312.936 20.0343 312.858 19.8992L310.249 15.3807C310.171 15.2456 310.217 15.0729 310.352 14.9949Z" fill="white"/>
<path fill-rule="evenodd" clip-rule="evenodd" d="M313.243 14.9949C313.379 15.0729 313.425 15.2456 313.347 15.3807L310.738 19.8993C310.66 20.0344 310.487 20.0807 310.352 20.0027C310.217 19.9247 310.171 19.752 310.249 19.6169L312.858 15.0983C312.936 14.9632 313.108 14.9169 313.243 14.9949Z" fill="white"/>
<path fill-rule="evenodd" clip-rule="evenodd" d="M308.906 17.4992C308.906 17.3432 309.033 17.2168 309.189 17.2168L314.406 17.2169C314.562 17.2169 314.689 17.3433 314.689 17.4993C314.689 17.6553 314.562 17.7817 314.406 17.7817L309.189 17.7816C309.033 17.7816 308.906 17.6552 308.906 17.4992Z" fill="white"/>
<path d="M312.827 16.9082L311.802 16.3164L310.777 16.9081V18.0917L311.802 18.6835L312.827 18.0917L312.827 16.9082Z" fill="#F5F6F6"/>
<path fill-rule="evenodd" clip-rule="evenodd" d="M311.66 16.071C311.748 16.0206 311.855 16.0206 311.943 16.071L312.968 16.6628C313.055 16.7133 313.109 16.8065 313.109 16.9074L313.109 18.0909C313.109 18.1918 313.055 18.285 312.968 18.3355L311.943 18.9273C311.855 18.9777 311.748 18.9777 311.66 18.9273L310.635 18.3355C310.548 18.285 310.494 18.1918 310.494 18.0909V16.9073C310.494 16.8064 310.548 16.7132 310.635 16.6627L311.66 16.071ZM311.059 17.0704V17.9279L311.801 18.3566L312.544 17.9279L312.544 17.0705L311.801 16.6417L311.059 17.0704Z" fill="white"/>
<path fill-rule="evenodd" clip-rule="evenodd" d="M20.4972 8C20.6434 8 20.7619 8.11851 20.7619 8.26471L20.7618 18.0454C20.7618 18.1916 20.6433 18.3101 20.4971 18.3101C20.3509 18.3101 20.2324 18.1916 20.2324 18.0454L20.2325 8.2647C20.2325 8.11851 20.351 8 20.4972 8Z" fill="white"/>
<path fill-rule="evenodd" clip-rule="evenodd" d="M19.2338 8.76893C19.3372 8.66556 19.5048 8.66557 19.6081 8.76894L20.5015 9.66238L21.3949 8.76901C21.4983 8.66564 21.6659 8.66564 21.7693 8.76902C21.8727 8.8724 21.8726 9.04 21.7693 9.14337L20.6887 10.2239C20.639 10.2735 20.5717 10.3014 20.5015 10.3014C20.4313 10.3014 20.3639 10.2735 20.3143 10.2239L19.2338 9.14328C19.1304 9.0399 19.1304 8.8723 19.2338 8.76893Z" fill="white"/>
<path fill-rule="evenodd" clip-rule="evenodd" d="M20.5015 16.0117C20.5717 16.0117 20.639 16.0396 20.6887 16.0893L21.7692 17.17C21.8726 17.2733 21.8726 17.4409 21.7692 17.5443C21.6658 17.6477 21.4982 17.6477 21.3948 17.5443L20.5015 16.6508L19.6081 17.5442C19.5048 17.6476 19.3372 17.6476 19.2338 17.5442C19.1304 17.4408 19.1304 17.2732 19.2338 17.1699L20.3143 16.0893C20.364 16.0396 20.4313 16.0117 20.5015 16.0117Z" fill="white"/>
<path fill-rule="evenodd" clip-rule="evenodd" d="M16.0355 10.5758C16.1086 10.4491 16.2705 10.4058 16.3971 10.4789L24.8676 15.3694C24.9942 15.4425 25.0376 15.6044 24.9645 15.731C24.8914 15.8576 24.7295 15.901 24.6029 15.8279L16.1324 10.9373C16.0058 10.8642 15.9624 10.7024 16.0355 10.5758Z" fill="white"/>
<path fill-rule="evenodd" clip-rule="evenodd" d="M17.3335 9.86261C17.4747 9.82476 17.6199 9.90855 17.6577 10.0498L18.0533 11.5257C18.0911 11.6669 18.0073 11.8121 17.8661 11.8499L16.3899 12.2456C16.2487 12.2834 16.1036 12.1996 16.0657 12.0584C16.0279 11.9172 16.1117 11.7721 16.2529 11.7342L17.4734 11.4071L17.1463 10.1868C17.1085 10.0456 17.1923 9.90045 17.3335 9.86261Z" fill="white"/>
<path fill-rule="evenodd" clip-rule="evenodd" d="M24.928 14.251C24.9658 14.3922 24.882 14.5373 24.7408 14.5751L23.5205 14.902L23.8475 16.1226C23.8854 16.2638 23.8016 16.4089 23.6603 16.4468C23.5191 16.4846 23.374 16.4008 23.3362 16.2596L22.9407 14.7833C22.9225 14.7155 22.932 14.6432 22.9671 14.5824C23.0022 14.5216 23.06 14.4773 23.1279 14.4591L24.6038 14.0638C24.745 14.0259 24.8902 14.1098 24.928 14.251Z" fill="white"/>
<path fill-rule="evenodd" clip-rule="evenodd" d="M24.9645 10.5758C25.0376 10.7024 24.9942 10.8643 24.8676 10.9373L16.3971 15.8278C16.2705 15.9009 16.1086 15.8575 16.0355 15.7309C15.9624 15.6043 16.0058 15.4424 16.1324 15.3693L24.6029 10.4789C24.7295 10.4058 24.8914 10.4491 24.9645 10.5758Z" fill="white"/>
<path fill-rule="evenodd" clip-rule="evenodd" d="M16.0657 14.251C16.1036 14.1097 16.2487 14.0259 16.3899 14.0638L17.8661 14.4593C17.9339 14.4774 17.9917 14.5218 18.0268 14.5826C18.0619 14.6434 18.0715 14.7157 18.0533 14.7835L17.6577 16.2597C17.6199 16.4009 17.4747 16.4847 17.3335 16.4468C17.1923 16.409 17.1085 16.2638 17.1463 16.1226L17.4734 14.9021L16.2529 14.5751C16.1117 14.5373 16.0279 14.3922 16.0657 14.251Z" fill="white"/>
<path fill-rule="evenodd" clip-rule="evenodd" d="M23.6604 9.8626C23.8016 9.90043 23.8854 10.0456 23.8475 10.1868L23.5205 11.4072L24.7409 11.734C24.8821 11.7718 24.966 11.9169 24.9282 12.0581C24.8903 12.1993 24.7452 12.2832 24.604 12.2454L23.1279 11.8501C23.0601 11.8319 23.0022 11.7876 22.9671 11.7268C22.932 11.666 22.9225 11.5937 22.9407 11.5259L23.3362 10.0498C23.374 9.90857 23.5191 9.82476 23.6604 9.8626Z" fill="white"/>
<path fill-rule="evenodd" clip-rule="evenodd" d="M19.1422 10.8089C19.2688 10.7358 19.4307 10.7792 19.5038 10.9058L21.949 15.141C22.0221 15.2676 21.9787 15.4295 21.8521 15.5026C21.7255 15.5757 21.5636 15.5323 21.4905 15.4057L19.0453 11.1705C18.9722 11.0439 19.0156 10.882 19.1422 10.8089Z" fill="white"/>
<path fill-rule="evenodd" clip-rule="evenodd" d="M21.8521 10.8089C21.9787 10.882 22.0221 11.0439 21.949 11.1705L19.5038 15.4058C19.4307 15.5324 19.2688 15.5757 19.1422 15.5026C19.0156 15.4295 18.9722 15.2677 19.0453 15.141L21.4905 10.9058C21.5636 10.7792 21.7255 10.7358 21.8521 10.8089Z" fill="white"/>
<path fill-rule="evenodd" clip-rule="evenodd" d="M17.7891 13.1553C17.7891 13.0091 17.9076 12.8906 18.0538 12.8906L22.9441 12.8907C23.0903 12.8907 23.2088 13.0092 23.2088 13.1554C23.2088 13.3016 23.0903 13.4201 22.9441 13.4201L18.0538 13.42C17.9076 13.42 17.7891 13.3015 17.7891 13.1553Z" fill="white"/>
<path d="M21.4623 12.5996L20.5016 12.0449L19.541 12.5995V13.7089L20.5016 14.2636L21.4625 13.7089L21.4623 12.5996Z" fill="#F5F6F6"/>
<path fill-rule="evenodd" clip-rule="evenodd" d="M20.3644 11.8167C20.4463 11.7694 20.5472 11.7694 20.6291 11.8167L21.5898 12.3714C21.6717 12.4187 21.7222 12.506 21.7222 12.6006L21.7223 13.7099C21.7223 13.8045 21.6719 13.8919 21.59 13.9392L20.6291 14.4938C20.5472 14.5411 20.4463 14.5411 20.3644 14.4938L19.4038 13.9391C19.3219 13.8919 19.2715 13.8045 19.2715 13.7099V12.6006C19.2715 12.506 19.3219 12.4186 19.4038 12.3713L20.3644 11.8167ZM19.8009 12.7534V13.5571L20.4968 13.9589L21.1929 13.5571L21.1928 12.7535L20.4968 12.3516L19.8009 12.7534Z" fill="white"/>
</svg>
