<svg width="345" height="66" viewBox="0 0 345 66" fill="none" xmlns="http://www.w3.org/2000/svg">
<path d="M2 35C2 25.0589 10.0589 17 20 17H327C336.941 17 345 25.0589 345 35C345 44.9411 336.941 53 327 53H20C10.0589 53 2 44.9411 2 35Z" fill="#232521"/>
<path d="M1.75982 39.7581C2.21082 39.4346 2.63166 39.2226 3.02619 38.9973C4.74016 38.4626 5.15945 37.426 7.06648 36.2601C10.7447 33.999 14.6783 36.0678 17.3516 38.6979C19.8696 41.1607 22.3551 42.9356 26.2291 43.0165C30.8911 43.1214 34.4632 42.5809 38.6761 45.1331C40.658 46.3304 42.0652 47.9598 44.4256 48.5816C47.5418 49.4013 51.7333 49.5918 54.9609 49.3906C58.1084 49.1869 60.7709 48.6686 63.9753 49.2287C68.1634 49.9688 72.0607 51.4744 76.029 52.8449C77.6163 53.393 79.204 53.9287 80.8073 54.3899C81.3545 54.8563 81.6567 55.4652 81.2966 56.3161C80.6781 57.7463 78.6608 57.7097 77.104 57.9119C76.9849 57.8708 76.8655 57.8422 76.7732 57.8019C74.0595 56.932 73.3963 57.6363 73.1945 59.429C72.945 59.7212 72.6539 60.062 72.4085 60.2169C72.5485 60.0088 71.5057 59.5773 71.4267 59.5374C70.9925 59.3117 70.5308 59.1103 70.1382 58.8359C69.9944 58.7316 69.8776 58.6156 69.7608 58.4996C68.9564 56.3889 67.495 54.3455 64.9855 54.6686C64.3326 54.5987 63.6183 54.7893 62.9998 55.345C62.9449 55.3933 62.9037 55.4295 62.8488 55.4778C62.6709 55.6098 62.5061 55.7546 62.3539 55.9248C61.3511 56.8061 60.2557 57.6596 58.9492 57.982C57.7233 58.2943 56.5286 58.4577 55.4171 58.9609C53.7852 59.4357 52.2388 60.1754 50.3764 60.3184C47.5898 60.5206 45.9494 58.6467 43.4116 58.1444C38.6413 57.2117 38.3961 62.176 36.2319 64.7582C34.8584 66.4027 31.973 65.465 31.7959 63.386C31.5684 60.7682 31.3279 57.7004 29.7051 56.1268C27.9136 54.3856 24.6333 55.4347 23.093 56.8492C22.763 57.1514 22.4856 57.4802 22.2341 57.8348C21.6481 58.6414 20.9964 59.4085 20.1371 59.9693C18.8822 60.7929 17.4807 61.1624 15.621 60.3435C13.4712 59.391 12.3559 57.3956 10.5217 56.1778C9.98861 55.6869 9.36094 55.2305 8.47875 54.7913C7.17493 54.1518 5.73146 53.708 4.55355 52.885C3.91632 51.8662 3.82817 50.8142 4.2673 49.1287C4.61563 47.7902 4.60451 46.4033 3.60937 45.2861C3.2213 44.862 2.64437 44.4946 2.05332 44.1518C1.97548 44.0744 1.91102 43.9975 1.83356 43.9077C0.628935 42.6467 0.0783042 40.9809 1.75944 39.7706L1.75982 39.7581Z" fill="url(#paint0_linear_3536_231414)"/>
<path d="M1.75982 39.7581C2.21082 39.4346 2.63166 39.2226 3.02619 38.9973C4.74016 38.4626 5.15945 37.426 7.06648 36.2601C10.7447 33.999 14.6783 36.0678 17.3516 38.6979C19.8696 41.1607 22.3551 42.9356 26.2291 43.0165C30.8911 43.1214 34.4632 42.5809 38.6761 45.1331C40.658 46.3304 42.0652 47.9598 44.4256 48.5816C47.5418 49.4013 51.7333 49.5918 54.9609 49.3906C58.1084 49.1869 60.7709 48.6686 63.9753 49.2287C68.1634 49.9688 72.0607 51.4744 76.029 52.8449C77.6163 53.393 79.204 53.9287 80.8073 54.3899C81.3545 54.8563 81.6567 55.4652 81.2966 56.3161C80.6781 57.7463 78.6608 57.7097 77.104 57.9119C76.9849 57.8708 76.8655 57.8422 76.7732 57.8019C74.0595 56.932 73.3963 57.6363 73.1945 59.429C72.945 59.7212 72.6539 60.062 72.4085 60.2169C72.5485 60.0088 71.5057 59.5773 71.4267 59.5374C70.9925 59.3117 70.5308 59.1103 70.1382 58.8359C69.9944 58.7316 69.8776 58.6156 69.7608 58.4996C68.9564 56.3889 67.495 54.3455 64.9855 54.6686C64.3326 54.5987 63.6183 54.7893 62.9998 55.345C62.9449 55.3933 62.9037 55.4295 62.8488 55.4778C62.6709 55.6098 62.5061 55.7546 62.3539 55.9248C61.3511 56.8061 60.2557 57.6596 58.9492 57.982C57.7233 58.2943 56.5286 58.4577 55.4171 58.9609C53.7852 59.4357 52.2388 60.1754 50.3764 60.3184C47.5898 60.5206 45.9494 58.6467 43.4116 58.1444C38.6413 57.2117 38.3961 62.176 36.2319 64.7582C34.8584 66.4027 31.973 65.465 31.7959 63.386C31.5684 60.7682 31.3279 57.7004 29.7051 56.1268C27.9136 54.3856 24.6333 55.4347 23.093 56.8492C22.763 57.1514 22.4856 57.4802 22.2341 57.8348C21.6481 58.6414 20.9964 59.4085 20.1371 59.9693C18.8822 60.7929 17.4807 61.1624 15.621 60.3435C13.4712 59.391 12.3559 57.3956 10.5217 56.1778C9.98861 55.6869 9.36094 55.2305 8.47875 54.7913C7.17493 54.1518 5.73146 53.708 4.55355 52.885C3.91632 51.8662 3.82817 50.8142 4.2673 49.1287C4.61563 47.7902 4.60451 46.4033 3.60937 45.2861C3.2213 44.862 2.64437 44.4946 2.05332 44.1518C1.97548 44.0744 1.91102 43.9975 1.83356 43.9077C0.628935 42.6467 0.0783042 40.9809 1.75944 39.7706L1.75982 39.7581Z" fill="url(#paint1_linear_3536_231414)"/>
<path d="M3.93899 43.3461C4.14999 43.44 4.68344 44.3557 4.90438 44.5623C5.41148 45.0275 5.84455 45.2906 6.53594 45.4116C7.83861 45.6513 8.96917 44.9613 10.2321 45.1873C9.82275 45.8993 8.76547 46.8164 8.00083 47.3427C7.07251 47.9764 5.79808 48.1248 5.18036 49.0928C3.91782 51.0405 5.578 51.391 7.35341 51.4702C9.19521 51.5639 9.75424 52.0807 11.1942 50.888C11.1984 52.0623 11.2404 52.4384 12.1516 53.2407C12.9979 53.9786 13.5336 53.945 13.1765 55.1333C12.8496 56.2101 12.3093 55.9563 13.5929 56.82C14.0515 57.1213 14.3709 57.6057 14.6216 58.1506C15.086 58.7019 15.6042 59.2424 16.3211 59.4017C16.5997 59.4727 16.8938 59.4692 17.1746 59.4652C17.4692 59.4493 17.7775 59.4212 17.9966 59.253C18.5166 58.8566 18.0377 58.3423 17.7542 57.9964C17.3933 57.5606 17.0605 57.0758 16.9979 56.4993C16.9968 56.5367 19.0225 57.1732 19.2095 57.1789C20.3332 57.1508 20.4465 56.5047 20.9925 55.6969C22.3355 53.7392 24.623 53.6841 23.1104 51.127C24.6123 51.8475 25.2037 53.0523 27.221 52.6517C28.8617 52.3271 30.0186 51.6504 31.7528 52.2031C31.1782 52.198 30.0213 52.4375 29.9195 53.1464C29.8027 53.9048 30.9619 54.0277 31.4858 54.381C33.0178 55.4271 32.9217 58.1349 35.2786 57.5574C35.3717 58.4471 33.8592 58.9506 33.372 59.5853C32.7176 60.4397 32.5593 61.2469 33.1305 62.2387C33.7143 63.2559 34.4038 63.4393 35.3829 62.8946C36.2937 62.3978 36.7343 61.0996 37.241 60.2656C37.8736 59.2481 38.2815 58.1488 37.5935 57.0409C37.2753 56.5191 36.5534 56.522 36.5053 55.9084C38.1994 56.4598 38.7752 56.4275 40.2278 55.6973C41.2321 55.2034 41.8906 55.5233 42.8567 55.4029C43.8496 55.2833 44.6501 54.4583 45.686 54.6773C44.032 56.3132 46.1188 57.5762 47.6775 58.186C49.7647 58.9992 51.4752 59.4512 52.2799 57.1773C51.9144 58.2029 53.9252 58.4518 54.4773 58.3187C55.6754 58.043 57.057 57.0109 58.2605 56.5605C59.0988 56.2488 61.1367 55.6115 61.6144 54.8516C62.1066 54.0547 61.3827 53.2456 62.5003 52.9799C63.0791 52.8477 63.6896 53.4284 64.2349 53.5201C64.8729 53.6395 65.3182 53.5032 65.9222 53.4217C68.0688 53.1625 68.9278 54.8002 69.9393 56.2552C70.3873 56.906 70.5014 57.5465 70.8421 58.2065C70.9688 58.4352 71.384 58.8477 71.6637 58.8812C71.8235 58.8986 72.0235 58.9172 72.1338 58.8081C72.175 58.7719 72.2032 58.7228 72.2181 58.6733C72.3192 58.4265 72.2333 58.1741 72.3478 57.9277C72.4623 57.6814 72.6423 57.4745 72.8091 57.2672C73.4486 56.4623 73.5188 56.352 73.6191 55.2558C75.4129 56.922 77.6984 56.4922 79.7944 57.4556C79.7944 57.4556 79.0251 57.6945 78.8488 57.7765C78.4829 57.9402 78.0922 58.0407 77.6908 58.0535C77.584 58.0502 77.4905 58.0473 77.3837 58.0441C77.0506 58.0089 76.7731 57.9005 76.4969 57.7546C76.247 57.6221 75.9947 57.5644 75.7158 57.5059C75.1713 57.3894 74.5448 57.3327 74.0286 57.6043C73.1857 58.0657 73.4532 58.9359 73.1236 59.6628C73.0946 59.7369 72.9679 59.9454 72.8992 60.0057C72.4997 60.3933 71.7583 60.1583 71.323 59.9701C70.7953 59.7416 70.3393 59.3529 69.992 58.9051C69.6063 58.4061 69.343 57.8359 69.1335 57.2549C68.9488 56.7371 68.6027 56.2518 68.2143 55.8402C67.3859 54.953 66.2381 54.4557 64.9767 54.617C64.3238 54.5471 63.6096 54.7377 62.9911 55.2934C62.9361 55.3417 62.8949 55.3779 62.84 55.4262C62.6621 55.5582 62.4973 55.7031 62.3451 55.8733C61.3424 56.7546 60.2469 57.608 58.9405 57.9304C57.7145 58.2427 56.5198 58.4061 55.4083 58.9093C53.7764 59.3841 52.23 60.1239 50.3676 60.2669C47.581 60.469 45.9406 58.5951 43.4028 58.0929C38.6325 57.1601 38.3873 62.1244 36.2231 64.7066C34.8496 66.3511 31.9642 65.4135 31.7871 63.3344C31.5596 60.7167 31.3191 57.6488 29.6963 56.0752C27.9048 54.334 24.6246 55.3831 23.0842 56.7976C22.7542 57.0998 22.4768 57.4286 22.2258 57.7708C21.3604 58.9685 20.2172 60.0704 18.7692 60.6507C17.9435 60.9878 16.9816 60.9709 16.1212 60.6948C14.93 60.3086 14.1153 59.4093 13.2579 58.5961C12.8031 58.1699 12.3753 57.7322 11.9342 57.294C11.4927 56.8683 10.9551 56.527 10.4999 56.1134C9.96687 55.6224 9.33914 55.166 8.45696 54.7268C7.15315 54.0874 5.70971 53.6436 4.53181 52.8206C3.89457 51.8018 3.80637 50.7498 4.24552 49.0643C4.59384 47.7258 4.58276 46.3388 3.58762 45.2216C3.19955 44.7975 2.63598 44.4305 2.03157 44.0873C1.95373 44.0099 1.88965 43.9205 1.81181 43.8432C1.72138 43.7405 1.63093 43.6378 1.55385 43.5355C2.50508 43.4647 3.34719 43.0282 3.9142 43.2828L3.93899 43.3461Z" fill="url(#paint2_linear_3536_231414)"/>
<path d="M0.71852 42.2785C0.63301 41.5771 0.908426 40.8746 1.75517 40.2859C2.2058 39.9743 2.62644 39.7703 3.02072 39.5534C4.73405 39.0394 5.15222 38.04 7.05791 36.9174C10.7335 34.7403 14.6692 36.7402 17.3453 39.28C19.8659 41.6585 22.3532 43.3732 26.2272 43.4554C30.8891 43.5617 34.4606 43.0442 38.6761 45.5105C40.6592 46.6676 42.0682 48.2409 44.4291 48.8432C47.5461 49.6373 51.7377 49.8256 54.965 49.635C58.1121 49.4419 60.774 48.9449 63.9789 49.4886C68.1676 50.207 72.0664 51.6636 76.0361 52.9898C77.6239 53.5202 79.2121 54.0387 80.8159 54.4853C81.3636 54.9358 81.6664 55.5234 81.3072 56.3439C81.2924 56.3916 81.2516 56.4145 81.2371 56.4502C80.6287 56.2388 80.0329 56.0519 79.4745 55.9505C78.464 55.775 77.4609 55.7926 76.4463 55.7496C74.6575 55.6708 73.4815 55.2252 72.0545 54.2418C70.2342 53.0053 68.5257 52.0494 66.2212 51.7862C61.4928 51.2321 58.2901 53.2429 54.6141 55.4321C49.631 58.4007 48.6719 52.1659 44.365 51.8174C40.4579 51.5053 38.2581 57.0049 34.5005 53.5525C32.5762 51.7827 31.3315 48.7685 28.551 47.9003C24.552 46.6576 21.4841 49.0701 18.9032 51.2927C17.1186 52.8287 14.6674 53.4286 13.9037 50.8629C13.4915 49.4766 13.6169 47.9984 13.5668 46.575C13.4953 44.1027 11.9796 40.3331 8.60871 40.4109C6.24088 40.4711 4.90749 42.5511 2.38345 42.474C1.82255 42.4568 1.26349 42.3795 0.718152 42.2906L0.71852 42.2785Z" fill="white"/>
<path d="M341.143 20.481C340.078 18.6508 339.701 17.969 337.634 17.574C336.93 17.4417 336.215 17.3747 335.499 17.3076C334.916 17.2585 334.337 17.2659 333.744 17.379C332.449 17.6228 331.2 17.565 330.104 16.7596C329.342 16.1932 328.981 15.1992 328.359 14.4604C325.211 10.7394 320.225 15.232 317.073 11.5234C314.613 8.61904 313.319 4.63986 310.343 2.33046C307.239 -0.0780368 303.259 -0.179721 299.343 0.40316C297.35 0.696276 295.396 1.27877 293.575 2.44547C291.899 3.52434 291.598 4.80068 290.472 6.42774C288.556 9.17646 286.283 8.5728 284.196 7.23227C282.314 6.0316 280.238 5.19205 277.941 6.16705C276.537 6.75975 275.427 7.93705 274.121 8.7152C272.746 9.52494 271.604 9.49034 270.144 9.60839C267.105 9.85832 263.716 10.5536 261.738 13.6815C259.055 17.9188 262.456 19.9329 265.765 20.107C268.461 20.2496 272.866 18.4825 274.849 21.0294C276.454 23.1007 276.273 27.7447 279.569 27.4866C280.909 27.3824 282.531 25.9541 283.912 26.5679C285.412 27.2367 285.188 29.0918 285.497 30.606C285.968 32.9215 287.523 34.3683 289.626 34.6928C291.138 34.9242 292.772 34.5349 294.239 33.8259C295.501 33.2117 296.103 32.1354 297.236 31.3251C299.353 29.8328 301.097 30.5992 302.749 31.831C304.475 33.116 306.294 32.8595 308.18 31.3013C310.034 29.7731 311.572 28.5916 313.759 29.442C315.905 30.2782 317.225 31.6027 319.769 31.6514C322.738 31.7082 324.645 31.3302 327.111 29.1297C328.999 27.434 329.802 26.0407 332.347 26.0206C334.937 26.0024 336.744 27.9914 339.212 28.428C341.125 28.7697 343.048 28.0107 344.368 26.4229C345.385 23.7372 342.341 22.4949 341.164 20.4881L341.143 20.481Z" fill="url(#paint3_linear_3536_231414)"/>
<path d="M344.455 26.2036C344.455 26.2036 344.521 25.978 344.566 25.8141C344.574 25.7894 344.562 25.7576 344.569 25.7047C344.569 25.6359 344.595 25.5619 344.596 25.4931C343.801 25.2883 343.055 24.5068 342.316 24.6107C341.491 24.7269 341.493 25.3901 340.821 25.8347C340.386 26.1264 339.363 26.1468 339.081 25.594C338.357 24.2128 341.063 22.8542 341.451 21.8974C340.414 22.1611 339.894 21.9958 339.052 21.8297C338.954 21.81 338.857 21.7904 338.746 21.7795C337.895 21.638 337.151 22.1547 337.017 23.2128C336.877 24.3237 336.801 25.1808 335.536 25.0347C334.368 24.9083 334.778 24.2214 334.769 23.2107C334.76 21.2615 331.486 21.7895 330.327 21.6385C330.159 21.6222 330.78 23.3683 330.78 23.4371C330.794 24.2979 330.853 24.194 330.267 24.7235C329.356 25.5273 327.15 26.4373 326.065 26.5051C324.322 26.6083 323.622 24.9591 325.648 24.001C324.405 24.5941 323.313 25.0183 322.347 24.1056C321.553 23.3628 321.525 22.539 320.153 22.7701C318.941 22.9735 317.455 24.007 316.273 23.8205C315.366 23.6736 314.886 22.7905 314.143 22.3688C314.305 22.4662 315.47 24.6758 315.507 25.0058C315.693 26.5744 313.855 27.1554 312.718 27.2055C312.075 27.2321 309.837 26.6267 309.676 25.7567C309.504 24.8143 311.434 23.6021 311.936 22.9471C310.452 22.6012 309.44 24.1986 308.069 24.1263C307.163 24.0764 306.445 23.4149 305.46 23.4619C304.133 23.5291 302.761 24.2295 301.472 23.7852C300.864 23.5756 300.489 22.922 299.914 22.6824C299.48 23.775 300.517 24.6154 300.457 25.7266C300.399 26.8659 299.662 27.5644 298.855 28.1974C298.01 28.8444 295.859 30.2978 294.992 29.4331C294.141 28.5878 295.587 27.2367 295.885 26.3731C294.918 26.6335 293.948 28.2451 292.899 27.7732C292.068 27.4043 292.068 25.665 291.579 24.8753C291.377 24.5573 289.557 21.5699 289.528 21.5875C288.015 22.5292 287.291 20.4441 285.819 20.5992C285.93 21.3139 286.541 22.8218 286.083 23.5474C285.749 24.081 284.195 24.3735 283.689 24.5028C282.113 24.9257 280.158 24.2381 279.461 22.5765C279.044 21.5771 279.349 20.8952 280.07 20.0397C280.342 19.7194 281.879 18.2062 282.245 18.2495C280.046 18.0023 278.509 17.7074 276.741 16.477C276.229 16.1212 275.528 15.8796 275.011 15.439C274.356 14.8959 274.187 14.1475 273.733 13.3562C273.655 15.4551 271.477 15.9188 270.166 16.4747C269.194 16.885 267.466 18.0149 266.491 17.8996C265.348 17.768 264.932 15.7613 265.509 14.6215C264.342 16.9381 262.313 16.1975 261.123 14.8627C259.749 18.2814 262.789 19.9365 265.763 20.078C268.46 20.2206 272.864 18.4535 274.848 21.0003C276.453 23.0717 276.271 27.7157 279.567 27.4576C280.907 27.3534 282.53 25.9251 283.91 26.5389C285.41 27.2077 285.186 29.0628 285.495 30.577C285.966 32.8925 287.521 34.3393 289.635 34.6674C291.147 34.8987 292.781 34.5094 294.248 33.8005C295.51 33.1863 296.111 32.11 297.244 31.2997C299.362 29.8074 301.105 30.5738 302.757 31.8056C304.483 33.0905 306.302 32.834 308.189 31.2759C310.042 29.7477 311.58 28.5662 313.767 29.4166C315.914 30.2527 317.234 31.5773 319.778 31.626C322.746 31.6828 324.653 31.3048 327.119 29.1043C329.007 27.4085 329.81 26.0153 332.355 25.9952C334.946 25.977 336.752 27.9659 339.221 28.4025C341.189 28.7497 343.16 27.952 344.475 26.2796C344.483 26.2549 344.481 26.2266 344.49 26.202L344.455 26.2036Z" fill="url(#paint4_linear_3536_231414)"/>
<path d="M337.636 17.5753C336.901 17.4323 336.15 17.3669 335.4 17.3015C334.887 17.2491 334.364 17.2619 333.845 17.3594C332.511 17.6171 331.228 17.5892 330.106 16.7609C329.344 16.1945 328.983 15.2005 328.36 14.4616C325.213 10.7406 320.227 15.2332 317.075 11.5246C314.614 8.62028 313.321 4.6411 310.344 2.3317C307.24 -0.0767953 303.261 -0.178479 299.345 0.404402C297.352 0.697518 295.398 1.28001 293.576 2.44671C291.901 3.52558 291.6 4.80192 290.474 6.42898C288.557 9.1777 286.285 8.57404 284.197 7.23351C282.305 6.02929 280.24 5.1933 277.932 6.16475C276.528 6.75744 275.419 7.93474 274.112 8.71289C272.737 9.52263 271.595 9.48802 270.136 9.60608C270.03 9.61111 269.92 9.62848 269.815 9.6335C269.887 9.65838 269.968 9.65858 270.044 9.67112C272.922 10.2904 274.875 11.8881 277.937 11.5077C280.128 11.2416 282.155 9.74554 284.318 9.66275C289.059 9.46119 289.674 16.2151 295.151 13.2442C298.303 11.5287 300.358 7.70966 304.034 7.48603C307.58 7.27265 309.965 10.4961 312.037 13.0872C314.393 16.0248 316.659 18.4894 320.562 17.4743C322.08 17.0865 323.08 16.5616 324.605 16.9905C327.393 17.7719 328.779 21.0792 332.207 20.4387C334.135 20.0678 335.737 18.4666 337.732 18.3675C338.858 18.3139 339.665 18.7851 340.454 19.3057C339.801 18.3215 339.197 17.8649 337.65 17.5665L337.636 17.5753Z" fill="white"/>
<defs>
<linearGradient id="paint0_linear_3536_231414" x1="-3.04724" y1="49.6548" x2="88.7129" y2="52.4578" gradientUnits="userSpaceOnUse">
<stop stop-color="white"/>
<stop offset="0.48" stop-color="#E1EFFA"/>
</linearGradient>
<linearGradient id="paint1_linear_3536_231414" x1="-3.04724" y1="49.6548" x2="88.7129" y2="52.4578" gradientUnits="userSpaceOnUse">
<stop stop-color="white"/>
<stop offset="0.48" stop-color="#E1EFFA"/>
</linearGradient>
<linearGradient id="paint2_linear_3536_231414" x1="47.2634" y1="99.3093" x2="41.3924" y2="47.7227" gradientUnits="userSpaceOnUse">
<stop stop-color="white"/>
<stop offset="0.67" stop-color="#BED9EC"/>
<stop offset="1" stop-color="#A5CAE5"/>
</linearGradient>
<linearGradient id="paint3_linear_3536_231414" x1="260.838" y1="15.6796" x2="345.376" y2="26.7937" gradientUnits="userSpaceOnUse">
<stop stop-color="white"/>
<stop offset="0.48" stop-color="#E1EFFA"/>
</linearGradient>
<linearGradient id="paint4_linear_3536_231414" x1="299.801" y1="42.8859" x2="300.88" y2="20.3606" gradientUnits="userSpaceOnUse">
<stop stop-color="white"/>
<stop offset="0.613734" stop-color="#BED9EC"/>
<stop offset="1" stop-color="#A5CAE5"/>
</linearGradient>
</defs>
</svg>
