<svg width="151" height="46" viewBox="0 0 151 46" fill="none" xmlns="http://www.w3.org/2000/svg">
<g clip-path="url(#clip0_3536_224293)">
<path d="M13 23.9288H15.2231C15.2829 23.4123 15.3645 22.9013 15.4677 22.3903C15.7015 21.2433 16.0548 20.1125 16.5059 19.0362C16.9516 17.9761 17.506 16.9541 18.1529 15.9973C18.7943 15.0459 19.5281 14.1544 20.338 13.3444C21.1478 12.5344 22.0393 11.7951 22.9905 11.159C23.9471 10.5121 24.969 9.9576 26.0289 9.51183C27.1052 9.06062 28.2358 8.70726 29.3827 8.4735C29.8882 8.37021 30.3991 8.28867 30.9209 8.22887V6C21.4794 6.96765 13.9675 14.4806 13 23.9288ZM50.7714 28.0712C50.7116 28.5877 50.6301 29.0987 50.5268 29.6097C50.2931 30.7567 49.9398 31.8875 49.4887 32.9638C49.0429 34.0239 48.4885 35.0459 47.8417 36.0027C47.2003 36.9541 46.4665 37.8456 45.6566 38.6556C44.8467 39.4656 43.9553 40.2049 43.0041 40.841C42.0474 41.4879 41.0255 42.0424 39.9656 42.4882C38.8894 42.9394 37.7588 43.2927 36.6119 43.5265C36.1064 43.6298 35.5955 43.7113 35.0737 43.7711V45.9946C44.5206 45.0269 52.0325 37.514 53 28.0658H50.7714V28.0712ZM26.0344 42.4882C24.9745 42.0424 23.9526 41.4879 22.9959 40.841C22.0447 40.1995 21.1533 39.4656 20.3434 38.6556C19.5335 37.8456 18.7943 36.9541 18.1583 36.0027C17.5115 35.0459 16.9571 34.0239 16.5113 32.9638C16.0602 31.8875 15.7069 30.7567 15.4732 29.6097C15.3699 29.1041 15.2884 28.5931 15.2286 28.0712H13C13.9675 37.5194 21.4794 45.0323 30.9263 46V43.7766C30.41 43.7168 29.899 43.6352 29.3881 43.5319C28.2412 43.2982 27.1106 42.9448 26.0344 42.4882ZM35.0682 6V8.22343C35.5846 8.28323 36.0955 8.36477 36.6065 8.46806C37.7534 8.70182 38.8839 9.05518 39.9602 9.50639C41.0201 9.95216 42.042 10.5067 42.9986 11.1536C43.9499 11.7951 44.8413 12.5289 45.6512 13.339C46.4611 14.149 47.2003 15.0405 47.8363 15.9918C48.4831 16.9486 49.0375 17.9706 49.4832 19.0307C49.9344 20.1071 50.2877 21.2378 50.5214 22.3849C50.6247 22.8905 50.7062 23.4015 50.766 23.9233H52.9946C52.027 14.4806 44.5206 6.96765 35.0682 6Z" fill="black"/>
<path d="M26.4017 15.5781H22.5859V19.3944H26.4017V15.5781Z" fill="black"/>
<path d="M43.4287 15.5781H38.2812V20.7263H43.4287V15.5781Z" fill="black"/>
<path d="M43.4289 29.6523V36.4205H36.6562V29.6523H43.4289Z" fill="black"/>
<path d="M24.8036 34.1973H22.5859V36.4153H24.8036V34.1973Z" fill="black"/>
<path d="M33.0058 26.1413L22.7273 36.4213H22.5859V36.28L32.8645 26L33.0058 26.1413Z" fill="url(#paint0_linear_3536_224293)"/>
<path d="M43.4331 15.5781V15.7195L38.4216 20.7263L33.1546 25.9994L33.0078 25.8527L38.2857 20.5849L43.2864 15.5781H43.4331Z" fill="url(#paint1_linear_3536_224293)"/>
<path d="M33.0058 25.8527L32.8645 25.9994L22.5859 15.7195V15.5781H22.7273L33.0058 25.8527Z" fill="url(#paint2_linear_3536_224293)"/>
<path d="M43.4331 36.28V36.4213H43.2864L33.0078 26.1413L33.1546 26L43.4331 36.28Z" fill="url(#paint3_linear_3536_224293)"/>
<path d="M78.7484 26.0649C78.7103 29.7983 76.417 33.5316 71.3427 33.5316C66.2684 33.5316 63.9141 29.8821 63.9141 26.0802C63.9141 22.2783 66.3522 18.4688 71.3427 18.4688C76.3103 18.4764 78.7865 22.2935 78.7484 26.0649ZM66.596 26.1259C66.6569 28.4954 67.9369 31.0402 71.3427 31.0402C74.7484 31.0402 76.0284 28.4802 76.0665 26.1107C76.1046 23.6726 74.7484 20.9526 71.3427 20.9526C67.9369 20.9526 66.535 23.6954 66.596 26.1259Z" fill="black"/>
<path d="M83.4096 23.0321L83.5924 24.2054C84.3772 22.9483 85.4286 22.7578 86.4572 22.7578C87.5086 22.7578 88.5219 23.1692 89.0781 23.7254L87.9429 25.9121C87.4248 25.4778 86.9524 25.2492 86.1295 25.2492C84.8115 25.2492 83.5924 25.9502 83.5924 27.8321V33.1959H81.0781V23.0321H83.4096Z" fill="black"/>
<path d="M98.6171 23.033H101.032V33.2044H98.6629L98.541 31.7187C97.9619 32.9149 96.3771 33.4939 95.2419 33.5168C92.2324 33.5396 90 31.6806 90 28.1149C90 24.6101 92.3314 22.7739 95.3029 22.7892C96.6667 22.7892 97.9619 23.4292 98.541 24.4425L98.6171 23.033ZM92.5067 28.1073C92.5067 30.0501 93.8476 31.2006 95.5162 31.2006C99.4781 31.2006 99.4781 25.0292 95.5162 25.0292C93.8476 25.0368 92.5067 26.172 92.5067 28.1073Z" fill="black"/>
<path d="M106.409 20.1676C106.409 22.1257 103.438 22.1257 103.438 20.1676C103.438 18.2019 106.409 18.2019 106.409 20.1676ZM103.666 22.9943V33.2038H106.18V22.9943H103.666Z" fill="black"/>
<path d="M121.868 25.8587C121.929 29.5083 119.704 33.2035 114.645 33.2035C112.87 33.2035 110.744 33.2035 108.969 33.2035V18.7578C110.744 18.7578 112.87 18.7578 114.645 18.7578C119.605 18.7578 121.807 22.293 121.868 25.8587ZM111.681 30.5825H114.653C117.936 30.5825 119.232 28.1902 119.171 25.8359C119.11 23.5883 117.792 21.3407 114.653 21.3407H111.681V30.5825Z" fill="black"/>
<path d="M134.944 33.2035H124.133C124.133 28.3959 124.133 23.5654 124.133 18.7578H134.944V21.4016H126.838V24.7235H134.655V27.2606H126.838V30.5216H134.944V33.2035Z" fill="black"/>
<path d="M147.362 18.7578H150.356V18.8797L145.465 25.8968L150.501 33.1197V33.2035H147.446L143.75 27.7787L140.055 33.2035H137V33.1197L142.013 25.8968L137.145 18.8797V18.7578H140.139L143.75 24.1445L147.362 18.7578Z" fill="black"/>
</g>
<path d="M9.47877 16.5724C8.26921 17.8375 6.50045 17.6809 5.76727 17.4445C5.54065 17.8576 5.11697 18.7069 5.23514 18.7992C5.38286 18.9147 7.51062 19.1865 9.57627 18.4428C11.6419 17.6991 12.9871 16.0051 13.1119 15.8632C13.2617 15.6931 13.6901 15.294 13.9765 15.1241L27.1617 6.92273C28.156 6.85086 29.6736 6.26182 27.7901 4.4806C25.4357 2.25407 23.2605 1.1245 20.3522 0.879329C17.4438 0.634161 14.8233 2.3714 13.9258 3.09518C13.0282 3.81895 11.9184 5.39428 11.4403 6.89316C11.0578 8.09226 10.9423 11.3653 10.9324 12.852C10.9518 13.565 10.6883 15.3073 9.47877 16.5724Z" fill="#C51818"/>
<path d="M25.1978 8.71234C26.6402 8.06944 28.1193 7.55465 29.6708 7.28303C30.6472 6.87507 30.6854 6.70148 30.0482 5.80972C30.0179 5.75977 30.0006 5.70874 29.9572 5.65985C29.3773 4.9863 28.8181 4.2455 27.7661 4.3712C27.4274 4.39901 27.1233 4.52887 26.8202 4.67176C25.4311 5.3234 24.056 5.987 22.7307 6.77763C20.9057 7.87153 19.1836 9.10121 17.5374 10.4558C16.554 11.2577 15.6422 12.1324 14.7445 13.019C14.2108 13.548 13.6642 14.078 13.7217 14.9387C13.7339 15.1513 13.8002 15.6993 13.9687 16.1903C14.0692 16.6147 14.4011 16.8235 14.7603 16.8858C15.1336 16.96 15.4584 16.7629 15.7053 16.4148C15.976 16.0386 16.1991 15.5613 16.6814 15.3644C16.7303 15.321 16.7781 15.2647 16.827 15.2213C16.8033 15.0921 16.8349 14.9978 16.9782 14.986C17.7883 13.8312 18.7979 12.8698 19.8932 11.9932C21.5307 10.6917 23.2743 9.56519 25.1978 8.71234Z" fill="#FEE0BC"/>
<rect x="-0.0429688" y="14.1953" width="5.88204" height="5.88062" rx="2.94031" transform="rotate(-4.69349 -0.0429688 14.1953)" fill="#FEE0BC"/>
<defs>
<linearGradient id="paint0_linear_3536_224293" x1="32.936" y1="26.072" x2="24.7758" y2="34.231" gradientUnits="userSpaceOnUse">
<stop stop-opacity="0"/>
<stop offset="1"/>
</linearGradient>
<linearGradient id="paint1_linear_3536_224293" x1="33.0819" y1="25.9274" x2="38.2607" y2="20.7493" gradientUnits="userSpaceOnUse">
<stop offset="0.0176145" stop-opacity="0"/>
<stop offset="1"/>
</linearGradient>
<linearGradient id="paint2_linear_3536_224293" x1="32.8907" y1="25.8821" x2="26.3739" y2="19.3662" gradientUnits="userSpaceOnUse">
<stop stop-opacity="0"/>
<stop offset="1"/>
</linearGradient>
<linearGradient id="paint3_linear_3536_224293" x1="33.0597" y1="26.0497" x2="36.7831" y2="29.7726" gradientUnits="userSpaceOnUse">
<stop stop-opacity="0"/>
<stop offset="0.9809"/>
</linearGradient>
<clipPath id="clip0_3536_224293">
<rect width="138" height="40" fill="white" transform="translate(13 6)"/>
</clipPath>
</defs>
</svg>
