<svg xmlns="http://www.w3.org/2000/svg" width="91" height="63" viewBox="0 0 91 63" fill="none">
  <path d="M83.1431 32.481C82.0779 30.6508 81.7015 29.969 79.6341 29.574C78.9298 29.4417 78.2146 29.3747 77.4993 29.3076C76.9164 29.2585 76.337 29.2659 75.7442 29.379C74.4489 29.6228 73.1998 29.565 72.1045 28.7596C71.3421 28.1932 70.981 27.1992 70.3588 26.4604C67.2111 22.7394 62.2249 27.232 59.0729 23.5234C56.6128 20.619 55.3192 16.6399 52.3426 14.3305C49.2386 11.922 45.2589 11.8203 41.3432 12.4032C39.3502 12.6963 37.3959 13.2788 35.5748 14.4455C33.8994 15.5243 33.598 16.8007 32.472 18.4277C30.5556 21.1765 28.2833 20.5728 26.1957 19.2323C24.3137 18.0316 22.238 17.192 19.9407 18.167C18.5367 18.7597 17.4272 19.9371 16.1208 20.7152C14.7457 21.5249 13.604 21.4903 12.1443 21.6084C9.10483 21.8583 5.7157 22.5536 3.73794 25.6815C1.05478 29.9188 4.45618 31.9329 7.76487 32.107C10.4615 32.2496 14.8659 30.4825 16.8493 33.0294C18.4544 35.1007 18.2729 39.7447 21.5691 39.4866C22.9086 39.3824 24.5314 37.9541 25.912 38.5679C27.412 39.2367 27.188 41.0918 27.4968 42.606C27.9679 44.9215 29.5228 46.3683 31.626 46.6928C33.1383 46.9242 34.7722 46.5349 36.2394 45.8259C37.5009 45.2117 38.1026 44.1354 39.2355 43.3251C41.3534 41.8328 43.0966 42.5992 44.7487 43.831C46.4748 45.116 48.2937 44.8595 50.1804 43.3013C52.0338 41.7731 53.5715 40.5916 55.7588 41.442C57.9049 42.2782 59.2251 43.6027 61.7695 43.6514C64.7379 43.7082 66.6448 43.3302 69.1105 41.1297C70.9985 39.434 71.8017 38.0407 74.3467 38.0206C76.9371 38.0024 78.7436 39.9914 81.212 40.428C83.1247 40.7697 85.0475 40.0107 86.3676 38.4229C87.3855 35.7372 84.3411 34.4949 83.1638 32.4881L83.1431 32.481Z" fill="url(#paint0_linear_3524_179926)"/>
  <path d="M86.4546 38.2036C86.4546 38.2036 86.5208 37.978 86.5658 37.8141C86.5743 37.7894 86.5621 37.7576 86.5688 37.7047C86.5695 37.6359 86.595 37.5619 86.5956 37.4931C85.801 37.2883 85.0551 36.5068 84.3155 36.6107C83.491 36.7269 83.4932 37.3901 82.8208 37.8347C82.3857 38.1264 81.3635 38.1468 81.081 37.594C80.3572 36.2128 83.0634 34.8542 83.4509 33.8974C82.414 34.1611 81.8942 33.9958 81.0516 33.8297C80.9545 33.81 80.8574 33.7904 80.7458 33.7795C79.8947 33.638 79.1513 34.1547 79.0175 35.2128C78.8769 36.3237 78.8007 37.1808 77.5358 37.0347C76.368 36.9083 76.7778 36.2214 76.7685 35.2107C76.7596 33.2615 73.4858 33.7895 72.3265 33.6385C72.1591 33.6222 72.7802 35.3683 72.7796 35.4371C72.7944 36.2979 72.8533 36.194 72.2671 36.7235C71.3555 37.5273 69.1499 38.4373 68.0652 38.5051C66.3222 38.6083 65.6215 36.9591 67.6476 36.001C66.4049 36.5941 65.3127 37.0183 64.3467 36.1056C63.5528 35.3628 63.5252 34.539 62.1535 34.7701C60.9413 34.9735 59.4545 36.007 58.2728 35.8205C57.3659 35.6736 56.8858 34.7905 56.1428 34.3688C56.3053 34.4662 57.4705 36.6758 57.5067 37.0058C57.693 38.5744 55.8545 39.1554 54.7182 39.2055C54.0745 39.2321 51.8374 38.6267 51.6758 37.7567C51.5044 36.8143 53.4335 35.6021 53.9361 34.9471C52.4517 34.6012 51.4398 36.1986 50.0687 36.1263C49.163 36.0764 48.445 35.4149 47.4597 35.4619C46.1329 35.5291 44.761 36.2295 43.472 35.7852C42.8636 35.5756 42.4889 34.922 41.9139 34.6824C41.4797 35.775 42.5167 36.6154 42.4569 37.7266C42.3988 38.8659 41.662 39.5644 40.8555 40.1974C40.0095 40.8444 37.8589 42.2978 36.9917 41.4331C36.1409 40.5878 37.5871 39.2367 37.8847 38.3731C36.9182 38.6335 35.9475 40.2451 34.8988 39.7732C34.0684 39.4043 34.0679 37.665 33.5786 36.8753C33.3767 36.5573 31.5567 33.5699 31.5276 33.5875C30.0148 34.5292 29.2912 32.4441 27.8188 32.5992C27.9301 33.3139 28.541 34.8218 28.0833 35.5474C27.7495 36.081 26.1951 36.3735 25.6891 36.5028C24.1128 36.9257 22.1577 36.2381 21.4613 34.5765C21.0443 33.5771 21.3486 32.8952 22.0702 32.0397C22.3422 31.7194 23.8788 30.2062 24.2446 30.2495C22.0456 30.0023 20.509 29.7074 18.741 28.477C18.2292 28.1212 17.528 27.8796 17.0106 27.439C16.3557 26.8959 16.1867 26.1475 15.7326 25.3562C15.6553 27.4551 13.4766 27.9188 12.166 28.4747C11.1939 28.885 9.46632 30.0149 8.49085 29.8996C7.34794 29.768 6.93194 27.7613 7.50933 26.6215C6.34179 28.9381 4.3128 28.1975 3.12305 26.8627C1.7488 30.2814 4.78936 31.9365 7.76318 32.078C10.4598 32.2206 14.8643 30.4535 16.8477 33.0003C18.4527 35.0717 18.2713 39.7157 21.5674 39.4576C22.907 39.3534 24.5298 37.9251 25.9103 38.5389C27.4103 39.2077 27.1863 41.0628 27.4951 42.577C27.9662 44.8925 29.5211 46.3393 31.6346 46.6674C33.1469 46.8987 34.7808 46.5094 36.248 45.8005C37.5096 45.1863 38.1112 44.11 39.2442 43.2997C41.362 41.8074 43.1053 42.5738 44.7573 43.8056C46.4834 45.0905 48.3023 44.834 50.189 43.2759C52.0424 41.7477 53.5802 40.5662 55.7675 41.4166C57.9135 42.2527 59.2337 43.5773 61.7781 43.626C64.7465 43.6828 66.6534 43.3048 69.1191 41.1043C71.0072 39.4085 71.8103 38.0153 74.3553 37.9952C76.9458 37.977 78.7523 39.9659 81.2206 40.4025C83.1891 40.7497 85.1599 39.952 86.4746 38.2796C86.4831 38.2549 86.4813 38.2266 86.4898 38.202L86.4546 38.2036Z" fill="url(#paint1_linear_3524_179926)"/>
  <path d="M79.6358 29.5753C78.9006 29.4323 78.1501 29.3669 77.3997 29.3015C76.8871 29.2491 76.3635 29.2619 75.8454 29.3594C74.5106 29.6171 73.2281 29.5892 72.1061 28.7609C71.3438 28.1945 70.9826 27.2005 70.3605 26.4616C67.2127 22.7406 62.2266 27.2332 59.0746 23.5246C56.6145 20.6203 55.3208 16.6411 52.3442 14.3317C49.2402 11.9232 45.2606 11.8215 41.3449 12.4044C39.3519 12.6975 37.3976 13.28 35.5765 14.4467C33.9011 15.5256 33.5996 16.8019 32.4736 18.429C30.5573 21.1777 28.285 20.574 26.1974 19.2335C24.305 18.0293 22.2397 17.1933 19.9321 18.1647C18.5281 18.7574 17.4186 19.9347 16.1121 20.7129C14.7371 21.5226 13.5954 21.488 12.1357 21.6061C12.0301 21.6111 11.9203 21.6285 11.8147 21.6335C11.8869 21.6584 11.9676 21.6586 12.044 21.6711C14.9224 22.2904 16.8752 23.8881 19.9366 23.5077C22.128 23.2416 24.1549 21.7455 26.3177 21.6628C31.0595 21.4612 31.6738 28.2151 37.1507 25.2442C40.3031 23.5287 42.3576 19.7097 46.034 19.486C49.5801 19.2726 51.9649 22.4961 54.0368 25.0872C56.3932 28.0248 58.6587 30.4894 62.5618 29.4743C64.0798 29.0865 65.0798 28.5616 66.6048 28.9905C69.3927 29.7719 70.7795 33.0792 74.2074 32.4387C76.1349 32.0678 77.7365 30.4666 79.7319 30.3675C80.8579 30.3139 81.6646 30.7851 82.4543 31.3057C81.8013 30.3215 81.1972 29.8649 79.6503 29.5665L79.6358 29.5753Z" fill="white"/>
  <defs>
    <linearGradient id="paint0_linear_3524_179926" x1="2.83828" y1="27.6796" x2="87.3765" y2="38.7937" gradientUnits="userSpaceOnUse">
      <stop stop-color="white"/>
      <stop offset="0.48" stop-color="#E1EFFA"/>
    </linearGradient>
    <linearGradient id="paint1_linear_3524_179926" x1="41.8008" y1="54.8859" x2="42.8805" y2="32.3606" gradientUnits="userSpaceOnUse">
      <stop stop-color="white"/>
      <stop offset="0.613734" stop-color="#BED9EC"/>
      <stop offset="1" stop-color="#A5CAE5"/>
    </linearGradient>
  </defs>
</svg>