<svg xmlns="http://www.w3.org/2000/svg" width="83" height="33" viewBox="0 0 83 33" fill="none">
  <path d="M1.75982 4.7581C2.21082 4.4346 2.63166 4.22262 3.02619 3.99732C4.74016 3.46256 5.15945 2.42603 7.06648 1.26008C10.7447 -1.00103 14.6783 1.06785 17.3516 3.69787C19.8696 6.16075 22.3551 7.9356 26.2291 8.01647C30.8911 8.1214 34.4632 7.58092 38.6761 10.1331C40.658 11.3304 42.0652 12.9598 44.4256 13.5816C47.5418 14.4013 51.7333 14.5918 54.9609 14.3906C58.1084 14.1869 60.7709 13.6686 63.9753 14.2287C68.1634 14.9688 72.0607 16.4744 76.029 17.8449C77.6163 18.393 79.204 18.9287 80.8073 19.3899C81.3545 19.8563 81.6567 20.4652 81.2966 21.3161C80.6781 22.7463 78.6608 22.7097 77.104 22.9119C76.9849 22.8708 76.8655 22.8422 76.7732 22.8019C74.0595 21.932 73.3963 22.6363 73.1945 24.429C72.945 24.7212 72.6539 25.062 72.4085 25.2169C72.5485 25.0088 71.5057 24.5773 71.4267 24.5374C70.9925 24.3117 70.5308 24.1103 70.1382 23.8359C69.9944 23.7316 69.8776 23.6156 69.7608 23.4996C68.9564 21.3889 67.495 19.3455 64.9855 19.6686C64.3326 19.5987 63.6183 19.7893 62.9998 20.345C62.9449 20.3933 62.9037 20.4295 62.8488 20.4778C62.6709 20.6098 62.5061 20.7546 62.3539 20.9248C61.3511 21.8061 60.2557 22.6596 58.9492 22.982C57.7233 23.2943 56.5286 23.4577 55.4171 23.9609C53.7852 24.4357 52.2388 25.1754 50.3764 25.3184C47.5898 25.5206 45.9494 23.6467 43.4116 23.1444C38.6413 22.2117 38.3961 27.176 36.2319 29.7582C34.8584 31.4027 31.973 30.465 31.7959 28.386C31.5684 25.7682 31.3279 22.7004 29.7051 21.1268C27.9136 19.3856 24.6333 20.4347 23.093 21.8492C22.763 22.1514 22.4856 22.4802 22.2341 22.8348C21.6481 23.6414 20.9964 24.4085 20.1371 24.9693C18.8822 25.7929 17.4807 26.1624 15.621 25.3435C13.4712 24.391 12.3559 22.3956 10.5217 21.1778C9.98861 20.6869 9.36094 20.2305 8.47875 19.7913C7.17493 19.1518 5.73146 18.708 4.55355 17.885C3.91632 16.8662 3.82817 15.8142 4.2673 14.1287C4.61563 12.7902 4.60451 11.4033 3.60937 10.2861C3.2213 9.86199 2.64437 9.4946 2.05332 9.15176C1.97548 9.07443 1.91102 8.9975 1.83356 8.90769C0.628935 7.64668 0.0783042 5.98093 1.75944 4.7706L1.75982 4.7581Z" fill="url(#paint0_linear_3524_179921)"/>
  <path d="M1.75982 4.7581C2.21082 4.4346 2.63166 4.22262 3.02619 3.99732C4.74016 3.46256 5.15945 2.42603 7.06648 1.26008C10.7447 -1.00103 14.6783 1.06785 17.3516 3.69787C19.8696 6.16075 22.3551 7.9356 26.2291 8.01647C30.8911 8.1214 34.4632 7.58092 38.6761 10.1331C40.658 11.3304 42.0652 12.9598 44.4256 13.5816C47.5418 14.4013 51.7333 14.5918 54.9609 14.3906C58.1084 14.1869 60.7709 13.6686 63.9753 14.2287C68.1634 14.9688 72.0607 16.4744 76.029 17.8449C77.6163 18.393 79.204 18.9287 80.8073 19.3899C81.3545 19.8563 81.6567 20.4652 81.2966 21.3161C80.6781 22.7463 78.6608 22.7097 77.104 22.9119C76.9849 22.8708 76.8655 22.8422 76.7732 22.8019C74.0595 21.932 73.3963 22.6363 73.1945 24.429C72.945 24.7212 72.6539 25.062 72.4085 25.2169C72.5485 25.0088 71.5057 24.5773 71.4267 24.5374C70.9925 24.3117 70.5308 24.1103 70.1382 23.8359C69.9944 23.7316 69.8776 23.6156 69.7608 23.4996C68.9564 21.3889 67.495 19.3455 64.9855 19.6686C64.3326 19.5987 63.6183 19.7893 62.9998 20.345C62.9449 20.3933 62.9037 20.4295 62.8488 20.4778C62.6709 20.6098 62.5061 20.7546 62.3539 20.9248C61.3511 21.8061 60.2557 22.6596 58.9492 22.982C57.7233 23.2943 56.5286 23.4577 55.4171 23.9609C53.7852 24.4357 52.2388 25.1754 50.3764 25.3184C47.5898 25.5206 45.9494 23.6467 43.4116 23.1444C38.6413 22.2117 38.3961 27.176 36.2319 29.7582C34.8584 31.4027 31.973 30.465 31.7959 28.386C31.5684 25.7682 31.3279 22.7004 29.7051 21.1268C27.9136 19.3856 24.6333 20.4347 23.093 21.8492C22.763 22.1514 22.4856 22.4802 22.2341 22.8348C21.6481 23.6414 20.9964 24.4085 20.1371 24.9693C18.8822 25.7929 17.4807 26.1624 15.621 25.3435C13.4712 24.391 12.3559 22.3956 10.5217 21.1778C9.98861 20.6869 9.36094 20.2305 8.47875 19.7913C7.17493 19.1518 5.73146 18.708 4.55355 17.885C3.91632 16.8662 3.82817 15.8142 4.2673 14.1287C4.61563 12.7902 4.60451 11.4033 3.60937 10.2861C3.2213 9.86199 2.64437 9.4946 2.05332 9.15176C1.97548 9.07443 1.91102 8.9975 1.83356 8.90769C0.628935 7.64668 0.0783042 5.98093 1.75944 4.7706L1.75982 4.7581Z" fill="url(#paint1_linear_3524_179921)"/>
  <path d="M3.93899 8.34607C4.14999 8.43996 4.68344 9.35565 4.90438 9.56227C5.41148 10.0275 5.84455 10.2906 6.53594 10.4116C7.83861 10.6513 8.96917 9.9613 10.2321 10.1873C9.82275 10.8993 8.76547 11.8164 8.00083 12.3427C7.07251 12.9764 5.79808 13.1248 5.18036 14.0928C3.91782 16.0405 5.578 16.391 7.35341 16.4702C9.19521 16.5639 9.75424 17.0807 11.1942 15.888C11.1984 17.0623 11.2404 17.4384 12.1516 18.2407C12.9979 18.9786 13.5336 18.945 13.1765 20.1333C12.8496 21.2101 12.3093 20.9563 13.5929 21.82C14.0515 22.1213 14.3709 22.6057 14.6216 23.1506C15.086 23.7019 15.6042 24.2424 16.3211 24.4017C16.5997 24.4727 16.8938 24.4692 17.1746 24.4652C17.4692 24.4493 17.7775 24.4212 17.9966 24.253C18.5166 23.8566 18.0377 23.3423 17.7542 22.9964C17.3933 22.5606 17.0605 22.0758 16.9979 21.4993C16.9968 21.5367 19.0225 22.1732 19.2095 22.1789C20.3332 22.1508 20.4465 21.5047 20.9925 20.6969C22.3355 18.7392 24.623 18.6841 23.1104 16.127C24.6123 16.8475 25.2037 18.0523 27.221 17.6517C28.8617 17.3271 30.0186 16.6504 31.7528 17.2031C31.1782 17.198 30.0213 17.4375 29.9195 18.1464C29.8027 18.9048 30.9619 19.0277 31.4858 19.381C33.0178 20.4271 32.9217 23.1349 35.2786 22.5574C35.3717 23.4471 33.8592 23.9506 33.372 24.5853C32.7176 25.4397 32.5593 26.2469 33.1305 27.2387C33.7143 28.2559 34.4038 28.4393 35.3829 27.8946C36.2937 27.3978 36.7343 26.0996 37.241 25.2656C37.8736 24.2481 38.2815 23.1488 37.5935 22.0409C37.2753 21.5191 36.5534 21.522 36.5053 20.9084C38.1994 21.4598 38.7752 21.4275 40.2278 20.6973C41.2321 20.2034 41.8906 20.5233 42.8567 20.4029C43.8496 20.2833 44.6501 19.4583 45.686 19.6773C44.032 21.3132 46.1188 22.5762 47.6775 23.186C49.7647 23.9992 51.4752 24.4512 52.2799 22.1773C51.9144 23.2029 53.9252 23.4518 54.4773 23.3187C55.6754 23.043 57.057 22.0109 58.2605 21.5605C59.0988 21.2488 61.1367 20.6115 61.6144 19.8516C62.1066 19.0547 61.3827 18.2456 62.5003 17.9799C63.0791 17.8477 63.6896 18.4284 64.2349 18.5201C64.8729 18.6395 65.3182 18.5032 65.9222 18.4217C68.0688 18.1625 68.9278 19.8002 69.9393 21.2552C70.3873 21.906 70.5014 22.5465 70.8421 23.2065C70.9688 23.4352 71.384 23.8477 71.6637 23.8812C71.8235 23.8986 72.0235 23.9172 72.1338 23.8081C72.175 23.7719 72.2032 23.7228 72.2181 23.6733C72.3192 23.4265 72.2333 23.1741 72.3478 22.9277C72.4623 22.6814 72.6423 22.4745 72.8091 22.2672C73.4486 21.4623 73.5188 21.352 73.6191 20.2558C75.4129 21.922 77.6984 21.4922 79.7944 22.4556C79.7944 22.4556 79.0251 22.6945 78.8488 22.7765C78.4829 22.9402 78.0922 23.0407 77.6908 23.0535C77.584 23.0502 77.4905 23.0473 77.3837 23.0441C77.0506 23.0089 76.7731 22.9005 76.4969 22.7546C76.247 22.6221 75.9947 22.5644 75.7158 22.5059C75.1713 22.3894 74.5448 22.3327 74.0286 22.6043C73.1857 23.0657 73.4532 23.9359 73.1236 24.6628C73.0946 24.7369 72.9679 24.9454 72.8992 25.0057C72.4997 25.3933 71.7583 25.1583 71.323 24.9701C70.7953 24.7416 70.3393 24.3529 69.992 23.9051C69.6063 23.4061 69.343 22.8359 69.1335 22.2549C68.9488 21.7371 68.6027 21.2518 68.2143 20.8402C67.3859 19.953 66.2381 19.4557 64.9767 19.617C64.3238 19.5471 63.6096 19.7377 62.9911 20.2934C62.9361 20.3417 62.8949 20.3779 62.84 20.4262C62.6621 20.5582 62.4973 20.7031 62.3451 20.8733C61.3424 21.7546 60.2469 22.608 58.9405 22.9304C57.7145 23.2427 56.5198 23.4061 55.4083 23.9093C53.7764 24.3841 52.23 25.1239 50.3676 25.2669C47.581 25.469 45.9406 23.5951 43.4028 23.0929C38.6325 22.1601 38.3873 27.1244 36.2231 29.7066C34.8496 31.3511 31.9642 30.4135 31.7871 28.3344C31.5596 25.7167 31.3191 22.6488 29.6963 21.0752C27.9048 19.334 24.6246 20.3831 23.0842 21.7976C22.7542 22.0998 22.4768 22.4286 22.2258 22.7708C21.3604 23.9685 20.2172 25.0704 18.7692 25.6507C17.9435 25.9878 16.9816 25.9709 16.1212 25.6948C14.93 25.3086 14.1153 24.4093 13.2579 23.5961C12.8031 23.1699 12.3753 22.7322 11.9342 22.294C11.4927 21.8683 10.9551 21.527 10.4999 21.1134C9.96687 20.6224 9.33914 20.166 8.45696 19.7268C7.15315 19.0874 5.70971 18.6436 4.53181 17.8206C3.89457 16.8018 3.80637 15.7498 4.24552 14.0643C4.59384 12.7258 4.58276 11.3388 3.58762 10.2216C3.19955 9.79751 2.63598 9.43052 2.03157 9.08727C1.95373 9.00994 1.88965 8.92054 1.81181 8.84321C1.72138 8.74051 1.63093 8.63782 1.55385 8.53553C2.50508 8.46465 3.34719 8.02816 3.9142 8.28283L3.93899 8.34607Z" fill="url(#paint2_linear_3524_179921)"/>
  <path d="M0.71852 7.27853C0.63301 6.57705 0.908426 5.87456 1.75517 5.2859C2.2058 4.97434 2.62644 4.77031 3.02072 4.55342C4.73405 4.03944 5.15222 3.04005 7.05791 1.91742C10.7335 -0.259684 14.6692 1.74022 17.3453 4.28005C19.8659 6.65848 22.3532 8.37321 26.2272 8.4554C30.8891 8.56166 34.4606 8.04417 38.6761 10.5105C40.6592 11.6676 42.0682 13.2409 44.4291 13.8432C47.5461 14.6373 51.7377 14.8256 54.965 14.635C58.1121 14.4419 60.774 13.9449 63.9789 14.4886C68.1676 15.207 72.0664 16.6636 76.0361 17.9898C77.6239 18.5202 79.2121 19.0387 80.8159 19.4853C81.3636 19.9358 81.6664 20.5234 81.3072 21.3439C81.2924 21.3916 81.2516 21.4145 81.2371 21.4502C80.6287 21.2388 80.0329 21.0519 79.4745 20.9505C78.464 20.775 77.4609 20.7926 76.4463 20.7496C74.6575 20.6708 73.4815 20.2252 72.0545 19.2418C70.2342 18.0053 68.5257 17.0494 66.2212 16.7862C61.4928 16.2321 58.2901 18.2429 54.6141 20.4321C49.631 23.4007 48.6719 17.1659 44.365 16.8174C40.4579 16.5053 38.2581 22.0049 34.5005 18.5525C32.5762 16.7827 31.3315 13.7685 28.551 12.9003C24.552 11.6576 21.4841 14.0701 18.9032 16.2927C17.1186 17.8287 14.6674 18.4286 13.9037 15.8629C13.4915 14.4766 13.6169 12.9984 13.5668 11.575C13.4953 9.10273 11.9796 5.33314 8.60871 5.41091C6.24088 5.47112 4.90749 7.55108 2.38345 7.47397C1.82255 7.45684 1.26349 7.37953 0.718152 7.29058L0.71852 7.27853Z" fill="white"/>
  <defs>
    <linearGradient id="paint0_linear_3524_179921" x1="-3.04724" y1="14.6548" x2="88.7129" y2="17.4578" gradientUnits="userSpaceOnUse">
      <stop stop-color="white"/>
      <stop offset="0.48" stop-color="#E1EFFA"/>
    </linearGradient>
    <linearGradient id="paint1_linear_3524_179921" x1="-3.04724" y1="14.6548" x2="88.7129" y2="17.4578" gradientUnits="userSpaceOnUse">
      <stop stop-color="white"/>
      <stop offset="0.48" stop-color="#E1EFFA"/>
    </linearGradient>
    <linearGradient id="paint2_linear_3524_179921" x1="47.2634" y1="64.3093" x2="41.3924" y2="12.7227" gradientUnits="userSpaceOnUse">
      <stop stop-color="white"/>
      <stop offset="0.67" stop-color="#BED9EC"/>
      <stop offset="1" stop-color="#A5CAE5"/>
    </linearGradient>
  </defs>
</svg>