<svg width="82" height="79" viewBox="0 0 82 79" fill="none" xmlns="http://www.w3.org/2000/svg">
<path d="M13 22C13.5523 22 14 21.5523 14 21C14 20.4477 13.5523 20 13 20C12.4477 20 12 20.4477 12 21C12 21.5523 12.4477 22 13 22Z" fill="#E85222"/>
<path d="M7 19C7.55229 19 8 18.5523 8 18C8 17.4477 7.55229 17 7 17C6.44772 17 6 17.4477 6 18C6 18.5523 6.44772 19 7 19Z" fill="#FFE81E"/>
<path d="M11.2113 11.4363C11.8802 11.4363 12.4226 10.8909 12.4226 10.2181C12.4226 9.54538 11.8802 9 11.2113 9C10.5423 9 10 9.54538 10 10.2181C10 10.8909 10.5423 11.4363 11.2113 11.4363Z" fill="#AEE67F"/>
<path d="M61 8C61.5523 8 62 7.55228 62 7C62 6.44771 61.5523 6 61 6C60.4477 6 60 6.44771 60 7C60 7.55228 60.4477 8 61 8Z" fill="#AEE67F"/>
<path d="M10.6418 31.8313C10.6418 32.8426 9.82656 33.6625 8.82091 33.6625C7.81527 33.6625 7 32.8426 7 31.8313C7 30.8199 7.81527 30 8.82091 30C9.82656 30 10.6418 30.8199 10.6418 31.8313Z" fill="#5FC4C0"/>
<path d="M37.411 17.4118C37.6994 17.4118 37.9332 17.1767 37.9332 16.8866C37.9332 16.5965 37.6994 16.3613 37.411 16.3613C37.1225 16.3613 36.8887 16.5965 36.8887 16.8866C36.8887 17.1767 37.1225 17.4118 37.411 17.4118Z" fill="#EFEBDC"/>
<path d="M66.2311 32.4762C66.911 32.4762 67.4622 31.9219 67.4622 31.2381C67.4622 30.5543 66.911 30 66.2311 30C65.5512 30 65 30.5543 65 31.2381C65 31.9219 65.5512 32.4762 66.2311 32.4762Z" fill="#AEE67F"/>
<path d="M44.2315 8.61924C44.2315 8.96109 43.9561 9.23849 43.6158 9.23849C43.2758 9.23849 43 8.96148 43 8.61924C43 8.27739 43.2754 8 43.6158 8C43.9561 8.00038 44.2315 8.27739 44.2315 8.61924Z" fill="#5FC4C0"/>
<path d="M55.1267 12.0753C55.1267 13.2213 54.2031 14.1502 53.0636 14.1502C51.924 14.1502 51 13.2213 51 12.0753C51 10.9292 51.924 10 53.0636 10C54.2031 10 55.1267 10.9289 55.1267 12.0753Z" fill="#FFE81E"/>
<path d="M63.4177 20.7129C63.4177 21.1065 63.1003 21.4257 62.7088 21.4257C62.3174 21.4257 62 21.1065 62 20.7129C62 20.3192 62.3174 20 62.7088 20C63.1003 20 63.4177 20.3192 63.4177 20.7129Z" fill="#AEE67F"/>
<path d="M58 24C58 17.3726 63.3726 12 70 12C76.6274 12 82 17.3726 82 24C82 30.6274 76.6274 36 70 36C63.3726 36 58 30.6274 58 24Z" fill="#AEE67F"/>
<path d="M65.334 24.666L68.0007 27.3327L74.6673 20.666" stroke="#232521" stroke-width="1.5" stroke-linecap="round" stroke-linejoin="round"/>
<path d="M33.2386 75.9019C34.5692 75.9462 35.1039 75.6471 35.2227 75.5669L34.9106 75.1063L34.8355 74.9831C34.7161 74.7872 34.488 74.6924 34.2623 74.7334C33.8436 74.8092 33.021 74.8583 31.6014 74.5855C29.8125 74.2413 28.6498 73.8505 28.1222 73.6515C27.9344 73.5804 27.7259 73.6688 27.642 73.8508L27.4965 74.1669C27.4037 74.3686 27.4995 74.6055 27.707 74.6847C28.2795 74.9029 29.5025 75.3148 31.3912 75.6779C32.1313 75.8207 32.7408 75.8853 33.2386 75.9019Z" fill="black"/>
<path d="M32.3138 73.6191L33.4258 73.6562L33.3793 75.048L32.2673 75.0108L32.3138 73.6191Z" fill="black"/>
<path d="M29.013 72.6258L30.0918 72.8984L29.6903 74.487L28.6116 74.2144L29.013 72.6258Z" fill="black"/>
<path d="M42.3574 59.6231C42.3574 59.6231 40.9155 63.1368 37.0248 66.7716C33.9216 69.6708 30.9159 69.5645 30.2015 71.3669C30.2015 71.3669 29.0374 68.844 27.6949 64.6826C26.3023 60.3659 24.3528 56.0488 24.3528 56.0488L42.3574 59.6231Z" fill="#E85222"/>
<g opacity="0.5">
<path d="M29.0617 69.7202C28.4597 68.0397 28.0661 65.9388 27.5524 64.3321C25.8844 59.1125 24.7704 57.4414 24.7704 57.4414L42.3574 59.6231C42.3574 59.6231 41.6542 60.5378 40.4234 61.9317C37.703 62.4857 31.1477 64.3541 29.0617 69.7202Z" fill="#E85222"/>
</g>
<path d="M33.8222 68.9996C33.8222 68.9996 30.7183 68.7001 28.1125 66.7715C28.1125 66.7715 28.3806 72.1319 28.4266 72.5779C28.4726 73.0239 34.347 74.4053 34.6577 74.0127C34.9683 73.6198 31.8882 71.6138 31.7748 71.3877C31.6614 71.162 33.8222 68.9996 33.8222 68.9996Z" fill="black"/>
<path d="M2.0141 51.0605C2.08685 52.3715 2.42729 52.8707 2.51629 52.98L2.94134 52.6331L3.05572 52.5485C3.23778 52.4141 3.31088 52.1817 3.25098 51.9634C3.13998 51.5587 3.01985 50.7549 3.16367 49.3367C3.34539 47.5495 3.62763 46.3729 3.7772 45.8375C3.83033 45.647 3.72577 45.4497 3.5393 45.3834L3.21612 45.2683C3.00969 45.1949 2.78533 45.3096 2.72577 45.5204C2.5613 46.1022 2.26384 47.3394 2.07197 49.226C1.99718 49.9658 1.98702 50.5702 2.0141 51.0605Z" fill="black"/>
<path d="M4.16392 49.9511L4.22461 51.0469L2.85341 51.1228L2.79272 50.027L4.16392 49.9511Z" fill="black"/>
<path d="M3.26579 46.3695L4.86133 46.625L4.68782 47.7086L3.09228 47.4532L3.26579 46.3695Z" fill="black"/>
<path d="M24.1816 56.5787C24.1816 56.5787 18.538 56.7658 15.1641 55.2136C11.7902 53.6616 6.53028 46.3012 6.53028 46.3012C6.53028 46.3012 12.7966 45.0481 18.1698 43.7246L24.1816 56.5787Z" fill="#E85222"/>
<g opacity="0.5">
<path d="M24.1816 56.578C24.1816 56.578 18.1204 56.4866 14.7465 54.9343C12.888 54.0792 10.3076 50.6173 8.05752 49.1262L7.91438 47.8203C12.0643 50.5093 18.4883 50.5228 21.2835 50.3804L24.1816 56.578Z" fill="#E85222"/>
</g>
<path d="M9.73242 45.6055C9.73242 45.6055 8.71821 47.8095 9.43327 50.0359C9.43327 50.0359 6.10773 49.241 5.98692 49.2542C5.86611 49.2674 4.12162 51.9452 3.92974 51.6809C3.73786 51.4166 4.40317 45.9632 4.51958 45.9097C4.63566 45.8562 9.73242 45.6055 9.73242 45.6055Z" fill="black"/>
<path d="M21.2572 28.6848C21.3225 28.7064 22.4294 25.4949 21.2572 25.0198C20.4561 24.6953 20.2568 25.8347 20.2568 25.8347C20.2568 25.8347 19.9546 23.8171 18.1086 23.8824C16.2626 23.9477 16.0409 25.7775 16.582 27.1166C17.0941 28.3836 18.5523 29.3392 18.5523 29.3392L21.2572 28.6848Z" fill="black"/>
<path d="M25.9893 34.8353C26.3856 34.9936 23.2296 32.5239 21.6452 29.1172L18.5816 29.6854C18.5816 29.6854 17.9769 34.3571 18.1352 36.3378C18.2936 38.3185 19.3738 40.7381 19.3738 40.7381L25.9893 34.8353Z" fill="#DA4B1D"/>
<g opacity="0.5">
<path d="M19.5624 29.5039C19.8172 33.9113 21.2528 36.6886 22.2832 38.1421L19.3729 40.7387C19.3729 40.7387 18.2927 38.3191 18.1343 36.3384C17.9759 34.3577 18.5807 29.686 18.5807 29.686L19.5624 29.5039Z" fill="#DA4B1D"/>
</g>
<path d="M21.5577 28.2365C21.5577 28.2365 22.067 29.4352 22.0975 29.5824C22.1276 29.7296 18.2332 31.0017 18.109 30.9039C17.9852 30.8061 18.2298 29.2156 18.3033 29.0931C18.3764 28.9705 21.264 28.1384 21.5577 28.2365Z" fill="#EFEBDC"/>
<path d="M53.8319 42.0469C53.8319 42.0469 55.5507 39.7558 56.5185 40.0851C57.3581 40.3707 56.6786 41.1931 56.6786 41.1931C56.6786 41.1931 59.2958 40.9606 58.9723 43.411C58.664 45.7453 55.3913 45.4201 54.0227 44.9237L53.8319 42.0469Z" fill="black"/>
<path d="M46.1715 41.7754C46.1715 41.7754 53.4808 42.1832 53.654 42.0976C53.8276 42.0116 54.1484 45.0826 54.1484 45.0826C54.1484 45.0826 51.3464 48.3588 49.5782 49.9811C47.8101 51.6034 44.5519 52.5699 44.5519 52.5699L46.1715 41.7754Z" fill="#DA4B1D"/>
<g opacity="0.5">
<path d="M45.1918 48.3031C49.2111 47.4381 52.6594 45.3871 54.0784 44.4551C54.121 44.8192 54.1484 45.0808 54.1484 45.0808C54.1484 45.0808 51.3464 48.3569 49.5782 49.9792C47.8101 51.6016 44.5519 52.5681 44.5519 52.5681L45.1918 48.3031Z" fill="#DA4B1D"/>
</g>
<path d="M53.8868 41.7637C53.9549 41.8067 54.522 45.1904 54.4736 45.2777C54.4252 45.365 53.6472 46.2933 53.5153 46.2429C53.3833 46.1924 52.608 41.8652 52.6107 41.7982C52.6134 41.7312 53.7346 41.6679 53.8868 41.7637Z" fill="#EFEBDC"/>
<path d="M45.8744 43.3451C45.8744 43.3451 46.8645 54.073 42.9035 59.1342C39.9722 62.8797 31.2003 63.304 25.464 59.2885C18.8623 54.6672 15.5063 45.9309 16.3865 42.74C16.8701 40.9867 25.464 34.6527 25.6291 34.5979C25.7943 34.5428 45.8744 43.3451 45.8744 43.3451Z" fill="#E85222"/>
<g opacity="0.5">
<path d="M25.4647 59.2888C21.4688 56.4918 18.6647 52.1883 17.2668 48.5179C19.1703 51.5737 26.6545 59.503 35.6592 59.4678C44.6673 59.4326 45.8862 45.4611 45.8862 45.567L45.9813 45.8083C46.0226 49.2824 45.6754 55.5934 42.9042 59.1345C39.9729 62.88 31.2014 63.3043 25.4647 59.2888Z" fill="#EC5C56"/>
</g>
<path d="M27.9539 60.8172C39.0317 55.693 41.0686 40.6342 41.0879 40.4826L40.7197 40.4355C40.7008 40.5851 38.6876 55.4433 27.7979 60.4801L27.9539 60.8172Z" fill="#D14039"/>
<path d="M20.6946 38.3867C22.4009 41.7271 27.5007 50.717 34.059 53.1149C38.8218 54.8564 43.8515 53.2723 45.459 52.6679C45.214 54.0053 44.861 55.3372 44.3619 56.5535C42.5027 57.2381 38.925 57.8205 33.0012 56.1098C25.099 53.8279 20.1779 43.9173 18.5826 40.2046C19.2259 39.6182 19.9539 38.9962 20.6946 38.3867Z" fill="black"/>
<path d="M30.738 49.1777H30.3502L26.0024 55.8532L37.0954 59.5807L37.4375 59.4667L26.9201 55.4681L30.738 49.1777Z" fill="#AF6228"/>
<path d="M37.743 54.4481L31.6249 51.6844L32.4994 51.2109L38.5762 54.3233L36.4557 57.9693L36.1718 57.7612L37.743 54.4481Z" fill="#AF6228"/>
<path d="M30.7382 49.1777L40.9043 53.4467L37.4376 59.4667L26.5382 55.7652L30.7382 49.1777ZM38.2224 54.2907L31.8952 51.5957L29.5852 54.8762L36.4816 57.5574L38.2224 54.2907Z" fill="#F3B44A"/>
<path d="M38.2224 54.2904L31.8952 51.5953L30.7497 53.2224C30.0999 52.5984 29.6143 51.954 29.2864 51.4545L30.7382 49.1777L40.9043 53.4467L39.993 55.0291C39.3483 55.2105 38.5365 55.3926 37.595 55.4677L38.2224 54.2904Z" fill="#F9DC63"/>
<path d="M51.129 32.2607C51.129 32.2607 55.7771 22.5741 47.1463 15.8083C39.7579 10.0165 28.9769 14.8148 26.6432 15.5748C24.3095 16.3349 21.007 15.5924 20.96 12.2676C20.96 12.2676 19.1664 18.99 21.1762 25.1186C23.1857 31.2472 28.0601 33.5558 30.0334 34.0522L51.129 32.2607Z" fill="#E85222"/>
<g opacity="0.5">
<path d="M25.4477 23.0739C30.6707 27.9236 34.9728 25.3398 34.9728 25.3398L38.1992 32.8332L37.4436 33.4231L30.0307 34.0525C28.0575 33.5561 23.183 31.2474 21.1736 25.1189C19.4382 19.8268 20.5377 14.0962 20.8707 12.6289C21.0609 15.2495 21.9252 19.8032 25.4477 23.0739Z" fill="#EC5C56"/>
</g>
<path d="M50.537 34.3891C50.537 34.3891 53.8124 31.5204 52.2155 26.0179C51.2991 22.8602 46.535 19.2392 40.5323 19.0487C33.8897 18.8379 31.047 23.0142 30.2833 25.8805C29.3987 29.1999 30.4531 31.8023 30.4531 31.8023L50.537 34.3891Z" fill="#F2F0E8"/>
<g opacity="0.34">
<path d="M30.9855 24.2793C32.4342 25.8279 33.62 24.7348 33.62 24.7348L39.334 32.1175L30.4518 31.8008C30.4518 31.8008 29.3973 29.1984 30.2819 25.8789C30.4193 25.3625 30.6552 24.8211 30.9855 24.2793Z" fill="#AFAFAF"/>
</g>
<path d="M17.7332 11.233C18.1126 12.9524 19.8138 14.0387 21.5332 13.6593C23.2527 13.28 24.339 11.5788 23.9596 9.85936C23.5802 8.13991 21.8791 7.05362 20.1596 7.43298C18.4402 7.81199 17.3539 9.5135 17.7332 11.233Z" fill="#EFEBDC"/>
<g opacity="0.34">
<path d="M21.2121 12.2108C22.6818 11.8866 23.6852 10.5959 23.7099 9.1543C23.8169 9.37494 23.9028 9.60911 23.9576 9.85886C24.337 11.5783 23.2507 13.2795 21.5313 13.6588C19.8118 14.0382 18.1106 12.9519 17.7313 11.2325C17.6761 10.9827 17.6555 10.734 17.6595 10.489C18.289 11.7864 19.7424 12.535 21.2121 12.2108Z" fill="#AFAFAF"/>
</g>
<path d="M49.6483 33.7396C49.6483 33.6279 51.0429 32.0107 50.8676 29.5396C50.6713 26.7697 49.6523 24.9261 45.5596 23.2527C41.4669 21.5792 37.6213 21.565 35.7773 22.2486C32.4677 23.4757 31.8727 27.4919 31.8727 27.4919L49.6483 33.7396Z" fill="#FFC4AC"/>
<path d="M35.7757 22.2488C37.6197 21.5648 41.4653 21.5794 45.5581 23.2528C47.6542 24.11 48.9408 25.0125 49.7266 26.0606C48.1151 24.9628 44.5496 22.933 41.243 22.8782C37.8867 22.8227 35.596 26.6142 34.6742 28.4772L31.8708 27.4917C31.8708 27.4917 32.4661 23.4758 35.7757 22.2488Z" fill="#EA9873"/>
<path d="M44.8171 26.4985C44.9176 26.4985 45.0194 26.4714 45.1111 26.4142C45.3717 26.2514 45.4512 25.9086 45.2888 25.6477C44.8678 24.9729 43.505 23.8924 41.3619 24.6311C41.0716 24.7316 40.9172 25.048 41.0174 25.3387C41.1176 25.6287 41.4347 25.7831 41.725 25.6832C43.5751 25.0443 44.3372 26.2247 44.3446 26.2369C44.4502 26.4057 44.6316 26.4985 44.8171 26.4985Z" fill="#EFEBDC"/>
<path d="M49.7293 28.7984C49.7767 28.7984 49.8244 28.7923 49.8721 28.7791C50.1652 28.7002 50.3422 28.4058 50.2684 28.1114C50.1006 27.4434 49.2715 26.2752 47.329 26.639C47.0268 26.6955 46.8278 26.9859 46.8843 27.288C46.9409 27.5902 47.2312 27.7899 47.5334 27.7331C48.8596 27.486 49.1469 28.238 49.1913 28.3913C49.2617 28.6356 49.486 28.7984 49.7293 28.7984Z" fill="#EFEBDC"/>
<path d="M45.872 30.9514C45.872 30.9514 51.7681 32.4069 52.1786 37.2952C52.5891 42.1835 48.5512 48.2071 40.5732 48.5648C32.2518 48.9381 26.8775 43.8078 24.6017 40.1314C22.176 36.2133 21.8775 33.2279 22.1016 30.3172C22.1016 30.3172 23.109 32.8922 25.1987 31.9592C26.5723 31.346 30.4216 26.2885 35.1621 26.2871C41.9536 26.2847 45.872 30.9514 45.872 30.9514Z" fill="#EFEBDC"/>
<g opacity="0.34">
<path d="M27.7205 39.7025C27.2024 38.6653 27.5032 37.7627 27.5032 37.7627C27.5032 37.7627 28.1973 40.1282 32.8071 43.0808C37.4172 46.0334 42.5482 44.4855 42.5482 44.4855C41.5296 44.4537 40.3834 43.1803 40.3834 43.1803C42.4845 44.0081 45.8784 43.3444 45.8784 43.3444C45.1678 43.1299 44.5556 42.6666 44.5556 42.6666C51.7501 42.6666 51.5762 36.271 50.893 34.0795C51.5674 34.9326 52.0689 35.9902 52.1786 37.2944C52.5891 42.1827 48.5512 48.2063 40.5732 48.564C32.2518 48.9373 26.8775 43.807 24.6017 40.1306C22.176 36.2125 21.8775 33.2271 22.1016 30.3164C22.1016 30.3164 22.0207 33.9414 23.998 36.534C25.3147 38.2609 27.7205 39.7025 27.7205 39.7025Z" fill="#CCCCCC"/>
</g>
<path d="M19.3868 77.3601C19.3868 77.8707 23.6037 78.2846 28.8057 78.2846C34.0077 78.2846 38.2246 77.8707 38.2246 77.3601C38.2246 76.8494 34.0077 76.4355 28.8057 76.4355C23.604 76.4355 19.3868 76.8494 19.3868 77.3601Z" fill="#185193"/>
<path d="M43.4302 27.0464C43.3235 26.8485 43.1482 26.6924 42.9347 26.6071C42.7275 26.5239 42.5011 26.5144 42.2968 26.5798L41.2306 26.9192C41.1081 26.9582 41.0476 27.0873 41.0954 27.2076C41.1177 27.2638 41.1598 27.3081 41.2111 27.3354C41.2688 27.3663 41.3387 27.3753 41.4036 27.3543L42.4701 27.015C42.5671 26.9837 42.675 26.9887 42.774 27.028C42.8762 27.07 42.9595 27.1431 43.0101 27.2371L43.5311 28.2067C43.5927 28.3222 43.7369 28.3721 43.8529 28.3192C43.9692 28.2665 44.0128 28.1306 43.9512 28.016L43.4302 27.0464Z" fill="black"/>
<path d="M49.1283 30.1363C49.0931 29.9542 48.9924 29.7966 48.843 29.6926C48.6982 29.5912 48.5193 29.5486 48.3391 29.5721L47.399 29.6933C47.291 29.7072 47.2098 29.806 47.2175 29.9141C47.221 29.9645 47.2436 30.0081 47.2776 30.0388C47.3161 30.0734 47.3697 30.0917 47.4271 30.084L48.3674 29.963C48.453 29.9517 48.5382 29.9724 48.6074 30.0205C48.6787 30.0712 48.7268 30.1452 48.7435 30.2317L48.9145 31.1233C48.9345 31.2294 49.0372 31.2933 49.1436 31.2667C49.2501 31.2404 49.3196 31.1333 49.2994 31.0279L49.1283 30.1363Z" fill="black"/>
<path d="M42.7167 35.568C42.5037 35.4617 42.359 35.2724 42.3021 35.0583C42.2535 34.8754 42.2687 34.6742 42.3602 34.4909L43.6035 32L45.0351 32.7146L43.7918 35.2054C43.6958 35.3977 43.5341 35.5347 43.3474 35.6028C43.1482 35.6757 42.9208 35.6699 42.7167 35.568Z" fill="black"/>
<path d="M54.0976 36.3534C53.9135 35.1397 53.37 34.6489 53.4996 35.8649C53.6307 37.095 52.386 37.7807 51.5472 37.481C50.7084 37.1812 49.9943 35.5082 49.2036 34.206C48.413 32.9039 47.2852 32.7174 47.2852 32.7174C47.5593 31.4345 46.9915 31.143 46.9915 31.143L45.0164 30.4291L43.128 29.5102C43.128 29.5102 42.5233 29.3061 41.7942 30.3968C41.7942 30.3968 40.8746 29.7177 39.3896 30.0584C37.9048 30.3989 36.2072 31.053 35.4077 30.6601C34.6082 30.2674 34.2326 28.8966 35.2061 28.1337C36.1685 27.3792 35.438 27.3316 34.4389 28.0452C33.4402 28.759 31.9883 30.9249 34.9855 33.5629C37.9825 36.2011 40.9589 34.6428 40.9589 34.6428C40.9589 34.6428 41.4907 34.9224 42.4904 34.3758C43.4901 33.8292 43.9922 32.8526 43.9922 32.8526C43.9922 32.8526 43.6418 33.893 43.9465 34.9912C44.2512 36.089 44.8223 36.2756 44.8223 36.2756C44.8223 36.2756 45.7791 39.4961 49.7597 39.8068C53.7403 40.1178 54.2818 37.5671 54.0976 36.3534Z" fill="#E0D9C2"/>
<path d="M53.9143 35.9802C53.7295 34.8224 53.2024 34.3515 53.3345 35.5112C53.4683 36.6843 52.2717 37.3308 51.461 37.0401C50.6501 36.7497 49.9519 35.1506 49.1817 33.9051C48.4119 32.6593 47.3227 32.4753 47.3227 32.4753C47.5795 31.2539 47.0302 30.9727 47.0302 30.9727L45.1214 30.2808L43.2949 29.3941C43.2949 29.3941 42.7105 29.1962 42.0134 30.2315C42.0134 30.2315 41.1223 29.579 39.6926 29.8949C38.2624 30.2109 36.6291 30.8243 35.8558 30.4452C35.0824 30.0661 34.712 28.7577 35.6466 28.036C36.5702 27.3226 35.8655 27.2729 34.9061 27.9471C33.9467 28.6213 32.5595 30.6775 35.4652 33.2095C38.3711 35.7411 41.2325 34.2735 41.2325 34.2735C41.2325 34.2735 41.7467 34.543 42.7079 34.0278C43.669 33.5125 44.1473 32.5848 44.1473 32.5848C44.1473 32.5848 43.8153 33.5747 44.1157 34.6227C44.4161 35.6711 44.9678 35.852 44.9678 35.852C44.9678 35.852 45.9093 38.9272 49.7502 39.2464C53.591 39.5657 54.0991 37.1379 53.9143 35.9802Z" fill="#F2F0E8"/>
<path d="M47.32 31.6126C47.7307 30.7238 47.0933 29.5548 45.8961 29.0016C44.6989 28.4484 43.3955 28.7206 42.9848 29.6094C42.7481 30.1218 42.8683 30.7246 43.2345 31.2518C43.0965 31.7844 43.4821 32.4241 44.1682 32.7411C44.8546 33.0583 45.5913 32.9372 45.9074 32.4869C46.5462 32.4241 47.0833 32.1249 47.32 31.6126Z" fill="#F94D0B"/>
<path d="M40.3036 26.5654C39.4936 26.0522 38.6144 25.9904 38.3397 26.4276C38.0649 26.8649 38.4987 27.6356 39.309 28.1489C40.1189 28.6624 40.9981 28.7239 41.2729 28.2866C41.5477 27.8494 41.1138 27.079 40.3036 26.5654Z" fill="#E37956"/>
<path d="M50.1907 32.9416C50.1853 32.6328 49.7163 32.3925 49.1431 32.4046C48.5698 32.417 48.1093 32.6769 48.1147 32.9856C48.12 33.2944 48.5891 33.5347 49.1623 33.5226C49.7358 33.5103 50.1961 33.2503 50.1907 32.9416Z" fill="#E37956"/>
</svg>
