<svg width="85" height="95" viewBox="0 0 85 95" fill="none" xmlns="http://www.w3.org/2000/svg">
<g clip-path="url(#clip0_3536_230648)">
<path d="M29.6637 42.9911C29.6637 42.9911 9.12459 37.4228 8.2652 38.0838C7.40581 38.7452 7.41376 48.0862 13.7983 55.7474L29.6637 42.9911Z" fill="#E85222"/>
<g opacity="0.5">
<path d="M27.0767 44.7984C13.4138 47.4178 9.04392 40.43 7.90109 37.7755C7.64599 37.7612 7.90109 38.8881 7.83949 38.9354C7.1445 39.4701 8.26502 50.0016 14.0109 55.7478C18.1975 54.2445 20.7367 48.0821 24.5182 46.5859L27.0767 44.7984Z" fill="#D44213"/>
</g>
<path d="M8.19444 41.7434C8.19444 41.7434 8.0856 39.7684 10.9835 38.2926C10.9835 38.2926 6.10077 36.6173 5.83698 36.6569C5.57357 36.6966 1.6606 42.2849 2.02378 42.4013C2.38696 42.5177 5.29013 40.6708 5.64953 40.8065C6.00893 40.9418 8.19444 41.7434 8.19444 41.7434Z" fill="black"/>
<path d="M30.7637 42.805C30.7637 42.805 40.3243 27.9626 40.8594 27.8288C41.3941 27.695 50.8213 46.6568 50.8213 46.6568L30.7637 42.805Z" fill="#E85222"/>
<g opacity="0.5">
<path d="M40.8594 27.8288C40.8072 27.8421 40.6667 27.9989 40.4596 28.2649C41.2555 29.949 43.9001 36.1208 41.492 39.1785C39.3371 41.915 34.1615 41.4445 31.8793 41.0798C31.1968 42.1331 30.7637 42.8046 30.7637 42.8046L50.821 46.6568C50.821 46.6568 41.3941 27.695 40.8594 27.8288Z" fill="#D44213"/>
</g>
<path d="M38.0742 31.6702C38.0742 31.6702 40.1433 30.9117 43.1603 31.6702C43.1603 31.6702 42.644 28.2356 42.8322 28.1884C43.0208 28.1411 45.6118 28.2825 45.7532 28.1884C45.8945 28.0943 41.3965 24.7962 41.2665 24.8907C41.1365 24.9851 38.9223 28.4148 38.0742 31.6702Z" fill="black"/>
<path d="M20.255 70.4438C20.255 70.4438 13.0541 60.0171 13.5998 54.2443C14.1452 48.4716 22.8736 42.7828 32.4746 41.9178C42.0756 41.0527 53.2632 44.3489 54.2953 52.0906C55.2442 59.2102 51.9072 66.8419 51.9072 66.8419L20.255 70.4438Z" fill="#E85222"/>
<g opacity="0.5">
<path d="M46.9209 43.916C51.9091 49.1279 49.1507 51.8618 45.9795 53.7865C42.6338 55.8174 22.0127 58.0305 13.6758 56.2411C14.5167 62.1313 20.2538 70.4429 20.2538 70.4429L51.9057 66.841C51.9057 66.841 55.2427 59.2093 54.2938 52.0897C53.7915 48.3222 50.8804 45.6106 46.9209 43.916Z" fill="#EC5C56"/>
</g>
<path d="M37.5395 69.0152C36.3808 50.1476 29.2706 43.0143 29.1992 42.9448L29.4626 42.6738C29.5352 42.7441 36.7478 49.9612 37.9167 68.9925L37.5395 69.0152Z" fill="#9E2B2B"/>
<path d="M33.6231 46.9546C23.2436 48.1786 16.1368 53.6192 13.6191 55.8394C13.7321 56.9086 14.0194 58.068 14.4177 59.2524C17.0095 57.2287 25.2012 51.3486 34.3983 50.0716C42.4181 48.9583 50.5414 51.1854 54.3308 52.4631C54.3169 52.3384 54.3048 52.2137 54.2881 52.0893C54.1332 50.9272 53.7454 49.8672 53.1725 48.9046C48.9916 47.5796 41.8516 45.9841 33.6231 46.9546Z" fill="black"/>
<path d="M28.606 47.6486L37.6023 46.1997L38.8154 50.3779L39.4893 50.0408L38.3102 45.4922L27.4941 47.042L29.1921 52.1383L29.6143 51.9561L28.606 47.6486Z" fill="#AF6228"/>
<path d="M39.6866 43.8711L25.8906 45.8136L28.0576 53.4003L41.2757 51.3108L39.6866 43.8711ZM29.2998 51.6596L28.1056 47.4443L37.8884 45.8136L38.9953 49.8328L29.2998 51.6596Z" fill="#F3B44A"/>
<path d="M25.8906 45.8138L27.8437 52.6512C28.5175 52.4225 29.595 52.0166 30.8293 51.3715L29.3002 51.6595L28.106 47.4442L37.0547 45.9525C37.4304 45.3796 37.7697 44.7621 38.0638 44.0996L25.8906 45.8138Z" fill="#F9DC63"/>
<path d="M25.7309 94.9692C25.7309 94.9692 27.7467 89.1031 20.7471 88.0532C20.7471 88.0532 22.0069 83.5036 17.4575 83.7135C17.4575 83.7135 17.1757 81.6641 14.8679 82.1737C14.8679 82.1737 12.698 77.9374 7.79842 79.0408C2.89884 80.1438 2.89884 84.6935 2.89884 84.6935C2.89884 84.6935 -0.248651 83.1297 -2.63076 85.0434C-5.29323 87.1826 -4.17059 90.3628 -4.17059 90.3628C-4.17059 90.3628 -8.09019 91.2595 -9 94.9692H25.7309Z" fill="#F9F5E6"/>
<g opacity="0.34">
<path d="M-1 95C-1 95 0.597235 90.1746 6.32088 91.3134C6.32088 91.3134 5.51288 89.5241 6.55833 88.7016C7.60409 87.879 9.10985 89.1773 9.10985 89.1773C9.10985 89.1773 8.44069 84.9555 13 84.0152C13 84.0152 8.63196 83.5512 8.36919 87.7496C8.36919 87.7496 5.30372 86.927 5.22 90.3463C5.22 90.3463 -0.0671633 89.4387 -1 95Z" fill="#E0D9C2"/>
</g>
<path d="M75.2927 77.4577L72.5507 92.3255L53 87.9289L55.639 73.8613L75.2927 77.4577Z" fill="#317C65"/>
<path d="M54.8447 78.0919L53.8926 83.1674L61.9007 75.0085L58.9397 74.4668C57.6665 75.5921 56.0657 77.0085 54.8447 78.0919Z" fill="#EC5C56"/>
<path d="M54.9434 88.3659L59.4963 89.3899L69.4011 76.3801L66.8107 75.9062C64.1202 78.712 56.9039 86.2462 54.9434 88.3659Z" fill="#EC5C56"/>
<path d="M74.2308 83.214L75.2923 77.4584L75.2309 77.4473L63.8984 90.3804L68.153 91.3373L74.2308 83.214Z" fill="#EC5C56"/>
<path d="M77.5206 73.7059L75.6602 78.2768L54.9746 74.5779L55.0029 69.459L77.5206 73.7059Z" fill="#D14039"/>
<path d="M66.752 69.0124C66.752 69.0124 67.4452 66.0997 68.671 65.2286C69.8968 64.3574 71.5669 64.4986 72.2514 65.7755C72.8657 66.9215 72.1736 68.6678 72.275 68.9119C72.3759 69.156 75.5275 70.3096 74.3468 72.4748C73.346 74.3101 70.6583 73.7405 69.6303 73.204C68.5537 72.6419 67.2207 71.6527 67.2207 71.6527L66.752 69.0124Z" fill="#4B9D85"/>
<g opacity="0.3">
<path d="M66.9297 70.0081C67.7506 68.8777 70.0996 67.492 70.5879 69.1318C71.1435 70.9978 67.7877 71.3193 67.7877 71.3193C70.6752 74.0632 73.2592 73.133 74.2968 72.5594C73.2596 74.2894 70.6425 73.7314 69.6309 73.2032C68.5543 72.6412 67.2213 71.652 67.2213 71.652L66.9297 70.0081Z" fill="#4B9D85"/>
</g>
<path d="M65.7924 68.9027C65.7924 68.9027 65.8682 64.834 64.1857 63.5887C62.5327 62.3657 61.2503 63.4084 61.0536 64.4152C60.857 65.422 61.2866 66.396 60.8258 67.0726C60.3264 67.8057 58.6304 67.9102 58.5274 69.7643C58.4245 71.6183 62.2124 71.7188 64.3787 71.0949L65.7924 68.9027Z" fill="#4B9D85"/>
<g opacity="0.3">
<path d="M65.4254 68.9676L65.6436 69.1344L64.3788 71.0957C62.212 71.7192 58.4241 71.619 58.5275 69.765C58.533 69.6653 58.5442 69.5715 58.5586 69.4814C58.7915 69.753 59.4457 70.3709 60.6495 70.5369C62.062 70.7311 64.3784 70.2852 64.3784 70.2852C64.3784 70.2852 61.0389 69.7602 61.8897 68.1C62.7393 66.4399 65.4254 68.9676 65.4254 68.9676Z" fill="#4B9D85"/>
</g>
<path d="M67.7488 72.0282C67.7488 72.0282 68.6175 69.4358 66.515 68.9057C64.6139 68.4266 63.9805 71.1734 63.9805 71.1734L67.7488 72.0282Z" fill="#58AF94"/>
<path d="M15.0234 68.3905L16.3892 94.9053H61.5233L58.6878 64.4238L15.0234 68.3905Z" fill="#144986"/>
<g opacity="0.5">
<path d="M58.6878 64.4238L15.0234 68.3905L15.8326 84.0956C23.9646 81.2117 51.6343 71.421 59.0933 68.7816L58.6878 64.4238Z" fill="#144986"/>
</g>
<path d="M58.962 73.5707L16.1152 76.5039L16.141 76.881L58.9878 73.9478L58.962 73.5707Z" fill="#6CBDD3"/>
<path d="M59.9741 82.9834L16.1035 85.3867L16.1242 85.7641L59.9948 83.3607L59.9741 82.9834Z" fill="#6CBDD3"/>
<path d="M27.3536 68.8515L26.9766 68.877L27.4502 75.8991L27.8273 75.8737L27.3536 68.8515Z" fill="#6CBDD3"/>
<path d="M42.6507 67.6029L42.2734 67.6309L42.8096 74.8662L43.1869 74.8382L42.6507 67.6029Z" fill="#6CBDD3"/>
<path d="M36.4867 75.5274L36.1094 75.5547L36.7474 84.3814L37.1248 84.3541L36.4867 75.5274Z" fill="#6CBDD3"/>
<path d="M54.6467 74.3778L54.2695 74.4023L54.842 83.1909L55.2191 83.1663L54.6467 74.3778Z" fill="#6CBDD3"/>
<path d="M18.1559 76.542L17.7793 76.5742L18.5388 85.4456L18.9153 85.4133L18.1559 76.542Z" fill="#6CBDD3"/>
<path d="M28.4708 84.8985L28.0938 84.918L28.6139 94.9858L28.991 94.9664L28.4708 84.8985Z" fill="#6CBDD3"/>
<path d="M46.1701 83.9142L45.793 83.9316L46.3034 94.9668L46.6805 94.9494L46.1701 83.9142Z" fill="#6CBDD3"/>
<path d="M12.6094 59.2062L13.8066 69.9705L59.9883 66.1773L58.9248 54.2441L12.6094 59.2062Z" fill="#144986"/>
<path d="M82.7898 94.9682C82.7898 94.9682 83.1201 89.5194 79.047 86.5473C74.974 83.5752 70.6811 85.9968 70.6811 85.9968C70.6811 85.9968 69.4765 80.7686 64.7182 79.5332C59.8134 78.2596 55.3148 81.3087 55.3148 81.3087C55.3148 81.3087 52.5732 78.5113 48.8305 78.8416C45.0877 79.1718 44.4822 82.8045 44.4822 82.8045C44.4822 82.8045 43.2289 80.8675 41.1846 81.3789C39.1403 81.8899 39.0022 84.4184 39.0022 84.4184C39.0022 84.4184 25.314 78.8144 20 94.9682H82.7898Z" fill="#EFEBDC"/>
<g opacity="0.34">
<path d="M44.0332 92.9577C44.0332 92.9577 47.977 87.3537 55.5874 89.9134C55.5874 89.9134 59.3234 83.4789 69.148 87.5611C69.148 87.5611 60.8415 80.1665 54.8574 87.6365C54.8574 87.6365 45.6938 85.4857 44.0332 92.9577Z" fill="#CBCBCB"/>
</g>
<path d="M54 16C54 9.37258 59.3726 4 66 4C72.6274 4 78 9.37258 78 16C78 22.6274 72.6274 28 66 28C59.3726 28 54 22.6274 54 16Z" fill="#A81100"/>
<g clip-path="url(#clip1_3536_230648)">
<path d="M66.0007 12.6673V16.6673M66.0007 19.3407L66.0073 19.3333M66.0007 22.6673C69.6827 22.6673 72.6673 19.6827 72.6673 16.0007C72.6673 12.3187 69.6827 9.33398 66.0007 9.33398C62.3187 9.33398 59.334 12.3187 59.334 16.0007C59.334 19.6827 62.3187 22.6673 66.0007 22.6673Z" stroke="white" stroke-width="1.5" stroke-linecap="round" stroke-linejoin="round"/>
</g>
<path d="M13.2706 22.6821C13.204 22.7104 13.1306 22.7184 13.0595 22.705C12.9884 22.6916 12.9229 22.6574 12.8712 22.6067C12.8196 22.5561 12.7841 22.4913 12.7693 22.4204C12.7545 22.3496 12.761 22.276 12.788 22.2089L16.3593 13.3427C16.3955 13.2527 16.466 13.1808 16.5553 13.1428C16.6445 13.1048 16.7452 13.1038 16.8352 13.1401C16.9252 13.1763 16.9971 13.2468 17.0351 13.3361C17.0731 13.4254 17.0741 13.5261 17.0379 13.616L13.4666 22.4822C13.4487 22.5268 13.4222 22.5674 13.3886 22.6017C13.3549 22.636 13.3148 22.6633 13.2706 22.6821Z" fill="#D3D3D3"/>
<path d="M19.4893 20.0346C19.4451 20.0535 19.3976 20.0634 19.3496 20.0639C19.3016 20.0644 19.2539 20.0554 19.2094 20.0374L10.3432 16.4662C10.2532 16.4299 10.1813 16.3594 10.1433 16.2701C10.1053 16.1809 10.1043 16.0802 10.1405 15.9902C10.1768 15.9002 10.2473 15.8283 10.3366 15.7903C10.4258 15.7523 10.5265 15.7513 10.6165 15.7876L19.4827 19.3588C19.5498 19.3858 19.6074 19.4321 19.6482 19.4919C19.689 19.5516 19.7111 19.6222 19.7118 19.6945C19.7125 19.7668 19.6918 19.8378 19.6521 19.8983C19.6125 19.9588 19.5559 20.0063 19.4893 20.0346Z" fill="#D3D3D3"/>
<g clip-path="url(#clip2_3536_230648)">
<path d="M39.2556 12.2806C39.2049 12.2729 39.1577 12.2503 39.12 12.2157C39.0822 12.1812 39.0555 12.1362 39.0433 12.0864C39.0311 12.0367 39.0339 11.9844 39.0514 11.9363C39.0689 11.8882 39.1002 11.8463 39.1415 11.816L44.5958 7.81116C44.6511 7.77052 44.7203 7.75353 44.7882 7.76393C44.8561 7.77433 44.9171 7.81127 44.9577 7.86663C44.9984 7.92199 45.0154 7.99123 45.005 8.05911C44.9946 8.127 44.9576 8.18797 44.9023 8.22861L39.448 12.2334C39.4206 12.2536 39.3895 12.2681 39.3565 12.2762C39.3235 12.2843 39.2892 12.2858 39.2556 12.2806Z" fill="#D3D3D3"/>
<path d="M43.9851 13.0053C43.9515 13.0002 43.9192 12.9885 43.8901 12.9709C43.861 12.9533 43.8357 12.9301 43.8156 12.9027L39.8107 7.44844C39.7701 7.39308 39.7531 7.32385 39.7635 7.25596C39.7739 7.18808 39.8109 7.1271 39.8662 7.08646C39.9216 7.04581 39.9908 7.02882 40.0587 7.03922C40.1266 7.04962 40.1876 7.08657 40.2282 7.14192L44.233 12.5962C44.2633 12.6374 44.2807 12.6868 44.283 12.7379C44.2853 12.7891 44.2723 12.8398 44.2458 12.8836C44.2192 12.9274 44.1803 12.9623 44.1339 12.984C44.0875 13.0057 44.0357 13.0131 43.9851 13.0053Z" fill="#D3D3D3"/>
</g>
<g clip-path="url(#clip3_3536_230648)">
<path d="M28.1805 31.7056C28.145 31.7002 28.1118 31.6844 28.0853 31.6601C28.0588 31.6358 28.0401 31.6043 28.0315 31.5694C28.0229 31.5344 28.0249 31.4978 28.0372 31.464C28.0495 31.4302 28.0715 31.4008 28.1005 31.3796L31.9279 28.5692C31.9668 28.5407 32.0154 28.5288 32.063 28.5361C32.1106 28.5434 32.1534 28.5693 32.1819 28.6082C32.2105 28.647 32.2224 28.6956 32.2151 28.7432C32.2078 28.7909 32.1819 28.8336 32.143 28.8622L28.3155 31.6725C28.2963 31.6867 28.2745 31.6969 28.2513 31.7026C28.2281 31.7082 28.2041 31.7093 28.1805 31.7056Z" fill="#D3D3D3"/>
<path d="M31.4994 32.2142C31.4758 32.2106 31.4531 32.2024 31.4327 32.19C31.4123 32.1777 31.3945 32.1614 31.3804 32.1422L28.5701 28.3147C28.5416 28.2758 28.5296 28.2273 28.5369 28.1796C28.5442 28.132 28.5702 28.0892 28.609 28.0607C28.6478 28.0321 28.6964 28.0202 28.7441 28.0275C28.7917 28.0348 28.8345 28.0607 28.863 28.0996L31.6734 31.9271C31.6946 31.956 31.7069 31.9906 31.7084 32.0266C31.71 32.0625 31.7009 32.098 31.6823 32.1288C31.6637 32.1595 31.6364 32.184 31.6038 32.1992C31.5712 32.2144 31.5349 32.2196 31.4994 32.2142Z" fill="#D3D3D3"/>
</g>
<g clip-path="url(#clip4_3536_230648)">
<path d="M59.3375 44.0611C59.2707 44.0335 59.2135 43.9866 59.1733 43.9265C59.1331 43.8664 59.1116 43.7957 59.1116 43.7233C59.1115 43.651 59.133 43.5802 59.1731 43.5201C59.2133 43.4599 59.2704 43.413 59.3373 43.3853L68.1667 39.724C68.2563 39.6869 68.357 39.6868 68.4466 39.7239C68.5363 39.761 68.6075 39.8322 68.6447 39.9218C68.6818 40.0114 68.6819 40.1121 68.6448 40.2018C68.6077 40.2914 68.5365 40.3627 68.4469 40.3998L59.6175 44.0611C59.5731 44.0795 59.5256 44.089 59.4775 44.089C59.4295 44.089 59.3819 44.0796 59.3375 44.0611Z" fill="#D3D3D3"/>
<path d="M65.5829 46.6452C65.5384 46.6269 65.4981 46.6 65.4641 46.566C65.4301 46.5321 65.4032 46.4918 65.3848 46.4474L61.7235 37.618C61.6864 37.5283 61.6863 37.4276 61.7234 37.338C61.7605 37.2484 61.8317 37.1771 61.9213 37.14C62.0109 37.1028 62.1116 37.1028 62.2013 37.1398C62.2909 37.1769 62.3622 37.2481 62.3993 37.3377L66.0606 46.1671C66.0883 46.234 66.0956 46.3075 66.0815 46.3785C66.0674 46.4494 66.0326 46.5146 65.9815 46.5658C65.9303 46.617 65.8651 46.6518 65.7942 46.666C65.7232 46.6801 65.6497 46.6729 65.5829 46.6452Z" fill="#D3D3D3"/>
</g>
</g>
<defs>
<clipPath id="clip0_3536_230648">
<rect width="85" height="95" fill="white"/>
</clipPath>
<clipPath id="clip1_3536_230648">
<rect width="16" height="16" fill="white" transform="translate(58 8)"/>
</clipPath>
<clipPath id="clip2_3536_230648">
<rect width="5.30255" height="5.30255" fill="white" transform="translate(39.8027 7) rotate(8.71168)"/>
</clipPath>
<clipPath id="clip3_3536_230648">
<rect width="3.72103" height="3.72103" fill="white" transform="translate(28.5645 28) rotate(8.71168)"/>
</clipPath>
<clipPath id="clip4_3536_230648">
<rect width="7.49029" height="7.49029" fill="white" transform="translate(61.8633 37) rotate(22.4779)"/>
</clipPath>
</defs>
</svg>
