<svg width="83" height="87" viewBox="0 0 83 87" fill="none" xmlns="http://www.w3.org/2000/svg">
<path d="M57 14C57 7.37258 62.3726 2 69 2C75.6274 2 81 7.37258 81 14C81 20.6274 75.6274 26 69 26C62.3726 26 57 20.6274 57 14Z" fill="#979995"/>
<g clip-path="url(#clip0_3536_230762)">
<path d="M69.0007 10.6673V14.6673M69.0007 17.3407L69.0073 17.3333M69.0007 20.6673C72.6827 20.6673 75.6673 17.6827 75.6673 14.0007C75.6673 10.3187 72.6827 7.33398 69.0007 7.33398C65.3187 7.33398 62.334 10.3187 62.334 14.0007C62.334 17.6827 65.3187 20.6673 69.0007 20.6673Z" stroke="white" stroke-width="1.5" stroke-linecap="round" stroke-linejoin="round"/>
</g>
<g clip-path="url(#clip1_3536_230762)">
<path d="M44.7053 47.1989C44.7053 47.1989 49.3799 42.948 55.5425 40.495C55.5425 40.495 57.883 43.2679 57.8665 43.4158C57.85 43.5637 54.9862 50.9157 51.2214 56.0245L44.7053 47.1989Z" fill="#E85222"/>
<g opacity="0.5">
<path d="M48.1876 51.9155L51.2208 56.0239C54.9856 50.9152 57.8495 43.5635 57.866 43.4152C57.8728 43.3552 57.4909 42.8628 57.0358 42.2998C54.3104 46.6519 50.4079 50.133 48.1876 51.9155Z" fill="#D14039"/>
</g>
<path d="M55.2605 40.7524C55.2605 40.7524 55.8533 38.7522 56.0693 38.1663C56.4229 37.2077 57.2873 36.4974 57.9523 36.6773C58.9335 36.9422 58.3464 38.1237 58.3464 38.1237C58.3464 38.1237 61.5635 36.1128 62.6626 38.6614C63.6871 41.0379 60.1106 43.3989 57.3215 43.2512L55.2605 40.7524Z" fill="black"/>
<path d="M53.3765 41.1417C53.2766 41.5746 57.1958 45.3526 57.3177 45.3358C57.4392 45.319 58.2239 43.5299 58.24 43.388C58.2557 43.2461 55.5266 40.2861 55.437 40.2809C55.3474 40.2756 53.4267 40.9219 53.3765 41.1417Z" fill="white"/>
<path d="M24.2974 49.8555C24.2974 49.8555 16.9504 49.0231 13.4848 49.2856C13.4848 49.2856 13.2422 53.102 13.2422 53.2384C13.2422 53.2384 17.2951 58.4776 21.5429 60.3936L24.2974 49.8555Z" fill="#E85222"/>
<g opacity="0.5">
<path d="M21.5429 60.3935L22.6245 56.2551C18.4503 55.3501 14.9451 53.488 13.284 52.498C13.2592 52.9075 13.2422 53.2021 13.2422 53.2382C13.2422 53.2382 17.2951 58.4774 21.5429 60.3935Z" fill="#D14039"/>
</g>
<path d="M13.4846 49.2843C13.4846 49.2843 12.3575 46.9314 11.057 47.0918C9.98939 47.2235 10.9235 48.6706 10.9235 48.6706C10.9235 48.6706 6.77888 47.863 7.00926 50.7318C7.29844 54.328 13.4846 53.1 13.4846 53.1V49.2843Z" fill="black"/>
<path d="M13.2422 48.9778C13.1124 49.0842 12.77 53.2365 12.8905 53.3893C13.0111 53.5421 13.9748 54.7274 14.2155 54.8135C14.4562 54.8995 15.5327 49.0044 15.4125 48.9705C15.2919 48.9366 13.4907 48.774 13.2422 48.9778Z" fill="white"/>
<path d="M21.0059 66.3286C21.1175 66.3286 21.9751 72.0013 23.323 76.8066C25.156 83.3416 30.5146 83.7588 30.5146 83.7588C30.5146 83.7588 38.0435 73.9174 38.5287 73.8135C39.7594 73.5495 52.6536 79.8658 52.6536 79.8658C52.6536 79.8658 56.7431 78.4755 55.4739 70.4109C54.8216 66.267 52.6983 61.002 52.6983 61.002L21.0059 66.3286Z" fill="#E85222"/>
<g opacity="0.5">
<path d="M21.0059 66.3286C21.0928 66.3286 21.8035 69.1982 22.9069 72.6879C25.186 72.949 30.674 73.9298 32.0666 81.87C34.7217 78.4 38.2307 73.8773 38.5291 73.8131C39.404 73.6253 49.4105 78.058 52.513 80.1436L53.3129 80.0656C53.3129 80.0656 48.3352 70.4342 54.4873 65.9615C53.9234 64.1541 52.6987 61.002 52.6987 61.002L21.0059 66.3286Z" fill="#DD492E"/>
</g>
<path d="M26.9341 82.2422C26.9341 82.2422 28.7039 83.2172 31.3131 82.788C31.3131 82.788 30.997 85.9999 30.6671 86.7897C30.5503 87.069 25.1225 87.0395 25.3259 86.8735C26.0828 86.2555 26.9071 85.884 27.5794 85.4085L26.9341 82.2422Z" fill="black"/>
<path d="M51.0195 79.0588C51.0195 79.0588 53.2508 78.8864 55.1186 77.1016C55.1186 77.1016 55.2891 80.1505 55.4274 80.2489C55.5657 80.3474 58.3968 80.328 58.4756 80.436C58.5544 80.5439 54.4782 83.1509 54.3121 82.8968C54.0104 82.4344 51.0195 79.0588 51.0195 79.0588Z" fill="black"/>
<path d="M24.1298 48.5125C24.1298 48.5125 19.733 60.8971 20.2515 66.1297C20.8786 72.4613 34.7069 72.757 37.7747 72.4255C45.4926 71.592 54.4596 68.317 54.3446 61.0594C54.2758 56.7106 46.0942 45.5449 46.0942 45.5449L24.1298 48.5125Z" fill="#E85222"/>
<g opacity="0.5">
<path d="M26.7934 67.287C23.8902 61.7018 29.4711 51.0105 31.4616 47.5215L24.1298 48.5121C24.1298 48.5121 19.733 60.8967 20.2515 66.129C20.8786 72.4605 34.7069 72.7562 37.7747 72.4248C42.7328 71.8892 47.5734 70.8033 50.3731 68.1726C47.306 69.7201 30.2905 74.0142 26.7934 67.287Z" fill="#EC5C56"/>
</g>
<path d="M37.9798 72.435L37.5742 72.4179C38.0127 62.4427 35.2371 49.0507 35.209 48.9169L35.6058 48.8359C35.6342 48.9705 38.4199 62.4099 37.9798 72.435Z" fill="#9E2B2B"/>
<path d="M20.5352 61.7961C20.3521 62.9264 20.236 63.9896 20.2168 64.9219C22.0643 65.2472 35.9451 68.8817 54.2415 60.0178C54.0355 59.0968 53.7072 57.9213 53.2897 56.7852C37.4253 64.919 23.0165 62.1957 20.5352 61.7961Z" fill="black"/>
<path d="M42.0883 64.4879L41.4552 61.4766L33.9219 62.6951L34.4089 65.9449L42.0883 64.4879ZM34.822 65.4472L34.4248 63.0149L41.0976 62.0063L41.4301 64.3151L34.822 65.4472Z" fill="#AF6228"/>
<path d="M42.4073 59.7617L32.5527 61.2129L33.1015 67.2881L43.1391 65.6893L42.4073 59.7617ZM34.5877 65.7141L34.199 62.8478L41.2184 61.7788L41.63 64.4842L34.5877 65.7141Z" fill="#F3B44A"/>
<path d="M33.103 67.2881L34.5333 67.0602C36.7025 66.4258 38.4494 65.6028 39.7925 64.8054L34.5888 65.714L34.2612 63.2988C33.6821 63.355 33.1688 63.3969 32.7539 63.4286L33.103 67.2881Z" fill="#F9DC63"/>
<path d="M42.6203 61.4746C42.1969 61.6689 41.738 61.8447 41.2539 62.0029L41.5068 63.6649C42.0571 63.2521 42.4698 62.8915 42.7612 62.6177L42.6203 61.4746Z" fill="#F9DC63"/>
<path d="M19.8144 41.7533C19.8144 41.7533 12.7282 34.371 18.7162 23.586C22.8623 16.1182 32.638 11.1788 45.6864 10.4434C45.6864 10.4434 43.5723 12.2708 43.4303 13.8945C43.2473 15.9877 46.6009 21.1926 47.8205 26.341C49.04 31.4894 46.5891 38.2045 46.5891 38.2045L19.8144 41.7533Z" fill="#E85222"/>
<g opacity="0.5">
<path d="M22.6267 35.7332C17.8701 30.8003 18.694 25.1243 20.1939 21.3418C19.6432 22.0623 19.1473 22.8101 18.7162 23.5871C12.7282 34.3721 19.8144 41.7545 19.8144 41.7545L23.1999 41.3056L22.6267 35.7332Z" fill="#EC5C56"/>
</g>
<g opacity="0.5">
<path d="M43.4281 13.8945C43.5701 12.2708 45.6841 10.4434 45.6841 10.4434C45.2482 10.4678 44.8162 10.4981 44.3877 10.532C42.934 11.1299 41.1324 12.1195 40.4805 13.5225C40.4805 13.5225 41.9655 12.4892 42.6149 12.4462C42.6149 12.4462 40.898 13.3504 40.4805 15.288C40.4805 15.288 41.48 13.7956 42.477 13.5776C42.3475 13.6352 41.5588 14.2263 41.5015 15.9771C41.419 18.4839 49.1199 27.3328 45.0947 33.7376L42.6881 38.7215L46.5868 38.2049C46.5868 38.2049 49.0378 31.4897 47.8182 26.3414C46.5986 21.193 43.245 15.9877 43.4281 13.8945Z" fill="#EC5C56"/>
</g>
<path d="M48.0724 13.6766C50.3571 13.6766 52.2092 11.9582 52.2092 9.83832C52.2092 7.71847 50.3571 6 48.0724 6C45.7877 6 43.9355 7.71847 43.9355 9.83832C43.9355 11.9582 45.7877 13.6766 48.0724 13.6766Z" fill="#EFEBDC"/>
<g opacity="0.34">
<path d="M48.4586 12.1321C46.174 12.1321 44.3217 10.4136 44.3217 8.29376C44.3217 8.26969 44.325 8.24672 44.3254 8.22266C44.0791 8.71416 43.9375 9.25999 43.9375 9.83791C43.9375 11.9578 45.7894 13.6762 48.0743 13.6762C50.333 13.6762 52.1661 11.9957 52.2071 9.90901C51.5496 11.2209 50.1204 12.1321 48.4586 12.1321Z" fill="#AFAFAF"/>
</g>
<path d="M20.6943 41.7533C20.6943 41.7533 18.3535 40.4312 18.3535 35.8498C18.3539 30.6824 21.7016 22.9489 34.2811 23.1079C46.861 23.2669 49.4665 35.079 47.4685 38.2041L20.6943 41.7533Z" fill="#F2F0E8"/>
<g opacity="0.34">
<path d="M45.2679 33.1597L21.8802 34.7345C19.9662 34.9576 19.0709 33.9119 18.6664 33.0846C18.4508 34.0454 18.3535 34.9839 18.3535 35.8495C18.3531 40.4309 20.6943 41.753 20.6943 41.753L47.4689 38.2042C48.3124 36.885 48.3305 34.018 47.1294 31.1328C46.773 32.9803 45.2679 33.1597 45.2679 33.1597Z" fill="#AFAFAF"/>
</g>
<path d="M20.5798 41.1711C20.5798 41.1711 19.9009 38.711 21.5505 34.3381C22.7494 31.1601 26.6884 26.8165 33.5391 26.7104C40.3898 26.6046 46.498 32.5902 47.1263 37.7546L20.5798 41.1711Z" fill="#F7AB86"/>
<path d="M33.5391 26.7104C26.6884 26.8165 22.7494 31.1598 21.5505 34.3378C19.9009 38.7106 20.5798 41.1711 20.5798 41.1711L22.468 40.9279C21.7883 39.2233 21.1415 36.6735 22.012 34.3396C22.012 34.3396 25.1238 26.7089 33.7835 27.0385C41 27.3131 44.4327 32.7444 44.6394 33.1601C45.1242 34.1351 45.4145 35.9971 45.5883 37.9522L47.1259 37.7542C46.4984 32.5902 40.3898 26.6046 33.5391 26.7104Z" fill="#E88A74"/>
<path d="M25.3371 32.7549C25.2606 32.7549 25.1826 32.7425 25.1067 32.7163C24.7647 32.5981 24.5901 32.2452 24.7174 31.9276C25.0143 31.1863 26.1414 29.8752 28.2862 30.2183C28.646 30.2759 28.8875 30.5931 28.8254 30.9267C28.7632 31.2603 28.4197 31.4849 28.0614 31.427C26.4557 31.1703 25.9758 32.3064 25.9565 32.3553C25.8578 32.6021 25.6052 32.7549 25.3371 32.7549Z" fill="#EFEBDC"/>
<path d="M39.5893 31.5972C39.4074 31.5972 39.2262 31.5283 39.0956 31.3923C37.9134 30.1632 36.2028 30.8341 36.1299 30.8636C35.7971 30.9974 35.407 30.8589 35.2598 30.5497C35.113 30.2409 35.2609 29.881 35.5934 29.7428C36.5034 29.3643 38.6153 29.0511 40.0819 30.5752C40.3248 30.8279 40.3011 31.2159 40.029 31.4412C39.9029 31.5458 39.7457 31.5972 39.5893 31.5972Z" fill="#EFEBDC"/>
<path d="M28.8296 33.9163C28.9313 34.6285 28.6317 35.2454 28.16 35.2948C27.6883 35.3442 27.2236 34.8067 27.1214 34.0946C27.0197 33.3824 27.3193 32.7654 27.791 32.716C28.2631 32.6666 28.7278 33.2041 28.8296 33.9163Z" fill="#231F20"/>
<path d="M38.4429 33.055C38.5446 33.7672 38.2449 34.3841 37.7733 34.4335C37.3016 34.4829 36.8369 33.9454 36.7347 33.2332C36.6329 32.5211 36.9326 31.9041 37.4043 31.8547C37.8764 31.8053 38.3411 32.3428 38.4429 33.055Z" fill="#231F20"/>
<path d="M33.4054 36.1757C33.4054 36.1757 47.2189 33.7025 49.7249 41.1721C52.6296 49.8303 45.9542 59.7595 31.2103 62.3771C31.2103 62.3771 32.5175 61.0816 31.5372 60.1285C30.267 58.8939 19.2058 54.7635 18.8042 46.6431C18.3531 37.5332 29.5828 36.4164 33.4054 36.1757Z" fill="#EFEBDC"/>
<g opacity="0.34">
<path d="M49.4024 49.1928C47.7913 52.4915 42.7703 55.9692 42.7703 55.9692C43.4174 54.9924 44.1718 52.9137 44.1718 52.9137C42.9437 54.9031 39.2218 58.0391 39.2218 58.0391C39.8164 57.4747 40.2527 55.7526 40.2527 55.7526C38.1364 59.2442 33.7692 60.3206 33.7692 60.3206C32.4054 55.5787 24.4853 52.7234 24.4853 52.7234C26.0221 53.0946 28.1909 52.8098 28.1909 52.8098C25.2792 52.4076 22.9643 50.7435 22.9643 50.7435C24.2649 51.6718 27.0102 51.301 27.0102 51.301C23.2372 50.6035 20.3825 49.0802 20.4416 44.4298C20.466 42.5203 20.9948 41.0075 21.6005 39.8867C19.8296 41.4137 18.6522 43.573 18.8042 46.6431C19.2058 54.7638 30.2673 58.8938 31.5372 60.1284C32.5178 61.0815 31.2103 62.377 31.2103 62.377C42.707 60.3359 49.2967 53.849 50.2648 46.9858C50.0411 47.7227 49.7574 48.4661 49.4024 49.1928Z" fill="#AFAFAF"/>
</g>
<path d="M43.9823 36.8655C43.0946 35.8106 42.2805 35.6542 43.1167 36.7428C43.9625 37.8439 43.1556 39.2167 42.1667 39.4132C41.1778 39.6096 39.5077 38.4205 37.98 37.6304C36.4522 36.8402 35.2492 37.3115 35.2492 37.3115C34.7657 35.9263 34.0445 35.9746 34.0445 35.9746L31.7114 36.4293L29.3427 36.6381C29.3427 36.6381 28.6367 36.7912 28.5666 38.2544C28.5666 38.2544 27.2778 38.1345 26.0362 39.3158C24.7945 40.4967 23.5298 42.1003 22.5246 42.1849C21.5196 42.2698 20.3545 41.1749 20.8532 39.8844C21.3461 38.6083 20.6096 38.9835 20.0573 40.2416C19.5053 41.4997 19.3621 44.4078 23.8107 45.2048C28.2594 46.0022 30.2366 42.7972 30.2366 42.7972C30.2366 42.7972 30.9158 42.7582 31.5664 41.6596C32.217 40.5609 32.1335 39.3375 32.1335 39.3375C32.1335 39.3375 32.4014 40.5345 33.3384 41.4095C34.2754 42.2842 34.9385 42.1337 34.9385 42.1337C34.9385 42.1337 37.748 44.6632 41.7913 42.6675C45.8346 40.6722 44.8699 37.9205 43.9823 36.8655Z" fill="#E0D9C2"/>
<path d="M43.7421 36.64C42.8865 35.639 42.1001 35.4922 42.9056 36.5254C43.7207 37.5705 42.9376 38.8782 41.9812 39.067C41.025 39.2563 39.4134 38.1288 37.9386 37.381C36.4641 36.6328 35.3 37.0841 35.3 37.0841C34.8355 35.7678 34.1384 35.8152 34.1384 35.8152L31.8824 36.2529L29.5925 36.4567C29.5925 36.4567 28.9099 36.604 28.8385 37.9959C28.8385 37.9959 27.5928 37.885 26.3902 39.0106C25.1874 40.1367 23.9612 41.6642 22.9895 41.747C22.0178 41.8298 20.8941 40.7916 21.3792 39.563C21.8585 38.3485 21.1458 38.7069 20.6089 39.9044C20.072 41.1019 19.9274 43.8678 24.2254 44.6162C28.5234 45.3642 30.442 42.3121 30.442 42.3121C30.442 42.3121 31.0983 42.2738 31.7298 41.2273C32.3613 40.1807 32.2834 39.0179 32.2834 39.0179C32.2834 39.0179 32.5394 40.156 33.4432 40.9855C34.347 41.8153 34.9879 41.6706 34.9879 41.6706C34.9879 41.6706 37.6977 44.0699 41.6104 42.163C45.523 40.256 44.5978 37.6411 43.7421 36.64Z" fill="#F2F0E8"/>
<path d="M35.1902 36.6458C35.0419 35.4256 33.5621 34.5971 31.8847 34.7954C30.2072 34.9936 28.9679 36.1435 29.1162 37.3636C29.2017 38.0669 29.7375 38.6317 30.4908 38.9534C30.6975 39.6133 31.5475 40.0424 32.5087 39.9288C33.4704 39.8151 34.193 39.2001 34.2357 38.5108C34.8905 38.0226 35.2757 37.3491 35.1902 36.6458Z" fill="#F94D0B"/>
<path d="M26.5978 36.1528C25.5843 36.27 24.7589 36.7491 24.7543 37.2233C24.7496 37.6975 25.5675 37.9871 26.5814 37.8697C27.5951 37.7529 28.4203 37.2734 28.425 36.7992C28.4296 36.325 27.6119 36.0358 26.5978 36.1528Z" fill="#E37956"/>
<path d="M40.5009 35.6432C40.4942 35.2632 39.9074 34.9675 39.1903 34.9824C38.4731 34.9975 37.897 35.3175 37.9037 35.6975C37.9104 36.0775 38.4972 36.3732 39.2143 36.3583C39.9318 36.3432 40.5076 36.0232 40.5009 35.6432Z" fill="#E37956"/>
</g>
<defs>
<clipPath id="clip0_3536_230762">
<rect width="16" height="16" fill="white" transform="translate(61 6)"/>
</clipPath>
<clipPath id="clip1_3536_230762">
<rect width="57" height="81" fill="white" transform="translate(7 6)"/>
</clipPath>
</defs>
</svg>
