<svg width="35" height="45" viewBox="0 0 35 45" fill="none" xmlns="http://www.w3.org/2000/svg">
<path d="M4.44574 33.2279C5.34799 33.2728 5.96566 32.1419 7.12987 31.7569C7.51147 31.6286 15.8808 33.3273 16.3077 33.2664C16.7346 33.2022 24.2922 32.7627 24.6738 32.6344C25.0554 32.5093 25.5709 33.098 27.8572 32.6555C28.4102 32.5497 29.8254 33.6161 30.2232 33.4076C32.4222 39.5032 35.876 40.6453 34.7959 41.9607C33.2404 43.8503 30.802 42.0858 30.5174 42.2109C30.0615 42.413 29.5926 43.9273 27.7848 44.354C25.2462 44.9539 23.3705 42.4643 22.8628 42.5574C22.6526 42.5959 22.4521 42.8654 22.174 43.2022C21.7115 43.7572 21.0356 44.4919 19.7518 44.6684C17.252 45.0117 15.5089 42.5253 15.1403 42.4996C14.943 42.4868 14.2833 43.3979 13.1223 44.1102C12.4238 44.5401 11.5441 44.8994 10.4737 44.9475C7.61495 45.0758 6.3214 42.1788 6.00448 42.3681C4.40046 43.3209 0.826994 43.2824 0.0443901 41.3318C-0.304871 40.4624 1.49318 39.378 2.41485 37.6649C3.53378 35.5891 4.44574 33.2311 4.44574 33.2311V33.2279Z" fill="#7C9A1C"/>
<path d="M31.9775 31.4365C31.9775 31.7734 31.4665 32.7583 30.2247 33.4064C29.8269 33.6149 29.3548 33.7882 28.8018 33.894C26.5154 34.3368 25.0569 32.5081 24.6753 32.6332C24.2937 32.7615 23.7213 34.8405 20.9919 35.1549C18.2625 35.4725 16.7361 33.2011 16.3092 33.2652C15.8823 33.3262 14.2589 35.0907 11.785 35.1549C9.3078 35.2158 7.9722 32.6332 7.5906 32.7615C6.42639 33.1465 5.3495 33.2716 4.44725 33.2267C3.01463 33.1626 2.03152 32.6717 1.87629 32.1295C1.62404 31.2473 3.52881 29.1683 4.54426 27.5321C5.53707 25.928 6.89208 22.8257 6.95352 22.6942C8.73216 23.2877 10.354 20.5925 10.7614 20.5925C11.4891 20.5925 17.1626 20.6929 17.6736 20.6929C18.1813 20.6929 23.4972 20.4375 23.4972 20.4375C23.4972 20.4375 24.6236 22.9636 25.9365 22.5177C27.6473 25.9441 31.9775 30.997 31.9775 31.4365Z" fill="#99B43D"/>
<path d="M25.9354 22.5177C24.6225 22.9636 23.468 21.4654 23.468 21.4654C23.468 21.4654 22.3232 23.3743 20.8647 23.3743C19.4029 23.3743 18.0706 21.7349 17.5629 21.7349C17.0519 21.7349 16.5442 22.9315 14.7655 23.0566C12.9901 23.185 11.9391 21.4654 11.2115 21.4654C10.804 21.4654 8.73107 23.2876 6.95243 22.6941C6.51908 22.5465 6.10191 22.261 5.73325 21.7669C4.47849 20.0987 8.32683 15.2158 10.0667 13.0181C12.1008 10.4516 15.228 5.95686 16.3081 5.93761C17.4982 5.91836 19.5291 8.44643 21.5632 11.4718C23.869 14.9046 27.989 20.4291 26.9735 21.7188C26.6275 22.1551 26.275 22.4022 25.9354 22.5177Z" fill="#B8CC61"/>
<path d="M3.48872 35.5979C3.72577 36.5219 4.18984 37.4102 4.87931 38.073C5.22534 38.4015 5.62601 38.6717 6.0668 38.8568C6.17707 38.9014 6.29317 38.9328 6.40571 38.9716L6.57613 39.0265L6.75238 39.0592L7.10229 39.124C7.22291 39.1324 7.34871 39.1513 7.46448 39.1494C8.41299 39.1898 9.38154 38.816 10.0044 38.1025C10.1593 37.9258 10.2925 37.7297 10.3915 37.5199C10.4888 37.3143 10.5587 37.0769 10.5212 36.8786C10.4982 36.7814 10.4458 36.7211 10.3608 36.7031C10.3446 36.7009 10.2996 36.7012 10.3061 36.6967L10.2162 36.7147C10.1861 36.7368 10.1506 36.7509 10.1085 36.792C9.9478 36.9341 9.83978 37.1564 9.74859 37.3698C9.40967 38.2524 9.33562 39.2556 9.55294 40.1779C9.67163 40.6351 9.87018 41.0798 10.1923 41.4246C10.5047 41.7785 10.9338 42.0146 11.3924 42.1359C11.8503 42.252 12.3477 42.2729 12.8108 42.1981C13.2758 42.1211 13.7127 41.9091 14.0552 41.5953C14.4041 41.2864 14.6554 40.8812 14.8349 40.45C15.0163 40.0178 15.1198 39.5536 15.1731 39.0855C15.2259 38.6171 15.2191 38.1398 15.1369 37.6797C15.0929 37.4516 15.035 37.2248 14.9396 37.0233C14.8475 36.8253 14.6997 36.645 14.5451 36.6354C14.5063 36.6345 14.4662 36.6351 14.4238 36.6553L14.3921 36.6646C14.4031 36.655 14.3724 36.6752 14.3647 36.6791L14.2854 36.7249C14.2088 36.7824 14.138 36.8468 14.083 36.9405C13.9717 37.1173 13.9252 37.3419 13.9268 37.5674C13.9284 38.0227 14.0843 38.4811 14.3081 38.8911C14.7592 39.7137 15.5327 40.3733 16.4441 40.6258C16.8975 40.7541 17.3787 40.7843 17.8492 40.723C18.323 40.6678 18.7757 40.5106 19.1589 40.2376C19.9299 39.6909 20.295 38.6807 20.1782 37.7522C20.1475 37.5212 20.0887 37.2883 19.9674 37.0977C19.8561 36.9001 19.6563 36.7731 19.4652 36.826C19.2394 36.8722 19.1389 37.0486 19.1757 37.2613C19.2097 37.4705 19.3248 37.6781 19.4678 37.8558C20.0492 38.5754 21.0695 38.9399 21.9482 38.5591C22.8178 38.2517 23.4283 37.3823 23.634 36.4875L23.635 36.4834C23.6498 36.4182 23.7152 36.3778 23.7805 36.3926C23.84 36.406 23.8791 36.4606 23.8749 36.519C23.8416 36.9745 23.8413 37.4423 23.8904 37.8966C23.9157 38.124 23.9558 38.3493 24.0234 38.562C24.0926 38.7705 24.1912 38.9784 24.3516 39.0929C24.4305 39.1481 24.5227 39.1808 24.6213 39.1754C24.6798 39.1757 24.7435 39.1805 24.7836 39.1632C24.8292 39.1507 24.8752 39.1478 24.9233 39.1205C25.1171 39.0409 25.2855 38.8892 25.4288 38.7179C25.7105 38.3679 25.9178 37.9437 26.0701 37.5177C26.0888 37.4651 26.1471 37.4375 26.2004 37.4561C26.2441 37.4715 26.2706 37.5138 26.2683 37.5575C26.2328 38.2261 26.3463 38.9595 26.7563 39.4821C26.9614 39.7387 27.2472 39.9222 27.5706 39.9906C27.6502 40.0098 27.7349 40.0124 27.8164 40.0246C27.8549 40.0281 27.9047 40.0377 27.9338 40.0368L28.0664 40.0336C28.2248 40.0182 28.3827 39.9906 28.5376 39.9267C28.8461 39.8099 29.1239 39.6101 29.3703 39.3817C29.6135 39.1481 29.8292 38.8815 30.0015 38.5895C30.1784 38.3008 30.3201 37.9893 30.4006 37.6662C30.4769 37.3489 30.5002 36.997 30.3485 36.7439C30.2111 36.4878 29.8512 36.4076 29.5488 36.4445C29.3991 36.4667 29.2678 36.5337 29.183 36.6489C29.099 36.7647 29.0579 36.9184 29.0505 37.0772C29.0382 37.3977 29.1349 37.732 29.2839 38.0332C29.4311 38.3374 29.6355 38.6162 29.8751 38.8574C30.116 39.0984 30.3951 39.3021 30.7036 39.4484C30.8546 39.5251 31.0215 39.5806 31.1787 39.6293C31.3504 39.673 31.5221 39.7179 31.6896 39.7426C32.0289 39.7978 32.3791 39.8112 32.719 39.7596C33.054 39.7038 33.3975 39.5879 33.6529 39.3788L33.6594 39.3733C33.685 39.3521 33.7231 39.356 33.7441 39.3813C33.7648 39.4064 33.7619 39.4433 33.7373 39.4644C33.4505 39.7127 33.1006 39.8343 32.7445 39.9062C32.3862 39.9704 32.0205 39.9665 31.6612 39.9181C31.4775 39.8953 31.3061 39.8552 31.1341 39.8164C30.9523 39.7654 30.7825 39.7086 30.617 39.6287C30.2848 39.4763 29.9838 39.262 29.7231 39.0082C29.4638 38.7538 29.2419 38.4596 29.0786 38.133C28.9146 37.8087 28.7998 37.449 28.8082 37.0663C28.8153 36.8767 28.86 36.6752 28.9816 36.5029C29.1035 36.3297 29.3101 36.2232 29.5081 36.1937C29.7183 36.1638 29.8942 36.1808 30.0934 36.236C30.2865 36.2921 30.4718 36.4256 30.5785 36.6043C30.7945 36.9694 30.7521 37.3762 30.6761 37.7307C30.5904 38.0907 30.4427 38.4275 30.2554 38.74C30.0678 39.0525 29.8353 39.3371 29.5692 39.5895C29.3011 39.8388 28.9884 40.0531 28.6313 40.1783C28.4574 40.2453 28.262 40.2774 28.0693 40.2886L27.9367 40.2883C27.8775 40.288 27.84 40.2774 27.7909 40.2723C27.698 40.2572 27.6039 40.2514 27.5131 40.2277C27.1431 40.143 26.8048 39.9168 26.5785 39.6191C26.3489 39.3207 26.2195 38.9684 26.1448 38.6159C26.0753 38.2601 26.0445 37.9049 26.0659 37.5389L26.2638 37.5786C26.1031 38.0323 25.8961 38.4641 25.5912 38.8484C25.4353 39.0355 25.2474 39.2123 25.0048 39.3143C24.89 39.3663 24.7241 39.3958 24.6197 39.3868C24.4822 39.3938 24.339 39.3457 24.2264 39.2662C23.9997 39.1003 23.8937 38.8574 23.8128 38.6293C23.7365 38.3964 23.6922 38.159 23.6634 37.9222C23.6075 37.4471 23.6029 36.9752 23.6327 36.4981L23.8736 36.5295C23.7611 37.03 23.5564 37.4917 23.2475 37.8982C22.9455 38.3091 22.5267 38.6293 22.0348 38.8196C21.911 38.8748 21.7975 38.8905 21.6781 38.928C21.5413 38.963 21.4181 38.9765 21.2855 38.9854C21.0239 39.0002 20.761 38.9611 20.5133 38.8841C20.0159 38.7281 19.5864 38.407 19.2773 37.9992C19.1256 37.7936 18.9969 37.5597 18.9626 37.2857C18.9477 37.1507 18.9662 36.9951 19.0554 36.8683C19.0975 36.8045 19.1586 36.7557 19.2213 36.7182C19.2886 36.6807 19.363 36.6569 19.417 36.646C19.5619 36.6117 19.7181 36.6364 19.84 36.7127C19.9638 36.7862 20.0502 36.895 20.1165 37.0066C20.25 37.2325 20.3176 37.4798 20.3526 37.7281C20.4861 38.7159 20.1094 39.7878 19.2821 40.4015C18.8743 40.7044 18.3773 40.8837 17.8812 40.9492C17.3825 41.0239 16.8667 40.9992 16.3778 40.8613C15.3947 40.5931 14.5658 39.8914 14.0794 39.0146C13.8382 38.5754 13.6645 38.0868 13.659 37.5668C13.6568 37.3091 13.7062 37.0381 13.8485 36.7978C13.9142 36.6794 14.0215 36.5697 14.1412 36.4846L14.2195 36.4372C14.2389 36.4269 14.2317 36.4262 14.2725 36.4086L14.3278 36.3887C14.3653 36.3768 14.4009 36.3611 14.4407 36.355L14.5648 36.3499C14.7288 36.364 14.8853 36.4474 14.9768 36.5546C15.0807 36.6572 15.1489 36.7747 15.21 36.8918C15.3261 37.1285 15.394 37.3752 15.4425 37.6229C15.534 38.1192 15.5437 38.6219 15.4913 39.1183C15.4441 39.6152 15.3177 40.1061 15.1133 40.5668C14.9138 41.0281 14.6176 41.4583 14.2214 41.7833C13.8307 42.1138 13.3444 42.3255 12.8402 42.3897C12.3367 42.4599 11.8364 42.4256 11.3487 42.297C10.864 42.1706 10.4009 41.9177 10.0645 41.5389C9.71787 41.1693 9.50701 40.6977 9.38186 40.2193C9.26415 39.7365 9.2289 39.2382 9.26415 38.7461C9.29778 38.254 9.39286 37.7647 9.5759 37.2998C9.67453 37.0708 9.77835 36.8372 9.9824 36.6502C10.028 36.604 10.0998 36.56 10.1793 36.5279L10.2692 36.5093C10.3365 36.5065 10.353 36.5116 10.3973 36.5151C10.56 36.5389 10.688 36.6957 10.7113 36.8359C10.7627 37.1199 10.6748 37.3723 10.5723 37.6024C10.4649 37.8327 10.3226 38.0435 10.1577 38.2341C9.49796 39.0063 8.45696 39.3948 7.45413 39.3409C7.3251 39.3406 7.20803 39.3213 7.08482 39.3117L6.71358 39.2405L6.52957 39.2042L6.35137 39.1455C6.23333 39.1041 6.11272 39.0695 5.99727 39.022C5.53644 38.8241 5.11926 38.5373 4.76224 38.192C4.04593 37.4955 3.59674 36.5767 3.37069 35.6226C3.36325 35.5902 3.3833 35.5581 3.41564 35.5504C3.44766 35.543 3.48 35.5623 3.48808 35.594L3.48872 35.5979Z" fill="white"/>
<path d="M5.03538 26.7802C5.06384 27.2528 5.30767 27.7375 5.74101 27.9384C5.95283 28.0413 6.19861 28.0744 6.43339 28.0769C6.67173 28.0712 6.89972 27.9919 7.11833 27.8857C7.55426 27.6705 7.93748 27.3477 8.26992 26.9894C8.59493 26.6294 8.89892 26.2184 9.02439 25.768C9.05318 25.657 9.06482 25.5425 9.03927 25.4469C9.01954 25.3551 8.9374 25.2787 8.86755 25.2556C8.7162 25.2027 8.53736 25.434 8.43129 25.6307C8.19975 26.049 8.07427 26.5328 7.99116 27.0128C7.84369 27.9749 7.88573 28.998 8.29029 29.8861C8.49079 30.3275 8.79349 30.7231 9.18835 31.0054C9.57998 31.2925 10.0421 31.4709 10.5327 31.5505C11.0045 31.6217 11.5148 31.5922 11.9475 31.3788C12.386 31.1774 12.7418 30.8184 12.9888 30.4023C13.2424 29.9878 13.4024 29.5178 13.4846 29.0397C13.5674 28.5649 13.5823 28.0625 13.4632 27.6162C13.407 27.3997 13.2763 27.186 13.1483 27.2085L13.136 27.2072C13.1146 27.2104 13.1586 27.2011 13.1496 27.2037L13.1382 27.2069L13.093 27.2194L13.0477 27.2319L13.027 27.2486C13.0031 27.2608 12.9626 27.2941 12.9242 27.3294C12.8491 27.4023 12.7828 27.4943 12.7233 27.5925C12.484 27.9906 12.3479 28.4683 12.2661 28.9412C12.191 29.4173 12.1694 29.9069 12.2386 30.3811C12.3039 30.854 12.462 31.3195 12.7528 31.6875C13.0415 32.059 13.473 32.2935 13.9396 32.3856C14.0567 32.4064 14.1763 32.4193 14.2953 32.4315C14.4159 32.4315 14.5363 32.4411 14.6575 32.434C14.7762 32.4231 14.9056 32.4196 15.0155 32.4032C15.1378 32.3804 15.2658 32.365 15.3832 32.3365C15.8424 32.2293 16.2919 32.0093 16.657 31.7003C17.0254 31.3914 17.3219 30.9993 17.5451 30.5688C17.9829 29.7003 18.1666 28.7042 18.1369 27.726C18.1178 27.2374 18.056 26.7443 17.8956 26.2861C17.8141 26.0606 17.7116 25.8344 17.5506 25.6724C17.4746 25.5854 17.3759 25.5373 17.2796 25.5139C17.1916 25.4985 17.0529 25.5287 16.9736 25.5704C16.7845 25.666 16.7149 25.8947 16.7169 26.1206C16.7172 26.3496 16.7786 26.5842 16.8618 26.8071C17.0315 27.255 17.3093 27.6624 17.6382 28.0086C17.9697 28.3506 18.3862 28.6227 18.8438 28.699C18.9534 28.7167 19.0825 28.7263 19.1782 28.717C19.2969 28.6955 19.4395 28.6987 19.5388 28.6567C19.6419 28.6169 19.7496 28.5964 19.8486 28.5287L20.0003 28.4436L20.1367 28.3333C20.4989 28.033 20.7554 27.6069 20.9391 27.1591C21.124 26.7109 21.2537 26.2297 21.3236 25.7523L21.5428 25.7933C21.4413 26.1934 21.3688 26.6102 21.3291 27.0243C21.2906 27.4388 21.2793 27.8578 21.3346 28.2656C21.3886 28.6695 21.5092 29.0782 21.7776 29.3689C22.0418 29.6644 22.4522 29.7821 22.8597 29.7513C23.6808 29.7244 24.442 29.2361 24.8708 28.5505C25.0856 28.211 25.2324 27.8174 25.2347 27.4363C25.2298 27.2499 25.1826 27.0648 25.0665 26.9518C24.9578 26.8328 24.7767 26.7892 24.5947 26.7959C24.4259 26.802 24.3078 26.8883 24.2674 27.0561C24.2224 27.22 24.2428 27.4212 24.292 27.6114C24.3929 27.9964 24.594 28.3634 24.8382 28.691C25.0856 29.0176 25.3841 29.3089 25.7265 29.5328C26.0664 29.7597 26.4551 29.9153 26.8584 29.9685C27.2552 30.0221 27.6902 29.9743 28.0582 29.8299C28.4333 29.6849 28.7253 29.3808 28.8314 28.9942C28.9456 28.6105 28.9165 28.186 28.835 27.7815C28.7506 27.3756 28.6118 26.9746 28.4343 26.5992L28.433 26.5967C28.4187 26.5665 28.4317 26.5309 28.4621 26.5168C28.4918 26.503 28.5271 26.5152 28.5416 26.5441C28.737 26.9284 28.888 27.3288 28.9882 27.7481C29.0836 28.1652 29.1318 28.6105 29.017 29.0461C28.91 29.4857 28.5588 29.8585 28.1397 30.0227C27.716 30.1924 27.2778 30.2418 26.8299 30.1921C26.3879 30.1395 25.9626 29.9743 25.5936 29.7353C25.2214 29.4985 24.8996 29.1918 24.6309 28.8466C24.3654 28.4991 24.1445 28.1132 24.0242 27.6801C23.9679 27.4635 23.9311 27.2306 23.9922 26.9826C24.0297 26.7273 24.3207 26.4947 24.5817 26.5049C24.8188 26.4902 25.093 26.5524 25.2783 26.7503C25.4659 26.9425 25.5189 27.2033 25.5238 27.4327C25.5202 27.9018 25.3352 28.3249 25.093 28.6929C24.6073 29.4295 23.7652 29.9502 22.8661 29.9611C22.4299 29.9842 21.9396 29.8488 21.6285 29.5046C21.3148 29.1645 21.1884 28.7183 21.1286 28.2932C21.0684 27.8626 21.0788 27.4305 21.1163 27.0041C21.1567 26.5768 21.2253 26.1571 21.3268 25.7366C21.341 25.6769 21.4015 25.6403 21.4617 25.6544C21.5179 25.6676 21.5538 25.7218 21.5464 25.7773C21.4775 26.2852 21.3511 26.7738 21.1616 27.2486C20.973 27.7192 20.7085 28.1806 20.3023 28.5264L20.1484 28.6528L19.9744 28.7542C19.8648 28.8302 19.7247 28.8668 19.5928 28.9133C19.4576 28.9631 19.3415 28.957 19.2147 28.9813C19.0611 28.9974 18.9379 28.9855 18.8002 28.9669C18.2591 28.8825 17.7986 28.5688 17.438 28.2001C17.0733 27.828 16.8035 27.3756 16.6325 26.8877C16.551 26.6422 16.4902 26.3853 16.4986 26.1158C16.5015 25.982 16.529 25.8431 16.5882 25.7131C16.647 25.5842 16.7528 25.4632 16.888 25.4032C17.0348 25.3407 17.1496 25.3156 17.3116 25.3362C17.4568 25.3699 17.5878 25.4478 17.6757 25.5505C17.8617 25.7507 17.972 25.9881 18.0612 26.2274C18.2345 26.7096 18.3018 27.2152 18.3264 27.7186C18.3616 28.724 18.2012 29.7504 17.7546 30.6724C17.3145 31.5932 16.4685 32.3532 15.432 32.5851C15.3059 32.6159 15.1843 32.6307 15.0601 32.6544C14.9224 32.6756 14.8001 32.6782 14.6692 32.6904C14.5401 32.6984 14.4095 32.6894 14.2795 32.6894C14.1495 32.6772 14.0188 32.6634 13.8895 32.6409C13.3737 32.5437 12.8714 32.2752 12.5419 31.854C12.2059 31.4408 12.0255 30.931 11.9462 30.4241C11.8612 29.9143 11.8783 29.3965 11.9563 28.8912C12.0423 28.3872 12.1736 27.8854 12.4484 27.4254C12.5206 27.3121 12.6027 27.2017 12.7091 27.1023C12.7647 27.0548 12.8184 27.0054 12.909 26.9643L12.9701 26.9355L13.0157 26.9239L13.0613 26.9124L13.0726 26.9095C13.071 26.9088 13.123 26.9011 13.1095 26.9047L13.1441 26.9053C13.3336 26.8982 13.5027 27.0291 13.5771 27.1536C13.6586 27.2803 13.71 27.4122 13.7388 27.5431C13.8542 28.0667 13.8099 28.5835 13.7055 29.0814C13.5962 29.5784 13.416 30.0625 13.1428 30.4956C12.8705 30.9255 12.4944 31.3102 12.0206 31.5312C11.5488 31.7622 11.0097 31.7966 10.4965 31.7192C9.99812 31.64 9.49719 31.452 9.08164 31.1469C8.65961 30.8466 8.33655 30.4244 8.12278 29.9611C7.69235 29.0269 7.64707 27.974 7.79292 26.9801C7.877 26.4821 7.99957 25.9858 8.24923 25.5277C8.31067 25.4132 8.39087 25.3047 8.48595 25.2037C8.54222 25.1575 8.59299 25.1071 8.67125 25.0766C8.73205 25.0372 8.88437 25.0381 8.91832 25.0599C9.08551 25.1148 9.19191 25.2454 9.23136 25.3962C9.26758 25.5441 9.24656 25.6849 9.21358 25.8132C9.06352 26.3256 8.74434 26.7353 8.40381 27.11C8.05519 27.4786 7.65775 27.8087 7.19239 28.0346C6.96181 28.145 6.70407 28.2319 6.43857 28.2361C6.17436 28.2322 5.91209 28.1915 5.6731 28.0702C5.18381 27.8273 4.93351 27.29 4.91411 26.7808C4.91281 26.7478 4.93901 26.7199 4.97232 26.7186C5.0053 26.7173 5.03311 26.7423 5.03505 26.7751L5.03538 26.7802Z" fill="white"/>
<path d="M7.03916 17.2698C6.92371 17.6808 6.84158 18.1049 6.79501 18.5287C6.74909 18.9519 6.73324 19.3827 6.81215 19.7943C6.88685 20.2008 7.08315 20.6012 7.44761 20.7799C7.62579 20.8707 7.83147 20.9053 8.03747 20.9069L8.11477 20.9085C8.12608 20.9095 8.16456 20.9037 8.18785 20.9018C8.24121 20.8951 8.2978 20.8922 8.34825 20.8822C8.44268 20.8563 8.53776 20.837 8.63251 20.7921C9.01411 20.6384 9.33233 20.3436 9.60753 20.0263C9.87983 19.7019 10.1062 19.3372 10.3041 18.9589C10.5004 18.5797 10.6692 18.1848 10.8057 17.7793C10.9396 17.3737 11.0541 16.9589 11.1119 16.5386C11.1401 16.3298 11.1608 16.1158 11.1362 15.9156C11.1236 15.8187 11.0958 15.7177 11.0489 15.6721C11.0259 15.6535 11.0049 15.6445 10.9693 15.6509C10.9528 15.6567 10.9292 15.6586 10.9179 15.6641L10.8448 15.7003C10.6889 15.7937 10.5522 15.9634 10.461 16.146C10.3652 16.3295 10.2996 16.5309 10.2572 16.7366C10.1702 17.1476 10.1596 17.5781 10.2349 17.9875C10.308 18.3904 10.4745 18.8011 10.7824 19.0125C11.0877 19.23 11.5081 19.1729 11.8373 18.966C12.1762 18.7562 12.4534 18.4289 12.6982 18.0892C13.1862 17.4004 13.5574 16.6121 13.8456 15.8139C13.8701 15.7459 13.9455 15.7106 14.0137 15.7347C14.0745 15.7562 14.1094 15.8174 14.0997 15.8784C14.0069 16.4584 13.9743 17.0651 14.0428 17.6477C14.0781 17.939 14.1457 18.2255 14.264 18.4847C14.3843 18.7411 14.5648 18.9657 14.8131 19.0863C15.067 19.2027 15.3464 19.2371 15.6384 19.1726C15.9046 19.1139 16.1636 18.9551 16.3751 18.7571C16.7991 18.3516 17.1053 17.82 17.3227 17.2663C17.539 16.71 17.6735 16.12 17.7256 15.5335C17.7453 15.2435 17.7505 14.939 17.6758 14.691C17.6363 14.5627 17.5603 14.5123 17.5222 14.5194C17.4908 14.5293 17.4333 14.5386 17.4375 14.5515C17.4329 14.5566 17.4278 14.5598 17.421 14.5624L17.3948 14.5913C17.3585 14.6285 17.3246 14.6836 17.2994 14.7443C17.1917 14.9881 17.1668 15.2903 17.161 15.5794C17.159 15.8723 17.191 16.1674 17.2457 16.4575C17.3585 17.0346 17.5636 17.6073 17.9183 18.0706C18.0956 18.2999 18.3168 18.495 18.5732 18.6182C18.829 18.7427 19.1194 18.7879 19.4059 18.7562C19.9764 18.6785 20.5663 18.4312 20.9171 17.9762C21.2761 17.5277 21.3573 16.905 21.2117 16.3564C21.1377 16.0876 21.0138 15.8094 20.8272 15.6442C20.782 15.6028 20.7328 15.5784 20.6937 15.5704C20.6526 15.5614 20.6296 15.5662 20.5905 15.5948C20.5294 15.6336 20.4831 15.7571 20.4738 15.8848C20.4566 16.1501 20.5336 16.4385 20.6403 16.7042C20.7499 16.9717 20.9006 17.2239 21.0827 17.4498C21.4449 17.9002 21.9691 18.2323 22.5467 18.2653C22.6887 18.2688 22.8374 18.2698 22.9742 18.2383L23.199 18.1966C23.2704 18.1787 23.3332 18.1514 23.4008 18.1296C23.6653 18.0317 23.9169 17.8723 24.1003 17.6516C24.4725 17.2101 24.6035 16.5861 24.5682 16.0048L24.5679 15.9993C24.5659 15.9663 24.5912 15.9381 24.6245 15.9358C24.6571 15.9339 24.685 15.958 24.6882 15.99C24.7474 16.6031 24.6439 17.2563 24.2484 17.7712C24.0495 18.0263 23.772 18.2076 23.4713 18.3256C23.3946 18.3519 23.3164 18.3843 23.2407 18.4045L23.0166 18.4501C22.8562 18.4889 22.6968 18.4905 22.5347 18.4889C21.8802 18.4639 21.2845 18.0956 20.8832 17.6124C20.6801 17.3696 20.5123 17.0991 20.3868 16.8084C20.2655 16.5165 20.1701 16.2079 20.1837 15.8656C20.1995 15.7007 20.2296 15.494 20.424 15.3532C20.5051 15.289 20.6455 15.256 20.7528 15.2858C20.8622 15.3102 20.9491 15.3651 21.0161 15.4251C21.2842 15.6708 21.399 15.9823 21.4753 16.2926C21.6153 16.9118 21.5093 17.6115 21.0876 18.1107C20.6665 18.6063 20.0508 18.8681 19.4276 18.9592C19.1091 18.9968 18.7737 18.948 18.481 18.8072C18.1868 18.6686 17.9416 18.4498 17.745 18.2034C17.3527 17.7045 17.1322 17.1071 17.0044 16.5037C16.9423 16.2002 16.9048 15.8915 16.9013 15.5794C16.9042 15.2675 16.9168 14.9509 17.0468 14.6342C17.0791 14.556 17.1212 14.4754 17.1897 14.4036C17.2069 14.3856 17.2224 14.3676 17.2418 14.35C17.267 14.332 17.2939 14.3147 17.3214 14.2993C17.3851 14.2611 17.408 14.2659 17.4485 14.2518C17.5076 14.2374 17.5154 14.248 17.5516 14.2467C17.581 14.2502 17.6105 14.2467 17.6389 14.2608C17.6978 14.2817 17.7521 14.3096 17.7893 14.351C17.8727 14.4283 17.9083 14.5175 17.9394 14.6002C18.0425 14.9339 18.0202 15.2486 17.9833 15.5576C17.9067 16.1748 17.7214 16.7639 17.4882 17.3307C17.2486 17.8925 16.9608 18.4511 16.5058 18.8919C16.2765 19.1087 16.0052 19.2887 15.6763 19.3708C15.5906 19.3975 15.5197 19.3975 15.4431 19.4084C15.3509 19.4164 15.2779 19.4103 15.1941 19.4087C15.0318 19.392 14.8675 19.3583 14.7152 19.2868C14.4073 19.1453 14.1803 18.8755 14.0425 18.5871C13.9067 18.2951 13.8336 17.9862 13.7938 17.6779C13.7178 17.0587 13.7469 16.445 13.8407 15.8312L14.0949 15.8957C13.9503 16.3131 13.7806 16.7125 13.594 17.1097C13.407 17.5056 13.2001 17.8941 12.9494 18.2614C12.6962 18.6246 12.4061 18.9788 12.0061 19.2345C11.6203 19.4982 11.0201 19.5682 10.6081 19.2502C10.2026 18.9365 10.0697 18.4555 10.0082 18.0212C9.95582 17.5762 9.98299 17.1293 10.0836 16.6971C10.1997 16.2775 10.3397 15.819 10.7675 15.5463C10.8332 15.5005 11.0447 15.4196 11.166 15.5444C11.2733 15.6548 11.2895 15.7799 11.3092 15.8928C11.3373 16.1225 11.315 16.3429 11.2869 16.5611C11.2284 16.9977 11.1129 17.4199 10.9777 17.8351C10.8416 18.2499 10.6728 18.6541 10.4742 19.0443C10.2744 19.4334 10.0444 19.8107 9.76211 20.1527C9.47462 20.4851 9.14412 20.8117 8.71013 20.9794C8.60664 21.0269 8.48796 21.0529 8.37154 21.0799C8.31527 21.0898 8.26255 21.0914 8.2079 21.0978C8.17718 21.1001 8.16166 21.1039 8.11864 21.1046L8.03295 21.102C7.80593 21.0972 7.5705 21.0561 7.36029 20.9461C6.92566 20.725 6.71319 20.2547 6.64075 19.8251C6.56314 19.385 6.58383 18.9419 6.63913 18.5094C6.69896 18.0763 6.79372 17.6516 6.9234 17.2339C6.93343 17.2021 6.96705 17.1845 6.99907 17.1941C7.03044 17.2043 7.0479 17.2387 7.03916 17.2698Z" fill="white"/>
<path d="M16.055 2.04997C15.4734 2.34611 14.7481 4.72283 14.7481 4.72283C14.7481 4.72283 12.144 4.82066 12.0072 5.27705C11.8704 5.73345 13.7203 6.97205 13.7203 6.97205C13.7203 6.97205 12.7954 9.87332 13.3779 10.0362C13.9604 10.1991 16.2899 8.43906 16.2899 8.43906C16.2899 8.43906 18.3115 9.97115 18.7912 9.77549C19.2708 9.57983 18.5171 6.84146 18.5171 6.84146C18.5171 6.84146 20.0339 5.5006 19.9994 5.14159C19.965 4.78303 17.4889 4.72238 17.4889 4.72238C17.4889 4.72238 16.2676 1.94151 16.055 2.04997Z" fill="#FFD25F"/>
<path d="M12.9619 8.25342C12.9619 8.25342 12.8094 8.3942 12.5653 8.58439C12.4406 8.67622 12.2999 8.78903 12.1408 8.89904C11.9808 9.00765 11.8098 9.12326 11.6388 9.23886C11.2934 9.46494 10.9315 9.66912 10.6537 9.81269C10.3763 9.9572 10.1795 10.0369 10.1795 10.0369C10.1144 10.0635 10.0388 10.035 10.0105 9.97398C9.98914 9.92736 10.0016 9.87516 10.0369 9.84113C10.0369 9.84113 10.1875 9.69802 10.432 9.50829C10.6755 9.31764 11.0096 9.07571 11.3595 8.85569C11.5364 8.74847 11.7134 8.64126 11.8789 8.54057C12.0459 8.44175 12.2094 8.3597 12.3456 8.28419C12.6235 8.14015 12.8183 8.05764 12.8183 8.05764C12.8829 8.03014 12.959 8.05718 12.9878 8.11778C13.0117 8.16532 12.9992 8.21893 12.9619 8.25342Z" fill="#DF992F"/>
<path d="M10.8354 5.04497C10.8354 5.04497 10.6455 5.01743 10.3718 4.95882C10.237 4.92668 10.0765 4.8942 9.91027 4.85006C9.74508 4.80451 9.56887 4.75613 9.39319 4.7074C9.04393 4.60606 8.70672 4.486 8.45919 4.38819C8.21114 4.29109 8.05486 4.2127 8.05486 4.2127C7.99455 4.18233 7.98198 4.12477 8.02708 4.08381C8.05959 4.05451 8.11307 4.04215 8.16289 4.0485C8.16289 4.0485 8.35431 4.07393 8.62754 4.13325C8.90129 4.19151 9.25946 4.27944 9.60505 4.38607C9.77654 4.44151 9.94804 4.49695 10.109 4.54921C10.269 4.60253 10.4122 4.66114 10.538 4.70705C10.7861 4.80451 10.9434 4.88078 10.9434 4.88078C11.0042 4.91044 11.0184 4.96764 10.9743 5.0086C10.9418 5.03932 10.8868 5.05204 10.8354 5.04497Z" fill="#DF992F"/>
<path d="M23.9458 4.39453C23.9458 4.39453 23.8334 4.48653 23.6616 4.58745C23.5752 4.63207 23.4751 4.69454 23.3666 4.7426C23.2577 4.78722 23.1417 4.83528 23.0256 4.88265C22.7929 4.96915 22.5569 5.01652 22.3786 5.03575C22.2006 5.05703 22.0797 5.04124 22.0797 5.04124C22.0328 5.03506 21.9972 4.95062 22.0002 4.85176C22.0021 4.78105 22.0236 4.722 22.053 4.6966C22.053 4.6966 22.1654 4.60049 22.3372 4.50026C22.509 4.39797 22.7394 4.284 22.9732 4.20848C23.0905 4.17553 23.2075 4.14258 23.3174 4.111C23.4275 4.08285 23.5318 4.07461 23.6202 4.05882C23.7985 4.03891 23.9191 4.0499 23.9191 4.0499C23.9657 4.05402 24.0019 4.13708 23.9999 4.23526C23.9983 4.30872 23.9761 4.36982 23.9458 4.39453Z" fill="#DF992F"/>
<path d="M19.0142 1.89923C19.0142 1.89923 19.0996 1.76602 19.2461 1.57961C19.3228 1.48873 19.4064 1.37844 19.5065 1.26776C19.6081 1.15785 19.7165 1.04096 19.8244 0.923677C20.0458 0.692993 20.2874 0.476288 20.4771 0.31978C20.6658 0.162884 20.8068 0.0685136 20.8068 0.0685136C20.8587 0.0339499 20.9336 0.0417167 20.9745 0.0852127C21.0043 0.117446 21.0076 0.160166 20.9864 0.194342C20.9864 0.194342 20.9033 0.329102 20.7563 0.515125C20.6098 0.701924 20.4036 0.943093 20.1762 1.16951C20.0605 1.28135 19.9443 1.39281 19.8359 1.49767C19.7256 1.60136 19.6136 1.69146 19.5222 1.77185C19.3329 1.92874 19.1942 2.02428 19.1942 2.02428C19.1432 2.05923 19.0684 2.05302 19.027 2.00991C18.9953 1.97806 18.9921 1.93379 19.0142 1.89923Z" fill="#DF992F"/>
<path d="M20.1701 8.05061C20.1701 8.05061 20.3627 8.08695 20.6385 8.15412C20.7743 8.18991 20.9366 8.22791 21.1033 8.27554C21.269 8.32427 21.4457 8.37603 21.6224 8.42778C21.9728 8.53461 22.3088 8.65547 22.5551 8.75183C22.802 8.84764 22.9558 8.92169 22.9558 8.92169C23.0095 8.94757 23.015 8.99273 22.9682 9.02246C22.9334 9.04476 22.8786 9.05192 22.8314 9.04338C22.8314 9.04338 22.6372 9.00869 22.3615 8.94097C22.0853 8.87406 21.725 8.77688 21.3791 8.66593C21.2078 8.60894 21.0361 8.55195 20.8754 8.49826C20.7156 8.44375 20.5733 8.38649 20.4478 8.34051C20.2015 8.24443 20.0457 8.17174 20.0457 8.17174C19.9914 8.14642 19.9845 8.10154 20.0303 8.07153C20.0651 8.04923 20.1213 8.04152 20.1701 8.05061Z" fill="#DF992F"/>
<path d="M13.1496 0.0816576C13.1496 0.0816576 13.2246 0.18224 13.3213 0.343251C13.367 0.425511 13.4249 0.518299 13.4788 0.62317C13.5314 0.728822 13.5877 0.84188 13.6436 0.954549C13.7518 1.18262 13.8435 1.4216 13.9054 1.60522C13.9678 1.78845 13.9971 1.91867 13.9971 1.91867C14.0093 1.97325 13.982 2.029 13.9363 2.04342C13.9044 2.05356 13.8715 2.04069 13.8508 2.01379C13.8508 2.01379 13.7741 1.91438 13.6778 1.75298C13.5808 1.59236 13.4604 1.3717 13.3568 1.14051C13.3071 1.02355 13.2572 0.906987 13.2105 0.797047C13.1651 0.686717 13.1302 0.578726 13.0967 0.488669C13.0345 0.305046 13.0033 0.176003 13.0033 0.176003C12.9904 0.122203 13.0164 0.0660626 13.0621 0.0504683C13.0947 0.0399421 13.1286 0.053198 13.1496 0.0816576Z" fill="#DF992F"/>
<path opacity="0.17" d="M3.66216 39.8478C3.59231 39.6807 3.42803 39.5918 3.25404 39.6829C2.95717 39.8385 2.84334 40.2572 2.73727 40.5492C2.66709 40.7426 2.78771 40.9396 2.94132 41.0464C3.04739 41.1202 3.16414 41.1096 3.28315 41.0907C3.41703 41.0695 3.5742 40.9175 3.59328 40.7834C3.61527 40.6268 3.64793 40.4722 3.6696 40.3159C3.69095 40.16 3.72522 39.9977 3.66216 39.8478Z" fill="#47590D"/>
<path opacity="0.17" d="M5.04881 38.8326C4.87094 38.6167 4.54821 38.7229 4.414 38.9138C4.31148 39.0594 4.2869 39.249 4.26814 39.421C4.21866 39.8746 4.91234 40.0238 5.11608 39.6488C5.26613 39.3722 5.24899 39.0761 5.04881 38.8326Z" fill="#47590D"/>
<path opacity="0.17" d="M4.32223 37.7493C4.16151 37.5148 3.80642 37.5491 3.71717 37.8276C3.68354 37.9322 3.68483 38.0188 3.65185 38.1179C3.64505 38.1388 3.6373 38.1596 3.62856 38.1798C3.64118 38.1461 3.63665 38.1513 3.61466 38.1952C3.60657 38.2087 3.60495 38.2122 3.60301 38.2161C3.59978 38.2187 3.59396 38.2244 3.57941 38.2411C3.46363 38.3736 3.38796 38.5382 3.43711 38.7159C3.48077 38.8731 3.61368 38.9796 3.77408 39.0037C4.38885 39.0964 4.59647 38.1497 4.32223 37.7493Z" fill="#47590D"/>
<path opacity="0.17" d="M8.26739 35.0585C8.26254 34.9119 8.13156 34.7364 7.96404 34.7576C7.72247 34.7887 7.54816 34.9337 7.44403 35.1516C7.31597 35.4191 7.30724 35.8324 7.60185 36.0034C7.92427 36.1904 8.22955 35.9135 8.24992 35.5905C8.25574 35.4981 8.24669 35.406 8.24475 35.3136C8.24669 35.3248 8.25283 35.1891 8.25542 35.1692C8.24766 35.2279 8.26804 35.0784 8.26739 35.0585Z" fill="#47590D"/>
<path opacity="0.17" d="M9.47054 35.7693C9.293 35.6824 9.12613 35.7327 9.00615 35.8781C8.98254 35.9153 8.92078 36.0077 8.91205 36.0314C8.90429 36.0526 8.87227 36.1514 8.87841 36.1379C8.84414 36.2136 8.74582 36.3519 8.7054 36.4626C8.54338 36.9044 9.1879 37.2573 9.49642 36.9194C9.74834 36.6439 9.88998 35.9746 9.47054 35.7693Z" fill="#47590D"/>
<path opacity="0.17" d="M8.99023 35.8951C8.99504 35.8888 9.00145 35.8853 9.00626 35.8789C9.02004 35.8573 9.02101 35.8541 8.99023 35.8951Z" fill="#5A287F"/>
<path opacity="0.17" d="M11.4792 36.1497C11.4792 36.1355 11.4789 36.1339 11.4773 36.1445V36.1442C11.5128 35.9514 11.3709 35.7162 11.149 35.7355C10.857 35.7608 10.6853 35.9434 10.6057 36.218C10.5129 36.5391 10.7969 36.8426 11.1206 36.799C11.4472 36.7554 11.5911 36.4329 11.4792 36.1497Z" fill="#47590D"/>
<path opacity="0.17" d="M16.1055 34.6094C15.8914 34.9905 15.6211 35.416 15.6909 35.8661C15.7456 36.219 16.3012 36.2665 16.4554 35.9652C16.5463 35.7875 16.5612 35.5985 16.6032 35.4057C16.642 35.2273 16.6941 35.0525 16.7474 34.8779C16.8622 34.5006 16.2999 34.2636 16.1055 34.6094Z" fill="#47590D"/>
<path opacity="0.17" d="M17.8208 35.496C17.7027 35.2461 17.4964 35.0706 17.237 34.9788C16.8593 34.845 16.6058 35.3603 16.8609 35.6198C17.0084 35.7697 16.9871 35.8794 17.0424 36.0863C17.1177 36.3683 17.3939 36.6009 17.6785 36.4206C17.9905 36.223 17.9592 35.7886 17.8208 35.496Z" fill="#47590D"/>
<path opacity="0.17" d="M19.6787 41.6703C19.4339 41.4772 19.1053 41.6007 19.0775 41.9174C19.0555 42.1679 19.1412 42.5837 19.3983 42.6931C19.6625 42.8054 19.9183 42.7197 20.0202 42.4422C20.1198 42.1715 19.8892 41.8362 19.6787 41.6703Z" fill="#47590D"/>
<path opacity="0.17" d="M20.9405 41.3183C20.7129 41.1451 20.3626 41.4332 20.4545 41.6892C20.4994 41.8146 20.4988 41.9622 20.5166 42.1111C20.5431 42.3337 20.6899 42.5262 20.935 42.5262C21.1627 42.5262 21.3528 42.3363 21.3535 42.1111C21.3548 41.7838 21.196 41.5124 20.9405 41.3183Z" fill="#47590D"/>
<path opacity="0.17" d="M25.0922 40.7608C25.0388 40.5953 24.9256 40.4464 24.7859 40.3428C24.6944 40.2751 24.5492 40.3104 24.4735 40.3829C24.3173 40.5324 24.2734 40.7708 24.3164 40.9732C24.4234 41.474 25.2516 41.2536 25.0922 40.7608Z" fill="#47590D"/>
<path opacity="0.17" d="M26.658 41.2917C26.659 41.2932 26.6586 41.2932 26.6593 41.2948C26.6663 41.3028 26.6628 41.2808 26.6445 41.2637C26.6471 41.2704 26.6484 41.2729 26.6506 41.2773C26.6529 41.2821 26.6558 41.2869 26.658 41.2917Z" fill="#5A287F"/>
<path opacity="0.17" d="M26.6657 41.3079C26.6654 41.306 26.6634 41.3018 26.6612 41.2967C26.6592 41.2944 26.656 41.287 26.6524 41.279C26.6495 41.2732 26.6469 41.2675 26.6437 41.262C26.645 41.263 26.6453 41.2643 26.6463 41.2652C26.646 41.2639 26.6456 41.2639 26.645 41.2627C26.6253 41.2075 26.6062 41.152 26.5865 41.0968C26.5117 40.8889 26.3058 40.75 26.08 40.8116C25.8456 40.8754 25.7576 41.0955 25.7925 41.314C25.8087 41.4163 25.8171 41.5225 25.8494 41.6213C25.9258 41.8539 26.1757 42.0381 26.429 41.955C26.6321 41.8883 26.7711 41.7009 26.7384 41.4847C26.7275 41.4147 26.7 41.3583 26.6657 41.3079Z" fill="#47590D"/>
<path opacity="0.17" d="M26.6173 38.1258C26.5639 37.9712 26.4989 37.7841 26.3511 37.6972C26.3026 37.6686 26.2392 37.6686 26.1904 37.6972C26.0258 37.7941 25.9757 38.0045 25.9543 38.1816C25.9285 38.3982 25.9139 38.6196 25.9466 38.8348C26.0161 39.2942 26.7774 39.1832 26.7602 38.7257C26.7525 38.5236 26.6829 38.3167 26.6173 38.1258Z" fill="#47590D"/>
<path opacity="0.17" d="M27.2242 34.2426C27.2191 34.2308 27.2142 34.2186 27.209 34.2067C27.0567 33.8429 26.6114 33.8422 26.4588 34.2067C26.4536 34.2186 26.4487 34.2308 26.4436 34.2426C26.3401 34.4897 26.5956 34.7508 26.8339 34.7508C27.0732 34.7511 27.3271 34.489 27.2242 34.2426Z" fill="#47590D"/>
<path opacity="0.17" d="M30.6251 37.3735C30.6235 37.3677 30.6205 37.3629 30.6189 37.3571C30.6529 37.1258 30.4741 36.9593 30.3343 36.7562C30.2137 36.5807 29.9857 36.5024 29.7917 36.615C29.5873 36.7334 29.5656 36.957 29.6494 37.1534C29.7674 37.4296 30.0294 37.7559 30.3505 37.6644C30.3657 37.666 30.3803 37.6709 30.3961 37.6715C30.5546 37.6795 30.6606 37.5153 30.6251 37.3735Z" fill="#47590D"/>
<path opacity="0.17" d="M5.89327 30.658C5.87807 30.5878 5.86481 30.5143 5.83312 30.4492C5.80304 30.3869 5.75971 30.3648 5.71896 30.3135C5.69115 30.2785 5.61806 30.2782 5.59025 30.3135C5.54336 30.3731 5.49388 30.4014 5.46122 30.4742C5.42565 30.5534 5.40107 30.6378 5.36614 30.7174C5.27139 30.9323 5.1443 31.1158 5.28595 31.3465C5.37359 31.4893 5.59251 31.5704 5.74224 31.4652C5.75292 31.4578 5.76359 31.4501 5.77426 31.4427C5.87451 31.3722 5.97445 31.2567 5.95925 31.1229C5.94114 30.9666 5.92658 30.812 5.89327 30.658Z" fill="#5C6D17"/>
<path opacity="0.17" d="M7.47403 30.3576C7.3948 30.5909 7.22695 30.7256 7.14837 30.9572C7.03324 31.2976 7.45398 31.5925 7.75021 31.4163C8.04223 31.2425 8.13924 30.8687 8.20004 30.5562C8.29156 30.0859 7.62958 29.8985 7.47403 30.3576Z" fill="#5C6D17"/>
<path opacity="0.17" d="M10.4665 31.3216C10.3469 31.2328 10.1321 31.2161 10.0287 31.3476C9.84497 31.5806 9.73017 31.8735 9.89122 32.1523C10.0316 32.3951 10.4445 32.3569 10.5099 32.072C10.5325 31.9736 10.506 31.8382 10.5522 31.7487C10.6279 31.6024 10.6033 31.4233 10.4665 31.3216Z" fill="#5C6D17"/>
<path opacity="0.17" d="M9.82304 30.0575C9.79781 29.8614 9.67169 29.6914 9.45405 29.6914C9.24805 29.6914 9.09249 29.8589 9.08506 30.0575C9.08409 30.079 9.07148 30.1579 9.07601 30.1483C9.07956 30.1402 9.01844 30.2156 9.0165 30.2182C8.97478 30.2743 8.94826 30.3327 8.93015 30.4004C8.83766 30.7466 9.21765 31.0244 9.52778 30.8563C9.79296 30.7126 9.85893 30.3334 9.82304 30.0575Z" fill="#5C6D17"/>
<path opacity="0.17" d="M8.28897 23.9819C8.22559 23.8286 8.05839 23.7724 7.9258 23.8869C7.73209 24.0541 7.61341 24.3566 7.52512 24.5899C7.43522 24.8276 7.64607 25.0794 7.87471 25.1102C8.13342 25.1449 8.33651 24.9521 8.35074 24.7005C8.36368 24.4789 8.37467 24.1898 8.28897 23.9819Z" fill="#5C6D17"/>
<path opacity="0.17" d="M10.0812 23.1786C9.94217 23.041 9.68605 23.0644 9.58903 23.2415C9.52694 23.3551 9.51983 23.4818 9.47649 23.6031C9.43995 23.7048 9.38271 23.8761 9.44092 24.0243C9.51175 24.2049 9.68993 24.3461 9.89755 24.2816C10.1469 24.2043 10.2756 23.9881 10.2682 23.7337C10.263 23.5412 10.2226 23.3185 10.0812 23.1786Z" fill="#5C6D17"/>
<path opacity="0.17" d="M11.1796 25.2008C11.0713 25.0661 10.8938 25.0333 10.7395 25.1135C10.3974 25.2919 10.2169 25.6464 10.2861 26.0224C10.366 26.4571 11.0526 26.3465 11.0509 25.9198C11.0509 25.8745 11.0535 25.8296 11.0487 25.7847C11.0477 25.7764 11.0483 25.7642 11.0483 25.7555C11.0616 25.7237 11.1046 25.6824 11.1531 25.6451C11.2854 25.5434 11.2741 25.3185 11.1796 25.2008Z" fill="#5C6D17"/>
<path opacity="0.17" d="M17.952 23.7908C17.8915 23.6849 17.7392 23.545 17.6066 23.6377C17.5328 23.6894 17.5105 23.7372 17.4675 23.81C17.4284 23.8761 17.3686 23.9284 17.3346 24.0015C17.2389 24.2078 17.2913 24.4468 17.5183 24.5415C17.7282 24.6294 17.9743 24.5161 18.0364 24.2948C18.0862 24.117 18.0396 23.9438 17.952 23.7908Z" fill="#5C6D17"/>
<path opacity="0.17" d="M19.3724 25.9392C19.3087 25.6976 19.006 24.6443 18.6127 24.823C18.4352 24.9036 18.4743 25.2067 18.4808 25.3604C18.4918 25.6203 18.518 25.9036 18.5772 26.1567C18.6968 26.6681 19.5075 26.4509 19.3724 25.9392Z" fill="#5C6D17"/>
<path opacity="0.17" d="M20.3106 23.9588C20.3074 23.9556 20.3071 23.9559 20.3071 23.9572C20.3064 23.9569 20.3058 23.9565 20.3051 23.9562C20.2948 23.9373 20.2692 23.8895 20.2631 23.8776C20.1851 23.7313 19.9688 23.7111 19.8559 23.8256C19.6179 24.0672 19.6606 24.398 19.8779 24.6357C20.0597 24.8343 20.4005 24.7727 20.5305 24.5523C20.6605 24.3319 20.548 24.0461 20.3106 23.9588Z" fill="#5C6D17"/>
<path opacity="0.17" d="M21.3726 33.5772C21.3383 33.4588 21.2743 33.3828 21.2025 33.2862C21.2455 33.3437 21.197 33.276 21.1851 33.2532C21.2113 33.3032 21.1708 33.1929 21.1692 33.1849C21.1294 32.9577 20.8461 32.8919 20.6689 32.9827C20.592 33.0219 20.5334 33.0745 20.4862 33.146C20.4416 33.2131 20.4468 33.2878 20.4742 33.3552C20.4529 33.5779 20.5457 33.7967 20.7071 33.9612C20.8054 34.0617 20.9593 34.1002 21.0945 34.0629C21.1724 34.0414 21.208 34.0094 21.2701 33.9612C21.3772 33.8788 21.4079 33.6995 21.3726 33.5772Z" fill="#5C6D17"/>
<path opacity="0.17" d="M22.7866 32.8594C22.7242 32.64 22.653 32.4247 22.6045 32.2014C22.5137 31.7853 21.8074 31.869 21.8452 32.3034C21.8679 32.5636 21.8963 32.8312 21.9681 33.0833C22.1162 33.604 22.9357 33.3827 22.7866 32.8594Z" fill="#5C6D17"/>
<path opacity="0.17" d="M27.2044 31.8269C27.097 31.6164 26.9437 31.4063 26.7914 31.2256C26.6401 31.0457 26.3002 31.1894 26.317 31.4207C26.3361 31.6828 26.4224 31.9738 26.5699 32.1948C26.8315 32.5866 27.4185 32.2465 27.2044 31.8269Z" fill="#5C6D17"/>
<path opacity="0.17" d="M28.9227 31.198C28.9062 31.1505 28.8784 31.1094 28.8399 31.0751C28.7452 31.0052 28.7229 30.9875 28.773 31.0222C28.7571 31.0081 28.7429 30.9923 28.7287 30.9766C28.7255 30.9715 28.7245 30.9692 28.7158 30.9571C28.7119 30.9497 28.7122 30.9506 28.7096 30.9458C28.7067 30.9343 28.7044 30.9247 28.7031 30.9224C28.6993 30.8756 28.6996 30.8271 28.6999 30.7812C28.7035 30.3154 28.0318 30.2403 27.896 30.6731C27.8235 30.9035 27.85 31.1582 27.9613 31.3725C28.0751 31.5923 28.3112 31.8133 28.5738 31.8015C28.9059 31.7864 29.0424 31.4781 28.9227 31.198Z" fill="#5C6D17"/>
<path opacity="0.17" d="M12.8626 20.1561C12.7346 20.0637 12.5176 20.1307 12.4477 20.2639C12.3698 20.413 12.3316 20.6148 12.3413 20.7826C12.3546 21.0114 12.5282 21.2067 12.7692 21.2067C12.9833 21.2067 13.219 21.012 13.1967 20.7826C13.1731 20.5385 13.0651 20.3024 12.8626 20.1561Z" fill="#85A325"/>
<path opacity="0.17" d="M14.0967 20.7972C14.0004 20.6535 13.8041 20.6535 13.7074 20.7972C13.503 21.102 13.4273 21.6336 13.4904 21.9853C13.5628 22.3895 14.2416 22.3898 14.3137 21.9853C14.3765 21.6336 14.3011 21.102 14.0967 20.7972Z" fill="#85A325"/>
<path opacity="0.17" d="M16.0782 20.4651C15.9081 20.397 15.6575 20.4445 15.5734 20.629C15.4622 20.8731 15.371 21.1458 15.403 21.4176C15.4298 21.6479 15.5828 21.8472 15.836 21.8472C16.0682 21.8472 16.2719 21.6505 16.269 21.4176C16.2667 21.2411 16.2619 21.1019 16.3127 20.938C16.3709 20.749 16.2587 20.5369 16.0782 20.4651Z" fill="#85A325"/>
<path opacity="0.17" d="M20.1718 20.3152C20.0732 20.1012 19.9885 19.8914 19.8956 19.6745C19.83 19.5212 19.6085 19.4576 19.4591 19.4984C19.2867 19.5452 19.1884 19.6986 19.1751 19.8683C19.1525 20.1625 19.2505 20.5112 19.387 20.7704C19.5005 20.986 19.8041 21.0508 20.0085 20.9321C20.2381 20.7987 20.2743 20.5372 20.1718 20.3152Z" fill="#85A325"/>
<path opacity="0.17" d="M22.2552 19.8484C22.046 19.6755 21.872 19.4788 21.6951 19.2745C21.407 18.9421 20.8323 19.3787 21.08 19.7451C21.2479 19.9934 21.4112 20.2603 21.632 20.4666C21.8054 20.6286 22.0835 20.637 22.2552 20.4666C22.4121 20.3113 22.4392 20.0002 22.2552 19.8484Z" fill="#85A325"/>
<path opacity="0.17" d="M25.4392 20.4997C25.415 20.4243 25.3829 20.3537 25.3487 20.2828C25.3438 20.2729 25.328 20.2389 25.3241 20.2312C25.3095 20.1962 25.2963 20.1606 25.283 20.1253C25.2264 19.9736 25.1776 19.8189 25.1323 19.6636C24.9845 19.159 24.2333 19.3704 24.3429 19.8796C24.4147 20.2135 24.4807 20.6575 24.7284 20.911C25.0175 21.2068 25.5702 20.9049 25.4392 20.4997Z" fill="#85A325"/>
<path opacity="0.17" d="M19.0093 10.4276C18.9162 10.2547 18.8289 10.0795 18.7471 9.90112C18.596 9.57356 18.0324 9.73333 18.0595 10.0859C18.077 10.3127 18.1401 10.5084 18.2216 10.7192C18.3063 10.9387 18.3626 11.1729 18.5233 11.3503C18.7859 11.6403 19.1898 11.3833 19.2254 11.0619C19.2506 10.8363 19.1132 10.6201 19.0093 10.4276Z" fill="#85A325"/>
<path opacity="0.17" d="M20.7546 11.8629C20.6518 11.7516 20.5567 11.6335 20.4552 11.5216C20.2088 11.2505 19.7935 11.5399 19.8682 11.8607C19.9507 12.2145 20.2359 12.7664 20.6541 12.7619C20.8665 12.7596 21.0431 12.5861 21.0447 12.3743C21.0467 12.1436 20.8982 12.0185 20.7546 11.8629Z" fill="#85A325"/>
<path opacity="0.17" d="M19.6457 12.3569C19.4407 12.2639 19.2619 12.1301 19.052 12.0486C18.9197 11.9973 18.7852 12.1269 18.7833 12.2517C18.7794 12.5331 18.9582 12.7981 19.1506 12.9934C19.322 13.1673 19.6141 13.1407 19.7602 12.9524C19.896 12.7779 19.8721 12.4596 19.6457 12.3569Z" fill="#85A325"/>
<path opacity="0.17" d="M11.6501 13.3799C11.4894 13.2785 11.2944 13.3488 11.1463 13.4408C10.9645 13.5538 10.8103 13.6721 10.7336 13.8768C10.6809 14.0177 10.7588 14.1964 10.8724 14.2807C11.0053 14.3792 11.1553 14.3786 11.3025 14.3109C11.4674 14.2349 11.5997 14.0228 11.6812 13.864C11.7559 13.7187 11.8212 13.488 11.6501 13.3799Z" fill="#85A325"/>
<path opacity="0.17" d="M12.5448 13.8278C12.4766 13.6924 12.2612 13.6985 12.1914 13.8278C12.1422 13.9189 12.0859 14.0142 12.0297 14.1018C11.9773 14.1833 11.899 14.2378 11.8398 14.3135C11.7111 14.4784 11.6778 14.6995 11.8398 14.8602C11.9931 15.0123 12.2367 15.0033 12.3909 14.8602C12.6684 14.6032 12.7065 14.1483 12.5448 13.8278Z" fill="#85A325"/>
<path opacity="0.17" d="M12.9775 12.0974C12.9423 12.0018 12.9371 11.9091 12.884 11.8183C12.8226 11.713 12.6852 11.6822 12.5797 11.739C12.4869 11.7894 12.4381 11.8667 12.364 11.9366C12.1629 12.1272 12.2644 12.4734 12.526 12.5449C12.7789 12.6142 13.0765 12.3646 12.9775 12.0974Z" fill="#85A325"/>
<ellipse cx="22.3918" cy="19.3763" rx="0.969907" ry="0.962203" fill="#FA1E28"/>
<circle cx="6.96431" cy="17.8042" r="1.35494" fill="#FA1E28"/>
<ellipse cx="15.6027" cy="32.845" rx="0.969907" ry="0.962203" fill="#FA1E28"/>
<circle cx="28.5" cy="30.5" r="1.5" fill="#AB43DC"/>
<circle cx="7.86666" cy="40.3862" r="1.35494" fill="#AB43DC"/>
<ellipse cx="7.84295" cy="29.9583" rx="0.969907" ry="0.962203" fill="#84E9FD"/>
<ellipse cx="22.3918" cy="39.5833" rx="0.969907" ry="0.962203" fill="#84E9FD"/>
<circle cx="22.3198" cy="30.4506" r="1.35494" fill="#FFD25F"/>
<ellipse cx="11.7219" cy="19.3763" rx="0.969907" ry="0.962203" fill="#FFD25F"/>
</svg>
