<svg width="72" height="56" viewBox="0 0 72 56" fill="none" xmlns="http://www.w3.org/2000/svg">
<path d="M36.3973 11.799C36.3973 11.799 35.157 1.99788 33.5346 1.78556C31.9129 1.57332 27.2823 3.5875 26.5587 5.75315C25.8266 7.94796 36.3973 11.799 36.3973 11.799Z" fill="#BA312D"/>
<path d="M36.3971 11.7945C36.3971 11.7945 40.0677 3.02452 41.5488 2.82999C43.03 2.63545 47.3173 5.64204 46.9831 6.54971C45.3614 10.9507 36.6424 11.9489 36.6424 11.9489" fill="#BA312D"/>
<path d="M33.7069 6.60345C33.7069 6.60345 33.8969 6.90023 34.1512 7.35973C34.2733 7.59174 34.4241 7.85893 34.5697 8.1528C34.7115 8.44852 34.8629 8.76355 35.0144 9.07916C35.3079 9.71497 35.5649 10.3675 35.732 10.8704C35.821 11.1196 35.8722 11.3382 35.9128 11.4908C35.9486 11.6487 35.96 11.7439 35.96 11.7439C35.9692 11.8249 35.9114 11.8977 35.8309 11.9075C35.7652 11.9152 35.7054 11.8789 35.6796 11.8219L35.6742 11.8101C35.6742 11.8101 35.6409 11.7353 35.5818 11.6042C35.5162 11.4686 35.4228 11.2753 35.3099 11.0434C35.081 10.5767 34.7743 9.95258 34.4913 9.31639C34.2114 8.67887 33.9322 8.04028 33.7442 7.55101C33.553 7.0631 33.4423 6.72954 33.4423 6.72954C33.4164 6.65219 33.4587 6.56865 33.5361 6.54267C33.6011 6.52149 33.671 6.5481 33.7069 6.60345Z" fill="#7C1518"/>
<path d="M31.9451 7.62454C31.9451 7.62454 32.22 7.83287 32.6101 8.16632C32.8015 8.33693 33.0313 8.52946 33.266 8.74766C33.4987 8.96734 33.7469 9.20187 33.9957 9.43648C34.4867 9.91123 34.9543 10.4091 35.2954 10.7926C35.6372 11.1751 35.8478 11.4478 35.8478 11.4478C35.8976 11.5125 35.8854 11.6053 35.8213 11.6551C35.7675 11.6964 35.6928 11.6936 35.6407 11.6553C35.6407 11.6553 35.3631 11.4501 34.9736 11.1156C34.5829 10.7821 34.0751 10.3243 33.5901 9.84339C33.3506 9.6001 33.1111 9.35682 32.8866 9.1283C32.664 8.89829 32.467 8.67279 32.2924 8.48517C31.9513 8.10222 31.738 7.83209 31.738 7.83209C31.6876 7.76785 31.6986 7.67496 31.7622 7.62449C31.8166 7.58269 31.8932 7.58514 31.9451 7.62454Z" fill="#7C1518"/>
<path d="M40.0201 7.88411C40.0201 7.88411 39.818 8.10222 39.515 8.42881C39.3587 8.58652 39.1876 8.78189 38.9955 8.98151C38.8029 9.18048 38.6012 9.39573 38.4064 9.61652C38.01 10.0514 37.6164 10.4873 37.3276 10.8215C37.1833 10.9896 37.0636 11.1299 36.9798 11.2278C36.8936 11.3255 36.8444 11.3813 36.8444 11.3813C36.7897 11.4429 36.6958 11.4486 36.6349 11.3941C36.5863 11.351 36.5733 11.2818 36.5965 11.2243C36.5965 11.2243 36.7148 10.9387 36.9606 10.5511C37.2026 10.1612 37.568 9.66926 37.9852 9.2266C38.403 8.78402 38.8518 8.37521 39.2126 8.09636C39.5702 7.81592 39.8349 7.65725 39.8349 7.65725C39.9045 7.61454 39.9959 7.63698 40.0386 7.70662C40.0725 7.76404 40.0629 7.83674 40.0201 7.88411Z" fill="#7C1518"/>
<path d="M41.3624 9.10637C41.3624 9.10637 41.1445 9.3125 40.7994 9.59574C40.6241 9.73351 40.4246 9.90128 40.2013 10.0677C39.9766 10.2322 39.7371 10.4075 39.4975 10.5829C39.014 10.9272 38.5108 11.2439 38.126 11.4707C37.7416 11.6981 37.4711 11.8298 37.4711 11.8298C37.3976 11.8662 37.3089 11.8366 37.2719 11.763C37.243 11.7039 37.2574 11.6342 37.3015 11.5905C37.3015 11.5905 37.5175 11.3817 37.8626 11.0985C38.2072 10.8146 38.677 10.4505 39.1658 10.1144C39.4127 9.94936 39.6591 9.78422 39.8907 9.62937C40.1238 9.47704 40.3499 9.34651 40.5393 9.22923C40.9242 9.00244 41.1922 8.8675 41.1922 8.8675C41.2652 8.83046 41.354 8.85898 41.3916 8.93202C41.4229 8.99085 41.4084 9.06231 41.3624 9.10637Z" fill="#7C1518"/>
<path d="M67.744 32.6631C67.8169 32.0613 67.8891 31.4651 67.9556 30.8683C68.7789 23.4649 68.9719 16.829 67.9755 16.1222C66.1212 14.8082 50.2771 12.1 37.51 10.6621C36.9589 10.6016 36.4136 10.5419 35.874 10.4829C28.5355 9.69719 22.5197 9.39318 21.3075 10.1138C19.9379 10.9244 18.2058 17.842 16.9699 25.5059C16.8571 26.1899 16.7493 26.8803 16.6464 27.5772C15.3024 36.735 14.7619 46.2483 16.4506 47.2262C17.5605 47.8664 22.96 49.097 29.7348 50.2748C30.3386 50.3771 30.9539 50.4809 31.5749 50.5855C44.4311 52.7221 61.0253 54.5037 63.1832 51.9854C64.9359 49.9381 66.7129 41.0758 67.744 32.6631Z" fill="#DFA764"/>
<path d="M16.9695 25.5048C16.9695 25.5048 23.9995 26.5121 32.9736 27.6575C32.8506 28.375 32.7326 29.0991 32.6138 29.8288C23.6426 28.6606 16.6975 27.5828 16.6975 27.5828L16.646 27.5761C16.7489 26.8792 16.8567 26.1887 16.9695 25.5048Z" fill="#AD2429"/>
<path d="M67.9568 30.8693C67.8903 31.4662 67.8181 32.0623 67.7452 32.6641C60.6432 33.0972 46.2509 31.5747 34.5568 30.0792C34.6699 29.3487 34.7765 28.6232 34.8881 27.9041C47.0267 29.4287 61.9202 31.0808 67.9568 30.8693Z" fill="#AD2429"/>
<path d="M37.5075 10.6668C36.9565 10.6063 36.4111 10.5466 35.8715 10.4876L35.823 10.9471C35.823 10.9471 34.4268 18.8578 32.9716 27.6633C32.8486 28.3809 32.7306 29.1049 32.6118 29.8347C31.1948 38.4821 29.8296 47.445 29.7324 50.2795C30.3362 50.3818 30.9514 50.4856 31.5724 50.5902L31.5814 50.5215C32.1226 46.3418 33.353 38.0076 34.5532 30.0829C34.6662 29.3524 34.7728 28.6269 34.8844 27.9078C36.237 18.9957 37.4545 11.1606 37.4545 11.1606L37.5075 10.6668Z" fill="#BA312D"/>
<path d="M23.1141 12.9197C23.0114 12.6948 22.7476 12.6859 22.5892 12.851C22.3762 13.0729 22.2224 13.3445 22.0582 13.6025C21.9058 13.8416 21.9132 14.1547 22.1517 14.339C22.3699 14.5085 22.7223 14.4766 22.8882 14.2456C23.1631 13.8623 23.3205 13.3717 23.1141 12.9197Z" fill="white"/>
<path d="M24.2601 19.0333C23.7457 19.3199 23.123 20.0024 23.4811 20.6338C23.608 20.8572 23.9465 21.0464 24.1784 20.8183C24.3515 20.6482 24.4322 20.4852 24.5268 20.2694C24.5883 20.1289 24.6551 20.0189 24.7777 19.9231C25.224 19.574 24.7908 18.7376 24.2601 19.0333Z" fill="white"/>
<path d="M28.4251 15.7929C28.1122 16.0529 27.9314 16.4468 28.1133 16.8403C28.2404 17.1149 28.7263 17.1796 28.8284 16.8401C28.8583 16.7404 28.8711 16.5534 28.9531 16.4792C29.3585 16.1083 28.859 15.4316 28.4251 15.7929Z" fill="white"/>
<path d="M26.9737 12.0616C26.7327 12.1949 26.5647 12.3528 26.4419 12.6017C26.3776 12.733 26.413 12.8937 26.4943 13.0068C26.5027 13.0184 26.5106 13.0293 26.5189 13.0409C26.616 13.1758 26.7785 13.189 26.9241 13.148C27.1249 13.0911 27.1332 12.9029 27.2928 12.8184C27.7587 12.5725 27.4344 11.8075 26.9737 12.0616Z" fill="white"/>
<path d="M31.85 20.9178C31.9266 20.4393 31.1741 20.218 31.0126 20.6912C30.9076 21 30.7818 21.3114 30.6156 21.5936C30.4883 21.8104 30.3501 22.0031 30.3872 22.2711C30.4183 22.4965 30.583 22.7061 30.8042 22.7642C31.7775 23.0202 31.7556 21.5058 31.85 20.9178Z" fill="white"/>
<path d="M19.3751 21.6986C18.8235 21.8914 18.335 22.479 18.6877 23.0492C18.8093 23.2456 19.0923 23.2809 19.2899 23.2083C19.564 23.1074 19.5833 22.8397 19.8168 22.7463C20.5002 22.4718 20.0616 21.4583 19.3751 21.6986Z" fill="white"/>
<path d="M28.2225 24.225C28.2368 23.6487 27.4716 23.5474 27.3369 24.1091C27.2765 24.3621 27.1943 24.5097 27.3159 24.7678C27.461 25.0744 27.8537 25.1258 28.0727 24.8669C28.2538 24.6536 28.2159 24.4844 28.2225 24.225Z" fill="white"/>
<path d="M32.3319 13.1188C32.3305 13.1431 32.3291 13.1668 32.3277 13.1911C32.3179 13.3598 32.3652 13.5768 32.5257 13.6717C32.7122 13.7817 32.8404 13.7985 33.0489 13.7402C33.2284 13.6897 33.33 13.4922 33.3639 13.3267C33.3687 13.3028 33.3735 13.2796 33.3784 13.2558C33.5157 12.589 32.3704 12.438 32.3319 13.1188Z" fill="white"/>
<path d="M41.474 14.6818C41.1145 14.9463 40.9299 15.2982 40.9374 15.7435C40.9449 16.2202 41.6922 16.2801 41.8464 15.8624C41.9068 15.6992 41.9489 15.5865 42.09 15.4827C42.6145 15.0966 41.9979 14.2962 41.474 14.6818Z" fill="white"/>
<path d="M40.8099 19.8986C40.8831 19.2234 39.866 19.0892 39.7634 19.7616C39.726 20.0077 39.6835 20.2077 39.7898 20.4452C39.9381 20.7761 40.38 20.8339 40.6084 20.5523C40.7702 20.3528 40.7828 20.1454 40.8099 19.8986Z" fill="white"/>
<path d="M46.3783 17.7087C46.1467 17.9073 46.0044 18.1495 45.9877 18.4594C45.9777 18.6427 46.0613 18.8405 46.2461 18.9095C46.4194 18.9741 46.5781 18.9495 46.7126 18.8157C46.8404 18.6886 46.778 18.4848 46.8953 18.3808C47.3004 18.0216 46.7948 17.351 46.3783 17.7087Z" fill="white"/>
<path d="M42.2311 23.5339C41.8888 23.8536 41.7182 24.1742 41.7241 24.6455C41.7295 25.0666 42.39 25.1186 42.5261 24.7504C42.5882 24.5827 42.673 24.4063 42.8077 24.2848C43.2605 23.8771 42.6749 23.1198 42.2311 23.5339Z" fill="white"/>
<path d="M50.0559 24.312C50.0976 23.7264 49.263 23.6166 49.1526 24.1938C49.1137 24.3977 49.0682 24.5984 49.0168 24.7996C48.8537 25.4409 50.0237 25.5951 50.0306 24.9323C50.0333 24.7248 50.041 24.5196 50.0559 24.312Z" fill="white"/>
<path d="M55.9688 17.7824C55.7462 17.61 55.3775 17.638 55.2091 17.8786C54.9741 18.2152 54.6473 18.6656 54.7649 19.0974C54.8558 19.4307 55.2176 19.6515 55.5299 19.41C55.8207 19.1854 55.8837 18.842 56.0651 18.5414C56.216 18.2916 56.2183 17.9757 55.9688 17.7824Z" fill="white"/>
<path d="M52.6371 15.6538C52.6089 15.4067 52.3592 15.2279 52.1178 15.2615C51.848 15.299 51.7209 15.5315 51.7255 15.7808C51.7299 15.9828 51.5567 16.1628 51.5064 16.3565C51.413 16.714 51.8382 16.9088 52.1163 16.8212C52.5821 16.6748 52.6853 16.0729 52.6371 15.6538Z" fill="white"/>
<path d="M62.8972 17.3745C62.4482 17.5393 62.2922 17.9707 62.4162 18.4068C62.5449 18.8603 63.2238 18.7896 63.3851 18.4067C63.4058 18.3645 63.4214 18.3206 63.432 18.2754C63.4289 18.2855 63.4307 18.2944 63.4372 18.3023C63.9684 17.9496 63.452 17.1705 62.8972 17.3745Z" fill="white"/>
<path d="M58.6883 22.2976C58.5222 22.0813 58.1521 22.0038 57.9356 22.199C57.5764 22.5235 57.3247 23.0449 57.6514 23.4807C57.8273 23.7157 58.2669 23.7563 58.4372 23.4822C58.5045 23.3734 58.5602 23.2858 58.5853 23.1563C58.5901 23.1325 58.6012 23.039 58.5898 23.0503C58.7959 22.8462 58.8804 22.5475 58.6883 22.2976Z" fill="white"/>
<path d="M63.3845 25.1871C63.3607 25.4535 63.2877 25.7439 63.4278 25.9864C63.5939 26.2742 63.9036 26.3147 64.1382 26.0793C64.3359 25.881 64.3401 25.5823 64.3857 25.3181C64.4975 24.6771 63.4415 24.5377 63.3845 25.1871Z" fill="white"/>
<path d="M54.3508 26.2448C54.0981 26.3963 53.9206 26.6316 53.8698 26.9219C53.7779 27.4461 54.4395 27.6142 54.7488 27.2879C54.7941 27.2403 54.824 27.1854 54.8824 27.1569C55.5654 26.8276 55.0198 25.8444 54.3508 26.2448Z" fill="white"/>
<path d="M50.8461 20.6818C50.5987 20.8766 50.4581 21.1324 50.5228 21.4524C50.603 21.8495 51.1171 22.0233 51.3825 21.6813C51.4288 21.6216 51.4589 21.5918 51.5167 21.5545C52.1064 21.1729 51.4095 20.2385 50.8461 20.6818Z" fill="white"/>
<path d="M19.345 31.8774C19.0644 32.0329 18.8283 32.222 18.6968 32.5239C18.5596 32.8384 18.5779 33.2635 18.9023 33.4586C19.0977 33.5761 19.2824 33.584 19.4757 33.4596C19.6524 33.3459 19.7006 33.1915 19.7755 33.0104C19.8114 32.9231 19.7841 32.9538 19.9218 32.8671C20.4695 32.5218 19.9196 31.5579 19.345 31.8774Z" fill="white"/>
<path d="M25.0397 31.2289C24.9242 30.9547 24.5593 30.7759 24.2774 30.9184C23.9076 31.1064 23.6165 31.4043 23.5729 31.8353C23.5443 32.1203 23.7153 32.3931 23.9971 32.4643C24.2485 32.5281 24.6003 32.4157 24.6813 32.1352C24.6941 32.0903 24.7036 32.0042 24.7293 31.9907C25.007 31.8442 25.1696 31.5359 25.0397 31.2289Z" fill="white"/>
<path d="M19.7007 37.988C19.4563 38.3065 19.1682 38.7329 19.3447 39.142C19.43 39.3401 19.6843 39.4613 19.8881 39.3634C20.2037 39.2119 20.3042 38.8798 20.5132 38.6178C20.9274 38.0996 20.1037 37.462 19.7007 37.988Z" fill="white"/>
<path d="M25.5321 36.1352C25.453 36.3391 25.3606 36.5244 25.4121 36.7448C25.4534 36.9232 25.6351 37.0657 25.8224 36.9779C26.0314 36.88 26.1119 36.7368 26.2271 36.5417C26.5337 36.0229 25.7388 35.6009 25.5321 36.1352Z" fill="white"/>
<path d="M28.6741 32.1972C28.5232 32.3049 28.4192 32.4317 28.3508 32.6032C28.1358 33.1428 28.9344 33.6694 29.2654 33.1381C29.2754 33.0969 29.2982 33.0696 29.3344 33.0557C29.9017 32.6495 29.2407 31.7921 28.6741 32.1972Z" fill="white"/>
<path d="M22.9717 43.2187C22.7941 43.6101 22.5915 43.9661 22.6 44.4033C22.6054 44.6649 22.9909 44.8161 23.1776 44.6396C23.49 44.3434 23.607 43.9476 23.7784 43.559C24.0062 43.042 23.2041 42.7065 22.9717 43.2187Z" fill="white"/>
<path d="M28.139 40.4146C27.9545 40.6682 27.7842 40.9371 27.6674 41.2286C27.5751 41.4576 27.6467 41.7115 27.8348 41.8672C27.9089 41.9281 27.9983 41.9753 28.096 41.9759C28.335 41.978 28.5691 41.8887 28.665 41.6497C28.7654 41.3991 28.8582 41.1481 28.9811 40.9074C29.2345 40.4084 28.4636 39.968 28.139 40.4146Z" fill="white"/>
<path d="M38.771 32.7742C38.494 33.0041 38.3691 33.2643 38.3804 33.6233C38.398 34.1694 39.2276 34.2279 39.4125 33.7584C39.4474 33.6698 39.42 33.697 39.4581 33.6683C40.0405 33.2309 39.3296 32.3099 38.771 32.7742Z" fill="white"/>
<path d="M36.5932 38.8684C36.317 39.2439 36.0234 39.7295 36.202 40.2024C36.3023 40.4682 36.6872 40.5797 36.9061 40.3883C37.1697 40.1584 37.2438 39.81 37.456 39.5368C37.888 38.9808 37.009 38.3027 36.5932 38.8684Z" fill="white"/>
<path d="M42.5158 35.2951C42.0878 35.5844 41.7091 36.0577 41.9009 36.5946C41.9827 36.8237 42.3072 36.9645 42.5272 36.8495C42.8297 36.6917 42.9474 36.3973 43.2138 36.2039C43.815 35.7656 43.1232 34.8849 42.5158 35.2951Z" fill="white"/>
<path d="M37.2466 47.7081C37.1328 48.0216 36.9687 48.3187 36.9256 48.6531C36.89 48.9291 37.2118 49.1045 37.4313 48.9446C37.7358 48.7218 37.8864 48.3765 38.0279 48.038C38.2397 47.5318 37.4323 47.1968 37.2466 47.7081Z" fill="white"/>
<path d="M44.8285 44.067C44.5404 43.9455 44.2548 44.095 44.1193 44.3556C44.0331 44.5207 43.9486 44.6861 43.8656 44.8528C43.7653 45.0545 43.7576 45.2288 43.7635 45.4508C43.773 45.8049 44.2497 45.9488 44.4996 45.7521C44.8211 45.4984 44.9412 45.1362 45.117 44.7767C45.2451 44.514 45.0873 44.176 44.8285 44.067Z" fill="white"/>
<path d="M41.0813 40.8848C40.9107 41.1024 40.7535 41.3473 40.6627 41.6091C40.41 42.3388 41.4153 42.7591 41.7642 42.0735C41.8465 41.9113 41.9239 41.7695 42.0366 41.6247C42.5175 41.011 41.5609 40.2716 41.0813 40.8848Z" fill="white"/>
<path d="M49.8509 33.6104C49.5821 33.4972 49.16 33.6166 49.071 33.9275C48.9703 34.2788 48.8335 34.608 48.6917 34.944C48.5686 35.2353 48.7127 35.589 49.0041 35.7116C49.3203 35.8449 49.6198 35.678 49.7716 35.3992C49.9448 35.0818 50.0663 34.7361 50.1686 34.3902C50.2589 34.0824 50.1704 33.7447 49.8509 33.6104Z" fill="white"/>
<path d="M48.6221 39.3778C48.4972 39.0819 48.0893 38.8713 47.783 39.0362C47.4184 39.2324 47.0701 39.5537 47.0621 40.0016C47.0568 40.3095 47.195 40.5925 47.5151 40.6734C47.8025 40.7465 48.1336 40.6146 48.2459 40.3219C48.2522 40.3046 48.2778 40.2422 48.2891 40.2099C48.5924 40.0545 48.7607 39.7074 48.6221 39.3778Z" fill="white"/>
<path d="M55.659 35.704C55.4131 36.0084 55.1223 36.3663 55.0759 36.7649C55.0317 37.1434 55.4943 37.4433 55.8053 37.1852C56.0816 36.9559 56.2481 36.6132 56.4796 36.3395C56.9102 35.8294 56.0794 35.1838 55.659 35.704Z" fill="white"/>
<path d="M51.9103 45.1222C51.5847 44.9317 51.2383 45.0867 51.07 45.3983C50.9363 45.6458 50.8796 45.8747 50.8934 46.1566C50.9159 46.5986 51.5904 46.7748 51.8313 46.4063C51.9201 46.2706 51.9873 46.1222 52.0814 45.9901C52.2869 45.7014 52.2234 45.3053 51.9103 45.1222Z" fill="white"/>
<path d="M46.5909 49.516C46.505 49.6072 46.4424 49.712 46.4086 49.8321C46.2768 50.3005 46.8462 50.7285 47.1902 50.289C47.189 50.2895 47.1877 50.2899 47.1864 50.2909C47.911 49.9641 47.1772 48.8934 46.5909 49.516Z" fill="white"/>
<path d="M55.6017 48.1997C55.3847 48.5498 55.2283 48.8508 55.2548 49.2711C55.2737 49.5671 55.684 49.7331 55.9042 49.5366C56.1277 49.3376 56.2761 49.0979 56.4719 48.8738C56.9453 48.3307 55.971 47.6029 55.6017 48.1997Z" fill="white"/>
<path d="M54.5378 41.1977C54.4089 41.4888 54.1878 41.7586 54.2518 42.0925C54.2994 42.3386 54.5426 42.5847 54.8173 42.5193C55.2644 42.4125 55.4304 42.0388 55.6099 41.6501C55.9249 40.9699 54.8406 40.5124 54.5378 41.1977Z" fill="white"/>
<path d="M62.0615 35.2825C61.9145 35.4938 61.6551 35.6782 61.5814 35.9259C61.5062 36.1799 61.6655 36.3998 61.9351 36.3862C62.265 36.37 62.5313 36.0351 62.725 35.7961C63.0667 35.3744 62.3692 34.8401 62.0615 35.2825Z" fill="white"/>
<path d="M59.1724 38.7159C58.9056 38.9349 58.3841 39.4139 58.7046 39.7901C59.0321 40.1748 59.4784 39.648 59.7386 39.4526C60.2177 39.0926 59.6343 38.3362 59.1724 38.7159Z" fill="white"/>
<path d="M60.1412 44.0291C59.8747 44.4327 59.6146 44.9204 59.6011 45.4153C59.5947 45.6555 59.6892 45.8058 59.8921 45.9232C60.0009 45.9864 60.1543 45.9709 60.2677 45.9235C60.4853 45.8314 60.5419 45.6257 60.602 45.4199C60.6933 45.1046 60.8023 44.7969 60.96 44.5083C61.2182 44.035 60.4389 43.5784 60.1412 44.0291Z" fill="white"/>
<path d="M61.5034 48.3454C61.2437 48.3993 61.0924 48.5629 61.1288 48.8367C61.1568 49.0494 61.3802 49.0996 61.5291 49.0032C61.9626 49.0541 61.9917 48.2445 61.5034 48.3454Z" fill="white"/>
<path d="M63.3712 40.0547C63.0943 40.4971 62.7775 41.1741 63.258 41.587C63.4176 41.7243 63.6576 41.701 63.8203 41.5878C64.0195 41.4496 64.0605 41.2693 64.1085 41.0455C64.1441 40.8802 64.205 40.7397 64.2901 40.5919C64.5914 40.0694 63.6936 39.5397 63.3712 40.0547Z" fill="white"/>
<path d="M14.1685 17.9355C14.1685 17.9355 9.76654 20.0973 9.24758 23.0376C8.72862 25.9778 11.3764 27.8915 13.563 24.7669C14.774 23.0376 13.2176 20.0108 14.1685 17.9355Z" fill="#FFD338"/>
<path d="M12.4642 21.2796C12.4037 21.1732 9.18236 24.7961 11.3004 25.2983C12.7632 25.6448 12.9583 22.1532 12.4642 21.2796Z" fill="#FFEDAE"/>
<path d="M3.33039 33.9389C4.02233 34.0146 16.5947 32.3344 18.4975 32.4642C20.2976 32.5939 21.8616 33.6686 21.8616 32.9172C22.3589 37.7932 22.5427 51.2375 20.829 52.5241C18.7532 54.081 2.40598 53.6485 0.935596 52.5241C-0.21044 51.6484 -0.178003 39.5339 0.362579 33.9389H0.36799C0.36799 33.9389 2.63844 33.8686 3.33039 33.9389Z" fill="#DAC5B2"/>
<path d="M21.8495 32.7875C21.8549 32.8307 21.8603 32.8739 21.8603 32.9172C21.8603 33.6686 20.9846 34.0686 19.1844 33.9389C17.2816 33.8092 17.3951 35.4579 14.1678 35.8958C10.9405 36.3337 8.86469 34.766 8.11328 34.8687C7.35646 34.9714 6.21044 40.761 4.94547 40.7016C3.67511 40.6475 4.02108 34.0146 3.32914 33.9389C2.63719 33.8686 2.17769 36.0904 1.59927 35.8958C1.02084 35.6958 0.366739 33.9389 0.366739 33.9389H0.361328C0.518097 32.355 0.712705 31.29 0.934344 31.1657C4.65355 29.0034 19.9629 30.144 21.5197 31.1657C21.6333 31.2414 21.7468 31.836 21.8495 32.7875Z" fill="#F9F6F0"/>
<path d="M10.9682 31.1769C10.9682 31.1769 10.8915 30.6617 10.8417 29.8871C10.8223 29.4995 10.7969 29.0465 10.7969 28.56C10.8007 28.074 10.8093 27.555 10.8417 27.0355C10.8742 26.5166 10.9401 25.9992 11.0115 25.5149C11.0812 25.03 11.1975 24.584 11.3018 24.2039C11.3472 24.0126 11.4213 23.8434 11.4737 23.6926C11.5245 23.5406 11.5829 23.412 11.6348 23.3077C11.737 23.0995 11.7948 22.9811 11.7948 22.9811C11.8278 22.913 11.9099 22.8849 11.978 22.9184C12.0397 22.9487 12.0683 23.019 12.0483 23.0822L12.0435 23.0968C12.0435 23.0968 12.0056 23.2168 11.9397 23.4266C11.9029 23.5293 11.8629 23.6558 11.8316 23.8066C11.8007 23.9574 11.7483 24.1207 11.7153 24.3077C11.6348 24.6775 11.578 25.1159 11.5126 25.5862C11.4521 26.0576 11.4088 26.5636 11.3775 27.0723C11.3337 27.5793 11.3137 28.0897 11.2991 28.5681C11.2834 29.0465 11.265 29.4941 11.2618 29.8779C11.2494 30.6461 11.2412 31.1585 11.2412 31.1585C11.2402 31.2348 11.178 31.2953 11.1018 31.2942C11.0342 31.2931 10.978 31.2423 10.9682 31.1769Z" fill="black"/>
<path d="M18.4112 43.7871L17.8658 46.5144L19.4799 45.0153L17.1738 45.0732L19.4799 46.2262L18.4112 43.7871Z" fill="#FFFAC3"/>
<path d="M9.81904 38.7793L8.11133 40.9741L10.2256 40.3562L8.13728 39.3756L9.6839 41.4384L9.81904 38.7793Z" fill="#FFFAC3"/>
<path d="M14.6704 40.7109L13.3535 42.403L14.9834 41.9262L13.3735 41.1704L14.5655 42.7608L14.6704 40.7109Z" fill="#FFFAC3"/>
<path d="M3.83247 41.7383L2.51562 43.4303L4.14547 42.9535L2.53562 42.1978L3.7276 43.7882L3.83247 41.7383Z" fill="#FFFAC3"/>
<path d="M17.3477 37.0781L18.6548 38.7777L18.6023 37.0803L17.4671 38.4485L19.3057 37.6938L17.3477 37.0781Z" fill="#FFFAC3"/>
<path d="M13.3535 49.043L14.6606 50.7426L14.6087 49.0451L13.473 50.4133L15.3115 49.6587L13.3535 49.043Z" fill="#FFFAC3"/>
<path d="M5.62441 48.8281L5.40223 50.9602L6.53313 49.6936L4.76758 49.9039L6.62016 50.6229L5.62441 48.8281Z" fill="#FFFAC3"/>
<path d="M2.0767 31.7876C2.0767 31.7876 3.22761 31.907 4.95856 32.0135C5.82349 32.0752 6.83546 32.1049 7.91771 32.1514C9.00049 32.1941 10.1562 32.2017 11.3115 32.1973C12.4683 32.2 13.6252 32.18 14.708 32.1427C15.7918 32.1098 16.8038 32.0746 17.6698 32.0211C18.5358 31.9703 19.2586 31.9276 19.7629 31.8822C20.2668 31.8379 20.5549 31.813 20.5549 31.813C20.5965 31.8087 20.6338 31.8389 20.6381 31.88C20.6425 31.9184 20.6154 31.9535 20.5787 31.9622C20.5787 31.9622 20.2927 32.0222 19.7894 32.1022C19.2862 32.1779 18.5666 32.2882 17.699 32.3779C16.8314 32.4655 15.8178 32.5606 14.7285 32.6212C13.6392 32.6768 12.477 32.7158 11.3142 32.7325C10.1498 32.7439 8.98589 32.7071 7.89608 32.6558C6.80572 32.6103 5.7916 32.5039 4.92396 32.4157C3.18815 32.2271 2.04535 31.9876 2.04535 31.9876C1.99075 31.9762 1.95562 31.9227 1.96698 31.8681C1.97779 31.8162 2.02588 31.7827 2.0767 31.7876Z" fill="#BCB2A6"/>
<path d="M9.18278 44.4531L8.9633 47.1323L10.4775 44.7986L8.11133 45.4905L10.578 46.5122L9.18278 44.4531Z" fill="#FFFAC3"/>
</svg>
