<svg width="44" height="87" viewBox="0 0 44 87" fill="none" xmlns="http://www.w3.org/2000/svg">
<path d="M14.2769 54.7027C14.1952 54.4349 14.0814 54.0635 13.9449 53.6184C13.8753 53.3929 13.8003 53.1479 13.7213 52.8895C13.6337 52.6386 13.5373 52.3695 13.3894 52.1373C13.2515 51.8903 13.0514 51.7049 12.8459 51.6085C12.6451 51.4867 12.3848 51.6038 12.1525 51.6948C11.8708 51.8535 11.7443 52.0054 11.7483 52.2644C11.7516 52.5188 11.923 52.7891 12.101 53.0134C12.2904 53.2376 12.5173 53.421 12.7402 53.5816C12.9637 53.7429 13.1752 53.8948 13.3706 54.0354C13.7401 54.3078 14.0513 54.5367 14.2769 54.7027ZM14.5131 55.2823C14.5131 55.2823 13.8746 55.0513 13.0581 54.459C12.6451 54.1672 12.2375 53.7315 11.8299 53.2336C11.6332 52.9792 11.4156 52.7035 11.3467 52.3059C11.3152 52.1091 11.3527 51.8829 11.4598 51.6975C11.5589 51.5228 11.7516 51.3575 11.8667 51.2786C12.0521 51.1735 12.2128 51.0865 12.4169 51.047C12.5213 51.0349 12.627 51.0256 12.7315 51.0195C12.8345 51.0336 12.9383 51.0664 13.04 51.0938C13.4242 51.2491 13.6986 51.5396 13.8713 51.8213C14.2474 52.3835 14.4703 52.9458 14.5934 53.4404C14.835 54.4309 14.7561 55.1183 14.7561 55.1183L14.7541 55.133C14.7427 55.2321 14.653 55.3037 14.5533 55.2923C14.5406 55.2903 14.5258 55.2869 14.5131 55.2823Z" fill="#559350"/>
<path d="M14.4323 55.1063C14.4323 55.1063 14.4042 54.4283 14.7114 53.4786C14.866 53.0041 15.1324 52.476 15.5132 51.9499C15.6946 51.6842 15.9375 51.4225 16.2568 51.2258C16.3418 51.1822 16.4248 51.1341 16.5145 51.0986L16.8056 51.0303C16.9569 51.0123 16.9495 51.0102 17.1101 51.0276C17.238 51.0404 17.3511 51.0899 17.4575 51.1729C17.6764 51.3496 17.7112 51.6106 17.7092 51.796C17.7038 51.9914 17.6623 52.1654 17.6068 52.3274C17.4943 52.6513 17.3451 52.9385 17.1891 53.2089C16.8819 53.7483 16.5647 54.2563 16.1698 54.5869C15.7836 54.9229 15.3874 55.119 15.0969 55.21C14.8031 55.2971 14.6264 55.3004 14.6264 55.3004C14.5233 55.3024 14.4377 55.2214 14.4337 55.119L14.4323 55.1063ZM14.9035 54.8265C14.9142 54.8212 14.9256 54.8178 14.937 54.8118C15.1665 54.6934 15.4871 54.4972 15.8231 54.1914C16.1531 53.8869 16.5861 53.5362 16.8879 53.0335C17.0318 52.7825 17.1603 52.5054 17.2192 52.219C17.2929 51.9473 17.2614 51.6079 17.1503 51.5738C17.1275 51.5637 17.0861 51.5477 17.0539 51.5477C17.0573 51.537 16.8846 51.545 16.8812 51.557L16.7072 51.6046C16.651 51.6313 16.5975 51.6682 16.5426 51.6969C16.3298 51.8402 16.1363 52.0436 15.9871 52.2806C15.6825 52.7497 15.5199 53.2751 15.3459 53.7055C15.1732 54.1445 15.03 54.5106 14.9296 54.767C14.9202 54.7884 14.9122 54.8071 14.9035 54.8265Z" fill="#559350"/>
<path d="M28.9887 72.8752C29.8789 81.9441 21.2115 87.1445 14.1371 86.9972C7.06271 86.85 0.583957 82.7137 0.0351378 74.3944C-0.0117126 73.6917 -0.0117126 73.009 0.0351378 72.333C0.0351378 72.333 0.938681 74.2539 3.21427 73.5578C5.48987 72.8551 5.8379 68.7724 7.58475 68.0161C9.33829 67.2598 9.16428 71.7507 11.8414 71.7507C14.5253 71.7507 14.6993 67.494 16.5064 67.2598C18.3202 67.0255 18.9025 73.8657 21.3521 73.7118C23.795 73.5578 23.7415 70.4657 24.906 70.0574C26.0706 69.6492 25.8966 73.946 28.9887 72.8752Z" fill="#559350"/>
<path d="M28.9887 72.8752C25.8966 73.946 26.0706 69.6492 24.906 70.0574C23.7415 70.4657 23.795 73.5579 21.3521 73.7118C18.9025 73.8657 18.3202 67.0256 16.5064 67.2598C14.6993 67.4941 14.5253 71.7508 11.8415 71.7508C9.1643 71.7508 9.33831 67.2598 7.58477 68.0161C5.83791 68.7724 5.48988 72.8551 3.21429 73.5578C0.9387 74.2539 0.0351562 72.3331 0.0351562 72.3331C0.463503 65.6401 5.13517 60.3862 11.2525 59.1011C11.8348 58.974 12.4371 58.887 13.0462 58.8401C14.8466 58.6996 16.5332 58.8535 18.086 59.2484C18.086 59.2551 18.086 59.2551 18.086 59.2551C24.3371 60.8748 28.3663 66.5169 28.9887 72.8752Z" fill="#FFE67F"/>
<path d="M17.0366 55.3604C17.4917 55.7553 18.0539 59.0683 18.0874 59.249C16.7454 59.5977 12.5624 59.8045 11.2539 59.1018C11.2539 59.1018 11.7893 55.5411 12.4319 55.3604C13.0677 55.1864 16.5681 54.9589 17.0366 55.3604Z" fill="#FFE67F"/>
<path d="M13.1903 56.1595C13.1575 56.1033 13.0806 56.0959 13.0344 56.1394C12.7091 56.4459 12.6924 56.8408 12.7051 57.2691C12.7212 57.8227 12.584 58.3755 12.6342 58.9283C12.6502 59.1057 12.8845 59.1003 12.9059 58.9283C12.9795 58.3414 13.0096 57.8019 13.1977 57.2384C13.3242 56.8589 13.4018 56.5195 13.1903 56.1595Z" fill="#FFCD00"/>
<path d="M14.9483 57.4728C14.9797 57.0344 14.965 56.6871 14.8298 56.2661C14.7997 56.1724 14.6678 56.1711 14.6384 56.2661C14.5018 56.6991 14.5012 57.0231 14.554 57.4728C14.6083 57.9387 14.5634 58.381 14.5828 58.8442C14.5935 59.0925 14.9637 59.0938 14.9697 58.8442C14.9811 58.3824 14.9141 57.9407 14.9483 57.4728Z" fill="#FFCD00"/>
<path d="M16.5685 57.4066C16.5397 56.9743 16.4841 56.57 16.2204 56.2139C16.1843 56.1651 16.1053 56.1664 16.0866 56.2313C15.9748 56.6195 16.0377 56.9823 16.1388 57.3665C16.28 57.9046 16.3182 58.4219 16.3871 58.9694C16.4099 59.1515 16.6722 59.1628 16.6802 58.9694C16.7003 58.4567 16.6026 57.9206 16.5685 57.4066Z" fill="#FFCD00"/>
<path d="M5.53119 73.8343C5.43615 73.59 5.19052 73.3424 4.9034 73.3625C4.5393 73.3879 4.29099 73.5719 4.07816 73.8624C3.55143 74.5806 4.74679 75.5109 5.3197 74.8208C5.56935 74.519 5.68045 74.2192 5.53119 73.8343Z" fill="#FAF9F4"/>
<path d="M3.28369 74.9316C2.60369 74.9316 2.60302 75.9878 3.28369 75.9878C3.96302 75.9878 3.96436 74.9316 3.28369 74.9316Z" fill="#FFF8D6"/>
<path d="M15.5274 71.5595C15.4906 71.4565 15.4537 71.3514 15.3935 71.2597C15.188 70.9471 14.8333 70.8648 14.5 71.0254C14.4023 71.0723 14.3186 71.1446 14.241 71.2202C13.9813 71.4732 13.9713 71.8453 14.1205 72.1532C14.1299 72.1733 14.1399 72.1927 14.1493 72.2128C14.3039 72.5313 14.832 72.6866 15.1224 72.4678C15.1392 72.455 15.1566 72.4423 15.1733 72.4289C15.433 72.2335 15.6492 71.9029 15.5274 71.5595Z" fill="#FFF8D6"/>
<path d="M12.0165 70.8086C11.4911 70.8086 10.9885 71.2704 11.0126 71.8125C11.0366 72.3567 11.4536 72.8165 12.0165 72.8165C12.5419 72.8165 13.0445 72.3547 13.0204 71.8125C12.9963 71.2684 12.5794 70.8086 12.0165 70.8086Z" fill="#FFF8D6"/>
<path d="M18.2913 73.3652C17.3831 73.3652 17.3811 74.7768 18.2913 74.7768C19.2002 74.7768 19.2015 73.3652 18.2913 73.3652Z" fill="#FFF8D6"/>
<path d="M20.2165 73.9609C19.6443 73.9609 19.6436 74.8498 20.2165 74.8498C20.7888 74.8498 20.7895 73.9609 20.2165 73.9609Z" fill="#FFF8D6"/>
<path d="M23.7467 74.4898C23.5988 74.1645 23.1831 74.1464 22.9054 74.2696C22.6838 74.3673 22.4851 74.5641 22.386 74.7829C22.2314 75.1249 22.2595 75.5151 22.5801 75.7547C22.8578 75.9622 23.325 75.9876 23.5693 75.6958C23.8792 75.325 23.9475 74.9315 23.7467 74.4898Z" fill="#FFF8D6"/>
<path d="M22.0146 76.5977C21.5501 76.5977 21.5495 77.3192 22.0146 77.3192C22.4791 77.3192 22.4798 76.5977 22.0146 76.5977Z" fill="#FFF8D6"/>
<path d="M27.3548 72.2414C27.4539 72.3672 27.3227 72.1631 27.3059 72.1336C27.2377 72.0112 27.1741 71.8954 27.0724 71.7936C26.8154 71.5353 26.4412 71.4409 26.1079 71.6257C25.4574 71.9851 25.5986 72.807 25.9587 73.3183C26.2632 73.7507 26.8167 73.9126 27.2638 73.5673C27.7196 73.2166 27.6828 72.659 27.3548 72.2414Z" fill="#FFF8D6"/>
<path d="M27.3264 74.6992C27.0032 74.6992 27.0032 75.2012 27.3264 75.2012C27.6497 75.2012 27.6504 74.6992 27.3264 74.6992Z" fill="#FAF9F4"/>
<path d="M7.63877 70.1363C7.35365 69.9696 6.87445 70.0452 6.72653 70.3752C6.58933 70.6817 6.55318 70.9026 6.71181 71.2118C6.81956 71.4226 7.13881 71.5632 7.36771 71.4789C7.61066 71.3885 7.76326 71.2821 7.87838 71.0478C8.037 70.7259 7.96472 70.327 7.63877 70.1363Z" fill="#FFF8D6"/>
<path opacity="0.14" d="M2.22987 71.6746C1.4535 72.3746 1.50838 79.9952 7.08224 83.3731C12.6561 86.751 19.7432 84.0558 19.4086 82.7667C19.0739 81.477 14.2055 82.0908 9.14634 78.3421C5.72157 75.8048 4.1822 69.9143 2.22987 71.6746Z" fill="#28407F"/>
<path fill-rule="evenodd" clip-rule="evenodd" d="M14.3378 2C14.4931 2 14.6189 2.17672 14.6189 2.39472V55.0236C14.6189 55.2416 14.4931 55.4183 14.3378 55.4183C14.1825 55.4183 14.0566 55.2416 14.0566 55.0236V2.39472C14.0566 2.17672 14.1825 2 14.3378 2Z" fill="#559350"/>
<path fill-rule="evenodd" clip-rule="evenodd" d="M30.8625 0C31.0282 0 31.1625 0.115788 31.1625 0.258621V34.7414C31.1625 34.8842 31.0282 35 30.8625 35C30.6968 35 30.5625 34.8842 30.5625 34.7414V0.258621C30.5625 0.115788 30.6968 0 30.8625 0Z" fill="#EA81A0"/>
<path d="M30.3961 24.2789C30.2338 24.1119 29.9774 23.8529 29.6866 23.5236C29.558 23.3819 29.4236 23.2236 29.2765 23.0712C29.1341 22.9095 28.9638 22.7704 28.7823 22.6611C28.5988 22.5717 28.4139 22.5213 28.2669 22.5756C28.1238 22.6512 27.9621 22.7903 27.8561 23.0129C27.8157 23.0745 27.7906 23.1275 27.7846 23.1672C27.7747 23.2123 27.7455 23.2534 27.7422 23.3031L27.725 23.4528L27.7501 23.5998C27.8071 23.7973 27.9814 23.9615 28.1728 24.0801C28.3696 24.198 28.6008 24.2398 28.8121 24.2696C29.0267 24.2941 29.2281 24.3041 29.4156 24.3166C29.7899 24.3306 30.1046 24.3153 30.3239 24.2882C30.3504 24.2855 30.3722 24.2822 30.3961 24.2789ZM30.7796 24.5505C30.7796 24.5505 30.6538 24.6174 30.4166 24.7035C30.1775 24.7744 29.823 24.8579 29.3911 24.8387C29.1758 24.8287 28.9433 24.7903 28.7081 24.7075C28.4729 24.626 28.2351 24.5167 27.9986 24.3763C27.7647 24.2352 27.5242 24.0444 27.3798 23.7456L27.303 23.5084C27.2944 23.4269 27.2917 23.3428 27.2891 23.258C27.3003 23.1036 27.354 22.8844 27.4096 22.7857C27.4428 22.7148 27.452 22.685 27.5083 22.5816L27.6581 22.3895C27.7422 22.2557 27.9138 22.159 28.0628 22.0715C28.4245 21.9231 28.7796 22.0331 29.0426 22.1537C29.5574 22.4266 29.933 22.7625 30.196 23.0937C30.722 23.7542 30.8658 24.3127 30.8658 24.3127L30.8731 24.3405C30.8943 24.4253 30.8538 24.5114 30.7796 24.5505Z" fill="#EA81A0"/>
<path d="M30.8759 24.3124C30.8759 24.3124 31.0196 23.7539 31.5456 23.0934C31.8086 22.7622 32.1843 22.4263 32.699 22.1534C32.962 22.0328 33.3171 21.9235 33.6788 22.0712C33.8279 22.1587 33.9994 22.2554 34.0836 22.3892L34.2333 22.5813C34.2896 22.6847 34.2989 22.7145 34.332 22.7854C34.3877 22.8841 34.4413 23.1033 34.4526 23.2577C34.4499 23.3425 34.4466 23.426 34.4387 23.5081L34.3618 23.7453C34.2174 24.0441 33.9769 24.2349 33.7431 24.376C33.5066 24.5164 33.2687 24.6257 33.0335 24.7072C32.7984 24.79 32.5658 24.8284 32.3505 24.8384C31.9186 24.8583 31.5642 24.7741 31.325 24.7032C31.0879 24.6171 30.962 24.5502 30.962 24.5502C30.8845 24.5091 30.848 24.421 30.8692 24.3402L30.8759 24.3124ZM31.3449 24.2786C31.3687 24.2819 31.3913 24.2846 31.4178 24.2879C31.6377 24.3157 31.9524 24.3303 32.326 24.3164C32.5128 24.3038 32.7149 24.2938 32.9295 24.2693C33.1402 24.2395 33.3721 24.1978 33.5688 24.0798C33.7603 23.9619 33.9345 23.797 33.9915 23.5996L34.0167 23.4525L33.9994 23.3028C33.9961 23.2531 33.967 23.212 33.957 23.1669C33.9511 23.1272 33.9259 23.0742 33.8855 23.0126C33.7795 22.79 33.6172 22.6515 33.4748 22.5753C33.3277 22.521 33.1435 22.5714 32.9593 22.6608C32.7778 22.7695 32.6076 22.9086 32.4652 23.0709C32.3174 23.2233 32.1836 23.3816 32.0544 23.5234C31.7629 23.8526 31.5072 24.1116 31.3449 24.2786Z" fill="#EA81A0"/>
<path d="M30.9123 24.0027C29.5907 24.1942 26.6844 31.4535 26.6844 31.4535C26.6844 31.4535 19.2388 32.2932 19.0076 33.5808C18.7771 34.8683 23.8556 38.9988 23.8556 38.9988C23.8556 38.9988 20.5466 47.2231 21.9126 47.9305C23.2786 48.6379 31.0163 43.7126 31.0163 43.7126C31.0163 43.7126 39.4974 47.8547 41.0555 46.9591C42.6136 46.0635 38.6891 38.8594 38.6891 38.8594C38.6891 38.8594 44.0572 34.4764 43.9995 33.1889C43.9419 31.9013 35.284 31.4535 35.284 31.4535C35.284 31.4535 32.0703 23.835 30.9123 24.0027Z" fill="#F4D03C"/>
<path d="M28.5598 34.8326C28.5598 34.4179 28.2239 34.082 27.8092 34.082C27.3945 34.082 27.0586 34.4179 27.0586 34.8326C27.0586 35.2473 27.3945 35.5832 27.8092 35.5832C28.2239 35.5832 28.5598 35.2473 28.5598 34.8326Z" fill="black"/>
<path d="M33.8717 35.2375C34.2862 35.2375 34.6223 34.9014 34.6223 34.4869C34.6223 34.0724 34.2862 33.7363 33.8717 33.7363C33.4571 33.7363 33.1211 34.0724 33.1211 34.4869C33.1211 34.9014 33.4571 35.2375 33.8717 35.2375Z" fill="black"/>
<path d="M29.112 36.0839C29.112 36.0839 29.159 36.1402 29.2412 36.2389C29.3233 36.3389 29.4578 36.4708 29.6208 36.6125C29.7824 36.7563 29.9931 36.8901 30.2236 36.9868C30.3382 37.0372 30.4614 37.0703 30.5873 37.0942C30.7145 37.112 30.8444 37.114 30.9749 37.1034L31.1869 37.073C31.2558 37.0591 31.3015 37.0412 31.3611 37.0279C31.4797 36.9869 31.5996 36.9365 31.7089 36.8762C31.9242 36.7477 32.1183 36.5927 32.2607 36.4304C32.4018 36.2681 32.5217 36.1236 32.59 36.0137C32.6589 35.907 32.6986 35.8467 32.6986 35.8467L32.7059 35.8355C32.7569 35.7566 32.8623 35.7341 32.9411 35.7851C33.0001 35.8235 33.0272 35.8918 33.0166 35.9567C33.0166 35.9567 33.0007 36.0481 32.951 36.1899C32.8974 36.329 32.8245 36.5337 32.6754 36.749C32.529 36.963 32.3316 37.2141 32.0434 37.4062C31.8984 37.5009 31.742 37.5864 31.5645 37.6473C31.4724 37.6738 31.3684 37.7063 31.2829 37.7242C31.1941 37.7368 31.1498 37.75 31.0246 37.76C30.8377 37.7686 30.6509 37.756 30.4687 37.7209C30.2885 37.6798 30.117 37.6222 29.9619 37.546C29.6519 37.3903 29.424 37.169 29.2518 36.9756C29.0795 36.7788 28.9782 36.5887 28.9066 36.4582C28.8404 36.327 28.8112 36.2396 28.8112 36.2396C28.7821 36.1501 28.8304 36.0541 28.9199 36.0243C28.9881 36.0017 29.0603 36.0249 29.104 36.0766L29.112 36.0839Z" fill="black"/>
<path d="M28.623 37.4638C28.623 36.6006 27.9227 35.9004 27.0595 35.9004C26.1963 35.9004 25.4961 36.6006 25.4961 37.4638C25.4961 38.327 26.1963 39.0273 27.0595 39.0273C27.9227 39.0273 28.623 38.3277 28.623 37.4638Z" fill="#EA81A0"/>
<path d="M36.998 37.2998C36.998 36.4366 36.2977 35.7363 35.4345 35.7363C34.5713 35.7363 33.8711 36.4366 33.8711 37.2998C33.8711 38.163 34.5713 38.8632 35.4345 38.8632C36.2977 38.8632 36.998 38.1637 36.998 37.2998Z" fill="#EA81A0"/>
<path opacity="0.14" d="M24.1976 40.6957C23.5298 41.4112 23.3708 42.489 23.1396 43.4165C22.8759 44.4745 22.5308 45.5072 22.2598 46.5619C22.1161 47.121 22.8852 47.6702 23.2979 47.1661C23.971 46.344 24.2705 45.3993 24.5527 44.385C24.8336 43.3774 25.3543 42.2214 25.3635 41.1786C25.3688 40.6003 24.6043 40.2598 24.1976 40.6957Z" fill="#5A287F"/>
<path opacity="0.14" d="M24.3496 36.7288C23.9832 36.002 22.9789 35.4402 22.3542 34.8818C21.7964 34.3836 21.2074 33.484 20.374 33.3601C20.0667 33.3144 19.8275 33.5138 19.7705 33.7655C19.593 34.5532 20.6125 35.5204 21.1001 36.11C21.6592 36.7864 22.6477 37.9226 23.7169 37.7298C24.221 37.6384 24.5847 37.1958 24.3496 36.7288Z" fill="#5A287F"/>
<path opacity="0.14" d="M39.6476 45.517C38.6492 44.8784 37.3282 44.7214 36.2332 44.2609C34.9546 43.7237 33.7356 42.7558 32.3014 42.7598C31.7787 42.7611 31.6786 43.4024 32.0529 43.676C33.2825 44.5743 34.734 45.3295 36.1464 45.8966C37.1825 46.3126 38.6055 46.9983 39.6476 46.2861C39.9265 46.0947 39.941 45.7051 39.6476 45.517Z" fill="#5A287F"/>
</svg>
