<svg width="44" height="44" viewBox="0 0 44 44" fill="none" xmlns="http://www.w3.org/2000/svg">
<rect width="44" height="44" rx="8" fill="#191B21"/>
<path d="M22.0001 26.5C20.8066 26.5 19.662 26.0259 18.8181 25.182C17.9742 24.3381 17.5001 23.1935 17.5001 22C17.5001 20.8065 17.9742 19.6619 18.8181 18.818C19.662 17.9741 20.8066 17.5 22.0001 17.5C23.1935 17.5 24.3381 17.9741 25.182 18.818C26.026 19.6619 26.5001 20.8065 26.5001 22C26.5001 23.1935 26.026 24.3381 25.182 25.182C24.3381 26.0259 23.1935 26.5 22.0001 26.5ZM21.2501 13.75H22.7501V16H21.2501V13.75ZM21.2501 28H22.7501V30.25H21.2501V28ZM15.6363 16.6967L16.6968 15.6362L18.2876 17.227L17.2271 18.2875L15.6363 16.6975V16.6967ZM25.7126 26.773L26.7731 25.7125L28.3638 27.3032L27.3033 28.3637L25.7126 26.773ZM27.3033 15.6355L28.3638 16.6967L26.7731 18.2875L25.7126 17.227L27.3033 15.6362V15.6355ZM17.2271 25.7125L18.2876 26.773L16.6968 28.3637L15.6363 27.3032L17.2271 25.7125ZM30.2501 21.25V22.75H28.0001V21.25H30.2501ZM16.0001 21.25V22.75H13.7501V21.25H16.0001Z" fill="#BDC3D3"/>
</svg>
