<?xml version="1.0" encoding="utf-8"?>
<!-- Generator: Adobe Illustrator 25.0.0, SVG Export Plug-In . SVG Version: 6.00 Build 0)  -->
<svg version="1.1" id="Orai" xmlns="http://www.w3.org/2000/svg" xmlns:xlink="http://www.w3.org/1999/xlink" x="0px" y="0px" viewBox="0 0 2000 550" style="enable-background:new 0 0 2000 550;" xml:space="preserve">
    <style type="text/css">
	.st0{fill:#FFFFFF;}
	.st1{opacity:0.75;}
	.st2{fill-rule:evenodd;clip-rule:evenodd;fill:#FFFFFF;}
</style>
    <path id="Line" class="st0" d="M115.1,434.1c-20.7-20.7-36.9-44.8-48.2-71.5c-8.5-20-13.9-41-16.3-62.6H0.3
	c5.9,66,35.2,125.2,79.4,169.5c44.2,44.2,103.5,73.5,169.5,79.4v-50.2c-21.6-2.4-42.5-7.8-62.6-16.3
	C159.8,471,135.7,454.8,115.1,434.1z M0.3,250h50.2c2.4-21.6,7.8-42.5,16.3-62.6c11.3-26.8,27.6-50.9,48.2-71.5
	c20.7-20.7,44.7-36.9,71.5-48.2c20-8.5,41-13.9,62.6-16.3V1.1C117.2,13,12.2,118.1,0.3,250z M433.3,115.9
	c20.7,20.7,36.9,44.8,48.2,71.5c8.5,20,13.9,41,16.3,62.6H548c-5.9-66-35.2-125.2-79.4-169.5C424.4,36.3,365.1,7.1,299.2,1.1v50.2
	c21.6,2.4,42.5,7.8,62.6,16.3C388.5,79,412.6,95.2,433.3,115.9z M481.5,362.6c-11.3,26.8-27.6,50.8-48.2,71.5
	c-20.7,20.7-44.7,36.9-71.5,48.2c-20,8.5-41,13.9-62.6,16.3v50.2c66-6,125.2-35.2,169.5-79.4C512.9,425.2,542.1,366,548,300h-50.2
	C495.4,321.6,490,342.5,481.5,362.6z" />
    <g id="AI">
        <g id="Logo-Blue_1_">
            <g class="st1">
                <path id="Path-3_4_" class="st2" d="M274.1,373.3c3,0,5.6,2.4,5.6,5.6l0,0v33.2c0.1,3-2.2,5.7-5.2,5.8c-3,0.1-5.7-2.2-5.8-5.2
				c0-0.2,0-0.3,0-0.5V379C268.6,375.8,271.1,373.3,274.1,373.3z" />
                <path id="Path-13_8_" class="st2" d="M317.7,381.7c3,0,5.5,2.5,5.5,5.5l0,0v22c0.1,3-2.2,5.6-5.2,5.7s-5.6-2.2-5.7-5.2
				c0-0.2,0-0.3,0-0.5v-22C312.2,384.2,314.6,381.7,317.7,381.7C317.6,381.7,317.6,381.7,317.7,381.7z" />
                <path id="Path-13_1_" class="st2" d="M230.6,381.7c3,0,5.5,2.5,5.5,5.5l0,0v22c0.1,3-2.2,5.6-5.2,5.7s-5.6-2.2-5.7-5.2
				c0-0.2,0-0.3,0-0.5v-22C225.1,384.2,227.5,381.7,230.6,381.7C230.5,381.7,230.5,381.7,230.6,381.7z" />
            </g>
            <g class="st1">
                <path id="Path-3_1_" class="st2" d="M274.1,132.2c3,0,5.6,2.4,5.6,5.6l0,0V171c0.1,3-2.2,5.7-5.2,5.8s-5.7-2.2-5.8-5.2
				c0-0.2,0-0.3,0-0.5v-33.2C268.6,134.6,271.1,132.2,274.1,132.2z" />
                <path id="Path-13_3_" class="st2" d="M317.7,140.6c3,0,5.5,2.5,5.5,5.5l0,0v22c0.1,3-2.2,5.6-5.2,5.7s-5.6-2.2-5.7-5.2
				c0-0.2,0-0.3,0-0.5v-22C312.2,143.1,314.6,140.6,317.7,140.6C317.6,140.6,317.6,140.6,317.7,140.6z" />
                <path id="Path-13_2_" class="st2" d="M230.6,140.6c3,0,5.5,2.5,5.5,5.5l0,0v22c0.1,3-2.2,5.6-5.2,5.7s-5.6-2.2-5.7-5.2
				c0-0.2,0-0.3,0-0.5v-22C225.1,143.1,227.5,140.6,230.6,140.6C230.5,140.6,230.5,140.6,230.6,140.6z" />
            </g>
            <g class="st1">
                <path id="Path-3_3_" class="st2" d="M175.8,274.9c0,3-2.4,5.6-5.6,5.6l0,0H137c-3,0.1-5.7-2.2-5.8-5.2s2.2-5.7,5.2-5.8
				c0.2,0,0.3,0,0.5,0h33.2C173.4,269.4,175.8,271.9,175.8,274.9z" />
                <path id="Path-13_7_" class="st2" d="M167.4,318.5c0,3-2.5,5.5-5.5,5.5l0,0h-22c-3,0.1-5.6-2.2-5.7-5.2s2.2-5.6,5.2-5.7
				c0.2,0,0.3,0,0.5,0h22C164.9,313,167.4,315.4,167.4,318.5C167.4,318.4,167.4,318.4,167.4,318.5z" />
                <path id="Path-13_6_" class="st2" d="M167.4,231.4c0,3-2.5,5.5-5.5,5.5l0,0h-22c-3,0.1-5.6-2.2-5.7-5.2s2.2-5.6,5.2-5.7
				c0.2,0,0.3,0,0.5,0h22C164.9,225.9,167.4,228.3,167.4,231.4C167.4,231.3,167.4,231.3,167.4,231.4z" />
            </g>
            <g class="st1">
                <path id="Path-3_2_" class="st2" d="M417,274.9c0,3-2.4,5.6-5.6,5.6l0,0h-33.2c-3,0.1-5.7-2.2-5.8-5.2c-0.1-3,2.2-5.7,5.2-5.8
				c0.2,0,0.3,0,0.5,0h33.2C414.6,269.4,417,271.9,417,274.9z" />
                <path id="Path-13_5_" class="st2" d="M408.6,318.5c0,3-2.5,5.5-5.5,5.5l0,0h-22c-3,0.1-5.6-2.2-5.7-5.2s2.2-5.6,5.2-5.7
				c0.2,0,0.3,0,0.5,0h22C406.1,313,408.6,315.4,408.6,318.5C408.6,318.4,408.6,318.4,408.6,318.5z" />
                <path id="Path-13_4_" class="st2" d="M408.6,231.4c0,3-2.5,5.5-5.5,5.5l0,0h-22c-3,0.1-5.6-2.2-5.7-5.2s2.2-5.6,5.2-5.7
				c0.2,0,0.3,0,0.5,0h22C406.1,225.9,408.6,228.3,408.6,231.4C408.6,231.3,408.6,231.3,408.6,231.4z" />
            </g>
            <path class="st0" d="M389.4,153.5h-230c-3.1,0-5.5,2.5-5.5,5.5v231c0,3,2.5,5.5,5.5,5.5h230c3,0,5.5-2.5,5.5-5.5V159
			C394.9,156,392.4,153.5,389.4,153.5z M277.4,312.4h-7.6v-21.5h-45.7v21.5h-7.5V271c0-10.4,2.7-18.4,8.1-23.9
			c5.5-5.5,12.9-8.3,22.3-8.4c9.4,0,16.9,2.8,22.2,8.4c5.3,5.6,8.2,13.5,8.2,23.9L277.4,312.4L277.4,312.4z M330.4,246.1h-14.8v59.6
			h14.8v6.7h-37.2v-6.7H308v-59.6h-14.8v-6.7h37.2L330.4,246.1L330.4,246.1z M247,245.6c-7.3,0-12.8,2.1-16.8,6.2
			c-4,4.1-6,10.2-6,18.4v14h45.7v-14c0-8.1-2-14.3-6-18.4C259.9,247.6,254.3,245.6,247,245.6z" />
        </g>
    </g>
    <g id="Oraichain">
        <path class="st0" d="M796.4,380.1c-17,0-31.5-2.8-43.7-8.4s-21.7-14.3-28.6-26c-6.9-11.7-10.6-26.3-11.1-43.8
		c-0.2-8.2-0.3-16.3-0.3-24.3s0.1-16.2,0.3-24.6c0.6-17.3,4.4-31.8,11.4-43.4c7-11.6,16.7-20.4,29-26.3c12.3-5.9,26.6-8.9,43-8.9
		s30.8,3,43.1,8.9c12.4,5.9,22.1,14.7,29.1,26.3s10.9,26.1,11.4,43.4c0.4,8.4,0.6,16.6,0.6,24.6s-0.2,16.1-0.6,24.3
		c-0.6,17.5-4.3,32.1-11.1,43.8c-6.9,11.7-16.4,20.4-28.7,26C828,377.4,813.4,380.1,796.4,380.1z M796.4,347.2
		c12.4,0,22.5-3.7,30.3-11s12-19.3,12.6-35.8c0.4-8.4,0.6-16.1,0.6-23.3c0-7.1-0.2-14.8-0.6-23c-0.4-11-2.4-20-6.1-27
		c-3.7-6.9-8.7-12-15-15.1s-13.5-4.7-21.7-4.7c-8,0-15.1,1.6-21.4,4.7c-6.3,3.1-11.3,8.2-15,15.1c-3.7,7-5.8,16-6.1,27
		c-0.2,8.2-0.3,15.9-0.3,23s0.1,14.9,0.3,23.3c0.6,16.6,4.8,28.5,12.6,35.8C774.2,343.6,784.2,347.2,796.4,347.2z" />
        <path class="st0" d="M921.5,377.2c-1.9,0-3.5-0.7-4.9-2c-1.3-1.3-2-3-2-4.9V235.9c0-2.1,0.7-3.8,2-5.1s3-2,4.9-2h23.1
		c1.9,0,3.6,0.7,5,2s2.1,3,2.1,5.1v11.7c4.4-6.1,10-10.8,17-14c6.9-3.2,15-4.9,24.1-4.9h11.7c2.1,0,3.8,0.7,5,2s1.9,3,1.9,4.9v20.6
		c0,1.9-0.6,3.5-1.9,4.9c-1.2,1.3-2.9,2-5,2h-22.1c-9.1,0-16.2,2.5-21.3,7.6c-5,5-7.6,12.1-7.6,21.3v78.6c0,1.9-0.7,3.5-2,4.9
		c-1.3,1.3-3,2-5.1,2h-24.9V377.2z" />
        <path class="st0" d="M1074.7,380.1c-9.9,0-18.9-2-26.9-5.9s-14.3-9.1-19-15.7s-7-13.9-7-22.1c0-13.3,5.4-23.9,16.3-31.9
		c10.9-7.9,25-13.2,42.6-15.9l39.1-5.7v-6c0-8-2-14.2-6-18.6s-10.9-6.6-20.6-6.6c-6.9,0-12.4,1.4-16.7,4.1c-4.3,2.8-7.5,6.4-9.6,11
		c-1.5,2.5-3.7,3.7-6.6,3.7h-22.6c-2.1,0-3.7-0.6-4.7-1.7s-1.6-2.7-1.6-4.6c0.2-3,1.5-6.8,3.9-11.1c2.4-4.4,6-8.6,10.9-12.7
		c4.9-4.1,11.2-7.6,19-10.4c7.8-2.9,17.2-4.3,28.3-4.3c12,0,22.1,1.5,30.4,4.4c8.3,3,14.9,6.9,19.9,11.9s8.6,10.8,10.9,17.4
		c2.3,6.7,3.4,13.7,3.4,21.1v89.7c0,1.9-0.7,3.5-2,4.9c-1.3,1.3-3,2-4.9,2h-23.1c-2.1,0-3.8-0.7-5-2s-1.9-3-1.9-4.9v-11.1
		c-2.5,3.4-5.8,6.8-10,10s-9.3,5.9-15.3,7.9C1089.9,379.1,1082.8,380.1,1074.7,380.1z M1084.4,353c6.7,0,12.7-1.4,18.1-4.3
		s9.7-7.3,12.9-13.3s4.7-13.6,4.7-22.7v-6l-28.6,4.6c-11.2,1.7-19.6,4.5-25.1,8.3s-8.3,8.5-8.3,14c0,4.2,1.3,7.8,3.9,10.7
		c2.6,3,5.9,5.1,9.9,6.6C1075.8,352.2,1080,353,1084.4,353z" />
        <path class="st0" d="M1200.3,204.1c-1.9,0-3.5-0.7-4.9-2c-1.3-1.3-2-3-2-4.9v-20.5c0-1.9,0.7-3.5,2-4.9c1.3-1.3,3-2,4.9-2h26
		c2.1,0,3.8,0.7,5.1,2c1.3,1.3,2,3,2,4.9v20.6c0,1.9-0.7,3.5-2,4.9c-1.3,1.3-3,2-5.1,2h-26V204.1z M1201.5,377.2
		c-1.9,0-3.5-0.7-4.9-2c-1.3-1.3-2-3-2-4.9V235.6c0-1.9,0.7-3.5,2-4.9c1.3-1.3,3-2,4.9-2h23.7c2.1,0,3.8,0.7,5,2s1.9,3,1.9,4.9
		v134.8c0,1.9-0.6,3.5-1.9,4.9c-1.2,1.3-2.9,2-5,2h-23.7V377.2z" />
        <path class="st0" d="M1335.2,380.1c-13.7,0-25.8-2.6-36.1-7.7c-10.4-5.1-18.5-12.6-24.3-22.4s-9-21.7-9.6-35.6
		c-0.2-2.9-0.3-6.6-0.3-11.3c0-4.7,0.1-8.5,0.3-11.6c0.6-13.9,3.8-25.8,9.6-35.6c5.8-9.8,13.9-17.3,24.3-22.4
		c10.4-5.1,22.4-7.7,36.1-7.7c12.2,0,22.6,1.7,31.1,5c8.6,3.3,15.6,7.6,21.1,12.9c5.5,5.2,9.7,10.7,12.4,16.3
		c2.8,5.6,4.2,10.7,4.4,15.3c0.2,2.1-0.4,3.8-1.9,5c-1.4,1.2-3.1,1.9-5,1.9h-25.1c-1.9,0-3.4-0.5-4.4-1.4c-1-1-2-2.4-3-4.3
		c-2.9-7.6-6.6-13-11.3-16.1c-4.7-3.1-10.6-4.7-17.9-4.7c-9.5,0-17.1,3-22.7,9s-8.6,15.5-9,28.4c-0.4,7.2-0.4,13.9,0,20
		c0.4,13.1,3.4,22.7,9,28.6s13.2,8.9,22.7,8.9c7.4,0,13.4-1.6,18-4.7s8.3-8.5,11.1-16.1c1-1.9,2-3.3,3-4.3s2.5-1.4,4.4-1.4h25.1
		c1.9,0,3.6,0.6,5,1.9c1.4,1.2,2,2.9,1.9,5c-0.2,3.4-1.1,7.3-2.7,11.6c-1.6,4.3-4.2,8.7-7.7,13.1c-3.5,4.5-8,8.6-13.3,12.3
		c-5.3,3.7-11.8,6.7-19.3,9C1353.8,379,1345.1,380.1,1335.2,380.1z" />
        <path class="st0" d="M1441.1,377.2c-1.9,0-3.5-0.7-4.9-2c-1.3-1.3-2-3-2-4.9v-189c0-1.9,0.7-3.5,2-4.9c1.3-1.3,3-2,4.9-2h25.4
		c2.1,0,3.8,0.7,5,2s1.9,3,1.9,4.9v65.1c5.1-6.1,11.4-11,18.9-14.9c7.4-3.8,16.6-5.7,27.4-5.7c11.6,0,21.8,2.6,30.4,7.9
		c8.7,5.2,15.4,12.6,20.1,22.1c4.8,9.5,7.1,21,7.1,34.3v80.3c0,1.9-0.7,3.5-2,4.9c-1.3,1.3-3,2-4.9,2h-25.7c-1.9,0-3.5-0.7-4.9-2
		c-1.3-1.3-2-3-2-4.9v-78.6c0-11-2.7-19.7-8.1-26s-13.3-9.4-23.6-9.4c-9.9,0-17.9,3.1-23.9,9.4s-9,15-9,26v78.6
		c0,1.9-0.6,3.5-1.9,4.9c-1.2,1.3-2.9,2-5,2h-25.2L1441.1,377.2L1441.1,377.2z" />
        <path class="st0" d="M1656.8,380.1c-9.9,0-18.9-2-26.9-5.9s-14.3-9.1-19-15.7s-7-13.9-7-22.1c0-13.3,5.4-23.9,16.3-31.9
		c10.9-7.9,25-13.2,42.6-15.9l39.1-5.7v-6c0-8-2-14.2-6-18.6s-10.9-6.6-20.6-6.6c-6.9,0-12.4,1.4-16.7,4.1c-4.3,2.8-7.5,6.4-9.6,11
		c-1.5,2.5-3.7,3.7-6.6,3.7h-22.6c-2.1,0-3.7-0.6-4.7-1.7s-1.6-2.7-1.6-4.6c0.2-3,1.5-6.8,3.9-11.1c2.4-4.4,6-8.6,10.9-12.7
		c4.9-4.1,11.2-7.6,19-10.4c7.8-2.9,17.2-4.3,28.3-4.3c12,0,22.1,1.5,30.4,4.4c8.3,3,14.9,6.9,19.9,11.9s8.6,10.8,10.9,17.4
		c2.3,6.7,3.4,13.7,3.4,21.1v89.7c0,1.9-0.7,3.5-2,4.9c-1.3,1.3-3,2-4.9,2h-23.1c-2.1,0-3.8-0.7-5-2s-1.9-3-1.9-4.9v-11.1
		c-2.5,3.4-5.8,6.8-10,10s-9.3,5.9-15.3,7.9C1672.1,379.1,1665,380.1,1656.8,380.1z M1666.5,353c6.7,0,12.7-1.4,18.1-4.3
		s9.7-7.3,12.9-13.3c3.1-6,4.7-13.6,4.7-22.7v-6l-28.6,4.6c-11.2,1.7-19.6,4.5-25.1,8.3s-8.3,8.5-8.3,14c0,4.2,1.3,7.8,3.9,10.7
		c2.6,3,5.9,5.1,9.9,6.6C1657.9,352.2,1662.1,353,1666.5,353z" />
        <path class="st0" d="M1782.5,204.1c-1.9,0-3.5-0.7-4.9-2c-1.3-1.3-2-3-2-4.9v-20.5c0-1.9,0.7-3.5,2-4.9c1.3-1.3,3-2,4.9-2h26
		c2.1,0,3.8,0.7,5.1,2c1.3,1.3,2,3,2,4.9v20.6c0,1.9-0.7,3.5-2,4.9c-1.3,1.3-3,2-5.1,2h-26V204.1z M1783.6,377.2
		c-1.9,0-3.5-0.7-4.9-2c-1.3-1.3-2-3-2-4.9V235.6c0-1.9,0.7-3.5,2-4.9c1.3-1.3,3-2,4.9-2h23.7c2.1,0,3.8,0.7,5,2s1.9,3,1.9,4.9
		v134.8c0,1.9-0.6,3.5-1.9,4.9c-1.2,1.3-2.9,2-5,2h-23.7V377.2z" />
        <path class="st0" d="M1864.8,377.2c-1.9,0-3.5-0.7-4.9-2c-1.3-1.3-2-3-2-4.9V235.6c0-1.9,0.7-3.5,2-4.9c1.3-1.3,3-2,4.9-2h23.4
		c1.9,0,3.5,0.7,4.9,2c1.3,1.3,2,3,2,4.9v11.7c5-6.1,11.3-11.2,19-15.3s17.3-6.1,28.7-6.1c11.6,0,21.7,2.6,30.3,7.9
		c8.6,5.2,15.2,12.6,19.9,22.1c4.7,9.5,7,21,7,34.3v80.3c0,1.9-0.7,3.5-2,4.9c-1.3,1.3-3,2-4.9,2H1968c-1.9,0-3.5-0.7-4.9-2
		c-1.3-1.3-2-3-2-4.9v-78.6c0-11-2.7-19.7-8.1-26s-13.3-9.4-23.6-9.4c-9.9,0-17.8,3.1-23.7,9.4c-5.9,6.3-8.9,15-8.9,26v78.6
		c0,1.9-0.7,3.5-2,4.9c-1.3,1.3-3,2-4.9,2h-25.1V377.2z" />
    </g>
</svg>