<svg width="54" height="55" viewBox="0 0 54 55" fill="none" xmlns="http://www.w3.org/2000/svg">
<g clip-path="url(#clip0_225_190)">
<path d="M27 54.5437C41.9117 54.5437 54 42.4554 54 27.5437C54 12.632 41.9117 0.543701 27 0.543701C12.0883 0.543701 0 12.632 0 27.5437C0 42.4554 12.0883 54.5437 27 54.5437Z" fill="#FCEAE7"/>
<path d="M39.9481 13.8636L28.5701 22.3143L30.6742 17.3285L39.9481 13.8636Z" fill="#E2761B" stroke="#E2761B" stroke-linecap="round" stroke-linejoin="round"/>
<path d="M13.6814 13.8636L24.968 22.3944L22.9668 17.3285L13.6814 13.8636Z" fill="#E4761B" stroke="#E4761B" stroke-linecap="round" stroke-linejoin="round"/>
<path d="M35.8543 33.4524L32.824 38.095L39.3077 39.8791L41.1718 33.5553L35.8543 33.4524Z" fill="#E4761B" stroke="#E4761B" stroke-linecap="round" stroke-linejoin="round"/>
<path d="M12.4805 33.5553L14.333 39.8791L20.8168 38.095L17.7864 33.4524L12.4805 33.5553Z" fill="#E4761B" stroke="#E4761B" stroke-linecap="round" stroke-linejoin="round"/>
<path d="M20.4515 25.6077L18.6448 28.3408L25.0828 28.6266L24.8541 21.7083L20.4515 25.6077Z" fill="#E4761B" stroke="#E4761B" stroke-linecap="round" stroke-linejoin="round"/>
<path d="M33.1785 25.6078L28.7187 21.6283L28.5701 28.6267L34.9967 28.3408L33.1785 25.6078Z" fill="#E4761B" stroke="#E4761B" stroke-linecap="round" stroke-linejoin="round"/>
<path d="M20.8167 38.0949L24.6819 36.2082L21.3427 33.601L20.8167 38.0949Z" fill="#E4761B" stroke="#E4761B" stroke-linecap="round" stroke-linejoin="round"/>
<path d="M28.9477 36.2082L32.8242 38.0949L32.2868 33.601L28.9477 36.2082Z" fill="#E4761B" stroke="#E4761B" stroke-linecap="round" stroke-linejoin="round"/>
<path d="M32.8235 38.0949L28.947 36.2083L29.2557 38.7354L29.2214 39.7988L32.8235 38.0949Z" fill="#D7C1B3" stroke="#D7C1B3" stroke-linecap="round" stroke-linejoin="round"/>
<path d="M20.8167 38.0949L24.4188 39.7988L24.396 38.7354L24.6819 36.2083L20.8167 38.0949Z" fill="#D7C1B3" stroke="#D7C1B3" stroke-linecap="round" stroke-linejoin="round"/>
<path d="M24.476 31.9314L21.2512 30.9823L23.5269 29.9417L24.476 31.9314Z" fill="#233447" stroke="#233447" stroke-linecap="round" stroke-linejoin="round"/>
<path d="M29.1523 31.9314L30.1014 29.9417L32.3885 30.9823L29.1523 31.9314Z" fill="#233447" stroke="#233447" stroke-linecap="round" stroke-linejoin="round"/>
<path d="M20.8159 38.095L21.3647 33.4524L17.7855 33.5553L20.8159 38.095Z" fill="#CD6116" stroke="#CD6116" stroke-linecap="round" stroke-linejoin="round"/>
<path d="M32.2734 33.4524L32.8223 38.095L35.8527 33.5553L32.2734 33.4524Z" fill="#CD6116" stroke="#CD6116" stroke-linecap="round" stroke-linejoin="round"/>
<path d="M34.996 28.3408L28.5694 28.6267L29.164 31.9315L30.1131 29.9418L32.4002 30.9824L34.996 28.3408Z" fill="#CD6116" stroke="#CD6116" stroke-linecap="round" stroke-linejoin="round"/>
<path d="M21.2499 30.9824L23.537 29.9418L24.4747 31.9315L25.0808 28.6267L18.6427 28.3408L21.2499 30.9824Z" fill="#CD6116" stroke="#CD6116" stroke-linecap="round" stroke-linejoin="round"/>
<path d="M18.6441 28.3408L21.3428 33.6011L21.2513 30.9824L18.6441 28.3408Z" fill="#E4751F" stroke="#E4751F" stroke-linecap="round" stroke-linejoin="round"/>
<path d="M32.4004 30.9824L32.2861 33.6011L34.9962 28.3408L32.4004 30.9824Z" fill="#E4751F" stroke="#E4751F" stroke-linecap="round" stroke-linejoin="round"/>
<path d="M25.0818 28.6267L24.4758 31.9315L25.2305 35.831L25.402 30.6965L25.0818 28.6267Z" fill="#E4751F" stroke="#E4751F" stroke-linecap="round" stroke-linejoin="round"/>
<path d="M28.5695 28.6267L28.2607 30.685L28.3979 35.831L29.1641 31.9315L28.5695 28.6267Z" fill="#E4751F" stroke="#E4751F" stroke-linecap="round" stroke-linejoin="round"/>
<path d="M29.1647 31.9314L28.3986 35.8308L28.9475 36.2082L32.2866 33.601L32.4009 30.9823L29.1647 31.9314Z" fill="#F6851B" stroke="#F6851B" stroke-linecap="round" stroke-linejoin="round"/>
<path d="M21.2512 30.9823L21.3427 33.601L24.6818 36.2082L25.2307 35.8308L24.476 31.9314L21.2512 30.9823Z" fill="#F6851B" stroke="#F6851B" stroke-linecap="round" stroke-linejoin="round"/>
<path d="M29.2217 39.7989L29.256 38.7354L28.9701 38.4838H24.659L24.396 38.7354L24.4188 39.7989L20.8167 38.095L22.0746 39.1242L24.6247 40.8969H29.0044L31.5659 39.1242L32.8238 38.095L29.2217 39.7989Z" fill="#C0AD9E" stroke="#C0AD9E" stroke-linecap="round" stroke-linejoin="round"/>
<path d="M28.9469 36.2082L28.398 35.8308H25.2304L24.6815 36.2082L24.3956 38.7353L24.6586 38.4837H28.9698L29.2556 38.7353L28.9469 36.2082Z" fill="#161616" stroke="#161616" stroke-linecap="round" stroke-linejoin="round"/>
<path d="M40.428 22.8632L41.4 18.1976L39.9478 13.8636L28.947 22.0284L33.178 25.6077L39.1586 27.3573L40.4852 25.8135L39.9136 25.4019L40.8283 24.5671L40.1191 24.0182L41.0339 23.3206L40.428 22.8632Z" fill="#763D16" stroke="#763D16" stroke-linecap="round" stroke-linejoin="round"/>
<path d="M12.24 18.1976L13.212 22.8632L12.5945 23.3206L13.5093 24.0182L12.8117 24.5671L13.7266 25.4019L13.1548 25.8135L14.4699 27.3573L20.4505 25.6077L24.6816 22.0284L13.6809 13.8636L12.24 18.1976Z" fill="#763D16" stroke="#763D16" stroke-linecap="round" stroke-linejoin="round"/>
<path d="M39.1579 27.3574L33.1774 25.6078L34.9956 28.3408L32.2854 33.601L35.8532 33.5553H41.1707L39.1579 27.3574Z" fill="#F6851B" stroke="#F6851B" stroke-linecap="round" stroke-linejoin="round"/>
<path d="M20.4509 25.6078L14.4702 27.3574L12.4805 33.5553H17.7864L21.3428 33.601L18.6441 28.3408L20.4509 25.6078Z" fill="#F6851B" stroke="#F6851B" stroke-linecap="round" stroke-linejoin="round"/>
<path d="M28.5695 28.6267L28.9469 22.0285L30.685 17.3286H22.9662L24.6815 22.0285L25.0817 28.6267L25.219 30.7079L25.2304 35.8309H28.398L28.4208 30.7079L28.5695 28.6267Z" fill="#F6851B" stroke="#F6851B" stroke-linecap="round" stroke-linejoin="round"/>
</g>
<defs>
<clipPath id="clip0_225_190">
<rect width="54" height="54" fill="white" transform="translate(0 0.543701)"/>
</clipPath>
</defs>
</svg>
