<svg width="54" height="55" viewBox="0 0 54 55" fill="none" xmlns="http://www.w3.org/2000/svg">
<g clip-path="url(#clip0_225_92)">
<path d="M27 54.5437C41.9117 54.5437 54 42.4554 54 27.5437C54 12.632 41.9117 0.543701 27 0.543701C12.0883 0.543701 0 12.632 0 27.5437C0 42.4554 12.0883 54.5437 27 54.5437Z" fill="#E7EEFC"/>
<path d="M15.1434 20.0316C21.6867 13.6252 32.2954 13.6252 38.8386 20.0316L39.6263 20.8026C39.9535 21.123 39.9535 21.6423 39.6263 21.9626L36.9324 24.6002C36.7689 24.7603 36.5036 24.7603 36.3398 24.6002L35.2563 23.5391C30.6915 19.0698 23.2906 19.0698 18.7258 23.5391L17.5653 24.6754C17.4017 24.8356 17.1365 24.8356 16.9729 24.6754L14.2791 22.0379C13.9519 21.7176 13.9519 21.1982 14.2791 20.8779L15.1434 20.0316ZM44.4099 25.4863L46.8075 27.8337C47.1344 28.154 47.1344 28.6733 46.8075 28.9937L35.9967 39.5785C35.6696 39.8989 35.1391 39.8989 34.812 39.5785L27.1392 32.0661C27.0574 31.986 26.9248 31.986 26.843 32.0661L19.1704 39.5785C18.8432 39.8989 18.3128 39.8989 17.9857 39.5785L7.17464 28.9935C6.84747 28.6732 6.84747 28.1539 7.17464 27.8335L9.5722 25.4862C9.89937 25.1658 10.4298 25.1658 10.757 25.4862L18.4299 32.9985C18.5116 33.0786 18.6442 33.0786 18.726 32.9985L26.3985 25.4862C26.7257 25.1658 27.2561 25.1658 27.5833 25.4861C27.5833 25.4861 27.5833 25.4861 27.5833 25.4861L35.2562 32.9985C35.338 33.0786 35.4706 33.0786 35.5524 32.9985L43.2252 25.4863C43.5524 25.166 44.0827 25.166 44.4099 25.4863Z" fill="#3B99FC"/>
</g>
<defs>
<clipPath id="clip0_225_92">
<rect width="54" height="54" fill="white" transform="translate(0 0.543701)"/>
</clipPath>
</defs>
</svg>
