<svg width="20" height="20" viewBox="0 0 20 20" fill="none" xmlns="http://www.w3.org/2000/svg">
<g clip-path="url(#clip0_6227_13658)">
<mask id="path-1-inside-1_6227_13658" fill="white">
<path fill-rule="evenodd" clip-rule="evenodd" d="M8.11347 0H11.8863V1.96195C12.7693 2.16933 13.5977 2.51913 14.3464 2.98592L15.7373 1.59504L18.4051 4.26283L17.0106 5.65732C17.4744 6.40485 17.8231 7.23196 18.0318 8.1136H20V11.8864L18.0507 11.8864C17.8489 12.7788 17.504 13.6166 17.0415 14.374L18.4047 15.7372L15.7369 18.405L14.3962 17.0643C13.6346 17.5468 12.7889 17.9076 11.8863 18.1196V20H8.11347V18.1195C7.21091 17.9074 6.36531 17.5466 5.60368 17.0641L4.26283 18.405L1.59504 15.7372L2.95853 14.3737C2.49611 13.6164 2.15127 12.7787 1.94956 11.8864L0 11.8864L8.24584e-08 8.1136H1.96843C2.17711 7.23199 2.52581 6.40492 2.98959 5.6574L1.59501 4.26283L4.2628 1.59504L5.65373 2.98597C6.4023 2.51924 7.23064 2.16946 8.11347 1.96206V0ZM10.0004 13C11.6573 13 13.0004 11.6569 13.0004 10C13.0004 8.34316 11.6573 7.00001 10.0004 7.00001C8.34354 7.00001 7.0004 8.34316 7.0004 10C7.0004 11.6569 8.34354 13 10.0004 13Z"/>
</mask>
<path d="M11.8863 0H12.8863V-1H11.8863V0ZM8.11347 0V-1H7.11347V0H8.11347ZM11.8863 1.96195H10.8863V2.7543L11.6576 2.93546L11.8863 1.96195ZM14.3464 2.98592L13.8173 3.83449L14.4916 4.25491L15.0535 3.69303L14.3464 2.98592ZM15.7373 1.59504L16.4444 0.887938L15.7373 0.180831L15.0302 0.887938L15.7373 1.59504ZM18.4051 4.26283L19.1122 4.96994L19.8193 4.26283L19.1122 3.55572L18.4051 4.26283ZM17.0106 5.65732L16.3035 4.95021L15.7429 5.51083L16.1609 6.18454L17.0106 5.65732ZM18.0318 8.1136L17.0587 8.34395L17.2409 9.1136H18.0318V8.1136ZM20 8.1136H21V7.1136H20V8.1136ZM20 11.8864V12.8864L21 12.8864V11.8864H20ZM18.0507 11.8864V10.8864H17.2515L17.0753 11.6659L18.0507 11.8864ZM17.0415 14.374L16.1881 13.8528L15.7779 14.5246L16.3344 15.0811L17.0415 14.374ZM18.4047 15.7372L19.1118 16.4443L19.8189 15.7372L19.1118 15.0301L18.4047 15.7372ZM15.7369 18.405L15.0298 19.1121L15.7369 19.8192L16.444 19.1121L15.7369 18.405ZM14.3962 17.0643L15.1034 16.3572L14.5373 15.7912L13.8611 16.2195L14.3962 17.0643ZM11.8863 18.1196L11.6576 17.1461L10.8863 17.3272V18.1196H11.8863ZM11.8863 20V21H12.8863V20H11.8863ZM8.11347 20H7.11347V21H8.11347V20ZM8.11347 18.1195H9.11347V17.3272L8.34217 17.146L8.11347 18.1195ZM5.60368 17.0641L6.13883 16.2194L5.46261 15.791L4.89657 16.357L5.60368 17.0641ZM4.26283 18.405L3.55572 19.1121L4.26283 19.8192L4.96993 19.1121L4.26283 18.405ZM1.59504 15.7372L0.887935 15.0301L0.180828 15.7372L0.887934 16.4443L1.59504 15.7372ZM2.95853 14.3737L3.66564 15.0808L4.22216 14.5243L3.81201 13.8526L2.95853 14.3737ZM1.94956 11.8864L2.92495 11.6659L2.74873 10.8864H1.94956L1.94956 11.8864ZM0 11.8864H-1V12.8864L-4.89174e-07 12.8864L0 11.8864ZM8.24584e-08 8.1136V7.1136H-1L-1 8.1136H8.24584e-08ZM1.96843 8.1136V9.1136H2.75935L2.94153 8.34395L1.96843 8.1136ZM2.98959 5.6574L3.83933 6.18461L4.25731 5.51091L3.6967 4.9503L2.98959 5.6574ZM1.59501 4.26283L0.887908 3.55572L0.180801 4.26283L0.887908 4.96993L1.59501 4.26283ZM4.2628 1.59504L4.96991 0.887936L4.2628 0.180829L3.55569 0.887935L4.2628 1.59504ZM5.65373 2.98597L4.94663 3.69308L5.50852 4.25497L6.18282 3.83454L5.65373 2.98597ZM8.11347 1.96206L8.34217 2.93556L9.11347 2.75436V1.96206H8.11347ZM11.8863 -1H8.11347V1H11.8863V-1ZM12.8863 1.96195V0H10.8863V1.96195H12.8863ZM14.8755 2.13735C14.036 1.61394 13.1063 1.22128 12.1149 0.988441L11.6576 2.93546C12.4322 3.11738 13.1595 3.42432 13.8173 3.83449L14.8755 2.13735ZM15.0302 0.887938L13.6393 2.27881L15.0535 3.69303L16.4444 2.30215L15.0302 0.887938ZM19.1122 3.55572L16.4444 0.887938L15.0302 2.30215L17.698 4.96994L19.1122 3.55572ZM17.7177 6.36442L19.1122 4.96994L17.698 3.55572L16.3035 4.95021L17.7177 6.36442ZM19.0049 7.88325C18.7709 6.89483 18.38 5.96768 17.8603 5.1301L16.1609 6.18454C16.5688 6.84202 16.8753 7.56909 17.0587 8.34395L19.0049 7.88325ZM20 7.1136H18.0318V9.1136H20V7.1136ZM21 11.8864V8.1136H19V11.8864H21ZM18.0507 12.8864L20 12.8864V10.8864L18.0507 10.8864V12.8864ZM17.895 14.8952C18.4132 14.0465 18.7999 13.1074 19.0261 12.1069L17.0753 11.6659C16.898 12.4503 16.5948 13.1867 16.1881 13.8528L17.895 14.8952ZM19.1118 15.0301L17.7486 13.6669L16.3344 15.0811L17.6976 16.4443L19.1118 15.0301ZM16.444 19.1121L19.1118 16.4443L17.6976 15.0301L15.0298 17.6979L16.444 19.1121ZM13.6891 17.7714L15.0298 19.1121L16.444 17.6979L15.1034 16.3572L13.6891 17.7714ZM12.1149 19.0931C13.1284 18.8551 14.0773 18.4501 14.9314 17.9091L13.8611 16.2195C13.1918 16.6435 12.4494 16.9601 11.6576 17.1461L12.1149 19.0931ZM12.8863 20V18.1196H10.8863V20H12.8863ZM8.11347 21H11.8863V19H8.11347V21ZM7.11347 18.1195V20H9.11347V18.1195H7.11347ZM5.06852 17.9089C5.92249 18.4499 6.8714 18.8549 7.88477 19.093L8.34217 17.146C7.55042 16.96 6.80813 16.6434 6.13883 16.2194L5.06852 17.9089ZM4.96993 19.1121L6.31078 17.7712L4.89657 16.357L3.55572 17.6979L4.96993 19.1121ZM0.887934 16.4443L3.55572 19.1121L4.96993 17.6979L2.30215 15.0301L0.887934 16.4443ZM2.25143 13.6666L0.887935 15.0301L2.30215 16.4443L3.66564 15.0808L2.25143 13.6666ZM0.974173 12.1069C1.20031 13.1073 1.58691 14.0462 2.10506 14.8948L3.81201 13.8526C3.40531 13.1865 3.10224 12.4502 2.92495 11.6659L0.974173 12.1069ZM-4.89174e-07 12.8864L1.94956 12.8864L1.94956 10.8864L4.89174e-07 10.8864L-4.89174e-07 12.8864ZM-1 8.1136L-1 11.8864H1L1 8.1136H-1ZM1.96843 7.1136H8.24584e-08V9.1136H1.96843V7.1136ZM2.13985 5.1302C1.6202 5.96776 1.22928 6.89487 0.995317 7.88325L2.94153 8.34395C3.12494 7.56912 3.43141 6.84208 3.83933 6.18461L2.13985 5.1302ZM3.6967 4.9503L2.30212 3.55572L0.887908 4.96993L2.28248 6.36451L3.6967 4.9503ZM2.30212 4.96993L4.96991 2.30215L3.55569 0.887935L0.887908 3.55572L2.30212 4.96993ZM3.55569 2.30215L4.94663 3.69308L6.36084 2.27887L4.96991 0.887936L3.55569 2.30215ZM7.88477 0.988566C6.89356 1.22143 5.964 1.61406 5.12464 2.13741L6.18282 3.83454C6.84059 3.42441 7.56771 3.1175 8.34217 2.93556L7.88477 0.988566ZM7.11347 0V1.96206H9.11347V0H7.11347ZM12.0004 10C12.0004 11.1046 11.105 12 10.0004 12V14C12.2095 14 14.0004 12.2092 14.0004 10H12.0004ZM10.0004 8.00001C11.105 8.00001 12.0004 8.89544 12.0004 10H14.0004C14.0004 7.79087 12.2095 6.00001 10.0004 6.00001V8.00001ZM8.0004 10C8.0004 8.89544 8.89583 8.00001 10.0004 8.00001V6.00001C7.79126 6.00001 6.0004 7.79087 6.0004 10H8.0004ZM10.0004 12C8.89583 12 8.0004 11.1046 8.0004 10H6.0004C6.0004 12.2092 7.79126 14 10.0004 14V12Z" fill="#A9B6BF" mask="url(#path-1-inside-1_6227_13658)"/>
</g>
<defs>
<clipPath id="clip0_6227_13658">
<rect width="20" height="20" fill="white"/>
</clipPath>
</defs>
</svg>
