<svg width="22" height="22" viewBox="0 0 22 22" fill="none" xmlns="http://www.w3.org/2000/svg">
<g filter="url(#filter0_d_34348)">
<circle cx="11" cy="11" r="7.75" stroke="#9DD46D" stroke-width="0.5"/>
<circle cx="10.9999" cy="11" r="1.48913" stroke="#9DD46D" stroke-width="0.5"/>
<mask id="path-3-inside-1_34:348" fill="white">
<path fill-rule="evenodd" clip-rule="evenodd" d="M10.0792 5.78259H11.9206V7.11699C11.9958 7.13477 12.0702 7.15467 12.1438 7.17664L12.8108 6.02121L14.4056 6.94193L13.738 8.09823C13.794 8.15114 13.8485 8.20566 13.9015 8.26171L15.0581 7.5939L15.9788 9.18863L14.823 9.85596C14.845 9.92951 14.8649 10.0039 14.8827 10.0792H16.2171V11.9206L14.8827 11.9206C14.8649 11.996 14.845 12.0704 14.823 12.144L15.9786 12.8113L15.0579 14.406L13.9014 13.7383C13.8486 13.7942 13.7942 13.8486 13.7382 13.9014L14.4059 15.0579L12.8112 15.9786L12.1441 14.8231C12.0705 14.8452 11.996 14.8651 11.9206 14.8829V16.2174H10.0792V14.883C10.0039 14.8652 9.92944 14.8453 9.85588 14.8233L9.18881 15.9787L7.59409 15.058L8.26158 13.9019C8.20555 13.849 8.15105 13.7945 8.09815 13.7385L6.94187 14.4061L6.02115 12.8113L7.17644 12.1443C7.15442 12.0707 7.13447 11.9961 7.11666 11.9207H5.78223V10.0793H7.11664C7.13445 10.0039 7.15439 9.92934 7.1764 9.85569L6.02095 9.18859L6.94167 7.59386L8.09806 8.2615C8.15092 8.20551 8.20539 8.15104 8.26139 8.09818L7.59379 6.94186L9.18852 6.02114L9.85563 7.17662C9.92928 7.15461 10.0038 7.13468 10.0792 7.11688V5.78259Z"/>
</mask>
<path d="M11.9206 5.78259H12.4206V5.28259H11.9206V5.78259ZM10.0792 5.78259V5.28259H9.57918V5.78259H10.0792ZM11.9206 7.11699H11.4206V7.51262L11.8056 7.60359L11.9206 7.11699ZM12.1438 7.17664L12.0006 7.65571L12.3792 7.76883L12.5768 7.42664L12.1438 7.17664ZM12.8108 6.02121L13.0608 5.5882L12.6278 5.3382L12.3778 5.77121L12.8108 6.02121ZM14.4056 6.94193L14.8386 7.19193L15.0886 6.75892L14.6556 6.50892L14.4056 6.94193ZM13.738 8.09823L13.305 7.84823L13.1074 8.1905L13.3947 8.46181L13.738 8.09823ZM13.9015 8.26171L13.5379 8.60493L13.8092 8.89234L14.1515 8.69472L13.9015 8.26171ZM15.0581 7.5939L15.4911 7.3439L15.2411 6.91089L14.8081 7.16089L15.0581 7.5939ZM15.9788 9.18863L16.2288 9.62164L16.6619 9.37164L16.4119 8.93863L15.9788 9.18863ZM14.823 9.85596L14.573 9.42294L14.2308 9.62051L14.3439 9.99909L14.823 9.85596ZM14.8827 10.0792L14.3961 10.1942L14.487 10.5792H14.8827V10.0792ZM16.2171 10.0792H16.7171V9.57921H16.2171V10.0792ZM16.2171 11.9206V12.4206H16.7171V11.9206H16.2171ZM14.8827 11.9206V11.4206H14.487L14.3961 11.8057L14.8827 11.9206ZM14.823 12.144L14.3439 12.0009L14.2308 12.3795L14.573 12.577L14.823 12.144ZM15.9786 12.8113L16.4117 13.0613L16.6617 12.6282L16.2286 12.3782L15.9786 12.8113ZM15.0579 14.406L14.8079 14.839L15.2409 15.089L15.4909 14.656L15.0579 14.406ZM13.9014 13.7383L14.1514 13.3052L13.8091 13.1076L13.5378 13.395L13.9014 13.7383ZM13.7382 13.9014L13.395 13.5379L13.1076 13.8092L13.3052 14.1514L13.7382 13.9014ZM14.4059 15.0579L14.6559 15.4909L15.089 15.2409L14.839 14.8079L14.4059 15.0579ZM12.8112 15.9786L12.3782 16.2286L12.6282 16.6616L13.0612 16.4116L12.8112 15.9786ZM12.1441 14.8231L12.5771 14.5731L12.3795 14.2309L12.0009 14.3441L12.1441 14.8231ZM11.9206 14.8829L11.8056 14.3963L11.4206 14.4873V14.8829H11.9206ZM11.9206 16.2174V16.7174H12.4206V16.2174H11.9206ZM10.0792 16.2174H9.57918V16.7174H10.0792V16.2174ZM10.0792 14.883H10.5792V14.4873L10.1941 14.3964L10.0792 14.883ZM9.85588 14.8233L9.99898 14.3443L9.62041 14.2312L9.42286 14.5733L9.85588 14.8233ZM9.18881 15.9787L8.93881 16.4117L9.37183 16.6617L9.62183 16.2287L9.18881 15.9787ZM7.59409 15.058L7.16107 14.808L6.91107 15.241L7.34409 15.491L7.59409 15.058ZM8.26158 13.9019L8.69459 14.1519L8.89222 13.8096L8.60478 13.5383L8.26158 13.9019ZM8.09815 13.7385L8.46171 13.3952L8.1904 13.1079L7.84815 13.3055L8.09815 13.7385ZM6.94187 14.4061L6.50886 14.6561L6.75886 15.0891L7.19187 14.8391L6.94187 14.4061ZM6.02115 12.8113L5.77115 12.3783L5.33814 12.6283L5.58814 13.0613L6.02115 12.8113ZM7.17644 12.1443L7.42644 12.5773L7.76866 12.3798L7.6555 12.0011L7.17644 12.1443ZM7.11666 11.9207L7.60326 11.8057L7.5123 11.4207H7.11666V11.9207ZM5.78223 11.9207H5.28223V12.4207H5.78223V11.9207ZM5.78223 10.0793V9.57926H5.28223V10.0793H5.78223ZM7.11664 10.0793V10.5793H7.5123L7.60325 10.1942L7.11664 10.0793ZM7.1764 9.85569L7.65546 9.99886L7.76861 9.62025L7.4264 9.42267L7.1764 9.85569ZM6.02095 9.18859L5.58794 8.93859L5.33794 9.3716L5.77095 9.6216L6.02095 9.18859ZM6.94167 7.59386L7.19167 7.16085L6.75866 6.91085L6.50866 7.34386L6.94167 7.59386ZM8.09806 8.2615L7.84806 8.69452L8.19032 8.89212L8.46162 8.60475L8.09806 8.2615ZM8.26139 8.09818L8.60462 8.46177L8.89202 8.19046L8.6944 7.84818L8.26139 8.09818ZM7.59379 6.94186L7.34379 6.50885L6.91078 6.75885L7.16078 7.19186L7.59379 6.94186ZM9.18852 6.02114L9.62153 5.77114L9.37153 5.33813L8.93852 5.58813L9.18852 6.02114ZM9.85563 7.17662L9.42262 7.42662L9.62018 7.76881L9.99877 7.65569L9.85563 7.17662ZM10.0792 7.11688L10.1941 7.60349L10.5792 7.51256V7.11688H10.0792ZM11.9206 5.28259H10.0792V6.28259H11.9206V5.28259ZM12.4206 7.11699V5.78259H11.4206V7.11699H12.4206ZM12.2869 6.69757C12.2041 6.67283 12.1203 6.65041 12.0356 6.63039L11.8056 7.60359C11.8714 7.61912 11.9364 7.63652 12.0006 7.65571L12.2869 6.69757ZM12.3778 5.77121L11.7107 6.92664L12.5768 7.42664L13.2439 6.27121L12.3778 5.77121ZM14.6556 6.50892L13.0608 5.5882L12.5608 6.45423L14.1556 7.37494L14.6556 6.50892ZM14.171 8.34823L14.8386 7.19193L13.9726 6.69193L13.305 7.84823L14.171 8.34823ZM14.265 7.91849C14.2055 7.85545 14.1442 7.79415 14.0812 7.73465L13.3947 8.46181C13.4438 8.50813 13.4915 8.55586 13.5379 8.60493L14.265 7.91849ZM14.8081 7.16089L13.6515 7.82869L14.1515 8.69472L15.3081 8.02692L14.8081 7.16089ZM16.4119 8.93863L15.4911 7.3439L14.6251 7.8439L15.5458 9.43863L16.4119 8.93863ZM15.073 10.289L16.2288 9.62164L15.7288 8.75562L14.573 9.42294L15.073 10.289ZM15.3693 9.96426C15.3492 9.8795 15.3268 9.79566 15.3021 9.71282L14.3439 9.99909C14.3631 10.0634 14.3805 10.1284 14.3961 10.1942L15.3693 9.96426ZM16.2171 9.57921H14.8827V10.5792H16.2171V9.57921ZM16.7171 11.9206V10.0792H15.7171V11.9206H16.7171ZM14.8827 12.4206L16.2171 12.4206V11.4206L14.8827 11.4206V12.4206ZM15.302 12.2872C15.3268 12.2043 15.3492 12.1204 15.3693 12.0356L14.3961 11.8057C14.3805 11.8715 14.3631 11.9366 14.3439 12.0009L15.302 12.2872ZM16.2286 12.3782L15.073 11.711L14.573 12.577L15.7286 13.2443L16.2286 12.3782ZM15.4909 14.656L16.4117 13.0613L15.5456 12.5613L14.6249 14.156L15.4909 14.656ZM13.6514 14.1713L14.8079 14.839L15.3079 13.973L14.1514 13.3052L13.6514 14.1713ZM14.0815 14.265C14.1444 14.2056 14.2056 14.1444 14.265 14.0815L13.5378 13.395C13.4916 13.444 13.4439 13.4916 13.395 13.5379L14.0815 14.265ZM14.839 14.8079L14.1713 13.6514L13.3052 14.1514L13.9729 15.3079L14.839 14.8079ZM13.0612 16.4116L14.6559 15.4909L14.1559 14.6249L12.5612 15.5456L13.0612 16.4116ZM11.7111 15.0731L12.3782 16.2286L13.2442 15.7286L12.5771 14.5731L11.7111 15.0731ZM12.0356 15.3695C12.1204 15.3494 12.2044 15.327 12.2873 15.3022L12.0009 14.3441C11.9366 14.3633 11.8715 14.3807 11.8056 14.3963L12.0356 15.3695ZM12.4206 16.2174V14.8829H11.4206V16.2174H12.4206ZM10.0792 16.7174H11.9206V15.7174H10.0792V16.7174ZM9.57918 14.883V16.2174H10.5792V14.883H9.57918ZM9.71277 15.3024C9.79562 15.3272 9.87948 15.3496 9.96427 15.3696L10.1941 14.3964C10.1283 14.3809 10.0633 14.3635 9.99898 14.3443L9.71277 15.3024ZM9.62183 16.2287L10.2889 15.0733L9.42286 14.5733L8.7558 15.7287L9.62183 16.2287ZM7.34409 15.491L8.93881 16.4117L9.43881 15.5457L7.84409 14.625L7.34409 15.491ZM7.82856 13.6519L7.16107 14.808L8.0271 15.308L8.69459 14.1519L7.82856 13.6519ZM7.73459 14.0817C7.79408 14.1447 7.85537 14.206 7.91837 14.2655L8.60478 13.5383C8.55573 13.492 8.50801 13.4443 8.46171 13.3952L7.73459 14.0817ZM7.19187 14.8391L8.34815 14.1715L7.84815 13.3055L6.69187 13.973L7.19187 14.8391ZM5.58814 13.0613L6.50886 14.6561L7.37488 14.1561L6.45417 12.5613L5.58814 13.0613ZM6.92644 11.7113L5.77115 12.3783L6.27115 13.2443L7.42644 12.5773L6.92644 11.7113ZM6.63005 12.0356C6.65011 12.1205 6.67258 12.2045 6.69738 12.2875L7.6555 12.0011C7.63626 11.9368 7.61883 11.8716 7.60326 11.8057L6.63005 12.0356ZM5.78223 12.4207H7.11666V11.4207H5.78223V12.4207ZM5.28223 10.0793V11.9207H6.28223V10.0793H5.28223ZM7.11664 9.57926H5.78223V10.5793H7.11664V9.57926ZM6.69733 9.71252C6.67254 9.79547 6.65008 9.87943 6.63003 9.96431L7.60325 10.1942C7.61881 10.1283 7.63623 10.0632 7.65546 9.99886L6.69733 9.71252ZM5.77095 9.6216L6.9264 10.2887L7.4264 9.42267L6.27095 8.75558L5.77095 9.6216ZM6.50866 7.34386L5.58794 8.93859L6.45397 9.43859L7.37468 7.84386L6.50866 7.34386ZM8.34806 7.82849L7.19167 7.16085L6.69167 8.02688L7.84806 8.69452L8.34806 7.82849ZM7.91817 7.73459C7.85519 7.79404 7.79394 7.85529 7.73449 7.91826L8.46162 8.60475C8.50791 8.55573 8.55559 8.50805 8.60462 8.46177L7.91817 7.73459ZM8.6944 7.84818L8.0268 6.69186L7.16078 7.19186L7.82838 8.34818L8.6944 7.84818ZM7.84379 7.37487L9.43852 6.45415L8.93852 5.58813L7.34379 6.50885L7.84379 7.37487ZM8.7555 6.27114L9.42262 7.42662L10.2886 6.92662L9.62153 5.77114L8.7555 6.27114ZM9.96427 6.63026C9.87939 6.65031 9.79544 6.67276 9.71249 6.69754L9.99877 7.65569C10.0631 7.63646 10.1282 7.61905 10.1941 7.60349L9.96427 6.63026ZM9.57918 5.78259V7.11688H10.5792V5.78259H9.57918Z" fill="#9DD46D" mask="url(#path-3-inside-1_34:348)"/>
</g>
<defs>
<filter id="filter0_d_34348" x="0" y="0" width="22" height="22" filterUnits="userSpaceOnUse" color-interpolation-filters="sRGB">
<feFlood flood-opacity="0" result="BackgroundImageFix"/>
<feColorMatrix in="SourceAlpha" type="matrix" values="0 0 0 0 0 0 0 0 0 0 0 0 0 0 0 0 0 0 127 0" result="hardAlpha"/>
<feOffset/>
<feComposite in2="hardAlpha" operator="out"/>
<feColorMatrix type="matrix" values="0 0 0 0 0.738349 0 0 0 0 1 0 0 0 0 0.51 0 0 0 0.8 0"/>
<feBlend mode="normal" in2="BackgroundImageFix" result="effect1_dropShadow_34:348"/>
<feBlend mode="normal" in="SourceGraphic" in2="effect1_dropShadow_34:348" result="shape"/>
</filter>
</defs>
</svg>
