<svg width="278" height="80" viewBox="0 0 278 80" fill="none" xmlns="http://www.w3.org/2000/svg">
<path d="M123.692 9.55555C123.692 9.55555 124.755 11.2797 123.941 14.1119C123.127 16.944 116.637 23.2528 114.088 27.9674L110.498 20.7485L108.073 25.9888L103.737 22.1787L103.37 30.2342C99.1301 26.9555 90.645 23.8068 88.7569 21.5456C86.8688 19.2844 87.1458 17.2775 87.1458 17.2775C66.7045 9.10896 57.7559 22.2578 57.7559 22.2578C71.6114 12.693 78.1745 26.6954 78.1745 26.6954C105.405 25.3161 111.482 42.1394 111.482 42.1394C111.482 42.1394 110.238 24.2929 135.711 14.5528C135.711 14.5528 136.056 -0.908146 152.596 2.24623C152.596 2.24623 139.091 -6.16543 123.698 9.56686L123.692 9.55555Z" fill="#262A23"/>
<path d="M270.148 72.1121C270.148 72.1121 270.481 72.3722 270.345 73.0053C270.204 73.6384 268.621 75.4304 268.062 76.578L266.886 75.4248L266.377 76.6684L265.094 76.2558L265.218 77.9008C263.98 77.5899 261.589 77.6464 261.012 77.3468C260.436 77.0472 260.458 76.6232 260.458 76.6232C254.687 76.6458 252.629 80.0094 252.629 80.0094C256.117 76.968 258.288 79.2406 258.288 79.2406C265.631 76.7532 267.751 79.6306 267.751 79.6306C267.751 79.6306 266.914 76.1597 273.545 72.1404C273.545 72.1404 273.206 69.0199 277.779 68.3077C277.779 68.3077 273.884 67.7197 270.153 72.1178L270.148 72.1121Z" fill="#262A23"/>
<path d="M37.2137 5.58213C37.2137 5.58213 37.7733 6.21526 37.2589 7.39674C36.7445 8.57821 32.9739 11.4782 31.442 13.5133L29.5821 10.8111L28.1124 13.0497L25.7664 11.7609L25.3876 15.017C23.0812 13.9373 18.3948 13.1458 17.3886 12.3431C16.3824 11.5404 16.5746 10.7207 16.5746 10.7207C5.29686 8.57821 0 14.3612 0 14.3612C7.96507 9.74838 11.3456 15.0057 11.3456 15.0057C26.6313 12.9367 29.6782 19.3528 29.6782 19.3528C29.6782 19.3528 29.3617 12.2527 43.839 6.92189C43.839 6.92189 44.3591 0.692284 53.5621 1.03712C53.5621 1.03712 46.1737 -1.59153 37.2193 5.58778L37.2137 5.58213Z" fill="#262A23"/>
<path d="M58.1359 61.8128C58.1359 61.8128 57.8928 62.1633 58.2206 62.723C58.5485 63.2826 60.6062 64.5037 61.4881 65.4251L62.2569 63.9666L63.1274 64.9955L64.2241 64.2097L64.6085 65.8095C65.6939 65.1311 67.9834 64.4584 68.4413 63.9949C68.8992 63.5313 68.7465 63.1356 68.7465 63.1356C74.2469 61.3889 77.2373 63.961 77.2373 63.961C72.9863 62.135 71.6126 64.9615 71.6126 64.9615C63.8623 64.8428 62.7261 68.229 62.7261 68.229C62.7261 68.229 62.4604 64.6676 54.9136 62.8756C54.9136 62.8756 54.2805 59.8004 49.7129 60.5239C49.7129 60.5239 53.2404 58.7715 58.1415 61.8185L58.1359 61.8128Z" fill="#262A23"/>
<path d="M206.985 27.7699C206.985 27.7699 206.465 28.5274 207.171 29.7371C207.878 30.9469 212.327 33.5868 214.243 35.5823L215.9 32.4279L217.776 34.6552L220.145 32.9593L220.976 36.4246C223.322 34.9605 228.285 33.4964 229.269 32.5014C230.253 31.5009 229.936 30.6416 229.936 30.6416C241.836 26.8654 248.297 32.4223 248.297 32.4223C239.099 28.4709 236.132 34.5874 236.132 34.5874C219.359 34.333 216.906 41.6536 216.906 41.6536C216.906 41.6536 216.329 33.9486 200.009 30.0706C200.009 30.0706 198.641 23.4171 188.754 24.9773C188.754 24.9773 196.385 21.1841 206.99 27.7699H206.985Z" fill="#262A23"/>
</svg>
