<svg width="100" height="115" viewBox="0 0 100 115" fill="none" xmlns="http://www.w3.org/2000/svg">
<path d="M82.2262 36.7276V99.2084H0.328125V36.7276C0.328125 14.2029 18.7525 0 41.2772 0C63.8018 0 82.2262 14.2029 82.2262 36.7276Z" fill="#262A21"/>
<path opacity="0.2" d="M64.6658 41.2221V99.2086H10.2793V41.2221C10.2793 24.2225 22.5193 13.4983 37.4725 13.4983C52.4258 13.4983 64.6658 24.2225 64.6658 41.2221Z" fill="#879475"/>
<path d="M36.3784 13.521C36.0146 13.5059 35.6584 13.4983 35.287 13.4983C20.3337 13.4983 8.09375 24.2225 8.09375 41.2221V99.2086H10.2689V41.2221C10.2689 24.6393 21.9177 14.0288 36.3784 13.5286V13.521Z" fill="#111111"/>
<path d="M37.4738 13.4983C37.0191 13.4983 36.5643 13.5059 36.1172 13.5286C50.449 14.1577 61.9538 24.7379 61.9538 41.2221V99.2086H64.6746V41.2221C64.6746 24.2225 52.4347 13.4983 37.4814 13.4983H37.4738Z" fill="#454C3C"/>
<path d="M41.2792 0C39.9984 0 38.7251 0.0530526 37.4746 0.144C58.2258 1.65221 74.619 15.4914 74.619 36.7276V99.2084H82.2359V36.7276C82.2283 14.2029 63.8039 0 41.2792 0Z" fill="#454C3C"/>
<path opacity="0.5" d="M29.249 86.2662C29.3174 85.9926 30.446 81.273 30.446 81.273L27.5846 72.7514L28.1318 63.5459L27.0431 57.139L29.7677 58.7236L31.5747 66.4757L36.699 75.8694L32.1789 66.4757L28.7531 52.0432L19.7129 50.6809L16.8343 47.9563V50.6809L10.4047 35.439L10 37.0407L16.8286 52.8868L17.6609 50.1394L19.7072 51.4333L23.3153 52.123L26.1824 56.8939L27.4763 63.2324L26.7923 72.3695L29.3003 81.3699L28.3313 86.8248L31.7001 90.2049H33.336L32.652 89.7547C32.652 89.7547 29.1749 86.5512 29.2433 86.2776L29.249 86.2662Z" fill="black"/>
<path opacity="0.5" d="M46.5742 99.2085L49.9772 87.7037L51.1443 83.7626L51.5005 82.55L53.9106 74.4027L54.714 71.6894L61.9443 64.982L64.6652 63.8755L64.6803 59.366L67.5906 56.4709L72.1153 51.9538H74.6163L74.9498 51.5749L82.2256 43.4124L81.7254 45.4056L75.1999 53.2043L72.2972 53.3862L69.3944 56.3572L74.6163 58.7749L82.2256 58.2747L74.6542 59.7298L68.3106 57.5547L65.5898 60.8136L64.6652 65.6945L61.6033 66.6191L55.2597 72.9627L61.9443 80.1702L64.6652 89.1437L70.6677 99.2085L68.6744 98.7917L64.6652 90.8565L61.0576 80.1702L55.0778 74.7437L47.37 99.2085H46.5742Z" fill="black"/>
<g clip-path="url(#clip0_13582_228284)">
<path d="M78.4101 69.7052C87.1307 70.2202 94.3498 76.8961 95.421 85.451C95.7643 88.1747 95.4759 90.7945 94.6977 93.1974L96.95 104.44C97.2247 105.804 96.3595 107.136 94.9907 107.466L85.1577 109.815C81.9075 110.592 78.584 108.844 77.4258 105.745C77.4258 105.745 77.4121 105.745 77.4029 105.745C67.2998 105.809 59.0644 97.7866 59.0003 87.8224C58.9363 77.4562 67.7484 69.0774 78.4101 69.7052Z" fill="#454C3C"/>
<path d="M59 87.822C59 87.4245 59.0137 87.0315 59.0366 86.6431C59.4028 96.0201 64.9602 98.0933 70.687 99.3083C76.4184 100.528 77.398 105.745 77.398 105.745C67.2995 105.808 59.0641 97.7862 59 87.822Z" fill="#242A1E"/>
<path opacity="0.9" d="M76.3149 96.1468C76.3149 96.1468 69.8145 95.9074 69.3613 91.377C69.3613 91.377 75.4681 96.2958 76.3149 96.1468Z" fill="#242A1E"/>
<path d="M85.6279 89.6606C85.6279 89.6606 82.3136 85.5051 84.8405 82.2846C87.3675 79.0641 94.7102 81.7336 92.7097 87.5648L85.6233 89.6606H85.6279Z" fill="#D89B00"/>
<path d="M74.8935 91.9866C74.8935 91.9866 71.5792 87.8311 74.1062 84.6105C76.6331 81.39 83.9758 84.0595 81.9753 89.8908L74.8889 91.9866H74.8935Z" fill="#D89B00"/>
<path d="M85.0879 93.554C85.0879 93.554 87.5461 92.8674 88.8417 95.0897C90.1372 97.312 87.3905 97.2623 87.3905 97.2623L85.0879 93.5585V93.554Z" fill="#D89B00"/>
<path d="M87.3899 97.2579C86.3691 97.5018 85.8884 96.8333 85.8884 96.8333C85.8884 96.8333 85.7694 97.6464 84.7531 97.8857C83.7323 98.1297 82.3864 97.1405 85.0873 93.5496C89.1569 95.5189 88.4062 97.0095 87.3899 97.2534V97.2579Z" fill="#E6CF00"/>
<path opacity="0.9" d="M79.864 103.486C79.864 103.486 84.5058 104.286 85.5175 101.964C85.5175 101.964 88.3923 102.606 90.2188 100.447C90.2188 100.447 94.2381 101.382 95.8175 99.0735L96.1242 100.6C96.1242 100.6 93.7483 102.538 90.5576 101.336C90.5576 101.336 88.1817 103.437 85.5221 102.958C85.5221 102.958 82.8944 105.122 79.8594 103.491L79.864 103.486Z" fill="#242A1E"/>
<path opacity="0.9" d="M93.1804 106.075C91.3813 108.735 87.2201 107.683 87.2201 107.683C84.5559 110.646 78.8657 107.976 78.6094 107.742C80.1841 109.539 82.6882 110.406 85.151 109.815L94.984 107.466C96.3528 107.141 97.218 105.804 96.9433 104.44C96.2338 107.299 93.1804 106.07 93.1804 106.07V106.075Z" fill="#242A1E"/>
<path d="M87.6512 77.7632C87.2346 78.8744 84.9823 79.0776 82.6156 78.2149C80.2489 77.3522 78.6696 75.7532 79.0862 74.6421C79.5028 73.5309 81.755 73.3277 84.1217 74.1904C86.4884 75.0531 88.0678 76.6521 87.6512 77.7632Z" fill="#565F4B"/>
<path d="M93.6519 79.6917C90.7999 74.0592 85.0411 70.0979 78.4079 69.7049C73.9538 69.4429 69.8292 70.7528 66.5332 73.1197C66.5332 73.1197 82.0106 65.2423 93.6519 79.6917Z" fill="#565F4B"/>
<path d="M74.5086 91.3452C74.5086 91.3452 74.3805 93.9424 77.3194 94.4212C80.2583 94.9045 81.5767 92.759 81.7598 90.9839L74.5086 91.3452Z" fill="#260925"/>
<path d="M74.1489 89.5296C74.0481 91.6616 75.719 93.4728 77.8797 93.5767C80.0404 93.6761 81.8761 92.0275 81.9814 89.8955C82.0867 87.7635 80.4112 85.9523 78.2505 85.8484C76.0898 85.7445 74.2541 87.3977 74.1489 89.5296Z" fill="#E6CF00"/>
<path d="M85.1786 89.114C85.1786 89.114 85.0504 91.7112 87.9893 92.19C90.9282 92.6733 92.2466 90.5278 92.4297 88.7527L85.1786 89.114Z" fill="#260925"/>
<path d="M84.8793 87.2032C84.7786 89.3352 86.4495 91.1464 88.6102 91.2503C90.7709 91.3497 92.6066 89.701 92.7119 87.5691C92.8172 85.4371 91.1417 83.6259 88.981 83.522C86.8203 83.4181 84.9846 85.0713 84.8793 87.2032Z" fill="#E6CF00"/>
<path d="M95.413 102.362C96.6306 106.215 95.6739 107.164 95.207 107.394C96.443 106.983 97.2074 105.732 96.9465 104.444L94.6942 93.2019C94.6942 93.2019 93.8657 97.4613 95.413 102.362Z" fill="#353B2E"/>
</g>
<g clip-path="url(#clip1_13582_228284)">
<path d="M19.3087 95.9989C19.3087 95.9989 17.3005 94.9965 17.5373 92.1646C17.7348 89.8025 20.3617 87.5735 25.3075 92.732L47.2459 94.7663C53.17 90.4748 55.3663 93.1709 55.1183 95.5447C54.8201 98.3699 52.659 98.9872 52.659 98.9872C52.659 98.9872 54.6441 100.035 54.3458 102.86C54.1013 105.181 51.508 107.304 46.8277 102.35L24.5401 100.284C18.9204 104.424 16.7385 101.839 16.9319 99.4978C17.1687 96.6659 19.3126 96.0005 19.3126 96.0005L19.3087 95.9989Z" fill="#353B2E"/>
<path opacity="0.2" d="M46.9316 100.477L51.4957 103.176C52.9595 101.465 50.7005 98.8437 50.7005 98.8437C54.4878 97.0075 53.3837 92.6237 53.3837 92.6237C54.7215 93.0197 55.2411 94.3255 55.1122 95.5471C54.8139 98.3723 52.6529 98.9896 52.6529 98.9896C52.6529 98.9896 54.638 100.038 54.3397 102.863C54.0951 105.183 51.5018 107.306 46.8216 102.352L24.534 100.286C26.4667 99.1133 28.7274 98.6006 30.9703 98.8322L46.93 100.481L46.9316 100.477Z" fill="#11150B"/>
<g opacity="0.2">
<path d="M18.853 96.2121C19.1226 96.0557 19.3105 95.999 19.3105 95.999L18.853 96.2121Z" fill="#260925"/>
<path d="M17.5421 93.0463C19.0838 94.8034 21.8243 95.3559 21.8243 95.3559L19.3146 95.9967C19.3146 95.9967 17.7344 95.2045 17.5477 93.0439L17.5421 93.0463Z" fill="#260925"/>
</g>
<path d="M24.1461 93.6589C24.1461 93.6589 20.3206 89.0373 18.072 90.6271C19.0907 89.1662 21.5156 88.7797 25.308 92.7373L47.2441 94.7661C47.2441 94.7661 41.3332 96.3367 24.1461 93.6589Z" fill="#565F4B"/>
<path d="M18.4003 99.3692C18.7936 100.06 19.95 100.135 20.9818 99.5456C22.0113 98.9506 22.5256 97.9083 22.1308 97.2212C21.7359 96.5341 20.5811 96.4552 19.5493 97.0448C18.5175 97.6343 18.0055 98.6821 18.4003 99.3692Z" fill="#565F4B"/>
</g>
<defs>
<clipPath id="clip0_13582_228284">
<rect width="38" height="40.3265" fill="white" transform="translate(59 69.6736)"/>
</clipPath>
<clipPath id="clip1_13582_228284">
<rect width="38.4099" height="22.0965" fill="white" transform="matrix(-0.926676 -0.375862 -0.375862 0.926676 57.8984 94.4368)"/>
</clipPath>
</defs>
</svg>
