<svg xmlns="http://www.w3.org/2000/svg" width="28" height="33" viewBox="0 0 28 33" fill="none">
    <path fill-rule="evenodd" clip-rule="evenodd"
        d="M1.61111 0.902361C1.61111 0.429966 1.61111 0.0763754 1.61111 0C3.48758 12.5482 7.57167 17.374 12.9513 22.2875C15.1792 24.3241 25.3886 31.3778 28 34L21.5 33.5C20.5879 31.6868 16.3963 25.8205 14.9962 24.8955C16.2423 26.1854 16.9889 27.8968 17.3026 28.9774C17.3084 28.9972 17.288 29 17.2648 29C17.2445 29 17.2212 28.9972 17.2096 28.9972C14.8945 21.1248 5.91886 21.8547 5.23625 28.9774H3.10125C7.97832 26.9916 3.61351 17.1444 0 13.2917L1.61402 6.86529C1.88125 12.9442 3.33943 15.3939 5.60514 16.9355C6.38071 15.9172 1.87254 8.4324 1.61402 4.07052C1.61402 4.0196 1.61402 2.09042 1.61402 0.89953L1.61111 0.902361ZM9.10827 21.8377C9.71245 20.9919 8.46052 19.7218 8.30366 20.0641C8.06547 20.5902 8.88751 22.1432 9.10827 21.8377ZM5.59934 17.8605C5.06777 18.2311 5.12296 19.6115 5.72134 20.9466C6.32262 22.279 7.24052 23.0597 7.775 22.6891C8.30656 22.3186 8.25138 20.9353 7.653 19.6002C7.05462 18.2678 6.13382 17.49 5.59934 17.8605Z"
        fill="#EFEFEF" />
</svg>