<svg xmlns="http://www.w3.org/2000/svg" width="39" height="30" viewBox="0 0 39 30" fill="none">
    <path fill-rule="evenodd" clip-rule="evenodd"
        d="M0.175781 0C2.75566 1.09823 13.897 6.32932 13.7216 0H13.9832C15.2047 1.85466 16.8187 3.26943 18.5945 4.25026C17.0772 2.93357 16.0994 1.23347 15.5971 0H15.7353C19.1251 8.40244 31.378 7.64601 32.6932 0H34.7203C29.6304 2.86075 34.6094 12.5 44.1094 23L43.1285 23.7549C40.6631 17.76 31.3602 11.4935 32.6799 15.7393C33.3828 17.9982 35.1854 21.3197 37.1084 25.4094V30C31.0392 4.37955 14.4097 8.90325 0.000419617 0H0.174294H0.175781ZM29.4416 10.3492C30.2649 11.8814 31.5251 12.7775 32.2563 12.351C32.986 11.923 32.9102 10.3359 32.0869 8.80369C31.2636 7.273 30.0034 6.37688 29.2722 6.80339C28.5425 7.22841 28.6183 8.81706 29.4416 10.3492ZM28.547 9.81572C28.8754 9.21385 27.7475 7.42755 27.4458 7.77976C26.6151 8.75167 28.33 10.211 28.547 9.81572ZM13.6845 5.25189C14.857 5.52385 15.9032 5.30094 16.0221 4.75256C16.1395 4.2027 15.2835 3.53544 14.111 3.26349C12.9369 2.99004 11.8907 3.21444 11.7718 3.76282C11.653 4.31119 12.5104 4.97994 13.6845 5.25189Z"
        fill="#EFEFEF" />
</svg>