<svg width="152" height="44" viewBox="0 0 152 44" fill="none" xmlns="http://www.w3.org/2000/svg">
<g clip-path="url(#clip0_13628_216919)">
<path d="M0 19.73H2.45C2.51 19.16 2.61 18.6 2.72 18.04C2.98 16.78 3.37 15.53 3.86 14.35C4.35 13.18 4.96 12.06 5.67 11.01C6.37 9.97 7.18 8.99 8.08 8.09C8.97 7.2 9.95 6.39 11 5.68C12.05 4.97 13.18 4.36 14.34 3.87C15.53 3.37 16.77 2.98 18.03 2.73C18.59 2.62 19.15 2.52 19.72 2.46V0C9.33 1.07 1.06 9.33 0 19.73ZM41.55 24.28C41.49 24.85 41.39 25.41 41.28 25.97C41.02 27.23 40.63 28.48 40.14 29.66C39.65 30.83 39.04 31.95 38.33 33C37.63 34.04 36.82 35.02 35.92 35.92C35.03 36.81 34.05 37.62 33 38.33C31.95 39.04 30.82 39.65 29.66 40.14C28.47 40.64 27.23 41.03 25.97 41.28C25.41 41.39 24.85 41.49 24.28 41.55V44C34.67 42.94 42.94 34.67 44 24.28H41.55ZM14.34 40.14C13.17 39.65 12.05 39.04 11 38.33C9.96 37.63 8.98 36.82 8.08 35.92C7.19 35.03 6.38 34.05 5.67 33C4.96 31.95 4.35 30.82 3.86 29.66C3.36 28.47 2.97 27.23 2.72 25.97C2.61 25.41 2.51 24.85 2.45 24.28H0C1.06 34.67 9.33 42.94 19.72 44V41.55C19.15 41.49 18.59 41.39 18.03 41.28C16.77 41.03 15.52 40.64 14.34 40.14ZM24.28 0V2.45C24.85 2.51 25.41 2.61 25.97 2.72C27.23 2.98 28.48 3.37 29.66 3.86C30.83 4.35 31.95 4.96 33 5.67C34.04 6.37 35.02 7.18 35.92 8.08C36.81 8.97 37.62 9.95 38.33 11C39.04 12.05 39.65 13.18 40.14 14.34C40.64 15.53 41.03 16.77 41.28 18.03C41.39 18.59 41.49 19.15 41.55 19.72H44C42.94 9.33 34.68 1.07 24.28 0Z" fill="white"/>
<path d="M14.7391 10.54H10.5391V14.74H14.7391V10.54Z" fill="white"/>
<path d="M33.4705 10.54H27.8105V16.2H33.4705V10.54Z" fill="white"/>
<path d="M33.4695 26.0195V33.4695H26.0195V26.0195H33.4695Z" fill="white"/>
<path d="M12.9791 31.0195H10.5391V33.4595H12.9791V31.0195Z" fill="white"/>
<path d="M22.0108 22.16L10.7008 33.47H10.5508V33.31L21.8608 22L22.0208 22.16H22.0108Z" fill="url(#paint0_linear_13628_216919)"/>
<path d="M33.47 10.5398V10.6998L27.96 16.1998L22.16 21.9998L22 21.8398L27.8 16.0398L33.3 10.5298H33.46L33.47 10.5398Z" fill="url(#paint1_linear_13628_216919)"/>
<path d="M22.0091 21.85L21.8491 22.01L10.5391 10.7V10.54H10.6891L21.9991 21.85H22.0091Z" fill="url(#paint2_linear_13628_216919)"/>
<path d="M33.47 33.31V33.47H33.31L22 22.16L22.16 22L33.47 33.31Z" fill="url(#paint3_linear_13628_216919)"/>
<path d="M72.32 22.07C72.28 26.18 69.76 30.28 64.17 30.28C58.58 30.28 56 26.27 56 22.08C56 17.89 58.68 13.71 64.17 13.71C69.63 13.71 72.36 17.92 72.32 22.07ZM58.96 22.14C59.03 24.75 60.43 27.55 64.18 27.55C67.93 27.55 69.33 24.73 69.38 22.13C69.42 19.45 67.93 16.46 64.18 16.46C60.43 16.46 58.89 19.48 58.96 22.15V22.14Z" fill="white"/>
<path d="M77.4489 18.7399L77.6489 20.0299C78.5089 18.6499 79.6689 18.4399 80.7989 18.4399C81.9289 18.4399 83.0689 18.8899 83.6789 19.4999L82.4289 21.9099C81.8589 21.4299 81.3389 21.1799 80.4389 21.1799C78.9889 21.1799 77.6489 21.9499 77.6489 24.0199V29.9199H74.8789V18.7399H77.4389H77.4489Z" fill="white"/>
<path d="M94.1792 18.7401H96.8392V29.9301H94.2292L94.0992 28.3001C93.4592 29.6201 91.7192 30.2501 90.4692 30.2801C87.1592 30.3101 84.6992 28.2601 84.6992 24.3401C84.6992 20.4201 87.2592 18.4601 90.5292 18.4801C92.0292 18.4801 93.4492 19.1801 94.0892 20.3001L94.1692 18.7501L94.1792 18.7401ZM87.4592 24.3201C87.4592 26.4601 88.9292 27.7201 90.7692 27.7201C95.1292 27.7201 95.1292 20.9301 90.7692 20.9301C88.9292 20.9301 87.4592 22.1901 87.4592 24.3201Z" fill="white"/>
<path d="M-8115.5 16.0898H8267.5H-8115.5ZM101.12 -8169.25V8213.75V-8169.25ZM101.12 12.9199L99.5898 16.0801L101.12 17.3501L102.59 16.0898L101.12 12.9199Z" fill="white"/>
<path d="M119.749 21.8398C119.819 25.8498 117.369 29.9198 111.809 29.9198H105.559V14.0298H111.809C117.269 14.0298 119.689 17.9198 119.749 21.8398ZM108.549 27.0398H111.819C115.429 27.0398 116.859 24.4098 116.789 21.8198C116.719 19.3498 115.269 16.8798 111.819 16.8798H108.549V27.0498V27.0398Z" fill="white"/>
<path d="M134.14 29.9198H122.25V14.0298H134.14V16.9398H125.22V20.5898H133.82V23.3798H125.22V26.9698H134.14V29.9198Z" fill="white"/>
<path d="M147.801 14.0298H151.091V14.1598L145.711 21.8798L151.251 29.8298V29.9198H147.891L143.821 23.9498L139.751 29.9198H136.391V29.8298L141.901 21.8798L136.541 14.1598V14.0298H139.831L143.801 19.9598L147.771 14.0298H147.801Z" fill="white"/>
<path d="M103.041 18.7002V20.1802H102.511V30.1102H99.7406V20.1802H99.1406V18.7002H103.041Z" fill="white"/>
<path d="M62.1999 21.7401C62.7688 21.7401 63.2299 21.261 63.2299 20.6701C63.2299 20.0792 62.7688 19.6001 62.1999 19.6001C61.6311 19.6001 61.1699 20.0792 61.1699 20.6701C61.1699 21.261 61.6311 21.7401 62.1999 21.7401Z" fill="white"/>
<path d="M66.0593 21.7401C66.6281 21.7401 67.0893 21.261 67.0893 20.6701C67.0893 20.0792 66.6281 19.6001 66.0593 19.6001C65.4904 19.6001 65.0293 20.0792 65.0293 20.6701C65.0293 21.261 65.4904 21.7401 66.0593 21.7401Z" fill="white"/>
<path d="M64.7298 22.1899L64.1598 22.7599L63.5898 22.1899" fill="white"/>
<path d="M63.6495 17.7301L63.5795 16.8001C63.5595 16.5101 63.4795 16.3301 63.3395 16.2401C63.0695 16.0701 62.5495 16.2101 62.3895 16.2701L62.0195 15.3401C62.1295 15.3001 63.1095 14.9201 63.8595 15.3901C64.0295 15.4901 64.2095 15.6601 64.3595 15.9301C64.7195 15.6701 65.1695 15.3801 65.4795 15.2801L65.8095 16.2301C65.5295 16.3301 64.8095 16.8401 64.3995 17.1601L63.6695 17.7401L63.6495 17.7301Z" fill="black"/>
<path d="M61.2307 22.7598C61.2307 22.7598 64.3207 25.6898 67.0807 22.7598C67.0807 22.7598 67.3007 24.2098 65.9107 24.9898L65.2107 24.6998V25.1398H63.1307V24.7198L62.3207 24.9898C62.3207 24.9898 61.2607 24.3998 61.2207 22.7598H61.2307Z" fill="white"/>
<path d="M62.2012 23.3896L62.6312 24.0296L63.1412 23.7896L62.2012 23.3896Z" fill="black"/>
<path d="M66.2113 23.4697L65.7913 24.1097L65.2812 23.8697L66.2113 23.4697Z" fill="black"/>
<path d="M133.33 4.61319C133.33 4.61319 133.12 4.89319 133.38 5.36319C133.64 5.83319 135.32 6.88319 136.03 7.67319L136.69 6.48319L137.39 7.35319L138.31 6.72319L138.59 8.05319C139.5 7.51319 141.41 7.00319 141.8 6.63319C142.19 6.26319 142.07 5.93319 142.07 5.93319C146.66 4.60319 149.08 6.79319 149.08 6.79319C145.6 5.19319 144.4 7.50319 144.4 7.50319C137.98 7.24319 136.97 10.0232 136.97 10.0232C136.97 10.0232 136.82 7.07319 130.61 5.42319C130.61 5.42319 130.15 2.86319 126.35 3.36319C126.35 3.36319 129.31 1.98319 133.3 4.60319L133.33 4.61319Z" fill="#F7F4EB"/>
</g>
<defs>
<linearGradient id="paint0_linear_13628_216919" x1="21.9308" y1="22.08" x2="12.9508" y2="31.06" gradientUnits="userSpaceOnUse">
<stop stop-color="white" stop-opacity="0"/>
<stop offset="1" stop-color="white"/>
</linearGradient>
<linearGradient id="paint1_linear_13628_216919" x1="22.09" y1="21.9198" x2="27.78" y2="16.2298" gradientUnits="userSpaceOnUse">
<stop stop-color="white" stop-opacity="0"/>
<stop offset="1" stop-color="white"/>
</linearGradient>
<linearGradient id="paint2_linear_13628_216919" x1="21.8791" y1="21.87" x2="14.7091" y2="14.71" gradientUnits="userSpaceOnUse">
<stop stop-color="white" stop-opacity="0"/>
<stop offset="1" stop-color="white"/>
</linearGradient>
<linearGradient id="paint3_linear_13628_216919" x1="22.06" y1="22.06" x2="26.16" y2="26.15" gradientUnits="userSpaceOnUse">
<stop stop-color="white" stop-opacity="0"/>
<stop offset="0.98" stop-color="white"/>
</linearGradient>
<clipPath id="clip0_13628_216919">
<rect width="151.26" height="44" fill="white"/>
</clipPath>
</defs>
</svg>
