<svg width="152" height="54" viewBox="0 0 152 54" fill="none" xmlns="http://www.w3.org/2000/svg">
<path d="M34.299 23.1208C34.299 23.1208 27.3772 23.1687 22.5928 32.8854C17.8085 42.6021 25.5444 48.7664 25.5444 48.7664C25.5444 48.7664 29.2883 57.0813 40.0933 54.7218C40.0933 54.7218 46.7452 56.7069 52.2653 51.5221C52.2653 51.5221 58.1902 49.7111 59.0174 43.4858C59.0174 43.4858 61.7861 41.2961 59.6268 34.4482C57.4676 27.6004 48.8392 21.5841 41.2992 21.9628C41.2992 21.9628 37.7338 19.8906 34.299 23.1208Z" fill="#FBA01B"/>
<path d="M22.5928 32.8861C17.8085 42.6028 25.5444 48.7672 25.5444 48.7672C20.969 31.3537 36.7674 26.0731 36.7674 26.0731C36.7674 26.0731 37.7382 25.32 37.5074 24.7236C36.7674 22.8386 34.3034 23.1215 34.3034 23.1215C34.3034 23.1215 27.3815 23.1694 22.5972 32.8861H22.5928Z" fill="url(#paint0_linear_13690_23120)"/>
<path d="M38.6064 26.5342L36.7693 26.0728C36.7693 26.0728 20.971 31.3534 25.5463 48.7668C25.5463 48.7668 29.2902 57.0817 40.0953 54.7222C40.0953 54.7222 32.5422 39.2417 38.6064 26.5342Z" fill="url(#paint1_linear_13690_23120)"/>
<path d="M39.2409 26.0605L38.601 26.5351C32.5368 39.2425 40.0898 54.723 40.0898 54.723C40.0898 54.723 45.1615 56.2337 50.1243 53.1645L52.2618 51.519C52.2618 51.519 53.8769 35.0415 39.2409 26.0605Z" fill="url(#paint2_linear_13690_23120)"/>
<path d="M30.9473 53.9741C31.0866 54.0394 31.2259 54.1004 31.3695 54.1613C31.2259 54.1004 31.0866 54.0351 30.9473 53.9741Z" fill="url(#paint3_linear_13690_23120)"/>
<path d="M38.9844 25.4072L39.2456 26.0602C53.8816 35.0412 52.2665 51.5186 52.2665 51.5186C52.2665 51.5186 58.1914 49.7076 59.0185 43.4823C59.0185 43.4823 56.0452 26.4607 38.9844 25.4028V25.4072Z" fill="url(#paint4_linear_13690_23120)"/>
<path d="M59.6242 34.4484C57.4649 27.6006 48.8366 21.5843 41.2966 21.963C41.2966 21.963 39.4203 22.4462 40.3737 25.5328C56.1981 27.4004 59.0147 43.486 59.0147 43.486C59.0147 43.486 61.7835 41.2963 59.6242 34.4484Z" fill="url(#paint5_linear_13690_23120)"/>
<path d="M37.5014 24.7233C37.5275 24.7929 37.5406 24.8669 37.5362 24.9409L40.1874 24.806C39.7172 22.3681 41.2932 21.9589 41.2932 21.9589C41.2932 21.9589 37.7278 19.8867 34.293 23.1169C34.293 23.1169 36.757 22.8339 37.497 24.7189L37.5014 24.7233Z" fill="url(#paint6_linear_13690_23120)"/>
<path d="M27.2871 33.6134C27.2871 33.6134 30.8003 28.9771 36.6773 26.9005C36.6773 26.9005 37.1823 27.1443 37.6568 27.1182C37.6568 27.1182 35.5062 33.5699 36.4248 40.1652C36.4248 40.1652 36.0896 31.2321 39.0673 26.9136C39.0673 26.9136 46.2721 29.2078 50.5427 39.9127C50.5427 39.9127 48.0134 31.0667 40.6824 26.2606C40.6824 26.2606 47.9743 26.3738 54.2736 33.2608C54.2736 33.2608 50.3904 26.5131 40.3472 24.7979L36.612 25.9515C36.612 25.9515 30.6131 27.7886 27.2958 33.6134H27.2871Z" fill="url(#paint7_linear_13690_23120)"/>
<path d="M27.2891 33.6125C27.2891 33.6125 30.9633 28.8674 36.6792 26.8997L37.6588 27.1173C37.6588 27.1173 35.7085 34.6399 36.4268 40.1643C36.4268 40.1643 34.1935 32.5677 32.0995 34.222C30.0056 35.8719 27.2891 33.6125 27.2891 33.6125Z" fill="url(#paint8_linear_13690_23120)"/>
<path d="M36.4142 38.8713C36.4142 38.8713 36.1226 31.8841 39.0654 26.9126C39.0654 26.9126 45.922 28.5886 50.6105 40.112C50.6105 40.112 46.4095 32.3586 42.4915 30.774C38.5735 29.1894 36.4142 38.8713 36.4142 38.8713Z" fill="url(#paint9_linear_13690_23120)"/>
<path d="M33.3613 27.3825C34.0317 27.056 34.4888 26.7512 34.4888 26.7512C34.4888 26.7512 34.0405 26.9776 33.3613 27.3825Z" fill="url(#paint10_linear_13690_23120)"/>
<path d="M33.3592 27.3827C32.4276 27.8354 31.0868 28.3361 29.9723 28.1271C28.0525 27.7701 31.9226 23.6257 31.9226 23.6257C29.476 24.479 25.6146 26.7601 22.6021 32.881C21.9534 34.1957 21.5399 35.4451 21.3004 36.6205L21.0566 38.5621C21.0566 38.5621 21.0566 38.5664 21.0566 38.5708C21.0784 38.4968 23.316 31.7273 25.4318 30.269C27.5606 28.8019 27.295 33.608 27.295 33.608C28.2702 30.7565 31.5961 28.4405 33.3636 27.3783L33.3592 27.3827Z" fill="url(#paint11_linear_13690_23120)"/>
<path d="M50.5401 39.9119C50.5401 39.9119 48.9641 34.6399 45.5859 30.748C45.5859 30.748 50.7577 34.4745 50.6663 32.694C50.5749 30.9178 47.4056 28.1143 47.4056 28.1143C47.4056 28.1143 52.8691 29.8338 56.5564 36.7861C56.5564 36.7861 51.4847 31.3619 50.5401 39.9075V39.9119Z" fill="url(#paint12_linear_13690_23120)"/>
<path d="M59.6307 34.4485C58.2855 30.1866 54.4415 26.2512 49.9096 23.9744C49.988 24.031 52.6087 25.9116 53.697 27.801C54.8028 29.7208 49.4395 28.4148 49.4395 28.4148C52.8917 30.3477 55.5603 35.0754 55.5603 35.0754C55.5603 35.0754 54.4284 31.2793 56.5006 31.3794C58.5728 31.4752 60.1139 41.6098 60.1139 41.6098C60.5536 40.2124 60.7321 37.9356 59.6307 34.4485Z" fill="url(#paint13_linear_13690_23120)"/>
<path d="M41.7333 45.1875C41.7333 45.1875 47.1271 42.2011 49.0643 40.6905C49.0643 40.6905 46.6482 51.9004 36.605 51.3344C26.083 50.738 25.3429 42.9412 25.3864 40.3074C25.3864 40.3074 27.328 46.5283 30.0837 47.9693C32.8394 49.4102 40.3837 49.0968 42.9391 47.1552C45.4946 45.2136 41.7333 45.1918 41.7333 45.1918V45.1875Z" fill="url(#paint14_linear_13690_23120)"/>
<path d="M35.3805 39.5679C35.5677 42.1016 37.6834 44.0083 40.1082 43.8298C42.533 43.6514 44.344 41.4529 44.1568 38.9193C43.9697 36.3856 41.8539 34.4788 39.4291 34.6573C37.0043 34.8358 35.1933 37.0343 35.3805 39.5679Z" fill="url(#paint15_linear_13690_23120)"/>
<path d="M25.2549 36.6851C25.3899 38.5265 26.7569 39.9283 28.3023 39.8108C29.8477 39.6976 30.9927 38.113 30.8577 36.2715C30.7228 34.43 29.3558 33.0283 27.8104 33.1458C26.2649 33.259 25.12 34.8436 25.2549 36.6851Z" fill="url(#paint16_linear_13690_23120)"/>
<path d="M31.6784 42.9895C31.7306 43.7078 32.2182 44.2563 32.7711 44.2171C33.3196 44.1779 33.7244 43.5597 33.6722 42.8414C33.62 42.1231 33.128 41.5746 32.5795 41.6138C32.031 41.653 31.6261 42.2711 31.6784 42.9895Z" fill="url(#paint17_linear_13690_23120)"/>
<path d="M36.2418 24.0824C36.2418 24.0824 35.837 25.5146 36.7686 26.0719C36.7686 26.0719 36.7294 26.8032 38.6057 26.5333C38.6057 26.5333 40.2992 26.6509 40.4515 25.1707C40.4515 25.1707 39.3327 18.5101 43.8123 18.8366C43.8123 18.8366 45.8366 18.9628 45.5972 17.2084C45.5972 17.2084 45.767 15.6108 44.0953 15.3931C42.4193 15.1754 36.8948 18.0486 36.2418 24.0824Z" fill="#6F1F03"/>
<path d="M40.4549 25.1664C40.4549 25.1664 39.3361 18.5057 43.8157 18.8322C43.8157 18.8322 45.84 18.9585 45.6006 17.2041C45.6006 17.2041 45.6223 17.0082 45.5788 16.747C45.5788 16.747 36.785 16.2899 38.6134 26.529C38.6134 26.529 40.3069 26.6465 40.4593 25.1664H40.4549Z" fill="url(#paint18_linear_13690_23120)"/>
<path d="M36.2418 24.0824C36.2418 24.0824 35.837 25.5146 36.7686 26.0719C36.7686 26.0719 36.7294 26.8032 38.6057 26.5333C38.6057 26.5333 40.2992 26.6509 40.4515 25.1707C40.4515 25.1707 39.3327 18.5101 43.8123 18.8366C43.8123 18.8366 45.8366 18.9628 45.5972 17.2084C45.5972 17.2084 45.767 15.6108 44.0953 15.3931C42.4193 15.1754 36.8948 18.0486 36.2418 24.0824Z" fill="url(#paint19_linear_13690_23120)"/>
<path d="M41.7356 45.1874C40.6995 48.0302 38.3138 48.6614 38.3138 48.6614L39.006 45.9972C34.8399 46.8809 31.7011 45.884 29.4939 44.4866L29.1849 46.9331C28.2794 46.1147 27.918 44.1905 27.7874 43.1893C26.1593 41.7265 25.3887 40.303 25.3887 40.303C25.3887 40.303 25.2712 49.2796 35.297 50.8555C45.3227 52.4314 48.4006 41.5176 48.4006 41.5176C45.967 43.2458 43.7512 44.4256 41.7312 45.1831L41.7356 45.1874Z" fill="#311E56"/>
<path d="M48.1346 41.7087C46.9722 44.5209 43.3851 51.0466 35.4794 49.8016C28.1396 48.6479 26.2372 43.5284 25.7453 40.8685C25.5102 40.5202 25.3926 40.3069 25.3926 40.3069C25.3926 40.3069 25.2751 49.2835 35.3009 50.8594C45.3267 52.4353 48.4045 41.5215 48.4045 41.5215C48.3131 41.5868 48.226 41.6477 48.1346 41.7087Z" fill="#5A449E"/>
<path d="M48.1346 41.7087C46.9722 44.5209 43.3851 51.0466 35.4794 49.8016C28.1396 48.6479 26.2372 43.5284 25.7453 40.8685C25.5102 40.5202 25.3926 40.3069 25.3926 40.3069C25.3926 40.3069 25.2751 49.2835 35.3009 50.8594C45.3267 52.4353 48.4045 41.5215 48.4045 41.5215C48.3131 41.5868 48.226 41.6477 48.1346 41.7087Z" fill="url(#paint20_linear_13690_23120)"/>
<path d="M29.4907 44.4858L29.1816 46.9324L31.1755 46.1923L31.3801 45.4522C30.6879 45.1693 30.0567 44.8384 29.4907 44.4814V44.4858Z" fill="#5A449E"/>
<path d="M29.4907 44.4858L29.1816 46.9324L31.1755 46.1923L31.3801 45.4522C30.6879 45.1693 30.0567 44.8384 29.4907 44.4814V44.4858Z" fill="url(#paint21_linear_13690_23120)"/>
<path d="M41.7342 45.1869C40.9463 47.3462 39.3791 48.2299 38.6738 48.526L41.0029 47.6814C41.0029 47.6814 42.4221 47.0545 43.062 44.6384C42.6093 44.843 42.1696 45.0259 41.7342 45.1869Z" fill="#5A449E"/>
<path d="M41.7342 45.1869C40.9463 47.3462 39.3791 48.2299 38.6738 48.526L41.0029 47.6814C41.0029 47.6814 42.4221 47.0545 43.062 44.6384C42.6093 44.843 42.1696 45.0259 41.7342 45.1869Z" fill="url(#paint22_linear_13690_23120)"/>
<path d="M25.2548 36.789C25.3854 38.5347 26.674 39.8581 28.1411 39.7536C29.6082 39.6448 30.6921 38.1429 30.5615 36.3972C30.4309 34.6515 29.1424 33.3281 27.6753 33.4325C26.2082 33.5414 25.1242 35.0433 25.2548 36.789Z" fill="#311E56"/>
<path d="M26.5001 33.8682C26.0909 34.4689 25.8733 35.2482 25.9342 36.0884C26.0648 37.8341 27.3534 39.1575 28.8205 39.053C29.2515 39.0225 29.6476 38.8658 29.9915 38.622C29.5518 39.2663 28.8988 39.7017 28.137 39.7539C26.6699 39.8627 25.377 38.535 25.2507 36.7893C25.1593 35.5573 25.673 34.4515 26.5001 33.8682Z" fill="#5A449E"/>
<path d="M26.5001 33.8682C26.0909 34.4689 25.8733 35.2482 25.9342 36.0884C26.0648 37.8341 27.3534 39.1575 28.8205 39.053C29.2515 39.0225 29.6476 38.8658 29.9915 38.622C29.5518 39.2663 28.8988 39.7017 28.137 39.7539C26.6699 39.8627 25.377 38.535 25.2507 36.7893C25.1593 35.5573 25.673 34.4515 26.5001 33.8682Z" fill="url(#paint23_linear_13690_23120)"/>
<path d="M35.9302 39.6801C36.1044 42.057 38.0938 43.8506 40.3706 43.6852C42.6475 43.5154 44.3496 41.4519 44.1755 39.075C44.0013 36.6981 42.0119 34.9045 39.7351 35.0699C37.4583 35.2397 35.7561 37.3032 35.9302 39.6801Z" fill="#311E56"/>
<path d="M37.5544 35.9238C36.9754 36.7292 36.6576 37.7479 36.7403 38.8362C36.9144 41.2132 38.9039 43.0067 41.1807 42.8413C42.0035 42.7804 42.7523 42.4669 43.3618 41.9881C42.6739 42.9458 41.6074 43.5988 40.371 43.6902C38.0942 43.86 36.1047 42.0664 35.9306 39.6851C35.8174 38.1658 36.4747 36.7771 37.5544 35.9282V35.9238Z" fill="#5A449E"/>
<path d="M37.5544 35.9238C36.9754 36.7292 36.6576 37.7479 36.7403 38.8362C36.9144 41.2132 38.9039 43.0067 41.1807 42.8413C42.0035 42.7804 42.7523 42.4669 43.3618 41.9881C42.6739 42.9458 41.6074 43.5988 40.371 43.6902C38.0942 43.86 36.1047 42.0664 35.9306 39.6851C35.8174 38.1658 36.4747 36.7771 37.5544 35.9282V35.9238Z" fill="url(#paint24_linear_13690_23120)"/>
<path d="M31.78 43.0359C31.8323 43.7368 32.3111 44.2766 32.8466 44.2375C33.3864 44.1983 33.7782 43.5975 33.726 42.8923C33.6737 42.187 33.1949 41.6516 32.6594 41.6907C32.1239 41.7299 31.7278 42.3307 31.78 43.0359Z" fill="#311E56"/>
<path d="M32.2088 41.8867C32.1348 42.0826 32.0956 42.309 32.1131 42.5484C32.1653 43.2493 32.6442 43.7891 33.1796 43.7499C33.3494 43.7369 33.5018 43.6628 33.6324 43.554C33.4887 43.9371 33.2014 44.207 32.8444 44.2331C32.3046 44.2723 31.8301 43.7369 31.7778 43.0316C31.743 42.5484 31.9172 42.1218 32.2045 41.8823L32.2088 41.8867Z" fill="#5A449E"/>
<path d="M32.2088 41.8867C32.1348 42.0826 32.0956 42.309 32.1131 42.5484C32.1653 43.2493 32.6442 43.7891 33.1796 43.7499C33.3494 43.7369 33.5018 43.6628 33.6324 43.554C33.4887 43.9371 33.2014 44.207 32.8444 44.2331C32.3046 44.2723 31.8301 43.7369 31.7778 43.0316C31.743 42.5484 31.9172 42.1218 32.2045 41.8823L32.2088 41.8867Z" fill="url(#paint25_linear_13690_23120)"/>
<path d="M86.3429 9.55958C86.3429 9.55958 96.7561 8.10991 106.085 21.6663C115.415 35.2226 105.136 46.1887 105.136 46.1887C105.136 46.1887 101.331 59.51 84.5711 58.3346C84.5711 58.3346 75.0067 62.7793 65.5687 56.1971C65.5687 56.1971 56.2655 54.7779 53.6535 45.601C53.6535 45.601 49.0129 42.9193 50.7542 32.1491C52.4955 21.3789 64.1408 10.439 75.564 9.35497C75.564 9.35497 80.4702 5.45872 86.3385 9.55958H86.3429Z" fill="#FBA01B"/>
<path d="M106.086 21.6658C115.415 35.2222 105.137 46.1883 105.137 46.1883C108.188 19.0059 83.2785 14.535 83.2785 14.535C83.2785 14.535 81.6503 13.6121 81.8724 12.6718C82.5733 9.6767 86.3389 9.55916 86.3389 9.55916C86.3389 9.55916 96.7521 8.1095 106.081 21.6658H106.086Z" fill="url(#paint26_linear_13690_23120)"/>
<path d="M80.6176 15.632L83.2775 14.5349C83.2775 14.5349 108.187 19.0058 105.136 46.1882C105.136 46.1882 101.331 59.5094 84.5705 58.334C84.5705 58.334 92.5241 33.4024 80.6133 15.632H80.6176Z" fill="url(#paint27_linear_13690_23120)"/>
<path d="M79.5507 15.0618L80.6173 15.6321C92.5237 33.4025 84.5745 58.3341 84.5745 58.3341C84.5745 58.3341 77.2783 61.721 69.1462 58.1992L65.5721 56.1966C65.5721 56.1966 59.5253 31.7787 79.5507 15.0618Z" fill="url(#paint28_linear_13690_23120)"/>
<path d="M79.8001 14.0212L79.552 15.0617C59.5265 31.7742 65.5733 56.1965 65.5733 56.1965C65.5733 56.1965 56.2702 54.7773 53.6582 45.6005C53.6582 45.6005 54.3896 19.3585 79.8001 14.0212Z" fill="url(#paint29_linear_13690_23120)"/>
<path d="M50.7537 32.1487C52.4951 21.3785 64.1403 10.4385 75.5635 9.35449C75.5635 9.35449 78.4933 9.66793 77.7358 14.5176C54.354 20.8038 53.6574 45.6049 53.6574 45.6049C53.6574 45.6049 49.0168 42.9232 50.7581 32.153L50.7537 32.1487Z" fill="url(#paint30_linear_13690_23120)"/>
<path d="M81.8725 12.672C81.8463 12.7852 81.8464 12.894 81.8681 13.0072L77.85 13.3903C78.0197 9.62464 75.5645 9.35473 75.5645 9.35473C75.5645 9.35473 80.4707 5.45847 86.339 9.55934C86.339 9.55934 82.5734 9.67688 81.8725 12.672Z" fill="url(#paint31_linear_13690_23120)"/>
<path d="M99.1957 23.7907C99.1957 23.7907 92.8964 17.5915 83.6063 15.7631C83.6063 15.7631 82.901 16.2376 82.1827 16.3073C82.1827 16.3073 86.8365 25.5321 86.9018 35.6493C86.9018 35.6493 85.4391 22.1451 80.0191 16.3073C80.0191 16.3073 69.693 21.3398 65.6226 38.3701C65.6226 38.3701 67.4815 24.5177 77.4463 15.6804C77.4463 15.6804 66.5107 17.4522 58.5527 29.1889C58.5527 29.1889 62.9104 18.1879 77.6291 13.408L83.5018 14.3222C83.5018 14.3222 92.9225 15.7631 99.1913 23.7907H99.1957Z" fill="url(#paint32_linear_13690_23120)"/>
<path d="M99.1946 23.7913C99.1946 23.7913 92.6253 17.4658 83.6052 15.7637L82.1816 16.3078C82.1816 16.3078 86.7657 27.1912 86.9007 35.6498C86.9007 35.6498 88.5898 23.739 92.0986 25.7633C95.6074 27.7876 99.1946 23.7913 99.1946 23.7913Z" fill="url(#paint33_linear_13690_23120)"/>
<path d="M86.6264 33.7039C86.6264 33.7039 85.5294 23.1339 80.018 16.3079C80.018 16.3079 70.075 20.3347 65.5605 38.6885C65.5605 38.6885 70.1708 26.1073 75.7126 22.864C81.2544 19.6208 86.6264 33.7039 86.6264 33.7039Z" fill="url(#paint34_linear_13690_23120)"/>
<path d="M88.6984 15.759C87.6188 15.4151 86.8613 15.0581 86.8613 15.0581C86.8613 15.0581 87.5883 15.2975 88.6984 15.759Z" fill="url(#paint35_linear_13690_23120)"/>
<path d="M88.7001 15.7593C90.1977 16.2381 92.3265 16.6909 93.959 16.1337C96.7669 15.1759 90.0366 9.79517 90.0366 9.79517C93.898 10.5396 100.206 13.1211 106.083 21.6624C107.346 23.4952 108.247 25.2801 108.865 26.9996L109.657 29.8641C109.657 29.8641 109.657 29.8728 109.657 29.8772C109.605 29.7727 104.76 20.0865 101.255 18.3582C97.7333 16.6169 99.183 23.7912 99.183 23.7912C97.0934 19.7165 91.5864 16.9695 88.6914 15.7593H88.7001Z" fill="url(#paint36_linear_13690_23120)"/>
<path d="M65.6204 38.3705C65.6204 38.3705 66.8306 30.0991 71.0577 23.5081C71.0577 23.5081 64.1054 30.2427 63.8486 27.5524C63.5917 24.862 67.7448 19.9514 67.7448 19.9514C67.7448 19.9514 59.9088 23.7388 55.8906 35.001C55.8906 35.001 62.3205 25.7327 65.6204 38.3748V38.3705Z" fill="url(#paint37_linear_13690_23120)"/>
<path d="M50.7546 32.1495C51.8386 25.4496 56.7579 18.6845 63.0702 14.2659C62.9614 14.3703 59.4395 17.7703 58.2162 20.8525C56.9755 23.9826 64.755 20.8394 64.755 20.8394C59.9881 24.5006 57.0191 32.1973 57.0191 32.1973C57.0191 32.1973 57.8854 26.2419 54.7902 26.8471C51.6993 27.4478 51.6035 43.0198 51.6035 43.0198C50.6371 41.0172 49.8665 37.6303 50.7546 32.1451V32.1495Z" fill="url(#paint38_linear_13690_23120)"/>
<path d="M80.0168 44.3639C80.0168 44.3639 71.2535 41.0553 68.0059 39.2138C68.0059 39.2138 74.1049 55.5389 89.0717 52.4742C104.757 49.2657 104.156 37.3811 103.516 33.4282C103.516 33.4282 101.962 43.2059 98.1398 45.9746C94.3175 48.7433 82.9074 49.9318 78.6368 47.5723C74.3661 45.2128 80.0211 44.3595 80.0211 44.3595L80.0168 44.3639Z" fill="url(#paint39_linear_13690_23120)"/>
<path d="M95.6141 24.2864L102.188 27.0203L100.542 31.896L97.7864 30.5334L95.7534 35.653L92.3926 33.5503L95.6141 24.2864Z" fill="url(#paint40_linear_13690_23120)"/>
<path d="M78.7606 28.5435L73.123 34.8166L77.1281 38.0381L79.3266 35.2563L83.7365 38.9697L86.8796 34.9342L78.7606 28.5435Z" fill="url(#paint41_linear_13690_23120)"/>
<path d="M89.8323 37.4949L88.0039 42.1399L93.598 40.1765L89.8323 37.4949Z" fill="url(#paint42_linear_13690_23120)"/>
<path d="M83.639 11.4267C83.639 11.4267 84.5663 13.4902 83.282 14.535C83.282 14.535 83.4997 15.6276 80.6221 15.632C80.6221 15.632 78.1015 16.1805 77.5443 13.9864C77.5443 13.9864 77.762 3.72558 71.1013 5.20572C71.1013 5.20572 68.0888 5.83695 68.0627 3.15093C68.0627 3.15093 67.4532 0.787061 69.9216 0.0948778C72.3899 -0.601659 81.3317 2.50664 83.639 11.431V11.4267Z" fill="#6F1F03"/>
<path d="M77.5457 13.9867C77.5457 13.9867 77.7633 3.72582 71.1027 5.20596C71.1027 5.20596 68.0902 5.83719 68.0641 3.15117C68.0641 3.15117 67.9901 2.86385 67.9988 2.45464C67.9988 2.45464 81.1198 -0.166083 80.6235 15.6322C80.6235 15.6322 78.1029 16.1808 77.5457 13.9867Z" fill="url(#paint43_linear_13690_23120)"/>
<path d="M83.639 11.4267C83.639 11.4267 84.5663 13.4902 83.282 14.535C83.282 14.535 83.4997 15.6276 80.6221 15.632C80.6221 15.632 78.1015 16.1805 77.5443 13.9864C77.5443 13.9864 77.762 3.72558 71.1013 5.20572C71.1013 5.20572 68.0888 5.83695 68.0627 3.15093C68.0627 3.15093 67.4532 0.787061 69.9216 0.0948778C72.3899 -0.601659 81.3317 2.50664 83.639 11.431V11.4267Z" fill="url(#paint44_linear_13690_23120)"/>
<path d="M80.0152 44.3646C82.1962 48.4089 85.9227 48.8312 85.9227 48.8312L84.2945 44.9784C90.7549 45.392 95.2519 43.2023 98.2601 40.6207L99.2614 44.234C100.441 42.8061 100.563 39.8328 100.541 38.3004C102.666 35.7406 103.51 33.4333 103.51 33.4333C103.51 33.4333 105.661 46.9026 90.9334 51.478C76.206 56.0534 69.1797 40.3204 69.1797 40.3204C73.2152 42.3838 76.8111 43.6681 80.0108 44.369L80.0152 44.3646Z" fill="#311E56"/>
<path d="M69.6237 40.5429C71.992 44.5175 78.8137 53.5376 90.4284 49.9331C101.207 46.5853 102.944 38.4707 103.101 34.3611C103.38 33.7865 103.51 33.4338 103.51 33.4338C103.51 33.4338 105.661 46.9031 90.9334 51.4785C76.206 56.0539 69.1797 40.3208 69.1797 40.3208C69.3277 40.3992 69.4757 40.4689 69.6237 40.5429Z" fill="#5A449E"/>
<path d="M69.6237 40.5429C71.992 44.5175 78.8137 53.5376 90.4284 49.9331C101.207 46.5853 102.944 38.4707 103.101 34.3611C103.38 33.7865 103.51 33.4338 103.51 33.4338C103.51 33.4338 105.661 46.9031 90.9334 51.4785C76.206 56.0539 69.1797 40.3208 69.1797 40.3208C69.3277 40.3992 69.4757 40.4689 69.6237 40.5429Z" fill="url(#paint45_linear_13690_23120)"/>
<path d="M98.2607 40.6252L99.262 44.2385L96.0971 43.5637L95.627 42.4971C96.6065 41.9225 97.4815 41.2869 98.2564 40.6208L98.2607 40.6252Z" fill="#5A449E"/>
<path d="M98.2607 40.6252L99.262 44.2385L96.0971 43.5637L95.627 42.4971C96.6065 41.9225 97.4815 41.2869 98.2564 40.6208L98.2607 40.6252Z" fill="url(#paint46_linear_13690_23120)"/>
<path d="M80.0122 44.3651C81.6708 47.4429 84.2176 48.4224 85.3494 48.7141L81.6621 47.9566C81.6621 47.9566 79.3897 47.3297 77.8965 43.834C78.6191 44.0386 79.3244 44.2171 80.0122 44.3694V44.3651Z" fill="#5A449E"/>
<path d="M80.0122 44.3651C81.6708 47.4429 84.2176 48.4224 85.3494 48.7141L81.6621 47.9566C81.6621 47.9566 79.3897 47.3297 77.8965 43.834C78.6191 44.0386 79.3244 44.2171 80.0122 44.3694V44.3651Z" fill="url(#paint47_linear_13690_23120)"/>
<path d="M95.6141 24.2861L101.635 27.2812L100.224 31.147L97.4251 29.7539L95.5792 35.0563L92.3926 33.5501L95.6141 24.2861Z" fill="#311E56"/>
<path d="M99.6508 26.2937L98.1445 30.1072L100.225 31.1477L101.636 27.2819L99.6508 26.2937Z" fill="#5A449E"/>
<path d="M99.6508 26.2937L98.1445 30.1072L100.225 31.1477L101.636 27.2819L99.6508 26.2937Z" fill="url(#paint48_linear_13690_23120)"/>
<path d="M97.426 29.7544L95.4365 28.8533L93.373 34.012L95.5802 35.0568L97.426 29.7544Z" fill="#5A449E"/>
<path d="M97.426 29.7544L95.4365 28.8533L93.373 34.012L95.5802 35.0568L97.426 29.7544Z" fill="url(#paint49_linear_13690_23120)"/>
<path d="M78.7596 28.5442L73.7402 34.7085L76.9835 37.3467L79.3169 34.4778L83.6746 38.1477L86.365 34.9523L78.7596 28.5442Z" fill="#311E56"/>
<path d="M84.571 33.4412L82.0156 36.7541L83.6743 38.1471L86.3646 34.9518L84.571 33.4412Z" fill="#5A449E"/>
<path d="M84.571 33.4412L82.0156 36.7541L83.6743 38.1471L86.3646 34.9518L84.571 33.4412Z" fill="url(#paint50_linear_13690_23120)"/>
<path d="M79.3172 34.4766L77.2232 32.7744L74.8594 35.6215L76.9838 37.3454L79.3172 34.4766Z" fill="#5A449E"/>
<path d="M79.3172 34.4766L77.2232 32.7744L74.8594 35.6215L76.9838 37.3454L79.3172 34.4766Z" fill="url(#paint51_linear_13690_23120)"/>
<path d="M92.9257 40.1582L88.5332 41.5643L89.8349 37.4939L92.9257 40.1582Z" fill="#311E56"/>
<path d="M91.4369 38.8735L89.1818 39.5265L88.5332 41.5639L92.9257 40.1578L91.4369 38.8735Z" fill="#5A449E"/>
<path d="M91.4369 38.8735L89.1818 39.5265L88.5332 41.5639L92.9257 40.1578L91.4369 38.8735Z" fill="url(#paint52_linear_13690_23120)"/>
<path d="M23.6131 32.6339C24.0417 40.9938 31.5911 56.7014 31.5911 56.7014C24.8656 55.575 17.5763 59.6701 17.5763 59.6701C9.10243 54.2711 -1.80852 59.2839 -1.80852 59.2839C10.8876 53.1848 23.6131 32.6339 23.6131 32.6339ZM25.305 47.3298C23.4062 45.8866 16.0991 56.0115 16.0991 56.0115C28.8889 58.455 27.2037 48.7731 25.305 47.3298ZM21.7859 38.6267C19.6832 35.8865 12.7316 53.6446 12.7316 53.6446C22.2263 52.8385 23.8893 41.3711 21.7859 38.6267Z" fill="url(#paint53_linear_13690_23120)"/>
<g clip-path="url(#clip0_13690_23120)">
<path d="M107.669 25.9698C109.404 38.1151 102.962 62.8318 102.962 62.8318C112.319 59.3204 123.955 63.161 123.955 63.161C134.626 53.0122 151.73 57.1544 151.73 57.1544C131.753 51.9516 107.669 25.9698 107.669 25.9698ZM109.368 47.5841C111.694 44.9742 125.051 57.4831 125.051 57.4831C107.342 64.5944 107.043 50.194 109.368 47.5841ZM111.983 34.0761C114.237 29.5433 129.23 53.1316 129.23 53.1316C115.346 54.642 109.729 38.615 111.983 34.0761Z" fill="url(#paint54_linear_13690_23120)"/>
</g>
<defs>
<linearGradient id="paint0_linear_13690_23120" x1="31.8127" y1="36.5441" x2="23.0298" y2="32.043" gradientUnits="userSpaceOnUse">
<stop stop-color="#992213" stop-opacity="0.7"/>
<stop offset="1" stop-color="#992213" stop-opacity="0"/>
</linearGradient>
<linearGradient id="paint1_linear_13690_23120" x1="44.875" y1="45.4065" x2="26.1014" y2="35.7894" gradientUnits="userSpaceOnUse">
<stop stop-color="#992213" stop-opacity="0.7"/>
<stop offset="0.63" stop-color="#992213" stop-opacity="0"/>
</linearGradient>
<linearGradient id="paint2_linear_13690_23120" x1="51.8614" y1="40.0386" x2="36.3743" y2="40.8177" gradientUnits="userSpaceOnUse">
<stop stop-color="#992213" stop-opacity="0.7"/>
<stop offset="1" stop-color="#992213" stop-opacity="0"/>
</linearGradient>
<linearGradient id="paint3_linear_13690_23120" x1="31.3771" y1="54.0452" x2="30.9684" y2="54.0658" gradientUnits="userSpaceOnUse">
<stop stop-color="#992213" stop-opacity="0.7"/>
<stop offset="1" stop-color="#992213" stop-opacity="0"/>
</linearGradient>
<linearGradient id="paint4_linear_13690_23120" x1="57.3477" y1="48.5804" x2="41.3669" y2="23.8632" gradientUnits="userSpaceOnUse">
<stop stop-color="#992213" stop-opacity="0.7"/>
<stop offset="1" stop-color="#992213" stop-opacity="0"/>
</linearGradient>
<linearGradient id="paint5_linear_13690_23120" x1="40.5773" y1="33.1952" x2="60.1253" y2="32.2118" gradientUnits="userSpaceOnUse">
<stop stop-color="#992213" stop-opacity="0.6"/>
<stop offset="1" stop-color="#992213" stop-opacity="0"/>
</linearGradient>
<linearGradient id="paint6_linear_13690_23120" x1="37.9341" y1="24.9115" x2="37.7541" y2="21.3332" gradientUnits="userSpaceOnUse">
<stop stop-color="#992213" stop-opacity="0.6"/>
<stop offset="1" stop-color="#992213" stop-opacity="0"/>
</linearGradient>
<linearGradient id="paint7_linear_13690_23120" x1="40.3589" y1="24.7902" x2="41.1431" y2="40.3773" gradientUnits="userSpaceOnUse">
<stop stop-color="#CE480D"/>
<stop offset="0.79" stop-color="#CE480D" stop-opacity="0"/>
</linearGradient>
<linearGradient id="paint8_linear_13690_23120" x1="32.3264" y1="27.1071" x2="32.9913" y2="40.3246" gradientUnits="userSpaceOnUse">
<stop stop-color="#FEB906" stop-opacity="0.8"/>
<stop offset="0.72" stop-color="#FEB906" stop-opacity="0"/>
</linearGradient>
<linearGradient id="paint9_linear_13690_23120" x1="42.8859" y1="26.7109" x2="43.5774" y2="40.4545" gradientUnits="userSpaceOnUse">
<stop stop-color="#FEB906" stop-opacity="0.8"/>
<stop offset="0.51" stop-color="#FEB906" stop-opacity="0"/>
</linearGradient>
<linearGradient id="paint10_linear_13690_23120" x1="33.9259" y1="26.7692" x2="33.9547" y2="27.3431" gradientUnits="userSpaceOnUse">
<stop stop-color="#FEB906" stop-opacity="0.8"/>
<stop offset="0.72" stop-color="#FEB906" stop-opacity="0"/>
</linearGradient>
<linearGradient id="paint11_linear_13690_23120" x1="26.7649" y1="23.8779" x2="27.4874" y2="38.2388" gradientUnits="userSpaceOnUse">
<stop stop-color="#FEB906" stop-opacity="0.8"/>
<stop offset="0.72" stop-color="#FEB906" stop-opacity="0"/>
</linearGradient>
<linearGradient id="paint12_linear_13690_23120" x1="50.7926" y1="27.9347" x2="51.3926" y2="39.8609" gradientUnits="userSpaceOnUse">
<stop stop-color="#FEB906" stop-opacity="0.8"/>
<stop offset="0.72" stop-color="#FEB906" stop-opacity="0"/>
</linearGradient>
<linearGradient id="paint13_linear_13690_23120" x1="54.4614" y1="23.7315" x2="55.3722" y2="41.8359" gradientUnits="userSpaceOnUse">
<stop stop-color="#FEB906" stop-opacity="0.8"/>
<stop offset="0.72" stop-color="#FEB906" stop-opacity="0"/>
</linearGradient>
<linearGradient id="paint14_linear_13690_23120" x1="49.2979" y1="44.9217" x2="25.6716" y2="46.1102" gradientUnits="userSpaceOnUse">
<stop stop-color="#FEB906" stop-opacity="0.7"/>
<stop offset="1" stop-color="#FEB906" stop-opacity="0.3"/>
</linearGradient>
<linearGradient id="paint15_linear_13690_23120" x1="44.1745" y1="38.9481" x2="35.4003" y2="39.5971" gradientUnits="userSpaceOnUse">
<stop stop-color="#FEB906" stop-opacity="0.7"/>
<stop offset="1" stop-color="#FEB906" stop-opacity="0.3"/>
</linearGradient>
<linearGradient id="paint16_linear_13690_23120" x1="30.8748" y1="36.3034" x2="25.2699" y2="36.7179" gradientUnits="userSpaceOnUse">
<stop stop-color="#FEB906" stop-opacity="0.7"/>
<stop offset="1" stop-color="#FEB906" stop-opacity="0.3"/>
</linearGradient>
<linearGradient id="paint17_linear_13690_23120" x1="33.6894" y1="42.8709" x2="31.6967" y2="43.0183" gradientUnits="userSpaceOnUse">
<stop stop-color="#FEB906" stop-opacity="0.7"/>
<stop offset="1" stop-color="#FEB906" stop-opacity="0.3"/>
</linearGradient>
<linearGradient id="paint18_linear_13690_23120" x1="42.2888" y1="26.3481" x2="41.8139" y2="16.9089" gradientUnits="userSpaceOnUse">
<stop stop-color="#491607" stop-opacity="0.8"/>
<stop offset="1" stop-color="#491607" stop-opacity="0"/>
</linearGradient>
<linearGradient id="paint19_linear_13690_23120" x1="40.6255" y1="15.5347" x2="41.1732" y2="26.4217" gradientUnits="userSpaceOnUse">
<stop offset="0.02" stop-color="#D777DD" stop-opacity="0.3"/>
<stop offset="1" stop-color="#D777DD" stop-opacity="0"/>
</linearGradient>
<linearGradient id="paint20_linear_13690_23120" x1="48.5869" y1="44.787" x2="25.6867" y2="45.9391" gradientUnits="userSpaceOnUse">
<stop stop-color="#78CA11"/>
<stop offset="0.11" stop-color="#7BCB18" stop-opacity="0.93"/>
<stop offset="0.32" stop-color="#85D02C" stop-opacity="0.75"/>
<stop offset="0.6" stop-color="#94D84B" stop-opacity="0.47"/>
<stop offset="0.94" stop-color="#AAE377" stop-opacity="0.07"/>
<stop offset="1" stop-color="#AEE67F" stop-opacity="0"/>
</linearGradient>
<linearGradient id="paint21_linear_13690_23120" x1="30.3334" y1="46.8643" x2="30.2114" y2="44.4382" gradientUnits="userSpaceOnUse">
<stop stop-color="#78CA11"/>
<stop offset="0.11" stop-color="#7BCB18" stop-opacity="0.93"/>
<stop offset="0.32" stop-color="#85D02C" stop-opacity="0.75"/>
<stop offset="0.6" stop-color="#94D84B" stop-opacity="0.47"/>
<stop offset="0.94" stop-color="#AAE377" stop-opacity="0.07"/>
<stop offset="1" stop-color="#AEE67F" stop-opacity="0"/>
</linearGradient>
<linearGradient id="paint22_linear_13690_23120" x1="40.9741" y1="48.3998" x2="40.7899" y2="44.739" gradientUnits="userSpaceOnUse">
<stop stop-color="#78CA11"/>
<stop offset="0.11" stop-color="#7BCB18" stop-opacity="0.93"/>
<stop offset="0.32" stop-color="#85D02C" stop-opacity="0.75"/>
<stop offset="0.6" stop-color="#94D84B" stop-opacity="0.47"/>
<stop offset="0.94" stop-color="#AAE377" stop-opacity="0.07"/>
<stop offset="1" stop-color="#AEE67F" stop-opacity="0"/>
</linearGradient>
<linearGradient id="paint23_linear_13690_23120" x1="30.1457" y1="38.3657" x2="25.1435" y2="35.9506" gradientUnits="userSpaceOnUse">
<stop stop-color="#78CA11"/>
<stop offset="0.11" stop-color="#7BCB18" stop-opacity="0.93"/>
<stop offset="0.32" stop-color="#85D02C" stop-opacity="0.75"/>
<stop offset="0.6" stop-color="#94D84B" stop-opacity="0.47"/>
<stop offset="0.94" stop-color="#AAE377" stop-opacity="0.07"/>
<stop offset="1" stop-color="#AEE67F" stop-opacity="0"/>
</linearGradient>
<linearGradient id="paint24_linear_13690_23120" x1="43.2823" y1="42.2096" x2="35.8172" y2="38.6016" gradientUnits="userSpaceOnUse">
<stop stop-color="#78CA11"/>
<stop offset="0.11" stop-color="#7BCB18" stop-opacity="0.93"/>
<stop offset="0.32" stop-color="#85D02C" stop-opacity="0.75"/>
<stop offset="0.6" stop-color="#94D84B" stop-opacity="0.47"/>
<stop offset="0.94" stop-color="#AAE377" stop-opacity="0.07"/>
<stop offset="1" stop-color="#AEE67F" stop-opacity="0"/>
</linearGradient>
<linearGradient id="paint25_linear_13690_23120" x1="33.6213" y1="43.6694" x2="31.7155" y2="42.7496" gradientUnits="userSpaceOnUse">
<stop stop-color="#78CA11"/>
<stop offset="0.11" stop-color="#7BCB18" stop-opacity="0.93"/>
<stop offset="0.32" stop-color="#85D02C" stop-opacity="0.75"/>
<stop offset="0.6" stop-color="#94D84B" stop-opacity="0.47"/>
<stop offset="0.94" stop-color="#AAE377" stop-opacity="0.07"/>
<stop offset="1" stop-color="#AEE67F" stop-opacity="0"/>
</linearGradient>
<linearGradient id="paint26_linear_13690_23120" x1="93.051" y1="29.2086" x2="105.269" y2="20.5169" gradientUnits="userSpaceOnUse">
<stop stop-color="#992213" stop-opacity="0.7"/>
<stop offset="1" stop-color="#992213" stop-opacity="0"/>
</linearGradient>
<linearGradient id="paint27_linear_13690_23120" x1="75.3659" y1="45.4034" x2="101.478" y2="26.8244" gradientUnits="userSpaceOnUse">
<stop stop-color="#992213" stop-opacity="0.7"/>
<stop offset="0.63" stop-color="#992213" stop-opacity="0"/>
</linearGradient>
<linearGradient id="paint28_linear_13690_23120" x1="63.6766" y1="38.8706" x2="87.1269" y2="36.6415" gradientUnits="userSpaceOnUse">
<stop stop-color="#992213" stop-opacity="0.7"/>
<stop offset="1" stop-color="#992213" stop-opacity="0"/>
</linearGradient>
<linearGradient id="paint29_linear_13690_23120" x1="57.3123" y1="52.9181" x2="75.906" y2="12.2487" gradientUnits="userSpaceOnUse">
<stop stop-color="#992213" stop-opacity="0.7"/>
<stop offset="1" stop-color="#992213" stop-opacity="0"/>
</linearGradient>
<linearGradient id="paint30_linear_13690_23120" x1="79.133" y1="26.1016" x2="49.5287" y2="28.9157" gradientUnits="userSpaceOnUse">
<stop stop-color="#992213" stop-opacity="0.6"/>
<stop offset="1" stop-color="#992213" stop-opacity="0"/>
</linearGradient>
<linearGradient id="paint31_linear_13690_23120" x1="81.2927" y1="13.0663" x2="80.7773" y2="7.64472" gradientUnits="userSpaceOnUse">
<stop stop-color="#992213" stop-opacity="0.6"/>
<stop offset="1" stop-color="#992213" stop-opacity="0"/>
</linearGradient>
<linearGradient id="paint32_linear_13690_23120" x1="77.6275" y1="13.4151" x2="79.8714" y2="37.0214" gradientUnits="userSpaceOnUse">
<stop stop-color="#CE480D"/>
<stop offset="0.79" stop-color="#CE480D" stop-opacity="0"/>
</linearGradient>
<linearGradient id="paint33_linear_13690_23120" x1="90.2139" y1="15.1403" x2="92.1167" y2="35.1582" gradientUnits="userSpaceOnUse">
<stop stop-color="#FEB906" stop-opacity="0.8"/>
<stop offset="0.72" stop-color="#FEB906" stop-opacity="0"/>
</linearGradient>
<linearGradient id="paint34_linear_13690_23120" x1="74.2498" y1="16.8589" x2="76.2288" y2="37.6786" gradientUnits="userSpaceOnUse">
<stop stop-color="#FEB906" stop-opacity="0.8"/>
<stop offset="0.51" stop-color="#FEB906" stop-opacity="0"/>
</linearGradient>
<linearGradient id="paint35_linear_13690_23120" x1="87.7363" y1="14.9775" x2="87.8191" y2="15.8486" gradientUnits="userSpaceOnUse">
<stop stop-color="#FEB906" stop-opacity="0.8"/>
<stop offset="0.72" stop-color="#FEB906" stop-opacity="0"/>
</linearGradient>
<linearGradient id="paint36_linear_13690_23120" x1="97.8718" y1="9.05991" x2="99.9394" y2="30.8114" gradientUnits="userSpaceOnUse">
<stop stop-color="#FEB906" stop-opacity="0.8"/>
<stop offset="0.72" stop-color="#FEB906" stop-opacity="0"/>
</linearGradient>
<linearGradient id="paint37_linear_13690_23120" x1="62.6331" y1="20.438" x2="64.3498" y2="38.497" gradientUnits="userSpaceOnUse">
<stop stop-color="#FEB906" stop-opacity="0.8"/>
<stop offset="0.72" stop-color="#FEB906" stop-opacity="0"/>
</linearGradient>
<linearGradient id="paint38_linear_13690_23120" x1="56.1933" y1="14.9236" x2="58.7997" y2="42.3437" gradientUnits="userSpaceOnUse">
<stop stop-color="#FEB906" stop-opacity="0.8"/>
<stop offset="0.72" stop-color="#FEB906" stop-opacity="0"/>
</linearGradient>
<linearGradient id="paint39_linear_13690_23120" x1="68.6109" y1="45.6473" x2="104.391" y2="42.2462" gradientUnits="userSpaceOnUse">
<stop stop-color="#FEB906" stop-opacity="0.7"/>
<stop offset="1" stop-color="#FEB906" stop-opacity="0.3"/>
</linearGradient>
<linearGradient id="paint40_linear_13690_23120" x1="92.346" y1="30.013" x2="102.219" y2="29.8924" gradientUnits="userSpaceOnUse">
<stop stop-color="#FEB906" stop-opacity="0.7"/>
<stop offset="1" stop-color="#FEB906" stop-opacity="0.3"/>
</linearGradient>
<linearGradient id="paint41_linear_13690_23120" x1="73.1046" y1="33.8612" x2="86.8602" y2="33.6931" gradientUnits="userSpaceOnUse">
<stop stop-color="#FEB906" stop-opacity="0.7"/>
<stop offset="1" stop-color="#FEB906" stop-opacity="0.3"/>
</linearGradient>
<linearGradient id="paint42_linear_13690_23120" x1="87.9724" y1="39.8321" x2="93.5878" y2="39.7635" gradientUnits="userSpaceOnUse">
<stop stop-color="#FEB906" stop-opacity="0.7"/>
<stop offset="1" stop-color="#FEB906" stop-opacity="0.3"/>
</linearGradient>
<linearGradient id="paint43_linear_13690_23120" x1="75.0734" y1="16.1807" x2="73.7148" y2="1.8878" gradientUnits="userSpaceOnUse">
<stop stop-color="#491607" stop-opacity="0.8"/>
<stop offset="1" stop-color="#491607" stop-opacity="0"/>
</linearGradient>
<linearGradient id="paint44_linear_13690_23120" x1="75.1976" y1="-0.440014" x2="76.7647" y2="16.0458" gradientUnits="userSpaceOnUse">
<stop offset="0.02" stop-color="#D777DD" stop-opacity="0.3"/>
<stop offset="1" stop-color="#D777DD" stop-opacity="0"/>
</linearGradient>
<linearGradient id="paint45_linear_13690_23120" x1="69.6463" y1="45.2872" x2="104.33" y2="41.9903" gradientUnits="userSpaceOnUse">
<stop stop-color="#78CA11"/>
<stop offset="0.11" stop-color="#7BCB18" stop-opacity="0.93"/>
<stop offset="0.32" stop-color="#85D02C" stop-opacity="0.75"/>
<stop offset="0.6" stop-color="#94D84B" stop-opacity="0.47"/>
<stop offset="0.94" stop-color="#AAE377" stop-opacity="0.07"/>
<stop offset="1" stop-color="#AEE67F" stop-opacity="0"/>
</linearGradient>
<linearGradient id="paint46_linear_13690_23120" x1="97.5416" y1="44.4063" x2="97.1923" y2="40.7312" gradientUnits="userSpaceOnUse">
<stop stop-color="#78CA11"/>
<stop offset="0.11" stop-color="#7BCB18" stop-opacity="0.93"/>
<stop offset="0.32" stop-color="#85D02C" stop-opacity="0.75"/>
<stop offset="0.6" stop-color="#94D84B" stop-opacity="0.47"/>
<stop offset="0.94" stop-color="#AAE377" stop-opacity="0.07"/>
<stop offset="1" stop-color="#AEE67F" stop-opacity="0"/>
</linearGradient>
<linearGradient id="paint47_linear_13690_23120" x1="81.8826" y1="49.0525" x2="81.3558" y2="43.5095" gradientUnits="userSpaceOnUse">
<stop stop-color="#78CA11"/>
<stop offset="0.11" stop-color="#7BCB18" stop-opacity="0.93"/>
<stop offset="0.32" stop-color="#85D02C" stop-opacity="0.75"/>
<stop offset="0.6" stop-color="#94D84B" stop-opacity="0.47"/>
<stop offset="0.94" stop-color="#AAE377" stop-opacity="0.07"/>
<stop offset="1" stop-color="#AEE67F" stop-opacity="0"/>
</linearGradient>
<linearGradient id="paint48_linear_13690_23120" x1="99.9147" y1="31.1531" x2="99.8553" y2="26.2951" gradientUnits="userSpaceOnUse">
<stop stop-color="#78CA11"/>
<stop offset="0.11" stop-color="#7BCB18" stop-opacity="0.93"/>
<stop offset="0.32" stop-color="#85D02C" stop-opacity="0.75"/>
<stop offset="0.6" stop-color="#94D84B" stop-opacity="0.47"/>
<stop offset="0.94" stop-color="#AAE377" stop-opacity="0.07"/>
<stop offset="1" stop-color="#AEE67F" stop-opacity="0"/>
</linearGradient>
<linearGradient id="paint49_linear_13690_23120" x1="95.4345" y1="35.0649" x2="95.3586" y2="28.8575" gradientUnits="userSpaceOnUse">
<stop stop-color="#78CA11"/>
<stop offset="0.11" stop-color="#7BCB18" stop-opacity="0.93"/>
<stop offset="0.32" stop-color="#85D02C" stop-opacity="0.75"/>
<stop offset="0.6" stop-color="#94D84B" stop-opacity="0.47"/>
<stop offset="0.94" stop-color="#AAE377" stop-opacity="0.07"/>
<stop offset="1" stop-color="#AEE67F" stop-opacity="0"/>
</linearGradient>
<linearGradient id="paint50_linear_13690_23120" x1="84.2139" y1="38.1446" x2="84.1566" y2="33.452" gradientUnits="userSpaceOnUse">
<stop stop-color="#78CA11"/>
<stop offset="0.11" stop-color="#7BCB18" stop-opacity="0.93"/>
<stop offset="0.32" stop-color="#85D02C" stop-opacity="0.75"/>
<stop offset="0.6" stop-color="#94D84B" stop-opacity="0.47"/>
<stop offset="0.94" stop-color="#AAE377" stop-opacity="0.07"/>
<stop offset="1" stop-color="#AEE67F" stop-opacity="0"/>
</linearGradient>
<linearGradient id="paint51_linear_13690_23120" x1="77.1128" y1="37.3512" x2="77.0569" y2="32.7805" gradientUnits="userSpaceOnUse">
<stop stop-color="#78CA11"/>
<stop offset="0.11" stop-color="#7BCB18" stop-opacity="0.93"/>
<stop offset="0.32" stop-color="#85D02C" stop-opacity="0.75"/>
<stop offset="0.6" stop-color="#94D84B" stop-opacity="0.47"/>
<stop offset="0.94" stop-color="#AAE377" stop-opacity="0.07"/>
<stop offset="1" stop-color="#AEE67F" stop-opacity="0"/>
</linearGradient>
<linearGradient id="paint52_linear_13690_23120" x1="92.9208" y1="40.1883" x2="88.5112" y2="40.2422" gradientUnits="userSpaceOnUse">
<stop stop-color="#78CA11"/>
<stop offset="0.11" stop-color="#7BCB18" stop-opacity="0.93"/>
<stop offset="0.32" stop-color="#85D02C" stop-opacity="0.75"/>
<stop offset="0.6" stop-color="#94D84B" stop-opacity="0.47"/>
<stop offset="0.94" stop-color="#AAE377" stop-opacity="0.07"/>
<stop offset="1" stop-color="#AEE67F" stop-opacity="0"/>
</linearGradient>
<linearGradient id="paint53_linear_13690_23120" x1="11.5531" y1="34.3357" x2="15.1758" y2="60.0089" gradientUnits="userSpaceOnUse">
<stop stop-color="white" stop-opacity="0.3"/>
<stop offset="1" stop-color="white" stop-opacity="0.1"/>
</linearGradient>
<linearGradient id="paint54_linear_13690_23120" x1="125.495" y1="25.0263" x2="127.504" y2="62.9732" gradientUnits="userSpaceOnUse">
<stop stop-color="white" stop-opacity="0.3"/>
<stop offset="1" stop-color="white" stop-opacity="0.1"/>
</linearGradient>
<clipPath id="clip0_13690_23120">
<rect width="49" height="38" fill="white" transform="translate(101.029 26.3213) rotate(-3.02977)"/>
</clipPath>
</defs>
</svg>
