<svg width="84" height="58" viewBox="0 0 84 58" fill="none" xmlns="http://www.w3.org/2000/svg">
<path d="M46.0949 9.15771C46.0949 9.15771 34.7875 6.66417 23.3716 20.7366C11.9556 34.814 22.2853 47.7409 22.2853 47.7409C22.2853 47.7409 25.3071 62.6923 43.8087 62.8601C43.8087 62.8601 53.9261 68.5681 64.8532 62.159C64.8532 62.159 75.1878 61.4035 78.8565 51.5577C78.8565 51.5577 84.1843 49.0148 83.2066 37.0409C82.229 25.067 70.3933 12.0463 57.9454 9.8638C57.9454 9.8638 52.899 5.15817 46.0998 9.15277L46.0949 9.15771Z" fill="#FBA01B"/>
<path d="M23.3716 20.7367C11.9556 34.8141 22.2853 47.741 22.2853 47.741C21.2928 17.6359 49.0229 14.8856 49.0229 14.8856C49.0229 14.8856 50.8894 14.0165 50.7264 12.9599C50.2178 9.6121 46.0899 9.1529 46.0899 9.1529C46.0899 9.1529 34.7826 6.65936 23.3666 20.7318L23.3716 20.7367Z" fill="url(#paint0_linear_13690_23278)"/>
<path d="M51.8527 16.3224L49.0284 14.8855C49.0284 14.8855 21.2933 17.6358 22.2858 47.741C22.2858 47.741 25.3077 62.6923 43.8092 62.8602C43.8092 62.8602 37.2421 34.7992 51.8527 16.3273V16.3224Z" fill="url(#paint1_linear_13690_23278)"/>
<path d="M53.0669 15.7889L51.8473 16.3221C37.2366 34.799 43.8037 62.855 43.8037 62.855C43.8037 62.855 51.5164 67.2051 60.7499 64.0401L64.8482 62.1539C64.8482 62.1539 73.6028 35.8705 53.0669 15.7839V15.7889Z" fill="url(#paint2_linear_13690_23278)"/>
<path d="M28.5078 57.7048C28.6954 57.8678 28.888 58.0258 29.0905 58.1838C28.893 58.0258 28.6954 57.8678 28.5078 57.7048Z" fill="url(#paint3_linear_13690_23278)"/>
<path d="M52.8887 14.6235L53.0714 15.7888C73.6073 35.8754 64.8527 62.1588 64.8527 62.1588C64.8527 62.1588 75.1873 61.4033 78.856 51.5575C78.856 51.5575 80.3275 22.6819 52.8936 14.6235H52.8887Z" fill="url(#paint4_linear_13690_23278)"/>
<path d="M83.2073 37.0404C82.2296 25.0665 70.394 12.0457 57.946 9.86328C57.946 9.86328 54.7019 9.9571 55.1167 15.3392C80.2397 24.2666 78.8572 51.5523 78.8572 51.5523C78.8572 51.5523 84.185 49.0094 83.2073 37.0355V37.0404Z" fill="url(#paint5_linear_13690_23278)"/>
<path d="M50.7322 12.9595C50.752 13.083 50.7421 13.2064 50.7075 13.3249L55.0823 14.0903C55.2206 9.93768 57.9412 9.85867 57.9412 9.85867C57.9412 9.85867 52.8949 5.15304 46.0957 9.14765C46.0957 9.14765 50.2187 9.60685 50.7322 12.9546V12.9595Z" fill="url(#paint6_linear_13690_23278)"/>
<path d="M30.7549 23.6645C30.7549 23.6645 38.2059 17.4085 48.5652 16.1987C48.5652 16.1987 49.296 16.7814 50.0811 16.9196C50.0811 16.9196 44.1707 26.642 43.2226 37.7419C43.2226 37.7419 45.9976 23.0424 52.4512 17.1073C52.4512 17.1073 63.3487 23.5263 66.341 42.5759C66.341 42.5759 65.5015 27.2049 55.3249 16.6431C55.3249 16.6431 67.1754 19.5366 74.893 33.1103C74.893 33.1103 71.0614 20.6575 55.32 14.1348L48.7973 14.6285C48.7973 14.6285 38.3294 15.3939 30.75 23.6645H30.7549Z" fill="url(#paint7_linear_13690_23278)"/>
<path d="M30.752 23.6636C30.752 23.6636 38.5091 17.289 48.5622 16.1978L50.0781 16.9187C50.0781 16.9187 44.0986 28.4679 43.2196 37.7409C43.2196 37.7409 42.4 24.5227 38.3708 26.4385C34.3417 28.3544 30.752 23.6586 30.752 23.6586V23.6636Z" fill="url(#paint8_linear_13690_23278)"/>
<path d="M43.6875 35.6329C43.6875 35.6329 45.8107 24.1231 52.4519 17.1116C52.4519 17.1116 63.0186 22.3949 66.3861 42.9308C66.3861 42.9308 62.4162 28.7201 56.6144 24.6811C50.8126 20.642 43.6924 35.6329 43.6924 35.6329H43.6875Z" fill="url(#paint9_linear_13690_23278)"/>
<path d="M42.9668 15.7588C44.1864 15.4724 45.0406 15.1465 45.0406 15.1465C45.0406 15.1465 44.221 15.344 42.9668 15.7588Z" fill="url(#paint10_linear_13690_23278)"/>
<path d="M42.9667 15.7586C41.278 16.1536 38.9029 16.4696 37.1599 15.7142C34.1627 14.4205 42.0137 9.09766 42.0137 9.09766C37.708 9.57661 30.5582 11.8677 23.3689 20.7358C21.8234 22.6418 20.6828 24.523 19.8533 26.3549L18.7324 29.4311C18.7324 29.4311 18.7324 29.441 18.7324 29.4459C18.7966 29.3373 24.9589 19.1212 28.9535 17.5263C32.9728 15.9216 30.7557 23.6688 30.7557 23.6688C33.4023 19.378 39.688 16.84 42.9716 15.7586H42.9667Z" fill="url(#paint11_linear_13690_23278)"/>
<path d="M66.3411 42.5804C66.3411 42.5804 65.7288 33.3962 61.6602 25.7922C61.6602 25.7922 68.7112 33.7863 69.2247 30.8583C69.7382 27.9253 65.6054 22.1729 65.6054 22.1729C65.6054 22.1729 73.876 27.0118 77.3127 39.7214C77.3127 39.7214 71.0566 28.9869 66.3411 42.5804Z" fill="url(#paint12_linear_13690_23278)"/>
<path d="M83.2088 37.0402C82.6014 29.5892 77.7872 21.7382 71.2398 16.3413C71.3484 16.4648 74.9233 20.5038 75.9948 23.9947C77.086 27.54 68.8203 23.417 68.8203 23.417C73.7383 27.8511 76.3256 36.5563 76.3256 36.5563C76.3256 36.5563 75.8911 29.9447 79.2339 30.873C82.5768 31.8013 81.3324 48.9055 81.3324 48.9055C82.5669 46.7921 83.7075 43.1432 83.2088 37.0451V37.0402Z" fill="url(#paint13_linear_13690_23278)"/>
<path d="M50.021 47.9183C50.021 47.9183 59.926 45.0494 63.654 43.3064C63.654 43.3064 55.5463 60.697 39.3753 56.0408C22.434 51.1574 24.1227 38.1614 25.1695 33.8804C25.1695 33.8804 26.0287 44.7483 29.9838 48.1207C33.9389 51.4932 46.3671 53.7842 51.2603 51.5672C56.1536 49.3453 50.021 47.9183 50.021 47.9183Z" fill="url(#paint14_linear_13690_23278)"/>
<path d="M31.4559 25.9949L30.0338 20.3066C30.0338 20.3066 25.7133 25.1061 26.8144 30.8634C27.881 36.4381 32.8335 37.4948 35.3171 37.1639L33.1643 31.693C33.1643 31.693 30.0289 33.0212 28.8784 29.8265C27.7279 26.6318 31.4559 25.9949 31.4559 25.9949Z" fill="url(#paint15_linear_13690_23278)"/>
<path d="M47.3102 36.27L39.7012 38.5611C39.7012 38.5611 43.2859 43.6864 51.3492 41.6768C59.0965 39.7462 60.6025 34.3739 60.6074 31.4607L54.7118 38.3241L48.3767 40.0819L45.6067 39.2968L47.32 36.27H47.3102Z" fill="url(#paint16_linear_13690_23278)"/>
<path d="M48.9006 11.4438C48.9006 11.4438 47.7057 13.6262 49.024 14.8854C49.024 14.8854 48.6883 16.0655 51.8484 16.3222C51.8484 16.3222 54.5691 17.1468 55.369 14.7817C55.369 14.7817 56.0208 3.49902 63.2051 5.70123C63.2051 5.70123 66.4591 6.65421 66.7208 3.71134C66.7208 3.71134 67.5947 1.16842 64.9432 0.190759C62.2916 -0.786906 52.2089 1.84983 48.9006 11.4438Z" fill="#6F1F03"/>
<path d="M55.3731 14.7816C55.3731 14.7816 56.0248 3.49896 63.2092 5.70117C63.2092 5.70117 66.4631 6.65415 66.7248 3.71128C66.7248 3.71128 66.8335 3.4002 66.8582 2.95581C66.8582 2.95581 52.682 -1.05854 51.8574 16.3271C51.8574 16.3271 54.5781 17.1517 55.378 14.7865L55.3731 14.7816Z" fill="url(#paint17_linear_13690_23278)"/>
<path d="M48.9006 11.4438C48.9006 11.4438 47.7057 13.6262 49.024 14.8854C49.024 14.8854 48.6883 16.0655 51.8484 16.3222C51.8484 16.3222 54.5691 17.1468 55.369 14.7817C55.369 14.7817 56.0208 3.49902 63.2051 5.70123C63.2051 5.70123 66.4591 6.65421 66.7208 3.71134C66.7208 3.71134 67.5947 1.16842 64.9432 0.190759C62.2916 -0.786906 52.2089 1.84983 48.9006 11.4438Z" fill="url(#paint18_linear_13690_23278)"/>
<path d="M60.6086 31.4651L52.9107 34.25C53.0934 34.7338 53.1527 35.2671 53.0589 35.8103C52.7774 37.4298 51.2319 38.5112 49.6124 38.2297C48.5113 38.0372 47.657 37.262 47.3163 36.2744L40.7344 38.6544C40.7344 38.6544 43.6822 43.5427 52.3775 40.8418C60.6037 38.2841 60.6086 31.47 60.6086 31.47V31.4651Z" fill="#311E56"/>
<path d="M49.1633 38.1066C48.2794 37.8054 47.6079 37.1141 47.3166 36.2698L45.4551 36.9413L49.1633 38.1066Z" fill="#5A449E"/>
<path d="M60.6097 31.4651L58.8716 32.0922C58.2939 34.0919 56.6101 37.2521 51.7465 38.763C46.794 40.3036 43.9103 39.1136 42.4537 38.0273L40.7305 38.6494C40.7305 38.6494 43.6783 43.5378 52.3736 40.8368C60.5998 38.2791 60.6047 31.4651 60.6047 31.4651H60.6097Z" fill="#5A449E"/>
<path d="M60.6097 31.4651L58.8716 32.0922C58.2939 34.0919 56.6101 37.2521 51.7465 38.763C46.794 40.3036 43.9103 39.1136 42.4537 38.0273L40.7305 38.6494C40.7305 38.6494 43.6783 43.5378 52.3736 40.8368C60.5998 38.2791 60.6047 31.4651 60.6047 31.4651H60.6097Z" fill="url(#paint19_linear_13690_23278)"/>
<path d="M31.873 31.7521C30.2534 31.4706 29.1721 29.9251 29.4535 28.3056C29.651 27.1896 30.446 26.3255 31.4533 25.9947L30.0362 21.2644C30.0362 21.2644 25.8737 26.2219 27.4241 31.5398C28.9696 36.8577 34.7566 37.0157 34.7566 37.0157L33.1618 31.6978C32.7519 31.8064 32.3174 31.836 31.873 31.757V31.7521Z" fill="#311E56"/>
<path d="M28.8769 30.7794C27.8992 27.4267 29.3706 24.232 30.4125 22.5285L30.0323 21.2644C30.0323 21.2644 25.8698 26.2219 27.4202 31.5398C28.9657 36.8577 34.7527 37.0157 34.7527 37.0157L34.3478 35.6726C32.6591 35.2875 29.8545 34.1469 28.8719 30.7843L28.8769 30.7794Z" fill="#5A449E"/>
<path d="M28.8769 30.7794C27.8992 27.4267 29.3706 24.232 30.4125 22.5285L30.0323 21.2644C30.0323 21.2644 25.8698 26.2219 27.4202 31.5398C28.9657 36.8577 34.7527 37.0157 34.7527 37.0157L34.3478 35.6726C32.6591 35.2875 29.8545 34.1469 28.8719 30.7843L28.8769 30.7794Z" fill="url(#paint20_linear_13690_23278)"/>
<path d="M50.0211 47.9182C47.2757 52.1696 43.1478 52.3128 43.1478 52.3128L45.271 48.2243C38.1459 48.1157 33.3958 45.3259 30.3147 42.23L28.9025 46.111C27.7323 44.4421 27.8557 41.1634 28.0137 39.4846C25.9004 36.4924 25.1746 33.8853 25.1746 33.8853C25.1746 33.8853 21.649 48.4811 37.4151 54.7816C53.1861 61.0821 62.2616 44.4174 62.2616 44.4174C57.6548 46.3332 53.596 47.4343 50.0211 47.9231V47.9182Z" fill="#311E56"/>
<path d="M61.7619 44.6211C58.819 48.7786 50.5484 58.0911 38.1103 53.1238C26.566 48.512 25.3612 39.4563 25.5488 34.9333C25.292 34.2766 25.1785 33.8816 25.1785 33.8816C25.1785 33.8816 21.653 48.4774 37.419 54.7779C53.1901 61.0785 62.2655 44.4137 62.2655 44.4137C62.0977 44.4828 61.9298 44.552 61.757 44.6211H61.7619Z" fill="#5A449E"/>
<path d="M61.7619 44.6211C58.819 48.7786 50.5484 58.0911 38.1103 53.1238C26.566 48.512 25.3612 39.4563 25.5488 34.9333C25.292 34.2766 25.1785 33.8816 25.1785 33.8816C25.1785 33.8816 21.653 48.4774 37.419 54.7779C53.1901 61.0785 62.2655 44.4137 62.2655 44.4137C62.0977 44.4828 61.9298 44.552 61.757 44.6211H61.7619Z" fill="url(#paint21_linear_13690_23278)"/>
<path d="M30.3184 42.2253L28.9062 46.1064L32.4367 45.6422L33.044 44.5115C32.017 43.7955 31.1134 43.0203 30.3184 42.2253Z" fill="#5A449E"/>
<path d="M30.3184 42.2253L28.9062 46.1064L32.4367 45.6422L33.044 44.5115C32.017 43.7955 31.1134 43.0203 30.3184 42.2253Z" fill="url(#paint22_linear_13690_23278)"/>
<path d="M50.0234 47.919C47.9397 51.1532 45.0512 52.0074 43.7871 52.2345L47.9002 51.721C47.9002 51.721 50.453 51.2273 52.3935 47.519C51.5837 47.682 50.7888 47.8153 50.0234 47.919Z" fill="#5A449E"/>
<path d="M50.0234 47.919C47.9397 51.1532 45.0512 52.0074 43.7871 52.2345L47.9002 51.721C47.9002 51.721 50.453 51.2273 52.3935 47.519C51.5837 47.682 50.7888 47.8153 50.0234 47.919Z" fill="url(#paint23_linear_13690_23278)"/>
<g clip-path="url(#clip0_13690_23278)">
<path d="M72.3052 28C73.3031 43.6744 65 62.8388 65 62.8388C71.401 60.2696 77.8461 65 77.8461 65C82.6978 56.1125 95.1359 57.1545 95.1359 57.1545C85.3773 52.0547 72.3052 28 72.3052 28ZM72.2445 60.9367C67.1061 59.4591 72.1012 41.5793 73.6504 39.0487C75.1997 36.5126 78.7889 59.0401 78.7889 59.0401C78.7889 59.0401 77.383 62.4198 72.2445 60.9422V60.9367ZM86.6013 56.6969C82.1685 56.6969 74.516 44.6999 76.5615 42.66C78.6069 40.62 86.6013 51.9113 86.6013 51.9113C86.6013 51.9113 91.034 56.6969 86.6013 56.6969Z" fill="url(#paint24_linear_13690_23278)"/>
</g>
<g clip-path="url(#clip1_13690_23278)">
<path d="M19.0969 27C19.0969 27 8.84237 51.0694 0 57.0476C0 57.0476 11.4895 54.9454 15.9689 62C15.9689 62 19.3803 55.0768 28 58.5889C28 58.5889 17.5683 41.8924 19.0969 27ZM15.3666 57.6389C15.3666 57.6389 8.51844 55.1728 8.51844 51.8325C8.51844 48.4922 14.4606 39.9368 15.3666 42.4736C16.2726 45.0104 15.3666 57.6389 15.3666 57.6389ZM17.2697 36.1214C18.7881 33.1702 23.055 54.1672 23.055 54.1672C15.2401 58.0381 15.7513 39.0726 17.2697 36.1214Z" fill="url(#paint25_linear_13690_23278)"/>
</g>
<defs>
<linearGradient id="paint0_linear_13690_23278" x1="37.0228" y1="30.1403" x2="24.3629" y2="19.5401" gradientUnits="userSpaceOnUse">
<stop stop-color="#992213" stop-opacity="0.7"/>
<stop offset="1" stop-color="#992213" stop-opacity="0"/>
</linearGradient>
<linearGradient id="paint1_linear_13690_23278" x1="55.0348" y1="49.4484" x2="27.9804" y2="26.7909" gradientUnits="userSpaceOnUse">
<stop stop-color="#992213" stop-opacity="0.7"/>
<stop offset="0.63" stop-color="#992213" stop-opacity="0"/>
</linearGradient>
<linearGradient id="paint2_linear_13690_23278" x1="68.4313" y1="43.2849" x2="42.8829" y2="38.8076" gradientUnits="userSpaceOnUse">
<stop stop-color="#992213" stop-opacity="0.7"/>
<stop offset="1" stop-color="#992213" stop-opacity="0"/>
</linearGradient>
<linearGradient id="paint3_linear_13690_23278" x1="29.1242" y1="57.9969" x2="28.4822" y2="57.8843" gradientUnits="userSpaceOnUse">
<stop stop-color="#992213" stop-opacity="0.7"/>
<stop offset="1" stop-color="#992213" stop-opacity="0"/>
</linearGradient>
<linearGradient id="paint4_linear_13690_23278" x1="74.2092" y1="59.2553" x2="57.3152" y2="13.0028" gradientUnits="userSpaceOnUse">
<stop stop-color="#992213" stop-opacity="0.7"/>
<stop offset="1" stop-color="#992213" stop-opacity="0"/>
</linearGradient>
<linearGradient id="paint5_linear_13690_23278" x1="52.5745" y1="27.9322" x2="84.8297" y2="33.5849" gradientUnits="userSpaceOnUse">
<stop stop-color="#992213" stop-opacity="0.6"/>
<stop offset="1" stop-color="#992213" stop-opacity="0"/>
</linearGradient>
<linearGradient id="paint6_linear_13690_23278" x1="51.3309" y1="13.4327" x2="52.3656" y2="7.52829" gradientUnits="userSpaceOnUse">
<stop stop-color="#992213" stop-opacity="0.6"/>
<stop offset="1" stop-color="#992213" stop-opacity="0"/>
</linearGradient>
<linearGradient id="paint7_linear_13690_23278" x1="55.3246" y1="14.1325" x2="50.8166" y2="39.856" gradientUnits="userSpaceOnUse">
<stop stop-color="#CE480D"/>
<stop offset="0.79" stop-color="#CE480D" stop-opacity="0"/>
</linearGradient>
<linearGradient id="paint8_linear_13690_23278" x1="41.3555" y1="14.9324" x2="37.5328" y2="36.7456" gradientUnits="userSpaceOnUse">
<stop stop-color="#FEB906" stop-opacity="0.8"/>
<stop offset="0.72" stop-color="#FEB906" stop-opacity="0"/>
</linearGradient>
<linearGradient id="paint9_linear_13690_23278" x1="58.7316" y1="18.2087" x2="54.7572" y2="40.8875" gradientUnits="userSpaceOnUse">
<stop stop-color="#FEB906" stop-opacity="0.8"/>
<stop offset="0.51" stop-color="#FEB906" stop-opacity="0"/>
</linearGradient>
<linearGradient id="paint10_linear_13690_23278" x1="44.089" y1="14.9759" x2="43.9228" y2="15.9243" gradientUnits="userSpaceOnUse">
<stop stop-color="#FEB906" stop-opacity="0.8"/>
<stop offset="0.72" stop-color="#FEB906" stop-opacity="0"/>
</linearGradient>
<linearGradient id="paint11_linear_13690_23278" x1="33.4763" y1="7.59671" x2="29.3229" y2="31.2969" gradientUnits="userSpaceOnUse">
<stop stop-color="#FEB906" stop-opacity="0.8"/>
<stop offset="0.72" stop-color="#FEB906" stop-opacity="0"/>
</linearGradient>
<linearGradient id="paint12_linear_13690_23278" x1="71.171" y1="23.141" x2="67.7225" y2="42.819" gradientUnits="userSpaceOnUse">
<stop stop-color="#FEB906" stop-opacity="0.8"/>
<stop offset="0.72" stop-color="#FEB906" stop-opacity="0"/>
</linearGradient>
<linearGradient id="paint13_linear_13690_23278" x1="78.7264" y1="17.6464" x2="73.4905" y2="47.5233" gradientUnits="userSpaceOnUse">
<stop stop-color="#FEB906" stop-opacity="0.8"/>
<stop offset="0.72" stop-color="#FEB906" stop-opacity="0"/>
</linearGradient>
<linearGradient id="paint14_linear_13690_23278" x1="62.4297" y1="50.3028" x2="23.4481" y2="43.4713" gradientUnits="userSpaceOnUse">
<stop stop-color="#FEB906" stop-opacity="0.7"/>
<stop offset="1" stop-color="#FEB906" stop-opacity="0.3"/>
</linearGradient>
<linearGradient id="paint15_linear_13690_23278" x1="26.6629" y1="27.8478" x2="36.643" y2="29.5968" gradientUnits="userSpaceOnUse">
<stop stop-color="#FEB906" stop-opacity="0.7"/>
<stop offset="1" stop-color="#FEB906" stop-opacity="0.3"/>
</linearGradient>
<linearGradient id="paint16_linear_13690_23278" x1="40.4178" y1="34.4841" x2="59.624" y2="37.85" gradientUnits="userSpaceOnUse">
<stop stop-color="#FEB906" stop-opacity="0.7"/>
<stop offset="1" stop-color="#FEB906" stop-opacity="0.3"/>
</linearGradient>
<linearGradient id="paint17_linear_13690_23278" x1="57.8898" y1="17.3945" x2="60.6189" y2="1.82133" gradientUnits="userSpaceOnUse">
<stop stop-color="#491607" stop-opacity="0.8"/>
<stop offset="1" stop-color="#491607" stop-opacity="0"/>
</linearGradient>
<linearGradient id="paint18_linear_13690_23278" x1="59.1956" y1="-0.864492" x2="56.0471" y2="17.1016" gradientUnits="userSpaceOnUse">
<stop offset="0.02" stop-color="#D777DD" stop-opacity="0.3"/>
<stop offset="1" stop-color="#D777DD" stop-opacity="0"/>
</linearGradient>
<linearGradient id="paint19_linear_13690_23278" x1="41.4717" y1="34.4323" x2="59.5983" y2="37.6089" gradientUnits="userSpaceOnUse">
<stop stop-color="#78CA11"/>
<stop offset="0.11" stop-color="#7BCB18" stop-opacity="0.93"/>
<stop offset="0.32" stop-color="#85D02C" stop-opacity="0.75"/>
<stop offset="0.6" stop-color="#94D84B" stop-opacity="0.47"/>
<stop offset="0.94" stop-color="#AAE377" stop-opacity="0.07"/>
<stop offset="1" stop-color="#AEE67F" stop-opacity="0"/>
</linearGradient>
<linearGradient id="paint20_linear_13690_23278" x1="36.0196" y1="29.7985" x2="27.0754" y2="28.231" gradientUnits="userSpaceOnUse">
<stop stop-color="#78CA11"/>
<stop offset="0.11" stop-color="#7BCB18" stop-opacity="0.93"/>
<stop offset="0.32" stop-color="#85D02C" stop-opacity="0.75"/>
<stop offset="0.6" stop-color="#94D84B" stop-opacity="0.47"/>
<stop offset="0.94" stop-color="#AAE377" stop-opacity="0.07"/>
<stop offset="1" stop-color="#AEE67F" stop-opacity="0"/>
</linearGradient>
<linearGradient id="paint21_linear_13690_23278" x1="61.3216" y1="49.8133" x2="23.5364" y2="43.1916" gradientUnits="userSpaceOnUse">
<stop stop-color="#78CA11"/>
<stop offset="0.11" stop-color="#7BCB18" stop-opacity="0.93"/>
<stop offset="0.32" stop-color="#85D02C" stop-opacity="0.75"/>
<stop offset="0.6" stop-color="#94D84B" stop-opacity="0.47"/>
<stop offset="0.94" stop-color="#AAE377" stop-opacity="0.07"/>
<stop offset="1" stop-color="#AEE67F" stop-opacity="0"/>
</linearGradient>
<linearGradient id="paint22_linear_13690_23278" x1="30.7787" y1="46.4299" x2="31.4802" y2="42.4272" gradientUnits="userSpaceOnUse">
<stop stop-color="#78CA11"/>
<stop offset="0.11" stop-color="#7BCB18" stop-opacity="0.93"/>
<stop offset="0.32" stop-color="#85D02C" stop-opacity="0.75"/>
<stop offset="0.6" stop-color="#94D84B" stop-opacity="0.47"/>
<stop offset="0.94" stop-color="#AAE377" stop-opacity="0.07"/>
<stop offset="1" stop-color="#AEE67F" stop-opacity="0"/>
</linearGradient>
<linearGradient id="paint23_linear_13690_23278" x1="47.5671" y1="52.8869" x2="48.6249" y2="46.8511" gradientUnits="userSpaceOnUse">
<stop stop-color="#78CA11"/>
<stop offset="0.11" stop-color="#7BCB18" stop-opacity="0.93"/>
<stop offset="0.32" stop-color="#85D02C" stop-opacity="0.75"/>
<stop offset="0.6" stop-color="#94D84B" stop-opacity="0.47"/>
<stop offset="0.94" stop-color="#AAE377" stop-opacity="0.07"/>
<stop offset="1" stop-color="#AEE67F" stop-opacity="0"/>
</linearGradient>
<linearGradient id="paint24_linear_13690_23278" x1="80.0679" y1="28" x2="80.0679" y2="65" gradientUnits="userSpaceOnUse">
<stop stop-color="white" stop-opacity="0.3"/>
<stop offset="1" stop-color="white" stop-opacity="0.1"/>
</linearGradient>
<linearGradient id="paint25_linear_13690_23278" x1="14" y1="27" x2="14" y2="62" gradientUnits="userSpaceOnUse">
<stop stop-color="white" stop-opacity="0.3"/>
<stop offset="1" stop-color="white" stop-opacity="0.1"/>
</linearGradient>
<clipPath id="clip0_13690_23278">
<rect width="30.1414" height="37" fill="white" transform="translate(65 28)"/>
</clipPath>
<clipPath id="clip1_13690_23278">
<rect width="28" height="35" fill="white" transform="translate(0 27)"/>
</clipPath>
</defs>
</svg>
