<svg xmlns="http://www.w3.org/2000/svg" width="79" height="40" viewBox="0 0 79 40" fill="none">
    <g clip-path="url(#clip0_13702_18993)">
        <path
            d="M78.07 -13.7652C75.3034 -10.6439 72.4659 -7.59357 69.5716 -4.59288C66.6844 -1.5922 63.7689 1.38012 60.7682 4.26731C57.7533 7.14031 54.6604 9.93527 51.681 12.8437C48.7016 15.7522 45.8144 18.7529 42.9556 21.7891C40.1039 24.8323 37.2309 27.8472 34.3153 30.8195C31.4068 33.7989 28.5055 36.7854 25.5473 39.7152C19.6169 45.5605 13.6013 51.3207 7.39424 56.8893L7.29492 56.79C12.8707 50.5829 18.6309 44.5744 24.4762 38.644C27.4059 35.6859 30.3924 32.7845 33.3718 29.876C36.3441 26.9605 39.359 24.0875 42.4023 21.2428C45.4313 18.384 48.4391 15.5039 51.3476 12.5245C54.2561 9.54511 57.051 6.4522 59.924 3.43733C62.8112 0.436639 65.7835 -2.47892 68.7842 -5.36611C71.7849 -8.2533 74.8353 -11.0979 77.9565 -13.8574L78.0559 -13.7581L78.07 -13.7652Z"
            fill="#260925" />
        <path
            d="M32.3496 -17C33.0874 -13.446 33.7187 -9.8707 34.2791 -6.29541C34.8396 -2.71303 35.3716 0.869352 35.7759 4.47302C36.159 8.07668 36.4428 11.6945 36.8755 15.2911C37.3082 18.8877 37.8828 22.4701 38.4858 26.0453C39.103 29.6206 39.6917 33.1959 40.2167 36.7783C40.7487 40.3607 41.2949 43.9431 41.7631 47.5396C42.6711 54.7257 43.4657 61.933 43.9906 69.1758L43.8487 69.1971C42.4371 62.0749 41.2878 54.9172 40.2592 47.7454C39.7556 44.1559 39.33 40.5593 38.8901 36.9627C38.4432 33.3662 38.0602 29.7625 37.7126 26.1518C37.3508 22.541 36.9535 18.9444 36.4144 15.362C35.8753 11.7797 35.1872 8.21856 34.6055 4.63618C34.038 1.05379 33.5981 -2.54278 33.1938 -6.13935C32.7894 -9.74301 32.4489 -13.3538 32.2148 -16.9787L32.3567 -17L32.3496 -17Z"
            fill="#260925" />
        <path
            d="M78.0127 31.5716C74.5225 31.3588 71.0395 31.0325 67.5706 30.6423C64.1017 30.2522 60.6399 29.8265 57.1923 29.2803C53.7447 28.7128 50.3184 28.0389 46.8637 27.521C43.409 26.9961 39.9401 26.6201 36.4641 26.2725C32.9882 25.9391 29.5122 25.5702 26.0504 25.1446C22.5886 24.7261 19.1197 24.3146 15.665 23.8252C8.75565 22.832 1.86045 21.7183 -4.99219 20.335L-4.97091 20.1931C2.00942 20.6897 8.94718 21.4487 15.8708 22.3213C19.3326 22.7682 22.7802 23.3002 26.2348 23.8181C29.6895 24.3288 33.13 24.8963 36.5706 25.4993C40.0111 26.0881 43.4587 26.6485 46.9275 27.0599C50.3964 27.4785 53.8795 27.7409 57.3555 28.1098C60.8243 28.5 64.279 29.0107 67.7266 29.557C71.1742 30.1032 74.6148 30.7133 78.0411 31.4368L78.0198 31.5787L78.0127 31.5716Z"
            fill="#260925" />
        <path
            d="M33.4781 -8.04759C33.4781 -8.04759 33.5561 -8.01922 33.5916 -7.99084L33.6484 -7.94828L33.7477 -7.87025L33.9463 -7.70709L34.3506 -7.38787L35.1735 -6.76361C35.7268 -6.35217 36.2802 -5.94782 36.8406 -5.55057C37.9614 -4.76315 39.1106 -4.01121 40.2811 -3.29473C42.6291 -1.87596 45.0552 -0.606168 47.5877 0.394062C50.1202 1.37301 52.7733 2.09658 55.4477 2.19589C58.115 2.36615 60.7893 1.75608 63.031 0.386968L64.4214 -0.464292L63.8752 1.09635C62.9955 3.59338 62.5486 6.34578 62.4777 9.04144C62.4209 11.7513 62.7118 14.4682 63.4779 17.0646C64.2157 19.668 65.4358 22.1225 66.9468 24.3712C68.4861 26.6058 70.3589 28.6275 72.4516 30.3868L73.1468 30.9756L72.2459 31.1316C68.7628 31.7488 65.3223 33.1037 62.201 34.8984C59.0797 36.7145 56.1854 38.9419 53.6742 41.5524C53.05 42.2051 52.4896 42.9216 51.8866 43.5955C51.5957 43.9431 51.2907 44.2765 51.014 44.6312L50.2266 45.7378C49.7088 46.4827 49.1626 47.1991 48.6731 47.9653L47.3111 50.3133L46.6442 51.4909L46.0767 52.7252L44.9488 55.1939C44.2678 56.868 43.7145 58.5989 43.1044 60.2943L42.8561 60.9824L42.395 60.4078C40.7422 58.3506 38.7417 56.5062 36.5994 54.9314C34.45 53.3566 32.1232 52.0229 29.6403 51.1149C27.1646 50.1927 24.5399 49.6962 21.9081 49.6607C19.2763 49.6252 16.6586 50.1076 14.1545 50.9305L12.8705 51.3561L13.2749 50.0296C13.6225 48.8875 13.8069 47.568 13.8991 46.3053C13.9346 45.6669 13.9701 45.0213 13.9346 44.3829C13.9346 43.7373 13.885 43.0989 13.8211 42.4605C13.5657 39.8996 12.9486 37.3742 12.0406 34.9481L11.2886 33.1604C11.0545 32.5575 10.7069 32.0042 10.4161 31.4225C9.85566 30.252 9.1179 29.1737 8.4298 28.0671C8.10348 27.5067 7.68495 27.003 7.29479 26.4781L6.11721 24.9174C5.27304 23.9243 4.39341 22.9595 3.53506 21.9735L2.70508 21.0229L3.93231 20.7817C5.59936 20.4554 7.32316 19.8666 8.96183 19.214C9.77053 18.8451 10.6076 18.533 11.3879 18.1003C12.1824 17.6959 12.9769 17.2987 13.736 16.8163C16.8076 15.0003 19.6239 12.7586 22.1564 10.2261C22.7877 9.58766 23.3623 8.89956 23.9653 8.23984C24.2632 7.90643 24.5753 7.58011 24.8591 7.23251L25.6678 6.16134C26.1998 5.43777 26.7673 4.74258 27.2781 3.99773L28.7181 1.71351L29.4417 0.571407L30.066 -0.62745L31.3216 -3.02516C31.5415 -3.41532 31.7117 -3.85514 31.8962 -4.28077L32.4424 -5.55766L33.5065 -8.05469L33.4781 -8.04759ZM33.5136 -7.90572C32.8609 -6.18192 32.336 -4.50068 31.6408 -2.85491L30.4845 -0.38626L29.9028 0.848066L29.2218 2.03274L27.8385 4.39498C27.3419 5.16111 26.7957 5.89178 26.2708 6.64372L25.4763 7.76455C25.1996 8.12633 24.8946 8.46684 24.5966 8.82153C24.0007 9.51672 23.4332 10.2332 22.809 10.9071C20.312 13.5957 17.439 15.9225 14.3177 17.8662C11.1751 19.7957 7.83392 21.3492 4.13094 22.1863L4.52819 20.9945C5.42201 22.0019 6.32293 22.995 7.20257 24.0165L8.4227 25.6268C8.81996 26.1659 9.25978 26.6838 9.60028 27.2655C10.3238 28.4076 11.09 29.5213 11.6788 30.7415C11.9767 31.3444 12.3385 31.919 12.5939 32.5504L13.3884 34.4231C14.339 36.9627 15.0412 39.6158 15.2682 42.3328C15.4811 45.0639 15.3888 47.7737 14.5589 50.512L13.6792 49.611C16.3252 48.7669 19.106 48.2916 21.901 48.3554C24.6888 48.4122 27.4554 48.9868 30.0376 50.0083C32.6268 51.0085 35.0246 52.4344 37.2024 54.1156C39.3731 55.8181 41.3381 57.7264 43.0193 59.9397L42.3099 60.0532C42.9838 58.3506 43.5797 56.6126 44.3104 54.9385L45.5163 52.4698L46.1193 51.2355L46.8287 50.0579L48.2333 47.7028C48.7369 46.9367 49.2973 46.2131 49.8294 45.4682L50.6381 44.3545C50.9218 43.9998 51.234 43.6593 51.5319 43.3117C52.142 42.6307 52.7166 41.9142 53.355 41.2616C55.8875 38.6227 58.7676 36.3101 61.9244 34.4373C65.0811 32.5788 68.4507 31.0536 72.1253 30.3016L71.9196 31.0465C69.7205 29.3014 67.7271 27.2797 66.0601 25.0025C64.393 22.7183 63.1232 20.1362 62.3145 17.4122C61.5058 14.6952 61.1157 11.8435 61.2363 9.00597C61.2859 7.5872 61.442 6.18262 61.6973 4.78514C61.9598 3.38766 62.2932 2.03274 62.8111 0.663627L63.6481 1.37301C61.1653 2.85562 58.2214 3.47278 55.398 3.25997C52.5605 3.06843 49.8507 2.23846 47.2827 1.16729C44.7218 0.0677462 42.2886 -1.28008 39.9973 -2.82654C38.8481 -3.59267 37.7273 -4.40137 36.6349 -5.24553C36.0886 -5.66407 35.5495 -6.09679 35.0246 -6.5437L34.2371 -7.21762L33.847 -7.55812L33.6554 -7.72837L33.5632 -7.8135L33.5207 -7.85606C33.5207 -7.85606 33.5349 -7.87025 33.5349 -7.88444L33.5136 -7.90572Z"
            fill="#260925" />
        <path
            d="M34.7832 4.4729C34.7832 4.4729 34.8541 4.48709 34.8754 4.50837L34.9109 4.53674L34.9747 4.5864L35.1024 4.68571L35.3649 4.88434L35.8969 5.2745L36.9752 6.03354C37.6988 6.53011 38.4436 7.0054 39.2027 7.45231C40.7207 8.33904 42.2814 9.14064 43.8988 9.77199C45.5233 10.3821 47.2116 10.829 48.8999 10.8786C50.5883 10.9779 52.2553 10.5736 53.6457 9.71524L55.0645 8.8356L54.5111 10.453C53.972 12.0136 53.667 13.7729 53.6315 15.4825C53.596 17.1992 53.7876 18.923 54.2841 20.5617C54.7594 22.2004 55.4617 23.7894 56.4478 25.2011C56.8805 25.953 57.4906 26.5773 58.0368 27.2512C58.6114 27.9038 59.2853 28.4642 59.9025 29.0814L60.5125 29.6915L59.6967 29.8262C57.4905 30.1951 55.2702 31.0464 53.2697 32.1814C51.2551 33.3164 49.4036 34.7565 47.8004 36.4306C47.4031 36.8491 47.0413 37.3102 46.6583 37.743C46.4738 37.9629 46.2752 38.1828 46.0979 38.4098L45.5942 39.1192C45.2679 39.5944 44.9132 40.0555 44.6011 40.545L43.7285 42.0489L43.3029 42.8079L42.9482 43.6025L42.2388 45.1844C41.8132 46.2626 41.4656 47.3693 41.0825 48.4546L40.8413 49.1427L40.3731 48.5752C39.3091 47.2842 38.018 46.1137 36.656 45.1205C35.2798 44.1274 33.7901 43.3045 32.2152 42.7299C30.6475 42.134 28.9805 41.8503 27.3276 41.8432C25.6605 41.7722 24.0219 42.1837 22.4258 42.6377L21.1631 42.9995L21.539 41.7368C21.7448 41.0487 21.8653 40.2045 21.915 39.41C21.9363 39.0057 21.9576 38.6013 21.9363 38.197C21.9363 37.7926 21.9008 37.3883 21.8583 36.9839C21.688 35.3665 21.2978 33.7704 20.7161 32.2381C20.3969 31.4791 20.0919 30.7201 19.6804 30.0036C19.3258 29.2587 18.8647 28.5706 18.4319 27.8683C17.9921 27.1661 17.453 26.5276 16.9706 25.8537L15.3319 23.9667L14.502 23.0091L15.7292 22.775C16.7578 22.5834 17.8715 22.2075 18.9072 21.8031C19.95 21.3633 20.9786 20.8809 21.9505 20.2921C23.9155 19.1429 25.7102 17.7242 27.3489 16.121C27.7532 15.7166 28.1292 15.2839 28.5194 14.8654C28.7109 14.6525 28.9095 14.4468 29.094 14.2269L29.6189 13.5459C29.9665 13.0848 30.3283 12.645 30.6617 12.1697L31.5981 10.7155L32.0663 9.9919L32.4777 9.23286L33.3006 7.70769C33.5773 7.19693 33.7972 6.60814 34.0455 6.0761L34.7619 4.48709L34.7832 4.4729ZM34.8187 4.60768C34.4072 5.74269 34.1164 6.81386 33.6837 7.85666L32.953 9.45986L32.5912 10.2615L32.1585 11.0276L31.2789 12.5599C30.9667 13.0564 30.612 13.5317 30.2786 14.0212L29.775 14.7448C29.5976 14.9789 29.399 15.1988 29.2146 15.4329C28.8315 15.8869 28.4697 16.3551 28.0724 16.7878C26.4763 18.54 24.6178 20.0509 22.6031 21.3207C20.5672 22.5764 18.4248 23.5979 15.9917 24.1654L16.3889 22.9736C16.9706 23.6191 17.5594 24.2647 18.1269 24.9244C18.6447 25.6267 19.2193 26.2935 19.6946 27.0242C20.6807 28.4713 21.5248 30.0249 22.1633 31.6777C22.7805 33.3306 23.2345 35.0615 23.3692 36.8349C23.504 38.6226 23.4402 40.3748 22.8869 42.1979L22.0072 41.297C23.7523 40.8217 25.547 40.4102 27.3702 40.5166H28.0512C28.2782 40.5379 28.5052 40.5805 28.7251 40.6089C29.172 40.6798 29.626 40.7082 30.0729 40.8075L31.3853 41.148C31.8251 41.2615 32.2365 41.453 32.6622 41.602C34.3363 42.2688 35.8969 43.1839 37.3015 44.2835C38.699 45.3972 39.9617 46.6386 41.0471 48.0858L40.3377 48.1993C40.7846 47.0997 41.1747 45.986 41.65 44.9077L42.4375 43.3187L42.8276 42.5242L43.2887 41.7652L44.1967 40.2471C44.523 39.7576 44.8848 39.2894 45.2253 38.807L45.7432 38.0906C45.9276 37.8636 46.1262 37.6436 46.3178 37.4237C46.715 36.9839 47.0839 36.5228 47.4953 36.1043C49.134 34.4018 50.9926 32.9262 53.0072 31.6919C55.0361 30.4718 57.1926 29.4716 59.5832 28.9679L59.3775 29.7127C58.7036 29.1098 57.98 28.5494 57.3416 27.8967C56.7386 27.2157 56.0647 26.5844 55.561 25.8111C54.426 24.364 53.6386 22.6544 53.0782 20.9022C52.5391 19.1358 52.2908 17.2773 52.3759 15.4329C52.3972 14.9718 52.4397 14.5178 52.4752 14.0567C52.5462 13.6027 52.5887 13.1416 52.6809 12.6946C52.8512 11.7795 53.064 10.9141 53.4116 9.99899L54.277 10.7297C52.6313 11.7015 50.6876 12.0917 48.8503 11.9356C46.9988 11.8008 45.2466 11.2404 43.5937 10.5381C41.948 9.81455 40.3802 8.93492 38.9118 7.91341C38.1741 7.40974 37.4647 6.87771 36.7624 6.32439C36.4148 6.04773 36.0672 5.77107 35.7338 5.47313L35.2372 5.03331L34.9889 4.80631L34.8683 4.69281L34.8045 4.63606L34.7761 4.60768C34.7761 4.60768 34.7974 4.60768 34.8045 4.5935L34.8187 4.60768Z"
            fill="#260925" />
    </g>
    <defs>
        <clipPath id="clip0_13702_18993">
            <rect width="83.0687" height="86.1971" fill="white" transform="translate(-5 -17)" />
        </clipPath>
    </defs>
</svg>