<svg xmlns="http://www.w3.org/2000/svg" width="56" height="40" viewBox="0 0 56 40" fill="none">
    <g clip-path="url(#clip0_13702_18987)">
        <path
            d="M53.2576 68.5834C52.7736 65.5142 52.379 62.4374 52.0466 59.3562C51.7142 56.2749 51.4055 53.1855 51.2112 50.0936C51.0271 46.9952 50.9406 43.8908 50.7161 40.7971C50.4915 37.7033 50.1508 34.6203 49.778 31.5437C49.3968 28.4654 49.0374 25.3872 48.7371 22.2995C48.4266 19.2185 48.1095 16.1273 47.8613 13.0417C47.3801 6.86058 46.9933 0.668547 46.839 -5.54499L46.9603 -5.55905C47.8793 0.582164 48.5659 6.74489 49.1498 12.9168C49.4334 16.001 49.6528 19.0981 49.8774 22.1918C50.107 25.2823 50.2911 28.3808 50.445 31.4773C50.6072 34.5755 50.7965 37.6707 51.1154 40.7535C51.4292 43.8397 51.8694 46.9084 52.2236 49.9899C52.5644 53.0729 52.794 56.1633 52.9916 59.2602C53.1943 62.3538 53.3379 65.457 53.3891 68.5627L53.2678 68.5767L53.2576 68.5834Z"
            fill="#260925" />
        <path
            d="M70.3192 32.791C67.2741 31.1465 64.2755 29.4287 61.3148 27.6576C58.349 25.8897 55.4022 24.0953 52.5107 22.2074C49.6261 20.3079 46.7933 18.3317 43.888 16.4672C40.9827 14.6026 38.0151 12.8432 35.0303 11.102C32.0387 9.37251 29.0642 7.62472 26.114 5.82518C23.1621 4.03401 20.2083 2.2512 17.2841 0.41334C11.4592 -3.27056 5.67808 -7.05465 0.0262369 -11.0304L0.0917972 -11.1304C6.1563 -7.80306 12.0948 -4.27908 17.9797 -0.670079C20.9178 1.14444 23.8181 3.01226 26.7285 4.87347C29.6356 6.72962 32.5202 8.62916 35.3909 10.552C38.2635 12.4665 41.1498 14.3577 44.1069 16.1456C47.0588 17.9367 50.0851 19.6079 53.0578 21.364C56.0236 23.1319 58.9307 24.988 61.8273 26.8726C64.7206 28.7521 67.5844 30.6866 70.3965 32.6978L70.3309 32.7978L70.3192 32.791Z"
            fill="#260925" />
        <path
            d="M31.7204 35.2075C33.0725 33.6838 34.4858 32.221 35.9421 30.8021C37.3933 29.3865 38.8711 27.9896 40.4148 26.672C41.9735 25.3663 43.5916 24.1298 45.1171 22.7953C46.6477 21.4575 48.0957 20.0368 49.5221 18.5943C50.9419 17.1416 52.38 15.7058 53.856 14.3172C55.3254 12.9186 56.7915 11.5148 58.3006 10.1551C61.332 7.45573 64.4345 4.8324 67.6837 2.37957L67.7646 2.47075C65.024 5.48423 62.1315 8.33054 59.166 11.1092C57.6784 12.4909 56.1463 13.8153 54.619 15.1582C53.1033 16.5079 51.538 17.8035 49.963 19.084C48.3944 20.3745 46.8474 21.6871 45.378 23.0857C43.9086 24.4844 42.5317 25.981 41.0904 27.4117C39.6425 28.8324 38.1118 30.1702 36.5681 31.4878C35.0243 32.8054 33.4409 34.0841 31.798 35.2936L31.7171 35.2024L31.7204 35.2075Z"
            fill="#260925" />
        <path
            d="M65.9579 29.9891C65.9579 29.9891 65.9069 30.0222 65.8832 30.0304L65.846 30.0401L65.7768 30.0563L65.63 30.0869L65.3396 30.1532L64.7571 30.2941L63.6034 30.6044C62.838 30.8209 62.0756 31.0641 61.3295 31.3327C59.8322 31.8731 58.3707 32.4909 56.9959 33.2535C55.6277 34.0263 54.3378 34.9422 53.3183 36.0849C52.2689 37.2038 51.5733 38.5889 51.3589 40.0568L51.1522 41.4694L50.4059 40.2297C49.6366 38.9547 48.5974 37.7326 47.4351 36.7341C46.2713 35.7222 44.9637 34.8682 43.5391 34.2697C42.1299 33.6612 40.6201 33.2329 39.0648 33.1142C38.295 32.9888 37.5103 33.0525 36.7234 33.0459C35.9376 33.0745 35.1616 33.2188 34.3784 33.296L33.6439 33.3702L34.0056 32.7549C35.0334 31.0106 35.7296 28.9787 36.1115 26.9425C36.4918 24.8928 36.5738 22.7853 36.3458 20.7138C36.2871 20.1988 36.1795 19.6868 36.0989 19.1716C36.0544 18.9132 36.0183 18.6565 35.9636 18.4046L35.7643 17.6505C35.6279 17.15 35.512 16.6362 35.352 16.1438L34.818 14.673L34.5392 13.9417L34.1977 13.2366L33.5181 11.8316C33.0254 10.9158 32.458 10.0413 31.9296 9.14866L31.6155 8.61981L32.2461 8.6201C33.7562 8.62444 35.3154 8.40296 36.7981 8.03001C38.2826 7.6487 39.723 7.0877 41.0322 6.32451C42.3597 5.57822 43.5264 4.58424 44.4938 3.43943C45.5163 2.32357 46.1831 0.949994 46.8011 -0.420642L47.2604 -1.44405L47.8806 -0.510422C48.2348 0.0355252 48.7551 0.60298 49.275 1.09167C49.545 1.34029 49.8118 1.58385 50.1058 1.80251C50.3878 2.03615 50.6888 2.24313 50.9897 2.45011C52.2055 3.26307 53.5452 3.90949 54.9399 4.38376C55.6511 4.59755 56.3553 4.82302 57.0898 4.94986C57.8115 5.13525 58.5587 5.20355 59.2936 5.30862C60.0353 5.402 60.7887 5.40165 61.5363 5.44817L63.7906 5.39342L64.8741 5.36568L64.3526 6.29304C63.8864 7.12702 63.4985 8.1041 63.1766 9.05995C62.8762 10.0378 62.6126 11.0276 62.4496 12.0385C62.1016 14.0599 62.0422 16.124 62.1999 18.1765C62.2419 18.688 62.3327 19.1965 62.3914 19.7115C62.4275 19.9682 62.4553 20.2232 62.4965 20.4766L62.6656 21.2287C62.7801 21.7291 62.8793 22.2394 63.0123 22.7349L63.4789 24.2135L63.7071 24.9561L64.0012 25.6776L64.5843 27.1237C64.7764 27.6096 65.061 28.0929 65.28 28.5758L65.963 29.9858L65.9579 29.9891ZM65.846 29.9396C65.3049 29.005 64.7382 28.1874 64.2656 27.2802L63.5895 25.8584L63.2499 25.145L62.9729 24.4053L62.4291 22.9193C62.2709 22.4186 62.1466 21.9031 62.0037 21.3924L61.7977 20.6282C61.7398 20.3713 61.7004 20.1096 61.6526 19.8461C61.5655 19.3208 61.4546 18.8037 61.381 18.2769C61.0997 16.168 61.1355 14.0115 61.4295 11.8958C61.7439 9.76681 62.286 7.69839 63.3047 5.69432L63.8615 6.59725C63.0757 6.62582 62.2913 6.66781 61.5073 6.68802C60.7193 6.64619 59.9321 6.66135 59.1466 6.56759C57.5767 6.41527 56.0178 6.11222 54.5109 5.61019C53.0128 5.08813 51.5609 4.41395 50.2543 3.49465C48.9496 2.56699 47.7712 1.52142 46.838 0.0941423L47.9123 0.00767135C47.232 1.48336 46.476 2.96511 45.3428 4.16718L44.9432 4.63472C44.8011 4.78434 44.646 4.91375 44.4923 5.05657C44.1834 5.32881 43.896 5.623 43.574 5.87502L42.5733 6.58886C42.2415 6.82571 41.8702 7.00189 41.522 7.21346C40.0915 7.99072 38.5553 8.54923 36.9822 8.89461C35.3993 9.22481 33.8175 9.38912 32.1908 9.31677L32.5073 8.7882C33.0048 9.72247 33.5514 10.632 34.0233 11.5828L34.6618 13.0361L34.9811 13.7627L35.2377 14.5157L35.7611 16.0149C35.9142 16.5189 36.0232 17.0444 36.1577 17.5533L36.3484 18.3274C36.4012 18.5876 36.4322 18.8477 36.4749 19.1145C36.5486 19.6413 36.651 20.1566 36.7028 20.6833C36.9269 22.7933 36.8696 24.9278 36.5439 27.0282C36.2047 29.1302 35.6407 31.1984 34.6046 33.142L34.2318 32.6009C35.0376 32.4804 35.8478 32.2995 36.6679 32.2344C37.489 32.2044 38.3164 32.1058 39.1405 32.2032C40.7995 32.2474 42.4303 32.6834 43.9656 33.2963C45.4954 33.9342 46.9219 34.8261 48.1428 35.9374C48.446 36.2147 48.7371 36.5071 49.0385 36.7929C49.3125 37.1035 49.6036 37.3959 49.8623 37.7165C50.3932 38.3561 50.8702 39.0019 51.2966 39.7596L50.3436 39.9326C50.6238 38.2424 51.4771 36.676 52.6504 35.491C53.8189 34.2876 55.2145 33.3894 56.6629 32.6508C58.1178 31.9223 59.6376 31.3386 61.1902 30.9059C61.9658 30.6828 62.7476 30.4917 63.529 30.3223C63.9239 30.2385 64.3137 30.158 64.7134 30.0926L65.3068 30.0021L65.6052 29.9594L65.7535 29.9422L65.826 29.9311L65.8613 29.9297C65.8613 29.9297 65.8493 29.9447 65.8591 29.9598L65.846 29.9396Z"
            fill="#260925" />
        <path
            d="M59.9114 25.9615C59.9114 25.9615 59.8688 25.9964 59.8502 26.0012L59.8232 26.0044L59.7777 26.0124L59.6848 26.0367L59.499 26.0854L59.1307 26.1879L58.3923 26.4012C57.9005 26.5479 57.4218 26.7148 56.9446 26.8951C55.9934 27.2608 55.0634 27.6703 54.2008 28.1724C53.3382 28.6746 52.5229 29.261 51.8921 29.9863C51.2397 30.6897 50.8201 31.5509 50.6942 32.4514L50.501 33.8625L49.7379 32.6193C49.2598 31.8377 48.5934 31.0562 47.8621 30.4317C47.1243 29.797 46.3092 29.2556 45.414 28.881C44.5309 28.4915 43.5836 28.2154 42.5996 28.1283C42.1151 28.0405 41.6167 28.0765 41.1158 28.0639C40.6178 28.0781 40.1219 28.1628 39.6236 28.1988L38.8877 28.2596L39.2508 27.6577C39.9078 26.5706 40.3783 25.2742 40.6302 23.9758C40.8839 22.6692 40.9365 21.3206 40.8004 19.9939C40.6188 18.6752 40.3312 17.3606 39.81 16.1328L39.6259 15.6704L39.4029 15.2261L38.9619 14.3342C38.6369 13.755 38.2729 13.1939 37.9307 12.633L37.6115 12.1074L38.2439 12.0994C39.1958 12.0923 40.1889 11.9364 41.123 11.6896C42.0621 11.4394 42.9696 11.0734 43.7932 10.5893C44.6234 10.1153 45.3519 9.48465 45.9559 8.76243C46.5947 8.06062 47.0059 7.19769 47.3869 6.33282L47.8359 5.31604L48.4612 6.24635C48.6645 6.55977 49.0016 6.92291 49.3244 7.23062C49.6556 7.54009 50.0174 7.8297 50.4018 8.07593C51.172 8.58181 52.0078 8.9877 52.8892 9.28503C53.3377 9.41785 53.7792 9.56234 54.2437 9.64166C54.6959 9.75775 55.1677 9.80362 55.6391 9.87127C56.1072 9.93387 56.5848 9.93286 57.0552 9.96531L58.4851 9.93546L59.5584 9.91434L59.0452 10.8434C58.461 11.8976 58.0561 13.1947 57.8333 14.4597C57.5986 15.7397 57.5416 17.048 57.6292 18.3559C57.654 18.6846 57.7025 19.0051 57.7409 19.3322C57.7708 19.6575 57.8309 19.9848 57.9013 20.3055C57.9717 20.6262 58.0318 20.9535 58.1073 21.2708L58.3909 22.2217L58.5276 22.7005L58.7065 23.1662L59.0644 24.0976L59.9179 25.9717L59.9114 25.9615ZM59.7995 25.912C59.4311 25.3106 59.0543 24.8081 58.7493 24.2374L58.2952 23.3253L58.0657 22.8709L57.875 22.3984L57.5091 21.4434C57.4001 21.1191 57.3148 20.7865 57.2193 20.4606C57.1206 20.1297 57.0302 19.8004 56.9769 19.4615C56.9153 19.1208 56.8384 18.79 56.7902 18.4477C56.5925 17.0819 56.5989 15.6844 56.7732 14.2999C56.9711 12.9073 57.3094 11.5746 57.9857 10.2379L58.5458 11.1459L57.016 11.2118C56.5053 11.184 55.9905 11.1948 55.4768 11.1402C54.4542 11.0494 53.4333 10.8498 52.4449 10.5214C51.4685 10.178 50.5088 9.73756 49.6544 9.13545C48.7953 8.51487 48.0345 7.84484 47.4048 6.87427L48.4791 6.78779C48.0275 7.75596 47.5271 8.72707 46.7826 9.51178C46.6143 9.72152 46.4311 9.91939 46.2231 10.0902C46.0184 10.2662 45.8319 10.459 45.6206 10.6248L44.9638 11.0868C44.746 11.2425 44.5019 11.3577 44.271 11.4932C43.3293 11.9964 42.3279 12.3516 41.3002 12.5659C40.2659 12.77 39.2419 12.8669 38.1733 12.806L38.4898 12.2774C38.8043 12.885 39.1527 13.4778 39.4486 14.0903L39.8517 15.0355L40.0558 15.5065L40.2176 15.9905L40.5446 16.9635C40.6401 17.2894 40.7068 17.6268 40.7921 17.9594C40.8774 18.2919 40.9543 18.6227 40.9992 18.9599C41.0441 19.2971 41.1159 19.6312 41.1473 19.97C41.2979 21.3303 41.2566 22.7075 41.0608 24.07C40.8516 25.434 40.5133 26.7668 39.8396 28.0515L39.4668 27.5104C39.9929 27.4277 40.5145 27.3047 41.0468 27.2539C41.582 27.2299 42.1178 27.1624 42.6585 27.2138C43.7412 27.2297 44.8145 27.5102 45.8186 27.9074C46.8224 28.3265 47.7562 28.9058 48.5564 29.6365C49.3616 30.3639 50.0496 31.1673 50.6151 32.1508L49.6621 32.3237C49.8539 31.2009 50.4312 30.1584 51.2074 29.389C51.9822 28.6062 52.8932 28.0223 53.8411 27.551C54.7904 27.0932 55.7802 26.7311 56.7868 26.4732C57.2884 26.3416 57.7966 26.2202 58.3044 26.1206C58.5609 26.0692 58.8155 26.026 59.0684 25.9913L59.456 25.9409L59.6498 25.9158L59.7442 25.9048L59.793 25.9019L59.8148 25.9021C59.8148 25.9021 59.7944 25.9153 59.7992 25.9338L59.7995 25.912Z"
            fill="#260925" />
    </g>
    <defs>
        <clipPath id="clip0_13702_18987">
            <rect width="49.4779" height="95.8635" fill="white"
                transform="translate(0 -11.0708) rotate(-32.9746)" />
        </clipPath>
    </defs>
</svg>