<svg width="456" height="202" viewBox="0 0 456 202" fill="none" xmlns="http://www.w3.org/2000/svg">
<g clip-path="url(#clip0_13687_28374)">
<path d="M452.363 38.1301C453.278 42.402 452.446 47.0218 450.103 50.7115C449.195 52.1405 447.486 53.9022 447.184 55.5656C446.935 53.1688 447.857 50.2125 448.273 47.8459C446.057 50.7569 443.184 54.1744 443.305 57.8339C441.914 55.2481 441.687 52.133 442.549 49.3203C440.001 50.4695 437.718 52.7756 436.576 55.3312C437.975 51.7549 437.317 46.5908 435.381 43.2791C435.495 46.8252 433.983 50.4242 431.677 53.1159C431.956 49.0481 431.246 43.9747 429.219 40.4362C429.552 45.4415 428.199 50.7947 426.263 55.4295C423.911 54.0005 422.52 50.9232 422.891 48.2013C421.862 51.2937 421.689 54.2424 422.339 57.4332C420.585 56.6166 419.859 54.5524 419.322 52.7C418.536 50.0008 417.553 46.2808 417.787 43.4832C415.572 46.6891 414.309 50.1595 415.027 53.9854C413.334 52.4354 412.071 49.7588 412.147 47.4603C411.678 49.1539 410.544 50.961 409.742 52.5261C410.899 48.4961 409.515 43.0598 407.247 39.5289C407.678 42.9237 407.164 46.432 405.78 49.5622C405.077 51.1425 404.109 52.8361 403.134 54.2651C403.323 51.9969 403.013 49.6605 402.726 47.4074C401.773 49.8117 400.284 51.9364 398.355 53.6527C397.607 52.9949 397.252 52.0195 396.919 51.082L396.473 49.8269C396.034 48.602 395.618 47.0066 395.686 45.7062C394.658 47.4452 393.902 49.1161 393.312 51.0517C392.594 47.861 392.859 44.4586 393.517 41.2528C391.581 45.3357 389.449 49.5244 389.902 54.0232C389.192 53.6829 388.685 52.9949 388.458 52.2388C388.231 51.4827 388.413 50.4544 388.541 49.6832C387.46 50.8098 386.213 52.2539 385.925 53.7888C386.084 52.1556 385.827 50.3032 385.018 48.8742C384.973 50.3259 384.474 52.012 383.907 53.3503C382.629 51.1349 381.971 48.1861 381.918 45.6305C380.988 47.1579 380.421 48.9876 380.549 50.772C378.614 48.8969 377.601 45.8574 377.971 43.1884C376.799 44.6703 376.527 46.6664 376.527 48.5566C376.527 50.2805 376.769 52.2086 377.147 53.8946C376.981 53.9476 376.837 53.7812 376.754 53.63C376.096 52.4656 375.763 51.1576 375.31 49.8949C374.856 48.6398 374.229 47.3771 373.162 46.5757C372.973 46.432 372.724 45.7591 372.49 45.7666C373.223 48.9649 373.079 52.269 372.036 55.3766C371.87 55.5051 371.658 55.2783 371.575 55.0742C371.136 53.9854 371.25 52.1254 371.386 50.9534C369.821 52.3825 368.361 54.0307 367.462 55.9437C368.202 53.9022 368.248 51.6793 368.142 49.5169C368.089 48.5188 367.84 47.5737 367.643 46.6059C367.469 45.7515 366.864 44.4737 366.962 43.6193C366.524 47.5586 364.762 51.4978 362.456 54.7188C363.197 51.4147 363.311 46.9083 362.471 43.6269C361.912 48.723 358.411 53.3578 354.774 56.7527C354.313 55.7093 354.903 54.8398 355.251 53.8568C355.727 52.4959 356.423 51.0669 356.634 49.6378C356.778 48.6776 356.612 47.6191 355.946 46.9083C355.568 48.5566 354.177 49.653 353.254 50.9837C352.71 51.77 350.17 54.3029 350.389 55.2027C349.973 53.5015 350.094 51.3466 350.608 49.6908C351.213 47.7325 350.941 45.5171 349.875 43.763C350.018 45.0408 349.368 46.2505 348.778 47.3847C347.879 49.1161 347.145 50.9686 346.132 52.6093C345.557 53.5393 344.355 55.0817 344.65 56.2537C344.151 54.2651 344.136 52.4203 344.098 50.3713C344.091 49.91 344.083 49.4488 344.023 48.9876C343.834 47.4074 343.093 45.8952 341.958 44.7837C342.193 45.9935 342.397 47.2259 342.261 48.4508C341.996 50.8627 339.985 51.6566 339.085 53.6527C339.947 51.7473 339.063 49.29 338.049 47.6266C337.49 46.7042 336.794 45.8725 336.031 45.1164C335.486 44.572 334.095 43.8159 333.793 43.211C334.382 44.3906 334.897 45.6154 335.154 46.9008C335.653 49.411 334.549 51.3315 334.012 53.7056C334.564 51.2861 332.711 47.7552 331.275 45.8498C330.458 44.761 329.453 43.8084 328.326 43.0371C327.51 42.4852 325.529 42.0845 324.954 41.4418C326.61 43.3169 327.91 46.0615 327.729 48.5944C327.555 51.0517 325.287 53.4712 325.211 55.732C325.34 52.012 324.319 49.5774 322.035 46.6437C320.803 50.1898 319.298 53.6451 317.544 56.9644C316.781 55.1346 317.809 51.4903 318.497 49.6378C316.607 51.4676 313.681 54.5676 312.267 56.7905C311.707 53.94 311.851 50.341 312.993 47.672C310.588 49.3354 308.441 53.4561 308.69 56.3671C307.125 52.8815 307.163 47.6418 308.297 43.9974C305.386 47.1276 301.931 50.031 301.092 54.2273C300.948 51.1576 300.577 46.8327 299.012 44.1562C297.75 41.9937 296.117 40.0506 294.204 38.4401C295.89 40.4211 296.767 42.9918 297.084 45.5701C297.379 47.9366 297.493 50.8022 296.888 53.1083C294.604 52.8815 291.005 48.6171 291.882 46.1976C290.544 49.9025 290.491 54.061 291.739 57.7961C289.569 56.1478 289.206 52.3825 289.236 49.6605C287.285 52.6471 286.355 56.2839 286.628 59.8375C284.866 57.7432 284.253 55.5051 285.781 53.2293C283.664 54.4466 281.017 57.471 280.246 59.7922C281.342 56.0495 281.63 50.031 281.146 46.1598C280.261 49.6756 279.097 52.5942 277.328 55.7546C277.123 52.2464 276.692 47.2637 273.993 44.6325C274.681 45.3054 274.772 46.364 274.78 47.3166C274.81 51.3617 275.823 55.4371 271.853 58.1212C273.177 54.0459 270.137 50.6359 270.697 46.6966C270.167 50.3864 269.222 54.5449 268.693 58.2346C266.977 56.609 265.865 54.3634 265.616 52.0195C265.427 53.4334 264.837 55.3388 264.648 56.7527C262.637 54.0459 261.601 48.4886 261.994 45.1391C260.3 48.5642 260.89 53.01 261.616 56.7602C259.189 53.8493 257.087 50.6056 255.446 47.1957C254.917 50.6964 255.159 55.8756 255.446 59.4066C252.951 56.851 250.539 53.32 250.547 49.7513C249.428 52.4505 248.354 55.9512 249.004 58.7941C246.925 56.3217 245.526 52.4429 246.025 49.2522C245.231 51.8532 244.634 53.7661 244.702 56.4805C242.063 52.9873 239.924 49.1161 239.372 44.8669C239.576 49.8949 239.062 55.5203 238.903 60.3592C238.706 57.0551 237.3 53.8342 235.024 51.4298C235.41 53.0251 235.863 54.5298 236.022 56.1932C236.12 57.2215 235.546 60.261 236.015 61.0322C235.38 59.9812 234.782 58.9 234.238 57.7961C233.875 57.0702 233.535 56.3217 233.331 55.5354C232.975 54.1668 233.058 52.7227 233.141 51.3088C233.21 50.0915 233.315 48.791 234.056 47.8232C232.091 49.29 231.032 51.6264 229.739 53.7056C229.497 54.0988 229.24 54.492 228.991 54.8851C230.654 49.3883 229.694 42.5684 226.148 38.0999C227.062 42.3718 226.231 46.9915 223.887 50.6812C222.98 52.1103 221.271 53.872 220.968 55.5354C220.719 53.1386 221.641 50.1822 222.057 47.8157C219.842 50.7266 216.969 54.1442 217.09 57.8036C215.698 55.2178 215.472 52.1027 216.334 49.29C213.785 50.4393 211.502 52.7454 210.36 55.301C211.759 51.7247 211.101 46.5605 209.166 43.2489C209.279 46.7949 207.767 50.3939 205.461 53.0856C205.741 49.0178 205.03 43.9445 203.004 40.4059C203.336 45.4113 201.983 50.7644 200.047 55.3993C197.696 53.9703 196.305 50.893 196.675 48.171C195.647 51.2634 195.473 54.2122 196.123 57.4029C194.369 56.5863 193.643 54.5222 193.106 52.6698C192.32 49.9705 191.337 46.2505 191.571 43.453C189.356 46.6588 188.093 50.1293 188.812 53.9551C187.118 52.4051 185.855 49.7286 185.931 47.43C185.462 49.1237 184.328 50.9308 183.527 52.4959C184.683 48.4659 183.3 43.0296 181.032 39.4986C181.462 42.8935 180.948 46.4018 179.565 49.532C178.862 51.1122 177.894 52.8059 176.918 54.2349C177.107 51.9666 176.797 49.6303 176.51 47.3771C175.958 48.7759 173.705 53.6829 171.837 53.6376C170.56 53.6073 168.753 48.723 169.312 47.8308C168.352 49.3581 167.543 50.9761 166.877 52.6471C165.532 51.0366 164.874 48.8742 165.108 46.7874C163.876 48.3071 163.49 51.9969 163.634 53.9325C162.931 53.5998 162.469 52.9571 162.243 52.2086C162.016 51.4525 162.197 50.4242 162.326 49.653C161.245 50.7795 159.997 52.2237 159.71 53.7585C159.868 52.1254 159.611 50.273 158.802 48.8439C158.757 50.2956 158.258 51.9817 157.691 53.32C156.413 51.1047 155.755 48.1559 155.702 45.6003C154.772 47.1276 154.205 48.9574 154.334 50.7417C152.398 48.8666 151.385 45.8271 151.756 43.1581C150.584 44.6401 150.311 46.6361 150.311 48.5264C150.311 50.2503 150.553 52.1783 150.931 53.8644C150.765 53.9173 150.621 53.751 150.538 53.5998C149.88 52.4354 149.548 51.1273 149.094 49.8647C148.64 48.6096 148.013 47.3469 146.947 46.5454C146.758 46.4018 146.508 45.7288 146.274 45.7364C147.007 48.9347 146.864 52.2388 145.82 55.3463C145.654 55.4749 145.442 55.2481 145.359 55.0439C144.92 53.9551 145.034 52.0951 145.17 50.9232C143.605 52.3522 142.146 54.0005 141.246 55.9134C141.987 53.872 142.032 51.649 141.926 49.4866C141.873 48.4886 141.624 47.5435 141.427 46.5757C141.253 45.7213 140.649 44.4435 140.747 43.5891C140.308 47.5283 138.547 51.4676 136.241 54.6885C136.982 51.3844 137.095 46.8781 136.256 43.5967C135.696 48.6927 132.195 53.3276 128.559 56.7224C128.097 55.679 128.687 54.8095 129.035 53.8266C129.511 52.4656 130.207 51.0366 130.419 49.6076C130.562 48.6474 130.396 47.5888 129.731 46.8781C129.353 48.5264 127.961 49.6227 127.039 50.9534C126.494 51.7398 123.954 54.2727 124.173 55.1724C123.757 53.4712 123.878 51.3164 124.393 49.6605C124.997 47.7022 124.725 45.4869 123.659 43.7328C123.803 45.0105 123.153 46.2203 122.563 47.3544C121.663 49.0859 120.93 50.9383 119.916 52.579C119.342 53.509 118.14 55.0515 118.435 56.2234C117.936 54.2349 117.92 52.39 117.883 50.341C117.875 49.8798 117.867 49.4186 117.807 48.9574C117.618 47.3771 116.877 45.8649 115.743 44.7535C115.977 45.9632 116.181 47.1957 116.045 48.4205C115.781 50.8325 113.769 51.6264 112.87 53.6225C113.732 51.7171 112.847 49.2598 111.834 47.5964C111.274 46.674 110.579 45.8423 109.815 45.0862C109.271 44.5418 107.879 43.7857 107.577 43.1808C108.167 44.3603 108.681 45.5852 108.938 46.8705C109.437 49.3808 108.333 51.3012 107.796 53.6754C108.348 51.2559 106.496 47.7249 105.059 45.8196C104.243 44.7308 103.237 43.7781 102.11 43.0069C101.294 42.455 99.3129 42.0542 98.7383 41.4115C100.394 43.2867 101.695 46.0313 101.513 48.5642C101.339 51.0215 99.071 53.441 98.9954 55.7017C99.1239 51.9817 98.1032 49.5471 95.8198 46.6135C94.5873 50.1595 93.0827 53.6149 91.3286 56.9341C90.5649 55.1044 91.5932 51.46 92.2812 49.6076C90.391 51.4373 87.4649 54.5373 86.051 56.7602C85.4915 53.9098 85.6352 50.3108 86.7769 47.6418C84.3725 49.3052 82.2252 53.4259 82.4747 56.3368C80.9096 52.8512 80.9474 47.6115 82.0815 43.9671C79.1706 47.0974 75.7152 50.0008 74.876 54.1971C74.7323 51.1273 74.3618 46.8025 72.7967 44.1259C71.534 41.9635 69.9009 40.0203 67.988 38.4099C69.674 40.3908 70.5511 42.9615 70.8687 45.5398C71.1636 47.9064 71.277 50.772 70.6721 53.0781C68.3887 52.8512 64.7897 48.5869 65.6668 46.1674C64.3285 49.8722 64.2756 54.0307 65.5231 57.7658C63.3531 56.1176 62.9902 52.3522 63.0204 49.6303C61.0697 52.6168 60.1397 56.2537 60.4119 59.8073C58.6502 57.7129 58.0378 55.4749 59.5651 53.199C57.448 54.4164 54.8017 57.4407 54.0305 59.7619C55.1268 56.0193 55.4141 50.0008 54.9302 46.1296C54.0456 49.6454 52.8812 52.5639 51.112 55.7244C50.9078 52.2161 50.4768 47.2335 47.7776 44.6023C48.4656 45.2752 48.5564 46.3337 48.5639 47.2864C48.5942 51.3315 49.6073 55.4068 45.6378 58.091C46.961 54.0156 43.9215 50.6056 44.481 46.6664C43.9518 50.3561 43.0066 54.5146 42.4774 58.2044C40.761 56.5788 39.6496 54.3332 39.4001 51.9893C39.211 53.4032 38.6213 55.3085 38.4323 56.7224C36.4211 54.0156 35.3852 48.4583 35.7784 45.1088C34.0847 48.5339 34.6745 52.9798 35.4003 56.73C32.9733 53.819 30.8713 50.5754 29.2306 47.1654C28.7013 50.6661 28.9433 55.8454 29.2306 59.3763C26.7355 56.8207 24.3236 53.2898 24.3311 49.721C23.2121 52.4203 22.1385 55.921 22.7963 58.7639C20.717 56.2915 19.3182 52.4127 19.8172 49.222C19.0233 51.823 18.426 53.7359 18.4941 56.4502C18.4941 56.2385 17.9648 55.7395 17.8363 55.5581C17.6246 55.2556 17.4129 54.9532 17.2012 54.6507C16.7702 54.0081 16.3619 53.3578 15.9763 52.6925C15.3412 51.6037 14.8724 50.5905 14.3961 49.411C13.6097 47.483 13.2846 45.3735 13.4358 43.3018C12.9973 43.9898 12.8309 44.8064 12.7024 45.6154C12.3395 47.9442 12.2109 50.3259 12.5285 52.6698C12.8536 55.0515 13.6324 57.3727 13.708 59.7771C13.3451 58.779 12.9897 57.7734 12.6268 56.7754C12.279 55.8151 12.0295 54.7112 11.5531 53.8115C11.1827 53.1007 10.7895 52.3825 10.4039 51.6793C10.1771 51.2634 9.92754 50.8552 9.65535 50.4695C9.50413 50.2578 8.9673 49.8042 8.92194 49.5622C9.25462 51.4222 10.5929 60.3592 7.7878 61.0397C5.89 61.4934 3.87879 56.9644 3.31928 55.6942C1.86002 52.3825 1.2249 48.7683 0.604908 45.1996C-0.423379 49.7286 0.166374 54.7717 0.166374 59.4519V143.242H454.942V55.9512L455.002 55.5127C456.938 49.9176 456.038 42.7347 452.356 38.0999L452.363 38.1301Z" fill="url(#paint0_linear_13687_28374)"/>
<path d="M65.1127 36.0654C64.954 35.9595 62.0279 35.4303 58.4516 34.8405C59.253 29.6991 59.8277 25.9942 59.8277 25.911C59.8277 25.6313 54.8223 24.5198 53.7109 25.0793C53.5899 25.4423 53.0757 29.011 52.4104 33.8878C48.4106 33.2829 44.978 32.8369 44.8041 33.0108C44.8041 33.0108 44.5243 36.3527 44.668 37.1844C45.3182 37.4566 48.3048 38.0388 51.7677 38.6437C50.2026 50.3177 48.2821 65.2808 48.2821 65.2808L53.4311 66.8081C53.4311 66.8081 55.843 51.5048 57.703 39.6266C61.1886 40.1785 64.092 40.5792 64.4171 40.5263C64.833 38.999 65.5286 36.3527 65.1127 36.0729V36.0654Z" fill="url(#paint1_linear_13687_28374)"/>
<path d="M143.313 26.9167C143.472 26.8108 146.398 26.2816 149.975 25.6918C149.173 20.5504 148.599 16.8455 148.599 16.7624C148.599 16.4826 153.604 15.3711 154.715 15.9307C154.836 16.2936 155.35 19.8623 156.016 24.7391C160.016 24.1343 163.448 23.6882 163.622 23.8621C163.622 23.8621 163.902 27.204 163.758 28.0357C163.108 28.3079 160.121 28.8901 156.659 29.495C158.224 41.1691 160.144 56.1321 160.144 56.1321L154.995 57.6595C154.995 57.6595 152.583 42.3561 150.723 30.4779C147.238 31.0298 144.334 31.4306 144.009 31.3776C143.593 29.8503 142.898 27.204 143.313 26.9243V26.9167Z" fill="url(#paint2_linear_13687_28374)"/>
<path d="M315.554 27.1284C315.395 27.0225 312.469 26.4932 308.893 25.9035C309.694 20.7621 310.269 17.0572 310.269 16.974C310.269 16.6943 305.264 15.5828 304.152 16.1423C304.031 16.5052 303.517 20.074 302.852 24.9508C298.852 24.3459 295.419 23.8998 295.245 24.0737C295.245 24.0737 294.966 27.4157 295.109 28.2474C295.76 28.5196 298.746 29.1018 302.209 29.7066C300.644 41.3807 298.724 56.3438 298.724 56.3438L303.873 57.8711C303.873 57.8711 306.284 42.5678 308.144 30.6896C311.63 31.2415 314.533 31.6422 314.859 31.5893C315.274 30.062 315.97 27.4157 315.554 27.1359V27.1284Z" fill="url(#paint3_linear_13687_28374)"/>
<path d="M416.642 25.2985C416.483 25.1927 413.557 24.6634 409.981 24.0737C410.782 18.9322 411.357 15.2274 411.357 15.1442C411.357 14.8644 406.352 13.753 405.24 14.3125C405.119 14.6754 404.605 18.2442 403.94 23.121C399.94 22.5161 396.507 22.07 396.333 22.2439C396.333 22.2439 396.054 25.5858 396.197 26.4175C396.848 26.6897 399.834 27.2719 403.297 27.8768C401.732 39.5509 399.811 54.514 399.811 54.514L404.96 56.0413C404.96 56.0413 407.372 40.738 409.232 28.8597C412.718 29.4117 415.621 29.8124 415.946 29.7595C416.362 28.2322 417.058 25.5858 416.642 25.3061V25.2985Z" fill="url(#paint4_linear_13687_28374)"/>
<path d="M357.773 30.818C357.644 30.7953 355.716 31.2868 353.372 31.9219C352.435 28.5648 351.754 26.1453 351.731 26.0924C351.656 25.9261 348.291 26.6368 347.77 27.287C347.8 27.5441 348.473 29.8653 349.425 33.0182C346.824 33.7592 344.602 34.4397 344.541 34.5985C344.541 34.5985 345.297 36.708 345.615 37.1843C346.083 37.1692 348.072 36.6928 350.348 36.1031C352.639 43.6565 358.551 64.5776 358.551 64.5776L362.113 64.0785C362.113 64.0785 356.404 42.8172 354.234 35.0521C356.51 34.417 358.393 33.8575 358.582 33.7365C358.408 32.6855 358.098 30.886 357.773 30.8255V30.818Z" fill="url(#paint5_linear_13687_28374)"/>
<path d="M106.508 32.3076C106.387 32.2698 104.406 32.4362 101.987 32.6857C101.601 29.2228 101.329 26.7277 101.314 26.6747C101.268 26.4933 97.8281 26.6521 97.2081 27.2116C97.193 27.4686 97.4879 29.8655 97.9113 33.1318C95.2196 33.4418 92.9211 33.7593 92.8379 33.903C92.8379 33.903 93.2462 36.1108 93.4806 36.6249C93.9493 36.6854 95.9832 36.5418 98.3271 36.3225C99.363 44.1481 101.813 65.7497 101.813 65.7497L105.412 65.8328C105.412 65.8328 103.219 43.9288 102.334 35.9142C104.686 35.6571 106.629 35.4076 106.833 35.3169C106.833 34.2508 106.818 32.4211 106.501 32.3152L106.508 32.3076Z" fill="url(#paint6_linear_13687_28374)"/>
<path d="M186.529 7.72667C186.68 7.66618 189.235 7.74935 192.35 7.90057C192.608 3.43206 192.797 0.218659 192.812 0.143049C192.865 -0.0913398 197.273 -0.114023 198.112 0.55134C198.15 0.87646 197.93 3.97644 197.605 8.18788C201.076 8.40715 204.047 8.65666 204.161 8.83056C204.161 8.83056 203.79 11.6886 203.518 12.3615C202.928 12.4674 200.305 12.422 197.28 12.301C196.471 22.4024 195.375 35.3316 195.375 35.3316L190.77 35.687C190.77 35.687 191.519 22.3873 192.116 12.0591C189.084 11.8852 186.574 11.7037 186.309 11.5903C186.234 10.2293 186.128 7.87789 186.536 7.71911L186.529 7.72667Z" fill="url(#paint7_linear_13687_28374)"/>
<path d="M179.814 59.436C179.814 59.436 179.572 21.3364 182.377 18.5918C185.182 15.8396 205.256 18.0323 206.859 21.0945C208.462 24.1566 205.642 63.8591 205.597 64.8874C205.551 65.9157 179.814 59.436 179.814 59.436Z" fill="url(#paint8_linear_13687_28374)"/>
<path d="M264.503 31.4762C264.48 31.2947 265.319 30.9469 265.766 30.9847C266.212 31.0225 267.361 32.3305 267.603 32.701C267.845 33.0715 268.253 35.113 268.253 35.113C268.253 35.113 269.682 34.7878 269.848 34.3342C270.015 33.8881 269.682 27.552 269.969 27.1437C270.257 26.7355 271.277 26.3272 271.436 26.4481C271.603 26.5691 271.966 33.1849 272.291 33.1849C272.865 32.5725 273.757 30.1227 273.886 29.9186C274.007 29.7145 274.377 26.2818 274.536 26.123C274.695 25.9642 275.844 26.0852 275.844 26.3272C275.844 26.5691 275.927 30.2513 275.761 30.6596C275.595 31.0679 274.861 32.9052 274.778 33.1093L274.695 33.3966C274.695 33.3966 276.532 31.5593 276.857 31.0301C277.183 30.5008 277.674 27.5596 277.916 27.4386C278.158 27.3176 278.975 27.605 279.141 27.7637C279.307 27.9225 278.854 31.4005 278.566 31.892C278.279 32.3835 276.812 34.5081 276.812 34.5081C276.812 34.5081 278.566 33.3664 279.103 32.6254C280.003 30.7049 279.957 30.0547 280.207 30.1303C280.449 30.2135 280.94 30.2135 280.986 30.3723C281.024 30.5386 280.661 33.5554 280.373 33.9637C280.086 34.372 277.636 36.2093 277.636 36.2093C277.636 36.2093 276.903 38.9464 274.733 40.9878C274.65 44.2995 275.126 65.0618 275.126 65.0618L266.998 64.6838L269.176 41.3961C269.176 41.3961 266.272 37.6005 266.03 37.1469C265.788 36.7008 265.66 33.4269 265.66 33.4269C265.66 33.4269 264.518 31.7483 264.473 31.4686L264.503 31.4762Z" fill="url(#paint9_linear_13687_28374)"/>
<path d="M236.401 71.239C236.401 65.4776 235.056 42.9914 235.056 42.9914C233.135 41.6455 230.731 38.8631 230.443 38.1902C230.156 37.5172 229.869 34.5382 229.869 34.5382L226.217 32.0431C226.217 32.0431 224.773 32.527 224.296 32.3304L223.812 32.1414C223.812 32.1414 223.813 30.1226 224.1 29.737C224.387 29.3514 227.079 29.2531 227.85 29.6387C228.621 30.0243 231.404 31.1736 231.789 31.1736C230.345 27.3327 229.385 26.3724 228.81 25.7902C228.236 25.2156 226.315 25.019 226.217 24.7317C226.119 24.4444 226.028 21.851 226.406 21.7527C226.792 21.6544 228.614 21.7527 230.058 22.6146C231.502 23.4766 234.912 27.1285 235.29 27.1285C235.192 25.881 234.284 22.0854 233.99 21.1251C233.702 20.1649 231.872 17.8134 231.872 17.4278C231.872 17.0422 233.793 16.0366 234.466 16.513C235.139 16.9969 236.772 19.2954 237.248 20.7395C237.732 22.1837 239.07 26.9848 239.07 26.501C239.07 26.0171 239.501 21.9871 239.07 20.8832C238.715 19.9834 236.953 16.5583 237.15 16.082C237.339 15.5981 239.743 15.6964 240.129 16.3693C240.515 17.0422 242.722 19.5373 242.821 21.2688C242.919 23.0002 242.919 27.9905 242.919 27.9905C242.919 27.9905 244.839 33.7519 245.611 33.6612C246.382 33.5629 246.473 32.9882 246.571 32.217C246.669 31.4458 245.898 30.1 246.087 29.4346C246.276 28.7617 248.007 27.7031 248.295 28.0887C248.582 28.4744 250.699 31.6424 250.888 32.7992C251.077 33.9485 245.89 40.6777 245.414 41.0633C245.512 49.5164 247.72 71.2314 247.72 71.2314H236.386L236.401 71.239Z" fill="url(#paint10_linear_13687_28374)"/>
<path d="M162.099 31.4762C162.076 31.2947 162.915 30.9469 163.361 30.9847C163.807 31.0225 164.957 32.3305 165.199 32.701C165.441 33.0715 165.849 35.113 165.849 35.113C165.849 35.113 167.278 34.7878 167.444 34.3342C167.611 33.8805 167.278 27.552 167.565 27.1437C167.852 26.7355 168.873 26.3272 169.032 26.4481C169.191 26.5691 169.561 33.1849 169.886 33.1849C170.461 32.5725 171.353 30.1227 171.482 29.9186C171.603 29.7145 171.973 26.2818 172.132 26.123C172.291 25.9642 173.44 26.0852 173.44 26.3272C173.44 26.5691 173.523 30.2513 173.357 30.6596C173.19 31.0679 172.457 32.9052 172.374 33.1093L172.291 33.3966C172.291 33.3966 174.128 31.5593 174.453 31.0301C174.778 30.5008 175.27 27.5596 175.512 27.4386C175.754 27.3176 176.57 27.605 176.737 27.7637C176.903 27.9225 176.449 31.4005 176.162 31.892C175.875 32.3835 174.408 34.5081 174.408 34.5081C174.408 34.5081 176.162 33.3664 176.699 32.6254C177.599 30.7049 177.553 30.0547 177.803 30.1303C178.045 30.2135 178.536 30.2135 178.581 30.3723C178.619 30.5386 178.256 33.5554 177.969 33.9637C177.682 34.372 175.232 36.2093 175.232 36.2093C175.232 36.2093 174.499 38.9464 172.329 40.9878C172.245 44.2995 172.722 65.0618 172.722 65.0618L164.594 64.6838L166.771 41.3961C166.771 41.3961 163.868 37.6005 163.626 37.1469C163.384 36.7008 163.255 33.4269 163.255 33.4269C163.255 33.4269 162.114 31.7483 162.068 31.4686L162.099 31.4762Z" fill="url(#paint11_linear_13687_28374)"/>
<path d="M167.65 20.5886C166.364 20.5886 166.122 22.5998 167.423 22.5998C168.723 22.5998 168.95 20.5886 167.65 20.5886Z" fill="#E6A500"/>
<path d="M36.091 42C34.8057 42 34.5637 44.0112 35.8642 44.0112C37.1647 44.0112 37.3915 42 36.091 42Z" fill="#E6A500"/>
<path d="M62.0992 45C60.7987 45 60.5643 47.0263 61.8724 47.0263C63.1804 47.0263 63.4073 45 62.0992 45Z" fill="#E6A500"/>
<path d="M175.74 44.209C174.674 44.209 174.893 45.8573 175.952 45.8573C177.01 45.8573 176.799 44.209 175.74 44.209Z" fill="#E6A500"/>
<path d="M131.321 34C129.695 34 129.499 36.5254 131.132 36.5254C132.765 36.5254 132.954 34 131.321 34Z" fill="#E6A500"/>
<path d="M257.337 37.1242C257.337 37.1242 257.284 37.0637 257.261 37.0335C256.86 36.542 256.013 36.7613 256.006 37.4342C256.006 38.0769 256.822 38.4096 257.246 37.8879L257.314 37.8047C257.465 37.6232 257.495 37.3132 257.344 37.1242H257.337Z" fill="url(#paint12_linear_13687_28374)"/>
<path d="M246.154 23.3257C245.224 23.3257 245.39 24.7698 246.313 24.7698C247.235 24.7698 247.076 23.3257 246.154 23.3257Z" fill="url(#paint13_linear_13687_28374)"/>
<path d="M228.682 16.3167C226.769 16.3167 226.648 19.2957 228.561 19.2957C230.474 19.2957 230.595 16.3167 228.682 16.3167Z" fill="#E6A500" fill-opacity="0.2"/>
<path d="M216.07 42.311C214.784 42.311 214.542 44.3222 215.843 44.3222C217.143 44.3222 217.37 42.311 216.07 42.311Z" fill="#E6A500"/>
<path d="M161.849 39.9824C160.549 39.9824 160.314 42.0088 161.622 42.0088C162.93 42.0088 163.157 39.9824 161.849 39.9824Z" fill="#E6A500" fill-opacity="0.2"/>
<path d="M115.321 36C113.695 36 113.499 38.5254 115.132 38.5254C116.765 38.5254 116.954 36 115.321 36Z" fill="#E6A500" fill-opacity="0.2"/>
<path d="M145.594 40.2092C143.273 40.2092 143.311 43.8082 145.624 43.8082C147.938 43.8082 147.908 40.2092 145.594 40.2092Z" fill="#E6A500" fill-opacity="0.2"/>
<path d="M223.404 39.6497C222.814 39.6497 222.262 40.005 222.202 40.6326C222.149 41.177 222.587 41.8348 223.185 41.8348C223.782 41.8348 224.326 41.4794 224.387 40.8518C224.44 40.3075 224.001 39.6497 223.404 39.6497Z" fill="#E6A500" fill-opacity="0.2"/>
<path d="M249.391 42.447C248.552 42.447 247.735 43.1351 247.75 44.0121C247.773 44.8665 248.423 45.6529 249.315 45.6529C250.155 45.6529 250.971 44.9648 250.956 44.0877C250.933 43.2334 250.283 42.447 249.391 42.447Z" fill="#E6A500" fill-opacity="0.2"/>
<path d="M253.836 23.2046C253.11 23.2046 252.377 23.7414 252.369 24.5202C252.369 25.2385 252.906 25.987 253.685 25.987C254.411 25.987 255.144 25.4502 255.152 24.6714C255.152 23.9531 254.615 23.2046 253.836 23.2046Z" fill="#E6A500" fill-opacity="0.2"/>
<path d="M339.091 39C337.806 39 337.564 41.0112 338.864 41.0112C340.165 41.0112 340.392 39 339.091 39Z" fill="#E6A500" fill-opacity="0.2"/>
<path d="M266.168 44.8367C264.822 44.8367 264.588 46.931 265.941 46.931C267.295 46.931 267.522 44.8367 266.168 44.8367Z" fill="url(#paint14_linear_13687_28374)"/>
<path d="M389.133 33.9329C387.787 33.9329 387.553 36.0272 388.906 36.0272C390.26 36.0272 390.486 33.9329 389.133 33.9329Z" fill="#E6A500"/>
<path d="M279.126 42.4324C279.126 42.4324 279.066 42.3795 279.028 42.3493C278.468 41.8578 277.591 41.6915 277.009 42.2737C276.457 42.8332 276.404 43.6951 276.934 44.2924C276.964 44.3227 276.994 44.3605 277.024 44.3907C277.523 44.9502 278.521 45.0032 279.051 44.4663C279.55 43.9598 279.724 42.9693 279.126 42.44V42.4324Z" fill="url(#paint15_linear_13687_28374)"/>
<path d="M402.091 31.5286C402.091 31.5286 402.031 31.4757 401.993 31.4455C401.433 30.954 400.556 30.7877 399.974 31.3699C399.422 31.9294 399.369 32.7913 399.898 33.3886C399.929 33.4189 399.959 33.4567 399.989 33.4869C400.488 34.0464 401.486 34.0994 402.015 33.5625C402.514 33.0559 402.688 32.0655 402.091 31.5362V31.5286Z" fill="#E6A500"/>
<path d="M265.609 26.8037C264.664 26.8037 264.838 28.263 265.775 28.263C266.713 28.263 266.547 26.8037 265.609 26.8037Z" fill="url(#paint16_linear_13687_28374)"/>
<path d="M327.902 31.5349C327.842 31.4744 327.781 31.4139 327.721 31.3534C327.35 30.9829 326.798 30.8544 326.36 31.2097C325.989 31.5122 325.846 32.2002 326.216 32.5707C326.277 32.6312 326.337 32.6917 326.398 32.7522C326.768 33.1227 327.32 33.2512 327.759 32.8958C328.129 32.5934 328.273 31.9054 327.902 31.5349Z" fill="#E6A500"/>
<path d="M289.297 42.2886C288.442 42.2886 288.586 43.6117 289.433 43.6117C290.28 43.6117 290.144 42.2886 289.297 42.2886Z" fill="#E6A500"/>
<path d="M214.574 17C213.72 17 213.863 18.3232 214.71 18.3232C215.557 18.3232 215.421 17 214.574 17Z" fill="#E6A500"/>
<path d="M367.574 41C366.72 41 366.863 42.3232 367.71 42.3232C368.557 42.3232 368.421 41 367.574 41Z" fill="#E6A500"/>
</g>
<defs>
<linearGradient id="paint0_linear_13687_28374" x1="227.997" y1="38.0999" x2="227.997" y2="143.242" gradientUnits="userSpaceOnUse">
<stop offset="0.045" stop-color="#31332E"/>
<stop offset="1" stop-color="#31332E" stop-opacity="0"/>
</linearGradient>
<linearGradient id="paint1_linear_13687_28374" x1="54.9338" y1="24.9241" x2="54.9338" y2="66.8081" gradientUnits="userSpaceOnUse">
<stop offset="0.045" stop-color="#31332E"/>
<stop offset="1" stop-color="#31332E" stop-opacity="0"/>
</linearGradient>
<linearGradient id="paint2_linear_13687_28374" x1="153.492" y1="15.7754" x2="153.492" y2="57.6595" gradientUnits="userSpaceOnUse">
<stop offset="0.045" stop-color="#31332E"/>
<stop offset="1" stop-color="#31332E" stop-opacity="0"/>
</linearGradient>
<linearGradient id="paint3_linear_13687_28374" x1="305.375" y1="15.9871" x2="305.375" y2="57.8711" gradientUnits="userSpaceOnUse">
<stop offset="0.045" stop-color="#31332E"/>
<stop offset="1" stop-color="#31332E" stop-opacity="0"/>
</linearGradient>
<linearGradient id="paint4_linear_13687_28374" x1="406.463" y1="14.1572" x2="406.463" y2="56.0413" gradientUnits="userSpaceOnUse">
<stop offset="0.045" stop-color="#31332E"/>
<stop offset="1" stop-color="#31332E" stop-opacity="0"/>
</linearGradient>
<linearGradient id="paint5_linear_13687_28374" x1="353.327" y1="26.0679" x2="353.327" y2="64.5776" gradientUnits="userSpaceOnUse">
<stop offset="0.045" stop-color="#31332E"/>
<stop offset="1" stop-color="#31332E" stop-opacity="0"/>
</linearGradient>
<linearGradient id="paint6_linear_13687_28374" x1="99.8355" y1="26.6033" x2="99.8355" y2="65.8328" gradientUnits="userSpaceOnUse">
<stop offset="0.045" stop-color="#31332E"/>
<stop offset="1" stop-color="#31332E" stop-opacity="0"/>
</linearGradient>
<linearGradient id="paint7_linear_13687_28374" x1="195.199" y1="-0.00634766" x2="195.199" y2="35.687" gradientUnits="userSpaceOnUse">
<stop offset="0.045" stop-color="#31332E"/>
<stop offset="1" stop-color="#31332E" stop-opacity="0"/>
</linearGradient>
<linearGradient id="paint8_linear_13687_28374" x1="193.58" y1="17.3352" x2="193.58" y2="64.998" gradientUnits="userSpaceOnUse">
<stop offset="0.045" stop-color="#31332E"/>
<stop offset="1" stop-color="#31332E" stop-opacity="0"/>
</linearGradient>
<linearGradient id="paint9_linear_13687_28374" x1="272.731" y1="26.0513" x2="272.731" y2="65.0618" gradientUnits="userSpaceOnUse">
<stop offset="0.045" stop-color="#31332E"/>
<stop offset="1" stop-color="#31332E" stop-opacity="0"/>
</linearGradient>
<linearGradient id="paint10_linear_13687_28374" x1="237.353" y1="15.7798" x2="237.353" y2="71.239" gradientUnits="userSpaceOnUse">
<stop offset="0.045" stop-color="#31332E"/>
<stop offset="1" stop-color="#31332E" stop-opacity="0"/>
</linearGradient>
<linearGradient id="paint11_linear_13687_28374" x1="170.326" y1="26.0513" x2="170.326" y2="65.0618" gradientUnits="userSpaceOnUse">
<stop offset="0.045" stop-color="#31332E"/>
<stop offset="1" stop-color="#31332E" stop-opacity="0"/>
</linearGradient>
<linearGradient id="paint12_linear_13687_28374" x1="256.725" y1="36.7668" x2="256.725" y2="38.1451" gradientUnits="userSpaceOnUse">
<stop offset="0.045" stop-color="#31332E"/>
<stop offset="1" stop-color="#31332E" stop-opacity="0"/>
</linearGradient>
<linearGradient id="paint13_linear_13687_28374" x1="246.232" y1="23.3257" x2="246.232" y2="24.7698" gradientUnits="userSpaceOnUse">
<stop offset="0.045" stop-color="#31332E"/>
<stop offset="1" stop-color="#31332E" stop-opacity="0"/>
</linearGradient>
<linearGradient id="paint14_linear_13687_28374" x1="266.056" y1="44.8367" x2="266.056" y2="46.931" gradientUnits="userSpaceOnUse">
<stop offset="0.045" stop-color="#31332E"/>
<stop offset="1" stop-color="#31332E" stop-opacity="0"/>
</linearGradient>
<linearGradient id="paint15_linear_13687_28374" x1="278.035" y1="41.9038" x2="278.035" y2="44.8411" gradientUnits="userSpaceOnUse">
<stop offset="0.045" stop-color="#31332E"/>
<stop offset="1" stop-color="#31332E" stop-opacity="0"/>
</linearGradient>
<linearGradient id="paint16_linear_13687_28374" x1="265.691" y1="26.8037" x2="265.691" y2="28.263" gradientUnits="userSpaceOnUse">
<stop offset="0.045" stop-color="#31332E"/>
<stop offset="1" stop-color="#31332E" stop-opacity="0"/>
</linearGradient>
<clipPath id="clip0_13687_28374">
<rect width="456" height="201.756" fill="white"/>
</clipPath>
</defs>
</svg>
